<svg width="254" height="327" viewBox="0 0 254 327" fill="none" xmlns="http://www.w3.org/2000/svg">
<path d="M174.86 327C171.213 327 167.818 326.118 165.052 324.356C150.465 315.479 150.78 298.858 150.968 288.911C151.031 286.959 151.031 284.315 150.906 283.308C148.453 277.767 133.741 246.352 126.385 230.801C125.882 230.801 125.316 230.801 124.813 230.801C122.801 230.801 120.789 230.738 118.84 230.549C118.777 230.549 118.777 230.549 118.714 230.549C123.556 250.885 123.367 257.621 122.361 261.398C121.858 263.35 120.852 265.68 118.274 268.765C123.241 270.842 127.705 273.99 131.54 278.082C140.909 288.029 142.48 297.158 143.298 302.069C143.424 302.824 143.549 303.454 143.612 303.832C144.995 309.75 142.858 313.716 141.412 315.479C138.771 318.816 134.747 320.515 129.34 320.515C127.579 320.515 117.206 320.264 101.55 319.886H100.733C90.5472 319.634 80.9904 319.382 78.3497 319.319C73.6971 319.256 62.4429 317.367 58.6077 301.88C52.006 275.501 70.0507 264.169 81.9966 256.677C89.73 251.829 92.8734 249.437 92.4962 247.107C91.8675 243.015 89.9185 231.242 88.158 220.854C77.5953 213.425 75.269 203.793 75.269 196.679V196.49L75.5205 191.453C74.766 192.712 73.7602 194.034 72.5656 195.293C72.0626 202.47 69.4848 213.11 54.2695 219.406C51.6288 220.476 48.7366 221.043 45.7187 221.043C42.575 221.043 39.3056 220.476 35.9733 219.28C35.4075 219.091 34.8416 218.902 34.3386 218.714C32.4524 219.406 30.1891 219.91 27.6113 219.91C26.5425 219.91 25.4737 219.847 24.4677 219.658C22.1414 219.28 19.9409 218.273 17.929 216.825C17.6146 216.573 17.3 216.384 17.0485 216.132L16.86 216.006C16.2313 215.44 15.6026 214.81 15.0367 214.18C8.81229 212.607 5.29134 209.018 3.34227 205.933C-0.995971 199.134 -1.12172 189.25 3.02791 178.736C7.74339 166.774 16.923 158.715 27.9886 156.449C30.4407 152.419 33.4585 148.894 36.9794 145.998L34.213 138.695C32.7041 134.729 33.9615 130.384 37.2937 127.803C38.9284 126.544 41.0034 125.852 43.0782 125.852C45.0901 125.852 46.9762 126.481 48.6109 127.677L59.8651 135.799C63.5746 135.043 67.5987 134.54 71.9998 134.288C72.8172 134.225 73.6974 134.225 74.5147 134.225C75.7722 134.225 77.0297 134.288 78.2871 134.414L79.4816 110.49L64.9579 98.717C61.4999 95.8839 60.4311 90.9732 62.5059 87.0069C63.2604 85.4959 64.3922 84.2368 65.7125 83.4183C66.2155 83.1036 64.895 81.5926 64.895 81.5926L59.9281 75.5487C55.4641 71.0787 52.5719 67.1755 50.8115 64.7831C50.3085 64.0906 49.6797 63.2721 49.4911 63.0203C44.7756 57.7318 39.0543 40.8593 47.1649 32.8008C52.1319 27.8272 59.5508 25.4348 69.9248 25.4348C76.0235 25.4348 83.317 26.2533 92.1192 27.9531C96.1431 28.7086 100.984 30.1566 106.391 32.1712C108.906 26.5051 110.667 22.4128 111.547 20.1463C115.571 10.1361 125.19 0 137.702 0C139.148 0 140.594 0.125884 141.977 0.44067C154.929 2.896 162.788 17.0614 163.669 29.0862C163.857 31.4786 164.234 37.3336 164.926 46.3995C170.962 47.6586 179.261 49.4845 185.674 51.2473C196.111 54.0174 209.818 59.4317 215.916 69.4419C215.979 69.5678 216.042 69.6937 216.105 69.7567C218.054 68.9382 220.129 68.4975 222.392 68.4975C226.479 68.4975 230.063 70.0085 232.766 72.7786C234.778 71.9602 236.79 71.6454 238.488 71.6454C239.053 71.6454 239.682 71.7083 240.248 71.7713C248.359 72.6527 251.628 77.4374 252.948 81.3407C254.332 85.37 254.08 90.0918 253.703 95.3802C253.263 101.802 249.302 115.212 245.655 127.237L244.901 129.692C244.712 130.259 244.523 130.888 244.335 131.581C242.763 137.058 240.311 145.431 235.847 154.749L241.38 158.4C244.838 160.667 246.41 165.074 245.215 169.04C244.021 173.069 240.374 175.777 236.161 175.777H221.323C213.527 183.08 205.039 186.731 199.066 188.494C194.288 189.879 188.126 190.698 180.707 190.823C180.959 191.264 181.21 191.768 181.399 192.271C182.845 196.427 181.273 201.023 177.564 203.415L161.405 213.74C160.085 216.447 158.261 218.839 155.998 220.98L175.74 248.052C178.947 244.778 183.097 241.252 188.315 238.23C191.962 236.09 199.569 232.501 208.937 232.501C213.778 232.501 218.431 233.508 222.581 235.397C228.428 238.104 237.104 245.533 229.371 265.05C221.826 284.189 213.024 298.921 200.952 312.961C193.282 321.775 183.725 327 174.86 327Z" fill="#F3EAD4"/>
<path d="M239.367 80.4594C234.022 79.8298 230.942 85.4959 228.678 92.0435C229.181 87.1328 228.993 82.2222 226.981 79.452C225.912 77.9411 224.403 77.1857 222.517 77.1857C220.505 77.1857 218.87 77.8781 217.675 79.1373C215.098 81.8444 214.658 86.9441 214.721 91.8548C214.029 90.0919 213.148 88.7069 211.954 87.7625C210.571 86.6293 208.873 85.9996 206.736 85.9367C207.742 83.7961 208.496 81.5927 208.936 79.2633C209.062 79.0744 209.188 78.8225 209.313 78.5707C209.879 77.1227 209.628 75.4858 208.559 73.723C204.975 67.868 196.11 62.7685 183.598 59.4318C173.287 56.6616 159.581 53.9544 156.814 53.3878C156.06 43.4406 155.305 32.9267 155.054 29.3382C154.551 21.8463 149.71 10.451 140.53 8.75118C131.477 6.98838 123.303 14.669 119.908 23.1053C118.273 27.1346 114.564 35.6339 111.168 43.1888C102.995 39.6632 95.7016 37.2707 90.6088 36.3263C70.8038 32.5489 59.0466 33.3045 53.5767 38.7818C50.1815 42.1814 53.3253 53.6397 56.2174 56.9135C56.7204 57.4801 57.3492 58.2985 58.1036 59.3687C59.7383 61.5723 62.1273 64.8461 65.774 68.5606L65.5855 68.6234L66.5286 69.316L66.8429 69.6308L66.9059 69.5678C68.5406 70.701 75.5822 75.4857 89.4143 81.026L90.106 81.2779C89.9802 81.9075 89.9174 82.474 89.8545 83.1036L86.7109 145.431C82.7499 143.794 78.0345 142.598 72.6274 142.976C67.1574 143.354 62.3161 144.046 58.0407 145.242L43.454 134.729C43.2654 134.603 42.9513 134.603 42.7627 134.729C42.5741 134.917 42.4481 135.169 42.5739 135.421L47.7925 149.272C41.4423 152.797 36.8526 157.834 33.6461 164.633C23.6493 165.011 15.5386 171.307 11.3261 181.946C8.30822 189.627 8.11948 196.741 10.8859 201.023C12.7721 203.919 15.853 205.556 20.1284 205.807C20.8828 207.067 21.8259 208.389 22.9576 209.333L23.0203 209.396C23.8376 210.088 24.8437 210.592 25.9754 210.781C29.9993 211.473 33.3315 209.396 34.3374 208.64C34.4003 208.703 34.4634 208.703 34.5892 208.766C35.658 209.522 36.9152 210.088 38.4242 210.592C40.4361 211.348 42.951 212.04 45.6546 212.04C47.3522 212.04 49.1127 211.788 50.8103 211.033C63.5107 205.807 63.6364 197.749 63.6993 191.264V191.075C68.9178 187.172 69.3579 183.332 69.1064 181.38C68.6034 177.099 66.5914 173.447 63.3849 171.055C60.2413 168.725 56.2173 167.718 51.9419 168.285C52.0048 168.222 52.0049 168.159 52.0678 168.033C54.0168 163.5 57.6007 155.127 75.7081 153.742C79.9206 153.427 83.3787 154.623 86.1451 156.323L84.0701 196.616C84.0701 204.548 88.094 210.844 96.016 215.251C97.7136 225.513 100.291 240.937 101.046 245.659C102.366 254.095 95.01 258.691 86.5221 264.043C75.0163 271.283 61.939 279.467 66.9688 299.677C69.1694 308.491 74.3876 310.379 78.4115 310.442C81.1151 310.505 91.049 310.757 101.612 311.009C114.375 311.324 127.515 311.638 129.276 311.638C130.91 311.638 133.237 311.45 134.494 309.939C135.312 308.931 135.437 307.546 135.06 305.72C134.872 305.028 134.746 304.272 134.62 303.391C133.866 298.858 132.671 291.996 125.126 284C115.381 273.675 102.932 273.801 96.4562 274.746C102.241 271.094 112.614 264.043 113.872 259.132C115.381 253.214 110.414 232.627 106.893 219.469C111.483 220.665 115.947 221.295 119.53 221.547C121.354 221.673 123.114 221.798 124.875 221.798C127.201 221.798 129.527 221.672 131.665 221.421C138.267 235.46 156.877 274.934 159.078 280.034C159.832 281.797 159.769 285.071 159.707 288.911C159.518 298.04 159.329 310.505 169.64 316.738C171.087 317.619 172.91 318.06 174.922 318.06C180.455 318.06 187.748 314.66 194.538 306.791C205.981 293.57 214.217 279.53 221.448 261.398C225.346 251.514 224.592 245.47 219.122 242.889C210.005 238.671 199.568 241.378 192.903 245.344C186.553 249.059 182.026 253.655 179.323 256.866C178.631 257.684 176.619 260.265 175.55 262.028L143.674 218.273C150.213 215.377 154.174 210.718 155.18 204.863C155.808 201.4 157.506 192.146 159.769 180.373C161.718 180.624 169.892 181.569 178.82 181.569C185.107 181.569 191.772 181.128 196.802 179.617C203.278 177.665 215.412 172.44 223.397 159.219C230.564 147.383 233.96 135.736 235.972 128.811C236.16 128.055 236.412 127.426 236.537 126.796C236.726 126.103 236.978 125.285 237.292 124.341C239.681 116.534 244.585 100.354 244.962 94.4359C245.591 84.8664 245.34 81.152 239.367 80.4594ZM205.855 108.098C205.101 108.853 204.284 109.105 203.403 108.853C201.58 108.413 199.945 106.146 199.254 104.257C198.688 102.683 197.871 100.858 196.739 99.7244C197.871 99.5985 199.002 99.2836 200.134 98.9688C201.077 98.717 201.957 98.4652 202.649 98.4022C204.849 98.2134 206.044 100.228 206.421 101.109C207.49 103.628 207.301 106.713 205.855 108.098ZM184.038 100.984C186.365 100.984 188.628 100.795 190.766 100.291C188.565 102.494 187.308 107.405 191.206 112.19C195.607 117.667 204.032 123.837 209.313 126.355C209.691 132.966 208.119 145.62 203.529 152.545C195.481 164.633 183.158 168.851 162.41 166.585C167.063 142.409 172.658 113.701 175.299 100.228C177.751 100.606 180.895 100.984 184.038 100.984Z" fill="#141414"/>
<path d="M129.969 216.258C129.969 216.258 157.004 273.612 159.708 279.845C162.412 286.078 155.684 307.546 169.956 316.234C175.3 319.508 185.423 316.36 193.911 306.476C204.096 294.703 212.773 281.293 220.695 261.273C224.593 251.388 223.65 245.974 218.746 243.708C210.447 239.867 200.324 241.882 193.156 246.1C181.022 253.214 175.552 263.476 175.552 263.476L175.3 263.161L137.577 211.348" fill="#6FA467"/>
<path d="M174.86 318.563C172.722 318.563 170.899 318.06 169.39 317.178C158.953 310.82 159.142 298.228 159.33 289.037C159.393 285.259 159.456 281.985 158.702 280.285C156.061 274.116 129.277 217.265 128.962 216.699C128.711 216.195 128.963 215.565 129.466 215.314C129.969 215.062 130.597 215.314 130.849 215.817C131.1 216.384 157.947 273.234 160.588 279.467C161.468 281.608 161.468 284.881 161.342 289.099C161.216 297.788 160.965 309.624 170.396 315.416C174.986 318.186 184.48 315.793 193.03 305.846C204.285 292.751 212.521 278.9 219.626 260.958C224.278 249.185 221.072 246.1 218.242 244.778C209.754 240.874 199.695 243.581 193.659 247.107C181.902 253.969 176.495 263.98 176.432 264.105L175.489 263.602L174.608 264.231L136.633 212.103C136.319 211.662 136.382 210.97 136.885 210.655C137.325 210.34 138.016 210.403 138.331 210.907L175.363 261.713C175.426 261.587 175.552 261.461 175.614 261.335C176.243 260.328 177.375 258.754 178.884 256.928C181.588 253.718 186.114 249.059 192.527 245.344C199.318 241.378 209.88 238.671 219.06 242.889C224.718 245.533 225.536 251.703 221.575 261.776C214.407 279.971 206.045 294.01 194.602 307.294C187.875 315.164 180.456 318.563 174.86 318.563Z" fill="#141414"/>
<path d="M95.1367 205.619C95.1367 205.619 100.607 238.293 101.738 245.659C105.008 266.372 59.0475 265.05 67.7239 299.614C68.2898 301.817 70.2389 309.75 78.4753 309.876C84.5111 310.002 126.133 311.072 129.34 311.072C132.546 311.072 135.375 310.254 134.369 306.035C133.363 301.817 133.489 294.011 124.624 284.63C110.981 270.15 92.2445 276.571 92.2445 276.571C92.2445 276.571 111.484 265.554 113.118 259.069C115.319 250.444 102.996 208.452 102.996 208.452" fill="#6FA467"/>
<path d="M129.276 312.142C127.516 312.142 114.313 311.827 101.612 311.512C91.1125 311.261 81.1158 311.009 78.4122 310.946C74.3255 310.883 68.9186 308.931 66.6551 299.928C61.4995 279.467 74.7028 271.22 86.3343 263.917C94.7593 258.628 101.99 254.095 100.669 245.911C99.5375 238.608 94.0676 206.185 94.0676 205.87C93.9418 205.303 94.3822 204.737 94.948 204.674C95.5139 204.548 96.0797 204.989 96.1425 205.555C96.2054 205.87 101.613 238.293 102.744 245.596C104.253 255.166 96.0797 260.328 87.4033 265.743C75.8346 272.983 63.8885 280.475 68.6669 299.425C70.2387 305.594 73.5081 308.805 78.4122 308.868C81.1158 308.931 91.1125 309.183 101.612 309.435C114.313 309.75 127.453 310.064 129.214 310.064C131.226 310.064 132.483 309.75 132.986 309.057C133.426 308.491 133.489 307.609 133.175 306.35C132.986 305.594 132.86 304.776 132.734 303.895C131.98 299.55 130.911 293.003 123.744 285.385C110.729 271.597 92.6843 277.578 92.4957 277.641C91.9927 277.83 91.4271 277.578 91.1756 277.075C90.9241 276.571 91.1126 276.004 91.6156 275.753C96.834 272.731 110.729 263.854 111.986 258.88C113.684 252.27 106.077 223.246 101.864 208.829C101.675 208.262 101.99 207.696 102.555 207.507C103.121 207.318 103.687 207.633 103.876 208.199C104.379 209.899 116.325 250.57 114.061 259.384C112.867 264.106 103.75 270.59 97.7773 274.431C104.63 273.675 116.073 274.242 125.253 283.937C132.86 291.996 134.055 298.921 134.809 303.517C134.935 304.398 135.061 305.154 135.249 305.846C135.69 307.735 135.501 309.246 134.621 310.316C133.426 311.953 130.974 312.142 129.276 312.142Z" fill="#141414"/>
<path d="M119.531 221.106C104.567 219.847 84.6367 214.055 84.6367 196.678L90.4211 83.1665C92.4959 63.7757 114.753 50.2399 134.055 52.3175L136.507 52.5693C155.809 54.6468 178.192 72.9674 176.117 92.3582C176.117 92.3582 156.815 191.327 154.489 204.863C152.162 218.462 134.495 222.365 119.531 221.106Z" fill="#6FA467"/>
<path d="M124.876 222.428C123.052 222.428 121.229 222.365 119.469 222.176C112.993 221.609 103.688 220.099 96.017 215.88C87.7806 211.347 83.6312 204.926 83.6312 196.741L89.4153 83.1665C90.4213 73.66 96.08 65.0348 105.259 58.8649C113.936 53.0099 124.499 50.3028 134.244 51.3101L136.696 51.562C156.815 53.7025 179.387 72.4638 177.249 92.4842V92.5471C177.061 93.5544 157.947 191.642 155.621 205.052C153.295 218.021 138.645 222.428 124.876 222.428ZM119.594 220.098C134.935 221.358 151.345 217.139 153.483 204.8C155.809 191.516 174.609 94.8765 175.112 92.2953C177.061 73.9747 155.432 55.7801 136.445 53.7025L133.992 53.4507C116.011 51.499 93.5651 64.1534 91.4903 83.3554L85.7059 196.804C85.7059 215.251 109.409 219.217 119.594 220.098Z" fill="#141414"/>
<path d="M93.1242 97.3943L70.993 91.1616L95.0733 110.741" fill="#6FA467"/>
<path d="M95.0741 111.812C94.8227 111.812 94.634 111.749 94.3825 111.56L70.3022 91.9801C69.925 91.6653 69.7993 91.0987 70.0508 90.658C70.3023 90.2173 70.8052 89.9654 71.2453 90.1543L93.3768 96.3871C93.9426 96.513 94.2568 97.1425 94.1311 97.7091C94.0053 98.2757 93.3765 98.5907 92.8107 98.4647L75.5835 93.6169L95.7029 109.986C96.143 110.364 96.206 110.993 95.8287 111.497C95.703 111.686 95.3885 111.812 95.0741 111.812Z" fill="#141414"/>
<path d="M99.3501 185.22L76.1497 177.98L94.1944 194.349" fill="#6FA467"/>
<path d="M94.1935 195.419C93.942 195.419 93.6905 195.356 93.5019 195.167L75.5201 178.799C75.1429 178.484 75.0801 177.917 75.3316 177.477C75.5831 177.036 76.0861 176.847 76.5891 176.973L99.7892 184.213C100.355 184.402 100.669 184.968 100.481 185.535C100.292 186.102 99.7263 186.416 99.1604 186.228L80.5499 180.436L95.0108 193.594C95.4509 193.971 95.4509 194.664 95.0737 195.105C94.7593 195.293 94.445 195.419 94.1935 195.419Z" fill="#141414"/>
<path d="M162.349 158.4L180.267 149.523L160.714 147.131" fill="#6FA467"/>
<path d="M162.349 159.471C161.971 159.471 161.594 159.282 161.406 158.904C161.154 158.401 161.343 157.771 161.909 157.519L176.684 150.216L160.651 148.202C160.085 148.139 159.645 147.572 159.708 147.005C159.771 146.439 160.337 145.998 160.903 146.061L180.456 148.453C180.896 148.516 181.274 148.894 181.336 149.335C181.399 149.775 181.211 150.279 180.771 150.468L162.852 159.345C162.663 159.471 162.537 159.471 162.349 159.471Z" fill="#141414"/>
<path d="M136.382 196.679L144.555 180.184L126.51 186.983" fill="#6FA467"/>
<path d="M136.382 197.748C136.193 197.748 136.067 197.685 135.942 197.622C135.439 197.37 135.187 196.741 135.439 196.237L142.418 182.135L126.888 187.99C126.322 188.179 125.756 187.927 125.505 187.36C125.316 186.794 125.568 186.227 126.133 185.975L144.178 179.176C144.555 179.05 145.058 179.113 145.31 179.428C145.561 179.742 145.687 180.246 145.498 180.624L137.325 197.119C137.136 197.559 136.759 197.748 136.382 197.748Z" fill="#141414"/>
<path d="M151.157 208.955L172.66 195.23L151.535 197.496" fill="#6FA467"/>
<path d="M151.158 210.025C150.78 210.025 150.466 209.836 150.277 209.521C149.963 209.018 150.089 208.388 150.592 208.073L168.259 196.804L151.66 198.63C151.095 198.693 150.529 198.252 150.466 197.685C150.403 197.119 150.843 196.552 151.409 196.489L172.471 194.223C172.974 194.16 173.414 194.475 173.603 194.915C173.792 195.356 173.603 195.923 173.163 196.174L151.66 209.899C151.535 209.962 151.346 210.025 151.158 210.025Z" fill="#141414"/>
<path d="M121.166 135.358C131.236 135.358 139.399 127.184 139.399 117.1C139.399 107.017 131.236 98.8425 121.166 98.8425C111.096 98.8425 102.933 107.017 102.933 117.1C102.933 127.184 111.096 135.358 121.166 135.358Z" fill="#F3EAD4"/>
<path d="M121.166 136.428C120.474 136.428 119.783 136.365 119.091 136.302C108.529 135.169 100.795 125.599 101.927 115.022C103.058 104.446 112.615 96.702 123.178 97.8352C133.741 98.9685 141.474 108.538 140.342 119.115C139.273 129.062 130.911 136.428 121.166 136.428ZM121.166 99.9127C112.489 99.9127 105.008 106.46 104.065 115.274C103.059 124.718 109.912 133.217 119.343 134.224C128.774 135.232 137.262 128.369 138.267 118.926C139.273 109.482 132.42 100.983 122.989 99.9757C122.36 99.9128 121.732 99.9127 121.166 99.9127Z" fill="#141414"/>
<path d="M157.884 135.484C167.954 135.484 176.118 127.31 176.118 117.227C176.118 107.143 167.954 98.969 157.884 98.969C147.814 98.969 139.651 107.143 139.651 117.227C139.651 127.31 147.814 135.484 157.884 135.484Z" fill="#F3EAD4"/>
<path d="M157.884 136.554C157.193 136.554 156.501 136.491 155.81 136.428C150.654 135.861 146.064 133.343 142.858 129.314C139.651 125.285 138.142 120.248 138.708 115.085C139.274 109.923 141.789 105.327 145.813 102.116C149.837 98.8424 154.867 97.3945 160.022 97.9611C170.585 99.0944 178.318 108.664 177.186 119.241C176.621 124.403 174.106 128.999 170.082 132.21C166.498 135.043 162.285 136.554 157.884 136.554ZM157.822 99.9757C153.923 99.9757 150.151 101.298 147.07 103.816C143.486 106.712 141.286 110.804 140.783 115.4C140.28 119.996 141.6 124.466 144.492 128.055C147.385 131.643 151.471 133.847 156.061 134.35C160.651 134.854 165.115 133.532 168.699 130.636C172.282 127.74 174.483 123.648 174.986 119.052C175.489 114.456 174.169 109.986 171.276 106.397C168.384 102.809 164.298 100.605 159.708 100.102C159.079 100.039 158.45 99.9757 157.822 99.9757Z" fill="#141414"/>
<path d="M115.445 120.248C113.81 120.059 112.616 118.485 112.993 116.848C113.307 115.4 114.691 114.456 116.2 114.645L129.214 116.03C129.529 116.093 129.843 115.778 129.78 115.463C129.152 109.545 124.185 104.76 117.897 104.698C112.302 104.635 107.272 108.601 106.077 114.078C104.505 121.255 109.472 127.992 116.577 128.747C121.67 129.314 126.322 126.607 128.523 122.326C128.711 122.011 128.46 121.57 128.145 121.57L115.445 120.248Z" fill="#141414"/>
<path d="M151.974 120.437C150.339 120.248 149.145 118.674 149.522 117.037C149.836 115.589 151.219 114.645 152.728 114.834L166.309 116.282C166.561 116.282 166.812 116.093 166.749 115.841C166.246 109.86 161.279 104.949 154.866 104.823C149.207 104.761 144.178 108.727 142.983 114.267C141.411 121.444 146.378 128.181 153.483 128.936C158.575 129.503 163.291 126.733 165.492 122.452C165.617 122.2 165.429 121.885 165.177 121.885L151.974 120.437Z" fill="#141414"/>
<path d="M122.172 105.516C112.175 104.446 109.283 104.761 107.9 104.572C111.421 100.48 117.834 98.4649 123.052 98.9686C129.088 99.5981 134.307 103.439 136.319 107.09C134.37 106.775 127.328 106.083 122.172 105.516Z" fill="#FFD24A"/>
<path d="M136.382 108.098C136.319 108.098 136.319 108.098 136.256 108.098C134.81 107.909 130.598 107.468 126.574 107.028L122.047 106.524C115.068 105.769 111.547 105.706 109.661 105.643C108.781 105.643 108.215 105.58 107.775 105.517C107.398 105.454 107.083 105.202 106.958 104.824C106.832 104.446 106.895 104.069 107.146 103.754C110.667 99.6617 117.269 97.2064 123.242 97.773C129.969 98.4655 135.251 102.747 137.325 106.398C137.514 106.776 137.514 107.154 137.262 107.531C137.074 107.909 136.76 108.098 136.382 108.098ZM110.478 103.565C112.553 103.628 116.074 103.754 122.361 104.447L126.888 104.95C129.529 105.202 132.233 105.517 134.245 105.706C131.856 102.999 127.769 100.48 123.116 99.9765C118.652 99.5358 113.748 100.984 110.478 103.565Z" fill="#141414"/>
<path d="M156.438 105.642C146.441 106.901 143.926 107.594 142.543 107.72C144.492 103.061 150.402 100.165 155.558 99.3464C161.468 98.402 167.378 100.291 170.459 104.068C168.447 104.257 161.531 104.95 156.438 105.642Z" fill="#FFD24A"/>
<path d="M142.543 108.79C142.229 108.79 141.915 108.601 141.726 108.349C141.475 108.034 141.474 107.657 141.6 107.342C143.675 102.242 150.088 99.1573 155.432 98.3389C161.72 97.3316 167.944 99.3463 171.339 103.438C171.591 103.753 171.654 104.131 171.528 104.509C171.402 104.886 171.025 105.138 170.648 105.138C168.636 105.327 161.657 106.083 156.627 106.712C149.774 107.594 146.442 108.16 144.618 108.475C143.738 108.601 143.172 108.727 142.732 108.79C142.606 108.727 142.543 108.79 142.543 108.79ZM158.513 100.165C157.57 100.165 156.69 100.228 155.747 100.354C151.66 100.983 146.944 103.061 144.555 106.335C146.441 106.02 149.836 105.39 156.312 104.572C160.211 104.068 165.115 103.564 168.196 103.25C165.681 101.235 162.16 100.165 158.513 100.165Z" fill="#141414"/>
<path d="M126.322 153.363C125.567 153.363 124.813 153.3 123.932 153.111C117.708 151.915 116.451 145.242 116.639 141.905C116.702 141.338 117.142 140.898 117.771 140.898C118.337 140.961 118.777 141.464 118.777 142.031C118.777 142.346 118.4 149.838 124.373 151.034C131.918 152.545 134.432 145.116 134.495 144.801C134.684 144.234 135.25 143.92 135.816 144.109C136.382 144.297 136.696 144.864 136.507 145.431C136.507 145.557 133.93 153.363 126.322 153.363Z" fill="#141414"/>
<path d="M142.542 218.273L131.477 221.043L135.501 229.668L148.955 227.087L142.542 218.273Z" fill="#141414"/>
<path d="M106.642 219.091L96.3313 214.873L98.7207 227.528L108.592 228.724L106.642 219.091Z" fill="#141414"/>
<path d="M86.4603 152.041L85.7686 165.073L94.1936 164.822L97.0858 152.167L86.4603 152.041Z" fill="#141414"/>
<path d="M98.0911 153.868C98.0911 153.868 87.9056 142.598 72.6275 143.605C53.514 144.865 40.6879 150.72 33.9605 165.2C24.4038 165.452 16.1672 171.118 11.7661 182.135C7.99374 191.705 7.42794 204.611 20.3169 205.304C21.8888 208.011 23.5863 209.899 25.9755 210.277C30.5024 211.033 34.2119 208.074 34.2119 208.074C34.2119 208.074 42.9512 213.74 50.496 210.655C63.1964 205.429 63.0078 197.308 63.0706 190.949C67.9747 187.361 68.7293 183.835 68.4778 181.569C67.4718 173.007 60.1786 167.403 50.9362 169.04C52.8853 164.759 55.5257 154.875 75.5194 153.364C88.1569 152.419 94.5701 164.57 94.5701 164.57" fill="#6FA467"/>
<path d="M45.5925 212.67C40.5627 212.67 35.9729 210.34 34.2754 209.396C32.955 210.278 29.6856 212.103 25.7875 211.411C22.9582 210.907 21.1348 208.641 19.6887 206.374C15.4133 205.996 12.2069 204.36 10.3207 201.338C7.49137 196.931 7.6798 189.628 10.7606 181.821C15.036 171.118 23.2096 164.696 33.2693 164.193C39.8081 150.594 51.9426 143.921 72.5021 142.536C88.0946 141.528 98.4058 152.672 98.8459 153.112C99.2231 153.553 99.223 154.183 98.7829 154.623C98.3428 155.001 97.7141 155.001 97.274 154.56C97.1483 154.434 87.2145 143.669 72.628 144.676C52.6343 145.998 41.0028 152.483 34.9041 165.641C34.7155 166.019 34.4011 166.27 33.961 166.27C24.4672 166.522 16.7336 172.44 12.7097 182.576C10.5092 188.117 9.18882 195.671 12.081 200.204C13.7157 202.723 16.4822 204.108 20.3174 204.297C20.6947 204.297 21.009 204.485 21.1976 204.8C22.8952 207.696 24.3414 208.955 26.1019 209.27C30.1257 209.963 33.4579 207.318 33.5208 207.255C33.898 206.941 34.401 206.941 34.7782 207.193C34.8411 207.256 43.1403 212.544 50.1192 209.648C61.8765 204.8 61.9393 197.623 62.0022 191.327V190.887C62.0022 190.572 62.1909 190.257 62.4424 190.068C67.2208 186.543 67.598 183.269 67.4722 181.695C67.0321 177.855 65.2088 174.581 62.3795 172.44C59.3616 170.174 55.4007 169.355 51.1882 170.111C50.8109 170.174 50.4336 170.048 50.1821 169.733C49.9307 169.418 49.8677 168.978 50.0563 168.663C50.182 168.348 50.3708 167.97 50.5594 167.592C52.6343 162.808 56.4694 153.805 75.5828 152.357C88.7862 151.349 95.3878 163.626 95.6393 164.13C95.8908 164.633 95.7023 165.263 95.1993 165.578C94.6964 165.83 94.0674 165.641 93.7531 165.137C93.6902 165.011 87.5288 153.616 75.7087 154.497C58.6072 155.82 54.8348 163.123 52.76 167.844C56.8468 167.53 60.6819 168.537 63.6999 170.803C67.0321 173.322 69.1698 177.099 69.6728 181.506C69.9243 183.521 69.4841 187.487 64.2657 191.516C64.2028 197.812 64.077 206.311 51.0623 211.662C49.1761 212.355 47.353 212.67 45.5925 212.67Z" fill="#141414"/>
<path d="M42.8255 192.335C42.6998 192.335 42.6369 192.335 42.5112 192.272C41.9453 192.083 41.6312 191.516 41.8198 190.95L45.6548 179.114C45.8434 178.547 46.4094 178.232 46.9752 178.421C47.5411 178.61 47.8555 179.177 47.6669 179.743L43.8316 191.579C43.7058 192.02 43.2656 192.335 42.8255 192.335Z" fill="#141414"/>
<path d="M44.5864 186.542C44.5864 186.542 46.2211 189.69 50.8738 190.824C56.0293 192.083 64.0142 190.194 64.0142 190.194" fill="#6FA467"/>
<path d="M55.0857 192.335C53.5139 192.335 52.0052 192.209 50.622 191.894C45.5921 190.698 43.7059 187.235 43.643 187.046C43.3915 186.543 43.5799 185.913 44.0829 185.598C44.5859 185.346 45.2148 185.535 45.5292 186.039C45.5921 186.165 47.0381 188.809 51.1248 189.816C55.9661 191.012 63.6996 189.187 63.8253 189.187C64.3912 189.061 64.957 189.439 65.0828 190.005C65.2085 190.572 64.8311 191.138 64.2652 191.264C64.0138 191.327 59.5497 192.335 55.0857 192.335Z" fill="#141414"/>
<path d="M30.7547 191.956C30.7547 191.956 28.7428 195.356 29.8745 199.763C31.4463 206.059 33.6468 208.703 38.8652 210.277" fill="#6FA467"/>
<path d="M38.8652 211.347C38.7395 211.347 38.6766 211.347 38.5509 211.284C33.018 209.584 30.566 206.751 28.8055 200.015C27.6109 195.23 29.7487 191.578 29.8116 191.389C30.1259 190.886 30.7545 190.697 31.2575 191.012C31.7605 191.327 31.9492 191.956 31.6348 192.46C31.6348 192.523 29.8742 195.608 30.8802 199.448C32.3892 205.492 34.3384 207.758 39.1796 209.206C39.7454 209.395 40.0599 209.962 39.8713 210.529C39.7455 211.095 39.3682 211.347 38.8652 211.347Z" fill="#141414"/>
<path d="M22.7688 186.731C22.7688 186.731 19.3109 191.138 18.8079 195.671C18.1163 202.092 20.3798 206.437 23.272 209.018" fill="#6FA467"/>
<path d="M23.2721 210.088C23.0206 210.088 22.7691 210.025 22.5805 209.836C20.4428 207.885 16.9218 203.478 17.802 195.608C18.305 190.823 21.826 186.29 21.9517 186.102C22.329 185.661 22.9576 185.535 23.4606 185.913C23.9007 186.29 24.0264 186.92 23.6491 187.424C23.5863 187.486 20.3798 191.705 19.9397 195.86C19.2481 202.47 21.763 206.248 24.0264 208.325C24.4665 208.703 24.4666 209.396 24.0894 209.836C23.8379 209.962 23.5865 210.088 23.2721 210.088Z" fill="#141414"/>
<path d="M59.2359 146.942L43.0777 135.232L50.0564 153.679" fill="#6FA467"/>
<path d="M50.0562 154.749C49.6161 154.749 49.2391 154.497 49.0505 154.056L42.0715 135.61C41.8829 135.169 42.0715 134.666 42.3859 134.414C42.7631 134.099 43.2661 134.099 43.6434 134.414L59.8645 146.124C60.3675 146.439 60.4303 147.131 60.1159 147.572C59.8016 148.076 59.1101 148.139 58.67 147.824L45.3408 138.191L51.0623 153.301C51.2509 153.868 50.9994 154.434 50.4335 154.686C50.3078 154.686 50.182 154.749 50.0562 154.749Z" fill="#141414"/>
<path d="M216.357 166.081H236.351L219.941 155.189" fill="#6FA467"/>
<path d="M236.352 167.151H216.358C215.792 167.151 215.289 166.647 215.289 166.081C215.289 165.514 215.792 165.011 216.358 165.011H232.831L219.313 156.071C218.81 155.756 218.684 155.063 218.999 154.623C219.313 154.119 220.005 153.993 220.445 154.308L236.855 165.136C237.232 165.388 237.421 165.892 237.295 166.333C237.169 166.773 236.792 167.151 236.352 167.151Z" fill="#141414"/>
<path d="M94.1927 66.8608C94.1927 66.8608 109.094 66.7349 124.12 73.6602C139.147 80.5855 135.563 79.893 141.788 82.0965C148.012 84.363 154.74 88.5181 118.462 76.871C98.7197 70.5124 90.6718 81.0261 90.6718 81.0261L94.1927 66.8608Z" fill="#141414"/>
<path d="M157.569 73.7233C157.569 73.7233 154.803 36.8304 154.3 29.4644C153.797 22.0984 149.019 11.1438 140.279 9.44394C131.54 7.7441 123.681 15.2361 120.412 23.3576C117.142 31.479 105.322 57.6692 105.322 57.6692L157.569 73.7233Z" fill="#FFD24A"/>
<path d="M157.57 74.7936C157.445 74.7936 157.382 74.7935 157.256 74.7306L105.009 58.6765C104.694 58.6135 104.506 58.3618 104.38 58.1099C104.254 57.8581 104.254 57.5434 104.38 57.2286C104.506 56.9768 116.263 30.9753 119.47 22.9798C122.928 14.4176 131.227 6.61091 140.532 8.37372C149.9 10.1995 154.867 21.7207 155.37 29.3385C155.873 36.6415 158.639 73.2197 158.639 73.5975C158.639 73.9752 158.514 74.2899 158.262 74.4788C158.073 74.7306 157.822 74.7936 157.57 74.7936ZM106.832 57.0397L156.439 72.2753C155.936 65.2241 153.735 35.949 153.295 29.5274C152.792 22.6021 148.391 12.0882 140.155 10.4513C132.044 8.8774 124.625 15.9285 121.481 23.7352C118.589 30.9123 109.095 52.0031 106.832 57.0397Z" fill="#141414"/>
<path d="M156.124 54.0173L156.626 69.6936C156.626 69.6936 166.624 78.7596 183.914 82.2222C193.596 84.1739 198.374 83.4813 200.449 82.9146C202.461 82.2851 211.829 80.6482 207.868 74.1636C204.724 69.0012 196.74 63.7757 183.285 60.1872C171.779 57.1023 156.124 54.0173 156.124 54.0173Z" fill="#FFBA09"/>
<path d="M195.169 84.5515C192.402 84.5515 188.693 84.2367 183.789 83.2294C166.436 79.7667 156.439 70.8269 155.999 70.4492C155.81 70.2603 155.684 70.0084 155.622 69.6936L155.118 54.0173C155.118 53.7025 155.244 53.3877 155.496 53.1988C155.747 53.0099 156.061 52.8841 156.376 52.947C156.502 52.947 172.22 56.0319 183.663 59.0539C196.3 62.3906 205.228 67.5531 208.875 73.534C210.007 75.4227 210.321 77.1856 209.692 78.7595C208.435 81.9074 203.782 83.1036 201.582 83.6702C201.267 83.7332 201.079 83.796 200.89 83.859C199.758 84.2367 197.935 84.5515 195.169 84.5515ZM157.696 69.19C159.52 70.764 169.076 78.1929 184.166 81.1519C194.1 83.1036 198.69 82.2851 200.199 81.8444C200.387 81.7814 200.638 81.7184 200.953 81.6555C202.713 81.2148 206.737 80.1446 207.617 78.0041C207.995 77.0597 207.806 75.9894 206.989 74.6673C205.04 71.4565 199.381 65.4755 183.034 61.1315C173.54 58.6132 161.154 56.0949 157.13 55.2764L157.696 69.19Z" fill="#141414"/>
<path d="M90.4211 37.0189C71.0562 33.3044 59.2361 33.997 53.9547 39.2854C50.9997 42.2444 53.6403 53.1359 56.6582 56.4726C58.4186 58.4243 61.0595 63.0203 66.9067 68.8123C69.3587 67.4273 78.9152 65.5385 90.2953 67.805C130.22 75.6746 154.866 92.4213 154.866 92.4213C154.866 92.4213 165.995 97.7727 172.785 99.0948C179.575 100.417 187.686 100.984 192.904 98.9059C200.638 95.884 206.611 87.6365 208.245 79.2003C208.245 79.2003 203.718 84.5517 186.617 82.7259C171.716 81.152 155.118 69.379 140.091 59.5576C121.292 47.218 100.984 39.0336 90.4211 37.0189Z" fill="#FFD24A"/>
<path d="M184.039 101.361C179.764 101.361 175.489 100.732 172.659 100.165C165.806 98.8431 154.929 93.6177 154.426 93.4288C154.363 93.4288 154.363 93.3658 154.301 93.3658C154.049 93.1769 129.403 76.6192 90.107 68.8755C79.1671 66.7349 69.799 68.4347 67.4727 69.7568C67.0326 70.0087 66.5296 69.9457 66.2153 69.5679C62.0656 65.4757 59.4878 61.9502 57.7274 59.5578C56.9729 58.5505 56.4071 57.732 55.9041 57.1654C52.8234 53.7027 49.6796 42.1185 53.2633 38.53C58.8591 32.9897 70.7421 32.1714 90.6728 35.9488C101.55 38.0264 122.235 46.5256 140.72 58.6134C142.04 59.4948 143.36 60.3762 144.681 61.2576C158.827 70.6382 173.477 80.2706 186.806 81.6557C202.901 83.3555 207.491 78.5079 207.491 78.445C207.806 78.0672 208.309 78.0042 208.749 78.193C209.189 78.3819 209.44 78.8856 209.314 79.3263C207.554 88.5181 201.141 96.7655 193.345 99.8504C190.578 100.984 187.309 101.361 184.039 101.361ZM155.369 91.5401C156.312 91.9808 166.686 96.8914 172.974 98.0876C181.147 99.6615 188.252 99.5986 192.527 97.9617C198.94 95.4434 204.285 89.0846 206.548 81.6557C203.593 83.1667 197.557 84.9925 186.491 83.7963C172.659 82.3483 157.821 72.527 143.423 63.0204C142.103 62.139 140.783 61.2576 139.462 60.4391C121.229 48.4773 100.858 40.1039 90.17 38.0893C71.2452 34.4378 59.6137 35.1304 54.6467 40.041C52.3204 42.3705 54.4579 52.5066 57.3501 55.7804C57.916 56.4099 58.5448 57.2283 59.2992 58.3615C60.9968 60.6909 63.323 63.8389 67.0325 67.6163C70.4905 66.1683 79.6701 64.7202 90.4214 66.8607C129.151 74.4156 153.86 90.5328 155.369 91.5401Z" fill="#141414"/>
<path d="M89.6659 80.4594C74.0105 74.2267 66.969 68.8754 66.969 68.8754C66.969 68.8754 79.4807 64.5312 94.6331 68.7493C91.9925 72.0861 90.4833 77.1227 89.6659 80.4594Z" fill="#FFBA09"/>
<path d="M89.666 81.5297C89.5403 81.5297 89.4148 81.5298 89.289 81.4668C73.6336 75.2341 66.5918 69.9455 66.3403 69.6937C66.026 69.4419 65.9002 69.0642 65.963 68.6865C66.0259 68.3087 66.2775 67.9939 66.6547 67.868C67.1577 67.6791 79.6066 63.461 94.9476 67.7421C95.262 67.868 95.5761 68.1198 95.639 68.4346C95.7018 68.7494 95.702 69.1272 95.4505 69.4419C92.8727 72.7787 91.3637 77.9412 90.672 80.7742C90.6092 81.089 90.4206 81.3409 90.1063 81.4668C89.9805 81.4668 89.8546 81.5297 89.666 81.5297ZM69.4211 69.253C72.3132 71.1418 78.6634 74.8562 88.9117 79.0114C89.7291 75.9895 90.9864 72.2751 92.8726 69.3161C82.4357 66.7978 73.3821 68.3087 69.4211 69.253Z" fill="#141414"/>
<path d="M159.33 179.932C159.33 179.932 183.536 183.079 196.551 179.176C206.045 176.343 216.168 170.047 222.832 158.967C230.691 145.935 234.086 132.84 235.91 126.67C237.733 120.5 243.832 101.046 244.335 94.4356C245.089 84.2365 244.46 81.5294 239.305 80.9628C231.005 80.0185 228.428 95.4429 225.536 104.824C227.736 97.8983 231.949 77.752 222.518 77.752C212.207 77.752 215.916 96.3873 215.665 102.62C215.665 88.8324 211.138 85.3069 202.964 86.8179C194.854 88.3289 191.018 91.9803 191.521 94.5615C193.03 102.242 199.192 98.0872 202.587 97.8354C207.302 97.4577 209.126 105.705 206.234 108.412C203.342 111.182 200.009 107.72 198.752 104.383C197.62 101.361 195.545 96.828 191.396 100.291C189.258 102.053 187.623 106.901 191.521 111.812C195.922 117.289 204.473 123.522 209.692 125.977C210.132 132.714 208.497 145.809 203.844 152.86C196.74 163.5 185.611 169.795 161.405 167.025" fill="#6FA467"/>
<path d="M178.696 182.198C168.824 182.198 159.834 181.065 159.205 181.002C158.639 180.939 158.199 180.373 158.325 179.806C158.388 179.239 158.953 178.798 159.519 178.924C159.771 178.924 183.663 182.009 196.3 178.232C202.587 176.343 214.282 171.307 222.015 158.526C229.057 146.879 232.389 135.358 234.401 128.496C234.59 127.74 234.841 127.111 234.967 126.481C235.156 125.789 235.407 124.97 235.722 124.026C238.048 116.282 242.952 100.228 243.329 94.4358C244.084 83.7961 243.204 82.537 239.243 82.0963C233.144 81.4038 230.314 91.9176 227.988 100.354C227.799 101.109 227.611 101.865 227.359 102.557C227.108 103.628 226.794 104.509 226.605 105.264C226.416 105.831 225.85 106.146 225.285 105.957C224.719 105.768 224.404 105.201 224.593 104.635C224.844 103.816 225.096 102.872 225.348 101.928C227.045 95.3803 228.742 84.6145 225.787 80.4593C225.033 79.3891 223.964 78.8854 222.581 78.8854C221.009 78.8854 219.815 79.3891 218.871 80.3335C215.728 83.6702 216.231 92.1064 216.608 97.7096C216.734 99.7242 216.86 101.424 216.797 102.683C216.797 103.25 216.294 103.753 215.728 103.691C215.162 103.691 214.722 103.187 214.722 102.62C214.722 95.5691 213.527 91.0992 211.012 89.0216C209.252 87.5736 206.737 87.1957 203.279 87.8253C198.375 88.7697 194.602 90.5954 193.156 92.673C192.905 93.1137 192.591 93.6804 192.654 94.3099C192.968 96.0098 193.597 97.143 194.414 97.6467C195.734 98.4652 197.872 97.8356 199.695 97.3319C200.701 97.0171 201.644 96.7653 202.524 96.7023C204.788 96.5135 206.737 97.8986 207.869 100.354C209.063 103.061 209.189 107.027 206.988 109.105C205.542 110.49 204.034 110.49 203.091 110.301C200.638 109.734 198.689 107.09 197.809 104.698C197.432 103.691 196.3 100.543 194.665 100.102C193.974 99.9131 193.156 100.228 192.15 101.046C190.641 102.305 188.692 106.461 192.465 111.057C196.803 116.408 205.165 122.578 210.258 124.907C210.635 125.096 210.824 125.411 210.887 125.789C211.327 132.525 209.755 145.935 204.851 153.301C196.3 166.081 183.348 170.488 161.405 167.907C160.84 167.844 160.4 167.34 160.462 166.711C160.525 166.144 161.028 165.703 161.657 165.766C188.064 168.851 197.432 160.541 203.091 152.105C207.366 145.683 209.126 133.406 208.812 126.544C203.468 123.9 195.169 117.793 190.83 112.379C186.492 107.027 188.252 101.55 190.83 99.4095C191.27 99.0318 191.773 98.717 192.213 98.4652C191.459 97.5838 190.893 96.3246 190.579 94.6877C190.39 93.6804 190.642 92.5471 191.396 91.4769C193.157 88.8327 197.369 86.755 202.902 85.7477C207.051 84.9922 210.132 85.4959 212.396 87.3846C213.15 88.0142 213.779 88.7067 214.282 89.5881C214.408 85.3071 215.099 81.1519 217.363 78.7595C218.683 77.3115 220.443 76.6189 222.644 76.6189C224.719 76.6189 226.354 77.4374 227.548 79.0743C229.12 81.2778 229.623 84.6775 229.56 88.4549C231.76 83.2294 234.778 79.3261 239.494 79.8298C245.844 80.5223 246.159 84.6145 245.467 94.4358C245.027 100.417 240.123 116.66 237.733 124.466C237.419 125.411 237.168 126.229 236.979 126.922C236.79 127.551 236.602 128.181 236.413 128.936C234.401 135.925 230.943 147.572 223.776 159.471C215.665 172.881 203.468 178.169 196.866 180.121C191.773 181.758 185.046 182.198 178.696 182.198ZM197.746 100.102C198.627 101.235 199.255 102.746 199.758 104.068C200.575 106.209 202.147 108.035 203.53 108.349C204.222 108.538 204.851 108.286 205.543 107.72C206.8 106.524 206.989 103.628 205.92 101.361C205.48 100.417 204.474 98.7798 202.65 98.9687C202.022 99.0317 201.141 99.2836 200.261 99.5354C199.507 99.6613 198.627 99.9131 197.746 100.102Z" fill="#141414"/>
<path d="M161.404 166.774L158.889 179.932L166.623 180.121L169.452 167.277L161.404 166.774Z" fill="#141414"/>
<path d="M206.421 256.802C206.421 256.802 185.61 272.731 176.808 301.817L206.421 256.802Z" fill="#6FA467"/>
<path d="M176.746 302.887C176.62 302.887 176.557 302.887 176.431 302.824C175.865 302.635 175.551 302.069 175.74 301.502C184.542 272.416 205.541 256.11 205.73 255.921C206.17 255.543 206.862 255.669 207.239 256.11C207.616 256.551 207.491 257.243 207.05 257.621C206.862 257.81 186.428 273.675 177.815 302.132C177.626 302.635 177.249 302.887 176.746 302.887Z" fill="#141414"/>
<path d="M179.072 269.394C178.758 269.394 178.444 269.268 178.192 268.953L173.037 261.902C172.722 261.461 172.785 260.769 173.288 260.454C173.728 260.139 174.42 260.202 174.734 260.706L179.89 267.757C180.204 268.198 180.141 268.89 179.638 269.205C179.513 269.331 179.261 269.394 179.072 269.394Z" fill="#141414"/>
<path d="M93.8782 275.626C93.8782 275.626 86.8991 279.026 84.007 284.315L93.8782 275.626Z" fill="#6FA467"/>
<path d="M84.0077 285.322C83.8191 285.322 83.6306 285.259 83.5049 285.196C83.0019 284.944 82.8132 284.252 83.0647 283.748C86.0826 278.208 93.1243 274.745 93.4387 274.619C93.9417 274.368 94.5705 274.557 94.822 275.123C95.0735 275.627 94.885 276.256 94.3192 276.508C94.2563 276.571 87.5918 279.782 84.8882 284.756C84.7625 285.133 84.385 285.322 84.0077 285.322Z" fill="#141414"/>
<path d="M163.227 288.911C162.85 288.911 162.472 288.659 162.284 288.281L155.808 274.053C155.557 273.549 155.808 272.92 156.311 272.668C156.814 272.416 157.443 272.668 157.694 273.172L164.17 287.4C164.422 287.903 164.17 288.533 163.667 288.785C163.541 288.848 163.353 288.911 163.227 288.911Z" fill="#141414"/>
</svg>
