<svg width="104" height="125" viewBox="0 0 104 125" fill="none" xmlns="http://www.w3.org/2000/svg">
<path d="M46.3812 124.328C42.0903 124.328 38.8176 122.99 36.1631 121.472C35.0722 121.616 33.9086 121.689 32.6359 121.689C28.1996 121.689 23.5086 120.749 20.1268 119.194C17.7268 118.073 15.5815 116.483 13.836 114.494L7.07241 114.711H6.99979C4.85436 114.711 2.96347 113.337 2.27256 111.349C1.58166 109.252 2.30878 107.011 4.12695 105.746L9.25421 102.167C9.43603 97.72 11.1815 93.8518 14.3451 90.8874C16.7087 88.6822 19.5815 87.2722 22.0542 86.513C21.9451 84.597 21.836 82.6087 21.6905 80.5842L15.5814 76.499C13.7632 75.2699 12.9633 73.0284 13.6178 70.9316C14.2723 68.8349 16.1633 67.4611 18.3814 67.4611L20.9269 67.4972L20.4178 58.604C14.3815 58.2425 9.43599 56.3626 5.94512 53.0728C2.41787 49.7468 0.490726 45.2279 0.236183 39.5521C0.199819 39.4798 0.199748 39.3713 0.163385 39.299C-0.345701 36.9853 0.345308 34.6354 2.09075 32.6109C6.49071 27.5859 14.8179 25.8506 20.9997 25.3083C25.2905 24.9107 30.454 24.6938 33.9449 24.5492C35.2903 19.0903 36.163 15.6559 36.4903 14.246C38.1266 7.59411 43.8722 0.472243 51.3266 0.327637C51.4357 0.327637 51.5083 0.327637 51.5811 0.327637C59.6901 0.327637 64.9629 7.52177 66.4174 14.2098C66.7447 15.6559 67.3627 18.2949 68.3082 21.9824C71.5082 21.4401 74.5628 21.151 77.5446 21.1148C78.0901 21.1148 78.6355 21.1148 79.1446 21.1148C91.9081 21.1148 99.1444 23.2838 102.599 28.092C103.835 29.8273 104.272 32.141 103.835 34.6717C103.29 37.7084 100.926 43.8542 90.9626 50.7591L90.7808 50.9037L90.6354 50.976L90.4536 51.0845L90.2354 51.1567C89.399 51.5544 85.6899 53.3259 78.7445 55.0973L77.7264 67.4611L78.4899 67.425H78.6355C80.6719 67.425 82.5627 68.6903 83.2899 70.6063C84.0536 72.5947 83.4717 74.8361 81.799 76.2098L76.7081 80.3311L74.7446 104.372C74.09 112.506 68.8174 118.326 59.872 120.749C56.3084 122.954 51.9084 123.858 49.5085 124.219C48.4903 124.219 47.3994 124.328 46.3812 124.328Z" fill="#F3EAD4"/>
<path d="M48.1633 117.061C56.7087 117.061 68.9632 115.218 69.8723 103.866L74.0905 52.7116C74.3814 41.6853 62.8177 32.4305 51.7633 32.1775L50.3451 32.1414C39.2907 31.8521 25.2909 40.4562 25 51.4825C25 51.4825 27.5818 96.1297 28.0545 103.902C28.7454 114.712 36.418 117.061 48.1633 117.061Z" fill="#6FA467"/>
<path d="M48.1639 117.64C36.2731 117.64 28.1641 115.29 27.4732 103.866C27.0005 96.2019 24.4187 51.88 24.4187 51.4462V51.41C24.5642 46.0957 27.7278 40.9984 33.3277 37.0217C38.4186 33.4066 44.7822 31.3459 50.4185 31.4905L51.8366 31.5266C57.4002 31.6712 63.1819 33.985 67.6182 37.9255C72.3455 42.083 74.8546 47.3249 74.7455 52.7115L70.5273 103.902C69.7637 112.904 62.0547 117.64 48.1639 117.64ZM25.6186 51.41C25.6913 52.6753 28.2004 96.2019 28.6731 103.794C29.3276 114.314 36.6003 116.447 48.1639 116.447C57.3274 116.447 68.4546 114.242 69.2546 103.794L73.4728 52.6392C73.6182 47.6865 71.2183 42.7699 66.782 38.8293C62.5274 35.1057 57.0728 32.8643 51.7638 32.7197L50.3457 32.6836C45.0003 32.5389 38.8913 34.5273 34.0186 37.9978C28.7459 41.7576 25.7641 46.4934 25.6186 51.41Z" fill="#141414"/>
<path d="M27.8365 78.6324L18.3821 72.3059L29.5819 72.4144" fill="#6FA467"/>
<path d="M27.8359 79.2466C27.7268 79.2466 27.6178 79.2105 27.5087 79.1382L18.0906 72.8117C17.8725 72.667 17.7633 72.3778 17.836 72.1247C17.9088 71.8717 18.127 71.6909 18.4179 71.6909L29.6177 71.7994C29.945 71.7994 30.236 72.0886 30.236 72.414C30.236 72.7393 29.945 73.0285 29.6177 73.0285L20.4543 72.9562L28.1996 78.1259C28.4905 78.3067 28.5632 78.7044 28.3814 78.9574C28.1996 79.1382 28.0178 79.2466 27.8359 79.2466Z" fill="#141414"/>
<path d="M44.9647 109.216L54.2374 104.408L50.601 114.711" fill="#6FA467"/>
<path d="M50.6007 115.326C50.5279 115.326 50.4552 115.326 50.3824 115.29C50.0552 115.181 49.9097 114.82 50.0188 114.531L53.1461 105.673L45.2188 109.759C44.9279 109.903 44.5643 109.795 44.3825 109.505C44.237 109.216 44.3462 108.855 44.6371 108.674L53.946 103.866C54.1641 103.757 54.4552 103.793 54.637 103.938C54.8188 104.119 54.8916 104.372 54.8188 104.589L51.1461 114.892C51.0734 115.145 50.8552 115.326 50.6007 115.326Z" fill="#141414"/>
<path d="M59.0721 73.6429C64.2535 73.6429 68.4539 69.4671 68.4539 64.3159C68.4539 59.1647 64.2535 54.9888 59.0721 54.9888C53.8907 54.9888 49.6904 59.1647 49.6904 64.3159C49.6904 69.4671 53.8907 73.6429 59.0721 73.6429Z" fill="#F3EAD4"/>
<path d="M59.0724 74.2576C58.7087 74.2576 58.3451 74.2214 57.9815 74.1852C52.527 73.6068 48.527 68.6902 49.1089 63.2674C49.3998 60.6284 50.7089 58.2786 52.7816 56.6156C54.8543 54.9526 57.4725 54.1934 60.0906 54.4826C62.7452 54.7718 65.1087 56.0733 66.7815 58.1339C68.4542 60.1946 69.2178 62.7975 68.9269 65.4004C68.6359 68.0395 67.3268 70.3893 65.2541 72.0523C63.545 73.4622 61.3632 74.2576 59.0724 74.2576ZM59.036 55.6033C57.036 55.6033 55.1089 56.2902 53.5452 57.5194C51.7271 58.9654 50.5997 61.0622 50.3452 63.3759C49.8361 68.1479 53.3269 72.45 58.1269 72.9561C60.4541 73.2091 62.7451 72.5223 64.5633 71.0762C66.3814 69.6302 67.5086 67.5334 67.7632 65.2197C68.0177 62.906 67.3269 60.6284 65.8724 58.8208C64.4178 57.0132 62.3087 55.8926 59.9814 55.6395C59.6905 55.6395 59.3632 55.6033 59.036 55.6033Z" fill="#141414"/>
<path d="M59.8 58.0979C56.9636 57.8448 54.4182 59.4717 53.4364 61.9662C53.4 62.1108 53.4727 62.2553 53.6182 62.2553L58.3818 62.7253C59.1455 62.6892 59.8 63.2676 59.8 64.0268C59.8 64.786 59.2545 65.4367 58.4908 65.4367L53.5456 65.9067C53.4001 65.9067 53.3274 66.0513 53.3638 66.1959C54.1638 68.4735 56.2365 70.1726 58.8183 70.3533C62.3091 70.5702 65.3271 67.895 65.3999 64.3521C65.4726 61.1708 63.0363 58.4233 59.8 58.0979Z" fill="#141414"/>
<path d="M37.5453 73.8601C42.7267 73.8601 46.927 69.6842 46.927 64.5329C46.927 59.3817 42.7267 55.2058 37.5453 55.2058C32.3639 55.2058 28.1635 59.3817 28.1635 64.5329C28.1635 69.6842 32.3639 73.8601 37.5453 73.8601Z" fill="#F3EAD4"/>
<path d="M37.5453 74.4385C37.1817 74.4385 36.8179 74.4023 36.4907 74.3661C33.8361 74.0769 31.4726 72.7755 29.7998 70.7149C28.1271 68.6542 27.3635 66.0513 27.6544 63.4483C27.9454 60.8093 29.2545 58.4595 31.3272 56.7965C33.3999 55.1335 36.0181 54.3743 38.6362 54.6635C41.2908 54.9527 43.6543 56.2542 45.3271 58.3148C46.9998 60.3755 47.7634 62.9784 47.4725 65.5813C46.927 70.6787 42.5635 74.4385 37.5453 74.4385ZM37.5089 55.8204C35.509 55.8204 33.5817 56.5072 32.018 57.7364C30.1999 59.1824 29.0727 61.2793 28.8181 63.593C28.5636 65.9067 29.2544 68.1842 30.7089 69.9918C32.1635 71.7994 34.2726 72.9201 36.5999 73.1732C41.3998 73.6793 45.727 70.2087 46.2361 65.4367C46.4907 63.123 45.7997 60.8455 44.3452 59.0379C42.8906 57.2303 40.7817 56.1096 38.4544 55.8565C38.1635 55.8204 37.8362 55.8204 37.5089 55.8204Z" fill="#141414"/>
<path d="M38.3822 58.4232C35.5822 58.0256 32.9641 59.5801 31.8732 62.0384C31.8004 62.183 31.9095 62.3276 32.0186 62.3276L36.7458 63.0145C37.5094 63.0145 38.1275 63.6291 38.1275 64.3883C38.1275 65.1474 37.5094 65.762 36.7458 65.762L31.764 66.0151C31.6185 66.0151 31.5458 66.1597 31.5821 66.2681C32.273 68.5818 34.3094 70.3894 36.8548 70.6425C40.3457 71.004 43.4367 68.4372 43.6912 64.9305C43.9458 61.7492 41.5821 58.8571 38.3822 58.4232Z" fill="#141414"/>
<path d="M31.292 57.628C33.292 55.7481 36.9646 54.8081 39.6192 55.3865C42.6737 56.0373 45.3282 58.6402 46.1281 60.5924C45.11 60.3032 31.9465 57.7726 31.292 57.628Z" fill="#8BB4C8"/>
<path d="M46.1282 61.1707C46.0918 61.1707 46.0191 61.1707 45.9828 61.1707C45.4373 61.0261 41.401 60.2307 37.801 59.5438C33.8738 58.7847 31.4375 58.3147 31.1466 58.2063C30.9284 58.1701 30.7465 57.9894 30.7102 57.7725C30.6738 57.5555 30.7102 57.3386 30.892 57.194C33.0011 55.2418 36.8919 54.1935 39.7646 54.808C42.9282 55.4949 45.801 58.1702 46.71 60.3393C46.7828 60.5562 46.7465 60.8092 46.601 60.9538C46.4556 61.0984 46.31 61.1707 46.1282 61.1707ZM32.7102 57.3025C33.9829 57.5555 36.0193 57.9532 38.0192 58.3509C40.6374 58.857 43.3282 59.3993 44.8919 59.6885C43.7646 58.0978 41.6555 56.4348 39.4374 55.9649C37.401 55.5311 34.6374 56.1095 32.7102 57.3025Z" fill="#141414"/>
<path d="M65.3998 57.628C63.3998 55.7481 59.7271 54.8081 57.0726 55.3865C54.0181 56.0373 51.3636 58.6402 50.5636 60.5924C51.5818 60.3032 64.7089 57.7726 65.3998 57.628Z" fill="#8BB4C8"/>
<path d="M50.5634 61.1707C50.3816 61.1707 50.1998 61.0984 50.0907 60.9538C49.9453 60.7731 49.9088 60.52 49.9815 60.3393C50.927 58.134 53.7633 55.4588 56.927 54.808C59.7997 54.1935 63.6905 55.2418 65.7996 57.194C65.945 57.3386 66.0177 57.5917 65.9814 57.7725C65.945 57.9532 65.7633 58.1701 65.5451 58.2063C65.2179 58.2786 62.8178 58.7485 58.8905 59.5438C55.2906 60.2307 51.2542 61.0261 50.7088 61.1707C50.6724 61.1707 50.5997 61.1707 50.5634 61.1707ZM58.7087 55.8203C58.1996 55.8203 57.6905 55.8564 57.2178 55.9649C54.9996 56.4348 52.8906 58.0978 51.7633 59.6885C53.3269 59.3631 56.0179 58.857 58.6361 58.3509C60.6361 57.9532 62.6723 57.5555 63.945 57.3025C62.4905 56.3625 60.4905 55.8203 58.7087 55.8203Z" fill="#141414"/>
<path d="M67.2908 84.3441C63.4363 80.4759 61.7636 76.8246 58.0546 75.8485C54.1273 74.8001 52.2364 76.1377 48.1637 78.4875C44.091 76.1377 42.2366 74.8001 38.273 75.8485C34.5639 76.8246 32.8547 80.4759 29.0365 84.3441C28.5638 84.8502 28.7094 85.7179 29.3275 86.0071C33.8002 87.9954 36.3093 89.9838 42.4183 88.8992C44.9274 88.4654 46.8182 86.8385 48.1637 85.1394C49.5091 86.8385 51.4001 88.4654 53.9092 88.8992C60.0182 89.9838 62.5273 87.9954 67 86.0071C67.6181 85.7179 67.7635 84.8141 67.2908 84.3441Z" fill="#141414"/>
<path d="M26.7822 90.5982C24.5276 90.4536 14.1641 92.9119 14.2368 102.926C14.2732 106.903 16.7823 112.181 22.2368 114.711C26.8549 116.844 33.7639 117.206 37.1093 116.23C40.8911 118.688 44.2001 119.881 48.891 119.194C55.5455 118.218 61.4364 115.217 60.0182 111.241C59.2546 109.035 57.7272 108.24 55.5818 108.674C56.6 107.626 59.0363 106.36 57.5818 103.324C55.9454 99.9615 52.0911 100.938 52.0911 100.938C52.0911 100.938 58.8545 94.9364 55.0364 91.6466C51.5091 88.6098 45.8366 92.695 41.9093 99.2384C40.8184 101.046 39.9457 101.154 39.1093 99.6361C37.2184 96.2017 34.382 92.7673 31.073 94.6472C26.7094 97.1416 30.0912 103.794 34.1639 108.746C28.6366 111.024 21.1095 109.289 20.564 101.841C20.2004 96.5993 27.1822 95.4425 27.1822 95.4425" fill="#6FA467"/>
<path d="M46.3823 119.989C42.746 119.989 39.9097 118.76 37.0006 116.88C33.4734 117.784 26.5643 117.387 21.9825 115.254C16.2734 112.615 13.6553 107.011 13.6189 102.926C13.5826 99.3468 14.8553 96.3101 17.3281 93.9964C20.5644 90.9597 25.1098 89.9113 26.8189 90.0197C27.1462 90.0559 27.4006 90.3451 27.4006 90.6705C27.4006 90.9959 27.0734 91.249 26.7461 91.249C25.6188 91.1767 21.3279 91.9358 18.1643 94.9002C15.9098 96.997 14.819 99.7084 14.819 102.962C14.8554 106.686 17.2554 111.783 22.4553 114.205C26.928 116.266 33.6551 116.663 36.8914 115.687C37.0733 115.651 37.255 115.651 37.4005 115.76C40.8914 118.037 44.0187 119.303 48.7459 118.616C53.764 117.893 57.8367 116.049 59.1095 113.916C59.5822 113.121 59.6913 112.289 59.3641 111.421C58.7095 109.578 57.5094 108.855 55.6185 109.216C55.364 109.252 55.1095 109.144 54.9641 108.927C54.855 108.71 54.8913 108.421 55.0731 108.204C55.2549 108.023 55.4732 107.842 55.6913 107.626C56.8186 106.649 57.9822 105.637 56.9277 103.504C55.5458 100.648 52.2731 101.408 52.1276 101.444C51.8731 101.516 51.5822 101.371 51.4368 101.154C51.2913 100.901 51.364 100.612 51.5822 100.431C51.6185 100.395 55.5095 96.9247 55.5095 94.0687C55.5095 93.2734 55.1822 92.6226 54.564 92.0804C53.7277 91.3573 52.6732 91.0682 51.5096 91.249C48.6369 91.7189 45.1095 94.8641 42.3459 99.5276C41.8732 100.287 41.1823 101.299 40.2005 101.299C39.2187 101.299 38.6732 100.251 38.4914 99.9253C36.855 96.9971 35.2551 95.2618 33.6551 94.8279C32.8551 94.611 32.0551 94.7195 31.2551 95.1894C30.3097 95.7317 29.7642 96.4909 29.5824 97.5031C29.1097 99.9976 30.9642 104.083 34.4914 108.385C34.6005 108.529 34.6733 108.746 34.6006 108.927C34.5643 109.108 34.4188 109.252 34.237 109.325C30.7097 110.771 26.6006 110.59 23.7642 108.855C21.4006 107.373 20.0189 104.987 19.8007 101.914C19.4734 97.3224 24.3098 95.2979 26.9279 94.8641C27.2552 94.7918 27.5824 95.0448 27.6188 95.3702C27.6915 95.6956 27.437 96.0209 27.1097 96.0571C26.8552 96.0932 20.6735 97.1778 21.0008 101.805C21.1826 104.48 22.3825 106.541 24.3825 107.806C26.6734 109.216 29.9825 109.469 32.9643 108.493C31.0007 105.963 27.6188 101.01 28.3097 97.2863C28.5642 95.9125 29.3279 94.8641 30.5643 94.1411C31.6552 93.5265 32.7825 93.3457 33.8734 93.6711C35.7642 94.2134 37.6551 96.1294 39.4369 99.3469C39.8369 100.07 40.0914 100.106 40.1277 100.106C40.1641 100.106 40.5277 100.07 41.2186 98.9492C44.2368 93.9241 47.9822 90.6343 51.2549 90.092C52.7822 89.839 54.164 90.2366 55.2913 91.1766C56.2004 91.9719 56.673 92.9119 56.673 94.0687C56.673 96.3463 54.8187 98.7685 53.5459 100.178C55.1096 100.251 56.964 100.938 57.9822 103.034C59.1458 105.456 58.1276 106.975 57.1095 107.987C58.6731 108.204 59.8367 109.216 60.4912 111.024C60.9276 112.217 60.7821 113.41 60.1276 114.531C58.3458 117.459 53.1458 119.158 48.8913 119.773C48.055 119.917 47.1823 119.989 46.3823 119.989Z" fill="#141414"/>
<path d="M49.0001 102.926C51.0001 102.022 52.2728 100.757 52.2728 100.757L49.0001 102.926Z" fill="#6FA467"/>
<path d="M49.0004 103.504C48.7822 103.504 48.5276 103.36 48.4549 103.143C48.3094 102.854 48.4548 102.492 48.7457 102.348C50.6366 101.516 51.8366 100.323 51.8366 100.287C52.0912 100.034 52.4548 100.034 52.7093 100.287C52.9638 100.54 52.9638 100.902 52.7093 101.155C52.6366 101.227 51.3275 102.528 49.2184 103.468C49.1457 103.504 49.0731 103.504 49.0004 103.504Z" fill="#141414"/>
<path d="M52.0181 110.228C54.4544 109.795 56.018 108.204 56.018 108.204L52.0181 110.228Z" fill="#6FA467"/>
<path d="M52.0182 110.843C51.7273 110.843 51.4726 110.626 51.3999 110.337C51.3272 110.012 51.5455 109.686 51.9091 109.65C54.0909 109.253 55.5817 107.806 55.5817 107.806C55.8362 107.553 56.2 107.553 56.4546 107.806C56.7091 108.06 56.7091 108.421 56.4546 108.674C56.3818 108.746 54.709 110.409 52.1272 110.879C52.0908 110.843 52.0545 110.843 52.0182 110.843Z" fill="#141414"/>
<path d="M26.9638 90.3091L27.4 95.2618L23.9819 96.1656L22.382 91.1406L26.9638 90.3091Z" fill="#141414"/>
<path d="M18.3824 109.397L7.00073 109.723L16.1642 103.324" fill="#6FA467"/>
<path d="M7.00047 110.337C6.74593 110.337 6.49135 110.156 6.41862 109.939C6.3459 109.686 6.41866 109.397 6.63684 109.252L15.8003 102.817C16.0912 102.637 16.4549 102.673 16.6367 102.962C16.8186 103.251 16.7821 103.613 16.4912 103.793L9.00045 109.035L18.3457 108.746C18.673 108.746 18.964 108.999 18.964 109.325C18.964 109.65 18.7094 109.939 18.3821 109.939L7.00047 110.337Z" fill="#141414"/>
<path d="M68.4187 72.7395L78.7458 72.2334L70.7095 78.7769" fill="#6FA467"/>
<path d="M70.7094 79.3553C70.5276 79.3553 70.3458 79.2831 70.2367 79.1384C70.0185 78.8854 70.0548 78.4877 70.3093 78.2708L76.9275 72.9203L68.4186 73.318C68.0913 73.318 67.8003 73.0649 67.7639 72.7395C67.7639 72.4142 68.0185 72.125 68.3458 72.0889L78.7093 71.6189C78.9639 71.6189 79.2184 71.7634 79.2912 72.0165C79.4002 72.2696 79.3275 72.5227 79.1093 72.7034L71.073 79.2107C71.0003 79.3192 70.8548 79.3553 70.7094 79.3553Z" fill="#141414"/>
<path d="M72.5999 42.7697C72.5999 42.7697 63.9454 41.179 54.5637 43.7458C47.8728 45.5534 44.5638 47.4694 42.782 49.4216C46.8183 48.2647 51.6546 46.5295 57.5091 46.1679C69.6908 45.3726 74.018 52.2053 74.018 52.2053L72.5999 42.7697Z" fill="#141414"/>
<path d="M35.1458 40.4922C35.1458 40.4922 40.382 19.5243 41.4001 15.3308C42.4183 11.1372 46.2729 5.28058 51.5092 5.17212C56.7456 5.06367 60.5637 10.1249 61.6546 15.15C62.7455 20.1751 67.0363 36.4071 67.0363 36.4071L35.1458 40.4922Z" fill="#8BB4C8"/>
<path d="M35.1458 41.1065C34.964 41.1065 34.8184 41.0343 34.6729 40.8897C34.5275 40.7451 34.4912 40.5282 34.5275 40.3474C34.5639 40.1305 39.8003 19.3433 40.7821 15.1858C41.8366 10.8477 45.8729 4.70191 51.4729 4.55731C57.0001 4.44885 61.0728 9.72695 62.2364 15.0051C63.3273 19.9579 67.5818 36.0453 67.6181 36.2261C67.6545 36.4068 67.6182 36.5876 67.5455 36.7322C67.4364 36.8768 67.2909 36.9853 67.1091 36.9853L35.2184 41.0704C35.182 41.1066 35.1821 41.1065 35.1458 41.1065ZM51.6547 5.78643C51.6183 5.78643 51.5456 5.78643 51.5093 5.78643C46.5639 5.89488 42.9638 11.4984 41.982 15.4751C41.0729 19.1264 36.9275 35.7923 35.9457 39.7689L66.2728 35.8645C65.4364 32.7555 62.0182 19.6325 61.0727 15.2581C60.0182 10.5584 56.4546 5.78643 51.6547 5.78643Z" fill="#141414"/>
<path d="M37.9462 29.2849L36.0918 38.2505C36.0918 38.2505 29.4008 42.4803 19.0373 42.7695C13.2555 42.9141 10.4921 42.0826 9.3648 41.5404C8.23754 40.9981 2.96486 39.1182 5.91029 35.7561C8.23754 33.0809 13.3648 30.8394 21.5465 30.1164C28.5283 29.5018 37.9462 29.2849 37.9462 29.2849Z" fill="#4C8BAA"/>
<path d="M17.6188 43.4202C12.5643 43.4202 10.1279 42.6249 9.07339 42.1187C8.9643 42.0826 8.85518 42.0103 8.67336 41.938C7.43701 41.3957 4.89172 40.2389 4.45536 38.3228C4.23718 37.3829 4.56434 36.3707 5.43706 35.3946C8.12795 32.3217 13.8007 30.261 21.4733 29.538C28.4187 28.9234 37.8369 28.7065 37.9096 28.7065C38.0914 28.7065 38.2732 28.7788 38.3823 28.9234C38.4913 29.068 38.564 29.2488 38.5277 29.4296L36.6731 38.3951C36.6367 38.5397 36.5278 38.6844 36.4187 38.7928C36.1278 38.9736 29.4732 43.131 19.0369 43.4202C18.5278 43.4202 18.0551 43.4202 17.6188 43.4202ZM37.1823 29.9357C34.7824 30.008 27.3277 30.2249 21.5823 30.7672C11.6915 31.671 7.80068 34.5631 6.34614 36.1899C5.76433 36.8768 5.50982 37.4913 5.65528 38.0336C5.94618 39.3712 8.20078 40.3835 9.18259 40.8173C9.3644 40.8896 9.50975 40.9619 9.61884 40.9981C10.4552 41.3958 13.0371 42.3357 19.0007 42.1549C28.0551 41.9019 34.3096 38.5759 35.546 37.8528L37.1823 29.9357Z" fill="#141414"/>
<path d="M77.727 25.9593C89.3269 25.8147 96.0904 27.2969 98.6359 30.8398C100.09 32.8643 98.7812 39.2269 88.1995 46.5657C86.9268 45.5173 81.5814 43.4928 74.7451 43.6736C50.709 44.2882 36.7454 53.1453 23.8001 53.5791C16.782 53.8322 5.50929 52.1331 5.21838 38.6124C5.21838 38.6124 7.32746 42.1191 17.4001 42.7698C32.7818 43.8182 54.0908 26.2847 77.727 25.9593Z" fill="#8BB4C8"/>
<path d="M22.6362 54.2297C18.2726 54.2297 12.7817 53.3982 8.99995 49.8554C6.19997 47.2163 4.74544 43.4565 4.63635 38.6845C4.63635 38.3953 4.81806 38.1784 5.07261 38.1061C5.32715 38.0338 5.61802 38.1422 5.76347 38.3952C5.76347 38.4314 7.94534 41.649 17.4725 42.2635C24.527 42.7335 32.7814 39.2268 42.3086 35.1778C52.963 30.6588 65.0358 25.5614 77.7266 25.3807C89.7265 25.2361 96.5264 26.8629 99.1445 30.5143C99.69 31.3096 99.8718 32.4664 99.6536 33.804C99.3263 35.72 97.5809 40.8536 88.5628 47.1078C88.3446 47.2524 88.0537 47.2524 87.8355 47.0716C86.5992 46.0594 81.3629 44.1434 74.7811 44.3242C60.8903 44.6857 50.5995 47.7585 41.4723 50.4337C34.9633 52.3498 29.327 54.0489 23.8361 54.2297C23.4361 54.2297 23.0362 54.2297 22.6362 54.2297ZM5.90907 40.2028C6.23634 43.9264 7.54531 46.8909 9.79984 48.9877C13.618 52.6028 19.5088 53.1812 23.7633 53.0366C29.1087 52.8559 34.6724 51.1929 41.1087 49.2769C50.2722 46.5655 60.6721 43.4565 74.7083 43.0949C81.1446 42.9142 86.3446 44.6857 88.1628 45.8425C96.49 39.9859 98.09 35.3224 98.3809 33.5871C98.5627 32.5749 98.4537 31.7072 98.09 31.2011C95.7264 27.8752 89.2174 26.4291 77.6902 26.5737C65.2539 26.7544 53.2904 31.8157 42.745 36.2623C33.0724 40.3836 24.6725 43.9265 17.3271 43.4204C10.7817 43.0227 7.47269 41.3597 5.90907 40.2028Z" fill="#141414"/>
<path d="M73.8725 51.0482C83.5815 49.0237 88.1996 46.6016 88.1996 46.6016C88.1996 46.6016 81.3996 42.8779 72.1633 43.8179C73.3633 45.987 73.7634 49.0599 73.8725 51.0482Z" fill="#4C8BAA"/>
<path d="M73.8722 51.6631C73.7267 51.6631 73.6176 51.6269 73.5085 51.5546C73.3631 51.4461 73.2903 51.3015 73.2539 51.1208C73.1448 49.4578 72.7812 46.3126 71.6176 44.1073C71.5085 43.9266 71.5085 43.7097 71.6176 43.5289C71.7267 43.3482 71.9086 43.2397 72.0904 43.2035C81.3994 42.2636 88.1992 45.9149 88.4901 46.0596C88.6719 46.168 88.8175 46.3849 88.8175 46.6018C88.8175 46.8187 88.6719 47.0356 88.4901 47.1441C88.3083 47.2526 83.6902 49.6024 74.0176 51.6631C73.9449 51.6631 73.9085 51.6631 73.8722 51.6631ZM73.0721 44.3243C73.9085 46.2041 74.2722 48.4817 74.4176 50.2893C80.8176 48.9155 84.8902 47.361 86.7448 46.5656C84.563 45.6619 79.4357 43.8904 73.0721 44.3243Z" fill="#141414"/>
</svg>
