<svg width="104" height="120" viewBox="0 0 104 120" fill="none" xmlns="http://www.w3.org/2000/svg">
  <path d="M48.2235 118.975C38.5031 118.175 26.2287 111.204 26.2287 99.9288L26.0381 49.3424C27.3723 36.7339 41.8575 27.9728 54.4368 29.306L56.0379 29.4584C68.6172 30.7916 83.1786 42.6764 81.8063 55.2848C81.8063 55.2848 73.2295 96.4243 71.7047 105.224C70.1419 114.061 57.9439 119.775 48.2235 118.975Z" fill="#6FA467"/>
  <path d="M50.0915 119.737C49.4435 119.737 48.7954 119.699 48.1474 119.661C37.2835 118.746 25.5428 110.976 25.5428 99.9288L25.3522 49.3425C25.3522 49.3044 25.3522 49.3044 25.3522 49.2663C26.0003 43.1335 29.6597 37.534 35.6444 33.5343C41.286 29.7251 48.1475 27.9729 54.5134 28.6204L56.1143 28.7728C62.4802 29.4584 69.4179 32.7725 74.6021 37.6482C80.3199 43.0192 83.1408 49.3044 82.4928 55.3611C82.4928 55.3992 82.4928 55.3991 82.4928 55.4372C82.4166 55.8563 73.8779 96.691 72.3912 105.376C70.8665 113.985 59.8119 119.737 50.0915 119.737ZM26.6864 49.3806L26.877 99.9288C26.877 111.242 39.6088 117.565 48.2237 118.289C48.7955 118.327 49.4053 118.365 49.9771 118.365C58.9732 118.365 69.6084 112.994 70.9426 105.147C72.4292 96.5386 80.7773 56.5801 81.0442 55.2087C82.3021 43.2859 68.2742 31.4774 55.8855 30.1823L54.2846 30.0298C48.2618 29.3823 41.7053 31.0964 36.3305 34.7152C30.7651 38.4482 27.3344 43.6668 26.6864 49.3806Z" fill="#141414"/>
  <path d="M27.7926 58.561L13.3834 54.5232L29.0504 67.2079" fill="#6FA467"/>
  <path d="M29.0498 67.8936C28.8974 67.8936 28.7449 67.8554 28.6305 67.7411L12.9637 55.0564C12.6968 54.866 12.6206 54.4851 12.7731 54.2184C12.9256 53.9137 13.2685 53.7995 13.5734 53.8756L27.9444 57.9133C28.3256 58.0276 28.5163 58.4086 28.4019 58.7514C28.2876 59.1324 27.9063 59.3228 27.5632 59.2085L16.3562 56.085L29.4692 66.7127C29.7742 66.9412 29.8122 67.3983 29.5835 67.665C29.4691 67.8173 29.2404 67.8936 29.0498 67.8936Z" fill="#141414"/>
  <path d="M33.5477 97.6817L18.4906 92.9963L30.1931 103.624" fill="#6FA467"/>
  <path d="M30.193 104.31C30.0405 104.31 29.8501 104.233 29.7357 104.119L18.033 93.4915C17.8043 93.2629 17.7281 92.9201 17.8806 92.6534C18.0331 92.3868 18.3762 92.2344 18.6811 92.3487L33.7762 97.0721C34.1193 97.1863 34.348 97.5673 34.2337 97.9101C34.1193 98.2529 33.7381 98.4815 33.395 98.3673L21.2732 94.5961L30.6887 103.129C30.9555 103.395 30.9935 103.814 30.7266 104.081C30.5361 104.233 30.3455 104.31 30.193 104.31Z" fill="#141414"/>
  <path d="M69.8366 104.271L81.4629 98.4814L68.7693 96.9197" fill="#6FA467"/>
  <path d="M69.8371 104.957C69.5703 104.957 69.3415 104.805 69.2272 104.576C69.0747 104.233 69.1891 103.814 69.5322 103.662L79.1381 98.9005L68.6935 97.6054C68.3123 97.5673 68.0455 97.2245 68.0836 96.8436C68.1217 96.4627 68.4648 96.196 68.846 96.2341L81.5397 97.7959C81.8447 97.834 82.0734 98.0625 82.1115 98.3673C82.1497 98.672 81.9972 98.9767 81.7303 99.091L70.104 104.843C70.0278 104.919 69.9515 104.957 69.8371 104.957Z" fill="#141414"/>
  <path d="M46.0122 83.2445C52.5806 83.2445 57.9054 77.9236 57.9054 71.3598C57.9054 64.7961 52.5806 59.4751 46.0122 59.4751C39.4438 59.4751 34.1191 64.7961 34.1191 71.3598C34.1191 77.9236 39.4438 83.2445 46.0122 83.2445Z" fill="#F3EAD4"/>
  <path d="M46.0503 83.9303C45.5929 83.9303 45.1354 83.8922 44.678 83.8541C37.7784 83.1304 32.7849 76.9213 33.5091 70.0267C34.2334 63.132 40.4467 58.1419 47.3463 58.8657C54.2459 59.5894 59.2396 65.7984 58.5153 72.6931C58.1723 76.0452 56.5331 79.0164 53.9029 81.1115C51.6539 82.9399 48.9092 83.9303 46.0503 83.9303ZM46.0121 60.1608C40.3705 60.1608 35.4914 64.4271 34.8815 70.141C34.2334 76.2738 38.6932 81.7972 44.8304 82.4447C47.8037 82.7495 50.7389 81.9114 53.0642 80.0449C55.3895 78.1784 56.8381 75.512 57.1812 72.5408C57.8292 66.4079 53.3692 60.8846 47.232 60.237C46.8127 60.1989 46.3933 60.1608 46.0121 60.1608Z" fill="#141414"/>
  <path d="M69.9125 83.3208C76.481 83.3208 81.8056 77.9997 81.8056 71.436C81.8056 64.8722 76.481 59.5513 69.9125 59.5513C63.3441 59.5513 58.0193 64.8722 58.0193 71.436C58.0193 77.9997 63.3441 83.3208 69.9125 83.3208Z" fill="#F3EAD4"/>
  <path d="M69.9127 83.9684C69.4553 83.9684 69.036 83.9303 68.5785 83.8922C61.679 83.1685 56.6853 76.9595 57.4095 70.0648C57.7526 66.7127 59.3918 63.7415 62.022 61.6464C64.6522 59.5513 67.8924 58.561 71.2469 58.9419C74.6014 59.2847 77.5747 60.9226 79.6713 63.551C81.7678 66.1794 82.7588 69.4172 82.3776 72.7693C81.6914 79.2068 76.2405 83.9684 69.9127 83.9684ZM69.8746 60.237C67.3206 60.237 64.881 61.1131 62.8607 62.713C60.5354 64.5795 59.0868 67.2459 58.7437 70.2171C58.0957 76.3499 62.5556 81.8733 68.6928 82.5209C74.83 83.1684 80.3574 78.7116 81.0054 72.5788C81.6535 66.446 77.1935 60.9227 71.0563 60.2751C70.6751 60.2751 70.2939 60.237 69.8746 60.237Z" fill="#141414"/>
  <path d="M42.3144 73.3786C41.2471 73.2644 40.4846 72.2359 40.7133 71.1693C40.9039 70.217 41.8569 69.6456 42.8099 69.7218L51.501 70.636C51.5772 70.636 51.6536 70.5598 51.6536 70.4836C51.3486 66.5982 48.1846 63.3985 44.0677 63.2842C40.1415 63.17 36.6345 66.1031 36.0627 69.9885C35.4147 74.4072 38.5787 78.4449 43.0005 78.9401C46.3931 79.321 49.5188 77.4164 50.9292 74.5214C50.9673 74.4452 50.9293 74.3309 50.8149 74.3309L42.3144 73.3786Z" fill="#141414"/>
  <path d="M66.0624 73.4931C64.995 73.3788 64.2326 72.3503 64.4613 71.2838C64.6519 70.3315 65.6049 69.7601 66.5579 69.8362L75.554 70.7885C75.6302 70.7885 75.7066 70.7504 75.6685 70.6743C75.4016 66.7508 72.2376 63.513 68.1208 63.3606C64.1945 63.2082 60.6875 66.1794 60.1158 70.0648C59.4677 74.4835 62.6317 78.5213 67.0535 79.0165C70.4461 79.3974 73.5337 77.5309 74.9441 74.6359C74.9822 74.5597 74.9441 74.4835 74.8298 74.4835L66.0624 73.4931Z" fill="#141414"/>
  <path d="M46.6978 63.8175C40.1794 63.1318 38.3115 63.3223 37.4348 63.1699C39.7219 60.5035 43.915 59.2084 47.3076 59.5512C51.2338 59.9702 54.6265 62.4843 55.9607 64.8079C54.6265 64.6556 50.0142 64.1603 46.6978 63.8175Z" fill="#FC9B59"/>
  <path d="M55.9235 65.4937C55.8854 65.4937 55.8473 65.4937 55.8473 65.4937C54.8944 65.3794 52.1879 65.0747 49.5577 64.808L46.6224 64.5033C42.0863 64.0081 39.7991 63.97 38.5793 63.9319C38.0075 63.9319 37.6264 63.8938 37.3214 63.8557C37.0546 63.8176 36.864 63.6652 36.7878 63.4367C36.7115 63.2081 36.7496 62.9415 36.9021 62.7511C39.1892 60.0846 43.4967 58.4847 47.3848 58.9037C51.7685 59.3608 55.1993 62.1415 56.5716 64.5033C56.6859 64.7318 56.6859 64.9985 56.5334 65.2271C56.3809 65.3794 56.1522 65.4937 55.9235 65.4937ZM46.7749 63.132L49.672 63.4367C51.4254 63.6271 53.179 63.8176 54.475 63.9319C52.9503 62.1796 50.2438 60.5417 47.2324 60.1988C44.3734 59.8941 41.2096 60.8464 39.0749 62.5225C40.371 62.5987 42.6961 62.713 46.7749 63.132Z" fill="#141414"/>
  <path d="M68.9603 63.8938C62.4419 64.6938 60.8027 65.1508 59.926 65.2651C61.1839 62.2558 65.034 60.3512 68.4266 59.8179C72.2767 59.2084 76.1267 60.4274 78.147 62.8653C76.7747 62.9796 72.2766 63.4748 68.9603 63.8938Z" fill="#FC9B59"/>
  <path d="M59.926 65.9128C59.6973 65.9128 59.5067 65.7985 59.3924 65.6462C59.2399 65.4557 59.2017 65.189 59.316 64.9605C60.6883 61.6846 64.8434 59.6276 68.3122 59.0943C72.3909 58.4468 76.4697 59.7419 78.6425 62.4083C78.795 62.5988 78.833 62.8654 78.7568 63.094C78.6424 63.3226 78.4518 63.475 78.185 63.513C76.8508 63.6654 72.3528 64.1225 69.0364 64.5415C64.5765 65.1129 62.4037 65.4938 61.222 65.6843C60.6502 65.7986 60.3072 65.8366 59.9641 65.8747C59.9641 65.9128 59.9641 65.9128 59.926 65.9128ZM70.3326 60.3514C69.7227 60.3514 69.1127 60.3894 68.5409 60.5037C65.8726 60.9227 62.823 62.2559 61.2602 64.3891C62.5181 64.1605 64.6909 63.7796 68.9221 63.2463C71.438 62.9416 74.6781 62.5607 76.6602 62.3703C74.983 61.0752 72.696 60.3514 70.3326 60.3514Z" fill="#141414"/>
  <path d="M49.4042 94.8626C48.9086 94.8626 48.4132 94.8246 47.8415 94.7103C43.8008 93.9104 42.9621 89.6059 43.1145 87.4347C43.1527 87.0537 43.4578 86.7871 43.8389 86.7871C44.2201 86.8252 44.4869 87.13 44.4869 87.5109C44.4869 87.7014 44.22 92.6152 48.1082 93.3771C53.0256 94.3294 54.6267 89.5297 54.7029 89.3393C54.8173 88.9964 55.1984 88.7679 55.5796 88.8822C55.9226 88.9965 56.1514 89.3774 56.0371 89.7583C55.999 89.7964 54.3216 94.8626 49.4042 94.8626Z" fill="#141414"/>
  <path d="M28.2862 38.6387C28.2862 38.6387 38.0067 38.5244 47.7652 43.0954C54.7028 46.3333 57.9429 49.0759 59.5058 51.5138C55.3508 49.495 50.3953 46.6761 44.0675 45.1524C30.9545 41.9907 25.9991 47.8188 25.9991 47.8188L28.2862 38.6387Z" fill="#141414"/>
  <path d="M69.5315 43.2097C69.5315 43.2097 67.8162 19.2878 67.4731 14.4882C67.13 9.68861 64.0804 2.56541 58.4006 1.46073C52.7209 0.356063 47.613 5.19374 45.4783 10.4885C43.3436 15.7833 35.6055 32.7344 35.6055 32.7344L69.5315 43.2097Z" fill="#FC9B59"/>
  <path d="M69.5314 43.8955C69.4552 43.8955 69.3789 43.8955 69.3408 43.8574L35.3766 33.3821C35.186 33.3059 35.0335 33.1916 34.9573 33.0011C34.881 32.8107 34.881 32.6202 34.9573 32.4298C35.0335 32.2774 42.7335 15.4407 44.8301 10.222C47.0791 4.6606 52.5303 -0.367542 58.515 0.813313C64.6141 1.99417 67.816 9.49833 68.1209 14.4503C68.4259 19.1737 70.1412 42.9432 70.1793 43.1717C70.1793 43.4003 70.1032 43.6288 69.9126 43.7431C69.8364 43.8193 69.6839 43.8955 69.5314 43.8955ZM36.5202 32.3155L68.769 42.2956C68.4259 37.7245 67.0536 18.7166 66.7868 14.5646C66.4818 10.0316 63.6229 3.21315 58.2481 2.18467C52.9495 1.15618 48.1084 5.72718 46.0881 10.7934C44.2203 15.3645 38.0068 29.0395 36.5202 32.3155Z" fill="#141414"/>
  <path d="M68.6165 30.4109L68.9214 40.5815C68.9214 40.5815 75.4016 46.4858 86.6468 48.7332C92.9365 49.9903 96.0623 49.6093 97.3965 49.1903C98.7306 48.8094 104.83 47.7429 102.237 43.5146C100.217 40.1625 95.033 36.7342 86.3038 34.4106C78.7943 32.4298 68.6165 30.4109 68.6165 30.4109Z" fill="#FB7C26"/>
  <path d="M93.9654 50.295C92.1738 50.295 89.7341 50.0665 86.494 49.4189C75.2107 47.1334 68.7303 41.3433 68.4635 41.0767C68.311 40.9624 68.2349 40.7719 68.2349 40.5815L67.9299 30.4109C67.9299 30.2205 68.0061 29.9919 68.1586 29.8777C68.3111 29.7634 68.5398 29.6871 68.7304 29.7252C68.8448 29.7633 79.0226 31.7442 86.494 33.763C94.6896 35.9724 100.484 39.3245 102.847 43.1718C103.609 44.3907 103.762 45.5335 103.343 46.562C102.504 48.619 99.4925 49.3808 98.044 49.7617C97.8534 49.7998 97.701 49.8379 97.5867 49.876C96.9005 50.0665 95.757 50.295 93.9654 50.295ZM69.6071 40.2768C70.7888 41.2672 77.0022 46.1049 86.7988 48.0857C93.241 49.3808 96.2525 48.8475 97.2055 48.5808C97.3198 48.5427 97.5104 48.5047 97.701 48.4285C98.8445 48.1238 101.475 47.4762 102.047 46.0668C102.275 45.4573 102.161 44.7717 101.627 43.8956C100.369 41.8386 96.6717 37.9151 86.0746 35.0963C79.8993 33.4583 71.8561 31.7822 69.264 31.2489L69.6071 40.2768Z" fill="#141414"/>
  <path d="M25.9234 19.2878C13.3059 16.9261 5.64392 17.307 2.2132 20.6972C0.269121 22.6399 0.459716 29.8775 10.5994 39.8957C12.2004 38.9815 18.4138 37.8006 25.8089 39.2862C51.8824 44.5048 65.3766 56.8085 79.4045 59.7416C86.9902 61.3415 99.6076 61.6081 102.467 46.8665C102.467 46.8665 99.4933 50.3329 88.4006 49.152C71.4376 47.2855 51.5776 24.0874 25.9234 19.2878Z" fill="#FC9B59"/>
  <path d="M85.9991 61.1131C83.5594 61.1131 81.2343 60.7703 79.2521 60.3513C73.3055 59.0942 67.4733 56.2373 60.7643 52.8852C51.3489 48.1999 40.7136 42.9051 25.6565 39.8958C18.5283 38.4864 12.4673 39.5911 10.9425 40.4291C10.6757 40.5815 10.3326 40.5433 10.142 40.3148C1.52704 31.7822 0.612183 25.8398 0.612183 23.6686C0.612183 22.1449 1.03153 20.8878 1.79391 20.126C5.33899 16.6215 13.0773 16.0882 26.114 18.5261C39.9132 21.1164 52.0731 28.9634 62.8227 35.8962C72.4669 42.1052 80.7768 47.4761 88.515 48.3141C98.9977 49.4188 101.971 46.2953 102.009 46.2572C102.2 46.0286 102.543 45.9524 102.81 46.1048C103.076 46.2571 103.229 46.5238 103.191 46.8286C102.162 52.0472 99.8745 55.8945 96.3294 58.2562C93.1274 60.4275 89.4679 61.1131 85.9991 61.1131ZM18.7951 37.8769C20.9298 37.8769 23.3695 38.0674 25.9234 38.6006C41.133 41.648 51.8826 46.981 61.3743 51.7044C68.007 55.0184 73.7247 57.8371 79.5188 59.0561C84.1312 60.0084 90.6116 60.5036 95.4909 57.2658C98.3498 55.3612 100.332 52.39 101.399 48.3903C99.4934 49.3807 95.567 50.5616 88.3244 49.7998C80.2431 48.9237 71.7807 43.4764 62.0222 37.1531C51.3869 30.2585 39.3413 22.4877 25.809 19.9736C13.2678 17.6119 5.91074 18.0309 2.70874 21.1926C2.21319 21.6878 1.94635 22.602 1.94635 23.7447C1.94635 25.7255 2.82313 31.0965 10.7519 39.0577C12.1623 38.4864 15.0594 37.8769 18.7951 37.8769Z" fill="#141414"/>
  <path d="M25.3512 47.438C15.1734 43.3621 10.599 39.8577 10.599 39.8577C10.599 39.8577 18.7185 37.0389 28.5913 39.8196C26.8759 42.0289 25.8467 45.2667 25.3512 47.438Z" fill="#FB7C26"/>
  <path d="M25.3509 48.1236C25.2747 48.1236 25.1983 48.1237 25.084 48.0856C14.9443 44.0478 10.37 40.5814 10.1794 40.429C9.98877 40.2767 9.87452 40.01 9.91264 39.7815C9.95076 39.5529 10.1412 39.3243 10.37 39.2481C10.713 39.1339 18.7944 36.3913 28.7816 39.2101C29.0103 39.2863 29.1627 39.4386 29.2389 39.6672C29.3152 39.8957 29.2771 40.1243 29.1247 40.3147C27.4093 42.486 26.4562 45.8381 25.9988 47.6665C25.9607 47.857 25.8083 48.0093 25.6558 48.1236C25.5414 48.1236 25.4653 48.1236 25.3509 48.1236ZM12.1616 40.1624C14.0295 41.3814 18.1844 43.8193 24.8552 46.5619C25.3889 44.5811 26.1895 42.1813 27.4475 40.2767C20.6241 38.5626 14.7537 39.5529 12.1616 40.1624Z" fill="#141414"/>
</svg>
