<svg width="230" height="297" viewBox="0 0 230 297" fill="none" xmlns="http://www.w3.org/2000/svg">
<path d="M230 141.374C230 139.267 229.829 136.99 229.089 135.453C228.064 133.232 226.925 132.492 225.501 131.125C222.768 128.506 226.241 127.083 228.405 117.518C230.74 107.041 221.401 102.202 217.415 100.664C216.617 100.38 216.275 99.4116 216.731 98.7284C219.749 93.718 219.977 88.4228 217.13 84.0387C211.15 74.701 205 67.8117 192.699 67.8117C183.531 67.8117 177.722 73.9609 177.153 74.6441C175.273 76.6938 168.155 78.0034 163.656 78.0603C162.688 78.0603 162.46 77.5479 163.03 76.58C167.187 69.6337 167.585 65.4773 167.813 61.3779C168.041 57.677 167.244 53.9761 164.567 50.7877C157.905 42.9304 145.148 40.0835 135.638 39.0586C130.285 38.4893 124.078 38.0907 119.066 37.806C117.244 37.6922 115.706 36.3826 115.308 34.6176C113.77 27.8991 112.745 23.7427 112.346 21.8637C107.563 0.854065 93.8386 0 89.112 0C76.7544 0 68.5538 10.9888 66.219 21.1805C65.8204 22.8886 65.0799 25.7354 64.1118 29.5502C63.5993 31.4861 61.7203 32.6817 59.784 32.397C55.6838 31.7707 21.0026 27.5574 10.6382 41.6778C8.70199 44.3538 7.73382 47.9977 8.58803 51.8694C10.752 61.7195 17.5858 71.171 28.0072 77.0355C32.7908 79.7115 36.6633 81.4196 44.9207 83.5832C45.8319 83.811 46.5151 84.665 46.4581 85.6329L46.3444 95.483C46.3444 96.2802 45.6609 96.9065 44.8067 96.9065C43.8386 96.8495 42.6997 96.7925 42.5858 96.7925C39.5106 96.7925 36.7202 98.6145 35.4674 101.404C34.1576 104.365 34.8409 107.895 37.1758 110.173L44.9207 117.631C45.6041 118.315 46.0026 119.226 46.0026 120.194L45.9456 126.571C45.9456 127.14 45.4332 127.652 44.8637 127.595C41.1621 127.538 28.6337 127.937 19.2943 136.307C18.8387 136.762 18.1553 136.933 17.5289 136.819C13.9982 136.364 8.07556 135.68 7.79083 135.68C4.82956 135.68 2.21014 137.332 0.8434 139.951C-0.637234 142.854 -0.124929 146.385 2.03907 148.719C3.57666 150.37 5.9115 152.705 8.58803 155.267C9.21446 155.893 9.55625 156.69 9.55625 157.544C9.38541 163.124 10.2967 174.17 24.4766 186.696C25.3878 187.493 26.0142 188.461 26.4698 189.543C31.4242 201.499 43.497 209.584 51.9821 212.374C52.9502 212.716 53.4628 213.741 53.1211 214.652C52.153 217.669 51.2988 219.605 50.6154 220.858C49.3056 223.249 46.1164 225.811 42.4718 228.772C34.4422 235.263 23.5083 244.145 20.547 261.397C19.5789 267.034 18.6109 275.517 24.6473 280.983C32.3352 287.986 52.8362 293.111 82.0503 293.452C82.0503 293.452 92.5856 294.135 97.9956 287.018C98.2234 286.734 98.679 286.734 98.9068 287.018C104.658 294.591 118.724 302.961 135.866 291.004C147.141 283.09 160.467 265.212 163.884 261.34C172.198 251.775 171.287 236.629 164.966 230.423C153.007 218.637 138.428 223.534 128.064 229.683C127.381 230.082 126.526 229.683 126.356 228.943C123.907 215.677 116.219 204.972 113.485 201.272C113.03 200.645 113.201 199.791 113.827 199.336C118.668 196.033 121.914 191.649 123.337 186.411C123.679 185.215 124.362 184.191 125.33 183.507L128.69 181.059C131.367 179.123 132.563 175.65 131.595 172.518C130.968 170.412 129.488 168.704 127.552 167.793C126.811 167.451 126.412 166.654 126.526 165.857C126.697 164.718 126.868 163.522 127.096 162.27C127.267 161.245 128.007 160.448 129.032 160.277C145.433 157.316 156.31 150.142 162.46 146.441C168.838 142.57 172.312 140.577 178.463 140.463C182.278 140.406 187.973 141.659 193.838 142.968C198.451 143.993 198.337 147.523 201.412 151.338C204.487 155.153 208.075 157.43 212.403 157.487C214.909 157.544 225.16 156.405 229.203 147.409C229.829 145.474 230 143.196 230 141.374ZM95.4899 259.176C95.2052 259.916 94.2941 260.087 93.8385 259.461C90.8773 255.475 84.2713 247.276 74.1346 242.778C73.3374 242.437 73.0526 241.412 73.5652 240.672C83.474 227.121 84.4423 220.232 83.1325 206.225C83.1325 205.94 83.3602 205.713 83.645 205.713C84.2145 205.77 84.9546 205.77 85.4671 205.826C85.8088 205.826 86.0938 205.997 86.2646 206.282C89.5676 211.406 93.269 219.093 94.1233 220.63C97.8818 227.861 99.5333 237.996 98.9638 246.309C98.5082 252.287 96.4011 257.127 95.4899 259.176Z" fill="#F3EAD4"/>
<path d="M65.7644 190.568C64.5685 200.133 62.0058 216.246 57.393 224.502C51.5274 234.978 31.9376 240.33 28.1791 262.536C25.8442 276.314 31.8806 277.567 41.7895 280.243C51.2428 282.805 66.8462 285.367 82.0512 285.538C88.771 285.595 93.2131 283.147 93.0422 277.624C92.7575 270.279 88.2586 264.244 82.7347 258.265C75.1037 250.01 61.7212 243.747 51.2428 250.01C60.8669 244.259 65.5934 240.216 72.1424 227.918C77.7232 217.499 74.6482 205.086 74.876 194.496" fill="#6FA467"/>
<path d="M82.279 286.506C82.1651 286.506 82.1082 286.506 81.9943 286.506C65.9351 286.335 50.1606 283.545 41.5046 281.211L40.7073 280.983C31.1402 278.364 24.8189 276.656 27.2107 262.422C29.7164 247.732 39.1128 240.102 46.6868 233.953C50.9009 230.537 54.5455 227.576 56.5386 224.046C61.0944 215.847 63.6571 199.506 64.796 190.453C64.853 189.941 65.3654 189.542 65.878 189.599C66.3905 189.656 66.7891 190.169 66.7322 190.681C65.3085 201.898 62.689 216.929 58.2471 224.957C56.0831 228.829 52.1536 232.017 47.9395 235.434C40.2516 241.64 31.5386 248.7 29.1468 262.706C26.9828 275.289 31.7665 276.542 41.2198 279.104L42.017 279.332C50.5592 281.666 66.1627 284.399 82.051 284.57C85.9804 284.627 88.9419 283.773 90.5364 282.065C91.6184 280.983 92.1308 279.503 92.0738 277.624C91.846 270.848 87.8596 265.268 82.051 258.892C74.3061 250.465 61.4362 244.999 51.7551 250.807C51.2995 251.091 50.7299 250.92 50.4451 250.465C50.1604 250.009 50.3313 249.44 50.7869 249.155C59.9554 243.632 64.6251 239.932 71.288 227.462C75.2174 220.061 74.7049 211.634 74.1924 203.435C74.0215 200.304 73.8506 197.4 73.8506 194.496C73.8506 193.984 74.3063 193.528 74.8188 193.585C75.3314 193.585 75.787 194.041 75.73 194.553C75.6731 197.343 75.8439 200.247 76.0148 203.321C76.5273 211.748 77.0398 220.516 72.8827 228.373C67.9852 237.597 64.0558 242.266 58.0193 246.65C67.017 245.568 76.8689 250.579 83.361 257.582C88.6571 263.333 93.6115 269.766 93.8962 277.51C94.0101 279.901 93.2698 281.837 91.8461 283.317C89.9668 285.481 86.664 286.506 82.279 286.506Z" fill="#141414"/>
<path d="M55.798 247.732C51.9256 249.554 49.2489 250.977 46.0029 253.71L55.798 247.732Z" fill="#6FA467"/>
<path d="M45.9461 254.678C45.6613 254.678 45.3767 254.565 45.2059 254.337C44.8642 253.938 44.921 253.312 45.3196 252.97C48.7934 250.01 51.6978 248.586 55.3424 246.821C55.798 246.594 56.3676 246.821 56.5954 247.277C56.8232 247.732 56.5952 248.302 56.1396 248.529C52.6089 250.181 49.8185 251.604 46.5156 254.394C46.4017 254.622 46.1739 254.678 45.9461 254.678Z" fill="#141414"/>
<path d="M43.9531 271.247C53.9189 275.118 63.1446 276.656 77.7231 277.168L43.9531 271.247Z" fill="#6FA467"/>
<path d="M77.6658 278.079C62.5747 277.51 53.3492 275.916 43.5543 272.101C43.0417 271.93 42.814 271.361 42.9848 270.848C43.1556 270.336 43.725 270.108 44.2375 270.279C53.8047 273.98 62.8594 275.574 77.6658 276.143C78.1783 276.143 78.6339 276.599 78.577 277.111C78.6339 277.681 78.1783 278.079 77.6658 278.079Z" fill="#141414"/>
<path d="M75.5019 204.175L63.543 201.955L64.5682 194.268L75.1605 196.83L75.5019 204.175Z" fill="#141414"/>
<path d="M83.7588 191.137C92.1301 199.165 95.2623 206.225 100.957 216.986C106.139 226.893 107.506 241.241 106.31 252.97C100.558 265.382 98.2236 277.225 108.36 285.652C113.941 290.321 122.768 290.492 131.31 284.513C141.504 277.396 150.331 264.813 157.905 256.102C163.827 249.326 162.517 238.907 159.385 235.832C147.255 223.933 130.741 236.857 124.135 241.412C117.529 245.967 124.761 241.071 120.547 243.69C119.977 232.53 116.162 220.232 110.638 211.463C105.741 203.72 102.665 198.653 97.2555 191.991" fill="#6FA467"/>
<path d="M118.099 290.036C114.226 290.036 110.639 288.84 107.734 286.392C96.2878 276.827 100.445 263.39 105.343 252.685C106.311 242.38 105.456 227.747 100.046 217.442C99.4199 216.246 98.8503 215.107 98.2809 214.025C93.7251 205.2 90.4223 198.88 83.0761 191.877C82.6774 191.535 82.6774 190.909 83.0191 190.511C83.3607 190.112 83.9871 190.112 84.3857 190.454C91.9598 197.685 95.3198 204.175 99.9326 213.114C100.502 214.196 101.071 215.335 101.698 216.531C107.336 227.292 108.247 242.437 107.165 253.027C107.165 253.141 107.108 253.255 107.108 253.312C100.16 268.286 100.73 278.022 108.873 284.855C114.454 289.524 122.996 289.011 130.627 283.659C138.144 278.421 144.978 269.994 151.071 262.593C153.178 260.03 155.172 257.582 157.108 255.418C162.689 249.042 161.436 239.191 158.645 236.458C147.882 225.868 133.133 236.174 126.071 241.127C125.559 241.469 125.103 241.811 124.648 242.095C123.053 243.177 122.256 243.747 121.914 243.974C121.857 243.974 121.857 244.031 121.8 244.031C121.8 244.031 121.8 244.031 121.743 244.031L121.686 244.088C121.459 244.202 121.288 244.259 121.117 244.259C121.06 244.316 121.003 244.316 120.946 244.373C120.661 244.544 120.32 244.544 119.978 244.43C119.693 244.259 119.465 243.974 119.465 243.633C118.896 232.701 115.194 220.516 109.727 211.862L108.531 209.926C104.374 203.321 101.356 198.539 96.4017 192.503C96.06 192.105 96.1171 191.479 96.5157 191.137C96.9144 190.795 97.5407 190.852 97.8824 191.251C102.894 197.4 105.912 202.24 110.126 208.901L111.322 210.837C116.675 219.321 120.434 231.107 121.288 241.981C121.402 241.925 121.459 241.924 121.573 241.867C122.028 241.583 122.655 241.127 123.509 240.558C123.964 240.273 124.42 239.932 124.932 239.59C132.45 234.352 148.053 223.42 159.955 235.092C163.258 238.337 164.853 249.383 158.474 256.671C156.538 258.835 154.602 261.283 152.495 263.845C146.345 271.361 139.397 279.844 131.709 285.253C127.381 288.442 122.541 290.036 118.099 290.036Z" fill="#141414"/>
<path d="M150.786 244.828C134.158 250.123 123.452 262.706 118.668 276.77L150.786 244.828Z" fill="#6FA467"/>
<path d="M118.668 277.738C118.554 277.738 118.44 277.738 118.383 277.681C117.871 277.51 117.643 276.941 117.814 276.485C123.167 260.714 135.126 248.871 150.559 243.974C151.071 243.803 151.584 244.088 151.755 244.6C151.926 245.113 151.641 245.625 151.128 245.796C136.265 250.522 124.761 261.966 119.636 277.111C119.408 277.51 119.067 277.738 118.668 277.738Z" fill="#141414"/>
<path d="M120.547 243.12C120.661 245.284 120.832 247.789 121.003 249.953L120.547 243.12Z" fill="#6FA467"/>
<path d="M121.003 250.864C120.49 250.864 120.092 250.465 120.035 249.953L119.921 248.586C119.75 246.707 119.636 244.771 119.522 243.063C119.522 242.551 119.921 242.095 120.434 242.038C120.946 242.038 121.401 242.437 121.458 242.949C121.515 244.657 121.686 246.536 121.8 248.415L121.914 249.782C121.971 250.294 121.572 250.75 121.06 250.807C121.06 250.864 121.06 250.864 121.003 250.864Z" fill="#141414"/>
<path d="M106.538 250.864C106.424 253.71 106.424 259.803 106.367 262.649L106.538 250.864Z" fill="#6FA467"/>
<path d="M106.367 263.617C106.311 263.617 106.311 263.617 106.367 263.617C105.798 263.617 105.399 263.162 105.399 262.649C105.456 261.34 105.456 259.347 105.456 257.24C105.456 254.849 105.513 252.401 105.57 250.863C105.57 250.351 106.026 249.896 106.538 249.953C107.051 249.953 107.506 250.408 107.449 250.92C107.392 252.458 107.392 254.906 107.335 257.24C107.335 259.347 107.278 261.34 107.278 262.706C107.278 263.219 106.88 263.617 106.367 263.617Z" fill="#141414"/>
<path d="M104.317 201.784L94.6928 204.346L90.251 198.425L100.9 196.489L104.317 201.784Z" fill="#141414"/>
<path d="M119.977 153.387C125.614 152.989 132.733 151.85 140.705 148.662C161.719 140.235 165.193 130.67 183.075 132.776C187.459 133.289 196.457 135.282 203.006 137.331C211.491 139.95 218.154 133.061 208.53 125.033C204.999 122.129 196.343 119.339 191.389 118.258C196.799 118.941 207.106 120.82 211.776 120.934C222.027 121.218 224.02 111.994 215.933 108.464C208.017 105.048 198.849 105.902 190.762 107.383C197.425 104.763 203.063 102.714 208.131 97.2478C215.876 88.8781 208.131 83.2983 199.703 86.0312C190.421 89.0489 184.157 94.5718 179.088 102.144C176.355 97.1339 175.671 93.3192 170.66 89.1058C163.655 83.2414 154.942 85.0633 156.765 96.5645C157.619 101.86 161.605 105.162 161.89 111.197C162.175 117.176 159.669 121.958 156.252 126.229C150.501 133.46 143.724 138.128 136.378 141.146C130.398 143.651 125.33 144.391 121.23 144.79" fill="#6FA467"/>
<path d="M119.977 154.355C119.465 154.355 119.066 153.957 119.009 153.444C118.952 152.932 119.351 152.477 119.92 152.42C127.153 151.907 133.873 150.37 140.365 147.751C147.996 144.676 153.235 141.545 157.847 138.755C165.82 133.915 171.572 130.442 183.246 131.809C187.859 132.378 197.084 134.428 203.348 136.363C207.107 137.502 210.695 136.705 211.947 134.371C213.2 132.036 211.72 128.791 207.961 125.716C204.658 122.983 196.173 120.193 191.219 119.112C190.706 118.998 190.421 118.542 190.478 118.03C190.592 117.517 191.048 117.176 191.56 117.233C193.44 117.46 195.945 117.859 198.622 118.258C203.405 118.998 208.872 119.795 211.834 119.909C217.016 120.08 219.408 117.688 219.92 115.582C220.49 113.133 218.781 110.685 215.592 109.262C207.676 105.788 198.28 106.927 190.991 108.237C190.478 108.351 190.023 108.009 189.909 107.553C189.795 107.098 190.023 106.586 190.478 106.415L191.276 106.073C197.426 103.682 202.779 101.575 207.506 96.5077C210.296 93.49 211.15 90.6432 209.897 88.6505C208.36 86.2591 204.26 85.5189 200.102 86.8854C191.731 89.6183 185.353 94.6288 180 102.6C179.829 102.885 179.487 103.055 179.146 102.999C178.804 102.999 178.519 102.771 178.348 102.486C177.608 101.12 176.982 99.867 176.412 98.6144C174.932 95.4259 173.622 92.6929 170.091 89.6753C166.674 86.7715 162.802 85.8605 160.296 87.284C157.961 88.5935 157.05 91.7819 157.79 96.223C158.132 98.4435 159.1 100.322 160.125 102.258C161.435 104.82 162.802 107.44 162.916 110.913C163.2 118.03 159.727 123.268 157.05 126.57C151.583 133.403 144.977 138.356 136.834 141.772C130.513 144.392 125.273 145.132 121.401 145.473C120.888 145.53 120.433 145.132 120.376 144.619C120.319 144.107 120.718 143.651 121.23 143.594C124.989 143.253 130.057 142.57 136.094 140.007C143.952 136.762 150.33 131.922 155.569 125.375C159.556 120.421 161.207 115.98 160.979 110.97C160.866 107.895 159.67 105.561 158.36 103.112C157.335 101.063 156.253 99.0129 155.854 96.5077C154.715 89.3906 157.506 86.6007 159.328 85.6328C162.574 83.8108 167.244 84.8357 171.344 88.1949C175.216 91.4403 176.64 94.515 178.178 97.7603C178.519 98.5575 178.918 99.2976 179.317 100.152C184.727 92.5221 191.219 87.6825 199.533 84.9496C204.601 83.2984 209.499 84.3802 211.549 87.5117C213.314 90.3016 212.403 94.0025 208.986 97.7034C205.683 101.233 202.21 103.397 198.394 105.162C204.317 104.65 210.695 104.877 216.446 107.383C220.49 109.148 222.597 112.45 221.856 115.866C221.23 118.656 218.269 121.845 211.89 121.674C209.783 121.617 206.537 121.218 203.178 120.706C205.626 121.731 207.847 122.869 209.328 124.065C213.827 127.823 215.478 131.922 213.77 135.111C212.061 138.242 207.62 139.438 202.95 138.015C196.116 135.908 187.232 133.972 183.189 133.517C172.198 132.207 166.959 135.396 159.043 140.178C154.374 143.025 149.077 146.214 141.333 149.345C134.613 152.021 127.779 153.615 120.319 154.128C120.034 154.356 119.977 154.355 119.977 154.355Z" fill="#141414"/>
<path d="M179.487 108.635C179.259 112.336 177.836 115.183 175.843 116.891L179.487 108.635Z" fill="#6FA467"/>
<path d="M175.843 117.802C175.558 117.802 175.273 117.688 175.102 117.46C174.761 117.062 174.817 116.436 175.216 116.094C177.152 114.5 178.291 111.824 178.519 108.521C178.576 108.009 179.032 107.61 179.544 107.61C180.057 107.667 180.455 108.123 180.455 108.635C180.171 112.45 178.747 115.582 176.469 117.517C176.241 117.745 176.013 117.802 175.843 117.802Z" fill="#141414"/>
<path d="M183.986 117.404C181.082 115.923 176.412 115.183 172.938 119.226L183.986 117.404Z" fill="#6FA467"/>
<path d="M172.938 120.193C172.71 120.193 172.483 120.136 172.312 119.966C171.913 119.624 171.856 118.998 172.198 118.599C175.843 114.329 180.911 114.784 184.385 116.549C184.84 116.777 185.011 117.346 184.784 117.859C184.556 118.314 183.986 118.485 183.474 118.258C180.626 116.777 176.526 116.435 173.622 119.852C173.508 120.079 173.223 120.193 172.938 120.193Z" fill="#141414"/>
<path d="M127.438 143.652L125.9 152.989L120.148 153.786L121.458 144.62L127.438 143.652Z" fill="#141414"/>
<path d="M85.1822 198.026C71.6856 197.4 53.5763 192.845 53.0068 177.301L54.3738 75.1565C55.5697 57.677 75.1594 44.7523 92.5853 45.948L94.8065 46.1188C112.232 47.3145 133.018 63.029 131.765 80.5086C131.765 80.5086 117.756 170.07 116.105 182.312C114.453 194.553 98.6787 198.652 85.1822 198.026Z" fill="#6FA467"/>
<path d="M87.8023 199.051C86.8912 199.051 85.9802 199.051 85.126 198.994C79.2604 198.709 70.8321 197.685 63.7707 194.154C56.2536 190.34 52.2672 184.703 51.9824 177.358L53.3491 75.1565C53.9186 66.5591 58.7022 58.6449 66.7888 52.7804C74.4197 47.2575 83.816 44.4107 92.5859 45.037L94.807 45.2078C103.634 45.8341 113.372 50.0474 120.832 56.5382C129.032 63.6553 133.247 72.1958 132.677 80.6225V80.6794C132.563 81.5904 118.668 170.355 117.017 182.425C115.422 194.781 100.843 199.051 87.8023 199.051ZM90.422 46.859C74.6475 46.859 56.4812 58.6449 55.3423 75.2135L53.9756 177.301C54.602 193.87 76.0711 196.66 85.2397 197.058C86.0939 197.115 86.9481 197.115 87.8023 197.115C100.843 197.115 113.77 192.617 115.194 182.141C116.789 170.127 130.456 82.7292 130.855 80.3948C131.367 72.5944 127.438 64.6233 119.693 57.9047C112.518 51.6986 103.235 47.656 94.75 47.0297L92.5291 46.859C91.8458 46.9159 91.1053 46.859 90.422 46.859Z" fill="#141414"/>
<path d="M121.515 123.667L137.46 123.268L121.344 134.826" fill="#6FA467"/>
<path d="M121.344 135.794C121.06 135.794 120.775 135.68 120.547 135.395C120.262 134.94 120.319 134.371 120.775 134.086L134.386 124.293L121.515 124.634C121.003 124.634 120.547 124.236 120.547 123.723C120.547 123.211 120.946 122.755 121.458 122.755L137.404 122.357C137.802 122.357 138.201 122.585 138.315 122.983C138.429 123.382 138.315 123.837 137.973 124.065L121.857 135.623C121.743 135.737 121.515 135.794 121.344 135.794Z" fill="#141414"/>
<path d="M107.051 173.942L124.078 174.568L109.101 185.329" fill="#6FA467"/>
<path d="M109.101 186.297C108.816 186.297 108.532 186.184 108.304 185.899C108.019 185.443 108.076 184.874 108.532 184.589L121.231 175.423L106.994 174.91C106.482 174.91 106.026 174.455 106.083 173.942C106.083 173.43 106.539 172.974 107.051 173.031L124.078 173.601C124.477 173.601 124.819 173.885 124.933 174.284C125.047 174.682 124.933 175.081 124.591 175.309L109.614 186.07C109.5 186.241 109.329 186.297 109.101 186.297Z" fill="#141414"/>
<path d="M87.46 161.757L99.8747 160.846L90.2506 170.753" fill="#6FA467"/>
<path d="M90.2513 171.721C90.0235 171.721 89.7956 171.607 89.5678 171.437C89.1692 171.095 89.1692 170.469 89.5678 170.07L97.4265 161.985L87.5177 162.725C87.0051 162.782 86.5497 162.384 86.4927 161.814C86.4358 161.302 86.8345 160.846 87.4039 160.79L99.8184 159.879C100.217 159.822 100.616 160.049 100.73 160.448C100.9 160.79 100.843 161.245 100.559 161.53L90.9345 171.437C90.7067 171.607 90.4791 171.721 90.2513 171.721Z" fill="#141414"/>
<path d="M55.7409 117.119L42.5859 104.365L55.8546 105.276" fill="#6FA467"/>
<path d="M55.7414 118.087C55.5137 118.087 55.2858 117.973 55.058 117.802L41.8463 105.049C41.5616 104.764 41.4475 104.365 41.6183 103.967C41.7891 103.625 42.1309 103.397 42.5295 103.397L55.7984 104.309C56.311 104.365 56.7094 104.821 56.7094 105.333C56.7094 105.846 56.197 106.244 55.6844 106.244L45.0352 105.504L56.3679 116.436C56.7666 116.778 56.7666 117.404 56.3679 117.802C56.254 117.973 56.0262 118.087 55.7414 118.087Z" fill="#141414"/>
<path d="M56.4816 65.1356C56.4816 65.1356 69.7503 62.8581 84.0441 67.0145C94.2377 69.9752 99.2493 72.9928 101.926 76.0105C95.7755 74.1316 88.4293 71.3986 79.4316 70.6584C60.8098 69.1781 53.9189 78.9713 53.9189 78.9713L56.4816 65.1356Z" fill="#141414"/>
<path d="M113.828 62.4594C113.828 62.4594 106.254 30.0623 104.773 23.6285C103.293 17.1377 97.5408 8.08478 89.5681 7.8001C81.5385 7.51541 75.6159 15.2588 73.8505 22.9453C72.0852 30.6317 65.1377 55.5131 65.1377 55.5131L113.828 62.4594Z" fill="#FC9B59"/>
<path d="M113.828 63.3706C113.771 63.3706 113.714 63.3706 113.714 63.3706L65.0236 56.3673C64.7389 56.3104 64.5113 56.1965 64.3404 55.9688C64.1696 55.741 64.1695 55.4563 64.2264 55.1716C64.2834 54.9439 71.1741 30.2333 72.8825 22.6607C74.7618 14.5757 81.0829 6.49069 89.568 6.77537C98.1671 7.06005 104.146 16.6254 105.684 23.344C107.165 29.7209 114.625 61.8902 114.739 62.1749C114.796 62.4596 114.739 62.8012 114.511 63.0289C114.34 63.2567 114.112 63.3706 113.828 63.3706ZM66.3336 54.6592L112.575 61.2638C111.094 55.0577 105.115 29.4362 103.862 23.7995C102.495 17.7072 97.0851 8.99592 89.511 8.71124C82.0509 8.42655 76.4701 15.7714 74.7617 23.1162C73.2241 29.8347 67.7003 49.8196 66.3336 54.6592Z" fill="#141414"/>
<path d="M109.784 45.1509L112.404 58.9865C112.404 58.9865 122.54 65.6481 138.429 66.3313C147.312 66.7299 151.47 65.4773 153.235 64.6232C154.943 63.8261 163.087 61.0362 158.645 55.798C155.114 51.6416 147.313 48.1116 134.841 46.8021C124.135 45.6633 109.784 45.1509 109.784 45.1509Z" fill="#FB7C26"/>
<path d="M141.561 67.3561C140.592 67.3561 139.567 67.3561 138.428 67.2991C122.483 66.6159 112.346 60.1251 111.948 59.8404C111.72 59.7265 111.606 59.4988 111.549 59.2141L108.93 45.3785C108.873 45.0938 108.93 44.8091 109.157 44.5814C109.328 44.3536 109.613 44.2397 109.898 44.2397C110.069 44.2397 124.419 44.7521 135.069 45.8909C146.743 47.1435 155.399 50.4458 159.499 55.2285C160.809 56.7658 161.264 58.3031 160.923 59.7265C160.239 62.7442 156.253 64.3953 154.374 65.2494C154.146 65.3632 153.918 65.4202 153.748 65.534C152.096 66.2173 148.622 67.3561 141.561 67.3561ZM113.315 58.417C115.194 59.5557 124.704 64.7939 138.485 65.3633C147.597 65.7618 151.526 64.3953 152.836 63.769C153.007 63.7121 153.235 63.5982 153.519 63.4843C155 62.858 158.474 61.3207 158.987 59.271C159.214 58.417 158.873 57.449 157.962 56.4242C155.798 53.862 149.932 49.364 134.841 47.7698C126.071 46.8588 114.682 46.3464 111.037 46.1755L113.315 58.417Z" fill="#141414"/>
<path d="M49.0205 39.1723C31.2529 38.7168 20.8885 40.8235 16.9022 46.2325C14.6243 49.307 16.5035 59.1571 32.5058 70.6583C34.4989 69.0641 42.6995 66.1034 53.1779 66.5019C89.9659 67.9823 111.093 81.8748 130.911 82.8428C141.617 83.3552 158.929 81.0208 159.67 60.2389C159.67 60.2389 156.367 65.5909 140.934 66.388C117.358 67.5837 85.1252 40.1402 49.0205 39.1723Z" fill="#FC9B59"/>
<path d="M133.417 83.8678C132.506 83.8678 131.652 83.8678 130.855 83.8109C122.427 83.4123 113.884 80.7363 103.975 77.6048C90.1372 73.2776 74.4198 68.3241 53.1784 67.47C43.1557 67.0714 35.0691 69.8614 33.1898 71.3987C32.8481 71.6833 32.3926 71.6833 32.0509 71.4556C18.3835 61.6625 15.8209 53.7483 15.3654 50.7876C15.0237 48.6809 15.3084 46.8589 16.2196 45.7202C20.3198 40.1404 30.798 37.749 49.1351 38.2615C68.5542 38.7739 86.8912 46.9158 103.121 54.0899C117.643 60.5237 130.171 66.0466 140.991 65.5341C155.57 64.794 158.93 59.8974 158.987 59.8405C159.215 59.4988 159.67 59.3281 160.069 59.4419C160.467 59.5558 160.752 59.9544 160.752 60.3529C160.524 67.6978 158.189 73.5053 153.804 77.4909C147.996 82.6152 139.909 83.8678 133.417 83.8678ZM51.1853 65.5341C51.8686 65.5341 52.4951 65.5342 53.1784 65.5911C74.6476 66.4452 90.4791 71.3986 104.488 75.7828C114.283 78.8573 122.711 81.5334 130.912 81.932C137.404 82.2736 146.402 81.4765 152.324 76.0105C155.798 72.8221 157.848 68.3241 158.474 62.6304C156.082 64.3954 150.957 66.8437 140.935 67.3562C129.659 67.9255 116.96 62.2888 102.21 55.798C86.1511 48.6809 67.9848 40.6528 48.9644 40.1403C31.3107 39.6849 21.3449 41.7916 17.6433 46.802C17.0738 47.5422 16.9027 48.9086 17.1305 50.4459C17.5291 53.1219 19.9209 60.296 32.5063 69.4628C35.1829 67.8686 42.3015 65.5341 51.1853 65.5341Z" fill="#141414"/>
<path d="M54.3169 77.8325C39.5106 74.4732 32.5059 70.6584 32.5059 70.6584C32.5059 70.6584 42.9843 65.0787 57.1073 66.7298C55.285 70.0891 54.6016 74.7579 54.3169 77.8325Z" fill="#FB7C26"/>
<path d="M54.3171 78.8004C54.2601 78.8004 54.2032 78.8004 54.0893 78.8004C39.3399 75.4411 32.3353 71.6833 32.0506 71.5694C31.7658 71.3986 31.5381 71.057 31.5381 70.7154C31.5381 70.3737 31.7089 70.0321 32.0506 69.8613C32.5061 69.6336 42.9846 64.1106 57.2215 65.8187C57.5631 65.8757 57.7908 66.0465 57.9617 66.3312C58.1325 66.6159 58.0756 66.9575 57.9617 67.2422C56.0824 70.5445 55.5128 75.3841 55.285 77.9463C55.285 78.231 55.1143 78.4587 54.8866 78.6295C54.7727 78.7434 54.5449 78.8004 54.3171 78.8004ZM34.7839 70.7154C37.6313 71.968 43.7818 74.4162 53.4629 76.6937C53.7476 73.9038 54.3739 70.4307 55.6268 67.5838C46.0026 66.7298 38.2008 69.2919 34.7839 70.7154Z" fill="#141414"/>
<path d="M99.1902 136.876C99.1902 136.876 97.7667 146.954 86.5481 144.79C81.0811 143.765 76.8668 138.186 78.0627 132.89C78.803 132.663 79.3726 132.378 79.9421 132.093C84.7826 136.193 92.4704 138.129 99.1902 136.876Z" fill="#F3EAD4"/>
<path d="M89.51 146.043C88.5419 146.043 87.4599 145.929 86.3779 145.701C83.3028 145.132 80.4554 143.196 78.69 140.463C77.0955 138.015 76.5262 135.225 77.1526 132.606C77.2096 132.264 77.4371 132.037 77.7788 131.923C78.4052 131.695 78.9748 131.467 79.5442 131.183C79.8859 131.012 80.2845 131.069 80.6262 131.296C85.2389 135.225 92.6423 137.104 99.0204 135.908C99.3051 135.851 99.5898 135.908 99.8176 136.136C100.045 136.307 100.159 136.592 100.159 136.876C100.159 136.933 99.6467 141.033 96.3437 143.766C94.4645 145.246 92.1866 146.043 89.51 146.043ZM78.9178 133.574C78.633 135.51 79.0888 137.616 80.2847 139.438C81.7653 141.716 84.157 143.367 86.7197 143.823C89.9657 144.449 92.6422 144.05 94.6353 142.627C96.5146 141.317 97.4258 139.325 97.8814 138.015C91.5033 138.755 84.4987 136.933 79.829 133.175C79.5442 133.346 79.2594 133.46 78.9178 133.574Z" fill="#141414"/>
<path d="M101.355 140.064C101.184 140.064 100.956 140.007 100.842 139.894C100.728 139.837 98.6218 138.356 97.8247 135.168C97.7108 134.655 97.9956 134.143 98.5081 134.029C99.0205 133.915 99.5329 134.2 99.6468 134.712C100.273 137.161 101.867 138.299 101.867 138.299C102.323 138.584 102.437 139.21 102.095 139.609C101.981 139.894 101.697 140.064 101.355 140.064Z" fill="#141414"/>
<path d="M74.8179 134.655C74.3624 134.655 73.9637 134.314 73.9067 133.858C73.7928 133.346 74.1344 132.833 74.6469 132.72C77.836 132.15 80.0002 131.125 81.0822 129.702C81.4238 129.303 81.9933 129.19 82.4488 129.531C82.8475 129.873 82.9613 130.442 82.6196 130.898C81.2528 132.72 78.7472 133.972 74.9887 134.655C74.9317 134.655 74.8749 134.655 74.8179 134.655Z" fill="#141414"/>
<path d="M55.057 135.737L57.9038 145.473L53.4629 149.914L53.6336 135.623L55.057 135.737Z" fill="#141414"/>
<path d="M58.9868 136.819C47.9959 134.656 31.4242 132.834 21.7432 144.79C10.9231 158.17 22.1987 175.479 32.5062 183.166C34.7271 190.966 39.1691 195.635 43.7249 198.994C50.16 203.72 60.2967 209.3 65.1372 202.923C67.586 199.677 65.8775 197.343 63.6566 194.952C67.0734 195.407 70.4902 195.179 71.8569 191.649C73.1667 188.119 71.7432 184.76 68.8958 183.45C73.2238 185.443 83.5311 185.557 83.4742 176.618C83.4742 168.362 69.1803 166.255 59.2715 168.419C56.1963 169.102 54.2601 168.248 54.7157 165.8C55.6838 160.334 57.7339 152.534 50.7294 151.281C41.5039 149.63 38.8276 163.579 38.4289 170.526C27.6089 166.369 25.2741 153.729 31.3105 148.434C40.3082 140.577 52.6657 144.221 57.6771 144.619" fill="#6FA467"/>
<path d="M59.1009 206.737C53.6909 206.737 47.2558 202.809 43.0986 199.734C37.233 195.407 33.5314 190.283 31.6521 183.735C25.4449 179.009 17.8139 170.013 16.561 159.821C15.8207 154.014 17.3015 148.719 21.0031 144.164C30.855 131.979 47.4837 133.574 59.1579 135.908C59.6705 136.022 60.012 136.534 59.8981 137.047C59.7842 137.559 59.2717 137.901 58.7592 137.787C47.5975 135.623 31.6524 134.029 22.4838 145.416C19.1239 149.516 17.8141 154.299 18.4405 159.594C19.5794 168.704 26.584 177.586 33.0191 182.368C33.1899 182.482 33.3036 182.653 33.3606 182.881C35.1259 189.144 38.5997 194.04 44.1806 198.197C48.6794 201.499 59.5565 208.502 64.2262 202.296C66.0485 199.848 65.3082 198.254 62.8025 195.578C62.5178 195.293 62.4607 194.838 62.6885 194.496C62.8594 194.154 63.2581 193.927 63.6567 193.984C67.7569 194.496 69.921 193.699 70.8322 191.307C71.9142 188.404 70.8892 185.443 68.3265 184.304C67.871 184.077 67.643 183.507 67.8708 183.052C68.0986 182.596 68.6682 182.368 69.1237 182.596C71.5155 183.678 76.47 184.304 79.659 182.255C81.4813 181.059 82.3924 179.18 82.3924 176.675C82.3924 174.853 81.5953 173.315 80.0008 172.063C75.445 168.419 65.9346 167.963 59.3287 169.387C57.1077 169.842 55.3992 169.615 54.4311 168.647C53.9186 168.134 53.3492 167.223 53.6339 165.629C53.6909 165.23 53.8047 164.832 53.8616 164.376C54.545 160.846 55.3424 156.462 53.6909 154.071C53.0075 153.103 51.9257 152.477 50.3881 152.192C48.4519 151.85 46.8002 152.249 45.3195 153.388C41.3901 156.462 39.6249 164.262 39.2263 170.526C39.2263 170.81 39.0553 171.095 38.7706 171.266C38.4858 171.437 38.2011 171.437 37.9164 171.38C32.1647 169.159 28.1214 164.433 27.1533 158.74C26.3561 154.356 27.6089 150.199 30.5132 147.694C38.3719 140.861 48.5658 142.399 54.6591 143.31C55.7981 143.481 56.823 143.651 57.6202 143.708C58.1328 143.765 58.5314 144.221 58.4745 144.733C58.4175 145.246 57.962 145.644 57.4495 145.587C56.5953 145.53 55.5703 145.359 54.3744 145.189C48.6227 144.335 38.9415 142.854 31.7661 149.174C29.3743 151.224 28.3494 154.697 29.0328 158.455C29.83 163.124 32.962 166.995 37.4039 169.159C37.7456 165.23 39.1694 155.836 44.1238 151.964C46.0601 150.484 48.2808 149.914 50.7295 150.37C52.7796 150.712 54.2605 151.623 55.2286 153.046C57.3357 156.121 56.4244 160.903 55.6841 164.832C55.6271 165.23 55.5133 165.629 55.4563 166.028C55.3425 166.654 55.3993 167.052 55.6841 167.337C56.1966 167.793 57.3356 167.906 58.8732 167.565C66.1055 165.971 76.0714 166.54 81.1397 170.582C83.1898 172.234 84.2149 174.283 84.2718 176.675C84.2718 179.863 83.0188 182.368 80.684 183.906C78.2352 185.5 74.9323 185.785 72.1989 185.386C73.2809 187.265 73.5088 189.656 72.5976 192.048C71.3447 195.407 68.4404 196.147 65.7069 196.147C67.0736 198.026 68.0417 200.531 65.7069 203.549C64.0554 205.826 61.7205 206.737 59.1009 206.737Z" fill="#141414"/>
<path d="M62.8584 181.173C64.8516 182.255 66.9585 182.824 68.9516 183.394L62.8584 181.173Z" fill="#6FA467"/>
<path d="M68.9522 184.362C68.8383 184.362 68.7814 184.362 68.6675 184.305L68.326 184.191C66.3898 183.621 64.3964 183.052 62.4033 181.97C61.9477 181.742 61.777 181.116 62.0048 180.661C62.2326 180.205 62.8589 180.034 63.3145 180.262C65.1368 181.23 67.0162 181.799 68.8385 182.312L69.1802 182.426C69.6928 182.596 69.9773 183.109 69.8634 183.621C69.7495 184.077 69.4078 184.362 68.9522 184.362Z" fill="#141414"/>
<path d="M57.791 192.503C59.8411 193.813 62.062 194.838 64.5107 194.951L57.791 192.503Z" fill="#6FA467"/>
<path d="M64.5113 195.919C62.1195 195.806 59.8415 194.952 57.2788 193.3C56.8233 193.016 56.7094 192.446 56.9941 191.991C57.2788 191.535 57.8485 191.422 58.3041 191.706C60.582 193.187 62.5751 193.927 64.5683 194.041C65.0808 194.098 65.4795 194.496 65.4795 195.065C65.4226 195.578 65.0238 195.919 64.5113 195.919Z" fill="#141414"/>
<path d="M19.5223 154.64C15.1373 150.711 10.2967 146.099 7.79102 143.31C14.0552 144.05 19.1807 144.733 24.4768 145.473" fill="#6FA467"/>
<path d="M19.5223 155.608C19.2945 155.608 19.0667 155.551 18.8958 155.38C14.2261 151.224 9.49967 146.612 7.10788 143.993C6.82314 143.708 6.76602 143.253 6.93687 142.911C7.10771 142.57 7.50645 142.342 7.90508 142.399C14.0554 143.139 19.1806 143.765 24.5906 144.619C25.1031 144.676 25.4447 145.189 25.3878 145.701C25.3309 146.214 24.8184 146.612 24.3059 146.498C19.6931 145.815 15.3081 145.246 10.2967 144.619C12.8593 147.238 16.5042 150.712 20.1488 153.957C20.5474 154.299 20.5475 154.925 20.2058 155.324C20.035 155.494 19.8071 155.608 19.5223 155.608Z" fill="#141414"/>
<path d="M182.563 85.9748C182.449 85.9748 182.336 85.9179 182.222 85.8609C181.994 85.6901 181.994 85.3485 182.165 85.1207C182.449 84.836 188.885 77.7759 198.964 78.4591C199.249 78.4591 199.477 78.7438 199.42 79.0285C199.42 79.3132 199.135 79.5409 198.85 79.484C189.283 78.8007 182.962 85.6901 182.905 85.804C182.848 85.9179 182.734 85.9748 182.563 85.9748Z" fill="#141414"/>
<path d="M182.621 80.0531C182.507 80.0531 182.393 79.9962 182.279 79.9392C182.051 79.7684 182.052 79.4268 182.222 79.199C182.393 78.9713 186.778 74.1886 193.669 74.6441C193.953 74.6441 194.181 74.9288 194.124 75.2135C194.124 75.4981 193.84 75.7259 193.555 75.669C187.177 75.2135 182.963 79.8254 182.963 79.8823C182.906 79.9962 182.735 80.0531 182.621 80.0531Z" fill="#141414"/>
<path d="M207.108 146.555C206.937 146.555 206.766 146.555 206.595 146.555C206.311 146.555 206.083 146.328 206.083 146.043C206.083 145.758 206.311 145.531 206.595 145.531C217.074 145.815 221.573 137.503 221.63 137.389C221.743 137.161 222.085 137.047 222.313 137.161C222.541 137.275 222.655 137.616 222.541 137.844C222.484 138.015 217.871 146.555 207.108 146.555Z" fill="#141414"/>
<path d="M212.233 150.427C212.005 150.427 211.778 150.256 211.721 149.971C211.664 149.687 211.891 149.402 212.176 149.402C219.807 148.263 221.857 143.993 221.914 143.936C222.028 143.652 222.313 143.538 222.598 143.708C222.882 143.822 222.996 144.107 222.882 144.392C222.769 144.562 220.605 149.231 212.347 150.427C212.29 150.427 212.233 150.427 212.233 150.427Z" fill="#141414"/>
<path d="M76.6404 120.592C85.7298 120.592 93.0984 113.225 93.0984 104.137C93.0984 95.0497 85.7298 87.6826 76.6404 87.6826C67.551 87.6826 60.1826 95.0497 60.1826 104.137C60.1826 113.225 67.551 120.592 76.6404 120.592Z" fill="#F3EAD4"/>
<path d="M76.6408 121.56C76.413 121.56 76.1283 121.56 75.9005 121.56C71.2878 121.389 66.9597 119.396 63.8276 115.923C60.6955 112.507 59.044 108.066 59.2718 103.454C59.6704 93.8887 67.8141 86.4299 77.3812 86.8285C86.9484 87.227 94.4084 95.369 94.0097 104.934C93.6111 114.215 85.9232 121.56 76.6408 121.56ZM76.6408 88.6505C68.3834 88.6505 61.5499 95.1413 61.2082 103.454C61.0374 107.61 62.4608 111.539 65.2513 114.557C68.0417 117.574 71.8574 119.396 76.0146 119.567C84.5567 119.909 91.7889 113.304 92.1306 104.764C92.4723 96.2231 85.8664 88.9921 77.3242 88.6505C77.0964 88.7074 76.8685 88.6505 76.6408 88.6505Z" fill="#141414"/>
<path d="M110.695 119.339C119.784 119.339 127.153 111.972 127.153 102.885C127.153 93.797 119.784 86.4299 110.695 86.4299C101.606 86.4299 94.2373 93.797 94.2373 102.885C94.2373 111.972 101.606 119.339 110.695 119.339Z" fill="#F3EAD4"/>
<path d="M110.752 120.25C110.525 120.25 110.24 120.25 110.012 120.25C100.445 119.852 92.9848 111.71 93.3834 102.144C93.7821 92.5791 101.925 85.1204 111.493 85.5189C121.06 85.9175 128.52 94.0594 128.121 103.625C127.723 112.905 119.978 120.25 110.752 120.25ZM110.695 87.3978C102.438 87.3978 95.6043 93.8886 95.2626 102.201C94.9209 110.742 101.527 117.973 110.069 118.314C118.554 118.656 125.843 112.051 126.185 103.511C126.527 94.9704 119.921 87.7394 111.379 87.3978C111.151 87.3978 110.923 87.3978 110.695 87.3978Z" fill="#141414"/>
<path d="M74.3627 115.126C69.4652 114.842 65.536 111.311 64.5109 106.813C64.454 106.586 64.6249 106.358 64.9096 106.358L73.167 106.813C74.4768 107.098 75.7296 106.244 75.9574 104.935C76.2421 103.625 75.3878 102.372 74.078 102.145L65.7069 100.038C65.4791 99.981 65.3652 99.6963 65.4791 99.5255C67.4153 95.8246 71.4585 93.4333 75.9004 93.8318C81.9368 94.4012 86.3218 99.8102 85.5815 105.845C84.8981 111.368 79.9436 115.468 74.3627 115.126Z" fill="#141414"/>
<path d="M108.872 113.532C103.975 113.247 100.046 109.717 99.0207 105.219C98.9637 104.991 99.1344 104.764 99.4192 104.764L107.677 105.219C108.986 105.504 110.239 104.65 110.467 103.34C110.752 102.031 109.898 100.778 108.588 100.55L100.217 98.4437C99.9888 98.3868 99.8747 98.1021 99.9886 97.9313C101.925 94.2304 105.968 91.839 110.41 92.2376C116.447 92.807 120.832 98.2159 120.091 104.251C119.351 109.774 114.396 113.874 108.872 113.532Z" fill="#141414"/>
<path d="M77.9497 94.4579C70.8882 93.6608 66.0477 93.0915 64.624 92.9206C67.5853 89.1059 72.6535 86.8284 79.3164 87.8533C85.2958 88.8212 89.1113 92.522 90.9336 95.9952C89.1113 95.6536 82.5624 94.9703 77.9497 94.4579Z" fill="#FC9B59"/>
<path d="M90.934 96.9631C90.8771 96.9631 90.8202 96.9631 90.7633 96.9631C89.4535 96.7354 85.638 96.2798 81.9364 95.8813C80.5127 95.7105 79.0889 95.5396 77.8361 95.4258C75.2165 95.1411 72.9386 94.8565 71.0024 94.6287C67.6425 94.2301 65.4216 94.0024 64.5104 93.8316C64.1688 93.7746 63.8841 93.5469 63.7702 93.2622C63.6563 92.9206 63.7131 92.5789 63.884 92.2942C67.3578 87.8532 73.0525 85.8604 79.4875 86.8852C84.8406 87.7393 89.4534 90.9847 91.7882 95.5397C91.9591 95.8813 91.9021 96.2798 91.7312 96.5645C91.5034 96.8492 91.2188 96.9631 90.934 96.9631ZM66.5606 92.1804C67.6996 92.2943 69.2939 92.522 71.2301 92.6928C73.1664 92.9206 75.4443 93.1483 78.0638 93.49C79.3167 93.6608 80.7405 93.7746 82.1642 93.9454C84.6699 94.2301 87.2325 94.5148 89.0549 94.7425C87.4603 92.579 84.4422 89.6182 79.1461 88.7642C74.1347 88.024 69.6358 89.2197 66.5606 92.1804Z" fill="#141414"/>
<path d="M109.442 93.2056C102.437 94.2304 97.5965 94.9706 96.1729 95.1984C98.0521 90.7573 102.323 87.2272 109.043 86.487C115.079 85.8607 119.749 88.4229 122.369 91.3266C120.546 91.4974 113.997 92.5223 109.442 93.2056Z" fill="#FC9B59"/>
<path d="M96.1732 96.1661C95.8885 96.1661 95.6036 96.0523 95.4327 95.7676C95.205 95.4829 95.2051 95.1413 95.319 94.7996C97.54 89.5614 102.494 86.2022 108.929 85.519C114.339 84.9496 119.635 86.8855 123.052 90.6433C123.28 90.928 123.394 91.2696 123.223 91.6112C123.109 91.9528 122.768 92.1805 122.426 92.2375C121.116 92.3513 117.301 92.9208 113.656 93.4901C112.232 93.7179 110.809 93.9456 109.556 94.1164C106.993 94.515 104.658 94.8566 102.779 95.1412C99.4193 95.6537 97.1981 95.9953 96.287 96.1092C96.23 96.1661 96.2302 96.1661 96.1732 96.1661ZM110.809 87.3409C110.239 87.3409 109.727 87.3978 109.157 87.4548C104.089 87.9672 100.103 90.3585 97.8817 94.0025C99.0206 93.8317 100.558 93.604 102.494 93.3193C104.431 93.0346 106.709 92.693 109.271 92.2944C110.524 92.1236 111.948 91.8959 113.371 91.6681C115.877 91.2696 118.383 90.871 120.205 90.6433C117.642 88.5366 114.282 87.3409 110.809 87.3409Z" fill="#141414"/>
</svg>
