<svg width="167" height="168" viewBox="0 0 167 168" fill="none" xmlns="http://www.w3.org/2000/svg">
<path d="M89.7881 20.3149C84.3196 19.7423 78.7942 19.9713 73.3826 20.8303L73.1551 20.8876C67.7435 21.8038 62.3888 23.4072 57.376 25.6978L49.5718 8.40386C56.1226 5.4261 63.072 3.36456 70.1356 2.162L70.4204 2.10475C77.4269 0.959454 84.5479 0.730353 91.6684 1.41753L89.7881 20.3149Z" fill="#FC9B59"/>
<path d="M57.376 26.6138C56.9773 26.6138 56.6352 26.3847 56.4643 26.0411L48.6606 8.7471C48.5467 8.51805 48.5467 8.23183 48.6606 8.00278C48.7746 7.77372 48.9451 7.54466 49.173 7.43013C55.7808 4.45237 62.7874 2.3335 69.9648 1.13094L70.2497 1.07369C77.3702 -0.0716 84.6047 -0.300631 91.7252 0.386545C92.2948 0.44381 92.6934 0.901872 92.6364 1.47452L90.814 20.3719C90.814 20.6582 90.6428 20.8872 90.4719 21.059C90.244 21.2308 90.0163 21.2882 89.7315 21.2882C84.3768 20.7728 78.965 20.9445 73.5535 21.8035L73.3827 21.8608C68.0281 22.777 62.7875 24.3232 57.8316 26.5565C57.6038 26.6137 57.4899 26.6138 57.376 26.6138ZM50.8819 8.86175L57.8884 24.3232C62.7303 22.2044 67.8004 20.7155 73.0411 19.8565L73.2686 19.7992C78.4524 18.9402 83.75 18.7685 88.9337 19.1694L90.5292 2.27624C83.8644 1.70359 77.1423 1.98994 70.5345 3.02071L70.307 3.07796C63.5852 4.22325 57.034 6.17031 50.8819 8.86175Z" fill="#141414"/>
<path d="M131.599 16.535L120.606 31.9391C111.15 25.1246 100.497 21.288 89.731 20.2572L91.5539 1.35986C105.567 2.79148 119.352 7.71624 131.599 16.535Z" fill="#FC9B59"/>
<path d="M120.604 32.9693C120.376 32.9693 120.205 32.912 120.034 32.7975C111.091 26.3266 100.553 22.3754 89.6725 21.2873C89.1029 21.2301 88.7038 20.7719 88.7608 20.1992L90.5837 1.30196C90.5837 1.01564 90.7544 0.786539 90.9253 0.614745C91.1532 0.442951 91.3815 0.385742 91.6663 0.385742C106.249 1.81736 120.262 7.08574 132.224 15.7327C132.452 15.9045 132.566 16.1335 132.623 16.3625C132.68 16.6489 132.623 16.8779 132.452 17.107L121.458 32.5111C121.23 32.8547 120.946 32.9693 120.604 32.9693ZM90.8686 19.3976C101.464 20.6001 111.604 24.4369 120.433 30.5642L130.288 16.7634C119.066 8.86083 106.021 3.93614 92.5207 2.44726L90.8686 19.3976Z" fill="#141414"/>
<path d="M158.599 49.4041L141.452 57.3066C137.009 47.5144 130.002 38.6957 120.66 31.9957L131.654 16.5916C143.73 25.2958 152.788 36.6913 158.599 49.4041Z" fill="#FC9B59"/>
<path d="M141.395 58.2798C140.996 58.2798 140.654 58.0508 140.483 57.7072C135.983 47.8004 128.863 39.1534 120.033 32.7971C119.577 32.4535 119.463 31.8236 119.805 31.4228L130.799 16.0186C130.97 15.7896 131.198 15.6749 131.426 15.6177C131.711 15.5604 131.939 15.6177 132.166 15.7895C144.015 24.3219 153.414 35.8322 159.452 49.0603C159.566 49.2894 159.566 49.5757 159.452 49.8048C159.338 50.0338 159.167 50.2629 158.939 50.3774L141.794 58.2798C141.68 58.2798 141.566 58.2798 141.395 58.2798ZM122.027 31.7664C130.515 38.1228 137.407 46.4261 141.907 55.9893L157.287 48.9458C151.534 36.6912 142.762 26.0399 131.882 17.9656L122.027 31.7664Z" fill="#141414"/>
<path d="M165.721 91.78L146.923 89.9475C147.435 84.4501 147.207 78.9528 146.353 73.5699C145.442 67.958 143.789 62.4606 141.397 57.2495L158.543 49.3469C161.619 56.1042 163.784 63.205 164.923 70.4204C166.119 77.5212 166.404 84.6791 165.721 91.78Z" fill="#FC9B59"/>
<path d="M165.721 92.7536C165.664 92.7536 165.664 92.7536 165.607 92.7536L146.809 90.921C146.24 90.8637 145.841 90.4057 145.898 89.833C146.41 84.4502 146.182 79.0672 145.328 73.7416C144.416 68.1869 142.765 62.8041 140.429 57.7075C140.315 57.4784 140.315 57.1922 140.429 56.9632C140.543 56.7341 140.714 56.5051 140.942 56.3905L158.088 48.488C158.601 48.2589 159.17 48.4879 159.398 49.0033C162.474 55.7605 164.696 62.9759 165.892 70.363C167.031 77.4639 167.316 84.7365 166.633 91.8946C166.633 92.1809 166.462 92.41 166.291 92.5818C166.177 92.6963 165.949 92.7536 165.721 92.7536ZM148.005 89.0314L164.81 90.6347C165.322 83.992 165.038 77.2348 163.955 70.6494C162.816 63.7776 160.823 57.0776 158.031 50.7212L142.651 57.7648C144.816 62.7468 146.41 68.0152 147.265 73.3981C148.176 78.6092 148.404 83.8776 148.005 89.0314Z" fill="#141414"/>
<path d="M150.739 132.152L135.417 121.1C142.138 111.536 145.955 100.828 146.923 89.9475L165.721 91.78C164.411 105.867 159.512 119.84 150.739 132.152Z" fill="#FC9B59"/>
<path d="M150.74 133.182C150.512 133.182 150.342 133.125 150.171 133.01L134.848 121.958C134.392 121.615 134.278 121.042 134.62 120.584C141.056 111.536 144.93 100.885 145.956 89.8902C145.956 89.6038 146.126 89.3747 146.297 89.2029C146.525 89.0311 146.753 88.9739 147.038 88.9739L165.836 90.8063C166.405 90.8636 166.804 91.3218 166.747 91.8944C165.38 106.554 160.139 120.699 151.595 132.781C151.424 133.01 151.196 133.125 150.968 133.182C150.854 133.182 150.797 133.182 150.74 133.182ZM136.841 120.87L150.569 130.777C158.374 119.439 163.272 106.325 164.696 92.6388L147.892 91.0355C146.696 101.687 142.88 111.994 136.841 120.87Z" fill="#141414"/>
<path d="M150.739 132.152L150.625 132.324C141.91 144.521 130.574 153.626 117.871 159.467L110.067 142.23C119.808 137.764 128.58 130.72 135.302 121.329L135.416 121.157L150.739 132.152Z" fill="#FC9B59"/>
<path d="M117.871 160.498C117.757 160.498 117.643 160.498 117.529 160.441C117.301 160.327 117.073 160.155 116.959 159.926L109.155 142.689C108.927 142.174 109.155 141.601 109.668 141.372C119.523 136.848 128.124 129.69 134.504 120.757L134.618 120.585C134.789 120.356 135.017 120.241 135.245 120.184C135.53 120.127 135.758 120.184 135.986 120.356L151.309 131.408C151.536 131.58 151.65 131.809 151.707 132.038C151.764 132.267 151.708 132.553 151.537 132.782L151.423 132.954C142.935 144.865 131.485 154.371 118.269 160.384C118.155 160.498 118.042 160.498 117.871 160.498ZM111.377 142.746L118.383 158.208C130.631 152.424 141.34 143.491 149.372 132.439L135.643 122.532C129.32 131.179 120.947 138.108 111.377 142.746Z" fill="#141414"/>
<path d="M117.87 159.525C111.205 162.617 104.141 164.736 96.9638 165.939C89.9572 167.084 82.8368 167.37 75.7163 166.683L77.5387 147.786C83.0073 148.301 88.5329 148.129 93.8875 147.213C99.47 146.297 104.882 144.636 110.065 142.231L117.87 159.525Z" fill="#FC9B59"/>
<path d="M83.4639 168C80.8436 168 78.2231 167.885 75.6597 167.656C75.3749 167.656 75.1469 167.485 74.9761 167.313C74.8052 167.084 74.7485 166.855 74.7485 166.568L76.5715 147.671C76.6285 147.098 77.0838 146.698 77.6535 146.755C83.0081 147.27 88.4196 147.098 93.7742 146.182C99.2997 145.266 104.654 143.605 109.724 141.315C109.952 141.2 110.237 141.2 110.465 141.315C110.693 141.429 110.921 141.601 111.035 141.83L118.838 159.067C119.066 159.582 118.839 160.155 118.326 160.384C111.604 163.476 104.484 165.652 97.1353 166.855C92.5782 167.656 88.021 168 83.4639 168ZM76.799 165.767C83.4638 166.339 90.1859 166.053 96.7937 164.965C103.629 163.82 110.237 161.815 116.56 159.067L109.553 143.605C104.597 145.781 99.3569 147.328 94.0023 148.244C88.8185 149.103 83.5778 149.332 78.3372 148.931L76.799 165.767Z" fill="#141414"/>
<path d="M75.716 166.683C61.6459 165.366 47.7466 160.384 35.4424 151.508L46.4363 136.103C55.9493 142.975 66.6583 146.812 77.5384 147.843L75.716 166.683Z" fill="#FC9B59"/>
<path d="M75.7156 167.656C75.6587 167.656 75.6586 167.656 75.6016 167.656C60.9618 166.281 46.8344 160.956 34.815 152.309C34.3593 151.965 34.2457 151.335 34.5875 150.935L45.5815 135.53C45.9232 135.072 46.4931 134.958 46.9488 135.301C56.0061 141.829 66.5443 145.781 77.5953 146.812C77.8801 146.812 78.1081 146.983 78.279 147.155C78.4499 147.384 78.5065 147.613 78.5065 147.9L76.6836 166.797C76.6266 167.255 76.2283 167.656 75.7156 167.656ZM36.8088 151.221C48.0876 159.123 61.1895 164.105 74.8039 165.537L76.3988 148.644C65.7465 147.499 55.4931 143.605 46.6067 137.42L36.8088 151.221Z" fill="#141414"/>
<path d="M46.4386 136.046L35.4446 151.45C23.2543 142.689 14.197 131.179 8.38672 118.409L25.5327 110.506C29.9759 120.413 37.0395 129.289 46.4386 136.046Z" fill="#FC9B59"/>
<path d="M35.4447 152.48C35.2168 152.48 35.0459 152.423 34.875 152.309C22.9695 143.719 13.5132 132.151 7.475 118.866C7.24715 118.351 7.47523 117.778 7.9879 117.549L25.1338 109.646C25.3617 109.532 25.647 109.532 25.8748 109.646C26.1027 109.761 26.3305 109.933 26.4445 110.162C30.9446 120.183 38.0649 128.83 47.0082 135.301C47.2361 135.473 47.3501 135.702 47.4071 135.931C47.4641 136.217 47.4072 136.446 47.2363 136.675L36.2418 152.079C36.014 152.309 35.7295 152.48 35.4447 152.48ZM9.69682 118.923C15.4502 131.235 24.2225 142.001 35.2166 150.075L45.0712 136.275C36.5266 129.918 29.6342 121.5 25.0771 111.822L9.69682 118.923Z" fill="#141414"/>
<path d="M25.529 110.564L8.38303 118.466C5.36394 111.766 3.25593 104.78 2.05969 97.5646C2.00273 97.1637 1.94587 96.7628 1.88891 96.362C0.863557 89.6047 0.692999 82.7331 1.37657 75.8613L20.1747 77.6938C19.662 82.9621 19.7755 88.2877 20.573 93.5561C20.63 93.8424 20.6301 94.186 20.687 94.4723C21.5985 99.9698 23.1934 105.41 25.529 110.564Z" fill="#FC9B59"/>
<path d="M8.38522 119.439C8.27129 119.439 8.15703 119.439 8.0431 119.382C7.81524 119.268 7.58739 119.096 7.47346 118.867C4.45437 112.167 2.29018 105.009 1.09394 97.736C1.03697 97.3352 0.979564 96.9343 0.922601 96.4762C-0.102751 89.6617 -0.27331 82.6753 0.410258 75.7463C0.467222 75.1737 0.922601 74.7729 1.49224 74.8301L20.2904 76.6626C20.5752 76.6626 20.8031 76.8344 20.974 77.0062C21.1449 77.2353 21.2021 77.4642 21.2021 77.7506C20.6894 82.9044 20.8035 88.1728 21.601 93.3267C21.6579 93.613 21.6575 93.9565 21.7145 94.2428C22.6259 99.7402 24.2211 105.066 26.4997 110.105C26.7275 110.62 26.4994 111.193 25.9868 111.422L8.84082 119.325C8.66993 119.382 8.49915 119.439 8.38522 119.439ZM2.23322 76.9489C1.66358 83.3626 1.89121 89.8335 2.8596 96.1899C2.91656 96.5907 2.97342 96.9915 3.03038 97.3924C4.16966 104.207 6.10655 110.85 8.84082 117.091L24.2211 110.048C22.1134 105.123 20.5754 99.9121 19.664 94.5865C19.607 94.2429 19.5499 93.9566 19.5499 93.613C18.8094 88.631 18.6388 83.5344 19.0376 78.5524L2.23322 76.9489Z" fill="#141414"/>
<path d="M20.1218 77.6938L1.32373 75.8613C2.69087 61.8315 7.64696 47.9733 16.3624 35.6614L16.4765 35.4897L31.7995 46.5417L31.6854 46.7135C25.0206 56.1622 21.2042 66.8708 20.1218 77.6938Z" fill="#FC9B59"/>
<path d="M20.1212 78.6673C20.0642 78.6673 20.0641 78.6673 20.0072 78.6673L1.20905 76.8349C0.924233 76.8349 0.696822 76.663 0.52593 76.4912C0.355038 76.3194 0.297852 76.0331 0.297852 75.7468C1.72195 61.1443 6.96253 47.0572 15.5641 35.0889L15.6781 34.9172C16.0199 34.4591 16.6467 34.3444 17.0455 34.688L32.3685 45.7401C32.8242 46.0837 32.9383 46.6563 32.5965 47.1144L32.4825 47.2863C26.0456 56.2768 22.1153 66.8135 21.033 77.751C21.0899 78.2664 20.6339 78.6673 20.1212 78.6673ZM2.46237 74.9451L19.2668 76.5486C20.463 65.8401 24.3364 55.5896 30.5455 46.7136L16.8174 36.8068C8.89942 48.2025 3.94344 61.3161 2.46237 74.9451Z" fill="#141414"/>
<path d="M57.3725 25.6404C47.8025 29.9925 39.1441 36.7498 32.4224 45.7977C32.2515 46.0267 32.0804 46.2557 31.9095 46.542L16.5859 35.49C16.8138 35.1464 17.0421 34.8027 17.3269 34.5164C25.9854 22.7772 37.1502 14.0157 49.5683 8.40381L57.3725 25.6404Z" fill="#FC9B59"/>
<path d="M31.9108 47.5153C31.683 47.5153 31.5121 47.458 31.3412 47.3435L15.9609 36.2914C15.5052 35.9478 15.391 35.3752 15.7328 34.9171C15.9607 34.5735 16.246 34.2299 16.4738 33.8863C24.9614 22.4333 36.2402 13.2709 49.1141 7.48721C49.6267 7.25815 50.1963 7.4873 50.4241 8.00268L58.2283 25.2966C58.3422 25.5256 58.3422 25.812 58.2283 26.041C58.1144 26.2701 57.9433 26.4992 57.7154 26.6137C48.0315 30.9658 39.5441 37.8375 33.1641 46.4845C32.9933 46.7136 32.8221 46.9426 32.6513 47.1717C32.4804 47.4007 32.1957 47.5153 31.9108 47.5153ZM17.9547 35.2606L31.6828 45.1674C38.0627 36.5777 46.4369 29.706 56.0638 25.1821L49.0568 9.72062C36.8665 15.4471 26.1576 24.2085 18.0687 35.0888C18.0117 35.146 18.0116 35.2033 17.9547 35.2606Z" fill="#141414"/>
<path d="M135.416 121.157L135.302 121.329C128.58 130.72 119.865 137.764 110.067 142.231C104.883 144.578 99.4712 146.239 93.8887 147.213C88.4772 148.129 83.0085 148.301 77.54 147.785C66.6598 146.755 55.9508 142.918 46.4378 136.046C37.0388 129.289 30.0321 120.413 25.5319 110.506C23.1964 105.352 21.6014 99.9693 20.69 94.4146C20.633 94.1283 20.576 93.7847 20.576 93.4984C19.7785 88.2873 19.665 82.9617 20.1777 77.6361C21.203 66.813 25.0193 56.1619 31.798 46.656L31.912 46.4841C32.0829 46.2551 32.254 46.026 32.4249 45.7397C39.1467 36.6919 47.7481 29.8774 57.375 25.5825C62.4448 23.292 67.7426 21.6885 73.1542 20.7722L73.3817 20.715C78.7933 19.8561 84.3187 19.6269 89.7872 20.1996C100.553 21.2303 111.206 25.0672 120.662 31.8817C130.004 38.5816 137.01 47.4004 141.454 57.1926C143.846 62.4037 145.498 67.9011 146.41 73.513C147.321 78.8959 147.492 84.3934 146.979 89.8908C145.954 100.828 142.194 111.594 135.416 121.157Z" fill="#F3EAD4"/>
<mask id="mask0_1077_182" style="mask-type:alpha" maskUnits="userSpaceOnUse" x="19" y="1" width="142" height="148">
<path d="M135.416 121.157L135.302 121.329C128.58 130.721 119.865 137.764 110.067 142.231C104.883 144.579 99.4712 146.239 93.8887 147.213C88.4771 148.129 83.0085 148.301 77.54 147.785C66.6598 146.755 55.9508 142.918 46.4378 136.046C37.0388 129.289 30.0321 120.413 25.5319 110.506C23.1964 105.352 21.6014 99.9694 20.69 94.4147C20.633 94.1284 20.576 93.7847 20.576 93.4984C19.7785 88.2873 19.665 82.9617 20.1777 77.6361C21.203 66.8131 25.0193 56.162 31.798 46.656L31.912 46.4842C20.5761 42.3055 20.6898 34.8385 26.6667 34.8385C33.3885 25.7907 34.908 17.728 44.5349 13.4332C49.6047 11.1426 56.4952 9.8692 61.9068 8.95297L69.8482 5.96623C75.2598 5.10726 83.7369 0.546499 89.2054 1.11915C99.9716 2.14991 111.206 25.0672 120.662 31.8817C130.004 38.5817 150.279 42.4691 154.722 52.2614C157.115 57.4725 159.522 72.0242 160.433 77.6361C161.345 83.019 160.946 100.529 160.433 106.026C159.408 116.964 142.194 111.594 135.416 121.157Z" fill="#F3EAD4"/>
</mask>
<g mask="url(#mask0_1077_182)">
<path d="M109.506 199.114C107.378 199.114 105.396 198.598 103.781 197.564C95.2654 192.362 95.4487 182.621 95.5589 176.791C95.5956 175.647 95.5957 174.098 95.5223 173.507C94.0908 170.26 85.5021 151.848 81.2077 142.734C80.9141 142.734 80.5838 142.734 80.2901 142.734C79.1156 142.734 77.9411 142.698 76.8032 142.587C76.7665 142.587 76.7665 142.587 76.7298 142.587C79.556 154.505 79.4458 158.453 78.8585 160.667C78.5649 161.811 77.9776 163.176 76.4728 164.984C79.3724 166.201 81.9784 168.046 84.2174 170.445C89.6862 176.274 90.6039 181.625 91.0811 184.503C91.1545 184.945 91.2279 185.314 91.2646 185.536C92.0721 189.004 90.8241 191.329 89.9799 192.362C88.4384 194.318 86.0893 195.314 82.9327 195.314C81.905 195.314 75.8489 195.166 66.7096 194.945H66.2324C60.2863 194.797 54.7073 194.65 53.1657 194.613C50.4496 194.576 43.8796 193.469 41.6407 184.392C37.7868 168.932 48.3209 162.29 55.2947 157.899C59.8093 155.058 61.6444 153.656 61.4241 152.291C61.0571 149.893 59.9193 142.993 58.8916 136.905C52.7253 132.551 51.3673 126.905 51.3673 122.736V122.625L51.514 119.673C51.0736 120.411 50.4864 121.186 49.7891 121.924C49.4954 126.13 47.9905 132.366 39.1082 136.056C37.5666 136.683 35.8782 137.015 34.1164 137.015C32.2812 137.015 30.3726 136.683 28.4273 135.982C28.0969 135.871 27.7665 135.761 27.4729 135.65C26.3718 136.056 25.0506 136.351 23.5457 136.351C22.9217 136.351 22.2978 136.314 21.7105 136.204C20.3524 135.982 19.0678 135.392 17.8933 134.543C17.7098 134.396 17.5261 134.285 17.3793 134.137L17.2693 134.063C16.9022 133.731 16.5352 133.362 16.2049 132.993C12.5712 132.071 10.5157 129.968 9.37791 128.16C6.84533 124.175 6.77192 118.382 9.19439 112.22C11.9472 105.209 17.306 100.487 23.766 99.1582C25.1974 96.7967 26.9591 94.7305 29.0146 93.0332L27.3996 88.753C26.5187 86.4285 27.2528 83.8825 29.1981 82.3697C30.1524 81.6318 31.3637 81.2259 32.5749 81.2259C33.7494 81.2259 34.8505 81.5949 35.8048 82.2959L42.3748 87.0557C44.5403 86.6129 46.8895 86.3178 49.4588 86.1702C49.9359 86.1333 50.4498 86.1333 50.9269 86.1333C51.661 86.1333 52.3951 86.1702 53.1292 86.244L53.8265 72.2228L45.3478 65.323C43.3291 63.6626 42.7052 60.7845 43.9164 58.46C44.3569 57.5744 45.0176 56.8365 45.7884 56.3568C46.082 56.1723 45.3111 55.2868 45.3111 55.2868L42.4115 51.7446C39.8055 49.1248 38.1171 46.8372 37.0894 45.4351C36.7958 45.0292 36.4287 44.5496 36.3186 44.402C33.5658 41.3026 30.2259 31.414 34.9607 26.691C37.8603 23.7761 42.1913 22.374 48.2474 22.374C51.8077 22.374 56.0655 22.8537 61.204 23.8499C63.5531 24.2927 66.3792 25.1413 69.5357 26.3221C71.0039 23.0013 72.0317 20.6029 72.5455 19.2746C74.8946 13.4078 80.5104 7.46729 87.8145 7.46729C88.6586 7.46729 89.5028 7.54106 90.3102 7.72555C97.8713 9.16456 102.459 17.4666 102.973 24.514C103.083 25.9161 103.303 29.3476 103.707 34.6609C107.231 35.3989 112.076 36.469 115.82 37.5021C121.912 39.1256 129.914 42.2988 133.474 48.1655C133.511 48.2393 133.548 48.3131 133.584 48.35C134.722 47.8703 135.933 47.6121 137.255 47.6121C139.64 47.6121 141.733 48.4976 143.311 50.1211C144.485 49.6414 145.66 49.4569 146.651 49.4569C146.981 49.4569 147.348 49.4938 147.679 49.5307C152.413 50.0473 154.322 52.8515 155.093 55.1392C155.9 57.5006 155.754 60.268 155.533 63.3674C155.276 67.1309 152.964 74.9902 150.835 82.0377L150.395 83.4766C150.285 83.8087 150.174 84.1777 150.064 84.5836C149.147 87.7937 147.715 92.7011 145.109 98.162L148.339 100.302C150.358 101.63 151.276 104.213 150.578 106.538C149.881 108.899 147.752 110.486 145.293 110.486H136.631C132.079 114.766 127.124 116.906 123.637 117.939C120.848 118.751 117.251 119.231 112.92 119.304C113.067 119.563 113.214 119.858 113.324 120.153C114.168 122.588 113.25 125.282 111.085 126.684L101.652 132.735C100.881 134.322 99.8165 135.724 98.4952 136.978L110.02 152.844C111.892 150.926 114.315 148.86 117.361 147.088C119.49 145.834 123.931 143.731 129.4 143.731C132.226 143.731 134.942 144.321 137.365 145.428C140.778 147.015 145.843 151.368 141.329 162.807C136.924 174.024 131.786 182.658 124.739 190.886C120.261 196.052 114.682 199.114 109.506 199.114Z" fill="#F3EAD4"/>
<path d="M147.165 54.6219C144.045 54.2529 142.247 57.5737 140.925 61.411C141.219 58.533 141.109 55.655 139.934 54.0315C139.31 53.1459 138.43 52.7032 137.328 52.7032C136.154 52.7032 135.2 53.109 134.502 53.847C132.997 55.4336 132.74 58.4224 132.777 61.3004C132.373 60.2673 131.859 59.4555 131.162 58.902C130.355 58.2379 129.364 57.8688 128.116 57.832C128.703 56.5774 129.143 55.2861 129.4 53.9208C129.474 53.8102 129.547 53.6625 129.621 53.5149C129.951 52.6663 129.804 51.707 129.18 50.6738C127.088 47.2423 121.913 44.2536 114.609 42.2981C108.589 40.6746 100.588 39.0879 98.9727 38.7558C98.5323 32.926 98.0917 26.7641 97.9449 24.6609C97.6513 20.2701 94.8252 13.5916 89.4664 12.5954C84.181 11.5622 79.4094 16.0637 77.4274 21.008C76.4731 23.3694 74.3076 28.3507 72.3256 32.7784C67.554 30.7121 63.2963 29.31 60.3233 28.7565C48.7615 26.5426 41.8979 26.9855 38.7046 30.1956C36.7226 32.1881 38.5579 38.9035 40.2463 40.8221C40.5399 41.1542 40.9069 41.6339 41.3474 42.2611C42.3017 43.5525 43.6963 45.4713 45.8252 47.6482L45.7151 47.6851L46.2657 48.091L46.4492 48.2755L46.486 48.2385C47.4403 48.9027 51.551 51.7069 59.6259 54.9539L60.0297 55.1016C59.9563 55.4705 59.9196 55.8026 59.8829 56.1716L58.0477 92.7003C55.7354 91.741 52.9826 91.04 49.8261 91.2614C46.6328 91.4827 43.8065 91.8886 41.3107 92.5896L32.7953 86.4277C32.6851 86.3539 32.5018 86.3539 32.3917 86.4277C32.2815 86.5384 32.208 86.686 32.2814 86.8336L35.328 94.9511C31.6209 97.0174 28.9415 99.9692 27.0696 103.954C21.2336 104.176 16.4988 107.865 14.0396 114.101C12.2779 118.603 12.1677 122.772 13.7826 125.281C14.8838 126.978 16.6823 127.938 19.1782 128.085C19.6187 128.823 20.1692 129.598 20.8299 130.152L20.8664 130.188C21.3436 130.594 21.9309 130.89 22.5916 131C24.9407 131.406 26.8859 130.188 27.4732 129.746C27.5099 129.783 27.5467 129.783 27.6201 129.82C28.2441 130.262 28.978 130.594 29.8589 130.89C31.0335 131.332 32.5016 131.738 34.0799 131.738C35.0709 131.738 36.0987 131.591 37.0897 131.148C44.5039 128.085 44.5773 123.362 44.614 119.562V119.451C47.6605 117.164 47.9174 114.913 47.7706 113.769C47.477 111.26 46.3024 109.12 44.4305 107.718C42.5953 106.352 40.2462 105.762 37.7503 106.094C37.787 106.057 37.7871 106.02 37.8238 105.947C38.9616 103.29 41.0538 98.3826 51.6245 97.5708C54.0837 97.3863 56.1025 98.0874 57.7174 99.0837L56.5061 122.698C56.5061 127.347 58.8551 131.037 63.4798 133.62C64.4709 139.634 65.9757 148.674 66.4162 151.442C67.187 156.386 62.8926 159.079 57.9375 162.216C51.2207 166.459 43.5864 171.256 46.5227 183.1C47.8073 188.266 50.8537 189.372 53.2027 189.409C54.781 189.446 60.5802 189.594 66.7465 189.741C74.1974 189.926 81.8685 190.11 82.8962 190.11C83.8505 190.11 85.2087 190 85.9428 189.114C86.4199 188.524 86.4933 187.712 86.2731 186.642C86.163 186.236 86.0895 185.793 86.0161 185.277C85.5756 182.62 84.8784 178.598 80.4739 173.912C74.7848 167.861 67.5174 167.935 63.7368 168.488C67.1136 166.348 73.1697 162.216 73.9038 159.338C74.7846 155.869 71.8852 143.804 69.8298 136.092C72.5091 136.793 75.115 137.162 77.2071 137.31C78.2715 137.384 79.2992 137.457 80.327 137.457C81.685 137.457 83.0432 137.383 84.2911 137.236C88.145 145.464 99.0094 168.599 100.294 171.588C100.735 172.621 100.698 174.54 100.661 176.79C100.551 182.141 100.441 189.446 106.46 193.099C107.304 193.616 108.369 193.874 109.543 193.874C112.773 193.874 117.031 191.882 120.995 187.269C127.675 179.521 132.483 171.293 136.704 160.666C138.98 154.873 138.54 151.331 135.346 149.818C130.024 147.346 123.931 148.932 120.041 151.257C116.334 153.434 113.691 156.128 112.113 158.009C111.709 158.489 110.534 160.002 109.91 161.035L91.3016 135.391C95.1188 133.694 97.4311 130.963 98.0184 127.532C98.3854 125.502 99.3763 120.078 100.698 113.179C101.836 113.326 106.607 113.88 111.819 113.88C115.49 113.88 119.38 113.621 122.317 112.736C126.097 111.592 133.181 108.53 137.842 100.781C142.026 93.8442 144.008 87.0181 145.183 82.9594C145.293 82.5166 145.44 82.1476 145.513 81.7786C145.623 81.3728 145.77 80.8931 145.954 80.3396C147.349 75.7643 150.211 66.2815 150.432 62.8131C150.799 57.2047 150.652 55.0277 147.165 54.6219ZM127.602 70.8199C127.161 71.2627 126.684 71.4104 126.17 71.2628C125.106 71.0045 124.152 69.6762 123.748 68.5692C123.418 67.6468 122.94 66.5768 122.28 65.9126C122.94 65.8388 123.601 65.6543 124.262 65.4698C124.812 65.3222 125.326 65.1746 125.73 65.1377C127.015 65.027 127.712 66.2078 127.932 66.7243C128.556 68.2003 128.446 70.0082 127.602 70.8199ZM114.865 66.6506C116.224 66.6506 117.545 66.5398 118.793 66.2447C117.508 67.5361 116.774 70.4141 119.05 73.2183C121.619 76.4284 126.537 80.0444 129.621 81.5203C129.841 85.3946 128.923 92.811 126.244 96.8698C121.546 103.954 114.352 106.426 102.239 105.098C104.955 90.9293 108.222 74.1038 109.764 66.2077C111.195 66.4291 113.03 66.6506 114.865 66.6506Z" fill="#141414"/>
<path d="M83.3018 134.21C83.3018 134.21 99.0846 167.824 100.663 171.477C102.241 175.13 98.3137 187.712 106.646 192.804C109.765 194.722 115.675 192.878 120.63 187.085C126.576 180.185 131.641 172.325 136.266 160.592C138.541 154.799 137.991 151.626 135.128 150.298C130.283 148.047 124.374 149.228 120.189 151.7C113.105 155.869 109.912 161.883 109.912 161.883L109.765 161.699L87.743 131.332" fill="#6FA467"/>
<path d="M109.509 194.169C108.261 194.169 107.196 193.874 106.316 193.358C100.223 189.631 100.333 182.252 100.443 176.864C100.48 174.651 100.516 172.732 100.076 171.736C98.5343 168.12 82.8983 134.801 82.7148 134.469C82.568 134.174 82.7149 133.805 83.0085 133.657C83.3022 133.51 83.6691 133.657 83.8159 133.952C83.9627 134.284 99.6355 167.603 101.177 171.256C101.691 172.511 101.691 174.429 101.617 176.901C101.544 181.993 101.397 188.93 106.903 192.325C109.582 193.948 115.125 192.546 120.116 186.716C126.686 179.041 131.495 170.924 135.642 160.408C138.358 153.508 136.486 151.7 134.835 150.925C129.879 148.638 124.007 150.224 120.483 152.291C113.62 156.312 110.463 162.179 110.426 162.253L109.876 161.958L109.362 162.327L87.1928 131.775C87.0092 131.517 87.0459 131.111 87.3395 130.927C87.5965 130.742 88.0003 130.779 88.1838 131.074L109.802 160.851C109.839 160.777 109.913 160.703 109.949 160.629C110.316 160.039 110.977 159.117 111.858 158.047C113.436 156.165 116.079 153.434 119.823 151.257C123.787 148.933 129.953 147.346 135.312 149.818C138.615 151.368 139.092 154.984 136.78 160.888C132.596 171.551 127.714 179.779 121.034 187.565C117.107 192.177 112.775 194.169 109.509 194.169Z" fill="#141414"/>
<path d="M62.9654 127.975C62.9654 127.975 66.1586 147.124 66.8193 151.442C68.7279 163.581 41.8972 162.806 46.9624 183.063C47.2927 184.354 48.4306 189.003 53.2388 189.077C56.7624 189.151 81.0604 189.778 82.9323 189.778C84.8042 189.778 86.4559 189.299 85.8687 186.827C85.2814 184.354 85.3548 179.779 80.1795 174.281C72.2148 165.795 61.277 169.558 61.277 169.558C61.277 169.558 72.5085 163.101 73.4628 159.301C74.7474 154.246 67.5534 129.635 67.5534 129.635" fill="#6FA467"/>
<path d="M82.8955 190.406C81.8678 190.406 74.16 190.221 66.7457 190.037C60.6162 189.889 54.7803 189.741 53.202 189.705C50.8162 189.668 47.6598 188.524 46.3384 183.247C43.3287 171.256 51.0365 166.422 57.8267 162.142C62.7451 159.042 66.966 156.386 66.1952 151.589C65.5345 147.309 62.3413 128.307 62.3413 128.122C62.2678 127.79 62.5249 127.458 62.8553 127.421C63.1856 127.347 63.5159 127.606 63.5526 127.938C63.5893 128.122 66.7458 147.125 67.4065 151.405C68.2874 157.013 63.5159 160.039 58.4508 163.212C51.6972 167.455 44.7234 171.846 47.5129 182.952C48.4305 186.568 50.3391 188.45 53.202 188.487C54.7803 188.524 60.6162 188.671 66.7457 188.819C74.16 189.003 81.8312 189.188 82.8589 189.188C84.0335 189.188 84.7676 189.003 85.0612 188.598C85.3181 188.266 85.3547 187.749 85.1712 187.011C85.0611 186.568 84.9876 186.088 84.9142 185.572C84.4738 183.026 83.8499 179.189 79.6656 174.724C72.0679 166.643 61.5338 170.149 61.4237 170.186C61.13 170.296 60.7998 170.149 60.653 169.854C60.5062 169.558 60.6162 169.226 60.9098 169.079C63.9563 167.308 72.0678 162.105 72.8019 159.19C73.7929 155.316 69.3519 138.306 66.8927 129.856C66.7826 129.524 66.966 129.192 67.2963 129.082C67.6266 128.971 67.957 129.155 68.0671 129.487C68.3608 130.484 75.3346 154.32 74.0132 159.485C73.3159 162.253 67.9938 166.053 64.5069 168.304C68.5077 167.861 75.1877 168.193 80.5465 173.875C84.9877 178.598 85.6851 182.657 86.1256 185.351C86.199 185.867 86.2723 186.31 86.3824 186.716C86.6393 187.823 86.5292 188.708 86.0153 189.336C85.318 190.295 83.8865 190.406 82.8955 190.406Z" fill="#141414"/>
<path d="M77.2067 137.052C68.4711 136.314 56.8359 132.92 56.8359 122.736L60.2128 56.2093C61.424 44.8448 74.4172 36.9117 85.6853 38.1294L87.1167 38.2769C98.3849 39.4945 111.452 50.2318 110.24 61.5963C110.24 61.5963 98.9722 119.6 97.6141 127.533C96.2561 135.503 85.9422 137.79 77.2067 137.052Z" fill="#6FA467"/>
<path d="M80.3267 137.826C79.2623 137.826 78.198 137.79 77.1703 137.679C73.3898 137.347 67.9575 136.461 63.4796 133.989C58.6714 131.333 56.249 127.569 56.249 122.772L59.6257 56.2087C60.2129 50.6371 63.5164 45.5821 68.8752 41.9661C73.9403 38.5346 80.1066 36.948 85.7958 37.5384L87.2272 37.686C98.9725 38.9406 112.149 49.9361 110.901 61.6696V61.7064C110.791 62.2968 99.6332 119.783 98.2751 127.643C96.9171 135.244 88.3649 137.826 80.3267 137.826ZM77.2436 136.461C86.1994 137.199 95.7791 134.727 97.027 127.495C98.3851 119.71 109.36 63.0717 109.653 61.5589C110.791 50.8216 98.165 40.1582 87.0804 38.9405L85.6488 38.793C75.1514 37.6491 62.0483 45.0656 60.837 56.3194L57.4602 122.809C57.4602 133.62 71.2976 135.945 77.2436 136.461Z" fill="#141414"/>
<path d="M61.7923 64.5475L48.8726 60.8945L62.9301 72.3702" fill="#6FA467"/>
<path d="M62.9306 72.9979C62.7838 72.9979 62.6736 72.961 62.5268 72.8503L48.4693 61.3747C48.249 61.1902 48.1757 60.858 48.3225 60.5997C48.4693 60.3414 48.7629 60.1938 49.0198 60.3045L61.9397 63.9576C62.27 64.0314 62.4535 64.4003 62.3801 64.7324C62.3066 65.0645 61.9396 65.2491 61.6092 65.1753L51.5524 62.334L63.2977 71.9278C63.5546 72.1492 63.5914 72.5182 63.3711 72.8134C63.2977 72.9241 63.1141 72.9979 62.9306 72.9979Z" fill="#141414"/>
<path d="M65.4258 116.02L51.8818 111.777L62.416 121.371" fill="#6FA467"/>
<path d="M62.4147 121.998C62.2679 121.998 62.1211 121.961 62.011 121.85L51.5136 112.257C51.2934 112.072 51.2567 111.74 51.4035 111.482C51.5504 111.223 51.844 111.113 52.1376 111.187L65.6814 115.43C66.0117 115.541 66.1953 115.873 66.0852 116.205C65.975 116.537 65.6447 116.721 65.3143 116.611L54.4499 113.216L62.8918 120.928C63.1488 121.149 63.1488 121.555 62.9286 121.814C62.745 121.924 62.5616 121.998 62.4147 121.998Z" fill="#141414"/>
<path d="M102.203 100.302L112.664 95.0995L101.249 93.6973" fill="#6FA467"/>
<path d="M102.204 100.929C101.983 100.929 101.763 100.818 101.653 100.597C101.506 100.302 101.616 99.9327 101.947 99.7851L110.572 95.5048L101.213 94.3241C100.882 94.2872 100.625 93.955 100.662 93.6229C100.699 93.2908 101.029 93.0325 101.36 93.0694L112.775 94.4716C113.031 94.5085 113.252 94.7299 113.288 94.9882C113.325 95.2465 113.215 95.5417 112.958 95.6524L102.497 100.855C102.387 100.929 102.314 100.929 102.204 100.929Z" fill="#141414"/>
<path d="M87.0448 122.736L91.8164 113.068L81.2822 117.053" fill="#6FA467"/>
<path d="M87.0452 123.363C86.9351 123.363 86.8616 123.326 86.7882 123.289C86.4946 123.142 86.3479 122.773 86.4947 122.477L90.5689 114.212L81.5029 117.644C81.1726 117.754 80.8421 117.607 80.6953 117.275C80.5852 116.943 80.732 116.611 81.0624 116.463L91.5965 112.478C91.8167 112.404 92.1103 112.441 92.2571 112.625C92.4039 112.81 92.4774 113.105 92.3673 113.326L87.5958 122.994C87.4857 123.252 87.2655 123.363 87.0452 123.363Z" fill="#141414"/>
<path d="M95.6694 129.931L108.222 121.886L95.8897 123.215" fill="#6FA467"/>
<path d="M95.67 130.558C95.4498 130.558 95.2663 130.447 95.1562 130.263C94.9727 129.967 95.0461 129.598 95.3397 129.414L105.653 122.809L95.9636 123.879C95.6333 123.916 95.303 123.658 95.2662 123.325C95.2295 122.993 95.4865 122.661 95.8168 122.624L108.113 121.296C108.406 121.259 108.663 121.444 108.773 121.702C108.883 121.96 108.773 122.292 108.516 122.44L95.9636 130.484C95.8902 130.521 95.7801 130.558 95.67 130.558Z" fill="#141414"/>
<path d="M78.1622 86.7964C84.0408 86.7964 88.8064 82.0057 88.8064 76.0961C88.8064 70.1865 84.0408 65.3958 78.1622 65.3958C72.2836 65.3958 67.5181 70.1865 67.5181 76.0961C67.5181 82.0057 72.2836 86.7964 78.1622 86.7964Z" fill="#F3EAD4"/>
<path d="M78.1624 87.4238C77.7586 87.4238 77.3549 87.3869 76.9512 87.35C70.7849 86.6858 66.2702 81.0773 66.9309 74.8785C67.5916 68.6797 73.1707 64.1414 79.337 64.8055C85.5032 65.4697 90.0178 71.0781 89.3571 77.2769C88.7331 83.1067 83.8515 87.4238 78.1624 87.4238ZM78.1624 66.0231C73.0972 66.0231 68.7295 69.8605 68.179 75.0262C67.5917 80.5608 71.5924 85.542 77.098 86.1323C82.6036 86.7227 87.5587 82.7009 88.1459 77.1663C88.7332 71.6316 84.7323 66.6504 79.2267 66.06C78.8597 66.0231 78.4927 66.0231 78.1624 66.0231Z" fill="#141414"/>
<path d="M99.5968 86.8709C105.475 86.8709 110.241 82.0802 110.241 76.1706C110.241 70.2609 105.475 65.4702 99.5968 65.4702C93.7182 65.4702 88.9526 70.2609 88.9526 76.1706C88.9526 82.0802 93.7182 86.8709 99.5968 86.8709Z" fill="#F3EAD4"/>
<path d="M99.5973 87.498C99.1936 87.498 98.7899 87.4611 98.3862 87.4242C95.3764 87.0921 92.697 85.6162 90.8251 83.2548C88.9532 80.8933 88.0723 77.9415 88.4026 74.9159C88.7329 71.8902 90.2012 69.1967 92.5503 67.3149C94.8993 65.3962 97.8357 64.5476 100.845 64.8797C107.012 65.5438 111.526 71.1523 110.866 77.3511C110.535 80.3768 109.067 83.0702 106.718 84.952C104.626 86.6124 102.167 87.498 99.5973 87.498ZM99.5608 66.0604C97.2851 66.0604 95.0828 66.8353 93.2844 68.3112C91.1922 70.0085 89.9076 72.4068 89.6139 75.1003C89.3203 77.7939 90.0911 80.4137 91.7795 82.5168C93.4678 84.62 95.8536 85.9114 98.533 86.2066C101.212 86.5018 103.818 85.7269 105.91 84.0296C108.003 82.3323 109.287 79.934 109.581 77.2404C109.875 74.5469 109.104 71.9271 107.415 69.824C105.727 67.7208 103.341 66.4294 100.662 66.1342C100.295 66.0973 99.9278 66.0604 99.5608 66.0604Z" fill="#141414"/>
<path d="M74.8222 77.9422C73.8678 77.8315 73.1705 76.909 73.3907 75.9496C73.5743 75.101 74.3818 74.5475 75.2627 74.6582L82.8605 75.4699C83.044 75.5068 83.2275 75.3224 83.1908 75.1379C82.8237 71.6694 79.9242 68.865 76.2538 68.8281C72.9871 68.7912 70.0507 71.1158 69.3533 74.326C68.4357 78.5325 71.3354 82.4808 75.4829 82.9236C78.456 83.2557 81.1721 81.669 82.4567 79.1599C82.5668 78.9754 82.42 78.7171 82.2364 78.7171L74.8222 77.9422Z" fill="#141414"/>
<path d="M96.1463 78.0526C95.192 77.9419 94.4947 77.0195 94.7149 76.0601C94.8984 75.2114 95.706 74.6579 96.5869 74.7686L104.515 75.6172C104.662 75.6172 104.808 75.5065 104.772 75.3589C104.478 71.8535 101.579 68.9754 97.8348 68.9016C94.5314 68.8647 91.5951 71.1893 90.8977 74.4364C89.9801 78.643 92.8796 82.5912 97.0272 83.034C100 83.3661 102.753 81.7425 104.038 79.2334C104.111 79.0858 104.001 78.9013 103.854 78.9013L96.1463 78.0526Z" fill="#141414"/>
<path d="M78.7479 69.3079C72.912 68.6806 71.2235 68.8651 70.416 68.7544C72.4714 66.356 76.2153 65.1751 79.2617 65.4703C82.7853 65.8393 85.8318 68.0902 87.0063 70.2304C85.8685 70.0459 81.7576 69.64 78.7479 69.3079Z" fill="#FC9B59"/>
<path d="M87.0434 70.821C87.0067 70.821 87.0066 70.821 86.9699 70.821C86.1257 70.7103 83.6666 70.452 81.3175 70.1937L78.6747 69.8985C74.6006 69.4557 72.5453 69.4189 71.4442 69.382C70.9303 69.382 70.6 69.3451 70.343 69.3082C70.1228 69.2713 69.9392 69.1237 69.8658 68.9023C69.7924 68.6809 69.8292 68.4595 69.976 68.275C72.0314 65.8765 75.8854 64.4375 79.3723 64.7696C83.2996 65.1755 86.3827 67.6846 87.5939 69.8247C87.704 70.0461 87.704 70.2676 87.5572 70.4889C87.4471 70.7103 87.2636 70.821 87.0434 70.821ZM71.9212 68.1643C73.1325 68.2012 75.1879 68.275 78.8583 68.6809L81.501 68.976C83.0426 69.1236 84.6209 69.3082 85.7955 69.4189C84.4007 67.8322 82.0149 66.3562 79.2988 66.061C76.6928 65.8027 73.8298 66.6514 71.9212 68.1643Z" fill="#141414"/>
<path d="M98.7532 69.382C92.9173 70.12 91.4491 70.5259 90.6416 70.5997C91.7794 67.8691 95.2297 66.1718 98.2394 65.6921C101.69 65.1386 105.14 66.2456 106.938 68.4595C105.764 68.5702 101.726 68.9761 98.7532 69.382Z" fill="#FC9B59"/>
<path d="M90.6422 71.2268C90.4587 71.2268 90.2752 71.1161 90.1651 70.9685C90.0183 70.784 90.0182 70.5625 90.0916 70.378C91.3029 67.3892 95.0467 65.5811 98.1665 65.1014C101.837 64.511 105.471 65.6919 107.453 68.0903C107.6 68.2748 107.636 68.4962 107.563 68.7176C107.489 68.939 107.269 69.0866 107.049 69.0866C105.874 69.1973 101.8 69.6401 98.8639 70.0091C94.8631 70.5256 92.918 70.8578 91.8535 71.0423C91.3397 71.1161 91.0094 71.1899 90.7524 71.2268C90.679 71.1899 90.6422 71.2268 90.6422 71.2268ZM99.965 66.1716C99.4144 66.1716 98.9006 66.2085 98.3501 66.2823C95.9643 66.6513 93.2116 67.869 91.8168 69.7877C92.9179 69.6032 94.8998 69.2342 98.6804 68.7545C100.956 68.4593 103.819 68.1641 105.618 67.9796C104.149 66.7988 102.094 66.1716 99.965 66.1716Z" fill="#141414"/>
<path d="M81.1714 97.35C80.731 97.35 80.2904 97.3131 79.7766 97.2024C76.1429 96.5013 75.4089 92.59 75.5191 90.6344C75.5558 90.3023 75.8126 90.0439 76.1797 90.0439C76.51 90.0808 76.767 90.3761 76.767 90.7082C76.767 90.8926 76.5467 95.2837 80.0336 95.9848C84.4381 96.8703 85.9063 92.5162 85.943 92.3317C86.0531 91.9996 86.3834 91.8151 86.7138 91.9258C87.0441 92.0365 87.2275 92.3686 87.1174 92.7007C87.1174 92.7745 85.6126 97.35 81.1714 97.35Z" fill="#141414"/>
<path d="M90.6411 135.392L84.1812 137.015L86.5304 142.07L94.385 140.558L90.6411 135.392Z" fill="#141414"/>
<path d="M69.683 135.871L63.6636 133.399L65.0584 140.816L70.8209 141.517L69.683 135.871Z" fill="#141414"/>
<path d="M57.9018 96.575L57.498 104.213L62.4163 104.066L64.1048 96.6487L57.9018 96.575Z" fill="#141414"/>
<path d="M64.6922 97.6452C64.6922 97.6452 58.7461 91.0405 49.827 91.6308C38.669 92.3688 31.1814 95.8003 27.2541 104.287C21.6751 104.434 16.8667 107.755 14.2974 114.212C12.0952 119.821 11.7649 127.385 19.2892 127.791C20.2068 129.377 21.1978 130.484 22.5926 130.706C25.2353 131.148 27.4009 129.414 27.4009 129.414C27.4009 129.414 32.5027 132.735 36.9072 130.927C44.3214 127.864 44.2113 123.105 44.248 119.378C47.1109 117.275 47.5514 115.209 47.4045 113.88C46.8173 108.862 42.5596 105.578 37.1642 106.538C38.302 104.028 39.8434 98.2355 51.5153 97.35C58.8928 96.7965 62.6367 103.918 62.6367 103.918" fill="#6FA467"/>
<path d="M34.0437 132.107C31.1074 132.107 28.428 130.742 27.437 130.188C26.6662 130.705 24.7576 131.775 22.482 131.369C20.8303 131.074 19.7658 129.746 18.9216 128.417C16.4257 128.196 14.5539 127.237 13.4528 125.466C11.8011 122.883 11.9111 118.603 13.7096 114.027C16.2054 107.755 20.9771 103.991 26.8497 103.696C30.6669 95.7259 37.7508 91.8148 49.753 91.0031C58.8556 90.4127 64.875 96.9435 65.1319 97.2018C65.3522 97.4601 65.3521 97.8291 65.0952 98.0874C64.8383 98.3088 64.4713 98.3088 64.2143 98.0505C64.1409 97.9767 58.3418 91.6672 49.8265 92.2575C38.1546 93.0324 31.3643 96.8329 27.8041 104.545C27.6939 104.766 27.5104 104.913 27.2535 104.913C21.7112 105.061 17.1965 108.529 14.8474 114.47C13.5628 117.717 12.792 122.145 14.4804 124.801C15.4347 126.277 17.0497 127.089 19.2887 127.2C19.5089 127.2 19.6924 127.31 19.8025 127.495C20.7935 129.192 21.6378 129.93 22.6655 130.115C25.0146 130.521 26.9598 128.971 26.9965 128.934C27.2167 128.749 27.5104 128.749 27.7306 128.897C27.7673 128.934 32.6122 132.033 36.6863 130.336C43.55 127.495 43.5866 123.289 43.6233 119.599V119.34C43.6233 119.156 43.7335 118.972 43.8803 118.861C46.6698 116.795 46.8901 114.876 46.8167 113.953C46.5597 111.703 45.4953 109.784 43.8436 108.529C42.0818 107.201 39.7695 106.721 37.3104 107.164C37.0901 107.201 36.8699 107.127 36.7231 106.943C36.5762 106.758 36.5395 106.5 36.6496 106.316C36.723 106.131 36.8332 105.91 36.9433 105.688C38.1546 102.884 40.3934 97.6077 51.5514 96.759C59.2593 96.1687 63.1132 103.364 63.26 103.659C63.4068 103.954 63.2968 104.323 63.0032 104.508C62.7095 104.655 62.3424 104.544 62.1589 104.249C62.1222 104.176 58.5253 97.4971 51.6249 98.0136C41.6414 98.7885 39.4392 103.069 38.228 105.836C40.6137 105.651 42.8526 106.242 44.6144 107.57C46.5597 109.046 47.8077 111.26 48.1013 113.843C48.2481 115.023 47.9912 117.348 44.9447 119.709C44.908 123.399 44.8346 128.38 37.2369 131.517C36.1358 131.923 35.0715 132.107 34.0437 132.107Z" fill="#141414"/>
<path d="M32.4297 120.19C32.3563 120.19 32.3196 120.19 32.2462 120.153C31.9158 120.042 31.7325 119.71 31.8426 119.378L34.0814 112.441C34.1915 112.109 34.5219 111.924 34.8522 112.035C35.1825 112.146 35.3661 112.478 35.256 112.81L33.017 119.747C32.9436 120.005 32.6866 120.19 32.4297 120.19Z" fill="#141414"/>
<path d="M33.4551 116.794C33.4551 116.794 34.4094 118.639 37.1255 119.303C40.1352 120.041 44.7966 118.934 44.7966 118.934" fill="#6FA467"/>
<path d="M39.5851 120.189C38.6675 120.189 37.7868 120.115 36.9793 119.931C34.043 119.23 32.9418 117.2 32.9051 117.09C32.7583 116.794 32.8683 116.425 33.1619 116.241C33.4556 116.093 33.8227 116.204 34.0062 116.499C34.0429 116.573 34.8871 118.123 37.2728 118.713C40.0991 119.414 44.6137 118.344 44.6871 118.344C45.0175 118.27 45.3478 118.492 45.4212 118.824C45.4946 119.156 45.2743 119.488 44.9439 119.562C44.7971 119.599 42.1911 120.189 39.5851 120.189Z" fill="#141414"/>
<path d="M25.3819 119.968C25.3819 119.968 24.2075 121.961 24.8681 124.544C25.7857 128.234 27.0703 129.783 30.1167 130.706" fill="#6FA467"/>
<path d="M30.1168 131.333C30.0434 131.333 30.0067 131.333 29.9333 131.296C26.7033 130.3 25.2719 128.64 24.2442 124.691C23.5468 121.887 24.7947 119.747 24.8315 119.636C25.015 119.341 25.3819 119.23 25.6756 119.415C25.9692 119.599 26.0794 119.968 25.8958 120.264C25.8958 120.3 24.868 122.109 25.4553 124.359C26.3362 127.902 27.4741 129.23 30.3003 130.079C30.6306 130.189 30.8142 130.522 30.7041 130.854C30.6307 131.186 30.4104 131.333 30.1168 131.333Z" fill="#141414"/>
<path d="M20.719 116.905C20.719 116.905 18.7003 119.488 18.4067 122.144C18.003 125.908 19.3243 128.454 21.0127 129.967" fill="#6FA467"/>
<path d="M21.0129 130.595C20.8661 130.595 20.7193 130.558 20.6091 130.447C19.3612 129.303 17.3058 126.72 17.8196 122.108C18.1132 119.304 20.1687 116.647 20.2421 116.536C20.4623 116.278 20.8293 116.204 21.123 116.426C21.3799 116.647 21.4532 117.016 21.233 117.311C21.1963 117.348 19.3244 119.82 19.0675 122.256C18.6638 126.13 20.1319 128.344 21.4533 129.562C21.7102 129.783 21.7102 130.189 21.49 130.447C21.3432 130.521 21.1964 130.595 21.0129 130.595Z" fill="#141414"/>
<path d="M42.007 93.5864L32.5742 86.7231L36.6482 97.5347" fill="#6FA467"/>
<path d="M36.6491 98.1616C36.3922 98.1616 36.1721 98.014 36.062 97.7557L31.9878 86.9442C31.8777 86.686 31.9878 86.3907 32.1713 86.2431C32.3915 86.0586 32.6852 86.0586 32.9054 86.2431L42.3749 93.1064C42.6686 93.2909 42.7052 93.6968 42.5217 93.9551C42.3382 94.2503 41.9345 94.2872 41.6776 94.1027L33.8963 88.4571L37.2364 97.3129C37.3465 97.645 37.1997 97.9771 36.8693 98.1247C36.7959 98.1247 36.7225 98.1616 36.6491 98.1616Z" fill="#141414"/>
<path d="M133.733 104.803H145.405L135.825 98.4192" fill="#6FA467"/>
<path d="M145.406 105.43H133.734C133.403 105.43 133.11 105.135 133.11 104.803C133.11 104.471 133.403 104.176 133.734 104.176H143.35L135.459 98.936C135.165 98.7515 135.092 98.3456 135.275 98.0873C135.459 97.7921 135.863 97.7183 136.119 97.9028L145.699 104.249C145.919 104.397 146.03 104.692 145.956 104.951C145.883 105.209 145.663 105.43 145.406 105.43Z" fill="#141414"/>
<path d="M62.4168 46.6524C62.4168 46.6524 71.1157 46.5787 79.8879 50.6376C88.6602 54.6965 86.5681 54.2907 90.2018 55.5821C93.8355 56.9105 97.7628 59.3458 76.5846 52.5195C65.0595 48.7926 60.3613 54.9548 60.3613 54.9548L62.4168 46.6524Z" fill="#141414"/>
<path d="M99.414 50.6737C99.414 50.6737 97.7991 29.0516 97.5055 24.7346C97.2118 20.4175 94.4222 13.9973 89.3204 13.0011C84.2185 12.0048 79.6307 16.3957 77.722 21.1555C75.8134 25.9153 68.9131 41.2648 68.9131 41.2648L99.414 50.6737Z" fill="#FC9B59"/>
<path d="M99.4141 51.301C99.3407 51.301 99.304 51.301 99.2306 51.2641L68.7297 41.8551C68.5462 41.8182 68.4361 41.6707 68.3627 41.5231C68.2893 41.3755 68.2893 41.191 68.3627 41.0066C68.4361 40.859 75.2997 25.6201 77.1716 20.9341C79.1904 15.916 84.0353 11.3407 89.4675 12.3739C94.9364 13.4439 97.8359 20.1962 98.1295 24.6608C98.4231 28.941 100.038 50.3786 100.038 50.6C100.038 50.8214 99.9647 51.0058 99.8179 51.1165C99.7078 51.2641 99.5609 51.301 99.4141 51.301ZM69.7941 40.8958L98.7535 49.8251C98.4599 45.6925 97.1753 28.5351 96.9183 24.7715C96.6247 20.7128 94.0554 14.5508 89.2472 13.5915C84.5124 12.6691 80.1813 16.8016 78.3461 21.3769C76.6577 25.5832 71.1154 37.944 69.7941 40.8958Z" fill="#141414"/>
<path d="M98.5703 39.125L98.8639 48.3129C98.8639 48.3129 104.7 53.6264 114.794 55.6559C120.446 56.7998 123.235 56.3938 124.447 56.0617C125.621 55.6927 131.09 54.7334 128.778 50.9328C126.942 47.907 122.281 44.8444 114.427 42.7411C107.71 40.9331 98.5703 39.125 98.5703 39.125Z" fill="#FB7C26"/>
<path d="M121.362 57.0203C119.747 57.0203 117.581 56.8358 114.719 56.2454C104.588 54.216 98.7522 48.9766 98.4953 48.7552C98.3852 48.6445 98.3119 48.4969 98.2752 48.3124L97.9814 39.1249C97.9814 38.9404 98.0549 38.7559 98.2017 38.6452C98.3485 38.5345 98.532 38.4607 98.7155 38.4976C98.7889 38.4976 107.965 40.3056 114.645 42.0767C122.023 44.0323 127.235 47.0579 129.363 50.5632C130.024 51.6701 130.208 52.7033 129.841 53.6257C129.107 55.4706 126.39 56.1717 125.106 56.5038C124.922 56.5407 124.812 56.5775 124.702 56.6144C124.041 56.8358 122.977 57.0203 121.362 57.0203ZM99.4863 48.0173C100.551 48.9397 106.13 53.2937 114.939 55.0278C120.738 56.1717 123.417 55.692 124.298 55.4337C124.408 55.3968 124.555 55.3599 124.739 55.323C125.766 55.0647 128.115 54.4375 128.629 53.183C128.85 52.6295 128.739 52.0022 128.262 51.2274C127.124 49.3456 123.821 45.8403 114.278 43.2943C108.736 41.8184 101.505 40.3425 99.156 39.8628L99.4863 48.0173Z" fill="#141414"/>
<path d="M60.215 29.1629C48.9102 26.9859 42.0098 27.3918 38.9267 30.4912C37.2016 32.2254 38.7431 38.6087 40.5049 40.5643C41.5326 41.7081 43.0743 44.4017 46.4877 47.7962C47.9192 46.9845 53.4981 45.8775 60.1415 47.2058C83.4486 51.8181 97.8366 61.6329 97.8366 61.6329C97.8366 61.6329 104.333 64.7692 108.297 65.5441C112.261 66.319 116.996 66.651 120.043 65.4334C124.557 63.6623 128.044 58.8287 128.998 53.8844C128.998 53.8844 126.356 57.0207 116.372 55.9507C107.673 55.0282 97.9835 48.1283 89.2112 42.3723C78.2367 35.1403 66.3813 30.3436 60.215 29.1629Z" fill="#FC9B59"/>
<path d="M114.868 66.8724C112.372 66.8724 109.876 66.5035 108.225 66.1714C104.224 65.3965 97.8741 62.334 97.5804 62.2233C97.5437 62.2233 97.5438 62.1864 97.5071 62.1864C97.3603 62.0757 82.9723 52.3716 60.0323 47.8332C53.6458 46.5787 48.1769 47.5749 46.8189 48.3498C46.5619 48.4973 46.2683 48.4604 46.0848 48.239C43.6623 45.8407 42.1574 43.7744 41.1297 42.3723C40.6893 41.782 40.359 41.3023 40.0653 40.9702C38.2669 38.9408 36.4316 32.1516 38.5237 30.0484C41.7904 26.8014 48.7274 26.3218 60.3626 28.5357C66.7124 29.7533 78.788 34.7345 89.579 41.8189C90.3498 42.3354 91.1205 42.852 91.8913 43.3686C100.15 48.8663 108.702 54.5116 116.483 55.3234C125.879 56.3196 128.559 53.4786 128.559 53.4417C128.742 53.2203 129.036 53.1833 129.293 53.294C129.55 53.4047 129.697 53.6999 129.623 53.9582C128.595 59.3453 124.852 64.1789 120.3 65.9869C118.685 66.6511 116.777 66.8724 114.868 66.8724ZM98.131 61.1164C98.6816 61.3747 104.738 64.2527 108.408 64.9537C113.18 65.8762 117.327 65.8393 119.823 64.88C123.567 63.4041 126.687 59.6773 128.008 55.3234C126.283 56.2089 122.759 57.279 116.299 56.578C108.225 55.7293 99.5625 49.9733 91.1572 44.4017C90.3864 43.8851 89.6157 43.3685 88.8449 42.8889C78.2008 35.8783 66.3087 30.9709 60.069 29.7902C49.0211 27.6501 42.2309 28.056 39.3313 30.934C37.9732 32.2992 39.2211 38.2398 40.9095 40.1585C41.2398 40.5274 41.6069 41.0071 42.0473 41.6712C43.0383 43.0364 44.3963 44.8814 46.5619 47.0953C48.5806 46.2466 53.9394 45.3979 60.2158 46.6524C82.8255 51.0801 97.2501 60.526 98.131 61.1164Z" fill="#141414"/>
<path d="M59.773 54.6232C50.6337 50.9702 46.5229 47.8338 46.5229 47.8338C46.5229 47.8338 53.827 45.2876 62.6727 47.7599C61.1311 49.7155 60.2501 52.6675 59.773 54.6232Z" fill="#FB7C26"/>
<path d="M59.7737 55.2506C59.7003 55.2506 59.6271 55.2507 59.5536 55.2138C50.4143 51.5608 46.3035 48.4611 46.1567 48.3136C45.9732 48.166 45.8997 47.9446 45.9364 47.7232C45.9731 47.5018 46.12 47.3173 46.3402 47.2435C46.6338 47.1328 53.9012 44.6606 62.857 47.1697C63.0405 47.2435 63.2239 47.3911 63.2606 47.5756C63.2973 47.7601 63.2974 47.9815 63.1506 48.166C61.6457 50.1217 60.7648 53.1474 60.361 54.8079C60.3243 54.9924 60.2142 55.14 60.0307 55.2138C59.9573 55.2138 59.8838 55.2506 59.7737 55.2506ZM47.9551 48.0553C49.6435 49.1623 53.3506 51.3393 59.3334 53.7747C59.8105 52.0035 60.5445 49.8265 61.6457 48.0922C55.5528 46.6162 50.2675 47.5018 47.9551 48.0553Z" fill="#141414"/>
<path d="M100.441 112.921C100.441 112.921 114.572 114.766 122.17 112.478C127.712 110.818 133.622 107.128 137.512 100.634C142.1 92.9962 144.082 85.3214 145.147 81.7054C146.211 78.0894 149.771 66.6881 150.065 62.8138C150.506 56.8364 150.139 55.2498 147.129 54.9177C142.284 54.3642 140.779 63.4042 139.091 68.9019C140.375 64.8432 142.835 53.0359 137.329 53.0359C131.309 53.0359 133.475 63.9576 133.328 67.6105C133.328 59.5299 130.685 57.4637 125.914 58.3492C121.179 59.2348 118.94 61.3748 119.234 62.8876C120.115 67.3891 123.712 64.9539 125.694 64.8063C128.446 64.5849 129.511 69.4185 127.823 71.0051C126.134 72.6286 124.189 70.5992 123.455 68.6437C122.794 66.8726 121.583 64.2159 119.16 66.2453C117.913 67.2784 116.958 70.1196 119.234 72.9976C121.803 76.2077 126.795 79.8606 129.841 81.2996C130.098 85.2477 129.144 92.9224 126.428 97.0549C122.28 103.291 115.784 106.98 101.653 105.357" fill="#6FA467"/>
<path d="M111.745 114.249C105.983 114.249 100.734 113.585 100.367 113.548C100.037 113.511 99.78 113.179 99.8534 112.847C99.8901 112.515 100.22 112.256 100.551 112.33C100.698 112.33 114.645 114.138 122.023 111.924C125.693 110.817 132.52 107.866 137.035 100.375C141.145 93.5493 143.091 86.797 144.265 82.7751C144.375 82.3324 144.522 81.9634 144.596 81.5944C144.706 81.1886 144.853 80.7088 145.036 80.1554C146.394 75.6169 149.257 66.208 149.477 62.8134C149.918 56.5777 149.404 55.8398 147.092 55.5815C143.531 55.1756 141.879 61.3376 140.521 66.2819C140.411 66.7246 140.301 67.1674 140.154 67.5733C140.008 68.2005 139.824 68.717 139.714 69.1598C139.604 69.4919 139.274 69.6764 138.943 69.5657C138.613 69.455 138.429 69.1229 138.539 68.7908C138.686 68.3112 138.833 67.7578 138.98 67.2043C139.971 63.3669 140.962 57.0574 139.237 54.6221C138.796 53.9949 138.172 53.6997 137.365 53.6997C136.447 53.6997 135.75 53.9949 135.199 54.5484C133.364 56.5039 133.658 61.4482 133.878 64.7321C133.952 65.9128 134.025 66.9091 133.988 67.6471C133.988 67.9791 133.694 68.2743 133.364 68.2374C133.034 68.2374 132.777 67.9422 132.777 67.6101C132.777 63.4776 132.079 60.8579 130.611 59.6403C129.584 58.7916 128.116 58.5702 126.097 58.9392C123.234 59.4926 121.032 60.5626 120.187 61.7803C120.041 62.0385 119.857 62.3707 119.894 62.7396C120.077 63.7359 120.444 64.4001 120.922 64.6952C121.692 65.1749 122.94 64.8059 124.005 64.5108C124.592 64.3263 125.142 64.1787 125.656 64.1418C126.978 64.0311 128.115 64.8428 128.776 66.2819C129.474 67.8685 129.547 70.193 128.262 71.4106C127.418 72.2224 126.537 72.2223 125.987 72.1116C124.555 71.7796 123.417 70.2299 122.903 68.8278C122.683 68.2374 122.023 66.3925 121.068 66.1342C120.665 66.0235 120.187 66.208 119.6 66.6877C118.719 67.4256 117.581 69.8609 119.784 72.5545C122.316 75.6908 127.198 79.3068 130.171 80.672C130.391 80.7827 130.501 80.9671 130.538 81.1885C130.795 85.1366 129.877 92.9958 127.014 97.3128C122.023 104.803 114.462 107.386 101.652 105.873C101.322 105.836 101.065 105.541 101.101 105.172C101.138 104.84 101.432 104.582 101.799 104.619C117.214 106.427 122.683 101.556 125.987 96.6118C128.483 92.8482 129.51 85.6531 129.327 81.6313C126.207 80.0816 121.362 76.5025 118.829 73.3293C116.297 70.193 117.325 66.9829 118.829 65.7284C119.086 65.507 119.38 65.3225 119.637 65.1749C119.196 64.6584 118.866 63.9204 118.683 62.9611C118.572 62.3707 118.719 61.7065 119.16 61.0792C120.187 59.5295 122.647 58.3119 125.877 57.7215C128.299 57.2787 130.098 57.574 131.419 58.6809C131.859 59.0499 132.226 59.4557 132.52 59.9723C132.593 57.4633 132.997 55.028 134.318 53.6259C135.089 52.7773 136.117 52.3713 137.402 52.3713C138.613 52.3713 139.567 52.8511 140.265 53.8104C141.182 55.1018 141.476 57.0943 141.439 59.3081C142.724 56.2456 144.486 53.958 147.238 54.2532C150.945 54.659 151.129 57.0574 150.725 62.8134C150.468 66.3187 147.605 75.8383 146.211 80.4136C146.027 80.9671 145.88 81.4468 145.77 81.8527C145.66 82.2217 145.55 82.5906 145.44 83.0334C144.265 87.1291 142.247 93.9551 138.062 100.929C133.328 108.788 126.207 111.887 122.353 113.031C119.38 113.991 115.453 114.249 111.745 114.249ZM122.867 66.1342C123.381 66.7984 123.748 67.6839 124.041 68.4588C124.518 69.7133 125.436 70.7834 126.244 70.9679C126.647 71.0786 127.014 70.931 127.418 70.5989C128.152 69.8978 128.262 68.2005 127.638 66.8722C127.382 66.3187 126.794 65.3593 125.73 65.47C125.363 65.5069 124.849 65.6546 124.335 65.8022C123.895 65.876 123.381 66.0235 122.867 66.1342Z" fill="#141414"/>
<path d="M101.653 105.209L100.185 112.921L104.7 113.032L106.351 105.504L101.653 105.209Z" fill="#141414"/>
</g>
<path d="M119.611 31.2151L119.479 31.4011L121.1 32.5671L121.233 32.381L119.611 31.2151Z" fill="#141414"/>
<path d="M131.334 15.5696L131.068 15.9419L132.689 17.1096L132.954 16.7373L131.334 15.5696Z" fill="#141414"/>
<path d="M45.8558 134.568L45.4243 135.173L47.0446 136.341L47.4761 135.736L45.8558 134.568Z" fill="#141414"/>
<path d="M50.6086 7.49089L48.7939 8.32129L48.9356 8.63409L50.7503 7.80369L50.6086 7.49089Z" fill="#141414"/>
<path d="M118.99 158.988L117.176 159.819L117.223 159.923L119.037 159.092L118.99 158.988Z" fill="#141414"/>
<path d="M110.713 141.025L108.896 141.849L109.153 142.424L110.971 141.6L110.713 141.025Z" fill="#141414"/>
<path d="M20.2351 76.7096L20.0376 78.7041L20.6611 78.7662L20.8586 76.7717L20.2351 76.7096Z" fill="#141414"/>
<path d="M1.34287 74.8511L1.1665 76.8477L1.28056 76.8578L1.45692 74.8612L1.34287 74.8511Z" fill="#141414"/>
<path d="M165.87 90.5887L165.672 92.5833L166.013 92.6173L166.211 90.6228L165.87 90.5887Z" fill="#141414"/>
<path d="M90.6433 0.894236L90.5991 1.3501L92.5835 1.54358L92.6277 1.08772L90.6433 0.894236Z" fill="#141414"/>
<path d="M76.6847 166.682L74.6909 166.625L76.6847 166.682Z" fill="#141414"/>
<path d="M76.5464 147.151L76.4795 147.835L78.4637 148.03L78.5306 147.346L76.5464 147.151Z" fill="#141414"/>
<path d="M140.749 56.4642L140.491 56.5854L141.335 58.4012L141.593 58.28L140.749 56.4642Z" fill="#141414"/>
<path d="M158.714 48.4875L158.3 48.6799L159.138 50.4989L159.551 50.3065L158.714 48.4875Z" fill="#141414"/>
<path d="M8.72821 119.383L7.98779 117.493L8.72821 119.383Z" fill="#141414"/>
<path d="M25.8861 109.216L25.2651 109.504L26.0993 111.324L26.7203 111.037L25.8861 109.216Z" fill="#141414"/>
<path d="M135.64 119.791L134.478 121.42L134.895 121.72L136.056 120.091L135.64 119.791Z" fill="#141414"/>
<path d="M151.519 131.435L150.357 133.064L150.543 133.197L151.704 131.569L151.519 131.435Z" fill="#141414"/>
<path d="M17.0514 34.5888L15.8896 36.2178L16.0749 36.3513L17.2366 34.7224L17.0514 34.5888Z" fill="#141414"/>
<path d="M32.5077 45.4346L31.3462 47.0637L31.763 47.364L32.9245 45.7349L32.5077 45.4346Z" fill="#141414"/>
</svg>
