<svg width="65" height="65" viewBox="0 0 65 65" fill="none" xmlns="http://www.w3.org/2000/svg">
<path d="M34.948 7.86017C32.8195 7.63861 30.6689 7.72721 28.5626 8.05955L28.474 8.08173C26.3677 8.43622 24.2835 9.05657 22.3324 9.94281L19.2949 3.25171C21.8446 2.09959 24.5495 1.30197 27.2988 0.836696L27.4096 0.814545C30.1367 0.371425 32.9084 0.282785 35.6798 0.548657L34.948 7.86017Z" fill="#F3EAD4"/>
<path d="M22.3317 10.2971C22.1765 10.2971 22.0433 10.2085 21.9768 10.0756L18.9394 3.38442C18.8951 3.2958 18.8951 3.18506 18.9394 3.09644C18.9838 3.00781 19.0502 2.91919 19.1389 2.87488C21.7108 1.72277 24.4379 0.902966 27.2315 0.43769L27.3424 0.41554C30.1138 -0.0275803 32.9297 -0.116194 35.7012 0.149679C35.9229 0.171835 36.078 0.349061 36.0558 0.570621L35.3465 7.8821C35.3465 7.99288 35.2799 8.0815 35.2133 8.14796C35.1246 8.21443 35.036 8.23662 34.9251 8.23662C32.841 8.03722 30.7346 8.10366 28.6283 8.436L28.5618 8.45818C26.4777 8.81268 24.4379 9.41088 22.509 10.275C22.4203 10.2971 22.376 10.2971 22.3317 10.2971ZM19.804 3.42878L22.5311 9.4109C24.4157 8.59113 26.3891 8.01506 28.4289 7.68272L28.5174 7.66054C30.5351 7.3282 32.597 7.26177 34.6147 7.41686L35.2356 0.88081C32.6416 0.65925 30.0252 0.770041 27.4532 1.16885L27.3647 1.191C24.7484 1.63412 22.1986 2.38745 19.804 3.42878Z" fill="#141414"/>
<path d="M51.2209 6.39765L46.9418 12.3576C43.2613 9.72103 39.1152 8.2366 34.9247 7.83779L35.6343 0.526306C41.0885 1.08021 46.454 2.98562 51.2209 6.39765Z" fill="#F3EAD4"/>
<path d="M46.941 12.7563C46.8523 12.7563 46.7858 12.7341 46.7193 12.6898C43.2384 10.1862 39.1366 8.65744 34.9018 8.23648C34.6801 8.21432 34.5248 8.03704 34.547 7.81548L35.2565 0.504027C35.2565 0.393247 35.3229 0.304607 35.3894 0.238139C35.4781 0.171671 35.567 0.149536 35.6779 0.149536C41.3538 0.703436 46.8079 2.7418 51.4639 6.08736C51.5526 6.15382 51.597 6.24242 51.6192 6.33104C51.6413 6.44182 51.6192 6.53046 51.5527 6.61908L47.2736 12.579C47.1849 12.712 47.0741 12.7563 46.941 12.7563ZM35.3674 7.50532C39.4913 7.9706 43.4379 9.45505 46.8746 11.8257L50.7102 6.48612C46.3424 3.42859 41.2651 1.5232 36.0104 0.947147L35.3674 7.50532Z" fill="#141414"/>
<path d="M61.7302 19.115L55.0563 22.1726C53.327 18.3839 50.5998 14.9719 46.9637 12.3796L51.2428 6.41968C55.9432 9.78739 59.4686 14.1964 61.7302 19.115Z" fill="#F3EAD4"/>
<path d="M55.034 22.5493C54.8788 22.5493 54.7456 22.4607 54.6791 22.3278C52.9276 18.4948 50.1562 15.1492 46.7196 12.6899C46.5422 12.557 46.4978 12.3133 46.6308 12.1582L50.9099 6.19823C50.9765 6.10961 51.0653 6.06525 51.154 6.0431C51.2648 6.02094 51.3535 6.04311 51.4421 6.10958C56.0539 9.41082 59.7123 13.8642 62.0625 18.9822C62.1068 19.0709 62.1068 19.1817 62.0625 19.2703C62.0181 19.3589 61.9515 19.4475 61.8628 19.4918L55.1892 22.5493C55.1449 22.5493 55.1005 22.5493 55.034 22.5493ZM47.4956 12.2911C50.7992 14.7505 53.4819 17.963 55.2334 21.6631L61.2198 18.9379C58.9804 14.1966 55.5661 10.0755 51.3313 6.95151L47.4956 12.2911Z" fill="#141414"/>
<path d="M64.5013 35.5099L57.1846 34.8009C57.3841 32.6739 57.2955 30.5469 56.9629 28.4643C56.6081 26.293 55.9651 24.166 55.0339 22.1498L61.7075 19.0923C62.9048 21.7067 63.7473 24.454 64.1908 27.2457C64.6564 29.993 64.7673 32.7625 64.5013 35.5099Z" fill="#F3EAD4"/>
<path d="M64.5023 35.8869C64.4801 35.8869 64.4801 35.8869 64.4579 35.8869L57.1413 35.1778C56.9195 35.1557 56.7642 34.9784 56.7864 34.7569C56.9859 32.6742 56.8972 30.5915 56.5647 28.531C56.2099 26.3819 55.567 24.2992 54.658 22.3273C54.6136 22.2387 54.6136 22.128 54.658 22.0393C54.7023 21.9507 54.7689 21.8621 54.8576 21.8178L61.5312 18.7602C61.7308 18.6716 61.9524 18.7602 62.0411 18.9596C63.2384 21.574 64.1032 24.3657 64.5688 27.2238C65.0122 29.9712 65.123 32.785 64.857 35.5545C64.857 35.6653 64.7905 35.7539 64.724 35.8204C64.6797 35.8647 64.591 35.8869 64.5023 35.8869ZM57.6068 34.4467L64.1474 35.067C64.347 32.4969 64.2361 29.8826 63.8148 27.3346C63.3714 24.6759 62.5955 22.0836 61.5091 19.6243L55.5228 22.3495C56.3653 24.2771 56.986 26.3154 57.3186 28.3981C57.6733 30.4143 57.762 32.4527 57.6068 34.4467Z" fill="#141414"/>
<path d="M58.6704 51.1301L52.7063 46.854C55.3226 43.154 56.8081 39.0108 57.185 34.8011L64.5017 35.5101C63.9917 40.9605 62.0848 46.3666 58.6704 51.1301Z" fill="#F3EAD4"/>
<path d="M58.67 51.5289C58.5813 51.5289 58.5148 51.5068 58.4483 51.4624L52.4842 47.1864C52.3068 47.0534 52.2624 46.8319 52.3954 46.6546C54.9008 43.154 56.4086 39.033 56.8077 34.779C56.8077 34.6682 56.8741 34.5796 56.9406 34.5131C57.0293 34.4466 57.118 34.4245 57.2288 34.4245L64.5455 35.1335C64.7672 35.1556 64.9225 35.3329 64.9004 35.5545C64.3682 41.2264 62.3283 46.6989 59.0026 51.3738C58.936 51.4625 58.8474 51.5068 58.7588 51.5289C58.7144 51.5289 58.6922 51.5289 58.67 51.5289ZM53.2602 46.7654L58.6035 50.5984C61.641 46.2115 63.5477 41.1377 64.102 35.8425L57.5614 35.2221C57.0958 39.3432 55.6104 43.3312 53.2602 46.7654Z" fill="#141414"/>
<path d="M58.6706 51.13L58.6265 51.1965C55.2342 55.9157 50.822 59.4386 45.8777 61.6985L42.8402 55.0295C46.6315 53.3014 50.0459 50.5762 52.6622 46.9426L52.7066 46.8761L58.6706 51.13Z" fill="#F3EAD4"/>
<path d="M45.8778 62.0971C45.8335 62.0971 45.789 62.0972 45.7447 62.075C45.656 62.0307 45.5673 61.9642 45.5229 61.8756L42.4854 55.2067C42.3967 55.0073 42.4855 54.7857 42.685 54.6971C46.5207 52.9467 49.8686 50.1772 52.3518 46.7209L52.3962 46.6544C52.4627 46.5658 52.5515 46.5215 52.6402 46.4993C52.751 46.4772 52.8397 46.4993 52.9284 46.5658L58.8924 50.8419C58.9811 50.9084 59.0255 50.997 59.0477 51.0856C59.0698 51.1742 59.0477 51.285 58.9812 51.3737L58.9368 51.4401C55.6332 56.0486 51.1767 59.7265 46.0329 62.0528C45.9885 62.0972 45.9443 62.0971 45.8778 62.0971ZM43.3502 55.2288L46.0772 61.2109C50.8442 58.9731 55.0125 55.5168 58.1387 51.2407L52.7952 47.4078C50.3342 50.7533 47.075 53.4341 43.3502 55.2288Z" fill="#141414"/>
<path d="M45.8772 61.7206C43.2831 62.9171 40.5338 63.7368 37.7402 64.2021C35.0131 64.6452 32.2416 64.756 29.4702 64.4901L30.1795 57.1787C32.308 57.3781 34.4587 57.3116 36.5428 56.9571C38.7156 56.6026 40.822 55.9601 42.8397 55.0295L45.8772 61.7206Z" fill="#F3EAD4"/>
<path d="M32.4855 64.9996C31.4656 64.9996 30.4456 64.9553 29.4479 64.8667C29.337 64.8667 29.2483 64.8002 29.1818 64.7338C29.1153 64.6451 29.0932 64.5565 29.0932 64.4457L29.8028 57.1342C29.8249 56.9127 30.0022 56.7576 30.2239 56.7797C32.308 56.9791 34.4143 56.9127 36.4984 56.5582C38.6491 56.2037 40.7332 55.5611 42.7065 54.6749C42.7952 54.6306 42.9062 54.6306 42.9949 54.6749C43.0836 54.7192 43.1723 54.7857 43.2166 54.8743L46.254 61.5433C46.3427 61.7427 46.2541 61.9642 46.0546 62.0529C43.4383 63.2493 40.6668 64.0912 37.8067 64.5565C36.0329 64.8667 34.2592 64.9996 32.4855 64.9996ZM29.8913 64.1356C32.4854 64.3571 35.1018 64.2463 37.6737 63.8253C40.3343 63.3822 42.9061 62.6067 45.3671 61.5433L42.64 55.5611C40.7111 56.4031 38.6714 57.0013 36.5872 57.3558C34.5696 57.6881 32.5298 57.7767 30.49 57.6217L29.8913 64.1356Z" fill="#141414"/>
<path d="M29.47 64.4899C23.9936 63.9803 18.5836 62.0528 13.7946 58.6186L18.0736 52.6586C21.7763 55.3174 25.9445 56.8018 30.1793 57.2006L29.47 64.4899Z" fill="#F3EAD4"/>
<path d="M29.4698 64.8664C29.4476 64.8664 29.4476 64.8664 29.4254 64.8664C23.7273 64.3347 18.2286 62.2742 13.5504 58.9287C13.373 58.7957 13.3288 58.552 13.4618 58.3969L17.7409 52.4369C17.8739 52.2597 18.0957 52.2153 18.2731 52.3483C21.7984 54.8741 25.9001 56.4029 30.2014 56.8017C30.3123 56.8017 30.401 56.8681 30.4675 56.9346C30.534 57.0232 30.5561 57.1118 30.5561 57.2226L29.8465 64.5341C29.8244 64.7113 29.6693 64.8664 29.4698 64.8664ZM14.3264 58.5077C18.7164 61.5652 23.8159 63.4928 29.1149 64.0467L29.7357 57.5106C25.5896 57.0675 21.5987 55.5609 18.1399 53.1681L14.3264 58.5077Z" fill="#141414"/>
<path d="M18.075 52.6366L13.7959 58.5966C9.05118 55.2067 5.52589 50.7533 3.26437 45.8126L9.93796 42.7551C11.6674 46.5881 14.4167 50.0222 18.075 52.6366Z" fill="#F3EAD4"/>
<path d="M13.796 58.9953C13.7073 58.9953 13.6408 58.9732 13.5743 58.9289C8.94041 55.6055 5.25978 51.13 2.90958 45.9898C2.82089 45.7904 2.90966 45.5688 3.10921 45.4802L9.7828 42.4227C9.87149 42.3784 9.98252 42.3784 10.0712 42.4227C10.1599 42.467 10.2486 42.5335 10.2929 42.6221C12.0445 46.4994 14.8159 49.8449 18.2968 52.3485C18.3855 52.415 18.4299 52.5037 18.4521 52.5923C18.4742 52.7031 18.4521 52.7917 18.3856 52.8803L14.1063 58.8403C14.0176 58.9289 13.9069 58.9953 13.796 58.9953ZM3.77436 46.012C6.0137 50.7755 9.4281 54.9408 13.7072 58.0648L17.5429 52.7252C14.2171 50.2659 11.5344 47.0089 9.76071 43.2646L3.77436 46.012Z" fill="#141414"/>
<path d="M9.93657 42.7775L3.26298 45.8351C2.08788 43.2428 1.26739 40.5398 0.80179 37.7481C0.779618 37.593 0.757489 37.4379 0.735318 37.2828C0.336228 34.6684 0.269842 32.0097 0.535903 29.351L7.85256 30.06C7.65301 32.0983 7.69718 34.1588 8.00759 36.1972C8.02976 36.308 8.0298 36.4409 8.05197 36.5517C8.40672 38.6787 9.02753 40.7835 9.93657 42.7775Z" fill="#F3EAD4"/>
<path d="M3.26347 46.2117C3.21913 46.2117 3.17466 46.2117 3.13031 46.1896C3.04163 46.1453 2.95294 46.0788 2.9086 45.9901C1.7335 43.3979 0.891147 40.6284 0.425541 37.8146C0.40337 37.6595 0.381025 37.5044 0.358853 37.3272C-0.0402373 34.6906 -0.106622 31.9875 0.159438 29.3066C0.181609 29.0851 0.358853 28.93 0.58057 28.9522L7.89723 29.6612C8.00808 29.6612 8.09681 29.7276 8.16333 29.7941C8.22985 29.8827 8.2521 29.9713 8.2521 30.0821C8.05256 32.0761 8.09694 34.1145 8.40735 36.1086C8.42952 36.2194 8.42935 36.3523 8.45152 36.463C8.80626 38.59 9.42716 40.6505 10.314 42.6002C10.4027 42.7997 10.3139 43.0212 10.1144 43.1098L3.4408 46.1674C3.37429 46.1895 3.30782 46.2117 3.26347 46.2117ZM0.868975 29.7719C0.647258 32.2534 0.735858 34.7571 1.11278 37.2164C1.13495 37.3715 1.15708 37.5265 1.17925 37.6816C1.62268 40.3182 2.37656 42.8883 3.4408 45.3033L9.42716 42.5781C8.60681 40.6727 8.00817 38.6565 7.65342 36.596C7.63125 36.4631 7.60904 36.3523 7.60904 36.2194C7.32081 34.2918 7.25442 32.3199 7.40962 30.3923L0.868975 29.7719Z" fill="#141414"/>
<path d="M7.83106 30.0601L0.514404 29.3511C1.04652 23.9229 2.97555 18.5611 6.36782 13.7976L6.4122 13.7311L12.3763 18.0072L12.3319 18.0737C9.73778 21.7294 8.25232 25.8726 7.83106 30.0601Z" fill="#F3EAD4"/>
<path d="M7.83069 30.4367C7.80852 30.4367 7.80848 30.4367 7.78631 30.4367L0.469651 29.7278C0.358792 29.7278 0.270279 29.6613 0.203764 29.5948C0.137249 29.5283 0.11499 29.4175 0.11499 29.3068C0.669282 23.657 2.70903 18.2066 6.05696 13.576L6.10135 13.5096C6.23438 13.3323 6.47835 13.288 6.63355 13.4209L12.5976 17.697C12.775 17.83 12.8194 18.0515 12.6864 18.2288L12.642 18.2952C10.1366 21.7737 8.60683 25.8504 8.18557 30.0822C8.20774 30.2816 8.03024 30.4367 7.83069 30.4367ZM0.957471 28.9966L7.49812 29.617C7.96372 25.4738 9.47136 21.5079 11.8881 18.0737L6.54478 14.2407C3.46291 18.6497 1.53393 23.7235 0.957471 28.9966Z" fill="#141414"/>
<path d="M22.3304 9.92033C18.6055 11.6042 15.2355 14.2186 12.6192 17.7193C12.5527 17.8079 12.4861 17.8965 12.4196 18.0073L6.45532 13.7312C6.54401 13.5983 6.63287 13.4653 6.74373 13.3545C10.1138 8.81253 14.4594 5.42269 19.2928 3.2514L22.3304 9.92033Z" fill="#F3EAD4"/>
<path d="M12.4198 18.384C12.3311 18.384 12.2646 18.3618 12.1981 18.3175L6.21175 14.0414C6.03437 13.9084 5.98994 13.6869 6.12297 13.5097C6.21166 13.3767 6.32269 13.2438 6.41138 13.1108C9.71496 8.67963 14.1049 5.13465 19.1157 2.8969C19.3153 2.80827 19.5369 2.89693 19.6256 3.09633L22.6632 9.78744C22.7075 9.87606 22.7075 9.98685 22.6632 10.0755C22.6188 10.1641 22.5522 10.2527 22.4636 10.297C18.6944 11.9809 15.3909 14.6396 12.9076 17.9852C12.8411 18.0738 12.7745 18.1624 12.708 18.251C12.6415 18.3396 12.5307 18.384 12.4198 18.384ZM6.98776 13.6426L12.331 17.4756C14.8143 14.1522 18.0737 11.4935 21.8207 9.74313L19.0934 3.76101C14.3487 5.97661 10.1805 9.36644 7.03214 13.5761C7.00997 13.5982 7.00993 13.6204 6.98776 13.6426Z" fill="#141414"/>
<path d="M52.7075 46.8765L52.6631 46.943C50.0468 50.5766 46.6546 53.3017 42.8411 55.0299C40.8234 55.9383 38.717 56.5808 36.5442 56.9575C34.4379 57.312 32.3094 57.3784 30.1809 57.179C25.9461 56.7802 21.7779 55.2958 18.0752 52.6371C14.4169 50.0226 11.6898 46.5885 9.9382 42.7555C9.02916 40.7615 8.40835 38.6788 8.0536 36.5296C8.03143 36.4189 8.00922 36.2859 8.00922 36.1751C7.69881 34.1589 7.65464 32.0984 7.85419 30.0379C8.25328 25.8504 9.73865 21.7295 12.3771 18.0516L12.4215 17.9851C12.488 17.8965 12.5546 17.8078 12.6211 17.697C15.2374 14.1964 18.5852 11.5598 22.3323 9.89814C24.3055 9.0119 26.3675 8.3915 28.4739 8.037L28.5624 8.01488C30.6687 7.68254 32.8193 7.59388 34.9478 7.81544C39.1383 8.21425 43.2844 9.69873 46.9649 12.3353C50.6011 14.9276 53.3282 18.3396 55.0576 22.1282C55.9888 24.1444 56.6318 26.2714 56.9866 28.4427C57.3413 30.5254 57.4078 32.6524 57.2083 34.7793C56.8092 39.0111 55.3459 43.1764 52.7075 46.8765Z" fill="#F3EAD4"/>
<path d="M32.4861 57.6665C31.7101 57.6665 30.912 57.6222 30.136 57.5557C25.7239 57.1348 21.4669 55.5617 17.8307 52.9473C14.2389 50.3772 11.3787 46.8987 9.58282 42.9106C8.67378 40.8944 8.03076 38.7675 7.65384 36.5962C7.63167 36.4632 7.60945 36.3525 7.60945 36.2195C7.29905 34.159 7.25466 32.0763 7.45421 29.9937C7.87547 25.6289 9.47187 21.4193 12.0438 17.83L12.0882 17.7636C12.1547 17.6749 12.2434 17.5641 12.3099 17.4755C14.8596 14.0413 18.2742 11.294 22.1542 9.56584C24.1275 8.6796 26.2336 8.03708 28.4065 7.68258L28.4952 7.6604C30.6459 7.30591 32.8408 7.23946 34.9915 7.46102C39.3815 7.88199 43.5941 9.47721 47.1859 12.0473C50.7556 14.5952 53.5937 18.0294 55.4117 21.9953C56.343 24.0337 57.0081 26.1828 57.3628 28.3984C57.7176 30.5254 57.7841 32.6967 57.5845 34.8237C57.1854 39.2106 55.6112 43.4424 53.0393 47.076L52.9949 47.1424C50.4452 50.7095 46.9864 53.5455 43.0177 55.3623C40.9779 56.2928 38.8273 56.9575 36.6323 57.312C35.2355 57.5557 33.8608 57.6665 32.4861 57.6665ZM32.5305 8.1257C31.2224 8.1257 29.9141 8.23646 28.6282 8.43586L28.5617 8.45804C26.4776 8.81254 24.4378 9.41074 22.5089 10.2748C18.7397 11.9587 15.4362 14.6174 12.953 17.9629C12.8864 18.0516 12.8198 18.1402 12.7533 18.2288L12.7089 18.2953C10.2035 21.7738 8.67378 25.8505 8.25252 30.0823C8.05297 32.0985 8.09736 34.1147 8.40776 36.1087C8.42994 36.2195 8.42976 36.3524 8.45193 36.4632C8.80668 38.5902 9.42757 40.6507 10.3144 42.6004C12.066 46.4777 14.8374 49.8233 18.3183 52.3269C21.8436 54.8527 25.9456 56.3814 30.2469 56.7803C32.331 56.9797 34.4373 56.9132 36.5214 56.5587C38.6721 56.2042 40.7562 55.5617 42.7295 54.6754C46.5652 52.9251 49.913 50.1556 52.3963 46.6993L52.4406 46.6328C54.946 43.1322 56.4538 39.0112 56.8529 34.7572C57.0524 32.6745 56.9638 30.5919 56.6312 28.5313C56.2764 26.3822 55.6333 24.2996 54.7243 22.3277C52.9727 18.4947 50.2014 15.1491 46.7648 12.6898C43.2838 10.1862 39.1819 8.65745 34.9471 8.23648C34.1046 8.14786 33.3287 8.1257 32.5305 8.1257Z" fill="#141414"/>
<path d="M46.5552 12.0775L46.5037 12.1495L47.1349 12.6006L47.1864 12.5286L46.5552 12.0775Z" fill="#141414"/>
<path d="M51.1172 6.02412L51.0139 6.16815L51.6447 6.61993L51.748 6.4759L51.1172 6.02412Z" fill="#141414"/>
<path d="M17.8482 52.065L17.6803 52.299L18.3109 52.7509L18.4789 52.5168L17.8482 52.065Z" fill="#141414"/>
<path d="M22.6035 9.7444L21.8972 10.0657L21.9615 10.2069L22.6678 9.88559L22.6035 9.7444Z" fill="#141414"/>
<path d="M19.6963 2.8987L18.99 3.21997L19.0451 3.34099L19.7514 3.01972L19.6963 2.8987Z" fill="#141414"/>
<path d="M46.3134 61.5129L45.6072 61.8345L45.6256 61.8748L46.3318 61.5532L46.3134 61.5129Z" fill="#141414"/>
<path d="M43.0915 54.5632L42.3841 54.882L42.4844 55.1042L43.1918 54.7854L43.0915 54.5632Z" fill="#141414"/>
<path d="M7.87619 29.6791L7.7995 30.4507L8.04216 30.4748L8.11885 29.7032L7.87619 29.6791Z" fill="#141414"/>
<path d="M0.522338 28.9604L0.453857 29.7328L0.498017 29.7367L0.566497 28.9643L0.522338 28.9604Z" fill="#141414"/>
<path d="M64.5595 35.049L64.4825 35.8207L64.6149 35.8339L64.6919 35.0622L64.5595 35.049Z" fill="#141414"/>
<path d="M57.0743 34.4161L57.0017 35.1882L57.1562 35.2027L57.2288 34.4306L57.0743 34.4161Z" fill="#141414"/>
<path d="M34.5407 7.84429L34.5292 7.95447L35.3011 8.03481L35.3125 7.92462L34.5407 7.84429Z" fill="#141414"/>
<path d="M35.2793 0.345967L35.2621 0.522339L36.0345 0.597371L36.0516 0.420999L35.2793 0.345967Z" fill="#141414"/>
<path d="M29.8468 64.4892L29.0708 64.4677L29.8468 64.4892Z" fill="#141414"/>
<path d="M29.793 56.9334L29.7671 57.198L30.5393 57.2737L30.5653 57.009L29.793 56.9334Z" fill="#141414"/>
<path d="M54.7823 21.8467L54.6819 21.8936L55.0104 22.5961L55.1108 22.5492L54.7823 21.8467Z" fill="#141414"/>
<path d="M61.7739 18.7599L61.6129 18.8344L61.9389 19.5381L62.0999 19.4636L61.7739 18.7599Z" fill="#141414"/>
<path d="M3.3968 46.1892L3.10861 45.4581L3.3968 46.1892Z" fill="#141414"/>
<path d="M10.0749 42.2565L9.83316 42.3678L10.1578 43.0721L10.3995 42.9609L10.0749 42.2565Z" fill="#141414"/>
<path d="M52.7932 46.3474L52.3411 46.9777L52.5032 47.0939L52.9553 46.4636L52.7932 46.3474Z" fill="#141414"/>
<path d="M58.9748 50.8524L58.5226 51.4826L58.5947 51.5343L59.0469 50.904L58.9748 50.8524Z" fill="#141414"/>
<path d="M6.63699 13.3827L6.18481 14.0129L6.25692 14.0645L6.7091 13.4343L6.63699 13.3827Z" fill="#141414"/>
<path d="M12.6525 17.5789L12.2004 18.2092L12.3627 18.3254L12.8148 17.6951L12.6525 17.5789Z" fill="#141414"/>
<path d="M38.1196 26.7903L28.1708 26.8059L28.1735 25.0892C28.1754 24.0037 28.5727 22.9548 29.2909 22.1391C30.0092 21.3234 30.9991 20.7967 32.0753 20.6578C33.1515 20.5188 34.2402 20.7771 35.1374 21.3843C36.0347 21.9915 36.6789 22.9059 36.9495 23.9563C36.9793 24.0907 37.0359 24.2176 37.1157 24.3296C37.1956 24.4416 37.2971 24.5363 37.4143 24.6082C37.5315 24.6801 37.662 24.7277 37.7981 24.7481C37.9342 24.7686 38.073 24.7615 38.2065 24.7273C38.34 24.6931 38.4653 24.6325 38.5751 24.549C38.6849 24.4655 38.7769 24.3609 38.8457 24.2414C38.9144 24.1218 38.9586 23.9897 38.9755 23.8529C38.9924 23.7162 38.9818 23.5775 38.9441 23.4451C38.5521 21.9071 37.6121 20.567 36.3006 19.6764C34.9891 18.7858 33.3964 18.406 31.8215 18.6082C30.2465 18.8105 28.7977 19.5809 27.747 20.7748C26.6963 21.9687 26.1161 23.504 26.1152 25.0925L26.1123 26.8777C23.4523 27.2362 21.9922 29.0032 21.9875 31.9654L21.9743 40.2051C21.8926 40.901 21.9692 41.6059 22.1982 42.2671C22.4273 42.9282 22.8029 43.5285 23.297 44.023C23.7912 44.5175 24.391 44.8935 25.0516 45.1228C25.7123 45.352 26.4166 45.4286 27.112 45.3469L38.09 45.3297C38.7851 45.4093 39.4897 45.3305 40.1511 45.0991C40.8124 44.8678 41.4135 44.49 41.9092 43.9939C42.4049 43.4979 42.7824 42.8964 43.0136 42.2345C43.2448 41.5727 43.3236 40.8675 43.2441 40.1718L43.2573 31.9321C43.339 31.2362 43.2624 30.5313 43.0334 29.8701C42.8043 29.209 42.4287 28.6087 41.9345 28.1142C41.4404 27.6197 40.8406 27.2437 40.18 27.0144C39.5193 26.7852 38.815 26.7086 38.1196 26.7903ZM34.3607 34.6926C34.357 34.9589 34.2901 35.2207 34.1657 35.4565C34.0413 35.6924 33.8628 35.8955 33.645 36.0491L33.6406 38.8136C33.6401 39.0867 33.5313 39.3489 33.338 39.5423C33.1447 39.7358 32.8827 39.8447 32.6098 39.8452C32.3368 39.8456 32.0752 39.7375 31.8825 39.5446C31.6898 39.3518 31.5818 39.09 31.5822 38.8168L31.5867 36.018C31.3828 35.8634 31.2171 35.6641 31.1021 35.4353C30.9871 35.2065 30.9259 34.9543 30.9233 34.698C30.9229 34.4729 30.9669 34.2499 31.0528 34.0416C31.1386 33.8333 31.2646 33.6439 31.4236 33.4842C31.5825 33.3245 31.7713 33.1976 31.9791 33.1109C32.1869 33.0241 32.4096 32.9792 32.6344 32.9787L32.6482 32.9787C33.1031 32.9779 33.5391 33.1581 33.8603 33.4795C34.1814 33.801 34.3615 34.2373 34.3607 34.6926Z" stroke="#1A1A1A"/>
</svg>
