<svg width="65" height="66" viewBox="0 0 65 66" fill="none" xmlns="http://www.w3.org/2000/svg">
<path d="M34.9482 7.86557C32.8197 7.64385 30.6691 7.73252 28.5628 8.06509L28.4743 8.08729C26.368 8.44203 24.2838 9.06282 22.3327 9.94969L19.2951 3.25385C21.8448 2.10092 24.5497 1.30273 27.299 0.837127L27.4099 0.814961C30.137 0.371527 32.9086 0.282824 35.6801 0.548885L34.9482 7.86557Z" fill="#F3EAD4"/>
<path d="M22.3318 10.3043C22.1766 10.3043 22.0435 10.2156 21.9769 10.0826L18.9396 3.3867C18.8953 3.29801 18.8953 3.18719 18.9396 3.09851C18.9839 3.00982 19.0503 2.92113 19.139 2.87679C21.7109 1.72386 24.438 0.903483 27.2317 0.437878L27.3425 0.415712C30.114 -0.027722 32.9298 -0.116398 35.7013 0.149662C35.923 0.171834 36.0781 0.349186 36.056 0.570903L35.3466 7.88756C35.3466 7.99842 35.28 8.08709 35.2135 8.15361C35.1248 8.22012 35.0362 8.24233 34.9253 8.24233C32.8412 8.04278 30.7348 8.10928 28.6285 8.44185L28.562 8.46404C26.4778 8.81879 24.4381 9.41742 22.5092 10.2821C22.4205 10.3043 22.3762 10.3043 22.3318 10.3043ZM19.8042 3.43108L22.5312 9.41744C24.4158 8.59709 26.3892 8.02061 28.429 7.68804L28.5176 7.66584C30.5352 7.33327 32.5972 7.26678 34.6148 7.42199L35.2358 0.881312C32.6417 0.659595 30.0253 0.770464 27.4534 1.16955L27.3648 1.19172C24.7486 1.63515 22.1987 2.38901 19.8042 3.43108Z" fill="#141414"/>
<path d="M51.2216 6.40205L46.9425 12.3662C43.262 9.72778 39.1158 8.2423 34.9254 7.84321L35.6349 0.52655C41.0892 1.08084 46.4547 2.98761 51.2216 6.40205Z" fill="#F3EAD4"/>
<path d="M46.9412 12.7652C46.8525 12.7652 46.786 12.743 46.7195 12.6987C43.2385 10.1933 39.1368 8.66346 34.902 8.2422C34.6803 8.22003 34.5249 8.04262 34.5471 7.82091L35.2567 0.504278C35.2567 0.393419 35.3231 0.304716 35.3896 0.238201C35.4783 0.171686 35.5671 0.149536 35.678 0.149536C41.354 0.703828 46.808 2.74363 51.4641 6.09156C51.5528 6.15807 51.5971 6.24673 51.6193 6.33541C51.6415 6.44627 51.6194 6.53497 51.5528 6.62366L47.2738 12.5878C47.1851 12.7208 47.0742 12.7652 46.9412 12.7652ZM35.3675 7.51052C39.4914 7.97613 43.4381 9.46163 46.8747 11.834L50.7104 6.49061C46.3425 3.43091 41.2653 1.52418 36.0106 0.947711L35.3675 7.51052Z" fill="#141414"/>
<path d="M61.7305 19.1285L55.0567 22.1882C53.3273 18.3968 50.6002 14.9824 46.9641 12.3883L51.2431 6.42413C55.9435 9.79423 59.469 14.2064 61.7305 19.1285Z" fill="#F3EAD4"/>
<path d="M55.0344 22.5652C54.8792 22.5652 54.746 22.4765 54.6795 22.3435C52.9279 18.5078 50.1566 15.1599 46.72 12.6988C46.5426 12.5658 46.4982 12.3219 46.6312 12.1667L50.9103 6.20256C50.9768 6.11387 51.0656 6.06949 51.1543 6.04731C51.2652 6.02514 51.3538 6.04732 51.4425 6.11384C56.0542 9.41742 59.7126 13.874 62.0628 18.9956C62.1072 19.0843 62.1072 19.1952 62.0628 19.2839C62.0185 19.3725 61.9519 19.4612 61.8632 19.5056L55.1896 22.5652C55.1453 22.5652 55.1009 22.5652 55.0344 22.5652ZM47.496 12.2998C50.7996 14.7608 53.4822 17.9757 55.2338 21.6784L61.2201 18.9513C58.9808 14.2065 55.5664 10.0826 51.3317 6.95637L47.496 12.2998Z" fill="#141414"/>
<path d="M64.5019 35.5351L57.1852 34.8257C57.3848 32.6972 57.2961 30.5687 56.9635 28.4846C56.6088 26.3118 55.9658 24.1833 55.0345 22.1657L61.7081 19.106C62.9054 21.7222 63.748 24.4715 64.1914 27.2651C64.657 30.0144 64.768 32.7859 64.5019 35.5351Z" fill="#F3EAD4"/>
<path d="M64.5027 35.9123C64.4805 35.9123 64.4804 35.9123 64.4583 35.9123L57.1416 35.2028C56.9199 35.1806 56.7646 35.0032 56.7867 34.7815C56.9863 32.6974 56.8976 30.6132 56.565 28.5513C56.2103 26.4006 55.5674 24.3165 54.6583 22.3432C54.614 22.2545 54.614 22.1437 54.6583 22.055C54.7027 21.9663 54.7693 21.8776 54.858 21.8333L61.5316 18.7736C61.7311 18.6849 61.9528 18.7736 62.0415 18.9731C63.2387 21.5894 64.1035 24.383 64.5691 27.2432C65.0126 29.9924 65.1234 32.8083 64.8573 35.5797C64.8573 35.6906 64.7909 35.7793 64.7244 35.8458C64.68 35.8901 64.5914 35.9123 64.5027 35.9123ZM57.6071 34.4711L64.1478 35.0919C64.3473 32.52 64.2365 29.9038 63.8152 27.354C63.3718 24.6934 62.5959 22.0993 61.5095 19.6383L55.5231 22.3654C56.3657 24.2943 56.9864 26.3341 57.319 28.4183C57.6737 30.4359 57.7623 32.4757 57.6071 34.4711Z" fill="#141414"/>
<path d="M58.6713 51.1665L52.7072 46.8874C55.3235 43.1847 56.8091 39.0386 57.186 34.826L64.5026 35.5355C63.9927 40.9897 62.0857 46.3996 58.6713 51.1665Z" fill="#F3EAD4"/>
<path d="M58.6709 51.5656C58.5822 51.5656 58.5157 51.5434 58.4492 51.4991L52.4851 47.22C52.3078 47.087 52.2633 46.8652 52.3964 46.6879C54.9018 43.1847 56.4095 39.0608 56.8086 34.8039C56.8086 34.693 56.875 34.6043 56.9415 34.5378C57.0302 34.4712 57.1189 34.4491 57.2297 34.4491L64.5464 35.1586C64.7681 35.1808 64.9234 35.3582 64.9013 35.5799C64.3691 41.2558 62.3292 46.7322 59.0035 51.4104C58.937 51.4991 58.8484 51.5435 58.7597 51.5656C58.7153 51.5656 58.6931 51.5656 58.6709 51.5656ZM53.2611 46.7987L58.6044 50.6344C61.6419 46.2444 63.5487 41.1671 64.103 35.8681L57.5623 35.2473C57.0967 39.3712 55.6113 43.3621 53.2611 46.7987Z" fill="#141414"/>
<path d="M58.6712 51.1664L58.6271 51.233C55.2348 55.9555 50.8226 59.4809 45.8784 61.7424L42.8408 55.0687C46.6321 53.3393 50.0465 50.6122 52.6628 46.976L52.7072 46.9095L58.6712 51.1664Z" fill="#F3EAD4"/>
<path d="M45.8781 62.1415C45.8338 62.1415 45.7893 62.1415 45.745 62.1193C45.6563 62.075 45.5676 62.0084 45.5233 61.9197L42.4857 55.2461C42.397 55.0465 42.4858 54.8248 42.6853 54.7361C46.521 52.9846 49.8689 50.2131 52.3521 46.7543L52.3965 46.6878C52.463 46.5991 52.5518 46.5548 52.6405 46.5326C52.7513 46.5104 52.84 46.5326 52.9287 46.5991L58.8927 50.8783C58.9814 50.9448 59.0258 51.0334 59.048 51.1221C59.0702 51.2108 59.048 51.3217 58.9815 51.4104L58.9371 51.4769C55.6335 56.0886 51.177 59.7691 46.0332 62.0971C45.9888 62.1415 45.9446 62.1415 45.8781 62.1415ZM43.3505 55.2682L46.0775 61.2546C50.8445 59.0152 55.0128 55.5565 58.139 51.2773L52.7955 47.4417C50.3345 50.7896 47.0753 53.4723 43.3505 55.2682Z" fill="#141414"/>
<path d="M45.8773 61.7647C43.2832 62.962 40.5339 63.7823 37.7403 64.2479C35.0132 64.6913 32.2417 64.8022 29.4703 64.5361L30.1796 57.2195C32.3081 57.419 34.4588 57.3525 36.5429 56.9978C38.7157 56.643 40.8221 56.0001 42.8398 55.0688L45.8773 61.7647Z" fill="#F3EAD4"/>
<path d="M32.4857 65.0461C31.4658 65.0461 30.4459 65.0017 29.4482 64.913C29.3373 64.913 29.2486 64.8465 29.1821 64.78C29.1155 64.6913 29.0935 64.6026 29.0935 64.4918L29.803 57.1751C29.8252 56.9534 30.0025 56.7982 30.2242 56.8204C32.3083 57.0199 34.4146 56.9534 36.4987 56.5986C38.6494 56.2439 40.7335 55.6009 42.7068 54.714C42.7955 54.6697 42.9065 54.6697 42.9952 54.714C43.0839 54.7584 43.1726 54.8249 43.2169 54.9136L46.2543 61.5873C46.3429 61.7868 46.2544 62.0085 46.0548 62.0972C43.4386 63.2945 40.6671 64.137 37.8069 64.6026C36.0332 64.913 34.2595 65.0461 32.4857 65.0461ZM29.8916 64.1814C32.4857 64.4031 35.1021 64.2922 37.674 63.871C40.3346 63.4275 42.9063 62.6515 45.3674 61.5873L42.6403 55.6009C40.7114 56.4434 38.6716 57.0421 36.5875 57.3968C34.5699 57.7294 32.5301 57.8181 30.4903 57.6629L29.8916 64.1814Z" fill="#141414"/>
<path d="M29.4707 64.536C23.9942 64.0261 18.5843 62.0971 13.7952 58.6605L18.0743 52.6964C21.777 55.357 25.9452 56.8425 30.18 57.2415L29.4707 64.536Z" fill="#F3EAD4"/>
<path d="M29.4704 64.9128C29.4482 64.9128 29.4482 64.9128 29.426 64.9128C23.7279 64.3807 18.2292 62.3188 13.551 58.9708C13.3736 58.8378 13.3294 58.5939 13.4624 58.4387L17.7415 52.4745C17.8745 52.2972 18.0963 52.2528 18.2737 52.3858C21.799 54.9134 25.9007 56.4432 30.202 56.8423C30.3129 56.8423 30.4016 56.9089 30.4681 56.9754C30.5346 57.0641 30.5567 57.1527 30.5567 57.2636L29.8472 64.5802C29.825 64.7576 29.67 64.9128 29.4704 64.9128ZM14.327 58.5495C18.717 61.6092 23.8165 63.5382 29.1155 64.0925L29.7363 57.5518C25.5902 57.1084 21.5993 55.6007 18.1405 53.2062L14.327 58.5495Z" fill="#141414"/>
<path d="M18.0752 52.6741L13.7961 58.6383C9.0514 55.2461 5.5261 50.7895 3.26459 45.8452L9.93818 42.7856C11.6676 46.6213 14.4169 50.0579 18.0752 52.6741Z" fill="#F3EAD4"/>
<path d="M13.7959 59.0374C13.7073 59.0374 13.6407 59.0153 13.5742 58.971C8.94034 55.6452 5.25971 51.1665 2.90952 46.0227C2.82083 45.8231 2.9096 45.6014 3.10915 45.5127L9.78274 42.4531C9.87143 42.4087 9.98246 42.4087 10.0711 42.4531C10.1598 42.4974 10.2485 42.5639 10.2929 42.6526C12.0444 46.5326 14.8158 49.8805 18.2968 52.3859C18.3854 52.4524 18.4298 52.5412 18.452 52.6298C18.4742 52.7407 18.452 52.8294 18.3855 52.9181L14.1062 58.8822C14.0175 58.9709 13.9068 59.0374 13.7959 59.0374ZM3.7743 46.0449C6.01364 50.8118 9.42803 54.98 13.7072 58.1062L17.5428 52.7629C14.2171 50.3018 11.5344 47.0426 9.76065 43.2955L3.7743 46.0449Z" fill="#141414"/>
<path d="M9.93672 42.8079L3.26313 45.8676C2.08803 43.2735 1.26755 40.5686 0.801942 37.7749C0.77977 37.6197 0.757642 37.4645 0.73547 37.3093C0.33638 34.693 0.269995 32.0325 0.536055 29.3719L7.85271 30.0814C7.65316 32.1212 7.69733 34.1831 8.00774 36.2229C8.02991 36.3338 8.02995 36.4668 8.05212 36.5777C8.40687 38.7062 9.02768 40.8124 9.93672 42.8079Z" fill="#F3EAD4"/>
<path d="M3.26372 46.2445C3.21937 46.2445 3.1749 46.2446 3.13056 46.2224C3.04187 46.178 2.95318 46.1115 2.90884 46.0228C1.73374 43.4287 0.891391 40.6573 0.425785 37.8415C0.403614 37.6863 0.381269 37.5311 0.359097 37.3537C-0.0399932 34.7153 -0.106378 32.0103 0.159682 29.3275C0.181854 29.1058 0.359097 28.9506 0.580814 28.9728L7.89747 29.6823C8.00833 29.6823 8.09706 29.7488 8.16357 29.8153C8.23009 29.904 8.25235 29.9927 8.25235 30.1035C8.0528 32.099 8.09719 34.1388 8.40759 36.1343C8.42976 36.2451 8.42959 36.3781 8.45176 36.489C8.80651 38.6175 9.4274 40.6794 10.3143 42.6305C10.403 42.8301 10.3142 43.0518 10.1146 43.1405L3.44105 46.2002C3.37453 46.2224 3.30806 46.2445 3.26372 46.2445ZM0.869219 29.7932C0.647502 32.2764 0.736102 34.7818 1.11302 37.2429C1.13519 37.3981 1.15732 37.5532 1.17949 37.7084C1.62293 40.3469 2.37681 42.9188 3.44105 45.3355L9.4274 42.6084C8.60705 40.7016 8.00842 38.684 7.65367 36.622C7.6315 36.489 7.60928 36.3782 7.60928 36.2451C7.32105 34.3162 7.25466 32.3429 7.40987 30.414L0.869219 29.7932Z" fill="#141414"/>
<path d="M7.83127 30.0814L0.514618 29.3719C1.04674 23.9398 2.97576 18.5742 6.36803 13.8073L6.41242 13.7408L12.3765 18.0199L12.3321 18.0865C9.738 21.7448 8.25254 25.8909 7.83127 30.0814Z" fill="#F3EAD4"/>
<path d="M7.83082 30.4583C7.80864 30.4583 7.8086 30.4583 7.78643 30.4583L0.469773 29.7488C0.358914 29.7488 0.270401 29.6823 0.203886 29.6158C0.137371 29.5492 0.115112 29.4384 0.115112 29.3275C0.669404 23.6737 2.70916 18.2195 6.05708 13.5856L6.10147 13.5191C6.2345 13.3418 6.47847 13.2974 6.63367 13.4304L12.5977 17.7096C12.7751 17.8426 12.8195 18.0643 12.6865 18.2417L12.6421 18.3082C10.1367 21.7892 8.60695 25.8687 8.18569 30.1035C8.20786 30.3031 8.03036 30.4583 7.83082 30.4583ZM0.957593 29.0171L7.49824 29.6379C7.96385 25.4918 9.47148 21.5231 11.8882 18.0865L6.5449 14.2508C3.46304 18.6629 1.53406 23.7403 0.957593 29.0171Z" fill="#141414"/>
<path d="M22.3301 9.92731C18.6053 11.6124 15.2352 14.2287 12.619 17.7318C12.5525 17.8205 12.4859 17.9091 12.4193 18.02L6.45508 13.7409C6.54376 13.6078 6.63262 13.4748 6.74348 13.3639C10.1136 8.81872 14.4591 5.42649 19.2926 3.25366L22.3301 9.92731Z" fill="#F3EAD4"/>
<path d="M12.42 18.397C12.3313 18.397 12.2648 18.3748 12.1983 18.3304L6.2119 14.0513C6.03453 13.9183 5.9901 13.6966 6.12313 13.5192C6.21181 13.3862 6.32285 13.2531 6.41153 13.1201C9.71511 8.68577 14.1051 5.13828 19.1159 2.89894C19.3154 2.81025 19.5371 2.89897 19.6258 3.09851L22.6633 9.79435C22.7077 9.88304 22.7077 9.99391 22.6633 10.0826C22.619 10.1713 22.5524 10.26 22.4637 10.3043C18.6945 11.9894 15.391 14.6499 12.9078 17.9979C12.8413 18.0866 12.7747 18.1752 12.7082 18.2639C12.6416 18.3526 12.5308 18.397 12.42 18.397ZM6.98791 13.6522L12.3312 17.4879C14.8144 14.1622 18.0738 11.5016 21.8209 9.75002L19.0936 3.76366C14.3488 5.98083 10.1807 9.37306 7.0323 13.5857C7.01012 13.6078 7.01008 13.63 6.98791 13.6522Z" fill="#141414"/>
<path d="M52.7072 46.9096L52.6628 46.9761C50.0465 50.6123 46.6543 53.3394 42.8408 55.0688C40.8232 55.9778 38.7168 56.6208 36.5439 56.9977C34.4376 57.3525 32.3091 57.419 30.1806 57.2194C25.9458 56.8203 21.7776 55.3348 18.075 52.6742C14.4166 50.058 11.6895 46.6214 9.93792 42.7857C9.02888 40.7902 8.40807 38.7061 8.05333 36.5554C8.03116 36.4446 8.00894 36.3115 8.00894 36.2007C7.69854 34.183 7.65437 32.1211 7.85391 30.0591C8.253 25.8687 9.73838 21.7448 12.3768 18.0643L12.4212 17.9977C12.4877 17.909 12.5543 17.8204 12.6208 17.7095C15.2371 14.2064 18.585 11.5679 22.332 9.90507C24.3053 9.0182 26.3673 8.39736 28.4736 8.04262L28.5621 8.02048C30.6684 7.6879 32.8191 7.59918 34.9475 7.8209C39.138 8.21999 43.2841 9.70552 46.9646 12.344C50.6008 14.938 53.3279 18.3525 55.0573 22.1438C55.9885 24.1615 56.6315 26.2899 56.9863 28.4628C57.341 30.5469 57.4075 32.6754 57.208 34.8039C56.8089 39.0387 55.3456 43.2069 52.7072 46.9096Z" fill="#F3EAD4"/>
<path d="M32.4862 57.7073C31.7102 57.7073 30.9121 57.663 30.1361 57.5964C25.724 57.1752 21.467 55.601 17.8309 52.9848C14.239 50.4129 11.3788 46.9319 9.58294 42.941C8.6739 40.9234 8.03088 38.7949 7.65396 36.6221C7.63179 36.489 7.60957 36.3782 7.60957 36.2452C7.29917 34.1832 7.25478 32.099 7.45433 30.0149C7.87559 25.6471 9.472 21.4345 12.0439 17.8427L12.0883 17.7761C12.1548 17.6874 12.2435 17.5766 12.31 17.4879C14.8598 14.0513 18.2743 11.302 22.1543 9.57261C24.1276 8.68574 26.2337 8.04276 28.4066 7.68802L28.4953 7.66582C30.646 7.31108 32.841 7.24458 34.9916 7.4663C39.3816 7.88756 43.5942 9.48391 47.186 12.0558C50.7557 14.6056 53.5938 18.0422 55.4119 22.0109C56.3431 24.0507 57.0082 26.2014 57.3629 28.4185C57.7177 30.547 57.7842 32.7198 57.5846 34.8483C57.1856 39.2383 55.6114 43.4731 53.0394 47.1093L52.9951 47.1758C50.4453 50.7454 46.9865 53.5834 43.0178 55.4015C40.978 56.3327 38.8274 56.9978 36.6324 57.3526C35.2356 57.5965 33.8609 57.7073 32.4862 57.7073ZM32.5306 8.13145C31.2225 8.13145 29.9142 8.24229 28.6283 8.44183L28.5618 8.46403C26.4777 8.81877 24.4379 9.4174 22.509 10.2821C18.7398 11.9671 15.4363 14.6277 12.9531 17.9757C12.8866 18.0643 12.82 18.153 12.7534 18.2417L12.7091 18.3082C10.2037 21.7892 8.6739 25.8688 8.25264 30.1036C8.0531 32.1212 8.09748 34.1388 8.40789 36.1343C8.43006 36.2452 8.42988 36.3782 8.45206 36.489C8.8068 38.6175 9.4277 40.6794 10.3146 42.6306C12.0661 46.5106 14.8375 49.8586 18.3185 52.364C21.8438 54.8915 25.9457 56.4213 30.247 56.8204C32.3311 57.02 34.4374 56.9535 36.5215 56.5987C38.6722 56.244 40.7563 55.601 42.7296 54.7141C46.5653 52.9626 49.9132 50.1911 52.3964 46.7323L52.4408 46.6658C54.9462 43.1627 56.4539 39.0388 56.853 34.7818C57.0526 32.6977 56.9639 30.6135 56.6313 28.5515C56.2766 26.4009 55.6334 24.3167 54.7244 22.3435C52.9728 18.5078 50.2015 15.1598 46.7649 12.6988C43.2839 10.1934 39.182 8.66357 34.9472 8.24231C34.1047 8.15362 33.3288 8.13145 32.5306 8.13145Z" fill="#141414"/>
<path d="M46.5558 12.086L46.5043 12.1581L47.1355 12.6095L47.187 12.5375L46.5558 12.086Z" fill="#141414"/>
<path d="M51.118 6.02841L51.0147 6.17255L51.6454 6.62465L51.7488 6.48052L51.118 6.02841Z" fill="#141414"/>
<path d="M17.8482 52.1022L17.6803 52.3364L18.311 52.7885L18.4789 52.5543L17.8482 52.1022Z" fill="#141414"/>
<path d="M22.6033 9.75083L21.897 10.0723L21.9614 10.2136L22.6676 9.89211L22.6033 9.75083Z" fill="#141414"/>
<path d="M19.6969 2.90067L18.9906 3.22217L19.0457 3.34327L19.752 3.02177L19.6969 2.90067Z" fill="#141414"/>
<path d="M46.3138 61.5572L45.6076 61.879L45.626 61.9194L46.3322 61.5976L46.3138 61.5572Z" fill="#141414"/>
<path d="M43.0921 54.6022L42.3847 54.9212L42.485 55.1436L43.1924 54.8245L43.0921 54.6022Z" fill="#141414"/>
<path d="M7.87613 29.7003L7.79944 30.4725L8.0421 30.4966L8.11879 29.7244L7.87613 29.7003Z" fill="#141414"/>
<path d="M0.522338 28.981L0.453857 29.754L0.498017 29.7579L0.566497 28.985L0.522338 28.981Z" fill="#141414"/>
<path d="M64.5602 35.074L64.4833 35.8462L64.6156 35.8594L64.6926 35.0872L64.5602 35.074Z" fill="#141414"/>
<path d="M57.0748 34.4405L57.0022 35.2131L57.1567 35.2277L57.2293 34.4551L57.0748 34.4405Z" fill="#141414"/>
<path d="M34.5412 7.84976L34.5297 7.96002L35.3015 8.04042L35.313 7.93016L34.5412 7.84976Z" fill="#141414"/>
<path d="M35.2793 0.346086L35.2622 0.522583L36.0345 0.597668L36.0517 0.421172L35.2793 0.346086Z" fill="#141414"/>
<path d="M29.8469 64.5361L29.0709 64.5139L29.8469 64.5361Z" fill="#141414"/>
<path d="M29.7931 56.9742L29.7671 57.239L30.5394 57.3147L30.5654 57.0499L29.7931 56.9742Z" fill="#141414"/>
<path d="M54.7831 21.8623L54.6827 21.9092L55.0112 22.6122L55.1117 22.5653L54.7831 21.8623Z" fill="#141414"/>
<path d="M61.7747 18.7732L61.6138 18.8477L61.9398 19.5519L62.1007 19.4774L61.7747 18.7732Z" fill="#141414"/>
<path d="M3.3968 46.2223L3.10861 45.4906L3.3968 46.2223Z" fill="#141414"/>
<path d="M10.075 42.2866L9.83334 42.3979L10.158 43.1028L10.3997 42.9915L10.075 42.2866Z" fill="#141414"/>
<path d="M52.7937 46.3805L52.3416 47.0112L52.5037 47.1275L52.9558 46.4967L52.7937 46.3805Z" fill="#141414"/>
<path d="M58.9753 50.8889L58.5231 51.5196L58.5952 51.5713L59.0474 50.9406L58.9753 50.8889Z" fill="#141414"/>
<path d="M6.63684 13.392L6.18466 14.0227L6.25676 14.0744L6.70894 13.4437L6.63684 13.392Z" fill="#141414"/>
<path d="M12.6532 17.5913L12.2011 18.222L12.3634 18.3383L12.8155 17.7076L12.6532 17.5913Z" fill="#141414"/>
<path fill-rule="evenodd" clip-rule="evenodd" d="M39.9046 33.0425C40.1949 32.8359 40.4277 32.5718 40.6031 32.2503C40.7668 31.9622 40.8698 31.64 40.9121 31.2838C40.9268 31.1598 40.9342 31.0317 40.9342 30.8994C40.9342 30.3873 40.8238 29.937 40.6031 29.5485C40.3911 29.16 40.0954 28.8598 39.7157 28.6479C39.336 28.4272 38.9034 28.3168 38.4178 28.3168C37.9322 28.3168 37.4995 28.4272 37.1199 28.6479C36.7402 28.8598 36.44 29.16 36.2193 29.5485C36.0074 29.937 35.9014 30.3873 35.9014 30.8994C35.9014 31.4115 36.0074 31.8618 36.2193 32.2503C36.44 32.6388 36.7402 32.9434 37.1199 33.1641C37.4995 33.376 37.9322 33.482 38.4178 33.482C38.9034 33.482 39.336 33.376 39.7157 33.1641C39.7812 33.1261 39.8441 33.0855 39.9046 33.0425ZM38.484 37.6539H40.8547L46.1655 28.3831H43.7949L38.484 37.6539ZM44.7366 33.009C44.4487 33.2088 44.2143 33.468 44.0333 33.7866C43.8758 34.0753 43.7768 34.3981 43.7364 34.755C43.7224 34.8784 43.7154 35.0059 43.7154 35.1375C43.7154 35.6496 43.8213 36.0999 44.0333 36.4884C44.254 36.8769 44.5542 37.1815 44.9338 37.4022C45.3135 37.6141 45.7461 37.7201 46.2318 37.7201C46.7174 37.7201 47.15 37.6141 47.5297 37.4022C47.9093 37.1815 48.2051 36.8769 48.417 36.4884C48.6378 36.0999 48.7481 35.6496 48.7481 35.1375C48.7481 34.6254 48.6378 34.1751 48.417 33.7866C48.2051 33.3981 47.9093 33.0979 47.5297 32.886C47.15 32.6653 46.7174 32.5549 46.2318 32.5549C45.7461 32.5549 45.3135 32.6653 44.9338 32.886C44.8655 32.9242 44.7998 32.9652 44.7366 33.009ZM38.8946 31.6278C38.771 31.8044 38.612 31.8927 38.4178 31.8927C38.2235 31.8927 38.0646 31.8044 37.941 31.6278C37.8174 31.4513 37.7556 31.2084 37.7556 30.8994C37.7556 30.5904 37.8174 30.3476 37.941 30.171C38.0646 29.9944 38.2235 29.9061 38.4178 29.9061C38.612 29.9061 38.771 29.9944 38.8946 30.171C39.0182 30.3476 39.08 30.5904 39.08 30.8994C39.08 31.2084 39.0182 31.4513 38.8946 31.6278ZM46.7085 35.8659C46.5849 36.0425 46.426 36.1308 46.2318 36.1308C46.0375 36.1308 45.8786 36.0425 45.755 35.8659C45.6314 35.6893 45.5696 35.4465 45.5696 35.1375C45.5696 34.8285 45.6314 34.5857 45.755 34.4091C45.8786 34.2325 46.0375 34.1442 46.2318 34.1442C46.426 34.1442 46.5849 34.2325 46.7085 34.4091C46.8322 34.5857 46.894 34.8285 46.894 35.1375C46.894 35.4465 46.8322 35.6893 46.7085 35.8659Z" stroke="#1A1A1A" stroke-width="0.8"/>
<path fill-rule="evenodd" clip-rule="evenodd" d="M34.9555 35.5614C35.3175 34.8285 35.4985 33.9809 35.4985 33.0185C35.4985 32.0561 35.3175 31.2085 34.9555 30.4757C34.6024 29.7428 34.0991 29.1777 33.4457 28.7804C32.8012 28.3831 32.0507 28.1844 31.1942 28.1844C30.3378 28.1844 29.5829 28.3831 28.9295 28.7804C28.285 29.1777 27.7817 29.7428 27.4197 30.4757C27.0665 31.2085 26.8899 32.0561 26.8899 33.0185C26.8899 33.9809 27.0665 34.8285 27.4197 35.5614C27.7817 36.2942 28.285 36.8593 28.9295 37.2566C29.5829 37.6539 30.3378 37.8526 31.1942 37.8526C32.0507 37.8526 32.8012 37.6539 33.4457 37.2566C34.0991 36.8593 34.6024 36.2942 34.9555 35.5614ZM30.4128 34.5416C30.2274 34.1796 30.1347 33.6719 30.1347 33.0185C30.1347 32.3651 30.2274 31.8619 30.4128 31.5087C30.5982 31.1467 30.8587 30.9657 31.1942 30.9657C31.5297 30.9657 31.7902 31.1467 31.9756 31.5087C32.161 31.8619 32.2538 32.3651 32.2538 33.0185C32.2538 33.6719 32.161 34.1796 31.9756 34.5416C31.7902 34.8947 31.5297 35.0713 31.1942 35.0713C30.8587 35.0713 30.5982 34.8947 30.4128 34.5416Z" stroke="#1A1A1A" stroke-width="0.8"/>
<path fill-rule="evenodd" clip-rule="evenodd" d="M24.5334 33.8132C25.1609 33.3641 25.6138 32.9226 25.8921 32.4888C26.2012 32.0208 26.3557 31.5131 26.3557 30.9657C26.3557 30.0828 26.0201 29.3985 25.3491 28.9129C24.6781 28.4273 23.8084 28.1844 22.74 28.1844C21.5834 28.1844 20.6519 28.4714 19.9456 29.0453C19.5015 29.4061 19.1692 29.854 18.9485 30.3892C18.818 30.7055 18.7266 31.0521 18.6741 31.4292L21.6275 31.6809C21.813 31.1599 22.1087 30.8995 22.5149 30.8995C22.6915 30.8995 22.8239 30.948 22.9122 31.0452C23.0005 31.1334 23.0447 31.2615 23.0447 31.4292C23.0447 31.7367 22.8687 32.0411 22.5167 32.3424C22.4441 32.4046 22.3641 32.4666 22.2765 32.5285L19.0715 34.8065V37.6539H26.6205V34.8727H23.0976V34.8065L24.3823 33.9191C24.4337 33.8837 24.4841 33.8484 24.5334 33.8132Z" stroke="#1A1A1A" stroke-width="0.8"/>
</svg>
