<svg width="280" height="281" viewBox="0 0 280 281" fill="none" xmlns="http://www.w3.org/2000/svg">
<path d="M150.545 33.8824C141.376 32.9273 132.112 33.3092 123.039 34.7418L122.657 34.8375C113.584 36.3656 104.606 39.0397 96.2011 42.8601L83.1162 14.0165C94.0997 9.05002 105.751 5.61168 117.595 3.60599L118.072 3.5105C129.82 1.60033 141.759 1.21822 153.698 2.36433L150.545 33.8824Z" fill="#8BB4C8"/>
<path d="M96.2003 44.3878C95.5317 44.3878 94.9581 44.0058 94.6716 43.4327L81.5876 14.5889C81.3966 14.2068 81.3966 13.7295 81.5876 13.3474C81.7786 12.9654 82.0646 12.5834 82.4466 12.3923C93.5256 7.42587 105.273 3.89193 117.307 1.88624L117.785 1.79076C129.723 -0.119418 141.853 -0.501407 153.792 0.644699C154.747 0.740208 155.415 1.50419 155.32 2.45927L152.264 33.9772C152.264 34.4547 151.977 34.8367 151.691 35.1233C151.308 35.4098 150.927 35.5054 150.449 35.5054C141.471 34.6458 132.398 34.9323 123.324 36.3649L123.038 36.4605C114.06 37.9887 105.273 40.5673 96.9641 44.2922C96.5821 44.3877 96.3913 44.3878 96.2003 44.3878ZM85.3119 14.7801L97.0593 40.5674C105.178 37.0336 113.678 34.5503 122.465 33.1177L122.847 33.0221C131.538 31.5895 140.42 31.3031 149.112 31.9716L151.787 3.79642C140.612 2.84133 129.341 3.31892 118.262 5.03808L117.881 5.13357C106.611 7.04375 95.6268 10.2911 85.3119 14.7801Z" fill="#141414"/>
<path d="M220.646 27.5785L202.213 53.2703C186.359 41.9047 168.498 35.5057 150.447 33.7866L153.504 2.26865C176.999 4.65637 200.112 12.8701 220.646 27.5785Z" fill="#8BB4C8"/>
<path d="M202.21 54.9889C201.828 54.9889 201.542 54.8934 201.255 54.7023C186.26 43.9098 168.591 37.3199 150.349 35.5052C149.394 35.4097 148.725 34.6455 148.821 33.6904L151.877 2.17259C151.877 1.69504 152.163 1.31294 152.45 1.02641C152.832 0.739886 153.215 0.64447 153.692 0.64447C178.142 3.03219 201.637 11.8191 221.694 26.2409C222.076 26.5274 222.267 26.9093 222.362 27.2913C222.458 27.7689 222.363 28.151 222.076 28.533L203.643 54.2248C203.261 54.7978 202.783 54.9889 202.21 54.9889ZM152.355 32.3534C170.119 34.359 187.12 40.7581 201.924 50.9776L218.447 27.9599C199.632 14.7796 177.76 6.56599 155.125 4.08277L152.355 32.3534Z" fill="#141414"/>
<path d="M265.915 82.3994L237.166 95.5797C229.717 79.2477 217.969 64.5394 202.306 53.3649L220.739 27.6731C240.987 42.1904 256.173 61.1965 265.915 82.3994Z" fill="#8BB4C8"/>
<path d="M237.071 97.2037C236.403 97.2037 235.829 96.8216 235.543 96.2486C227.997 79.7255 216.059 65.3037 201.256 54.7022C200.491 54.1292 200.3 53.0787 200.873 52.4101L219.306 26.7183C219.593 26.3363 219.975 26.1451 220.357 26.0496C220.835 25.9541 221.217 26.0496 221.599 26.3361C241.465 40.567 257.224 59.7643 267.348 81.8269C267.539 82.2089 267.539 82.6865 267.348 83.0685C267.157 83.4506 266.87 83.8326 266.488 84.0236L237.74 97.2037C237.549 97.2037 237.358 97.2037 237.071 97.2037ZM204.598 52.9833C218.829 63.5847 230.385 77.4333 237.93 93.3833L263.718 81.6359C254.071 61.197 239.363 43.4323 221.121 29.9655L204.598 52.9833Z" fill="#141414"/>
<path d="M277.856 153.075L246.338 150.019C247.197 140.85 246.815 131.682 245.383 122.704C243.855 113.344 241.085 104.175 237.073 95.4838L265.821 82.3036C270.979 93.5736 274.608 105.417 276.518 117.451C278.524 129.294 279.002 141.232 277.856 153.075Z" fill="#8BB4C8"/>
<path d="M277.857 154.7C277.762 154.7 277.761 154.7 277.666 154.7L246.148 151.643C245.193 151.548 244.524 150.784 244.619 149.829C245.479 140.851 245.097 131.873 243.664 122.991C242.136 113.726 239.367 104.748 235.451 96.2482C235.26 95.8661 235.26 95.3888 235.451 95.0067C235.642 94.6247 235.929 94.2427 236.311 94.0516L265.059 80.8714C265.918 80.4893 266.873 80.8713 267.255 81.7309C272.413 93.0009 276.138 105.035 278.144 117.356C280.054 129.199 280.531 141.329 279.385 153.267C279.385 153.745 279.099 154.127 278.812 154.413C278.621 154.604 278.239 154.7 277.857 154.7ZM248.153 148.492L276.328 151.166C277.188 140.087 276.711 128.817 274.896 117.833C272.986 106.372 269.643 95.1976 264.963 84.5961L239.176 96.3438C242.805 104.653 245.479 113.44 246.912 122.418C248.44 131.109 248.822 139.896 248.153 148.492Z" fill="#141414"/>
<path d="M252.737 220.41L227.046 201.977C238.316 186.027 244.715 168.166 246.339 150.02L277.857 153.076C275.66 176.571 267.446 199.875 252.737 220.41Z" fill="#8BB4C8"/>
<path d="M252.739 222.129C252.357 222.129 252.07 222.034 251.784 221.843L226.092 203.41C225.328 202.836 225.137 201.881 225.71 201.117C236.503 186.027 242.997 168.262 244.717 149.925C244.717 149.447 245.003 149.065 245.289 148.778C245.671 148.492 246.053 148.396 246.531 148.396L278.049 151.453C279.004 151.548 279.673 152.312 279.577 153.267C277.285 177.718 268.498 201.308 254.171 221.461C253.885 221.843 253.503 222.034 253.121 222.129C252.93 222.129 252.834 222.129 252.739 222.129ZM229.435 201.595L252.452 218.118C265.537 199.207 273.751 177.335 276.138 154.509L247.963 151.835C245.958 169.599 239.559 186.791 229.435 201.595Z" fill="#141414"/>
<path d="M252.737 220.41L252.546 220.696C237.934 241.04 218.927 256.226 197.629 265.968L184.544 237.22C200.876 229.77 215.584 218.022 226.854 202.359L227.045 202.072L252.737 220.41Z" fill="#8BB4C8"/>
<path d="M197.628 267.687C197.437 267.687 197.245 267.687 197.054 267.591C196.672 267.4 196.29 267.114 196.099 266.732L183.014 237.984C182.632 237.124 183.015 236.169 183.874 235.787C200.397 228.242 214.819 216.303 225.516 201.404L225.707 201.117C225.993 200.735 226.376 200.544 226.758 200.449C227.236 200.353 227.617 200.449 227.999 200.735L253.691 219.168C254.073 219.455 254.264 219.837 254.36 220.219C254.455 220.601 254.36 221.078 254.073 221.461L253.882 221.747C239.651 241.613 220.454 257.467 198.296 267.496C198.105 267.687 197.914 267.687 197.628 267.687ZM186.739 238.079L198.487 263.866C219.021 254.22 236.977 239.321 250.444 220.887L227.426 204.365C216.824 218.786 202.785 230.343 186.739 238.079Z" fill="#141414"/>
<path d="M197.629 266.063C186.454 271.221 174.611 274.754 162.577 276.76C150.829 278.67 138.891 279.148 126.952 278.002L130.008 246.484C139.177 247.343 148.441 247.057 157.419 245.529C166.779 244.001 175.852 241.231 184.544 237.22L197.629 266.063Z" fill="#8BB4C8"/>
<path d="M139.941 280.199C135.547 280.199 131.154 280.008 126.856 279.626C126.378 279.626 125.996 279.339 125.71 279.053C125.423 278.671 125.328 278.288 125.328 277.811L128.385 246.293C128.48 245.338 129.244 244.669 130.199 244.765C139.177 245.624 148.25 245.338 157.228 243.81C166.492 242.282 175.47 239.512 183.97 235.691C184.352 235.5 184.83 235.5 185.212 235.691C185.594 235.882 185.976 236.169 186.167 236.551L199.251 265.299C199.633 266.159 199.252 267.114 198.392 267.496C187.122 272.653 175.184 276.283 162.863 278.288C155.222 279.626 147.581 280.199 139.941 280.199ZM128.766 276.474C139.941 277.429 151.211 276.951 162.29 275.137C173.751 273.226 184.83 269.884 195.431 265.299L183.684 239.512C175.374 243.141 166.588 245.72 157.61 247.248C148.919 248.681 140.132 249.063 131.345 248.394L128.766 276.474Z" fill="#141414"/>
<path d="M126.949 278.001C103.358 275.805 80.0537 267.495 59.4238 252.692L77.8568 227C93.8068 238.461 111.762 244.86 130.004 246.579L126.949 278.001Z" fill="#8BB4C8"/>
<path d="M126.949 279.625C126.854 279.625 126.853 279.625 126.758 279.625C102.212 277.333 78.5254 268.451 58.3731 254.029C57.609 253.456 57.4185 252.405 57.9916 251.736L76.4246 226.045C76.9977 225.28 77.9531 225.089 78.7172 225.662C93.9031 236.55 111.572 243.141 130.101 244.86C130.578 244.86 130.961 245.146 131.247 245.433C131.534 245.815 131.629 246.197 131.629 246.674L128.572 278.192C128.477 278.956 127.809 279.625 126.949 279.625ZM61.7159 252.214C80.6266 265.394 102.594 273.703 125.42 276.091L128.095 247.916C110.234 246.006 93.043 239.511 78.1436 229.196L61.7159 252.214Z" fill="#141414"/>
<path d="M77.8612 226.905L59.4282 252.597C38.9893 237.984 23.8034 218.786 14.0615 197.488L42.8093 184.308C50.259 200.831 62.1023 215.635 77.8612 226.905Z" fill="#8BB4C8"/>
<path d="M59.4272 254.315C59.0452 254.315 58.7587 254.22 58.4721 254.029C38.5108 239.703 22.6558 220.41 12.5318 198.252C12.1498 197.392 12.5322 196.437 13.3918 196.055L42.1396 182.875C42.5216 182.684 42.9999 182.684 43.3819 182.875C43.764 183.066 44.146 183.352 44.337 183.734C51.8822 200.448 63.8204 214.87 78.8153 225.663C79.1974 225.949 79.3886 226.331 79.4841 226.713C79.5796 227.191 79.4843 227.573 79.1977 227.955L60.7638 253.647C60.3817 254.029 59.9048 254.315 59.4272 254.315ZM16.257 198.347C25.9034 218.882 40.6116 236.837 59.0448 250.304L75.5676 227.287C61.2413 216.685 49.6851 202.645 42.0444 186.504L16.257 198.347Z" fill="#141414"/>
<path d="M42.8041 184.404L14.0564 197.584C8.99439 186.409 5.46 174.757 3.45431 162.723C3.35881 162.055 3.26348 161.386 3.16797 160.717C1.44882 149.447 1.16285 137.986 2.30895 126.525L33.8269 129.582C32.9673 138.368 33.1576 147.251 34.4947 156.038C34.5902 156.515 34.5904 157.088 34.6859 157.566C36.214 166.735 38.8883 175.808 42.8041 184.404Z" fill="#8BB4C8"/>
<path d="M14.0591 199.207C13.8681 199.207 13.6765 199.208 13.4855 199.112C13.1034 198.921 12.7214 198.634 12.5304 198.252C7.46843 187.078 3.83984 175.139 1.83415 163.01C1.73864 162.341 1.64239 161.673 1.54688 160.909C-0.172278 149.543 -0.458245 137.891 0.687861 126.334C0.78337 125.379 1.54688 124.711 2.50197 124.806L34.0199 127.862C34.4974 127.862 34.8797 128.149 35.1662 128.436C35.4527 128.818 35.5486 129.199 35.5486 129.677C34.689 138.273 34.8802 147.06 36.2173 155.656C36.3128 156.133 36.3121 156.706 36.4076 157.184C37.9357 166.352 40.6104 175.235 44.4307 183.639C44.8128 184.499 44.4303 185.454 43.5708 185.836L14.823 199.016C14.5365 199.112 14.2501 199.207 14.0591 199.207ZM3.74433 128.34C2.78924 139.037 3.1709 149.83 4.79455 160.431C4.89006 161.1 4.98539 161.768 5.08089 162.437C6.99107 173.802 10.2386 184.881 14.823 195.292L40.6104 183.544C37.0765 175.33 34.4978 166.639 32.9697 157.757C32.8742 157.184 32.7785 156.706 32.7785 156.133C31.5368 147.824 31.2509 139.324 31.9194 131.014L3.74433 128.34Z" fill="#141414"/>
<path d="M33.7367 129.581L2.21875 126.525C4.51096 103.125 12.8206 80.0122 27.4335 59.4778L27.6247 59.1914L53.316 77.6245L53.1248 77.911C41.9502 93.67 35.5513 111.53 33.7367 129.581Z" fill="#8BB4C8"/>
<path d="M33.7349 131.205C33.6394 131.205 33.6392 131.205 33.5437 131.205L2.02582 128.149C1.54827 128.149 1.16698 127.862 0.880455 127.576C0.593929 127.289 0.498047 126.812 0.498047 126.334C2.88577 101.979 11.6724 78.4841 26.0942 58.5227L26.2854 58.2364C26.8585 57.4723 27.9095 57.2812 28.578 57.8542L54.2693 76.2875C55.0334 76.8605 55.2248 77.8155 54.6517 78.5796L54.4605 78.8662C43.668 93.861 37.0783 111.435 35.2636 129.677C35.3591 130.536 34.5945 131.205 33.7349 131.205ZM4.1272 124.997L32.3023 127.671C34.308 109.811 40.8024 92.7149 51.2129 77.9111L28.1956 61.388C14.9199 80.3942 6.61043 102.266 4.1272 124.997Z" fill="#141414"/>
<path d="M96.1954 42.7639C80.15 50.0226 65.6328 61.2928 54.3627 76.3832C54.0762 76.7652 53.7893 77.1471 53.5028 77.6246L27.8105 59.1916C28.1926 58.6186 28.5754 58.0453 29.0529 57.5678C43.5703 37.9885 62.2896 23.3758 83.1105 14.0159L96.1954 42.7639Z" fill="#8BB4C8"/>
<path d="M53.5029 79.2482C53.1208 79.2482 52.8343 79.1527 52.5478 78.9616L26.7604 60.5284C25.9963 59.9553 25.8049 59.0003 26.378 58.2363C26.76 57.6632 27.2383 57.0901 27.6204 56.5171C41.8512 37.4153 60.7617 22.1338 82.3467 12.4874C83.2063 12.1054 84.1612 12.4875 84.5433 13.3471L97.6281 42.1907C97.8192 42.5728 97.8192 43.0504 97.6281 43.4324C97.4371 43.8144 97.1502 44.1965 96.7682 44.3875C80.5317 51.6462 66.3012 63.1072 55.6043 77.529C55.3177 77.911 55.0308 78.293 54.7443 78.6751C54.4578 79.0571 53.9804 79.2482 53.5029 79.2482ZM30.1032 58.8092L53.1205 75.3323C63.8175 61.0059 77.858 49.545 93.999 41.9998L82.2507 16.2124C61.8118 25.7633 43.8567 40.3759 30.2944 58.5226C30.1989 58.6181 30.1987 58.7137 30.1032 58.8092Z" fill="#141414"/>
<path d="M200.547 52.0629L200.325 52.3732L203.044 54.3177L203.266 54.0075L200.547 52.0629Z" fill="#141414"/>
<path d="M220.204 25.9683L219.759 26.5892L222.476 28.5367L222.921 27.9158L220.204 25.9683Z" fill="#141414"/>
<path d="M76.8835 224.44L76.1602 225.449L78.8769 227.397L79.6002 226.388L76.8835 224.44Z" fill="#141414"/>
<path d="M97.3704 42.0049L94.3281 43.3898L94.6052 43.9985L97.6475 42.6135L97.3704 42.0049Z" fill="#141414"/>
<path d="M84.8512 12.495L81.8086 13.88L82.046 14.4017L85.0887 13.0167L84.8512 12.495Z" fill="#141414"/>
<path d="M199.505 265.168L196.463 266.554L196.542 266.728L199.584 265.342L199.505 265.168Z" fill="#141414"/>
<path d="M185.627 235.21L182.58 236.584L183.012 237.542L186.059 236.167L185.627 235.21Z" fill="#141414"/>
<path d="M33.928 127.94L33.5977 131.266L34.643 131.37L34.9733 128.044L33.928 127.94Z" fill="#141414"/>
<path d="M2.25007 124.841L1.95508 128.17L2.1453 128.187L2.4403 124.858L2.25007 124.841Z" fill="#141414"/>
<path d="M278.106 151.088L277.774 154.415L278.345 154.471L278.676 151.145L278.106 151.088Z" fill="#141414"/>
<path d="M245.863 148.359L245.55 151.688L246.215 151.75L246.528 148.422L245.863 148.359Z" fill="#141414"/>
<path d="M148.792 33.8142L148.742 34.2892L152.067 34.6355L152.116 34.1606L148.792 33.8142Z" fill="#141414"/>
<path d="M151.976 1.49218L151.902 2.25247L155.229 2.57592L155.303 1.81562L151.976 1.49218Z" fill="#141414"/>
<path d="M128.573 278.001L125.23 277.906L128.573 278.001Z" fill="#141414"/>
<path d="M128.342 245.427L128.23 246.568L131.557 246.894L131.669 245.754L128.342 245.427Z" fill="#141414"/>
<path d="M235.987 94.175L235.555 94.3772L236.97 97.4055L237.403 97.2033L235.987 94.175Z" fill="#141414"/>
<path d="M266.109 80.8692L265.416 81.1902L266.82 84.2238L267.514 83.9028L266.109 80.8692Z" fill="#141414"/>
<path d="M14.634 199.112L13.3926 195.96L14.634 199.112Z" fill="#141414"/>
<path d="M43.4006 182.158L42.3594 182.638L43.758 185.674L44.7992 185.194L43.4006 182.158Z" fill="#141414"/>
<path d="M227.421 199.793L225.474 202.51L226.172 203.011L228.12 200.294L227.421 199.793Z" fill="#141414"/>
<path d="M254.046 219.214L252.099 221.931L252.409 222.154L254.357 219.437L254.046 219.214Z" fill="#141414"/>
<path d="M28.5895 57.6891L26.6416 60.4058L26.9522 60.6285L28.9001 57.9118L28.5895 57.6891Z" fill="#141414"/>
<path d="M54.5061 75.7782L52.5586 78.4952L53.2574 78.9961L55.2049 76.279L54.5061 75.7782Z" fill="#141414"/>
</svg>
