<svg width="199" height="199" viewBox="0 0 199 199" fill="none" xmlns="http://www.w3.org/2000/svg">
  <path d="M106.994 24.0635C100.478 23.3852 93.8938 23.6564 87.4453 24.6739L87.1742 24.7418C80.7256 25.8271 74.3448 27.7263 68.3714 30.4395L59.0718 9.95451C66.8779 6.42728 75.159 3.98534 83.576 2.56088L83.9154 2.49306C92.2646 1.13644 100.75 0.865061 109.235 1.67904L106.994 24.0635Z" fill="#FFD24A"/>
  <path d="M68.3708 31.5247C67.8956 31.5247 67.488 31.2533 67.2843 30.8463L57.9854 10.3611C57.8496 10.0898 57.8496 9.7508 57.9854 9.47947C58.1211 9.20815 58.3244 8.93682 58.5959 8.80116C66.4699 5.27393 74.8191 2.76409 83.3719 1.33963L83.7113 1.27182C92.1962 -0.0848118 100.817 -0.356104 109.302 0.457872C109.981 0.525703 110.456 1.06829 110.388 1.7466L108.216 24.1309C108.216 24.4701 108.012 24.7414 107.809 24.9449C107.537 25.1484 107.266 25.2163 106.926 25.2163C100.546 24.6058 94.0967 24.8093 87.6482 25.8267L87.4447 25.8946C81.064 26.9799 74.8192 28.8113 68.9137 31.4568C68.6422 31.5246 68.5066 31.5247 68.3708 31.5247ZM60.6323 10.4969L68.9813 28.8114C74.7511 26.3016 80.7927 24.538 87.0377 23.5205L87.3088 23.4526C93.4858 22.4352 99.7986 22.2318 105.976 22.7066L107.877 2.69626C99.9349 2.01794 91.9247 2.35713 84.0507 3.5781L83.7796 3.64591C75.7698 5.00254 67.9633 7.30887 60.6323 10.4969Z" fill="#141414"/>
  <path d="M156.816 19.5864L143.715 37.833C132.447 29.761 119.754 25.2164 106.925 23.9954L109.097 1.61108C125.795 3.30687 142.222 9.14036 156.816 19.5864Z" fill="#FFD24A"/>
  <path d="M143.714 39.0537C143.442 39.0537 143.238 38.9859 143.035 38.8502C132.378 31.1853 119.82 26.505 106.855 25.2162C106.176 25.1484 105.701 24.6056 105.769 23.9273L107.941 1.54305C107.941 1.20389 108.144 0.932517 108.348 0.729023C108.619 0.525529 108.892 0.457764 109.231 0.457764C126.608 2.15355 143.306 8.39406 157.561 18.6366C157.832 18.8401 157.968 19.1113 158.036 19.3826C158.104 19.7218 158.036 19.9932 157.832 20.2645L144.732 38.5111C144.46 38.918 144.121 39.0537 143.714 39.0537ZM108.28 22.9777C120.906 24.4022 132.989 28.9469 143.51 36.2049L155.253 19.8574C141.881 10.4967 126.337 4.66329 110.249 2.89968L108.28 22.9777Z" fill="#141414"/>
  <path d="M188.99 58.5208L168.558 67.8816C163.263 56.2824 154.914 45.8364 143.782 37.9001L156.883 19.6536C171.273 29.9639 182.066 43.4622 188.99 58.5208Z" fill="#FFD24A"/>
  <path d="M168.49 69.0351C168.015 69.0351 167.607 68.7638 167.404 68.3568C162.041 56.622 153.557 46.3795 143.035 38.8502C142.492 38.4432 142.356 37.6971 142.764 37.2223L155.864 18.9757C156.068 18.7044 156.34 18.5686 156.611 18.5008C156.951 18.4329 157.222 18.5008 157.494 18.7043C171.612 28.8112 182.813 42.4453 190.008 58.1144C190.144 58.3857 190.144 58.7249 190.008 58.9962C189.872 59.2675 189.668 59.5389 189.397 59.6745L168.965 69.0351C168.83 69.0351 168.694 69.0351 168.49 69.0351ZM145.411 37.6293C155.525 45.1586 163.738 54.994 169.101 66.3219L187.428 57.9788C180.572 43.4628 170.119 30.8461 157.154 21.2819L145.411 37.6293Z" fill="#141414"/>
  <path d="M197.476 108.716L175.076 106.545C175.687 100.033 175.415 93.5217 174.397 87.1456C173.311 80.4981 171.342 73.9863 168.491 67.8136L188.923 58.4529C192.588 66.457 195.168 74.8681 196.525 83.4149C197.951 91.8259 198.29 100.305 197.476 108.716Z" fill="#FFD24A"/>
  <path d="M197.477 109.869C197.409 109.869 197.409 109.869 197.341 109.869L174.941 107.699C174.262 107.631 173.786 107.088 173.854 106.41C174.465 100.034 174.194 93.6576 173.176 87.3493C172.089 80.7696 170.121 74.3935 167.338 68.3565C167.202 68.0852 167.202 67.7461 167.338 67.4748C167.474 67.2035 167.678 66.9322 167.949 66.7965L188.381 57.4358C188.992 57.1644 189.67 57.4357 189.942 58.0462C193.607 66.0503 196.255 74.597 197.68 83.3473C199.038 91.7584 199.377 100.373 198.563 108.852C198.563 109.191 198.359 109.462 198.156 109.666C198.02 109.802 197.748 109.869 197.477 109.869ZM176.366 105.46L196.39 107.36C197.001 99.4911 196.662 91.4871 195.372 83.6864C194.015 75.5467 191.639 67.6104 188.313 60.0811L169.986 68.4244C172.565 74.3257 174.465 80.5662 175.484 86.9424C176.57 93.115 176.841 99.3556 176.366 105.46Z" fill="#141414"/>
  <path d="M179.624 156.537L161.365 143.446C169.375 132.118 173.923 119.434 175.077 106.546L197.477 108.716C195.916 125.403 190.078 141.954 179.624 156.537Z" fill="#FFD24A"/>
  <path d="M179.625 157.758C179.353 157.758 179.15 157.69 178.946 157.555L160.687 144.463C160.144 144.057 160.008 143.378 160.415 142.835C168.086 132.118 172.702 119.502 173.923 106.478C173.923 106.139 174.127 105.867 174.33 105.664C174.602 105.46 174.873 105.393 175.213 105.393L197.613 107.563C198.292 107.631 198.767 108.174 198.699 108.852C197.07 126.217 190.825 142.971 180.643 157.284C180.44 157.555 180.168 157.691 179.897 157.758C179.761 157.758 179.693 157.758 179.625 157.758ZM163.063 143.175L179.421 154.909C188.721 141.479 194.558 125.945 196.255 109.734L176.231 107.835C174.806 120.451 170.258 132.661 163.063 143.175Z" fill="#141414"/>
  <path d="M179.624 156.537L179.489 156.741C169.103 171.189 155.595 181.974 140.458 188.893L131.158 168.476C142.766 163.185 153.219 154.842 161.229 143.717L161.365 143.514L179.624 156.537Z" fill="#FFD24A"/>
  <path d="M140.457 190.114C140.321 190.114 140.185 190.114 140.049 190.046C139.778 189.91 139.506 189.707 139.371 189.436L130.071 169.018C129.8 168.408 130.071 167.73 130.682 167.458C142.425 162.1 152.675 153.621 160.277 143.039L160.413 142.835C160.617 142.564 160.889 142.428 161.16 142.361C161.5 142.293 161.771 142.361 162.043 142.564L180.302 155.656C180.573 155.859 180.709 156.13 180.777 156.402C180.845 156.673 180.777 157.012 180.574 157.284L180.438 157.487C170.324 171.596 156.68 182.856 140.932 189.978C140.796 190.114 140.661 190.114 140.457 190.114ZM132.719 169.086L141.068 187.401C155.662 180.55 168.423 169.968 177.994 156.876L161.635 145.142C154.1 155.384 144.122 163.592 132.719 169.086Z" fill="#141414"/>
  <path d="M140.457 188.961C132.515 192.624 124.098 195.134 115.545 196.558C107.196 197.915 98.7113 198.254 90.2263 197.44L92.3979 175.056C98.9144 175.666 105.499 175.463 111.879 174.377C118.532 173.292 124.98 171.325 131.158 168.476L140.457 188.961Z" fill="#FFD24A"/>
  <path d="M99.4577 199C96.3352 199 93.2126 198.864 90.1581 198.593C89.8187 198.593 89.547 198.39 89.3434 198.186C89.1397 197.915 89.0723 197.643 89.0723 197.304L91.2445 174.92C91.3124 174.242 91.8551 173.767 92.5339 173.835C98.9145 174.445 105.363 174.242 111.744 173.156C118.328 172.071 124.709 170.104 130.75 167.391C131.021 167.255 131.361 167.255 131.633 167.391C131.904 167.526 132.176 167.73 132.312 168.001L141.611 188.418C141.882 189.029 141.611 189.707 141 189.978C132.99 193.641 124.505 196.219 115.749 197.643C110.318 198.593 104.888 199 99.4577 199ZM91.5157 196.355C99.4576 197.033 107.468 196.694 115.342 195.405C123.487 194.048 131.361 191.674 138.895 188.418L130.546 170.104C124.641 172.681 118.396 174.513 112.015 175.598C105.838 176.616 99.5935 176.887 93.3485 176.412L91.5157 196.355Z" fill="#141414"/>
  <path d="M90.2246 197.44C73.4583 195.88 56.8956 189.978 42.2336 179.464L55.3343 161.218C66.6701 169.358 79.4312 173.902 92.3962 175.123L90.2246 197.44Z" fill="#FFD24A"/>
  <path d="M90.2248 198.593C90.1569 198.593 90.1568 198.593 90.0889 198.593C72.6439 196.965 55.8094 190.656 41.4868 180.414C40.9438 180.007 40.8084 179.261 41.2157 178.786L54.3163 160.539C54.7236 159.997 55.4027 159.861 55.9457 160.268C66.7385 168.001 79.2961 172.681 92.4647 173.902C92.8041 173.902 93.0758 174.106 93.2794 174.309C93.483 174.58 93.5505 174.852 93.5505 175.191L91.3782 197.575C91.3104 198.118 90.8357 198.593 90.2248 198.593ZM43.8626 179.125C57.3027 188.486 72.9152 194.387 89.1384 196.083L91.0389 176.073C78.3454 174.716 66.1272 170.104 55.538 162.778L43.8626 179.125Z" fill="#141414"/>
  <path d="M55.3373 161.15L42.2367 179.397C27.7104 169.018 16.9176 155.384 9.9939 140.258L30.4254 130.897C35.72 142.632 44.1372 153.146 55.3373 161.15Z" fill="#FFD24A"/>
  <path d="M42.2359 180.617C41.9644 180.617 41.7608 180.55 41.5572 180.414C27.3703 170.239 16.1019 156.537 8.90672 140.8C8.6352 140.19 8.90698 139.511 9.5179 139.24L29.9494 129.88C30.2209 129.744 30.5608 129.744 30.8323 129.88C31.1038 130.015 31.3754 130.219 31.5111 130.49C36.8736 142.36 45.3583 152.603 56.0154 160.268C56.2869 160.471 56.4228 160.743 56.4906 161.014C56.5585 161.353 56.4908 161.625 56.2871 161.896L43.1859 180.143C42.9143 180.414 42.5753 180.617 42.2359 180.617ZM11.5543 140.868C18.4101 155.452 28.8634 168.204 41.9642 177.768L53.7072 161.421C43.5253 153.892 35.3121 143.921 29.8817 132.457L11.5543 140.868Z" fill="#141414"/>
  <path d="M30.4217 130.965L9.99026 140.326C6.39265 132.39 3.88071 124.114 2.45524 115.568C2.38736 115.093 2.31961 114.618 2.25173 114.143C1.0299 106.139 0.826662 97.9994 1.64122 89.8596L24.0414 92.0302C23.4305 98.2707 23.5658 104.579 24.5161 110.819C24.584 111.159 24.5841 111.566 24.652 111.905C25.738 118.417 27.6387 124.86 30.4217 130.965Z" fill="#FFD24A"/>
  <path d="M9.992 141.479C9.85624 141.479 9.72009 141.479 9.58433 141.411C9.31281 141.276 9.04129 141.072 8.90553 140.801C5.30792 132.864 2.72903 124.386 1.30356 115.771C1.23568 115.296 1.16727 114.821 1.09939 114.279C-0.122441 106.207 -0.325682 97.9313 0.488872 89.7237C0.556752 89.0454 1.09939 88.5707 1.77818 88.6385L24.1784 90.8091C24.5178 90.8091 24.7895 91.0127 24.9931 91.2161C25.1967 91.4875 25.2649 91.7587 25.2649 92.0978C24.654 98.2026 24.7899 104.443 25.7402 110.548C25.8081 110.887 25.8075 111.294 25.8754 111.633C26.9615 118.145 28.8624 124.453 31.5775 130.423C31.8491 131.033 31.5773 131.711 30.9664 131.983L10.5349 141.343C10.3313 141.411 10.1278 141.479 9.992 141.479ZM2.66115 91.1483C1.98235 98.7454 2.25361 106.41 3.40756 113.94C3.47544 114.414 3.54318 114.889 3.61106 115.364C4.96865 123.436 7.27669 131.304 10.5349 138.698L28.8624 130.355C26.3508 124.521 24.5181 118.349 23.432 112.04C23.3641 111.633 23.2961 111.294 23.2961 110.887C22.4137 104.986 22.2104 98.9489 22.6856 93.0476L2.66115 91.1483Z" fill="#141414"/>
  <path d="M23.9771 92.03L1.5769 89.8594C3.20601 73.2407 9.11179 56.8254 19.4974 42.2417L19.6332 42.0383L37.8924 55.1296L37.7565 55.3332C29.8146 66.5253 25.2668 79.2099 23.9771 92.03Z" fill="#FFD24A"/>
  <path d="M23.9762 93.1832C23.9083 93.1832 23.9082 93.1832 23.8403 93.1832L1.44005 91.0126C1.10066 91.0126 0.82967 90.809 0.626031 90.6055C0.422393 90.402 0.354248 90.0629 0.354248 89.7237C2.05124 72.4267 8.29602 55.7402 18.5458 41.5634L18.6817 41.3601C19.089 40.8174 19.8359 40.6817 20.3111 41.0887L38.5703 54.1801C39.1133 54.5871 39.2493 55.2654 38.8421 55.808L38.7062 56.0116C31.0358 66.6611 26.3524 79.142 25.0626 92.0978C25.1305 92.7083 24.5871 93.1832 23.9762 93.1832ZM2.93354 88.7741L22.958 90.6734C24.3835 77.989 28.9991 65.8471 36.398 55.3332L20.0393 43.5984C10.6041 57.0968 4.6984 72.6303 2.93354 88.7741Z" fill="#141414"/>
  <path d="M68.3673 30.3715C56.9635 35.5267 46.6459 43.5309 38.6362 54.2482C38.4325 54.5196 38.2286 54.7908 38.025 55.1299L19.7651 42.0386C20.0367 41.6316 20.3087 41.2245 20.6481 40.8853C30.9658 26.9799 44.2699 16.6018 59.0676 9.95435L68.3673 30.3715Z" fill="#FFD24A"/>
  <path d="M38.025 56.2828C37.7535 56.2828 37.5499 56.2149 37.3462 56.0793L19.0188 42.9878C18.4757 42.5808 18.3397 41.9025 18.747 41.3599C19.0185 40.9529 19.3584 40.5459 19.6299 40.1389C29.744 26.5726 43.184 15.7195 58.5248 8.86858C59.1357 8.59726 59.8143 8.86868 60.0859 9.47917L69.3855 29.9642C69.5212 30.2355 69.5212 30.5747 69.3855 30.846C69.2497 31.1174 69.0458 31.3887 68.7743 31.5243C57.2348 36.6795 47.121 44.8193 39.5185 55.0618C39.3149 55.3331 39.111 55.6044 38.9073 55.8757C38.7037 56.1471 38.3644 56.2828 38.025 56.2828ZM21.3945 41.7668L37.7532 53.5016C45.3557 43.3269 55.3346 35.1872 66.8062 29.8286L58.4565 11.5141C43.9303 18.2972 31.1693 28.6753 21.5304 41.5633C21.4625 41.6311 21.4624 41.699 21.3945 41.7668Z" fill="#141414"/>
  <path d="M142.532 36.9756L142.374 37.196L144.307 38.5774L144.465 38.3569L142.532 36.9756Z" fill="#141414"/>
  <path d="M156.502 18.4426L156.186 18.8838L158.117 20.2673L158.433 19.8261L156.502 18.4426Z" fill="#141414"/>
  <path d="M54.6423 159.399L54.1279 160.116L56.0592 161.5L56.5736 160.783L54.6423 159.399Z" fill="#141414"/>
  <path d="M69.2027 29.832L67.0403 30.8157L67.2373 31.2482L69.3998 30.2645L69.2027 29.832Z" fill="#141414"/>
  <path d="M60.3055 8.8742L58.1428 9.85791L58.3117 10.2286L60.4744 9.24492L60.3055 8.8742Z" fill="#141414"/>
  <path d="M141.791 188.325L139.629 189.31L139.685 189.433L141.848 188.448L141.791 188.325Z" fill="#141414"/>
  <path d="M131.928 167.048L129.762 168.024L130.069 168.705L132.235 167.729L131.928 167.048Z" fill="#141414"/>
  <path d="M24.1132 90.8641L23.8784 93.2266L24.6213 93.3003L24.8561 90.9378L24.1132 90.8641Z" fill="#141414"/>
  <path d="M1.5993 88.6632L1.38965 91.0281L1.52484 91.04L1.7345 88.6752L1.5993 88.6632Z" fill="#141414"/>
  <path d="M197.654 107.304L197.418 109.667L197.823 109.707L198.059 107.345L197.654 107.304Z" fill="#141414"/>
  <path d="M174.738 105.366L174.516 107.73L174.989 107.774L175.211 105.411L174.738 105.366Z" fill="#141414"/>
  <path d="M105.749 24.0152L105.713 24.3528L108.076 24.5989L108.111 24.2613L105.749 24.0152Z" fill="#141414"/>
  <path d="M108.012 1.05951L107.959 1.59985L110.324 1.82957L110.376 1.28922L108.012 1.05951Z" fill="#141414"/>
  <path d="M91.3792 197.439L89.0034 197.372L91.3792 197.439Z" fill="#141414"/>
  <path d="M91.2148 174.304L91.1353 175.115L93.4996 175.347L93.5792 174.536L91.2148 174.304Z" fill="#141414"/>
  <path d="M167.72 66.8842L167.412 67.0278L168.418 69.1785L168.725 69.0349L167.72 66.8842Z" fill="#141414"/>
  <path d="M189.127 57.4342L188.635 57.6621L189.633 59.8166L190.126 59.5887L189.127 57.4342Z" fill="#141414"/>
  <path d="M10.4006 141.411L9.51831 139.173L10.4006 141.411Z" fill="#141414"/>
  <path d="M30.8457 129.37L30.1057 129.711L31.0997 131.867L31.8397 131.527L30.8457 129.37Z" fill="#141414"/>
  <path d="M161.631 141.895L160.247 143.825L160.744 144.181L162.128 142.251L161.631 141.895Z" fill="#141414"/>
  <path d="M180.554 155.688L179.17 157.617L179.391 157.776L180.775 155.846L180.554 155.688Z" fill="#141414"/>
  <path d="M20.3192 40.9715L18.9348 42.9009L19.1556 43.059L20.5399 41.1296L20.3192 40.9715Z" fill="#141414"/>
  <path d="M38.7381 53.8186L37.354 55.7483L37.8506 56.104L39.2348 54.1743L38.7381 53.8186Z" fill="#141414"/>
</svg>
