<svg width="65" height="66" viewBox="0 0 65 66" fill="none" xmlns="http://www.w3.org/2000/svg">
<path d="M34.948 7.86548C32.8195 7.64377 30.6689 7.73243 28.5626 8.06501L28.474 8.0872C26.3677 8.44194 24.2835 9.06273 22.3324 9.94959L19.2949 3.25378C21.8446 2.10085 24.5495 1.30267 27.2988 0.837065L27.4096 0.814899C30.1367 0.371467 32.9084 0.282764 35.6798 0.548823L34.948 7.86548Z" fill="#F3EAD4"/>
<path d="M22.3318 10.3043C22.1765 10.3043 22.0434 10.2156 21.9769 10.0826L18.9395 3.38668C18.8952 3.298 18.8952 3.18718 18.9395 3.0985C18.9839 3.00981 19.0503 2.92112 19.139 2.87678C21.7109 1.72386 24.438 0.90348 27.2316 0.437877L27.3424 0.41571C30.1139 -0.0277219 32.9297 -0.116398 35.7012 0.149662C35.9229 0.171833 36.078 0.349185 36.0558 0.570901L35.3465 7.88753C35.3465 7.99839 35.2799 8.08707 35.2134 8.15358C35.1247 8.2201 35.036 8.2423 34.9252 8.2423C32.8411 8.04276 30.7347 8.10925 28.6284 8.44182L28.5619 8.46402C26.4778 8.81876 24.438 9.41738 22.5091 10.2821C22.4204 10.3042 22.3761 10.3043 22.3318 10.3043ZM19.8041 3.43107L22.5312 9.41741C24.4158 8.59706 26.3892 8.02058 28.4289 7.68801L28.5175 7.66582C30.5351 7.33324 32.5971 7.26676 34.6147 7.42196L35.2357 0.881309C32.6416 0.659593 30.0252 0.770462 27.4533 1.16955L27.3648 1.19172C24.7485 1.63515 22.1986 2.38901 19.8041 3.43107Z" fill="#141414"/>
<path d="M51.2213 6.40185L46.9422 12.366C43.2617 9.72757 39.1156 8.24209 34.9251 7.843L35.6347 0.526367C41.0889 1.08066 46.4544 2.98742 51.2213 6.40185Z" fill="#F3EAD4"/>
<path d="M46.9417 12.7652C46.853 12.7652 46.7865 12.743 46.72 12.6986C43.239 10.1932 39.1373 8.66344 34.9025 8.24218C34.6808 8.22 34.5255 8.0426 34.5477 7.82088L35.2572 0.504277C35.2572 0.393418 35.3236 0.304716 35.3901 0.238201C35.4788 0.171686 35.5677 0.149536 35.6786 0.149536C41.3545 0.703826 46.8085 2.74363 51.4646 6.09154C51.5533 6.15805 51.5976 6.24671 51.6198 6.33539C51.642 6.44625 51.6199 6.53495 51.5533 6.62364L47.2743 12.5878C47.1856 12.7208 47.0747 12.7652 46.9417 12.7652ZM35.3681 7.5105C39.492 7.9761 43.4386 9.4616 46.8752 11.834L50.7109 6.49059C46.3431 3.4309 41.2658 1.52417 36.0111 0.947709L35.3681 7.5105Z" fill="#141414"/>
<path d="M61.7307 19.1283L55.057 22.188C53.3276 18.3967 50.6005 14.9822 46.9643 12.3882L51.2434 6.42401C55.9438 9.7941 59.4692 14.2062 61.7307 19.1283Z" fill="#F3EAD4"/>
<path d="M55.0348 22.5649C54.8796 22.5649 54.7465 22.4762 54.68 22.3431C52.9284 18.5075 50.1571 15.1595 46.7205 12.6985C46.5431 12.5655 46.4987 12.3216 46.6317 12.1664L50.9108 6.20225C50.9773 6.11357 51.0661 6.06918 51.1548 6.04701C51.2657 6.02484 51.3543 6.04702 51.443 6.11353C56.0547 9.41711 59.7131 13.8736 62.0633 18.9953C62.1076 19.084 62.1076 19.1948 62.0633 19.2835C62.0189 19.3722 61.9523 19.4609 61.8636 19.5052L55.1901 22.5649C55.1457 22.5649 55.1013 22.5649 55.0348 22.5649ZM47.4965 12.2994C50.8001 14.7605 53.4827 17.9753 55.2342 21.678L61.2206 18.9509C58.9812 14.2062 55.5669 10.0823 51.3321 6.95607L47.4965 12.2994Z" fill="#141414"/>
<path d="M64.5017 35.5349L57.1851 34.8254C57.3847 32.6969 57.296 30.5685 56.9634 28.4844C56.6087 26.3116 55.9656 24.1831 55.0344 22.1655L61.708 19.1058C62.9053 21.722 63.7478 24.4713 64.1913 27.2649C64.6569 30.0142 64.7678 32.7856 64.5017 35.5349Z" fill="#F3EAD4"/>
<path d="M64.5024 35.9121C64.4803 35.9121 64.4802 35.9121 64.4581 35.9121L57.1414 35.2026C56.9197 35.1804 56.7644 35.0031 56.7866 34.7814C56.9861 32.6972 56.8974 30.6131 56.5648 28.5511C56.2101 26.4005 55.5672 24.3163 54.6582 22.3431C54.6138 22.2544 54.6138 22.1436 54.6582 22.0549C54.7025 21.9662 54.7691 21.8775 54.8578 21.8331L61.5314 18.7735C61.7309 18.6848 61.9526 18.7734 62.0413 18.973C63.2385 21.5892 64.1033 24.3829 64.5689 27.243C65.0124 29.9923 65.1232 32.8081 64.8571 35.5795C64.8571 35.6904 64.7907 35.7791 64.7242 35.8456C64.6798 35.8899 64.5911 35.9121 64.5024 35.9121ZM57.6069 34.471L64.1476 35.0917C64.3471 32.5198 64.2363 29.9036 63.815 27.3539C63.3716 24.6933 62.5957 22.0992 61.5093 19.6381L55.5229 22.3652C56.3655 24.2942 56.9862 26.334 57.3188 28.4181C57.6735 30.4357 57.7621 32.4755 57.6069 34.471Z" fill="#141414"/>
<path d="M58.6715 51.1662L52.7075 46.8871C55.3237 43.1844 56.8093 39.0383 57.1862 34.8257L64.5028 35.5352C63.9929 40.9894 62.0859 46.3993 58.6715 51.1662Z" fill="#F3EAD4"/>
<path d="M58.6714 51.5651C58.5827 51.5651 58.5162 51.543 58.4496 51.4986L52.4856 47.2195C52.3082 47.0865 52.2638 46.8648 52.3968 46.6874C54.9022 43.1843 56.41 39.0604 56.8091 34.8034C56.8091 34.6926 56.8755 34.6038 56.942 34.5373C57.0307 34.4708 57.1193 34.4487 57.2302 34.4487L64.5468 35.1582C64.7686 35.1803 64.9239 35.3577 64.9017 35.5794C64.3696 41.2554 62.3297 46.7317 59.0039 51.41C58.9374 51.4986 58.8488 51.543 58.7601 51.5651C58.7158 51.5651 58.6935 51.5651 58.6714 51.5651ZM53.2616 46.7982L58.6049 50.6339C61.6424 46.244 63.5491 41.1666 64.1034 35.8676L57.5628 35.2469C57.0972 39.3708 55.6118 43.3616 53.2616 46.7982Z" fill="#141414"/>
<path d="M58.6707 51.1663L58.6266 51.2328C55.2343 55.9554 50.8222 59.4807 45.8779 61.7422L42.8403 55.0685C46.6317 53.3391 50.0461 50.612 52.6623 46.9759L52.7067 46.9094L58.6707 51.1663Z" fill="#F3EAD4"/>
<path d="M45.878 62.1411C45.8337 62.1411 45.7892 62.1411 45.7448 62.119C45.6561 62.0746 45.5675 62.0081 45.5231 61.9194L42.4856 55.2458C42.3969 55.0462 42.4857 54.8245 42.6852 54.7358C46.5209 52.9842 49.8687 50.2128 52.3519 46.754L52.3963 46.6875C52.4628 46.5988 52.5516 46.5545 52.6403 46.5323C52.7512 46.5101 52.8398 46.5323 52.9285 46.5988L58.8926 50.878C58.9812 50.9445 59.0256 51.0331 59.0478 51.1218C59.07 51.2105 59.0478 51.3214 58.9813 51.4101L58.9369 51.4766C55.6334 56.0883 51.1768 59.7687 46.033 62.0968C45.9887 62.1411 45.9445 62.1411 45.878 62.1411ZM43.3503 55.2679L46.0774 61.2542C50.8443 59.0149 55.0127 55.5561 58.1389 51.277L52.7954 47.4414C50.3343 50.7893 47.0752 53.472 43.3503 55.2679Z" fill="#141414"/>
<path d="M45.8782 61.7644C43.2841 62.9616 40.5348 63.782 37.7412 64.2476C35.0141 64.691 32.2427 64.8019 29.4712 64.5358L30.1805 57.2192C32.309 57.4187 34.4597 57.3522 36.5438 56.9975C38.7167 56.6427 40.823 55.9998 42.8407 55.0685L45.8782 61.7644Z" fill="#F3EAD4"/>
<path d="M32.4863 65.0459C31.4664 65.0459 30.4464 65.0015 29.4487 64.9128C29.3379 64.9128 29.2491 64.8463 29.1826 64.7798C29.1161 64.6911 29.0941 64.6024 29.0941 64.4916L29.8036 57.1749C29.8258 56.9532 30.003 56.798 30.2247 56.8202C32.3089 57.0197 34.4151 56.9532 36.4992 56.5984C38.6499 56.2437 40.734 55.6007 42.7073 54.7139C42.796 54.6695 42.907 54.6695 42.9957 54.7139C43.0844 54.7582 43.1731 54.8248 43.2174 54.9134L46.2548 61.5871C46.3434 61.7866 46.2549 62.0083 46.0553 62.097C43.4391 63.2943 40.6676 64.1368 37.8075 64.6024C36.0337 64.9128 34.26 65.0459 32.4863 65.0459ZM29.8921 64.1812C32.4862 64.4029 35.1026 64.292 37.6745 63.8707C40.3351 63.4273 42.9068 62.6513 45.3679 61.5871L42.6408 55.6007C40.7119 56.4432 38.6721 57.0419 36.588 57.3966C34.5704 57.7292 32.5306 57.8179 30.4908 57.6627L29.8921 64.1812Z" fill="#141414"/>
<path d="M29.4711 64.5357C23.9947 64.0257 18.5848 62.0968 13.7957 58.6602L18.0748 52.696C21.7775 55.3566 25.9456 56.8421 30.1804 57.2412L29.4711 64.5357Z" fill="#F3EAD4"/>
<path d="M29.4703 64.9125C29.4481 64.9125 29.4481 64.9125 29.4259 64.9125C23.7278 64.3804 18.2291 62.3185 13.5509 58.9706C13.3735 58.8375 13.3293 58.5936 13.4623 58.4384L17.7414 52.4743C17.8745 52.2969 18.0963 52.2525 18.2736 52.3856C21.7989 54.9131 25.9006 56.443 30.2019 56.8421C30.3128 56.8421 30.4015 56.9086 30.468 56.9751C30.5345 57.0638 30.5566 57.1525 30.5566 57.2633L29.847 64.58C29.8249 64.7573 29.6698 64.9125 29.4703 64.9125ZM14.3269 58.5493C18.7169 61.609 23.8164 63.5379 29.1154 64.0922L29.7362 57.5516C25.5901 57.1081 21.5992 55.6005 18.1405 53.206L14.3269 58.5493Z" fill="#141414"/>
<path d="M18.0751 52.6738L13.796 58.638C9.05132 55.2458 5.52603 50.7892 3.26453 45.845L9.9381 42.7853C11.6675 46.621 14.4168 50.0576 18.0751 52.6738Z" fill="#F3EAD4"/>
<path d="M13.7959 59.0371C13.7072 59.0371 13.6407 59.0149 13.5742 58.9706C8.94029 55.6449 5.25968 51.1662 2.90948 46.0223C2.8208 45.8228 2.90957 45.6011 3.10912 45.5124L9.78269 42.4528C9.87137 42.4084 9.9824 42.4084 10.0711 42.4528C10.1598 42.4971 10.2485 42.5636 10.2928 42.6523C12.0444 46.5323 14.8157 49.8802 18.2967 52.3856C18.3854 52.4521 18.4297 52.5408 18.4519 52.6295C18.4741 52.7404 18.452 52.8291 18.3854 52.9177L14.1061 58.8819C14.0175 58.9706 13.9067 59.0371 13.7959 59.0371ZM3.77426 46.0445C6.0136 50.8114 9.42798 54.9797 13.7071 58.1059L17.5428 52.7625C14.217 50.3015 11.5343 47.0422 9.7606 43.2952L3.77426 46.0445Z" fill="#141414"/>
<path d="M9.93669 42.8077L3.26312 45.8674C2.08802 43.2733 1.26754 40.5683 0.801941 37.7747C0.779769 37.6195 0.757641 37.4643 0.735469 37.3091C0.33638 34.6928 0.269995 32.0323 0.536055 29.3717L7.85269 30.0812C7.65314 32.121 7.69731 34.1829 8.00771 36.2227C8.02988 36.3336 8.02993 36.4666 8.0521 36.5775C8.40685 38.706 9.02765 40.8122 9.93669 42.8077Z" fill="#F3EAD4"/>
<path d="M3.26371 46.2443C3.21936 46.2443 3.17489 46.2443 3.13055 46.2222C3.04186 46.1778 2.95317 46.1113 2.90883 46.0226C1.73374 43.4285 0.891388 40.6571 0.425784 37.8413C0.403612 37.6861 0.381267 37.5309 0.359096 37.3535C-0.0399931 34.7151 -0.106378 32.0101 0.159681 29.3273C0.181853 29.1056 0.359096 28.9505 0.580812 28.9726L7.89744 29.6821C8.0083 29.6821 8.09703 29.7486 8.16355 29.8152C8.23006 29.9038 8.25232 29.9925 8.25232 30.1033C8.05277 32.0988 8.09716 34.1386 8.40756 36.1341C8.42974 36.2449 8.42956 36.3779 8.45173 36.4888C8.80648 38.6173 9.42737 40.6792 10.3142 42.6303C10.4029 42.8299 10.3141 43.0516 10.1146 43.1403L3.44104 46.2C3.37452 46.2221 3.30805 46.2443 3.26371 46.2443ZM0.869216 29.793C0.6475 32.2762 0.7361 34.7816 1.11302 37.2426C1.13519 37.3979 1.15732 37.553 1.17949 37.7082C1.62292 40.3466 2.3768 42.9186 3.44104 45.3353L9.42737 42.6082C8.60702 40.7014 8.00839 38.6838 7.65364 36.6218C7.63147 36.4888 7.60926 36.378 7.60926 36.2449C7.32102 34.316 7.25464 32.3427 7.40984 30.4138L0.869216 29.793Z" fill="#141414"/>
<path d="M7.83204 30.0813L0.515411 29.3718C1.04753 23.9397 2.97655 18.5742 6.3688 13.8073L6.41319 13.7408L12.3772 18.0199L12.3328 18.0864C9.73876 21.7447 8.2533 25.8908 7.83204 30.0813Z" fill="#F3EAD4"/>
<path d="M7.83143 30.4581C7.80926 30.4581 7.80922 30.4581 7.78705 30.4581L0.470412 29.7486C0.359554 29.7486 0.271041 29.6821 0.204526 29.6156C0.138011 29.5491 0.115753 29.4382 0.115753 29.3273C0.670044 23.6736 2.70979 18.2194 6.0577 13.5855L6.10209 13.519C6.23512 13.3417 6.47909 13.2973 6.63429 13.4303L12.5983 17.7094C12.7757 17.8425 12.8201 18.0642 12.6871 18.2415L12.6427 18.3081C10.1373 21.789 8.60757 25.8686 8.18631 30.1033C8.20848 30.3029 8.03098 30.4581 7.83143 30.4581ZM0.958231 29.017L7.49886 29.6378C7.96446 25.4917 9.47209 21.5229 11.8888 18.0863L6.54552 14.2506C3.46367 18.6628 1.53469 23.7401 0.958231 29.017Z" fill="#141414"/>
<path d="M22.3306 9.92722C18.6058 11.6123 15.2358 14.2286 12.6195 17.7317C12.553 17.8204 12.4864 17.909 12.4199 18.0199L6.45563 13.7408C6.54431 13.6078 6.63317 13.4747 6.74403 13.3638C10.1141 8.81864 14.4597 5.42642 19.2931 3.2536L22.3306 9.92722Z" fill="#F3EAD4"/>
<path d="M12.4199 18.3968C12.3312 18.3968 12.2647 18.3746 12.1982 18.3303L6.21187 14.0511C6.0345 13.9181 5.99007 13.6964 6.1231 13.519C6.21178 13.386 6.32281 13.253 6.4115 13.1199C9.71507 8.68563 14.105 5.13815 19.1158 2.89881C19.3153 2.81013 19.537 2.89885 19.6257 3.09839L22.6632 9.79421C22.7076 9.88289 22.7076 9.99376 22.6632 10.0824C22.6189 10.1711 22.5523 10.2598 22.4636 10.3042C18.6944 11.9892 15.391 14.6498 12.9077 17.9977C12.8412 18.0864 12.7746 18.1751 12.7081 18.2638C12.6416 18.3524 12.5308 18.3968 12.4199 18.3968ZM6.98788 13.652L12.3311 17.4877C14.8144 14.162 18.0738 11.5014 21.8208 9.74987L19.0935 3.76354C14.3488 5.9807 10.1806 9.37291 7.03226 13.5855C7.01009 13.6077 7.01005 13.6299 6.98788 13.652Z" fill="#141414"/>
<path d="M52.7071 46.9093L52.6627 46.9758C50.0465 50.612 46.6543 53.3391 42.8407 55.0684C40.8231 55.9775 38.7167 56.6205 36.5439 56.9974C34.4376 57.3521 32.3091 57.4186 30.1806 57.2191C25.9458 56.82 21.7777 55.3345 18.075 52.6739C14.4167 50.0577 11.6895 46.6211 9.93797 42.7854C9.02894 40.79 8.40813 38.7058 8.05339 36.5552C8.03122 36.4443 8.009 36.3112 8.009 36.2004C7.6986 34.1828 7.65443 32.1208 7.85397 30.0589C8.25306 25.8684 9.73843 21.7445 12.3769 18.064L12.4212 17.9975C12.4878 17.9088 12.5544 17.8201 12.6209 17.7093C15.2371 14.2062 18.585 11.5678 22.332 9.90488C24.3053 9.01802 26.3673 8.39718 28.4736 8.04243L28.5621 8.02029C30.6684 7.68772 32.819 7.599 34.9475 7.82072C39.1379 8.2198 43.2841 9.70534 46.9646 12.3438C50.6007 14.9378 53.3278 18.3523 55.0572 22.1436C55.9884 24.1612 56.6314 26.2897 56.9862 28.4625C57.3409 30.5466 57.4074 32.6751 57.2079 34.8036C56.8088 39.0384 55.3455 43.2066 52.7071 46.9093Z" fill="#F3EAD4"/>
<path d="M32.4868 57.707C31.7108 57.707 30.9127 57.6626 30.1367 57.5961C25.7245 57.1748 21.4676 55.6007 17.8314 52.9844C14.2396 50.4125 11.3794 46.9316 9.58354 42.9407C8.67451 40.9231 8.03149 38.7946 7.65457 36.6218C7.6324 36.4888 7.61018 36.3779 7.61018 36.2449C7.29978 34.1829 7.2554 32.0988 7.45494 30.0146C7.8762 25.6468 9.4726 21.4342 12.0445 17.8424L12.0889 17.7759C12.1554 17.6872 12.2441 17.5764 12.3106 17.4877C14.8603 14.0511 18.2749 11.3018 22.1549 9.57242C24.1282 8.68555 26.2343 8.04258 28.4071 7.68783L28.4959 7.66564C30.6465 7.31089 32.8415 7.2444 34.9921 7.46612C39.3821 7.88738 43.5947 9.48372 47.1865 12.0556C50.7561 14.6054 53.5942 18.0419 55.4123 22.0107C56.3435 24.0504 57.0086 26.2011 57.3634 28.4183C57.7181 30.5468 57.7846 32.7196 57.5851 34.8481C57.186 39.238 55.6118 43.4728 53.0399 47.109L52.9955 47.1754C50.4458 50.7451 46.987 53.5831 43.0183 55.4011C40.9785 56.3323 38.8279 56.9975 36.6329 57.3522C35.2361 57.5961 33.8614 57.707 32.4868 57.707ZM32.5312 8.13126C31.223 8.13126 29.9148 8.2421 28.6288 8.44165L28.5624 8.46384C26.4782 8.81858 24.4385 9.41721 22.5096 10.2819C18.7404 11.9669 15.4369 14.6275 12.9537 17.9754C12.8872 18.0641 12.8206 18.1528 12.754 18.2415L12.7097 18.308C10.2043 21.789 8.67451 25.8685 8.25325 30.1033C8.0537 32.1209 8.09809 34.1386 8.40849 36.134C8.43066 36.2449 8.43049 36.3779 8.45266 36.4887C8.80741 38.6172 9.4283 40.6792 10.3152 42.6303C12.0667 46.5103 14.8381 49.8582 18.319 52.3636C21.8443 54.8912 25.9462 56.421 30.2475 56.8201C32.3317 57.0196 34.4379 56.9531 36.5221 56.5984C38.6727 56.2436 40.7568 55.6007 42.7301 54.7138C46.5658 52.9622 49.9136 50.1908 52.3968 46.732L52.4412 46.6655C54.9466 43.1624 56.4544 39.0385 56.8535 34.7815C57.053 32.6974 56.9643 30.6132 56.6318 28.5513C56.277 26.4006 55.6339 24.3165 54.7249 22.3432C52.9733 18.5075 50.202 15.1596 46.7654 12.6986C43.2844 10.1932 39.1825 8.66338 34.9477 8.24212C34.1052 8.15344 33.3293 8.13126 32.5312 8.13126Z" fill="#141414"/>
<path d="M46.5553 12.0859L46.5038 12.158L47.135 12.6094L47.1865 12.5373L46.5553 12.0859Z" fill="#141414"/>
<path d="M51.1183 6.02823L51.015 6.17236L51.6457 6.62446L51.749 6.48033L51.1183 6.02823Z" fill="#141414"/>
<path d="M17.8488 52.1017L17.6809 52.3359L18.3116 52.7881L18.4795 52.5539L17.8488 52.1017Z" fill="#141414"/>
<path d="M22.6035 9.75095L21.8973 10.0724L21.9616 10.2137L22.6678 9.89224L22.6035 9.75095Z" fill="#141414"/>
<path d="M19.6978 2.90012L18.9915 3.22162L19.0466 3.34272L19.753 3.02122L19.6978 2.90012Z" fill="#141414"/>
<path d="M46.313 61.5569L45.6068 61.8787L45.6252 61.919L46.3314 61.5972L46.313 61.5569Z" fill="#141414"/>
<path d="M43.0924 54.6021L42.385 54.9211L42.4853 55.1434L43.1927 54.8244L43.0924 54.6021Z" fill="#141414"/>
<path d="M7.8765 29.7L7.7998 30.4722L8.04246 30.4963L8.11916 29.7241L7.8765 29.7Z" fill="#141414"/>
<path d="M0.5231 28.9806L0.45462 29.7536L0.49878 29.7575L0.567259 28.9845L0.5231 28.9806Z" fill="#141414"/>
<path d="M64.5603 35.0738L64.4834 35.846L64.6157 35.8592L64.6927 35.087L64.5603 35.0738Z" fill="#141414"/>
<path d="M57.0746 34.4404L57.002 35.213L57.1565 35.2275L57.2291 34.455L57.0746 34.4404Z" fill="#141414"/>
<path d="M34.5416 7.84976L34.5302 7.96002L35.302 8.04042L35.3134 7.93016L34.5416 7.84976Z" fill="#141414"/>
<path d="M35.2806 0.34621L35.2634 0.522705L36.0358 0.59779L36.0529 0.421294L35.2806 0.34621Z" fill="#141414"/>
<path d="M29.8468 64.5357L29.0708 64.5136L29.8468 64.5357Z" fill="#141414"/>
<path d="M29.7941 56.9738L29.7681 57.2386L30.5404 57.3144L30.5663 57.0496L29.7941 56.9738Z" fill="#141414"/>
<path d="M54.783 21.8619L54.6826 21.9089L55.0111 22.6119L55.1115 22.5649L54.783 21.8619Z" fill="#141414"/>
<path d="M61.7756 18.7732L61.6147 18.8477L61.9407 19.5519L62.1016 19.4774L61.7756 18.7732Z" fill="#141414"/>
<path d="M3.39677 46.2221L3.10858 45.4905L3.39677 46.2221Z" fill="#141414"/>
<path d="M10.0757 42.2864L9.83405 42.3977L10.1587 43.1025L10.4004 42.9912L10.0757 42.2864Z" fill="#141414"/>
<path d="M52.7935 46.3803L52.3414 47.011L52.5036 47.1272L52.9557 46.4965L52.7935 46.3803Z" fill="#141414"/>
<path d="M58.9752 50.8884L58.523 51.5191L58.5951 51.5708L59.0473 50.9401L58.9752 50.8884Z" fill="#141414"/>
<path d="M6.63724 13.392L6.18506 14.0226L6.25716 14.0743L6.70934 13.4437L6.63724 13.392Z" fill="#141414"/>
<path d="M12.6531 17.5911L12.201 18.2218L12.3632 18.3381L12.8153 17.7073L12.6531 17.5911Z" fill="#141414"/>
<path fill-rule="evenodd" clip-rule="evenodd" d="M43.229 33.2297C43.5193 33.023 43.7521 32.759 43.9274 32.4375C44.0912 32.1493 44.1942 31.8272 44.2365 31.471C44.2512 31.347 44.2585 31.2189 44.2585 31.0866C44.2585 30.5745 44.1482 30.1242 43.9274 29.7357C43.7155 29.3472 43.4198 29.047 43.0401 28.8351C42.6604 28.6144 42.2278 28.504 41.7422 28.504C41.2566 28.504 40.8239 28.6144 40.4443 28.8351C40.0646 29.047 39.7644 29.3472 39.5437 29.7357C39.3318 30.1242 39.2258 30.5745 39.2258 31.0866C39.2258 31.5987 39.3318 32.049 39.5437 32.4375C39.7644 32.826 40.0646 33.1306 40.4443 33.3513C40.8239 33.5632 41.2566 33.6692 41.7422 33.6692C42.2278 33.6692 42.6604 33.5632 43.0401 33.3513C43.1056 33.3133 43.1685 33.2727 43.229 33.2297ZM41.8084 37.841H44.1791L49.4899 28.5702H47.1192L41.8084 37.841ZM48.061 33.1962C47.7731 33.396 47.5386 33.6552 47.3576 33.9738C47.2002 34.2625 47.1012 34.5853 47.0608 34.9422C47.0468 35.0656 47.0398 35.1931 47.0398 35.3247C47.0398 35.8368 47.1457 36.2871 47.3576 36.6756C47.5784 37.0641 47.8786 37.3687 48.2582 37.5894C48.6379 37.8013 49.0705 37.9073 49.5561 37.9073C50.0417 37.9073 50.4744 37.8013 50.854 37.5894C51.2337 37.3687 51.5295 37.0641 51.7414 36.6756C51.9621 36.2871 52.0725 35.8368 52.0725 35.3247C52.0725 34.8126 51.9621 34.3623 51.7414 33.9738C51.5295 33.5853 51.2337 33.2851 50.854 33.0732C50.4744 32.8525 50.0417 32.7421 49.5561 32.7421C49.0705 32.7421 48.6379 32.8525 48.2582 33.0732C48.1899 33.1113 48.1241 33.1523 48.061 33.1962ZM42.219 31.815C42.0954 31.9916 41.9364 32.0799 41.7422 32.0799C41.5479 32.0799 41.389 31.9916 41.2654 31.815C41.1418 31.6384 41.08 31.3956 41.08 31.0866C41.08 30.7776 41.1418 30.5348 41.2654 30.3582C41.389 30.1816 41.5479 30.0933 41.7422 30.0933C41.9364 30.0933 42.0954 30.1816 42.219 30.3582C42.3426 30.5348 42.4044 30.7776 42.4044 31.0866C42.4044 31.3956 42.3426 31.6384 42.219 31.815ZM50.0329 36.0531C49.9093 36.2297 49.7504 36.318 49.5561 36.318C49.3619 36.318 49.203 36.2297 49.0793 36.0531C48.9557 35.8765 48.8939 35.6337 48.8939 35.3247C48.8939 35.0156 48.9557 34.7728 49.0793 34.5963C49.203 34.4197 49.3619 34.3314 49.5561 34.3314C49.7504 34.3314 49.9093 34.4197 50.0329 34.5963C50.1565 34.7728 50.2183 35.0156 50.2183 35.3247C50.2183 35.6337 50.1565 35.8765 50.0329 36.0531Z" stroke="#1A1A1A" stroke-width="0.8"/>
<path d="M29.7893 30.2029L29.7938 30.1936M38.2796 35.7485C37.9264 36.4814 37.4231 37.0464 36.7698 37.4438C36.1252 37.8411 35.3747 38.0397 34.5183 38.0397C33.6619 38.0397 32.907 37.8411 32.2536 37.4438C31.609 37.0464 31.1058 36.4814 30.7438 35.7485C30.3906 35.0157 30.214 34.1681 30.214 33.2057C30.214 32.2433 30.3906 31.3957 30.7438 30.6629C31.1058 29.93 31.609 29.3649 32.2536 28.9676C32.907 28.5703 33.6619 28.3716 34.5183 28.3716C35.3747 28.3716 36.1252 28.5703 36.7698 28.9676C37.4231 29.3649 37.9264 29.93 38.2796 30.6629C38.6416 31.3957 38.8226 32.2433 38.8226 33.2057C38.8226 34.1681 38.6416 35.0157 38.2796 35.7485ZM33.4588 33.2057C33.4588 33.8591 33.5515 34.3667 33.7369 34.7288C33.9223 35.0819 34.1828 35.2585 34.5183 35.2585C34.8538 35.2585 35.1143 35.0819 35.2997 34.7288C35.4851 34.3667 35.5778 33.8591 35.5778 33.2057C35.5778 32.5523 35.4851 32.0491 35.2997 31.6959C35.1143 31.3339 34.8538 31.1529 34.5183 31.1529C34.1828 31.1529 33.9223 31.3339 33.7369 31.6959C33.5515 32.0491 33.4588 32.5523 33.4588 33.2057Z" stroke="#1A1A1A" stroke-width="0.8"/>
<path fill-rule="evenodd" clip-rule="evenodd" d="M29.136 35.7485C29.498 35.0157 29.679 34.1681 29.679 33.2057C29.679 32.2433 29.498 31.3957 29.136 30.6629C28.7828 29.93 28.2796 29.3649 27.6262 28.9676C26.9817 28.5703 26.2312 28.3716 25.3747 28.3716C24.5183 28.3716 23.7634 28.5703 23.11 28.9676C22.4655 29.3649 21.9622 29.93 21.6002 30.6629C21.247 31.3957 21.0704 32.2433 21.0704 33.2057C21.0704 34.1681 21.247 35.0157 21.6002 35.7485C21.9622 36.4814 22.4655 37.0464 23.11 37.4438C23.7634 37.8411 24.5183 38.0397 25.3747 38.0397C26.2312 38.0397 26.9817 37.8411 27.6262 37.4438C28.2796 37.0464 28.7828 36.4814 29.136 35.7485ZM26.1561 31.6959C25.9707 31.3339 25.7102 31.1529 25.3747 31.1529C25.0392 31.1529 24.7787 31.3339 24.5933 31.6959C24.4079 32.0491 24.3152 32.5523 24.3152 33.2057C24.3152 33.8591 24.4079 34.3667 24.5933 34.7288C24.7787 35.0819 25.0392 35.2585 25.3747 35.2585C25.7102 35.2585 25.9707 35.0819 26.1561 34.7288C26.3415 34.3667 26.4342 33.8591 26.4342 33.2057C26.4342 32.5523 26.3415 32.0491 26.1561 31.6959Z" stroke="#1A1A1A" stroke-width="0.8"/>
<path fill-rule="evenodd" clip-rule="evenodd" d="M16.7649 37.8411H20.0759V28.5703H16.9635V29.5636C16.9635 29.749 16.9194 29.8859 16.8311 29.9742C16.7516 30.0536 16.6192 30.0934 16.4338 30.0934H14.9107V32.8084H16.7649V37.8411Z" stroke="#1A1A1A" stroke-width="0.8"/>
</svg>
