<svg width="65" height="66" viewBox="0 0 65 66" fill="none" xmlns="http://www.w3.org/2000/svg">
<path d="M34.948 7.8653C32.8195 7.64358 30.6689 7.73225 28.5626 8.06482L28.4741 8.08702C26.3678 8.44176 24.2836 9.06254 22.3325 9.94941L19.2949 3.25359C21.8447 2.10067 24.5495 1.30249 27.2988 0.836882L27.4096 0.814716C30.1368 0.371283 32.9084 0.282581 35.6798 0.54864L34.948 7.8653Z" fill="#F3EAD4"/>
<path d="M22.3318 10.3043C22.1766 10.3043 22.0434 10.2156 21.9769 10.0826L18.9396 3.38668C18.8952 3.298 18.8952 3.18718 18.9396 3.0985C18.9839 3.00981 19.0503 2.92112 19.139 2.87678C21.7109 1.72386 24.438 0.90348 27.2316 0.437876L27.3425 0.41571C30.1139 -0.0277219 32.9298 -0.116398 35.7012 0.149662C35.9229 0.171833 36.0781 0.349185 36.0559 0.570901L35.3466 7.88753C35.3466 7.99839 35.2799 8.08707 35.2134 8.15358C35.1247 8.2201 35.0361 8.2423 34.9252 8.2423C32.8411 8.04276 30.7347 8.10925 28.6284 8.44182L28.5619 8.46402C26.4778 8.81876 24.438 9.41738 22.5091 10.2821C22.4204 10.3042 22.3761 10.3043 22.3318 10.3043ZM19.8041 3.43107L22.5312 9.41741C24.4158 8.59706 26.3892 8.02058 28.429 7.68801L28.5175 7.66582C30.5351 7.33324 32.5971 7.26676 34.6147 7.42196L35.2357 0.881309C32.6416 0.659593 30.0252 0.770461 27.4533 1.16955L27.3648 1.19172C24.7485 1.63515 22.1987 2.38901 19.8041 3.43107Z" fill="#141414"/>
<path d="M51.2213 6.40203L46.9422 12.3662C43.2617 9.72775 39.1156 8.24227 34.9251 7.84318L35.6347 0.52655C41.0889 1.08084 46.4544 2.9876 51.2213 6.40203Z" fill="#F3EAD4"/>
<path d="M46.9417 12.7652C46.853 12.7652 46.7865 12.743 46.72 12.6986C43.239 10.1932 39.1373 8.66344 34.9025 8.24218C34.6808 8.22 34.5255 8.0426 34.5477 7.82088L35.2572 0.504277C35.2572 0.393418 35.3236 0.304716 35.3901 0.238201C35.4788 0.171686 35.5677 0.149536 35.6786 0.149536C41.3545 0.703826 46.8085 2.74363 51.4646 6.09154C51.5533 6.15805 51.5976 6.24671 51.6198 6.33539C51.642 6.44625 51.6199 6.53495 51.5533 6.62364L47.2743 12.5878C47.1856 12.7208 47.0747 12.7652 46.9417 12.7652ZM35.3681 7.5105C39.492 7.9761 43.4386 9.4616 46.8752 11.834L50.7109 6.49059C46.3431 3.4309 41.2658 1.52417 36.0111 0.947709L35.3681 7.5105Z" fill="#141414"/>
<path d="M61.7307 19.1285L55.057 22.1882C53.3276 18.3969 50.6005 14.9825 46.9643 12.3884L51.2434 6.42426C55.9438 9.79434 59.4692 14.2064 61.7307 19.1285Z" fill="#F3EAD4"/>
<path d="M55.0348 22.565C54.8796 22.565 54.7465 22.4764 54.68 22.3433C52.9284 18.5076 50.1571 15.1597 46.7205 12.6987C46.5431 12.5656 46.4987 12.3218 46.6317 12.1666L50.9108 6.20244C50.9773 6.11375 51.0661 6.06936 51.1548 6.04719C51.2657 6.02502 51.3543 6.0472 51.443 6.11372C56.0547 9.41729 59.7131 13.8738 62.0633 18.9954C62.1076 19.0841 62.1076 19.195 62.0633 19.2837C62.0189 19.3724 61.9523 19.4611 61.8636 19.5054L55.1901 22.565C55.1457 22.565 55.1013 22.565 55.0348 22.565ZM47.4965 12.2996C50.8001 14.7607 53.4827 17.9755 55.2342 21.6782L61.2206 18.9511C58.9812 14.2064 55.5669 10.0824 51.3321 6.95625L47.4965 12.2996Z" fill="#141414"/>
<path d="M64.5017 35.535L57.1851 34.8255C57.3846 32.6971 57.2959 30.5686 56.9634 28.4845C56.6086 26.3117 55.9656 24.1832 55.0344 22.1656L61.708 19.1059C62.9052 21.7221 63.7478 24.4714 64.1912 27.2651C64.6568 30.0143 64.7678 32.7857 64.5017 35.535Z" fill="#F3EAD4"/>
<path d="M64.5025 35.9121C64.4803 35.9121 64.4803 35.9121 64.4581 35.9121L57.1415 35.2026C56.9197 35.1804 56.7644 35.0031 56.7866 34.7814C56.9861 32.6972 56.8974 30.6131 56.5649 28.5511C56.2101 26.4005 55.5672 24.3163 54.6582 22.3431C54.6139 22.2544 54.6139 22.1436 54.6582 22.0549C54.7025 21.9662 54.7691 21.8775 54.8578 21.8331L61.5314 18.7735C61.7309 18.6848 61.9526 18.7734 62.0413 18.973C63.2386 21.5892 64.1033 24.3829 64.569 27.243C65.0124 29.9923 65.1232 32.8081 64.8571 35.5795C64.8571 35.6904 64.7907 35.7791 64.7242 35.8456C64.6799 35.8899 64.5912 35.9121 64.5025 35.9121ZM57.607 34.471L64.1476 35.0917C64.3471 32.5198 64.2363 29.9036 63.815 27.3539C63.3716 24.6933 62.5957 22.0992 61.5093 19.6381L55.523 22.3652C56.3655 24.2942 56.9862 26.334 57.3188 28.4181C57.6735 30.4357 57.7622 32.4755 57.607 34.471Z" fill="#141414"/>
<path d="M58.6715 51.1664L52.7075 46.8873C55.3237 43.1847 56.8093 39.0385 57.1862 34.8259L64.5028 35.5354C63.9929 40.9896 62.0859 46.3995 58.6715 51.1664Z" fill="#F3EAD4"/>
<path d="M58.6714 51.5654C58.5827 51.5654 58.5162 51.5433 58.4496 51.4989L52.4856 47.2198C52.3082 47.0868 52.2638 46.8651 52.3968 46.6877C54.9022 43.1846 56.41 39.0607 56.8091 34.8037C56.8091 34.6929 56.8755 34.6042 56.942 34.5376C57.0307 34.4711 57.1193 34.449 57.2302 34.449L64.5468 35.1585C64.7686 35.1806 64.9239 35.358 64.9017 35.5797C64.3696 41.2557 62.3297 46.732 59.0039 51.4103C58.9374 51.4989 58.8488 51.5433 58.7601 51.5654C58.7158 51.5654 58.6935 51.5654 58.6714 51.5654ZM53.2616 46.7986L58.6049 50.6343C61.6424 46.2443 63.5491 41.167 64.1034 35.8679L57.5628 35.2472C57.0972 39.3711 55.6118 43.362 53.2616 46.7986Z" fill="#141414"/>
<path d="M58.6707 51.1664L58.6266 51.2329C55.2343 55.9555 50.8222 59.4808 45.8779 61.7423L42.8403 55.0686C46.6317 53.3393 50.0461 50.6122 52.6623 46.976L52.7067 46.9095L58.6707 51.1664Z" fill="#F3EAD4"/>
<path d="M45.878 62.1413C45.8337 62.1413 45.7892 62.1413 45.7448 62.1191C45.6561 62.0748 45.5675 62.0082 45.5231 61.9196L42.4856 55.2459C42.3969 55.0464 42.4857 54.8247 42.6852 54.736C46.5209 52.9844 49.8687 50.213 52.3519 46.7542L52.3963 46.6877C52.4628 46.599 52.5516 46.5547 52.6403 46.5325C52.7512 46.5103 52.8398 46.5325 52.9285 46.599L58.8926 50.8781C58.9812 50.9447 59.0256 51.0333 59.0478 51.122C59.07 51.2107 59.0478 51.3216 58.9813 51.4102L58.9369 51.4768C55.6334 56.0885 51.1768 59.7689 46.033 62.0969C45.9887 62.1413 45.9445 62.1413 45.878 62.1413ZM43.3503 55.2681L46.0774 61.2544C50.8443 59.0151 55.0127 55.5563 58.1389 51.2772L52.7954 47.4415C50.3343 50.7895 47.0752 53.4722 43.3503 55.2681Z" fill="#141414"/>
<path d="M45.8782 61.7644C43.2842 62.9617 40.5348 63.782 37.7412 64.2476C35.0141 64.6911 32.2427 64.8019 29.4713 64.5359L30.1806 57.2192C32.309 57.4188 34.4597 57.3523 36.5439 56.9975C38.7167 56.6428 40.8231 55.9998 42.8407 55.0686L45.8782 61.7644Z" fill="#F3EAD4"/>
<path d="M32.4863 65.0459C31.4664 65.0459 30.4464 65.0015 29.4487 64.9128C29.3379 64.9128 29.2491 64.8463 29.1826 64.7798C29.1161 64.6911 29.0941 64.6024 29.0941 64.4916L29.8036 57.1749C29.8258 56.9532 30.003 56.798 30.2247 56.8202C32.3089 57.0197 34.4151 56.9532 36.4992 56.5984C38.6499 56.2437 40.734 55.6007 42.7073 54.7139C42.796 54.6695 42.907 54.6695 42.9957 54.7139C43.0844 54.7582 43.1731 54.8248 43.2174 54.9134L46.2548 61.5871C46.3434 61.7866 46.2549 62.0083 46.0553 62.097C43.4391 63.2943 40.6676 64.1368 37.8075 64.6024C36.0337 64.9128 34.26 65.0459 32.4863 65.0459ZM29.8921 64.1812C32.4862 64.4029 35.1026 64.292 37.6745 63.8707C40.3351 63.4273 42.9068 62.6513 45.3679 61.5871L42.6408 55.6007C40.7119 56.4432 38.6721 57.0419 36.588 57.3966C34.5704 57.7292 32.5306 57.8179 30.4908 57.6627L29.8921 64.1812Z" fill="#141414"/>
<path d="M29.4711 64.5357C23.9947 64.0258 18.5848 62.0968 13.7957 58.6602L18.0748 52.6961C21.7775 55.3567 25.9456 56.8422 30.1804 57.2413L29.4711 64.5357Z" fill="#F3EAD4"/>
<path d="M29.4703 64.9126C29.4481 64.9126 29.4481 64.9126 29.4259 64.9126C23.7278 64.3805 18.2291 62.3186 13.5509 58.9707C13.3735 58.8377 13.3293 58.5937 13.4623 58.4385L17.7414 52.4744C17.8745 52.297 18.0963 52.2527 18.2736 52.3857C21.7989 54.9133 25.9006 56.4431 30.2019 56.8422C30.3128 56.8422 30.4015 56.9087 30.468 56.9753C30.5345 57.0639 30.5566 57.1526 30.5566 57.2634L29.847 64.5801C29.8249 64.7574 29.6698 64.9126 29.4703 64.9126ZM14.3269 58.5494C18.7169 61.6091 23.8164 63.538 29.1154 64.0923L29.7362 57.5517C25.5901 57.1083 21.5992 55.6006 18.1405 53.2061L14.3269 58.5494Z" fill="#141414"/>
<path d="M18.0751 52.6738L13.796 58.638C9.05132 55.2458 5.52603 50.7892 3.26453 45.845L9.9381 42.7853C11.6675 46.621 14.4168 50.0576 18.0751 52.6738Z" fill="#F3EAD4"/>
<path d="M13.7959 59.0371C13.7072 59.0371 13.6407 59.015 13.5742 58.9707C8.94029 55.6449 5.25968 51.1662 2.90948 46.0224C2.8208 45.8229 2.90957 45.6011 3.10912 45.5125L9.78269 42.4528C9.87137 42.4085 9.9824 42.4085 10.0711 42.4528C10.1598 42.4972 10.2485 42.5636 10.2928 42.6523C12.0444 46.5324 14.8157 49.8803 18.2967 52.3856C18.3854 52.4522 18.4297 52.5409 18.4519 52.6296C18.4741 52.7404 18.452 52.8291 18.3854 52.9178L14.1061 58.8819C14.0175 58.9706 13.9067 59.0371 13.7959 59.0371ZM3.77426 46.0446C6.0136 50.8115 9.42798 54.9797 13.7071 58.1059L17.5427 52.7626C14.217 50.3016 11.5343 47.0423 9.7606 43.2953L3.77426 46.0446Z" fill="#141414"/>
<path d="M9.93669 42.8078L3.26312 45.8675C2.08802 43.2734 1.26754 40.5685 0.801941 37.7748C0.779769 37.6196 0.757641 37.4644 0.735469 37.3092C0.33638 34.693 0.269995 32.0324 0.536055 29.3718L7.85269 30.0813C7.65314 32.1211 7.69731 34.183 8.00771 36.2228C8.02988 36.3337 8.02993 36.4667 8.0521 36.5776C8.40685 38.7061 9.02765 40.8123 9.93669 42.8078Z" fill="#F3EAD4"/>
<path d="M3.26371 46.2443C3.21936 46.2443 3.17489 46.2443 3.13055 46.2222C3.04186 46.1778 2.95317 46.1113 2.90883 46.0226C1.73374 43.4285 0.891388 40.6571 0.425784 37.8413C0.403612 37.6861 0.381268 37.5309 0.359096 37.3535C-0.0399931 34.7151 -0.106378 32.0101 0.159681 29.3273C0.181853 29.1056 0.359096 28.9505 0.580812 28.9726L7.89744 29.6821C8.0083 29.6821 8.09703 29.7486 8.16355 29.8152C8.23006 29.9038 8.25232 29.9925 8.25232 30.1033C8.05278 32.0988 8.09716 34.1386 8.40756 36.1341C8.42974 36.2449 8.42956 36.3779 8.45173 36.4888C8.80648 38.6173 9.42737 40.6792 10.3142 42.6303C10.4029 42.8299 10.3141 43.0516 10.1146 43.1403L3.44104 46.2C3.37452 46.2221 3.30805 46.2443 3.26371 46.2443ZM0.869216 29.793C0.6475 32.2762 0.7361 34.7816 1.11302 37.2426C1.13519 37.3979 1.15732 37.553 1.17949 37.7082C1.62292 40.3466 2.3768 42.9186 3.44104 45.3353L9.42737 42.6082C8.60702 40.7014 8.00839 38.6838 7.65364 36.6218C7.63147 36.4888 7.60926 36.378 7.60926 36.2449C7.32103 34.316 7.25464 32.3427 7.40984 30.4138L0.869216 29.793Z" fill="#141414"/>
<path d="M7.83204 30.0813L0.515411 29.3718C1.04753 23.9397 2.97655 18.5742 6.3688 13.8073L6.41319 13.7408L12.3772 18.0199L12.3328 18.0864C9.73876 21.7447 8.2533 25.8908 7.83204 30.0813Z" fill="#F3EAD4"/>
<path d="M7.83143 30.4581C7.80926 30.4581 7.80922 30.4581 7.78705 30.4581L0.470412 29.7486C0.359554 29.7486 0.271041 29.6821 0.204526 29.6156C0.138011 29.5491 0.115753 29.4382 0.115753 29.3273C0.670044 23.6736 2.70979 18.2194 6.0577 13.5855L6.10209 13.519C6.23512 13.3417 6.47909 13.2973 6.63429 13.4303L12.5983 17.7094C12.7757 17.8425 12.8201 18.0642 12.6871 18.2415L12.6427 18.3081C10.1373 21.789 8.60757 25.8686 8.18631 30.1033C8.20848 30.3029 8.03098 30.4581 7.83143 30.4581ZM0.958231 29.017L7.49886 29.6378C7.96446 25.4917 9.47209 21.5229 11.8888 18.0863L6.54552 14.2506C3.46367 18.6628 1.53469 23.7401 0.958231 29.017Z" fill="#141414"/>
<path d="M22.3306 9.92747C18.6058 11.6125 15.2358 14.2288 12.6195 17.7319C12.553 17.8206 12.4864 17.9092 12.4199 18.0201L6.45563 13.741C6.54431 13.608 6.63317 13.4749 6.74403 13.3641C10.1141 8.81889 14.4597 5.42666 19.2931 3.25385L22.3306 9.92747Z" fill="#F3EAD4"/>
<path d="M12.4199 18.397C12.3312 18.397 12.2647 18.3748 12.1982 18.3305L6.21187 14.0513C6.0345 13.9183 5.99007 13.6966 6.1231 13.5192C6.21178 13.3862 6.32281 13.2532 6.4115 13.1201C9.71507 8.68581 14.105 5.13833 19.1158 2.899C19.3153 2.81031 19.537 2.89903 19.6257 3.09857L22.6632 9.79439C22.7076 9.88308 22.7076 9.99394 22.6632 10.0826C22.6189 10.1713 22.5523 10.26 22.4636 10.3043C18.6944 11.9894 15.391 14.65 12.9077 17.9979C12.8412 18.0866 12.7746 18.1752 12.7081 18.2639C12.6416 18.3526 12.5308 18.397 12.4199 18.397ZM6.98788 13.6522L12.3311 17.4879C14.8144 14.1622 18.0738 11.5016 21.8208 9.75006L19.0935 3.76372C14.3488 5.98088 10.1806 9.3731 7.03226 13.5857C7.01009 13.6079 7.01005 13.6301 6.98788 13.6522Z" fill="#141414"/>
<path d="M52.7071 46.9095L52.6627 46.976C50.0465 50.6122 46.6543 53.3393 42.8407 55.0687C40.8231 55.9777 38.7167 56.6207 36.5439 56.9976C34.4376 57.3524 32.3091 57.4189 30.1806 57.2193C25.9458 56.8202 21.7777 55.3347 18.075 52.6741C14.4167 50.0579 11.6895 46.6213 9.93797 42.7856C9.02894 40.7902 8.40813 38.706 8.05339 36.5554C8.03122 36.4445 8.009 36.3115 8.009 36.2006C7.6986 34.183 7.65443 32.1211 7.85397 30.0591C8.25306 25.8687 9.73843 21.7448 12.3769 18.0643L12.4212 17.9978C12.4878 17.9091 12.5544 17.8204 12.6209 17.7095C15.2371 14.2064 18.585 11.568 22.332 9.90512C24.3053 9.01826 26.3673 8.39742 28.4736 8.04268L28.5621 8.02054C30.6684 7.68796 32.819 7.59924 34.9475 7.82096C39.1379 8.22005 43.2841 9.70558 46.9646 12.344C50.6007 14.9381 53.3278 18.3525 55.0572 22.1438C55.9884 24.1615 56.6314 26.2899 56.9862 28.4628C57.3409 30.5469 57.4074 32.6754 57.2079 34.8039C56.8088 39.0386 55.3455 43.2069 52.7071 46.9095Z" fill="#F3EAD4"/>
<path d="M32.4868 57.7071C31.7108 57.7071 30.9127 57.6628 30.1367 57.5963C25.7245 57.175 21.4676 55.6009 17.8314 52.9846C14.2396 50.4127 11.3794 46.9318 9.58354 42.9409C8.67451 40.9233 8.03149 38.7948 7.65457 36.622C7.6324 36.4889 7.61018 36.3781 7.61018 36.2451C7.29978 34.1831 7.2554 32.0989 7.45494 30.0148C7.8762 25.647 9.4726 21.4344 12.0445 17.8426L12.0889 17.7761C12.1554 17.6874 12.2441 17.5765 12.3106 17.4879C14.8603 14.0513 18.2749 11.302 22.1549 9.5726C24.1282 8.68574 26.2343 8.04276 28.4071 7.68802L28.4959 7.66582C30.6465 7.31108 32.8415 7.24458 34.9921 7.4663C39.3821 7.88756 43.5947 9.4839 47.1865 12.0558C50.7561 14.6055 53.5942 18.0421 55.4123 22.0108C56.3435 24.0506 57.0086 26.2013 57.3634 28.4185C57.7181 30.5469 57.7846 32.7198 57.5851 34.8482C57.186 39.2382 55.6118 43.473 53.0399 47.1091L52.9955 47.1756C50.4458 50.7453 46.987 53.5832 43.0183 55.4013C40.9785 56.3325 38.8279 56.9977 36.6329 57.3524C35.2361 57.5963 33.8614 57.7071 32.4868 57.7071ZM32.5312 8.13145C31.223 8.13145 29.9148 8.24228 28.6288 8.44183L28.5624 8.46402C26.4782 8.81877 24.4385 9.41739 22.5096 10.2821C18.7404 11.9671 15.4369 14.6277 12.9537 17.9756C12.8872 18.0643 12.8206 18.153 12.754 18.2417L12.7097 18.3082C10.2043 21.7891 8.67451 25.8687 8.25325 30.1035C8.0537 32.1211 8.09809 34.1388 8.40849 36.1342C8.43066 36.2451 8.43049 36.3781 8.45266 36.4889C8.80741 38.6174 9.4283 40.6793 10.3152 42.6304C12.0667 46.5105 14.8381 49.8584 18.319 52.3638C21.8443 54.8914 25.9462 56.4212 30.2475 56.8203C32.3317 57.0198 34.4379 56.9533 36.5221 56.5986C38.6727 56.2438 40.7568 55.6008 42.7301 54.714C46.5658 52.9624 49.9136 50.191 52.3968 46.7322L52.4412 46.6657C54.9466 43.1626 56.4544 39.0387 56.8535 34.7817C57.053 32.6976 56.9643 30.6134 56.6318 28.5515C56.277 26.4008 55.6339 24.3167 54.7249 22.3434C52.9733 18.5077 50.202 15.1598 46.7654 12.6988C43.2844 10.1934 39.1825 8.66357 34.9477 8.24231C34.1052 8.15362 33.3293 8.13145 32.5312 8.13145Z" fill="#141414"/>
<path d="M46.5553 12.0857L46.5038 12.1578L47.135 12.6092L47.1865 12.5371L46.5553 12.0857Z" fill="#141414"/>
<path d="M51.1183 6.02847L51.015 6.17261L51.6457 6.62471L51.749 6.48057L51.1183 6.02847Z" fill="#141414"/>
<path d="M17.8488 52.1019L17.6809 52.3361L18.3116 52.7882L18.4795 52.554L17.8488 52.1019Z" fill="#141414"/>
<path d="M22.6035 9.75095L21.8973 10.0724L21.9616 10.2137L22.6678 9.89224L22.6035 9.75095Z" fill="#141414"/>
<path d="M19.6978 2.90024L18.9915 3.22174L19.0466 3.34284L19.753 3.02135L19.6978 2.90024Z" fill="#141414"/>
<path d="M46.313 61.557L45.6068 61.8788L45.6252 61.9191L46.3314 61.5973L46.313 61.557Z" fill="#141414"/>
<path d="M43.0924 54.6021L42.385 54.9211L42.4853 55.1434L43.1927 54.8244L43.0924 54.6021Z" fill="#141414"/>
<path d="M7.8765 29.7L7.7998 30.4722L8.04246 30.4963L8.11916 29.7241L7.8765 29.7Z" fill="#141414"/>
<path d="M0.5231 28.9808L0.45462 29.7538L0.49878 29.7577L0.567259 28.9847L0.5231 28.9808Z" fill="#141414"/>
<path d="M64.5603 35.0741L64.4833 35.8463L64.6157 35.8595L64.6926 35.0873L64.5603 35.0741Z" fill="#141414"/>
<path d="M57.0747 34.4404L57.002 35.213L57.1565 35.2275L57.2292 34.455L57.0747 34.4404Z" fill="#141414"/>
<path d="M34.5416 7.84989L34.5302 7.96014L35.302 8.04054L35.3134 7.93028L34.5416 7.84989Z" fill="#141414"/>
<path d="M35.2806 0.34621L35.2634 0.522705L36.0358 0.59779L36.0529 0.421294L35.2806 0.34621Z" fill="#141414"/>
<path d="M29.8468 64.5357L29.0708 64.5136L29.8468 64.5357Z" fill="#141414"/>
<path d="M29.7941 56.9738L29.7681 57.2386L30.5404 57.3144L30.5663 57.0496L29.7941 56.9738Z" fill="#141414"/>
<path d="M54.783 21.8619L54.6826 21.9089L55.0111 22.6119L55.1115 22.5649L54.783 21.8619Z" fill="#141414"/>
<path d="M61.7756 18.7732L61.6147 18.8477L61.9407 19.5519L62.1016 19.4774L61.7756 18.7732Z" fill="#141414"/>
<path d="M3.39677 46.222L3.10858 45.4904L3.39677 46.222Z" fill="#141414"/>
<path d="M10.0757 42.2865L9.83405 42.3978L10.1587 43.1027L10.4004 42.9913L10.0757 42.2865Z" fill="#141414"/>
<path d="M52.7935 46.3804L52.3414 47.0112L52.5036 47.1274L52.9557 46.4967L52.7935 46.3804Z" fill="#141414"/>
<path d="M58.9752 50.8886L58.523 51.5193L58.5951 51.571L59.0473 50.9403L58.9752 50.8886Z" fill="#141414"/>
<path d="M6.63724 13.3919L6.18506 14.0226L6.25716 14.0743L6.70934 13.4436L6.63724 13.3919Z" fill="#141414"/>
<path d="M12.6531 17.5911L12.201 18.2218L12.3632 18.3381L12.8153 17.7073L12.6531 17.5911Z" fill="#141414"/>
<path d="M45.2551 33.3526C45.2551 40.4785 39.4785 46.2551 32.3526 46.2551C25.2267 46.2551 19.4501 40.4785 19.4501 33.3526C19.4501 26.2268 25.2267 20.4501 32.3526 20.4501C39.4785 20.4501 45.2551 26.2268 45.2551 33.3526Z" stroke="#141414" stroke-width="0.9"/>
<path fill-rule="evenodd" clip-rule="evenodd" d="M35.8077 33.0362C35.5777 32.8675 35.3297 32.7349 35.0638 32.6382C34.7398 32.5183 34.368 32.4079 33.9484 32.3071C33.7085 32.2495 33.4531 32.195 33.182 32.1436C33.1086 32.1294 33.038 32.1154 32.9702 32.1016C32.9553 32.0986 32.9406 32.0956 32.926 32.0925C32.9103 32.0893 32.8947 32.086 32.8793 32.0828C32.8696 32.0808 32.86 32.0788 32.8504 32.0767C32.7495 32.0554 32.6555 32.0345 32.5683 32.014C32.5135 32.0011 32.4615 31.9884 32.4122 31.9759C32.4013 31.9732 32.3906 31.9704 32.3801 31.9677C32.2368 31.9306 32.1178 31.8951 32.0229 31.861C31.7956 31.7762 31.682 31.6396 31.682 31.4512C31.682 31.3099 31.7592 31.1922 31.9138 31.098C32.0243 31.0343 32.1597 30.9922 32.32 30.9715C32.3241 30.971 32.3283 30.9705 32.3324 30.97C32.4059 30.9611 32.4845 30.9567 32.5683 30.9567C32.6998 30.9567 32.824 30.9688 32.9409 30.9932C33.0921 31.0247 33.231 31.0766 33.3576 31.1488L33.3606 31.1506C33.3786 31.1609 33.3963 31.1716 33.4138 31.1828C33.6592 31.3241 33.8229 31.5266 33.9047 31.7904L36.8638 31.5219C36.7763 31.0019 36.612 30.544 36.3709 30.1482C36.2364 29.9273 36.0779 29.7258 35.8956 29.5436C35.3956 29.0255 34.7411 28.6769 33.932 28.498V27.0001H31.341V28.4414C30.4047 28.6016 29.6683 28.9407 29.1319 29.4588C28.6047 29.9769 28.341 30.6175 28.341 31.3806C28.341 32.1436 28.5229 32.7465 28.8865 33.1893C29.0374 33.3647 29.1979 33.52 29.3682 33.6553C29.6185 33.8542 29.8898 34.0098 30.182 34.1219C30.457 34.2275 30.7707 34.3271 31.1228 34.4209C31.3991 34.4944 31.6991 34.5643 32.0229 34.6306C32.068 34.6392 32.1122 34.6478 32.1553 34.6563C32.1858 34.6624 32.2158 34.6685 32.2453 34.6746C32.2505 34.6756 32.2558 34.6767 32.2611 34.6778C32.3332 34.6928 32.4021 34.7077 32.468 34.7227C32.5266 34.736 32.5828 34.7493 32.6365 34.7626C32.711 34.7811 32.7808 34.7995 32.8458 34.818C32.8553 34.8207 32.8647 34.8234 32.874 34.8261C33.0064 34.8646 33.1182 34.903 33.2092 34.9415C33.4638 35.0451 33.5911 35.2005 33.5911 35.4078C33.5911 35.5585 33.5047 35.681 33.332 35.7752C33.2091 35.8388 33.0477 35.8786 32.8479 35.8945C32.8434 35.8948 32.8388 35.8952 32.8341 35.8955C32.7719 35.9001 32.706 35.9023 32.6365 35.9023C32.5368 35.9023 32.4391 35.8945 32.3434 35.8788C32.166 35.8496 31.9955 35.7935 31.8318 35.7103C31.8273 35.708 31.8229 35.7057 31.8184 35.7034C31.777 35.6819 31.7361 35.6588 31.6956 35.6339C31.4138 35.4549 31.2365 35.2147 31.1638 34.9132L28.0001 35.1958C28.0732 35.7099 28.2198 36.1695 28.4399 36.5748C28.603 36.8751 28.8064 37.1455 29.0501 37.386C29.6319 37.9513 30.3956 38.3328 31.341 38.5306V40.0002H33.932V38.573C34.9138 38.4223 35.6683 38.0879 36.1956 37.5697C36.732 37.0422 37.0002 36.3686 37.0002 35.5491C37.0002 34.7201 36.8047 34.0748 36.4138 33.6132C36.2279 33.3885 36.0259 33.1961 35.8077 33.0362Z" stroke="#1A1A1A" stroke-width="0.8"/>
</svg>
