<svg width="65" height="66" viewBox="0 0 65 66" fill="none" xmlns="http://www.w3.org/2000/svg">
<path d="M34.948 7.86536C32.8195 7.64364 30.6689 7.73231 28.5626 8.06488L28.474 8.08708C26.3677 8.44182 24.2835 9.06261 22.3324 9.94947L19.2949 3.25365C21.8446 2.10073 24.5495 1.30255 27.2988 0.836943L27.4096 0.814777C30.1367 0.371344 32.9084 0.282642 35.6798 0.548701L34.948 7.86536Z" fill="#F3EAD4"/>
<path d="M22.3318 10.3043C22.1766 10.3043 22.0434 10.2156 21.9769 10.0826L18.9396 3.38668C18.8952 3.298 18.8952 3.18718 18.9396 3.0985C18.9839 3.00981 19.0503 2.92112 19.139 2.87678C21.7109 1.72386 24.438 0.90348 27.2316 0.437877L27.3425 0.41571C30.1139 -0.0277219 32.9298 -0.116398 35.7012 0.149662C35.9229 0.171833 36.0781 0.349185 36.0559 0.570901L35.3466 7.88753C35.3466 7.99839 35.2799 8.08707 35.2134 8.15358C35.1247 8.2201 35.0361 8.2423 34.9252 8.2423C32.8411 8.04276 30.7347 8.10925 28.6284 8.44182L28.5619 8.46402C26.4778 8.81876 24.438 9.41738 22.5091 10.2821C22.4204 10.3042 22.3761 10.3043 22.3318 10.3043ZM19.8041 3.43107L22.5312 9.41741C24.4158 8.59706 26.3892 8.02058 28.429 7.68801L28.5175 7.66582C30.5351 7.33324 32.5971 7.26676 34.6147 7.42196L35.2357 0.881309C32.6416 0.659593 30.0252 0.770462 27.4533 1.16955L27.3648 1.19172C24.7485 1.63515 22.1987 2.38901 19.8041 3.43107Z" fill="#141414"/>
<path d="M51.2213 6.40184L46.9422 12.366C43.2617 9.72757 39.1156 8.24209 34.9251 7.843L35.6347 0.526367C41.0889 1.08066 46.4544 2.98742 51.2213 6.40184Z" fill="#F3EAD4"/>
<path d="M46.9417 12.7652C46.853 12.7652 46.7865 12.743 46.72 12.6986C43.239 10.1932 39.1373 8.66344 34.9025 8.24218C34.6808 8.22 34.5255 8.0426 34.5477 7.82088L35.2572 0.504277C35.2572 0.393418 35.3236 0.304716 35.3901 0.238201C35.4788 0.171686 35.5677 0.149536 35.6786 0.149536C41.3545 0.703826 46.8085 2.74363 51.4646 6.09154C51.5533 6.15805 51.5976 6.24671 51.6198 6.33539C51.642 6.44625 51.6199 6.53495 51.5533 6.62364L47.2743 12.5878C47.1856 12.7208 47.0747 12.7652 46.9417 12.7652ZM35.3681 7.5105C39.492 7.9761 43.4386 9.4616 46.8752 11.834L50.7109 6.49059C46.3431 3.4309 41.2658 1.52417 36.0111 0.947709L35.3681 7.5105Z" fill="#141414"/>
<path d="M61.7307 19.1284L55.057 22.1881C53.3276 18.3967 50.6005 14.9823 46.9643 12.3882L51.2434 6.42407C55.9438 9.79416 59.4692 14.2063 61.7307 19.1284Z" fill="#F3EAD4"/>
<path d="M55.0348 22.5651C54.8796 22.5651 54.7465 22.4764 54.68 22.3434C52.9284 18.5077 50.1571 15.1598 46.7205 12.6987C46.5431 12.5657 46.4987 12.3218 46.6317 12.1666L50.9108 6.2025C50.9773 6.11381 51.0661 6.06942 51.1548 6.04725C51.2657 6.02508 51.3543 6.04726 51.443 6.11378C56.0547 9.41735 59.7131 13.8739 62.0633 18.9955C62.1076 19.0842 62.1076 19.1951 62.0633 19.2837C62.0189 19.3724 61.9523 19.4611 61.8636 19.5055L55.1901 22.5651C55.1457 22.5651 55.1013 22.5651 55.0348 22.5651ZM47.4965 12.2997C50.8001 14.7607 53.4827 17.9756 55.2342 21.6782L61.2206 18.9512C58.9812 14.2064 55.5669 10.0825 51.3321 6.95631L47.4965 12.2997Z" fill="#141414"/>
<path d="M64.5017 35.535L57.1851 34.8255C57.3847 32.697 57.296 30.5686 56.9634 28.4844C56.6087 26.3116 55.9656 24.1831 55.0344 22.1655L61.708 19.1058C62.9053 21.7221 63.7478 24.4714 64.1913 27.265C64.6569 30.0143 64.7678 32.7857 64.5017 35.535Z" fill="#F3EAD4"/>
<path d="M64.5025 35.9122C64.4803 35.9122 64.4803 35.9122 64.4581 35.9122L57.1415 35.2027C56.9197 35.1805 56.7644 35.0031 56.7866 34.7814C56.9861 32.6973 56.8974 30.6131 56.5649 28.5512C56.2101 26.4005 55.5672 24.3164 54.6582 22.3431C54.6139 22.2544 54.6139 22.1436 54.6582 22.0549C54.7025 21.9662 54.7691 21.8776 54.8578 21.8332L61.5314 18.7735C61.7309 18.6848 61.9526 18.7735 62.0413 18.973C63.2386 21.5893 64.1033 24.3829 64.569 27.2431C65.0124 29.9923 65.1232 32.8082 64.8571 35.5796C64.8571 35.6905 64.7907 35.7791 64.7242 35.8457C64.6799 35.89 64.5912 35.9122 64.5025 35.9122ZM57.607 34.471L64.1476 35.0918C64.3471 32.5199 64.2363 29.9037 63.815 27.3539C63.3716 24.6933 62.5957 22.0992 61.5093 19.6382L55.523 22.3653C56.3655 24.2942 56.9862 26.334 57.3188 28.4182C57.6735 30.4358 57.7622 32.4756 57.607 34.471Z" fill="#141414"/>
<path d="M58.6715 51.1662L52.7075 46.8871C55.3237 43.1844 56.8093 39.0383 57.1862 34.8257L64.5028 35.5352C63.9929 40.9894 62.0859 46.3993 58.6715 51.1662Z" fill="#F3EAD4"/>
<path d="M58.6714 51.5652C58.5827 51.5652 58.5162 51.543 58.4496 51.4987L52.4856 47.2196C52.3082 47.0866 52.2638 46.8648 52.3968 46.6874C54.9022 43.1843 56.41 39.0604 56.8091 34.8035C56.8091 34.6926 56.8755 34.6039 56.942 34.5374C57.0307 34.4709 57.1193 34.4487 57.2302 34.4487L64.5468 35.1582C64.7686 35.1804 64.9239 35.3578 64.9017 35.5795C64.3696 41.2554 62.3297 46.7318 59.0039 51.41C58.9374 51.4987 58.8488 51.543 58.7601 51.5652C58.7158 51.5652 58.6935 51.5652 58.6714 51.5652ZM53.2616 46.7983L58.6049 50.634C61.6424 46.244 63.5491 41.1667 64.1034 35.8677L57.5628 35.2469C57.0972 39.3708 55.6118 43.3617 53.2616 46.7983Z" fill="#141414"/>
<path d="M58.6707 51.1662L58.6266 51.2328C55.2343 55.9553 50.8222 59.4806 45.8779 61.7421L42.8403 55.0685C46.6317 53.3391 50.0461 50.612 52.6623 46.9758L52.7067 46.9093L58.6707 51.1662Z" fill="#F3EAD4"/>
<path d="M45.878 62.141C45.8337 62.141 45.7892 62.1411 45.7448 62.1189C45.6561 62.0746 45.5675 62.008 45.5231 61.9193L42.4856 55.2457C42.3969 55.0462 42.4857 54.8244 42.6852 54.7357C46.5209 52.9842 49.8687 50.2127 52.3519 46.754L52.3963 46.6874C52.4628 46.5987 52.5516 46.5544 52.6403 46.5322C52.7512 46.5101 52.8398 46.5322 52.9285 46.5988L58.8926 50.8779C58.9812 50.9444 59.0256 51.0331 59.0478 51.1218C59.07 51.2104 59.0478 51.3213 58.9813 51.41L58.9369 51.4765C55.6334 56.0882 51.1768 59.7687 46.033 62.0967C45.9887 62.141 45.9445 62.141 45.878 62.141ZM43.3503 55.2678L46.0774 61.2542C50.8443 59.0148 55.0127 55.5561 58.1389 51.2769L52.7954 47.4413C50.3343 50.7892 47.0752 53.4719 43.3503 55.2678Z" fill="#141414"/>
<path d="M45.8783 61.7643C43.2842 62.9616 40.5348 63.7819 37.7412 64.2475C35.0141 64.6909 32.2427 64.8018 29.4713 64.5357L30.1806 57.2191C32.309 57.4187 34.4597 57.3521 36.5439 56.9974C38.7167 56.6427 40.8231 55.9997 42.8407 55.0685L45.8783 61.7643Z" fill="#F3EAD4"/>
<path d="M32.4863 65.0456C31.4664 65.0456 30.4464 65.0012 29.4487 64.9126C29.3379 64.9126 29.2491 64.8461 29.1826 64.7796C29.1161 64.6909 29.0941 64.6022 29.0941 64.4913L29.8036 57.1747C29.8258 56.953 30.003 56.7977 30.2247 56.8199C32.3089 57.0195 34.4151 56.9529 36.4992 56.5982C38.6499 56.2435 40.734 55.6005 42.7073 54.7136C42.796 54.6693 42.907 54.6693 42.9957 54.7136C43.0844 54.758 43.1731 54.8245 43.2174 54.9132L46.2548 61.5868C46.3434 61.7864 46.2549 62.0081 46.0553 62.0968C43.4391 63.294 40.6676 64.1366 37.8075 64.6022C36.0337 64.9126 34.26 65.0456 32.4863 65.0456ZM29.8921 64.1809C32.4862 64.4027 35.1026 64.2918 37.6745 63.8705C40.3351 63.4271 42.9068 62.6511 45.3679 61.5868L42.6408 55.6005C40.7119 56.443 38.6721 57.0417 36.588 57.3964C34.5704 57.729 32.5306 57.8177 30.4908 57.6625L29.8921 64.1809Z" fill="#141414"/>
<path d="M29.4711 64.5355C23.9947 64.0255 18.5848 62.0966 13.7957 58.66L18.0748 52.6959C21.7775 55.3565 25.9456 56.842 30.1804 57.241L29.4711 64.5355Z" fill="#F3EAD4"/>
<path d="M29.4703 64.9125C29.4481 64.9125 29.4481 64.9125 29.4259 64.9125C23.7278 64.3804 18.2291 62.3185 13.5509 58.9706C13.3735 58.8375 13.3293 58.5936 13.4623 58.4384L17.7414 52.4743C17.8745 52.2969 18.0963 52.2525 18.2736 52.3856C21.7989 54.9131 25.9006 56.443 30.2019 56.8421C30.3128 56.8421 30.4015 56.9086 30.468 56.9751C30.5345 57.0638 30.5566 57.1525 30.5566 57.2633L29.847 64.58C29.8249 64.7573 29.6698 64.9125 29.4703 64.9125ZM14.3269 58.5493C18.7169 61.609 23.8164 63.5379 29.1154 64.0922L29.7362 57.5516C25.5901 57.1081 21.5992 55.6005 18.1405 53.206L14.3269 58.5493Z" fill="#141414"/>
<path d="M18.0752 52.6738L13.7961 58.638C9.05138 55.2457 5.52609 50.7892 3.26459 45.8449L9.93816 42.7853C11.6675 46.621 14.4169 50.0575 18.0752 52.6738Z" fill="#F3EAD4"/>
<path d="M13.7959 59.0373C13.7072 59.0373 13.6407 59.0151 13.5742 58.9708C8.94032 55.645 5.25971 51.1663 2.90952 46.0225C2.82083 45.823 2.9096 45.6013 3.10915 45.5126L9.78272 42.4529C9.8714 42.4086 9.98243 42.4086 10.0711 42.4529C10.1598 42.4973 10.2485 42.5638 10.2928 42.6525C12.0444 46.5325 14.8158 49.8804 18.2967 52.3858C18.3854 52.4523 18.4298 52.541 18.4519 52.6297C18.4741 52.7405 18.452 52.8292 18.3855 52.9179L14.1062 58.8821C14.0175 58.9708 13.9068 59.0373 13.7959 59.0373ZM3.77429 46.0447C6.01363 50.8116 9.42801 54.9799 13.7071 58.1061L17.5428 52.7627C14.217 50.3017 11.5344 47.0424 9.76063 43.2954L3.77429 46.0447Z" fill="#141414"/>
<path d="M9.93669 42.8075L3.26312 45.8672C2.08802 43.2732 1.26754 40.5682 0.801941 37.7746C0.779769 37.6194 0.757641 37.4642 0.735469 37.309C0.33638 34.6927 0.269995 32.0322 0.536055 29.3716L7.85269 30.0811C7.65314 32.1209 7.69731 34.1828 8.00771 36.2226C8.02988 36.3334 8.02993 36.4665 8.0521 36.5774C8.40685 38.7058 9.02765 40.8121 9.93669 42.8075Z" fill="#F3EAD4"/>
<path d="M3.26371 46.2441C3.21936 46.2441 3.17489 46.2441 3.13055 46.222C3.04186 46.1776 2.95317 46.1111 2.90883 46.0224C1.73374 43.4283 0.891388 40.6569 0.425784 37.8411C0.403612 37.6859 0.381267 37.5307 0.359096 37.3533C-0.0399931 34.7149 -0.106378 32.0099 0.159681 29.3272C0.181853 29.1054 0.359096 28.9503 0.580812 28.9724L7.89744 29.6819C8.0083 29.6819 8.09703 29.7485 8.16355 29.815C8.23006 29.9037 8.25232 29.9923 8.25232 30.1032C8.05277 32.0986 8.09716 34.1384 8.40756 36.1339C8.42974 36.2447 8.42956 36.3777 8.45173 36.4886C8.80648 38.6171 9.42737 40.679 10.3142 42.6301C10.4029 42.8297 10.3141 43.0514 10.1146 43.1401L3.44104 46.1998C3.37452 46.2219 3.30805 46.2441 3.26371 46.2441ZM0.869216 29.7928C0.6475 32.276 0.7361 34.7814 1.11302 37.2425C1.13519 37.3977 1.15732 37.5528 1.17949 37.708C1.62292 40.3465 2.3768 42.9184 3.44104 45.3351L9.42737 42.608C8.60702 40.7012 8.00839 38.6836 7.65364 36.6216C7.63147 36.4886 7.60926 36.3778 7.60926 36.2447C7.32102 34.3158 7.25464 32.3425 7.40984 30.4136L0.869216 29.7928Z" fill="#141414"/>
<path d="M7.83204 30.0812L0.515411 29.3717C1.04753 23.9397 2.97655 18.5741 6.3688 13.8072L6.41319 13.7407L12.3772 18.0198L12.3328 18.0863C9.73876 21.7446 8.2533 25.8908 7.83204 30.0812Z" fill="#F3EAD4"/>
<path d="M7.83143 30.4582C7.80926 30.4582 7.80922 30.4582 7.78705 30.4582L0.470412 29.7487C0.359554 29.7487 0.271041 29.6822 0.204526 29.6156C0.138011 29.5491 0.115753 29.4383 0.115753 29.3274C0.670044 23.6736 2.70979 18.2194 6.0577 13.5856L6.10209 13.5191C6.23512 13.3417 6.47909 13.2973 6.63429 13.4304L12.5983 17.7095C12.7757 17.8425 12.8201 18.0642 12.6871 18.2416L12.6427 18.3081C10.1373 21.7891 8.60757 25.8686 8.18631 30.1034C8.20848 30.3029 8.03098 30.4582 7.83143 30.4582ZM0.958231 29.017L7.49886 29.6378C7.96446 25.4917 9.47209 21.523 11.8888 18.0864L6.54552 14.2507C3.46367 18.6629 1.53469 23.7402 0.958231 29.017Z" fill="#141414"/>
<path d="M22.3306 9.92716C18.6058 11.6122 15.2358 14.2285 12.6195 17.7316C12.553 17.8203 12.4864 17.9089 12.4199 18.0198L6.45563 13.7407C6.54431 13.6077 6.63317 13.4746 6.74403 13.3638C10.1141 8.81858 14.4597 5.42636 19.2931 3.25354L22.3306 9.92716Z" fill="#F3EAD4"/>
<path d="M12.4199 18.3969C12.3312 18.3969 12.2647 18.3747 12.1982 18.3303L6.21187 14.0512C6.0345 13.9182 5.99007 13.6965 6.1231 13.5191C6.21178 13.3861 6.32281 13.253 6.4115 13.12C9.71507 8.68569 14.105 5.13821 19.1158 2.89887C19.3153 2.81019 19.537 2.89891 19.6257 3.09845L22.6632 9.79427C22.7076 9.88295 22.7076 9.99382 22.6632 10.0825C22.6189 10.1712 22.5523 10.2599 22.4636 10.3042C18.6944 11.9893 15.391 14.6498 12.9077 17.9978C12.8412 18.0864 12.7746 18.1751 12.7081 18.2638C12.6416 18.3525 12.5308 18.3969 12.4199 18.3969ZM6.98788 13.6521L12.3311 17.4878C14.8144 14.1621 18.0738 11.5015 21.8208 9.74993L19.0935 3.7636C14.3488 5.98076 10.1806 9.37297 7.03226 13.5856C7.01009 13.6078 7.01005 13.6299 6.98788 13.6521Z" fill="#141414"/>
<path d="M52.7071 46.9093L52.6627 46.9758C50.0465 50.6119 46.6543 53.3391 42.8407 55.0684C40.8231 55.9775 38.7167 56.6204 36.5439 56.9974C34.4376 57.3521 32.3091 57.4186 30.1806 57.2191C25.9458 56.82 21.7777 55.3345 18.075 52.6739C14.4167 50.0576 11.6895 46.6211 9.93797 42.7854C9.02894 40.7899 8.40813 38.7058 8.05339 36.5551C8.03122 36.4443 8.009 36.3112 8.009 36.2004C7.6986 34.1828 7.65443 32.1208 7.85397 30.0589C8.25306 25.8684 9.73843 21.7445 12.3769 18.064L12.4212 17.9975C12.4878 17.9088 12.5544 17.8201 12.6209 17.7093C15.2371 14.2062 18.585 11.5678 22.332 9.90488C24.3053 9.01801 26.3673 8.39718 28.4736 8.04243L28.5621 8.02029C30.6684 7.68772 32.819 7.599 34.9475 7.82072C39.1379 8.2198 43.2841 9.70533 46.9646 12.3438C50.6007 14.9378 53.3278 18.3523 55.0572 22.1436C55.9884 24.1612 56.6314 26.2897 56.9862 28.4625C57.3409 30.5466 57.4074 32.6751 57.2079 34.8036C56.8088 39.0384 55.3455 43.2066 52.7071 46.9093Z" fill="#F3EAD4"/>
<path d="M32.4868 57.707C31.7108 57.707 30.9127 57.6627 30.1367 57.5962C25.7245 57.1749 21.4676 55.6008 17.8314 52.9845C14.2396 50.4126 11.3794 46.9316 9.58354 42.9408C8.67451 40.9231 8.03149 38.7947 7.65457 36.6218C7.6324 36.4888 7.61018 36.378 7.61018 36.2449C7.29978 34.183 7.2554 32.0988 7.45494 30.0147C7.8762 25.6469 9.4726 21.4343 12.0445 17.8425L12.0889 17.776C12.1554 17.6873 12.2441 17.5764 12.3106 17.4877C14.8603 14.0511 18.2749 11.3019 22.1549 9.57248C24.1282 8.68562 26.2343 8.04264 28.4071 7.68789L28.4959 7.6657C30.6465 7.31095 32.8415 7.24446 34.9921 7.46618C39.3821 7.88744 43.5947 9.48378 47.1865 12.0557C50.7561 14.6054 53.5942 18.042 55.4123 22.0107C56.3435 24.0505 57.0086 26.2012 57.3634 28.4184C57.7181 30.5468 57.7846 32.7196 57.5851 34.8481C57.186 39.2381 55.6118 43.4729 53.0399 47.109L52.9955 47.1755C50.4458 50.7451 46.987 53.5831 43.0183 55.4012C40.9785 56.3324 38.8279 56.9976 36.6329 57.3523C35.2361 57.5962 33.8614 57.707 32.4868 57.707ZM32.5312 8.13133C31.223 8.13133 29.9148 8.24216 28.6288 8.44171L28.5624 8.4639C26.4782 8.81865 24.4385 9.41727 22.5096 10.282C18.7404 11.967 15.4369 14.6276 12.9537 17.9755C12.8872 18.0642 12.8206 18.1529 12.754 18.2415L12.7097 18.3081C10.2043 21.789 8.67451 25.8686 8.25325 30.1034C8.0537 32.121 8.09809 34.1386 8.40849 36.1341C8.43066 36.2449 8.43049 36.3779 8.45266 36.4888C8.80741 38.6173 9.4283 40.6792 10.3152 42.6303C12.0667 46.5103 14.8381 49.8583 18.319 52.3637C21.8443 54.8913 25.9462 56.4211 30.2475 56.8201C32.3317 57.0197 34.4379 56.9532 36.5221 56.5984C38.6727 56.2437 40.7568 55.6007 42.7301 54.7138C46.5658 52.9623 49.9136 50.1908 52.3968 46.7321L52.4412 46.6656C54.9466 43.1625 56.4544 39.0385 56.8535 34.7816C57.053 32.6975 56.9643 30.6133 56.6318 28.5513C56.277 26.4007 55.6339 24.3166 54.7249 22.3433C52.9733 18.5076 50.202 15.1597 46.7654 12.6986C43.2844 10.1933 39.1825 8.66344 34.9477 8.24218C34.1052 8.1535 33.3293 8.13133 32.5312 8.13133Z" fill="#141414"/>
<path d="M46.5553 12.0859L46.5038 12.158L47.135 12.6094L47.1865 12.5373L46.5553 12.0859Z" fill="#141414"/>
<path d="M51.1183 6.02835L51.015 6.17249L51.6457 6.62458L51.749 6.48045L51.1183 6.02835Z" fill="#141414"/>
<path d="M17.8488 52.1019L17.6809 52.3361L18.3116 52.7882L18.4795 52.554L17.8488 52.1019Z" fill="#141414"/>
<path d="M22.6035 9.75101L21.8973 10.0725L21.9616 10.2138L22.6678 9.8923L22.6035 9.75101Z" fill="#141414"/>
<path d="M19.6978 2.90055L18.9915 3.22205L19.0466 3.34315L19.753 3.02165L19.6978 2.90055Z" fill="#141414"/>
<path d="M46.313 61.5568L45.6069 61.8786L45.6253 61.9189L46.3314 61.5971L46.313 61.5568Z" fill="#141414"/>
<path d="M43.0924 54.6022L42.385 54.9213L42.4853 55.1436L43.1927 54.8246L43.0924 54.6022Z" fill="#141414"/>
<path d="M7.87653 29.7001L7.79984 30.4723L8.04249 30.4964L8.11919 29.7242L7.87653 29.7001Z" fill="#141414"/>
<path d="M0.5231 28.9803L0.45462 29.7533L0.49878 29.7572L0.567259 28.9842L0.5231 28.9803Z" fill="#141414"/>
<path d="M64.5603 35.0737L64.4833 35.8459L64.6157 35.8591L64.6926 35.0869L64.5603 35.0737Z" fill="#141414"/>
<path d="M57.0746 34.4403L57.002 35.2129L57.1565 35.2274L57.2291 34.4548L57.0746 34.4403Z" fill="#141414"/>
<path d="M34.5416 7.8497L34.5301 7.95996L35.3019 8.04035L35.3134 7.9301L34.5416 7.8497Z" fill="#141414"/>
<path d="M35.2806 0.345966L35.2634 0.522461L36.0358 0.597546L36.0529 0.42105L35.2806 0.345966Z" fill="#141414"/>
<path d="M29.8468 64.5357L29.0708 64.5136L29.8468 64.5357Z" fill="#141414"/>
<path d="M29.7941 56.9739L29.7681 57.2388L30.5404 57.3145L30.5663 57.0497L29.7941 56.9739Z" fill="#141414"/>
<path d="M54.783 21.8619L54.6826 21.9088L55.0111 22.6118L55.1116 22.5649L54.783 21.8619Z" fill="#141414"/>
<path d="M61.7756 18.7732L61.6147 18.8477L61.9407 19.5519L62.1016 19.4774L61.7756 18.7732Z" fill="#141414"/>
<path d="M3.39677 46.2218L3.10858 45.4901L3.39677 46.2218Z" fill="#141414"/>
<path d="M10.0757 42.2864L9.83405 42.3977L10.1587 43.1025L10.4004 42.9912L10.0757 42.2864Z" fill="#141414"/>
<path d="M52.7935 46.3803L52.3414 47.011L52.5036 47.1272L52.9557 46.4965L52.7935 46.3803Z" fill="#141414"/>
<path d="M58.9752 50.8884L58.523 51.5191L58.5951 51.5708L59.0473 50.9401L58.9752 50.8884Z" fill="#141414"/>
<path d="M6.63724 13.3917L6.18506 14.0223L6.25716 14.074L6.70934 13.4434L6.63724 13.3917Z" fill="#141414"/>
<path d="M12.6531 17.5909L12.201 18.2217L12.3632 18.338L12.8153 17.7072L12.6531 17.5909Z" fill="#141414"/>
<path fill-rule="evenodd" clip-rule="evenodd" d="M47.6901 34.6808C47.8678 34.8574 48.0934 34.9457 48.367 34.9457C48.6143 34.9457 48.8085 34.8707 48.9498 34.7206C49.091 34.5616 49.1617 34.3497 49.1617 34.0849C49.1617 33.82 49.0866 33.6125 48.9365 33.4624C48.7953 33.3035 48.6054 33.224 48.367 33.224C48.2791 33.224 48.1944 33.2361 48.1129 33.2602C47.9244 33.316 47.753 33.4364 47.5989 33.6213H44.672L45.1355 28.1913H52.0091V30.7076H47.5857L47.4797 31.7672H47.5459C47.5589 31.7577 47.5722 31.7484 47.5857 31.7392C47.7729 31.6112 48.0025 31.5102 48.2743 31.4361C48.3743 31.4058 48.4779 31.3807 48.5851 31.3608C48.7905 31.3227 49.0091 31.3036 49.2411 31.3036C49.8504 31.3036 50.3934 31.4361 50.8702 31.7009C50.9094 31.7223 50.9478 31.7444 50.9856 31.7672C51.4156 32.0264 51.7524 32.3751 51.9959 32.8134C52.2696 33.2814 52.4065 33.8156 52.4065 34.416C52.4065 35.0693 52.2475 35.6388 51.9297 36.1244C51.6206 36.61 51.1704 36.9897 50.5788 37.2634C49.9961 37.5283 49.303 37.6607 48.4995 37.6607C47.7137 37.6607 47.0117 37.5371 46.3937 37.2899C45.7756 37.0427 45.2812 36.6895 44.9104 36.2304C44.7649 36.0503 44.6432 35.858 44.5453 35.6534C44.4026 35.3552 44.3103 35.031 44.2687 34.6808C44.266 34.6589 44.2636 34.6368 44.2614 34.6146L47.4532 34.3365C47.4963 34.4267 47.5449 34.5068 47.5989 34.577C47.6277 34.6144 47.6582 34.6491 47.6901 34.6808Z" fill="#F3EAD4" stroke="#1A1A1A" stroke-width="0.8"/>
<path fill-rule="evenodd" clip-rule="evenodd" d="M35.5171 33.224V35.8066H39.6889V37.4621H42.8675V35.8066H43.9932V33.2902H42.8675V28.1913H39.4903L35.5171 33.224ZM39.8876 31.105L38.2453 33.2902H39.9538V31.105H39.8876Z" fill="#F3EAD4" stroke="#1A1A1A" stroke-width="0.8"/>
<path fill-rule="evenodd" clip-rule="evenodd" d="M32.3671 40.1108H29.2283L32.2479 27.7939H35.3867L32.3671 40.1108Z" fill="#F3EAD4" stroke="#1A1A1A" stroke-width="0.8"/>
<path fill-rule="evenodd" clip-rule="evenodd" d="M24.2418 34.6808C24.4194 34.8574 24.6451 34.9457 24.9187 34.9457C25.1659 34.9457 25.3602 34.8707 25.5014 34.7206C25.6427 34.5616 25.7133 34.3497 25.7133 34.0849C25.7133 33.82 25.6383 33.6125 25.4882 33.4624C25.3469 33.3035 25.1571 33.224 24.9187 33.224C24.8308 33.224 24.7461 33.2361 24.6646 33.2602C24.476 33.316 24.3047 33.4364 24.1506 33.6213H21.2236L21.6872 28.1913H28.5608V30.7076H24.1373L24.0314 31.7672H24.0976C24.1106 31.7577 24.1239 31.7484 24.1373 31.7392C24.3246 31.6112 24.5542 31.5102 24.826 31.4361C24.926 31.4058 25.0296 31.3807 25.1368 31.3608C25.3421 31.3227 25.5608 31.3036 25.7928 31.3036C26.402 31.3036 26.945 31.4361 27.4218 31.7009C27.461 31.7223 27.4995 31.7444 27.5373 31.7672C27.9673 32.0264 28.3041 32.3751 28.5476 32.8134C28.8213 33.2814 28.9581 33.8156 28.9581 34.416C28.9581 35.0693 28.7992 35.6388 28.4813 36.1244C28.1723 36.61 27.722 36.9897 27.1305 37.2634C26.5477 37.5283 25.8546 37.6607 25.0512 37.6607C24.2653 37.6607 23.5634 37.5371 22.9454 37.2899C22.3273 37.0427 21.8329 36.6895 21.462 36.2304C21.3166 36.0503 21.1949 35.858 21.097 35.6534C20.9542 35.3552 20.862 35.031 20.8203 34.6808C20.8177 34.6589 20.8153 34.6368 20.8131 34.6146L24.0049 34.3365C24.048 34.4267 24.0966 34.5068 24.1506 34.577C24.1794 34.6144 24.2098 34.6491 24.2418 34.6808Z" fill="#F3EAD4" stroke="#1A1A1A" stroke-width="0.8"/>
<path fill-rule="evenodd" clip-rule="evenodd" d="M15.7572 34.6806C15.9349 34.8572 16.1605 34.9455 16.4341 34.9455C16.6813 34.9455 16.8756 34.8704 17.0169 34.7203C17.1581 34.5614 17.2288 34.3495 17.2288 34.0846C17.2288 33.8197 17.1537 33.6122 17.0036 33.4621C16.8623 33.3032 16.6725 33.2238 16.4341 33.2238C16.3462 33.2238 16.2615 33.2358 16.18 33.2599C15.9914 33.3157 15.8201 33.4361 15.666 33.6211H12.7391L13.2026 28.191H20.0762V30.7074H15.6527L15.5468 31.7669H15.613C15.626 31.7574 15.6393 31.7481 15.6527 31.7389C15.84 31.611 16.0696 31.5099 16.3414 31.4358C16.4414 31.4055 16.545 31.3804 16.6522 31.3605C16.8576 31.3224 17.0762 31.3034 17.3082 31.3034C17.9174 31.3034 18.4605 31.4358 18.9372 31.7007C18.9764 31.7221 19.0149 31.7441 19.0527 31.7669C19.4827 32.0261 19.8195 32.3749 20.063 32.8132C20.3367 33.2811 20.4735 33.8153 20.4735 34.4157C20.4735 35.0691 20.3146 35.6386 19.9968 36.1242C19.6877 36.6098 19.2374 36.9895 18.6459 37.2632C18.0631 37.528 17.37 37.6605 16.5666 37.6605C15.7808 37.6605 15.0788 37.5369 14.4608 37.2897C13.8427 37.0424 13.3483 36.6893 12.9774 36.2301C12.832 36.05 12.7103 35.8577 12.6124 35.6532C12.4696 35.355 12.3774 35.0308 12.3357 34.6806C12.3331 34.6586 12.3307 34.6365 12.3285 34.6144L15.5203 34.3362C15.5634 34.4264 15.612 34.5066 15.666 34.5767C15.6948 34.6142 15.7252 34.6488 15.7572 34.6806Z" fill="#F3EAD4" stroke="#1A1A1A" stroke-width="0.8"/>
</svg>
