<svg width="65" height="66" viewBox="0 0 65 66" fill="none" xmlns="http://www.w3.org/2000/svg">
<path d="M34.948 7.86548C32.8195 7.64377 30.6689 7.73243 28.5626 8.06501L28.474 8.0872C26.3677 8.44194 24.2835 9.06273 22.3324 9.94959L19.2949 3.25378C21.8446 2.10085 24.5495 1.30267 27.2988 0.837065L27.4096 0.814899C30.1367 0.371467 32.9084 0.282764 35.6798 0.548823L34.948 7.86548Z" fill="#F3EAD4"/>
<path d="M22.3318 10.3043C22.1765 10.3043 22.0434 10.2156 21.9769 10.0826L18.9395 3.38668C18.8952 3.298 18.8952 3.18718 18.9395 3.0985C18.9839 3.00981 19.0503 2.92112 19.139 2.87678C21.7109 1.72386 24.438 0.90348 27.2316 0.437877L27.3424 0.41571C30.1139 -0.0277219 32.9297 -0.116398 35.7012 0.149662C35.9229 0.171833 36.078 0.349185 36.0558 0.570901L35.3465 7.88753C35.3465 7.99839 35.2799 8.08707 35.2134 8.15358C35.1247 8.2201 35.036 8.2423 34.9252 8.2423C32.8411 8.04276 30.7347 8.10925 28.6284 8.44182L28.5619 8.46402C26.4778 8.81876 24.438 9.41738 22.5091 10.2821C22.4204 10.3042 22.3761 10.3043 22.3318 10.3043ZM19.8041 3.43107L22.5312 9.41741C24.4158 8.59706 26.3892 8.02058 28.4289 7.68801L28.5175 7.66582C30.5351 7.33324 32.5971 7.26676 34.6147 7.42196L35.2357 0.881309C32.6416 0.659593 30.0252 0.770462 27.4533 1.16955L27.3648 1.19172C24.7485 1.63515 22.1986 2.38901 19.8041 3.43107Z" fill="#141414"/>
<path d="M51.2213 6.40203L46.9422 12.3662C43.2617 9.72775 39.1156 8.24227 34.9251 7.84318L35.6347 0.52655C41.0889 1.08084 46.4544 2.9876 51.2213 6.40203Z" fill="#F3EAD4"/>
<path d="M46.9417 12.7652C46.853 12.7652 46.7865 12.743 46.72 12.6986C43.239 10.1932 39.1373 8.66344 34.9025 8.24218C34.6808 8.22 34.5255 8.0426 34.5477 7.82088L35.2572 0.504277C35.2572 0.393418 35.3236 0.304716 35.3901 0.238201C35.4788 0.171686 35.5677 0.149536 35.6786 0.149536C41.3545 0.703826 46.8085 2.74363 51.4646 6.09154C51.5533 6.15805 51.5976 6.24671 51.6198 6.33539C51.642 6.44625 51.6199 6.53495 51.5533 6.62364L47.2743 12.5878C47.1856 12.7208 47.0747 12.7652 46.9417 12.7652ZM35.3681 7.5105C39.492 7.9761 43.4386 9.4616 46.8752 11.834L50.7109 6.49059C46.3431 3.4309 41.2658 1.52417 36.0111 0.947709L35.3681 7.5105Z" fill="#141414"/>
<path d="M61.7307 19.1284L55.057 22.1881C53.3276 18.3967 50.6005 14.9823 46.9643 12.3882L51.2434 6.42407C55.9438 9.79416 59.4692 14.2063 61.7307 19.1284Z" fill="#F3EAD4"/>
<path d="M55.0348 22.565C54.8796 22.565 54.7465 22.4764 54.68 22.3433C52.9284 18.5076 50.1571 15.1597 46.7205 12.6987C46.5431 12.5656 46.4987 12.3218 46.6317 12.1666L50.9108 6.20244C50.9773 6.11375 51.0661 6.06936 51.1548 6.04719C51.2657 6.02502 51.3543 6.0472 51.443 6.11372C56.0547 9.41729 59.7131 13.8738 62.0633 18.9954C62.1076 19.0841 62.1076 19.195 62.0633 19.2837C62.0189 19.3724 61.9523 19.4611 61.8636 19.5054L55.1901 22.565C55.1457 22.565 55.1013 22.565 55.0348 22.565ZM47.4965 12.2996C50.8001 14.7607 53.4827 17.9755 55.2342 21.6782L61.2206 18.9511C58.9812 14.2064 55.5669 10.0824 51.3321 6.95625L47.4965 12.2996Z" fill="#141414"/>
<path d="M64.5017 35.5349L57.1851 34.8254C57.3847 32.6969 57.296 30.5685 56.9634 28.4844C56.6087 26.3116 55.9656 24.1831 55.0344 22.1655L61.708 19.1058C62.9053 21.722 63.7478 24.4713 64.1913 27.2649C64.6569 30.0142 64.7678 32.7856 64.5017 35.5349Z" fill="#F3EAD4"/>
<path d="M64.5024 35.9121C64.4803 35.9121 64.4802 35.9121 64.4581 35.9121L57.1414 35.2026C56.9197 35.1804 56.7644 35.0031 56.7866 34.7814C56.9861 32.6972 56.8974 30.6131 56.5648 28.5511C56.2101 26.4005 55.5672 24.3163 54.6582 22.3431C54.6138 22.2544 54.6138 22.1436 54.6582 22.0549C54.7025 21.9662 54.7691 21.8775 54.8578 21.8331L61.5314 18.7735C61.7309 18.6848 61.9526 18.7734 62.0413 18.973C63.2385 21.5892 64.1033 24.3829 64.5689 27.243C65.0124 29.9923 65.1232 32.8081 64.8571 35.5795C64.8571 35.6904 64.7907 35.7791 64.7242 35.8456C64.6798 35.8899 64.5911 35.9121 64.5024 35.9121ZM57.6069 34.471L64.1476 35.0917C64.3471 32.5198 64.2363 29.9036 63.815 27.3539C63.3716 24.6933 62.5957 22.0992 61.5093 19.6381L55.5229 22.3652C56.3655 24.2942 56.9862 26.334 57.3188 28.4181C57.6735 30.4357 57.7621 32.4755 57.6069 34.471Z" fill="#141414"/>
<path d="M58.6715 51.1663L52.7075 46.8872C55.3237 43.1845 56.8093 39.0384 57.1862 34.8258L64.5028 35.5353C63.9929 40.9895 62.0859 46.3994 58.6715 51.1663Z" fill="#F3EAD4"/>
<path d="M58.6714 51.5653C58.5827 51.5653 58.5162 51.5431 58.4496 51.4988L52.4856 47.2197C52.3082 47.0867 52.2638 46.8649 52.3968 46.6876C54.9022 43.1845 56.41 39.0606 56.8091 34.8036C56.8091 34.6928 56.8755 34.604 56.942 34.5375C57.0307 34.471 57.1193 34.4489 57.2302 34.4489L64.5468 35.1583C64.7686 35.1805 64.9239 35.3579 64.9017 35.5796C64.3696 41.2556 62.3297 46.7319 59.0039 51.4101C58.9374 51.4988 58.8488 51.5432 58.7601 51.5653C58.7158 51.5653 58.6935 51.5653 58.6714 51.5653ZM53.2616 46.7984L58.6049 50.6341C61.6424 46.2442 63.5491 41.1668 64.1034 35.8678L57.5628 35.2471C57.0972 39.371 55.6118 43.3618 53.2616 46.7984Z" fill="#141414"/>
<path d="M58.6707 51.1664L58.6266 51.2329C55.2343 55.9555 50.8222 59.4808 45.8779 61.7423L42.8403 55.0686C46.6317 53.3393 50.0461 50.6122 52.6623 46.976L52.7067 46.9095L58.6707 51.1664Z" fill="#F3EAD4"/>
<path d="M45.878 62.1413C45.8337 62.1413 45.7892 62.1413 45.7448 62.1191C45.6561 62.0748 45.5675 62.0083 45.5231 61.9196L42.4856 55.2459C42.3969 55.0464 42.4857 54.8247 42.6852 54.736C46.5209 52.9844 49.8687 50.213 52.3519 46.7542L52.3963 46.6877C52.4628 46.599 52.5516 46.5547 52.6403 46.5325C52.7512 46.5103 52.8398 46.5325 52.9285 46.599L58.8926 50.8781C58.9812 50.9447 59.0256 51.0333 59.0478 51.122C59.07 51.2107 59.0478 51.3216 58.9813 51.4102L58.9369 51.4768C55.6334 56.0885 51.1768 59.7689 46.033 62.0969C45.9887 62.1413 45.9445 62.1413 45.878 62.1413ZM43.3503 55.2681L46.0774 61.2544C50.8443 59.0151 55.0127 55.5563 58.1389 51.2772L52.7954 47.4415C50.3343 50.7895 47.0752 53.4722 43.3503 55.2681Z" fill="#141414"/>
<path d="M45.8782 61.7644C43.2841 62.9617 40.5348 63.782 37.7412 64.2476C35.0141 64.6911 32.2427 64.8019 29.4712 64.5359L30.1805 57.2192C32.309 57.4188 34.4597 57.3523 36.5438 56.9975C38.7167 56.6428 40.823 55.9998 42.8407 55.0686L45.8782 61.7644Z" fill="#F3EAD4"/>
<path d="M32.4863 65.0459C31.4664 65.0459 30.4464 65.0015 29.4487 64.9128C29.3379 64.9128 29.2491 64.8463 29.1826 64.7798C29.1161 64.6911 29.0941 64.6024 29.0941 64.4916L29.8036 57.1749C29.8258 56.9532 30.003 56.798 30.2247 56.8202C32.3089 57.0197 34.4151 56.9532 36.4992 56.5984C38.6499 56.2437 40.734 55.6007 42.7073 54.7139C42.796 54.6695 42.907 54.6695 42.9957 54.7139C43.0844 54.7582 43.1731 54.8248 43.2174 54.9134L46.2548 61.5871C46.3434 61.7866 46.2549 62.0083 46.0553 62.097C43.4391 63.2943 40.6676 64.1368 37.8075 64.6024C36.0337 64.9128 34.26 65.0459 32.4863 65.0459ZM29.8921 64.1812C32.4862 64.4029 35.1026 64.292 37.6745 63.8707C40.3351 63.4273 42.9068 62.6513 45.3679 61.5871L42.6408 55.6007C40.7119 56.4432 38.6721 57.0419 36.588 57.3966C34.5704 57.7292 32.5306 57.8179 30.4908 57.6627L29.8921 64.1812Z" fill="#141414"/>
<path d="M29.4711 64.5357C23.9947 64.0258 18.5848 62.0968 13.7957 58.6602L18.0748 52.6961C21.7775 55.3567 25.9456 56.8422 30.1804 57.2413L29.4711 64.5357Z" fill="#F3EAD4"/>
<path d="M29.4703 64.9126C29.4481 64.9126 29.4481 64.9126 29.4259 64.9126C23.7278 64.3805 18.2291 62.3186 13.5509 58.9706C13.3735 58.8376 13.3293 58.5937 13.4623 58.4385L17.7414 52.4743C17.8745 52.297 18.0963 52.2526 18.2736 52.3856C21.7989 54.9132 25.9006 56.4431 30.2019 56.8421C30.3128 56.8421 30.4015 56.9087 30.468 56.9752C30.5345 57.0639 30.5566 57.1525 30.5566 57.2634L29.847 64.58C29.8249 64.7574 29.6698 64.9126 29.4703 64.9126ZM14.3269 58.5493C18.7169 61.609 23.8164 63.538 29.1154 64.0922L29.7362 57.5516C25.5901 57.1082 21.5992 55.6006 18.1405 53.206L14.3269 58.5493Z" fill="#141414"/>
<path d="M18.0751 52.674L13.796 58.6382C9.05132 55.246 5.52603 50.7894 3.26453 45.8452L9.9381 42.7855C11.6675 46.6212 14.4168 50.0578 18.0751 52.674Z" fill="#F3EAD4"/>
<path d="M13.7959 59.0372C13.7072 59.0372 13.6407 59.0151 13.5742 58.9707C8.94029 55.645 5.25968 51.1663 2.90948 46.0225C2.8208 45.8229 2.90957 45.6012 3.10912 45.5125L9.78269 42.4529C9.87137 42.4085 9.9824 42.4085 10.0711 42.4529C10.1598 42.4972 10.2485 42.5637 10.2928 42.6524C12.0444 46.5324 14.8157 49.8803 18.2967 52.3857C18.3854 52.4522 18.4297 52.5409 18.4519 52.6296C18.4741 52.7405 18.452 52.8292 18.3854 52.9179L14.1061 58.882C14.0175 58.9707 13.9067 59.0372 13.7959 59.0372ZM3.77426 46.0447C6.0136 50.8116 9.42798 54.9798 13.7071 58.106L17.5428 52.7627C14.217 50.3016 11.5343 47.0424 9.7606 43.2954L3.77426 46.0447Z" fill="#141414"/>
<path d="M9.93669 42.8077L3.26312 45.8674C2.08802 43.2733 1.26754 40.5684 0.801941 37.7748C0.779769 37.6196 0.757641 37.4644 0.735469 37.3092C0.33638 34.6929 0.269995 32.0324 0.536055 29.3718L7.85269 30.0812C7.65314 32.121 7.69731 34.183 8.00771 36.2228C8.02988 36.3336 8.02993 36.4667 8.0521 36.5775C8.40685 38.706 9.02765 40.8123 9.93669 42.8077Z" fill="#F3EAD4"/>
<path d="M3.26371 46.2444C3.21936 46.2444 3.17489 46.2444 3.13055 46.2222C3.04186 46.1779 2.95317 46.1113 2.90883 46.0226C1.73374 43.4286 0.891388 40.6571 0.425784 37.8413C0.403612 37.6861 0.381267 37.5309 0.359096 37.3536C-0.0399931 34.7151 -0.106378 32.0102 0.159681 29.3274C0.181853 29.1057 0.359096 28.9505 0.580812 28.9727L7.89744 29.6822C8.0083 29.6822 8.09703 29.7487 8.16355 29.8152C8.23006 29.9039 8.25232 29.9925 8.25232 30.1034C8.05277 32.0989 8.09716 34.1387 8.40756 36.1341C8.42974 36.245 8.42956 36.378 8.45173 36.4888C8.80648 38.6173 9.42737 40.6793 10.3142 42.6304C10.4029 42.8299 10.3141 43.0516 10.1146 43.1403L3.44104 46.2C3.37452 46.2222 3.30805 46.2444 3.26371 46.2444ZM0.869216 29.793C0.6475 32.2762 0.7361 34.7817 1.11302 37.2427C1.13519 37.3979 1.15732 37.5531 1.17949 37.7083C1.62292 40.3467 2.3768 42.9186 3.44104 45.3354L9.42737 42.6082C8.60702 40.7015 8.00839 38.6839 7.65364 36.6219C7.63147 36.4889 7.60926 36.378 7.60926 36.245C7.32102 34.3161 7.25464 32.3428 7.40984 30.4138L0.869216 29.793Z" fill="#141414"/>
<path d="M7.83204 30.0812L0.515411 29.3717C1.04753 23.9397 2.97655 18.5741 6.3688 13.8072L6.41319 13.7407L12.3772 18.0198L12.3328 18.0863C9.73876 21.7446 8.2533 25.8908 7.83204 30.0812Z" fill="#F3EAD4"/>
<path d="M7.83143 30.4581C7.80926 30.4581 7.80922 30.4581 7.78705 30.4581L0.470412 29.7486C0.359554 29.7486 0.271041 29.6821 0.204526 29.6156C0.138011 29.5491 0.115753 29.4382 0.115753 29.3273C0.670044 23.6736 2.70979 18.2194 6.0577 13.5855L6.10209 13.519C6.23512 13.3417 6.47909 13.2973 6.63429 13.4303L12.5983 17.7094C12.7757 17.8425 12.8201 18.0642 12.6871 18.2415L12.6427 18.3081C10.1373 21.789 8.60757 25.8686 8.18631 30.1033C8.20848 30.3029 8.03098 30.4581 7.83143 30.4581ZM0.958231 29.017L7.49886 29.6378C7.96446 25.4917 9.47209 21.5229 11.8888 18.0863L6.54552 14.2506C3.46367 18.6628 1.53469 23.7401 0.958231 29.017Z" fill="#141414"/>
<path d="M22.3306 9.92728C18.6058 11.6123 15.2358 14.2286 12.6195 17.7317C12.553 17.8204 12.4864 17.9091 12.4199 18.0199L6.45563 13.7408C6.54431 13.6078 6.63317 13.4747 6.74403 13.3639C10.1141 8.8187 14.4597 5.42648 19.2931 3.25366L22.3306 9.92728Z" fill="#F3EAD4"/>
<path d="M12.4199 18.3968C12.3312 18.3968 12.2647 18.3746 12.1982 18.3303L6.21187 14.0511C6.0345 13.9181 5.99007 13.6964 6.1231 13.519C6.21178 13.386 6.32281 13.253 6.4115 13.1199C9.71507 8.68563 14.105 5.13815 19.1158 2.89881C19.3153 2.81013 19.537 2.89885 19.6257 3.09839L22.6632 9.79421C22.7076 9.88289 22.7076 9.99376 22.6632 10.0824C22.6189 10.1711 22.5523 10.2598 22.4636 10.3042C18.6944 11.9892 15.391 14.6498 12.9077 17.9977C12.8412 18.0864 12.7746 18.1751 12.7081 18.2638C12.6416 18.3524 12.5308 18.3968 12.4199 18.3968ZM6.98788 13.652L12.3311 17.4877C14.8144 14.162 18.0738 11.5014 21.8208 9.74987L19.0935 3.76354C14.3488 5.9807 10.1806 9.37291 7.03226 13.5855C7.01009 13.6077 7.01005 13.6299 6.98788 13.652Z" fill="#141414"/>
<path d="M52.7071 46.9095L52.6627 46.976C50.0465 50.6121 46.6543 53.3392 42.8407 55.0686C40.8231 55.9777 38.7167 56.6206 36.5439 56.9976C34.4376 57.3523 32.3091 57.4188 30.1806 57.2193C25.9458 56.8202 21.7777 55.3347 18.075 52.6741C14.4167 50.0578 11.6895 46.6213 9.93797 42.7856C9.02894 40.7901 8.40813 38.706 8.05339 36.5553C8.03122 36.4445 8.009 36.3114 8.009 36.2006C7.6986 34.1829 7.65443 32.121 7.85397 30.059C8.25306 25.8686 9.73843 21.7447 12.3769 18.0642L12.4212 17.9977C12.4878 17.909 12.5544 17.8203 12.6209 17.7095C15.2371 14.2063 18.585 11.5679 22.332 9.90506C24.3053 9.0182 26.3673 8.39736 28.4736 8.04261L28.5621 8.02048C30.6684 7.6879 32.819 7.59918 34.9475 7.8209C39.1379 8.21999 43.2841 9.70552 46.9646 12.3439C50.6007 14.938 53.3278 18.3524 55.0572 22.1438C55.9884 24.1614 56.6314 26.2899 56.9862 28.4627C57.3409 30.5468 57.4074 32.6753 57.2079 34.8038C56.8088 39.0386 55.3455 43.2068 52.7071 46.9095Z" fill="#F3EAD4"/>
<path d="M32.4868 57.7071C31.7108 57.7071 30.9127 57.6628 30.1367 57.5963C25.7245 57.175 21.4676 55.6009 17.8314 52.9846C14.2396 50.4127 11.3794 46.9318 9.58354 42.9409C8.67451 40.9233 8.03149 38.7948 7.65457 36.622C7.6324 36.4889 7.61018 36.3781 7.61018 36.2451C7.29978 34.1831 7.2554 32.0989 7.45494 30.0148C7.8762 25.647 9.4726 21.4344 12.0445 17.8426L12.0889 17.7761C12.1554 17.6874 12.2441 17.5765 12.3106 17.4879C14.8603 14.0513 18.2749 11.302 22.1549 9.5726C24.1282 8.68574 26.2343 8.04276 28.4071 7.68802L28.4959 7.66582C30.6465 7.31108 32.8415 7.24458 34.9921 7.4663C39.3821 7.88756 43.5947 9.48391 47.1865 12.0558C50.7561 14.6055 53.5942 18.0421 55.4123 22.0108C56.3435 24.0506 57.0086 26.2013 57.3634 28.4185C57.7181 30.5469 57.7846 32.7198 57.5851 34.8482C57.186 39.2382 55.6118 43.473 53.0399 47.1091L52.9955 47.1756C50.4458 50.7453 46.987 53.5832 43.0183 55.4013C40.9785 56.3325 38.8279 56.9977 36.6329 57.3524C35.2361 57.5963 33.8614 57.7071 32.4868 57.7071ZM32.5312 8.13145C31.223 8.13145 29.9148 8.24228 28.6288 8.44183L28.5624 8.46402C26.4782 8.81877 24.4385 9.41739 22.5096 10.2821C18.7404 11.9671 15.4369 14.6277 12.9537 17.9756C12.8872 18.0643 12.8206 18.153 12.754 18.2417L12.7097 18.3082C10.2043 21.7891 8.67451 25.8687 8.25325 30.1035C8.0537 32.1211 8.09809 34.1388 8.40849 36.1342C8.43066 36.2451 8.43049 36.3781 8.45266 36.4889C8.80741 38.6174 9.4283 40.6793 10.3152 42.6304C12.0667 46.5105 14.8381 49.8584 18.319 52.3638C21.8443 54.8914 25.9462 56.4212 30.2475 56.8203C32.3317 57.0198 34.4379 56.9533 36.5221 56.5986C38.6727 56.2438 40.7568 55.6008 42.7301 54.714C46.5658 52.9624 49.9136 50.191 52.3968 46.7322L52.4412 46.6657C54.9466 43.1626 56.4544 39.0387 56.8535 34.7817C57.053 32.6976 56.9643 30.6134 56.6318 28.5515C56.277 26.4008 55.6339 24.3167 54.7249 22.3434C52.9733 18.5077 50.202 15.1598 46.7654 12.6988C43.2844 10.1934 39.1825 8.66357 34.9477 8.24231C34.1052 8.15362 33.3293 8.13145 32.5312 8.13145Z" fill="#141414"/>
<path d="M46.5553 12.086L46.5038 12.158L47.135 12.6094L47.1865 12.5374L46.5553 12.086Z" fill="#141414"/>
<path d="M51.1183 6.02823L51.015 6.17236L51.6457 6.62446L51.749 6.48033L51.1183 6.02823Z" fill="#141414"/>
<path d="M17.8488 52.102L17.6809 52.3362L18.3116 52.7884L18.4795 52.5541L17.8488 52.102Z" fill="#141414"/>
<path d="M22.6035 9.75107L21.8973 10.0726L21.9616 10.2139L22.6678 9.89236L22.6035 9.75107Z" fill="#141414"/>
<path d="M19.6978 2.90024L18.9915 3.22174L19.0466 3.34284L19.753 3.02135L19.6978 2.90024Z" fill="#141414"/>
<path d="M46.313 61.557L45.6068 61.8788L45.6252 61.9192L46.3314 61.5974L46.313 61.557Z" fill="#141414"/>
<path d="M43.0924 54.6021L42.385 54.9211L42.4853 55.1434L43.1927 54.8244L43.0924 54.6021Z" fill="#141414"/>
<path d="M7.8765 29.7002L7.7998 30.4724L8.04246 30.4965L8.11916 29.7243L7.8765 29.7002Z" fill="#141414"/>
<path d="M0.5231 28.9809L0.45462 29.7539L0.49878 29.7578L0.567259 28.9848L0.5231 28.9809Z" fill="#141414"/>
<path d="M64.5603 35.0741L64.4834 35.8463L64.6157 35.8594L64.6927 35.0872L64.5603 35.0741Z" fill="#141414"/>
<path d="M57.0746 34.4405L57.002 35.2131L57.1565 35.2276L57.2291 34.455L57.0746 34.4405Z" fill="#141414"/>
<path d="M34.5416 7.84989L34.5302 7.96014L35.302 8.04054L35.3134 7.93028L34.5416 7.84989Z" fill="#141414"/>
<path d="M35.2806 0.346149L35.2634 0.522644L36.0358 0.597729L36.0529 0.421233L35.2806 0.346149Z" fill="#141414"/>
<path d="M29.8468 64.5357L29.0708 64.5136L29.8468 64.5357Z" fill="#141414"/>
<path d="M29.7941 56.9739L29.7681 57.2387L30.5404 57.3144L30.5663 57.0496L29.7941 56.9739Z" fill="#141414"/>
<path d="M54.783 21.8619L54.6826 21.9089L55.0111 22.6119L55.1115 22.5649L54.783 21.8619Z" fill="#141414"/>
<path d="M61.7756 18.773L61.6147 18.8475L61.9407 19.5518L62.1016 19.4773L61.7756 18.773Z" fill="#141414"/>
<path d="M3.39677 46.2221L3.10858 45.4905L3.39677 46.2221Z" fill="#141414"/>
<path d="M10.0757 42.2865L9.83405 42.3978L10.1587 43.1027L10.4004 42.9913L10.0757 42.2865Z" fill="#141414"/>
<path d="M52.7935 46.3803L52.3414 47.011L52.5036 47.1273L52.9557 46.4966L52.7935 46.3803Z" fill="#141414"/>
<path d="M58.9752 50.8887L58.523 51.5193L58.5951 51.571L59.0473 50.9404L58.9752 50.8887Z" fill="#141414"/>
<path d="M6.63724 13.392L6.18506 14.0226L6.25716 14.0743L6.70934 13.4437L6.63724 13.392Z" fill="#141414"/>
<path d="M12.6531 17.5912L12.201 18.2219L12.3632 18.3382L12.8153 17.7075L12.6531 17.5912Z" fill="#141414"/>
<path d="M37.9938 24.3334H44.3335C45.4365 24.3334 46.3336 25.2304 46.3336 26.3334V29.0001C46.3336 29.8691 45.7759 30.6081 45.0002 30.8835M37.9938 24.3334C38.4142 23.7754 38.6669 23.0841 38.6669 22.3334C38.6669 20.4954 37.1715 19.0001 35.3335 19.0001C34.2425 19.0001 33.2755 19.5294 32.6668 20.3421C32.0585 19.5294 31.0911 19.0001 30.0001 19.0001C28.1621 19.0001 26.6668 20.4954 26.6668 22.3334C26.6668 23.0841 26.9195 23.7754 27.3398 24.3334M37.9938 24.3334H27.3398M27.3398 24.3334H21.0001C19.8971 24.3334 19.0001 25.2304 19.0001 26.3334V29.0001C19.0001 29.8691 19.5578 30.6081 20.3334 30.8835M20.3334 30.8835V43.6668C20.3334 44.7699 21.2304 45.6669 22.3334 45.6669H32.6668M20.3334 30.8835H32.6668M45.0002 30.8835V43.6668C45.0002 44.7699 44.1032 45.6669 43.0002 45.6669H32.6668M45.0002 30.8835H32.6668M32.6668 45.6669V30.8835" stroke="#1A1A1A" stroke-width="0.9"/>
</svg>
