<svg width="301" height="305" viewBox="0 0 301 305" fill="none" xmlns="http://www.w3.org/2000/svg">
<path d="M147.204 264.781C126.863 263.073 105.571 249.287 102.91 228.735L92.5807 219.375C88.7152 215.897 88.5252 209.636 93.0877 205.969C95.3056 204.135 98.0303 203.692 101.072 204.577C101.706 204.767 102.529 204.957 102.529 203.629L102.403 172.705C102.403 171.124 101.706 169.67 100.502 168.721L84.5329 155.757C81.3012 153.164 80.3506 148.611 82.2516 144.943C83.7725 142.034 86.7508 140.264 90.046 140.2C92.2005 140.2 91.8836 138.556 89.2221 137.165C85.8003 135.457 81.9982 133.244 79.2733 130.778C67.4868 120.217 61.1499 110.478 61.1499 97.7672C61.1499 83.6017 74.9009 79.175 88.7152 79.175C102.846 79.175 117.294 82.5267 126.166 85.3725C127.94 85.9416 129.905 85.0561 130.665 83.3487C132.883 78.3528 134.467 74.6851 135.354 72.535C139.537 62.2271 149.485 51.856 162.286 51.856C163.807 51.856 186.936 53.5002 188.837 81.8943C188.964 84.1709 189.344 89.6094 189.978 97.7672C190.168 100.107 191.879 102.067 194.223 102.51C206.073 104.723 236.237 110.984 245.489 126.288C251.825 136.785 242.257 155.061 232.244 161.765C227.238 165.053 221.218 167.014 214.375 167.456C212.79 167.583 211.586 169.037 211.967 170.618C212.727 173.717 212.917 176.942 212.537 180.104C211.84 186.491 209.052 192.309 204.679 196.862C203.539 198.064 202.778 199.581 202.398 201.162C201.701 204.451 201.194 207.233 200.624 210.079C200.244 211.85 201.194 213.051 204.553 213.368C208.735 213.747 211.46 216.719 212.093 220.577C212.727 224.434 210.826 228.165 207.341 229.873L199.863 233.604C197.392 234.869 195.491 237.019 194.477 239.612C191.879 246.505 186.493 252.702 178.825 257.318C163.997 266.109 149.232 264.97 147.204 264.781Z" fill="#F3EAD4"/>
<path d="M147.966 256.117C131.743 254.789 111.402 243.216 111.402 224.498L111.085 140.453C113.303 119.521 137.446 104.977 158.295 107.19L160.956 107.443C181.868 109.656 206.074 129.387 203.856 150.319C203.856 150.319 189.599 218.68 187.064 233.288C184.466 247.959 164.124 257.445 147.966 256.117Z" fill="#6FA467"/>
<path d="M151.071 257.382C149.993 257.382 148.916 257.319 147.839 257.255C129.779 255.738 110.198 242.837 110.261 224.498L109.945 140.454C109.945 140.39 109.945 140.39 109.945 140.327C111.022 130.146 117.105 120.85 127.054 114.209C136.433 107.886 147.902 104.977 158.421 106.052L161.083 106.305C171.665 107.443 183.198 112.945 191.88 121.039C201.385 129.956 206.074 140.39 204.997 150.445C204.997 150.509 204.997 150.509 204.997 150.572C204.87 151.267 190.676 219.059 188.205 233.541C185.606 247.833 167.23 257.382 151.071 257.382ZM112.163 140.517L112.479 224.498C112.479 243.28 133.644 253.777 147.966 254.979C148.916 255.042 149.93 255.105 150.881 255.105C165.899 255.105 183.515 246.189 185.796 233.162C188.268 218.87 202.146 152.469 202.589 150.192C204.68 130.399 181.297 110.795 160.703 108.581L158.041 108.328C138.714 106.241 114.444 119.838 112.163 140.517Z" fill="#141414"/>
<path d="M113.939 155.757L90.049 149.054L116.093 170.112" fill="#6FA467"/>
<path d="M116.092 171.251C115.838 171.251 115.585 171.188 115.395 170.998L89.3504 149.876C88.9068 149.56 88.7801 148.928 89.0336 148.485C89.287 148.042 89.8574 147.789 90.3644 147.916L114.318 154.619C114.951 154.809 115.268 155.441 115.078 156.01C114.888 156.643 114.254 156.959 113.684 156.769L95.0536 151.584L116.852 169.227C117.359 169.607 117.423 170.366 117.042 170.808C116.726 171.124 116.409 171.251 116.092 171.251Z" fill="#141414"/>
<path d="M123.57 220.767L98.476 212.925L117.93 230.569" fill="#6FA467"/>
<path d="M117.931 231.707C117.677 231.707 117.36 231.581 117.17 231.391L97.7161 213.748C97.3358 213.368 97.2092 212.799 97.4626 212.356C97.7161 211.913 98.2865 211.661 98.7934 211.85L123.887 219.692C124.458 219.882 124.838 220.514 124.648 221.146C124.457 221.716 123.824 222.095 123.19 221.905L103.039 215.645L118.691 229.81C119.135 230.253 119.198 230.948 118.754 231.391C118.564 231.581 118.247 231.707 117.931 231.707Z" fill="#141414"/>
<path d="M183.895 231.644L203.286 222.095L182.121 219.502" fill="#6FA467"/>
<path d="M183.895 232.782C183.451 232.782 183.071 232.529 182.881 232.15C182.627 231.581 182.817 230.885 183.388 230.632L199.357 222.727L181.994 220.577C181.36 220.514 180.916 219.945 180.98 219.312C181.043 218.68 181.613 218.237 182.247 218.3L203.349 220.893C203.856 220.956 204.236 221.336 204.363 221.842C204.489 222.348 204.172 222.854 203.729 223.043L184.338 232.592C184.275 232.782 184.085 232.782 183.895 232.782Z" fill="#141414"/>
<path d="M144.29 196.736C155.209 196.736 164.061 187.902 164.061 177.005C164.061 166.108 155.209 157.275 144.29 157.275C133.371 157.275 124.519 166.108 124.519 177.005C124.519 187.902 133.371 196.736 144.29 196.736Z" fill="#F3EAD4"/>
<path d="M144.289 197.874C143.529 197.874 142.832 197.811 142.071 197.748C136.495 197.179 131.552 194.459 128.004 190.096C124.518 185.732 122.871 180.294 123.505 174.792C124.709 163.346 135.038 155.061 146.507 156.263C152.084 156.832 157.026 159.551 160.575 163.915C164.124 168.278 165.708 173.717 165.074 179.219C163.934 189.906 154.872 197.874 144.289 197.874ZM144.289 158.413C134.911 158.413 126.8 165.496 125.786 174.982C125.279 179.914 126.673 184.784 129.778 188.641C132.883 192.499 137.319 194.902 142.262 195.471C152.464 196.546 161.652 189.147 162.73 178.966C163.236 174.033 161.842 169.164 158.737 165.306C155.632 161.449 151.197 159.046 146.254 158.476C145.62 158.476 144.923 158.413 144.289 158.413Z" fill="#141414"/>
<path d="M184.023 196.862C194.942 196.862 203.794 188.029 203.794 177.132C203.794 166.235 194.942 157.401 184.023 157.401C173.104 157.401 164.252 166.235 164.252 177.132C164.252 188.029 173.104 196.862 184.023 196.862Z" fill="#F3EAD4"/>
<path d="M184.086 198.001C183.326 198.001 182.566 197.938 181.805 197.874C170.335 196.673 162.034 186.365 163.238 174.919C163.808 169.354 166.533 164.421 170.906 160.88C175.278 157.402 180.728 155.757 186.241 156.39C197.711 157.591 206.012 167.899 204.808 179.345C204.237 184.91 201.513 189.843 197.14 193.384C193.401 196.357 188.839 198.001 184.086 198.001ZM183.96 158.54C179.714 158.54 175.658 159.994 172.3 162.651C168.434 165.749 166.026 170.176 165.456 175.109C164.379 185.29 171.793 194.46 181.995 195.535C186.938 196.041 191.817 194.649 195.683 191.551C199.548 188.452 201.956 184.025 202.527 179.093C203.604 168.911 196.19 159.742 185.987 158.666C185.354 158.603 184.657 158.54 183.96 158.54Z" fill="#141414"/>
<path d="M138.144 180.357C136.37 180.167 135.103 178.46 135.483 176.689C135.8 175.108 137.384 174.159 138.968 174.286L153.416 175.804C153.543 175.804 153.67 175.677 153.67 175.551C153.163 169.1 147.903 163.788 141.059 163.535C134.532 163.346 128.702 168.215 127.752 174.665C126.675 182.001 131.934 188.704 139.285 189.527C144.925 190.159 150.121 186.997 152.466 182.191C152.529 182.064 152.466 181.875 152.275 181.875L138.144 180.357Z" fill="#141414"/>
<path d="M177.621 180.61C175.847 180.42 174.579 178.713 174.96 176.942C175.276 175.361 176.861 174.412 178.445 174.539L193.4 176.12C193.526 176.12 193.653 176.057 193.59 175.93C193.146 169.417 187.887 164.041 181.043 163.788C174.516 163.535 168.686 168.468 167.735 174.918C166.658 182.254 171.918 188.957 179.269 189.779C184.908 190.412 190.105 187.313 192.386 182.507C192.449 182.38 192.386 182.254 192.196 182.254L177.621 180.61Z" fill="#141414"/>
<path d="M145.431 164.484C134.595 163.346 131.49 163.662 129.969 163.409C133.771 158.982 140.741 156.832 146.381 157.401C152.908 158.097 158.548 162.271 160.766 166.128C158.611 165.875 150.944 165.116 145.431 164.484Z" fill="#8BB4C8"/>
<path d="M160.765 167.267C160.702 167.267 160.639 167.267 160.639 167.267C159.054 167.077 154.555 166.571 150.183 166.129C148.472 165.939 146.824 165.749 145.304 165.623C137.763 164.801 133.961 164.737 131.87 164.674C130.919 164.674 130.285 164.611 129.778 164.548C129.335 164.484 129.018 164.231 128.891 163.852C128.764 163.473 128.828 163.03 129.081 162.714C132.883 158.287 140.044 155.631 146.508 156.327C153.795 157.086 159.561 161.702 161.779 165.623C161.969 166.002 161.969 166.445 161.716 166.824C161.526 167.077 161.146 167.267 160.765 167.267ZM132.693 162.397C134.911 162.461 138.713 162.587 145.557 163.346C147.078 163.536 148.789 163.662 150.436 163.852C153.288 164.168 156.266 164.484 158.358 164.674C155.823 161.765 151.324 159.046 146.254 158.477C141.565 158.034 136.242 159.615 132.693 162.397Z" fill="#141414"/>
<path d="M182.437 164.611C171.601 165.939 168.876 166.698 167.418 166.887C169.509 161.892 175.91 158.73 181.549 157.844C187.95 156.832 194.35 158.856 197.708 162.903C195.49 163.156 188.013 163.915 182.437 164.611Z" fill="#8BB4C8"/>
<path d="M167.418 168.026C167.038 168.026 166.721 167.837 166.531 167.584C166.277 167.267 166.214 166.825 166.404 166.445C168.686 161.007 175.593 157.592 181.423 156.706C188.203 155.631 194.983 157.782 198.595 162.208C198.849 162.525 198.912 162.967 198.785 163.346C198.659 163.726 198.278 163.979 197.835 164.042C195.617 164.295 188.139 165.054 182.626 165.75C175.212 166.698 171.6 167.331 169.636 167.71C168.685 167.9 168.115 167.963 167.545 168.026C167.482 168.026 167.481 168.026 167.418 168.026ZM184.718 158.73C183.704 158.73 182.69 158.793 181.676 158.983C177.24 159.679 172.171 161.892 169.573 165.433C171.664 165.054 175.276 164.422 182.31 163.536C186.492 163.03 191.878 162.398 195.173 162.082C192.512 159.932 188.71 158.73 184.718 158.73Z" fill="#141414"/>
<path d="M149.93 216.087C149.106 216.087 148.282 216.024 147.331 215.834C140.614 214.506 139.22 207.36 139.474 203.755C139.537 203.123 140.044 202.68 140.678 202.68C141.311 202.744 141.755 203.25 141.755 203.882C141.755 204.198 141.311 212.356 147.775 213.621C155.95 215.202 158.611 207.234 158.738 206.917C158.928 206.348 159.562 205.969 160.195 206.159C160.766 206.348 161.146 206.981 160.956 207.613C160.892 207.676 158.104 216.087 149.93 216.087Z" fill="#141414"/>
<path d="M114.824 122.684C114.824 122.684 130.983 122.494 147.205 130.083C158.738 135.458 164.125 140.011 166.786 144.058C159.879 140.707 151.641 136.027 141.122 133.498C119.323 128.185 111.085 137.924 111.085 137.924L114.824 122.684Z" fill="#141414"/>
<path d="M183.391 130.272C183.391 130.272 180.539 90.4949 179.969 82.5901C179.398 74.6853 174.329 62.7964 164.887 60.9625C155.445 59.1286 146.954 67.1599 143.342 75.95C139.73 84.7402 126.93 112.818 126.93 112.818L183.391 130.272Z" fill="#8BB4C8"/>
<path d="M183.391 131.411C183.264 131.411 183.137 131.411 183.074 131.348L126.613 113.957C126.296 113.831 126.042 113.641 125.915 113.325C125.789 113.008 125.789 112.692 125.915 112.376C126.042 112.123 138.843 84.1083 142.328 75.5078C146.067 66.275 155.128 57.9275 165.077 59.8879C175.216 61.8483 180.539 74.3064 181.109 82.5274C181.616 90.369 184.468 129.83 184.531 130.209C184.531 130.589 184.404 130.968 184.088 131.158C183.898 131.284 183.644 131.411 183.391 131.411ZM128.514 112.123L182.187 128.692C181.616 121.103 179.335 89.5468 178.891 82.5905C178.385 75.0651 173.632 63.7454 164.697 62.038C155.889 60.3305 147.841 67.9192 144.419 76.33C141.314 83.9819 130.985 106.748 128.514 112.123Z" fill="#141414"/>
<path d="M181.869 109.024L182.376 125.908C182.376 125.908 193.148 135.71 211.842 139.442C222.298 141.528 227.494 140.896 229.712 140.2C231.93 139.568 242.069 137.797 237.76 130.778C234.401 125.213 225.783 119.521 211.272 115.664C198.788 112.312 181.869 109.024 181.869 109.024Z" fill="#4C8BAA"/>
<path d="M224.072 142.034C221.094 142.034 217.038 141.655 211.652 140.58C192.895 136.785 182.059 127.173 181.615 126.731C181.362 126.541 181.235 126.225 181.235 125.908L180.728 109.024C180.728 108.707 180.855 108.328 181.108 108.138C181.362 107.885 181.742 107.822 182.059 107.885C182.249 107.949 199.168 111.237 211.589 114.589C225.213 118.257 234.908 123.822 238.774 130.209C240.041 132.232 240.294 134.129 239.597 135.837C238.203 139.252 233.197 140.517 230.789 141.149C230.472 141.212 230.219 141.275 230.029 141.339C228.951 141.655 227.05 142.034 224.072 142.034ZM183.516 125.402C185.481 127.047 195.81 135.078 212.095 138.366C222.868 140.516 227.811 139.631 229.395 139.189C229.585 139.125 229.902 139.062 230.219 138.936C232.12 138.43 236.492 137.355 237.506 135.015C237.886 134.003 237.696 132.865 236.809 131.41C234.718 127.995 228.571 121.482 210.955 116.802C200.689 114.083 187.255 111.3 183.009 110.415L183.516 125.402Z" fill="#141414"/>
<path d="M110.897 90.4952C89.9221 86.5744 77.1851 87.2068 71.482 92.835C68.2502 96.0602 68.567 108.076 85.423 124.707C88.0845 123.19 98.4134 121.229 110.707 123.696C154.051 132.359 176.547 152.785 199.866 157.655C212.477 160.311 233.451 160.754 238.267 136.28C238.267 136.28 233.325 142.035 214.885 140.074C186.622 137.039 153.544 98.4633 110.897 90.4952Z" fill="#8BB4C8"/>
<path d="M210.766 159.994C206.71 159.994 202.845 159.425 199.55 158.729C189.664 156.643 179.969 151.836 168.816 146.335C153.164 138.556 135.484 129.766 110.454 124.77C98.6037 122.43 88.5281 124.264 85.93 125.656C85.4865 125.909 84.9161 125.845 84.5992 125.466C70.278 111.3 68.6939 101.435 68.6939 97.8306C68.6939 95.3011 69.3908 93.2141 70.6582 91.9494C76.5515 86.1314 89.4153 85.2461 111.087 89.2934C134.027 93.5936 154.241 106.621 172.111 118.193C188.143 128.501 201.958 137.481 214.885 138.809C232.311 140.643 237.254 135.458 237.317 135.394C237.634 135.015 238.204 134.888 238.648 135.141C239.091 135.394 239.345 135.837 239.281 136.343C237.571 145.007 233.768 151.394 227.812 155.315C222.679 158.856 216.596 159.994 210.766 159.994ZM98.9838 121.419C102.596 121.419 106.588 121.735 110.834 122.62C136.181 127.679 153.988 136.533 169.766 144.374C180.793 149.876 190.361 154.619 199.993 156.579C207.661 158.16 218.497 158.982 226.544 153.607C231.297 150.445 234.592 145.513 236.366 138.872C233.198 140.517 226.671 142.477 214.631 141.212C201.197 139.758 187.129 130.715 170.907 120.217C153.227 108.771 133.139 95.8702 110.644 91.6332C89.7955 87.7124 77.5654 88.408 72.2424 93.6568C71.4186 94.4789 70.975 95.9966 70.975 97.8937C70.975 101.182 72.4326 110.099 85.6132 123.379C87.9578 122.367 92.8371 121.419 98.9838 121.419Z" fill="#141414"/>
<path d="M109.882 137.291C92.963 130.525 85.3587 124.707 85.3587 124.707C85.3587 124.707 98.8562 120.027 115.332 124.644C112.48 128.311 110.77 133.687 109.882 137.291Z" fill="#4C8BAA"/>
<path d="M109.883 138.43C109.756 138.43 109.63 138.43 109.44 138.367C92.5202 131.663 84.916 125.909 84.5992 125.656C84.2823 125.403 84.0922 124.96 84.1556 124.581C84.219 124.201 84.5358 123.822 84.916 123.695C85.4863 123.506 98.9838 118.953 115.523 123.632C115.903 123.759 116.157 124.012 116.283 124.391C116.41 124.77 116.347 125.15 116.093 125.466C113.242 129.071 111.657 134.636 110.897 137.671C110.834 137.987 110.58 138.24 110.327 138.43C110.263 138.367 110.073 138.43 109.883 138.43ZM88.0211 125.15C91.1262 127.174 98.0332 131.221 109.123 135.774C110.01 132.486 111.341 128.502 113.432 125.34C102.089 122.557 92.2668 124.138 88.0211 125.15Z" fill="#141414"/>
<path d="M25.7276 104.976L26.1077 103.648L31.5575 105.292L27.5652 118.193L22.1156 116.549L22.7493 114.589L19.961 114.335L18.567 118.825L21.0383 120.154L21.6719 118.193L27.1217 119.837L23.6364 131.094L18.1867 129.45L18.567 128.122L0 116.296L3.6754 104.281L25.7276 104.976ZM15.3351 116.992L16.2856 113.956L9.31512 113.26L9.18841 113.577L15.3351 116.992Z" fill="#141414"/>
<path d="M33.522 60.5822L32.6348 62.0367L45.8154 70.2578L46.7025 68.8033L51.5186 71.7756L44.6115 82.8424L39.7954 79.87L40.6825 78.4788L30.4169 72.0918L42.3936 86.4469L39.6687 90.8104L21.5453 86.6367L31.6842 92.8973L32.5715 91.506L37.3874 94.4782L31.3674 104.09L26.5515 101.118L27.4386 99.6638L14.2579 91.4427L13.3708 92.8973L8.55478 89.9251L16.9194 76.5185L27.9456 79.1745L20.5948 70.574L28.6425 57.6733L33.522 60.5822Z" fill="#141414"/>
<path d="M53.5463 71.3332L49.4907 67.4125L50.6947 66.1477L39.4785 55.3971L38.2746 56.6619L34.2189 52.7411L43.344 43.3186L47.3996 47.2394L46.1956 48.5041L57.4118 59.2547L58.6157 57.9899L62.6714 61.9107L53.5463 71.3332Z" fill="#141414"/>
<path d="M79.4009 37.8797L78.0068 38.8915L82.1258 44.4564C81.6822 45.5315 80.7951 46.7963 79.4643 48.314C78.197 49.8318 76.6127 51.2863 74.775 52.6143C71.2897 55.1439 67.9312 56.2821 64.6361 55.9027C61.3409 55.5233 58.2359 53.4364 55.4476 49.6421C52.5327 45.7213 51.3921 42.1799 52.0258 38.9547C52.6595 35.7295 54.8139 32.7573 58.4259 30.1013C60.2002 28.7733 61.9747 27.7615 63.749 27.0026C65.5866 26.2438 67.0441 25.801 68.1213 25.6746L73.0641 32.3146L66.0936 37.437L65.143 36.1089C64.5727 35.3501 64.0024 34.9075 63.4321 34.781C62.8618 34.6545 62.2281 34.9075 61.5311 35.4134C60.834 35.9193 60.4538 36.4884 60.3904 37.0575C60.327 37.6267 60.5805 38.3223 61.1508 39.0811L67.1708 47.1757C67.7411 47.9346 68.3114 48.3773 68.8817 48.5038C69.452 48.6303 70.0857 48.3773 70.7828 47.8714C71.4798 47.3655 71.8601 46.7963 71.9234 46.2271C71.9868 45.658 71.7333 44.9624 71.163 44.2035L71.0363 44.0138L69.5154 45.1521L66.4738 41.0416L76.2959 33.7691L79.4009 37.8797Z" fill="#141414"/>
<path d="M87.3858 40.346C84.4075 39.2709 81.8727 36.5517 79.8449 32.125C77.8171 27.6982 77.4369 24.0304 78.5775 21.0582C79.7815 18.086 82.253 15.7462 86.1184 14.0388C89.9839 12.2681 93.4058 11.9518 96.3841 13.0269C99.3624 14.102 101.897 16.8212 103.925 21.2479C105.953 25.6746 106.333 29.3425 105.192 32.3147C103.988 35.2869 101.517 37.6268 97.6515 39.3343C93.786 41.1049 90.3641 41.421 87.3858 40.346ZM96.4474 32.4411C96.6375 31.872 96.5742 31.2396 96.1939 30.4175L91.8849 20.9317C91.5047 20.1096 91.0612 19.6038 90.5542 19.4141C90.0473 19.2243 89.4135 19.2244 88.7165 19.6038C88.0194 19.92 87.5759 20.3627 87.3858 20.8686C87.1957 21.4377 87.259 22.0701 87.6392 22.8922L91.9483 32.378C92.3285 33.2001 92.772 33.7059 93.2789 33.8957C93.7859 34.0854 94.4197 34.0221 95.1167 33.7059C95.8138 33.453 96.2573 33.0103 96.4474 32.4411Z" fill="#141414"/>
<path d="M115.14 32.1248C113.112 32.1881 111.591 32.1249 110.387 31.8719L108.803 25.2319L116.217 23.5245C116.408 24.2201 116.661 24.6627 117.041 24.9157C117.421 25.1686 118.055 25.1687 118.879 24.979C119.576 24.7893 120.019 24.5995 120.273 24.2833C120.526 24.0303 120.59 23.6509 120.526 23.2083C120.463 22.8288 120.209 22.5759 119.893 22.3861C119.512 22.1964 118.942 22.07 118.182 21.9435L115.077 21.6273C112.352 21.2479 110.324 20.5522 108.93 19.5404C107.536 18.5286 106.585 16.9476 106.078 14.7342C105.445 12.0782 105.825 9.86482 107.282 8.09413C108.677 6.32345 111.465 4.9322 115.52 3.98362C117.485 3.54095 119.322 3.28809 121.16 3.28809C122.998 3.28809 124.455 3.47774 125.659 3.85717L127.053 9.86485L120.336 11.4458C120.083 10.3075 119.259 9.92815 117.865 10.2443C117.168 10.3708 116.724 10.6237 116.471 10.8134C116.217 11.0664 116.154 11.3826 116.281 11.8253C116.344 12.2047 116.598 12.4577 116.978 12.6474C117.358 12.7739 117.928 12.9004 118.752 12.9636L121.921 13.2798C124.519 13.5328 126.483 14.1652 127.877 15.177C129.271 16.1888 130.222 17.7697 130.665 19.8566C131.362 22.7023 130.855 25.1054 129.271 27.0026C127.687 28.8998 125.026 30.2909 121.35 31.1763C119.259 31.7454 117.168 31.9984 115.14 32.1248Z" fill="#141414"/>
<path d="M145.367 21.185L147.078 21.2481L147.902 5.75463L146.19 5.62818L146.507 0L162.349 0.88528C165.201 1.01176 167.419 1.77056 169.003 3.03533C170.524 4.30011 171.284 6.00768 171.158 8.22103C171.094 9.54904 170.714 10.6872 170.017 11.5726C169.32 12.4579 168.56 13.1536 167.672 13.533C166.785 13.9757 165.962 14.2287 165.138 14.3552V14.6713C166.785 14.9243 168.179 15.4935 169.447 16.4421C170.714 17.3906 171.284 18.9715 171.158 21.2481C171.031 23.6512 170.017 25.3587 168.116 26.3705C166.215 27.3823 163.87 27.825 160.955 27.6353L145.113 26.7498L145.367 21.185ZM158.801 21.9438C159.498 22.007 160.005 21.8173 160.322 21.5012C160.639 21.185 160.892 20.6158 160.892 19.8569L160.955 18.3392C161.019 17.5804 160.829 17.0111 160.575 16.6317C160.258 16.2522 159.751 16.0625 159.118 15.9993L157.027 15.8728L156.71 21.8173L158.801 21.9438ZM159.118 12.0785C159.815 12.1417 160.322 11.9521 160.639 11.6359C161.019 11.3197 161.209 10.7505 161.209 9.99159L161.272 8.72682C161.336 7.96795 161.209 7.39883 160.892 7.0194C160.575 6.63997 160.068 6.45025 159.435 6.38702L157.597 6.26057L157.28 11.8888L159.118 12.0785Z" fill="#141414"/>
<path d="M197.899 29.6585L199.23 30.038L197.709 35.4765L184.655 31.9352L186.176 26.4966L188.204 27.0657L188.394 24.2832L183.831 23.0185L182.564 25.548L184.592 26.1171L183.071 31.5557L171.665 28.4571L173.186 23.0185L174.516 23.398L185.733 4.4895L197.899 7.77788V29.6585ZM185.542 19.6036L188.584 20.4256L189.028 13.4062L188.711 13.3429L185.542 19.6036Z" fill="#141414"/>
<path d="M202.272 34.718C201.131 31.6826 201.702 28.0147 203.856 23.6512C208.038 15.367 214.122 13.2168 222.233 17.2641C224.197 18.2127 225.908 19.4143 227.302 20.6791C228.76 22.0071 229.71 23.1454 230.281 24.1572L226.415 31.8723L219.001 28.1413L220.142 25.9279C220.522 25.169 220.649 24.4733 220.459 23.9674C220.269 23.3983 219.888 22.9556 219.191 22.6394C218.494 22.2599 217.86 22.1968 217.354 22.3865C216.847 22.5762 216.34 23.0821 215.959 23.841L211.27 33.137C210.89 33.8959 210.763 34.5916 210.953 35.0975C211.144 35.6667 211.524 36.1092 212.221 36.4254C212.918 36.8049 213.551 36.8682 214.058 36.6785C214.565 36.4888 215.072 35.9828 215.452 35.224L216.72 32.6944L224.134 36.4254L220.142 44.3936C219.001 44.52 217.48 44.4568 215.579 44.0774C213.678 43.6979 211.777 43.0655 209.813 42.1169C205.884 40.2197 203.349 37.7535 202.272 34.718Z" fill="#141414"/>
<path d="M244.285 58.6224L245.616 59.6974L242.067 64.1241L234.717 58.2429L237.378 46.6701L235.287 46.7334L232.942 49.6425L234.21 50.6542L230.661 55.0809L220.459 46.9232L224.007 42.4965L225.338 43.5715L235.034 31.4297L233.703 30.3547L237.251 25.928L247.454 34.0857L243.905 38.5124L242.638 37.5005L239.786 41.042L246.82 40.7891L245.109 39.461L248.658 35.0343L258.733 43.0656L255.185 47.4923L253.854 46.4173L246.376 46.5437L244.285 58.6224Z" fill="#141414"/>
<path d="M242.827 65.705L247.073 61.9739L248.213 63.2387L259.873 52.9308L258.732 51.666L262.978 47.9348L271.659 57.7368L267.414 61.468L266.273 60.2032L254.613 70.5112L255.754 71.7759L251.508 75.5069L242.827 65.705Z" fill="#141414"/>
<path d="M286.488 79.6174L292.317 89.293L287.438 92.2019L286.551 90.7475L268.364 101.625L263.358 93.3402L271.533 76.6452L263.041 81.7043L263.865 83.0955L258.986 86.0046L253.156 76.329L258.035 73.42L258.922 74.8745L272.293 66.9064L271.406 65.452L276.285 62.543L282.685 73.2302L275.461 88.0913L282.495 83.9177L281.671 82.5265L286.488 79.6174Z" fill="#141414"/>
<path d="M285.728 126.73L285.221 125.086L278.631 127.173C277.744 126.414 276.857 125.149 275.779 123.442C274.765 121.735 273.878 119.774 273.181 117.624C271.851 113.514 271.914 109.972 273.308 106.937C274.702 103.901 277.68 101.688 282.18 100.233C286.805 98.7789 290.544 98.8421 293.396 100.486C296.247 102.131 298.338 105.103 299.733 109.403C300.43 111.49 300.81 113.513 300.937 115.474C301.063 117.434 301 118.952 300.746 120.027L292.889 122.557L290.227 114.336L291.748 113.83C292.699 113.514 293.269 113.134 293.586 112.628C293.839 112.122 293.903 111.427 293.586 110.604C293.332 109.782 292.889 109.213 292.382 108.96C291.875 108.707 291.114 108.707 290.227 109.024L280.595 112.122C279.645 112.438 279.074 112.818 278.821 113.324C278.568 113.83 278.504 114.525 278.821 115.347C279.074 116.17 279.518 116.739 280.025 116.992C280.532 117.245 281.292 117.245 282.18 116.928L282.433 116.865L281.863 115.095L286.742 113.514L290.481 125.149L285.728 126.73Z" fill="#141414"/>
<path d="M34.5989 231.327C35.2326 230.189 35.5494 229.05 35.5494 227.786C35.5494 226.521 35.1692 225.319 34.4722 224.118C33.8385 223.043 33.0146 222.221 32.1274 221.651C31.6205 221.399 31.1135 221.209 30.5432 221.082L32.0007 220.26L29.9729 216.782L12.8635 226.711L15.018 230.378L20.9112 226.963C20.7845 227.469 20.6578 227.975 20.6578 228.418C20.6578 229.493 20.9747 230.568 21.6084 231.58C22.3054 232.781 23.1925 233.667 24.2698 234.299C25.3471 234.932 26.5511 235.248 27.8185 235.248C29.0859 235.248 30.4166 234.868 31.7473 234.046C32.9513 233.351 33.9652 232.465 34.5989 231.327ZM31.1136 228.924C30.7968 229.493 30.2264 229.999 29.466 230.442C28.7689 230.884 28.0718 231.074 27.3748 231.074C26.6777 231.074 26.0441 230.948 25.4737 230.631C24.9034 230.315 24.4599 229.873 24.0797 229.24C23.6995 228.608 23.5727 228.039 23.5727 227.343C23.5727 226.711 23.7628 226.078 24.0797 225.509C24.3965 224.94 24.9668 224.434 25.6639 223.991C26.4243 223.549 27.1214 223.359 27.7551 223.296C28.4521 223.296 29.0224 223.422 29.5927 223.738C30.163 224.054 30.6067 224.497 30.9869 225.13C31.3671 225.762 31.4937 226.331 31.4937 226.963C31.6205 227.722 31.4938 228.355 31.1136 228.924Z" fill="#141414"/>
<path d="M47.5895 248.085C48.0331 246.82 48.0964 245.556 47.8429 244.228C47.5894 242.9 46.9558 241.635 46.0053 240.433C44.9914 239.232 43.9141 238.346 42.6467 237.841C41.3794 237.335 40.1119 237.145 38.7812 237.335C37.4505 237.524 36.2466 238.03 35.106 238.979C33.9653 239.864 33.2048 241.003 32.7612 242.204C32.3176 243.469 32.2543 244.734 32.5078 246.062C32.7613 247.39 33.3949 248.654 34.3454 249.856C35.2959 251.057 36.4366 251.88 37.704 252.385C38.9713 252.891 40.2388 253.081 41.5695 252.891C42.9002 252.702 44.1042 252.132 45.1815 251.247C46.3855 250.425 47.1459 249.35 47.5895 248.085ZM43.8507 246.315C43.5972 246.947 43.1537 247.516 42.4566 248.085C41.8229 248.591 41.126 248.907 40.4923 249.097C39.7952 249.224 39.1615 249.16 38.5912 248.971C37.9575 248.718 37.4506 248.338 37.007 247.832C36.5634 247.263 36.3099 246.694 36.1832 246.062C36.0565 245.429 36.1831 244.797 36.4366 244.164C36.6901 243.532 37.1337 242.963 37.7674 242.394C38.4011 241.888 39.098 241.508 39.7317 241.382C40.4288 241.256 41.0625 241.319 41.6328 241.572C42.2665 241.825 42.7734 242.204 43.217 242.71C43.6606 243.279 43.9141 243.848 44.0408 244.481C44.2309 245.05 44.1041 245.682 43.8507 246.315Z" fill="#141414"/>
<path d="M66.4736 261.239L62.7348 257.887L54.2435 258.14L61.8477 249.666L58.6793 246.884L45.3085 261.808L48.4769 264.59L50.9483 261.871L53.7999 261.745L53.4197 269.017L57.2218 272.432L57.8554 261.808L66.4736 261.239Z" fill="#141414"/>
<path d="M76.2316 267.626C75.0276 266.804 73.6968 266.361 72.366 266.235C71.0353 266.108 69.7679 266.361 68.5639 266.93C67.3599 267.499 66.4094 268.385 65.5857 269.586C64.7619 270.788 64.3817 272.052 64.3183 273.38C64.2549 274.708 64.5718 275.973 65.2688 277.175C65.9659 278.376 66.9798 279.451 68.374 280.4C69.4512 281.096 70.5284 281.601 71.6056 281.791C72.6829 281.981 73.6968 281.981 74.6474 281.728L74.0771 278.44C73.4434 278.566 72.7464 278.566 72.1761 278.44C71.5424 278.313 70.9087 278.06 70.275 277.618C69.578 277.112 69.0076 276.606 68.6274 275.973C68.2472 275.341 68.1204 274.708 68.1204 274.013C68.1204 273.633 68.2472 273.254 68.374 272.875L77.5624 278.882C77.6891 278.756 77.8157 278.566 77.9425 278.44C78.0692 278.25 78.196 278.123 78.2593 277.997C79.1465 276.669 79.59 275.404 79.6534 274.076C79.7168 272.748 79.4634 271.547 78.8297 270.408C78.3228 269.333 77.3722 268.385 76.2316 267.626ZM70.8453 270.029C71.4156 269.713 71.9859 269.586 72.6196 269.649C73.2533 269.713 73.8869 269.902 74.4572 270.282C75.0909 270.661 75.4712 271.167 75.788 271.736C76.0415 272.305 76.1682 272.875 76.1049 273.507C76.0415 273.95 75.9781 274.329 75.788 274.772L69.8313 270.851C70.1481 270.471 70.465 270.219 70.8453 270.029Z" fill="#141414"/>
<path d="M90.4898 278.187L91.3136 276.479L87.7017 274.708L81.3648 287.799L85.1669 289.633L88.1452 283.435C88.7789 282.171 89.5392 281.412 90.4264 281.159C91.3769 280.906 92.3276 280.969 93.4048 281.475C93.5316 281.538 93.6582 281.602 93.7849 281.665C93.9117 281.728 94.0384 281.791 94.2285 281.918L95.9396 278.44C94.7356 277.87 93.5316 277.554 92.4543 277.618C91.7572 277.618 91.1235 277.87 90.4898 278.187Z" fill="#141414"/>
<path d="M113.937 290.266C114.381 289.76 114.951 289.444 115.585 289.254C116.218 289.064 116.915 289.064 117.612 289.254C118.246 289.444 118.816 289.696 119.26 290.202C119.703 290.645 120.084 291.277 120.274 292.036L123.886 291.151C123.632 289.886 123.062 288.748 122.111 287.863C121.161 286.977 119.957 286.345 118.436 285.965C116.915 285.586 115.458 285.523 114.127 285.902C112.796 286.218 111.656 286.851 110.705 287.736C109.755 288.685 109.121 289.823 108.741 291.214C108.361 292.606 108.424 293.933 108.804 295.198C109.184 296.463 109.945 297.538 110.959 298.487C111.973 299.435 113.24 300.068 114.761 300.447C116.218 300.826 117.612 300.827 118.88 300.51C120.147 300.194 121.161 299.499 121.985 298.487L119.26 295.957C118.69 296.526 118.119 296.906 117.486 297.095C116.852 297.285 116.218 297.285 115.585 297.095C114.888 296.906 114.317 296.589 113.81 296.147C113.303 295.704 112.986 295.135 112.796 294.503C112.606 293.87 112.606 293.111 112.86 292.289C113.113 291.404 113.43 290.772 113.937 290.266Z" fill="#141414"/>
<path d="M140.933 290.455C139.792 289.696 138.461 289.254 136.94 289.064C135.419 288.937 134.025 289.064 132.758 289.633C131.491 290.139 130.477 290.961 129.653 291.973C128.829 293.048 128.386 294.249 128.195 295.704C128.069 297.158 128.259 298.423 128.829 299.625C129.399 300.826 130.287 301.775 131.364 302.534C132.504 303.293 133.835 303.735 135.356 303.925C136.877 304.051 138.271 303.925 139.538 303.356C140.806 302.85 141.82 302.028 142.643 301.016C143.467 299.941 143.911 298.739 144.038 297.285C144.164 295.83 143.974 294.502 143.404 293.301C142.897 292.163 142.073 291.214 140.933 290.455ZM139.855 296.906C139.792 297.728 139.538 298.423 139.158 298.992C138.778 299.561 138.271 300.004 137.701 300.257C137.13 300.51 136.497 300.636 135.8 300.573C135.103 300.51 134.469 300.257 133.962 299.878C133.455 299.498 133.011 298.992 132.758 298.36C132.504 297.728 132.378 296.969 132.505 296.147C132.568 295.324 132.821 294.629 133.201 294.06C133.582 293.491 134.089 293.111 134.659 292.795C135.229 292.542 135.863 292.416 136.56 292.479C137.257 292.542 137.891 292.795 138.398 293.174C138.905 293.554 139.285 294.06 139.602 294.692C139.855 295.325 139.919 296.083 139.855 296.906Z" fill="#141414"/>
<path d="M174.643 290.898C174.073 290.012 173.249 289.38 172.362 289C171.411 288.621 170.397 288.494 169.257 288.621C167.863 288.747 166.659 289.19 165.645 289.949C165.074 290.392 164.631 290.897 164.25 291.467C163.87 290.961 163.363 290.518 162.856 290.202C161.779 289.633 160.575 289.38 159.244 289.506C158.04 289.633 157.027 289.949 156.139 290.581C155.632 290.898 155.189 291.34 154.872 291.846L154.745 290.139L150.753 290.518L152.084 305L156.266 304.62L155.569 297.348C155.506 296.463 155.569 295.767 155.759 295.198C155.949 294.629 156.33 294.186 156.773 293.87C157.217 293.554 157.787 293.364 158.357 293.301C159.244 293.237 159.941 293.427 160.448 293.933C160.955 294.439 161.272 295.261 161.399 296.462L162.096 304.114L166.278 303.735L165.581 296.462C165.518 295.577 165.581 294.882 165.771 294.312C165.961 293.743 166.342 293.301 166.785 292.984C167.229 292.668 167.799 292.478 168.369 292.415C169.257 292.352 169.954 292.542 170.524 293.048C171.031 293.554 171.411 294.376 171.475 295.577L172.171 303.229L176.354 302.85L175.593 294.565C175.593 292.984 175.213 291.783 174.643 290.898Z" fill="#141414"/>
<path d="M205.186 281.728C204.426 280.969 203.475 280.526 202.525 280.4C201.511 280.273 200.497 280.337 199.42 280.716C198.089 281.159 197.075 281.854 196.251 282.866C195.808 283.435 195.491 284.004 195.237 284.637C194.731 284.194 194.16 283.941 193.59 283.751C192.449 283.435 191.182 283.498 189.978 283.878C188.837 284.257 187.95 284.827 187.19 285.649C186.746 286.091 186.493 286.597 186.239 287.166L185.669 285.585L181.867 286.85L186.493 300.636L190.485 299.308L188.14 292.415C187.887 291.593 187.76 290.897 187.823 290.265C187.887 289.633 188.14 289.127 188.52 288.684C188.901 288.241 189.344 287.988 189.978 287.736C190.802 287.483 191.562 287.483 192.196 287.862C192.829 288.241 193.336 289 193.717 290.075L196.188 297.348L200.18 296.02L197.835 289.127C197.582 288.305 197.455 287.609 197.519 286.977C197.582 286.344 197.836 285.838 198.216 285.396C198.596 284.953 199.04 284.7 199.673 284.447C200.497 284.194 201.257 284.194 201.891 284.574C202.525 284.953 203.032 285.712 203.412 286.787L205.883 294.059L209.875 292.731L207.214 284.826C206.58 283.498 205.947 282.423 205.186 281.728Z" fill="#141414"/>
<path d="M220.141 270.662L223.69 276.922C224.133 277.681 224.387 278.377 224.387 279.072C224.45 279.705 224.324 280.274 224.007 280.78C223.69 281.286 223.246 281.665 222.739 281.981C221.916 282.424 221.155 282.55 220.395 282.298C219.698 282.045 219.001 281.412 218.43 280.337L214.692 273.76L211.016 275.847L215.072 282.993C215.832 284.321 216.656 285.207 217.607 285.776C218.557 286.345 219.508 286.598 220.585 286.535C221.662 286.471 222.676 286.155 223.753 285.523C224.704 284.954 225.464 284.258 226.034 283.309C226.351 282.804 226.605 282.171 226.668 281.602L227.492 283.12L230.977 281.159L223.753 268.511L220.141 270.662Z" fill="#141414"/>
<path d="M242.193 257.824C241.179 257.445 240.165 257.318 239.215 257.508C238.201 257.698 237.25 258.204 236.363 258.899C235.413 259.658 234.716 260.607 234.272 261.619C234.019 262.251 233.892 262.82 233.829 263.452L232.751 262.125L229.646 264.654L238.771 275.974L242.066 273.318L237.567 267.753C236.997 267.057 236.68 266.361 236.49 265.729C236.363 265.097 236.427 264.528 236.68 263.958C236.934 263.389 237.314 262.947 237.821 262.504C238.581 261.935 239.278 261.682 240.039 261.808C240.799 261.935 241.56 262.441 242.257 263.326L247.073 269.27L250.368 266.614L245.108 260.164C244.158 259.026 243.207 258.204 242.193 257.824Z" fill="#141414"/>
<path d="M249.115 247.188L246.166 250.236L256.651 260.339L259.6 257.291L249.115 247.188Z" fill="#141414"/>
<path d="M244.349 248.338C244.982 248.275 245.616 248.022 246.123 247.453C246.693 246.883 246.947 246.251 246.947 245.619C246.947 244.986 246.693 244.354 246.186 243.911C245.679 243.469 245.172 243.216 244.475 243.279C243.842 243.342 243.271 243.658 242.701 244.227C242.194 244.797 241.877 245.366 241.877 246.061C241.877 246.694 242.067 247.263 242.574 247.769C243.144 248.148 243.715 248.338 244.349 248.338Z" fill="#141414"/>
<path d="M266.908 243.975C266.591 244.417 266.148 244.67 265.704 244.67C265.261 244.734 264.754 244.544 264.31 244.164L259.684 240.497L261.965 237.651L259.431 235.627L257.149 238.473L254.361 236.26L251.763 239.548L254.551 241.761L253.157 243.532L255.692 245.556L257.086 243.785L261.775 247.516C263.106 248.591 264.437 249.034 265.704 248.844C266.971 248.654 268.175 247.895 269.189 246.504C269.57 245.998 269.95 245.429 270.203 244.86C270.457 244.291 270.583 243.722 270.647 243.216L267.605 242.267C267.478 242.9 267.288 243.406 266.908 243.975Z" fill="#141414"/>
<path d="M281.546 234.426C281.292 233.54 280.785 232.655 280.025 231.643L270.203 218.047L268.111 221.525L274.448 230.125L263.866 228.481L261.584 232.212L277.427 234.426L277.49 234.552C277.87 235.121 278.124 235.627 278.187 236.07C278.25 236.512 278.124 237.018 277.807 237.524C277.617 237.904 277.3 238.22 276.92 238.473C276.539 238.726 276.159 238.979 275.779 239.105L277.553 241.951C278.124 241.761 278.757 241.445 279.328 240.939C279.898 240.433 280.405 239.864 280.785 239.232C281.229 238.473 281.545 237.714 281.672 236.955C281.862 236.07 281.799 235.311 281.546 234.426Z" fill="#141414"/>
</svg>
