<svg width="31" height="31" viewBox="0 0 31 31" fill="none" xmlns="http://www.w3.org/2000/svg">
<path d="M13.4741 29.2319L1.7653 17.4787C0.744899 16.4545 0.744899 14.7959 1.7653 13.7718L13.7828 1.71058C14.8032 0.686458 16.4558 0.686458 17.8237 2.25789L29.5343 14.0111C30.2072 14.4879 30.2072 16.1466 29.1868 17.1707L17.1693 29.2319C16.1489 30.256 14.4963 30.256 13.4759 29.2319H13.4741Z" fill="#8BB4C8" stroke="#1A1A1A" stroke-width="0.5" stroke-miterlimit="10"/>
<path d="M13.792 26.9535L4.09633 17.2225C3.25154 16.3746 3.25154 14.9999 4.09633 14.152L14.0471 4.16498C14.8919 3.31712 16.2617 3.31712 17.393 4.61767L27.0887 14.3487C27.6451 14.742 27.6451 16.1167 26.8003 16.9646L16.8495 26.9516C16.0047 27.7995 14.635 27.7995 13.7902 26.9516L13.792 26.9535Z" fill="#8BB4C8" stroke="#1A1A1A" stroke-width="0.5" stroke-miterlimit="10"/>
<path d="M22.8093 10.3988C20.0531 14.1594 18.6205 15.9015 16.1545 19.8607C18.7425 19.8607 21.3563 19.8867 23.9184 19.8607L21.885 21.9015C20.1843 21.9182 17.21 21.9127 15.2672 21.9071C14.0434 21.9034 13.3022 20.5472 13.9602 19.5101C16.1656 16.037 19.1029 11.7661 21.3304 8.729L22.8093 10.3988Z" fill="#F3EAD4"/>
<path d="M22.569 10.2577C20.8424 12.6121 19.0567 14.9256 17.4355 17.3561C16.9161 18.1353 16.4096 18.9256 15.9142 19.7197C15.8014 19.8997 15.9475 20.139 16.1545 20.139C18.7425 20.139 21.3305 20.165 23.9184 20.139L23.7225 19.664C23.0441 20.3449 22.3675 21.024 21.6891 21.7048L21.885 21.6232C20.4783 21.6362 19.0715 21.6362 17.6648 21.6343C16.9475 21.6343 16.2303 21.6325 15.513 21.6306C15.2265 21.6306 14.9511 21.6306 14.6886 21.4915C14.4427 21.3616 14.2449 21.1594 14.1229 20.9089C14.012 20.6844 13.9676 20.4247 14.0009 20.1779C14.0453 19.8477 14.2431 19.5824 14.4187 19.3078C14.8494 18.6343 15.2857 17.9627 15.7256 17.2948C16.6407 15.9071 17.5742 14.5286 18.5206 13.1612C19.5189 11.7178 20.5337 10.2856 21.5708 8.86811L21.1345 8.92377C21.6281 9.48036 22.1198 10.0369 22.6134 10.5935C22.8518 10.8625 23.2419 10.4674 23.0052 10.2002C22.5117 9.64362 22.02 9.08704 21.5264 8.53045C21.397 8.38388 21.19 8.45253 21.0901 8.58611C19.8294 10.3078 18.602 12.0536 17.3967 13.8143C16.1452 15.6418 14.8716 17.4729 13.7199 19.369C13.2892 20.0778 13.3687 20.9794 13.927 21.5972C14.5536 22.2893 15.4557 22.1854 16.3024 22.1872C17.3228 22.1891 18.345 22.1909 19.3654 22.1891C19.8498 22.1891 20.3359 22.1891 20.8203 22.1854C21.0254 22.1854 21.2325 22.1835 21.4377 22.1817C21.6429 22.1798 21.9164 22.228 22.0791 22.0963C22.19 22.0073 22.2843 21.8904 22.3841 21.7902L23.0792 21.0926C23.423 20.7475 23.7687 20.4006 24.1125 20.0555C24.2808 19.8867 24.1569 19.5787 23.9166 19.5805C21.3286 19.6065 18.7406 19.5805 16.1526 19.5805L16.393 19.9998C17.9402 17.5175 19.6316 15.1445 21.3748 12.7995C21.9349 12.0481 22.4932 11.2948 23.0478 10.5379C23.2603 10.2484 22.7779 9.97201 22.569 10.2577Z" fill="#1A1A1A"/>
<path d="M7.46622 20.2319C10.2612 16.499 13.0784 13.6549 15.5851 9.71982C12.9971 9.69199 11.3075 9.67529 8.74542 9.67343L10.6088 7.62891C12.3094 7.62891 14.5499 7.65674 16.4927 7.68271C17.7165 7.69941 18.443 9.06304 17.7756 10.0927C15.5352 13.5436 11.204 18.8868 8.94506 21.9016L7.46622 20.2319Z" fill="#F3EAD4"/>
<path d="M7.70468 20.373C9.75843 17.6365 12.0673 15.1022 14.1044 12.3526C14.7052 11.5419 15.2801 10.7125 15.8236 9.86282C15.94 9.681 15.7866 9.44538 15.5832 9.44353C13.304 9.41941 11.0228 9.399 8.74357 9.39714L8.93952 9.8721C9.56064 9.19121 10.1818 8.50846 10.8029 7.82757L10.6069 7.9092C12.4333 7.9092 14.2615 7.93332 16.0879 7.95744C16.4484 7.96301 16.794 7.94631 17.1157 8.13555C17.3634 8.28026 17.5593 8.51032 17.6629 8.77933C17.918 9.43796 17.5427 9.95188 17.1878 10.4788C15.4446 13.0743 13.5073 15.5381 11.5922 18.0075C10.6254 19.2561 9.65122 20.4992 8.70475 21.7626L9.14101 21.707C8.64745 21.1504 8.15573 20.5938 7.66217 20.0372C7.4237 19.7682 7.03366 20.1634 7.27027 20.4305C7.76384 20.9871 8.25555 21.5437 8.74912 22.1003C8.88037 22.2469 9.08556 22.1764 9.18538 22.0446C11.5922 18.8331 14.1321 15.7255 16.4761 12.4676C17.0029 11.7367 17.5353 11.002 18.0141 10.2357C18.4929 9.4695 18.3672 8.49176 17.7146 7.89251C17.393 7.59752 16.9881 7.43425 16.5537 7.41013C15.9585 7.37674 15.3577 7.39343 14.7625 7.38601C13.5461 7.37117 12.3298 7.35818 11.1134 7.35447C10.8953 7.35447 10.5866 7.28954 10.411 7.43796C10.3611 7.48063 10.3185 7.53815 10.276 7.58638L9.63643 8.28768C9.27411 8.68471 8.91179 9.08175 8.54948 9.48063C8.3905 9.65503 8.49772 9.95559 8.74542 9.95559C11.0247 9.95559 13.3058 9.97785 15.5851 10.002L15.3448 9.58267C13.4962 12.4769 11.2428 15.0576 9.08556 17.7181C8.4515 18.4992 7.83039 19.2895 7.22591 20.0947C7.01148 20.3804 7.4921 20.6587 7.70468 20.3749V20.373Z" fill="#1A1A1A"/>
</svg>
