<svg width="63" height="63" viewBox="0 0 63 63" fill="none" xmlns="http://www.w3.org/2000/svg">
<mask id="path-1-inside-1_798_152520" fill="white">
<path fill-rule="evenodd" clip-rule="evenodd" d="M35.2246 12.2632C35.0791 12.6747 35 13.1175 35 13.5789C35 15.7589 36.7673 17.5262 38.9474 17.5262H40.386C42.566 17.5262 44.3333 15.7589 44.3333 13.5789C44.3333 13.1175 44.2542 12.6747 44.1087 12.2632H47.1946C50.0326 12.2632 52.3333 14.5639 52.3333 17.4019V47.9139C52.3333 50.752 50.0326 53.0526 47.1946 53.0526H12.1387C9.30067 53.0526 7 50.752 7 47.914V17.4019C7 14.5639 9.30067 12.2632 12.1387 12.2632H15.2246C15.0791 12.6747 15 13.1175 15 13.5789C15 15.7589 16.7673 17.5262 18.9474 17.5262H20.386C22.566 17.5262 24.3333 15.7589 24.3333 13.5789C24.3333 13.1175 24.2542 12.6747 24.1087 12.2632H35.2246Z"/>
</mask>
<path fill-rule="evenodd" clip-rule="evenodd" d="M35.2246 12.2632C35.0791 12.6747 35 13.1175 35 13.5789C35 15.7589 36.7673 17.5262 38.9474 17.5262H40.386C42.566 17.5262 44.3333 15.7589 44.3333 13.5789C44.3333 13.1175 44.2542 12.6747 44.1087 12.2632H47.1946C50.0326 12.2632 52.3333 14.5639 52.3333 17.4019V47.9139C52.3333 50.752 50.0326 53.0526 47.1946 53.0526H12.1387C9.30067 53.0526 7 50.752 7 47.914V17.4019C7 14.5639 9.30067 12.2632 12.1387 12.2632H15.2246C15.0791 12.6747 15 13.1175 15 13.5789C15 15.7589 16.7673 17.5262 18.9474 17.5262H20.386C22.566 17.5262 24.3333 15.7589 24.3333 13.5789C24.3333 13.1175 24.2542 12.6747 24.1087 12.2632H35.2246Z" fill="#8BB4C8"/>
<path d="M35.2246 12.2632L36.1674 12.5964L36.6386 11.2632H35.2246V12.2632ZM44.1087 12.2632V11.2632H42.6947L43.1659 12.5964L44.1087 12.2632ZM15.2246 12.2632L16.1674 12.5964L16.6386 11.2632H15.2246V12.2632ZM24.1087 12.2632V11.2632H22.6947L23.1659 12.5964L24.1087 12.2632ZM36 13.5789C36 13.2326 36.0593 12.9024 36.1674 12.5964L34.2817 11.93C34.099 12.447 34 13.0025 34 13.5789H36ZM38.9474 16.5262C37.3196 16.5262 36 15.2066 36 13.5789H34C34 16.3112 36.215 18.5262 38.9474 18.5262V16.5262ZM40.386 16.5262H38.9474V18.5262H40.386V16.5262ZM43.3333 13.5789C43.3333 15.2066 42.0137 16.5262 40.386 16.5262V18.5262C43.1183 18.5262 45.3333 16.3112 45.3333 13.5789H43.3333ZM43.1659 12.5964C43.274 12.9024 43.3333 13.2326 43.3333 13.5789H45.3333C45.3333 13.0025 45.2343 12.447 45.0516 11.93L43.1659 12.5964ZM44.1087 13.2632H47.1946V11.2632H44.1087V13.2632ZM47.1946 13.2632C49.4803 13.2632 51.3333 15.1161 51.3333 17.4019H53.3333C53.3333 14.0116 50.5849 11.2632 47.1946 11.2632V13.2632ZM51.3333 17.4019V47.9139H53.3333V17.4019H51.3333ZM51.3333 47.9139C51.3333 50.1997 49.4803 52.0526 47.1946 52.0526V54.0526C50.5849 54.0526 53.3333 51.3042 53.3333 47.9139H51.3333ZM47.1946 52.0526H12.1387V54.0526H47.1946V52.0526ZM12.1387 52.0526C9.85296 52.0526 8 50.1997 8 47.914H6C6 51.3043 8.74839 54.0526 12.1387 54.0526V52.0526ZM8 47.914V17.4019H6V47.914H8ZM8 17.4019C8 15.1161 9.85295 13.2632 12.1387 13.2632V11.2632C8.74838 11.2632 6 14.0116 6 17.4019H8ZM12.1387 13.2632H15.2246V11.2632H12.1387V13.2632ZM14.2817 11.93C14.099 12.447 14 13.0025 14 13.5789H16C16 13.2326 16.0593 12.9024 16.1674 12.5964L14.2817 11.93ZM14 13.5789C14 16.3112 16.215 18.5262 18.9474 18.5262V16.5262C17.3196 16.5262 16 15.2066 16 13.5789H14ZM18.9474 18.5262H20.386V16.5262H18.9474V18.5262ZM20.386 18.5262C23.1183 18.5262 25.3333 16.3112 25.3333 13.5789H23.3333C23.3333 15.2066 22.0137 16.5262 20.386 16.5262V18.5262ZM25.3333 13.5789C25.3333 13.0025 25.2343 12.447 25.0516 11.93L23.1659 12.5964C23.274 12.9024 23.3333 13.2326 23.3333 13.5789H25.3333ZM24.1087 13.2632H35.2246V11.2632H24.1087V13.2632Z" fill="#1A1A1A" mask="url(#path-1-inside-1_798_152520)"/>
<rect x="37.1666" y="6.5" width="4.99999" height="8.89473" rx="2.5" fill="#8BB4C8" stroke="#141414"/>
<rect x="17.1665" y="6.5" width="4.99999" height="8.89473" rx="2.5" fill="#8BB4C8" stroke="#141414"/>
<ellipse cx="47" cy="45.158" rx="12" ry="11.8421" fill="#8BB4C8" stroke="#F3EAD4"/>
<path d="M57.1664 45.1581C57.1664 50.6893 52.6209 55.1845 46.9998 55.1845C41.3786 55.1845 36.8331 50.6893 36.8331 45.1581C36.8331 39.627 41.3786 35.1318 46.9998 35.1318C52.6209 35.1318 57.1664 39.627 57.1664 45.1581Z" fill="#8BB4C8" stroke="#141414"/>
<mask id="path-7-outside-2_798_152520" maskUnits="userSpaceOnUse" x="44.6667" y="38.8948" width="9" height="9" fill="black">
<rect fill="white" x="44.6667" y="38.8948" width="9" height="9"/>
<path fill-rule="evenodd" clip-rule="evenodd" d="M46.3334 39.8948C45.9652 39.8948 45.6667 40.1933 45.6667 40.5614V45.8071C45.6667 45.8085 45.6668 45.81 45.6668 45.8115C45.6668 45.813 45.6667 45.8145 45.6667 45.8159C45.6667 46.1793 45.9613 46.4738 46.3246 46.4738H51.6755C52.0389 46.4738 52.3334 46.1793 52.3334 45.8159C52.3334 45.4526 52.0389 45.158 51.6755 45.158H47.0001V40.5614C47.0001 40.1933 46.7016 39.8948 46.3334 39.8948Z"/>
</mask>
<path fill-rule="evenodd" clip-rule="evenodd" d="M46.3334 39.8948C45.9652 39.8948 45.6667 40.1933 45.6667 40.5614V45.8071C45.6667 45.8085 45.6668 45.81 45.6668 45.8115C45.6668 45.813 45.6667 45.8145 45.6667 45.8159C45.6667 46.1793 45.9613 46.4738 46.3246 46.4738H51.6755C52.0389 46.4738 52.3334 46.1793 52.3334 45.8159C52.3334 45.4526 52.0389 45.158 51.6755 45.158H47.0001V40.5614C47.0001 40.1933 46.7016 39.8948 46.3334 39.8948Z" fill="#F3EAD4"/>
<path d="M45.6668 45.8115L46.6668 45.8181L46.6667 45.805L45.6668 45.8115ZM47.0001 45.158H46.0001V46.158H47.0001V45.158ZM46.6667 40.5614C46.6667 40.7455 46.5175 40.8948 46.3334 40.8948V38.8948C45.4129 38.8948 44.6667 39.641 44.6667 40.5614H46.6667ZM46.6667 45.8071V40.5614H44.6667V45.8071H46.6667ZM46.6667 45.805C46.6667 45.8057 46.6667 45.8064 46.6667 45.8071H44.6667C44.6667 45.8107 44.6668 45.8144 44.6668 45.8181L46.6667 45.805ZM46.6667 45.8159C46.6667 45.8167 46.6667 45.8174 46.6667 45.8181L44.6668 45.8049C44.6668 45.8086 44.6667 45.8123 44.6667 45.8159H46.6667ZM46.3246 45.4738C46.5136 45.4738 46.6667 45.627 46.6667 45.8159H44.6667C44.6667 46.7316 45.409 47.4738 46.3246 47.4738V45.4738ZM51.6755 45.4738H46.3246V47.4738H51.6755V45.4738ZM51.3334 45.8159C51.3334 45.627 51.4866 45.4738 51.6755 45.4738V47.4738C52.5911 47.4738 53.3334 46.7316 53.3334 45.8159H51.3334ZM51.6755 46.158C51.4866 46.158 51.3334 46.0049 51.3334 45.8159H53.3334C53.3334 44.9003 52.5911 44.158 51.6755 44.158V46.158ZM47.0001 46.158H51.6755V44.158H47.0001V46.158ZM46.0001 40.5614V45.158H48.0001V40.5614H46.0001ZM46.3334 40.8948C46.1493 40.8948 46.0001 40.7455 46.0001 40.5614H48.0001C48.0001 39.641 47.2539 38.8948 46.3334 38.8948V40.8948Z" fill="#1A1A1A" mask="url(#path-7-outside-2_798_152520)"/>
<rect x="14.384" y="25.2273" width="6.85908" height="5.64773" fill="#F3EAD4" stroke="#1A1A1A"/>
<rect x="14.384" y="35.1987" width="6.85908" height="5.64773" fill="#F3EAD4" stroke="#1A1A1A"/>
<rect x="25.6113" y="25.2273" width="6.85908" height="5.64773" fill="#F3EAD4" stroke="#1A1A1A"/>
<rect x="36.8386" y="25.2273" width="6.85908" height="5.64773" fill="#F3EAD4" stroke="#1A1A1A"/>
<rect x="25.6113" y="35.1987" width="6.85908" height="5.64773" fill="#F3EAD4" stroke="#1A1A1A"/>
</svg>
