<svg width="63" height="63" viewBox="0 0 63 63" fill="none" xmlns="http://www.w3.org/2000/svg">
<g clip-path="url(#clip0_798_152586)">
<path d="M59.8589 16.4399L59.8589 16.4399L35.8241 35.9943C35.8238 35.9945 35.8235 35.9947 35.8233 35.9949C35.4321 36.3112 34.9816 36.5451 34.4981 36.6831C34.0143 36.8211 33.507 36.8604 33.0056 36.7987C33.0054 36.7986 33.0053 36.7986 33.0051 36.7986L2.14306 32.9073L2.14299 32.9073C2.14302 32.9073 2.14006 32.9069 2.13378 32.9055C2.12757 32.9042 2.11926 32.9021 2.10873 32.899C2.0873 32.8928 2.06083 32.8837 2.02968 32.8714C1.96678 32.8465 1.89727 32.8137 1.82939 32.7787C1.76235 32.7441 1.70211 32.7101 1.65856 32.6846C1.64624 32.6774 1.63539 32.6709 1.62624 32.6654C1.50898 32.5569 1.4206 32.4199 1.36991 32.2674C1.36866 32.2566 1.36723 32.2438 1.36571 32.2293C1.36043 32.1789 1.35423 32.1098 1.35033 32.0342C1.34127 31.8583 1.35023 31.7327 1.36277 31.692C1.41663 31.517 1.52039 31.3633 1.66026 31.2496L1.66032 31.2495L25.6954 11.6949C25.6955 11.6948 25.6957 11.6947 25.6958 11.6946C26.0867 11.3778 26.5373 11.1437 27.0209 11.0057C27.5045 10.8677 28.0117 10.8286 28.5129 10.8907C28.5132 10.8907 28.5134 10.8908 28.5137 10.8908L59.3761 14.7821L59.3762 14.7821C59.5558 14.8048 59.7263 14.8802 59.8659 14.9999C60.0057 15.1197 60.1081 15.2784 60.1599 15.4563C60.2117 15.6341 60.2103 15.8224 60.1564 15.9975C60.1026 16.1724 59.9988 16.3261 59.8589 16.4399ZM54.1929 40.0334L54.1945 40.0388C54.3829 40.6598 54.4079 41.3176 54.2672 41.9473C54.1269 42.5755 53.8267 43.1538 53.3966 43.626C49.4793 47.7627 44.5295 50.7658 39.0538 52.3281C33.5782 53.8904 27.7729 53.956 22.2322 52.5178C21.6142 52.3446 21.0491 52.0132 20.5925 51.5553C20.1349 51.0963 19.8023 50.5263 19.6279 49.9013L19.6279 49.9013L19.6263 49.8959L16.3332 38.5869L32.5602 40.6322L32.561 40.6323C33.5757 40.7585 34.6033 40.6795 35.5833 40.3999C36.5634 40.1203 37.4758 39.6457 38.2669 39.0043L38.2676 39.0038L50.8998 28.7245L54.1929 40.0334Z" fill="#A6CC9E" stroke="#1A1A1A"/>
</g>
<defs>
<clipPath id="clip0_798_152586">
<rect width="61" height="44" fill="white" transform="translate(0 10)"/>
</clipPath>
</defs>
</svg>
