<svg width="63" height="63" viewBox="0 0 63 63" fill="none" xmlns="http://www.w3.org/2000/svg">
<path d="M10.2312 43.3624L10.2312 43.3624L10.2331 43.3606L14.5688 39.0617V53.9779C14.5688 54.263 14.332 54.4997 14.0383 54.4997H6.89491C6.59691 54.4997 6.36438 54.2588 6.36438 53.9779V45.2677C7.81634 45.0685 9.15926 44.414 10.2312 43.3624Z" fill="#8BB4C8" stroke="#1A1A1A"/>
<path d="M19.1289 53.9783V38.946L23.1836 42.9662C24.3076 44.0806 25.7644 44.7511 27.3334 44.8947V53.9783C27.3334 54.2634 27.0966 54.5001 26.8028 54.5001H19.6594C19.3614 54.5001 19.1289 54.2591 19.1289 53.9783Z" fill="#8BB4C8" stroke="#1A1A1A"/>
<path d="M31.8936 53.9783V43.6795C32.1992 43.4665 32.4897 43.2269 32.7644 42.9546L40.098 35.6833V53.9783C40.098 54.2634 39.8612 54.5001 39.5675 54.5001H32.4241C32.1261 54.5001 31.8936 54.2591 31.8936 53.9783Z" fill="#8BB4C8" stroke="#1A1A1A"/>
<path d="M44.6577 53.9782V31.1503L52.6776 23.1985C52.733 23.25 52.7952 23.3073 52.8622 23.3671V53.9782C52.8622 54.2633 52.6254 54.5 52.3317 54.5H45.1882C44.8902 54.5 44.6577 54.259 44.6577 53.9782Z" fill="#8BB4C8" stroke="#1A1A1A"/>
<path d="M58.1513 7.88885L58.1512 7.8889L58.1573 7.89514C58.3913 8.13462 58.5263 8.50077 58.4958 9.08716L58.4956 9.08956L58.3434 12.305L58.3434 12.3058L58.3288 12.6029C58.2283 14.6501 58.1283 16.6887 58.0389 18.7275C58.0169 19.1948 57.9308 19.6704 57.5657 20.0324C57.4658 20.1314 57.3425 20.2211 57.1859 20.3088C56.9703 20.424 56.7826 20.468 56.6061 20.468C56.1928 20.468 55.9072 20.2095 55.588 19.8931L55.5872 19.8923L53.0226 17.3611L52.6706 17.0137L52.3194 17.3619L29.6516 39.8371C29.651 39.8376 29.6504 39.8382 29.6498 39.8388C29.1894 40.2848 28.5994 40.5319 27.9622 40.5319C27.3212 40.5319 26.7217 40.2821 26.2766 39.8408L17.2478 30.8887L16.8958 30.5397L16.5437 30.8887L7.09335 40.2588C6.64676 40.7016 6.05833 40.9499 5.41947 40.9499C4.77845 40.9499 4.17893 40.7001 3.73388 40.2588L3.38184 40.6139L3.73388 40.2588L3.1952 39.7247C2.26832 38.8057 2.26827 37.325 3.19503 36.406C3.19508 36.4059 3.19514 36.4059 3.1952 36.4058L15.2217 24.4931L15.2219 24.4929C15.6685 24.0501 16.2569 23.8019 16.8958 23.8019C17.5368 23.8019 18.1363 24.0516 18.5814 24.4929L27.6102 33.445L27.9623 33.7942L28.3144 33.4449L48.4096 13.5088L48.7711 13.1501L48.4059 12.7952C47.8228 12.2286 47.2396 11.6505 46.6682 11.0723L46.6671 11.0712L45.8357 10.2352L45.8332 10.2327C45.6659 10.0669 45.477 9.87381 45.3675 9.62638C45.2698 9.40557 45.2263 9.12117 45.4075 8.73205L45.4075 8.73207L45.4104 8.72556C45.4817 8.56651 45.5653 8.44504 45.6692 8.342C45.9959 8.01811 46.4093 7.9882 46.8756 7.96385C48.5384 7.88838 50.1982 7.81001 51.8575 7.73167L51.8577 7.73166C53.514 7.65346 55.1697 7.57529 56.8283 7.5H56.8284H56.8287H56.8291H56.8294H56.8298H56.8301H56.8305H56.8308H56.8312H56.8316H56.8319H56.8323H56.8326H56.833H56.8333H56.8337H56.834H56.8344H56.8347H56.8351H56.8355H56.8358H56.8362H56.8365H56.8369H56.8372H56.8376H56.838H56.8383H56.8387H56.839H56.8394H56.8397H56.8401H56.8405H56.8408H56.8412H56.8415H56.8419H56.8423H56.8426H56.843H56.8433H56.8437H56.8441H56.8444H56.8448H56.8451H56.8455H56.8459H56.8462H56.8466H56.8469H56.8473H56.8477H56.848H56.8484H56.8488H56.8491H56.8495H56.8498H56.8502H56.8506H56.8509H56.8513H56.8517H56.852H56.8524H56.8528H56.8531H56.8535H56.8539H56.8542H56.8546H56.8549H56.8553H56.8557H56.856H56.8564H56.8568H56.8571H56.8575H56.8579H56.8582H56.8586H56.859H56.8594H56.8597H56.8601H56.8605H56.8608H56.8612H56.8616H56.8619H56.8623H56.8627H56.863H56.8634H56.8638H56.8641H56.8645H56.8649H56.8652H56.8656H56.866H56.8664H56.8667H56.8671H56.8675H56.8678H56.8682H56.8686H56.869H56.8693H56.8697H56.8701H56.8704H56.8708H56.8712H56.8716H56.8719H56.8723H56.8727H56.873H56.8734H56.8738H56.8742H56.8745H56.8749H56.8753H56.8756H56.876H56.8764H56.8768H56.8771H56.8775H56.8779H56.8783H56.8786H56.879H56.8794H56.8798H56.8801H56.8805H56.8809H56.8813H56.8816H56.882H56.8824H56.8827H56.8831H56.8835H56.8839H56.8842H56.8846H56.885H56.8854H56.8857H56.8861H56.8865H56.8869H56.8872H56.8876H56.888H56.8884H56.8888H56.8891H56.8895H56.8899H56.8903H56.8906H56.891H56.8914H56.8918H56.8921H56.8925H56.8929H56.8933H56.8936H56.894H56.8944H56.8948H56.8951H56.8955H56.8959H56.8963H56.8966H56.897H56.8974H56.8978H56.8982H56.8985H56.8989H56.8993H56.8997H56.9H56.9004H56.9008H56.9012H56.9016H56.9019H56.9023H56.9027H56.9031H56.9034H56.9038H56.9042H56.9046H56.9049H56.9053H56.9057H56.9061H56.9065H56.9068H56.9072H56.9076H56.908H56.9083H56.9087H56.9091H56.9095H56.9099H56.9102H56.9106H56.911H56.9114H56.9117H56.9121H56.9125H56.9129H56.9132H56.9136H56.914H56.9144H56.9148H56.9151H56.9155H56.9159H56.9163H56.9166H56.917H56.9174H56.9178H56.9182H56.9185H56.9189H56.9193H56.9197H56.92H56.9204H56.9208H56.9212H56.9215H56.9219H56.9223H56.9227H56.9231H56.9234H56.9238H56.9242H56.9246H56.9249H56.9253H56.9257H56.9261H56.9264H56.9268H56.9272H56.9276H56.9279H56.9283H56.9287H56.9291H56.9295H56.9298H56.9302H56.9306H56.931H56.9313H56.9317H56.9321H56.9325H56.9328H56.9332H56.9336H56.934H56.9343H56.9347H56.9351H56.9355H56.9358H56.9362H56.9366H56.937H56.9373H56.9377H56.9381H56.9385H56.9388H56.9392H56.9396H56.94H56.9403H56.9407H56.9411H56.9415H56.9418H56.9422H56.9426H56.943H56.9433H56.9437H56.9441H56.9444H56.9448H56.9452H56.9456H56.9459H56.9463H56.9467H56.9471H56.9474H56.9478H56.9482H56.9485H56.9489H56.9493H56.9497H56.95H56.9504H56.9508H56.9511H56.9515H56.9519H56.9523H56.9526H56.953H56.9534H56.9537H56.9541H56.9545H56.9548H56.9552H56.9556H56.956H56.9563H56.9567H56.9571H56.9574H56.9578H56.9582H56.9585H56.9589H56.9593H56.9597H56.96H56.9604H56.9608H56.9611H56.9615H56.9619H56.9622H56.9626H56.963H56.9633H56.9637H56.9641H56.9644H56.9648H56.9652H56.9655H56.9659H56.9663H56.9666H56.967H56.9674H56.9677H56.9681H56.9685H56.9688H56.9692H56.9695H56.9699H56.9703H56.9706H56.971H56.9714H56.9717H56.9721H56.9725H56.9728H56.9732H56.9735H56.9739H56.9743H56.9746H56.975H56.9754H56.9757H56.9761H56.9764H56.9768H56.9772H56.9775H56.9779H56.9782H56.9786H56.979H56.9793H56.9797H56.98H56.9804H56.9808H56.9811H56.9815H56.9818H56.9822H56.9825H56.9829H56.9833H56.9836H56.984H56.9843H56.9847H56.985H56.9854H56.9858H56.9861H56.9865H56.9868H56.9872H56.9875H56.9879H56.9882H56.9886H56.9889H56.9893H56.9897H56.99H56.9904H56.9907H56.9911H56.9914H56.9918H56.9921H56.9925H56.9928H56.9932H56.9935H56.9939H56.9942H56.9946H56.9949H56.9953H56.9956H56.996H56.9963H56.9967H56.997H56.9974H56.9977H56.9981H56.9984H56.9988H56.9991H56.9995H56.9998H57.0002H57.0005H57.0008H57.0012H57.0015H57.0019H57.0022H57.0026H57.0029H57.0033H57.0036H57.0039H57.0043C57.5696 7.5 57.9342 7.65882 58.1513 7.88885Z" fill="#8BB4C8" stroke="#1A1A1A"/>
</svg>
