<svg width="63" height="63" viewBox="0 0 63 63" fill="none" xmlns="http://www.w3.org/2000/svg">
<path d="M16.1551 10.1023L20.094 10.1023V10.8308V10.8314C20.0983 14.5025 23.0756 17.4765 26.7484 17.4807H26.7489H35.251H35.2516C38.9245 17.4765 41.9013 14.5024 41.9055 10.8314V10.8308V10.1023L45.8445 10.1023C45.8446 10.1023 45.8447 10.1023 45.8449 10.1023C47.4205 10.1044 48.6961 11.3797 48.6979 12.9533V52.8492C48.6964 54.4228 47.4203 55.6985 45.8446 55.7H16.155C14.5799 55.6985 13.304 54.423 13.3021 52.8492C13.3021 52.8492 13.3021 52.8491 13.3021 52.849V12.9533C13.3021 12.9532 13.3021 12.9531 13.3021 12.9531C13.304 11.3795 14.5796 10.1044 16.1547 10.1023C16.1548 10.1023 16.155 10.1023 16.1551 10.1023ZM28.0315 8.60989L28.0315 8.60979C28.3227 7.28503 29.5643 6.3 31.0002 6.3C32.436 6.3 33.6771 7.28484 33.9684 8.60957C34.1598 9.48212 34.9326 10.1023 35.8255 10.1023H38.1035V10.8302C38.1016 12.4035 36.8258 13.6789 35.2505 13.6807H26.7495C25.1737 13.6789 23.898 12.4035 23.8961 10.8302V10.1023H26.175C27.0672 10.1023 27.8396 9.48192 28.0315 8.60989Z" fill="#A6CC9E" stroke="#1A1A1A"/>
<path fill-rule="evenodd" clip-rule="evenodd" d="M43.9371 24.6205C44.865 25.5117 44.8878 26.9886 43.9879 27.9081L30.6157 41.5708C29.2176 42.9994 26.9183 42.9994 25.5201 41.5708L19.9736 35.9038C19.0685 34.979 19.0526 33.5054 19.9376 32.5614C20.8847 31.551 22.4856 31.5418 23.4442 32.5413L27.6374 36.9135C27.8735 37.1596 28.2659 37.1631 28.5063 36.9212L40.6927 24.6583C41.5828 23.7627 43.0265 23.7459 43.9371 24.6205Z" fill="#F3EAD4" stroke="#1A1A1A"/>
</svg>
