<svg width="258" height="295" viewBox="0 0 258 295" fill="none" xmlns="http://www.w3.org/2000/svg">
<path d="M144.187 289.376L15.8307 234.784C8.53402 231.68 5.18312 223.18 8.35398 215.816L95.5439 13.3436C98.7148 5.9802 107.216 2.52049 114.513 5.62389L242.869 60.2163C250.166 63.3197 253.517 71.8203 250.346 79.1837L163.156 281.656C159.985 289.02 151.484 292.48 144.187 289.376Z" fill="#F3EAD4" stroke="#141414" stroke-width="2.25715" stroke-miterlimit="10"/>
<path d="M23.1148 222.057C22.0283 221.596 21.5292 220.324 22.0032 219.225L107.509 20.9604C107.983 19.8612 109.255 19.3416 110.341 19.803L235.606 72.9997C236.693 73.4611 237.192 74.7327 236.718 75.8319L151.23 274.056C150.756 275.155 149.484 275.675 148.398 275.213L23.1323 222.017L23.1148 222.057Z" fill="#F3EAD4"/>
<path d="M235.182 73.8772C235.786 74.1335 236.058 74.8272 235.795 75.4379L150.304 273.665C150.041 274.276 149.347 274.559 148.744 274.303L23.4754 221.105C22.8718 220.849 22.5995 220.155 22.8629 219.545L108.353 21.3172C108.617 20.7065 109.31 20.4231 109.914 20.6794L235.182 73.8772ZM235.972 72.0451L110.704 18.8474C109.094 18.1638 107.245 18.9197 106.542 20.5482L21.0521 218.776C20.3497 220.404 21.0757 222.254 22.6853 222.937L147.953 276.135C149.563 276.819 151.413 276.063 152.115 274.434L237.605 76.2069C238.348 74.5955 237.582 72.7287 235.972 72.0451Z" fill="#141414"/>
<path d="M233.606 75.4285L148.787 272.102L25.0939 219.572L109.913 22.8986L233.606 75.4285ZM235.178 73.8804L109.916 20.6841C109.312 20.4278 108.618 20.7112 108.355 21.3219L22.869 219.542C22.6056 220.153 22.8779 220.847 23.4815 221.103L148.744 274.299C149.348 274.556 150.041 274.272 150.305 273.662L235.791 75.441C236.054 74.8304 235.782 74.1368 235.178 73.8804Z" fill="#F15A24"/>
<path d="M107.864 174.933C101.507 171.391 96.6189 163.778 98.7789 156.698L96.8008 152.136C96.0569 150.436 96.9165 148.371 98.9385 147.847C99.9288 147.576 100.879 147.832 101.737 148.567C101.915 148.722 102.155 148.904 102.35 148.472L106.86 138.39C107.092 137.875 107.08 137.299 106.829 136.814L103.549 130.25C102.88 128.932 103.242 127.311 104.399 126.396C105.321 125.673 106.549 125.534 107.629 125.997C108.329 126.313 108.468 125.732 107.808 124.888C106.948 123.83 106.038 122.552 105.516 121.349C103.241 116.181 102.616 112.081 104.487 107.945C106.571 103.335 111.69 103.913 116.178 105.941C120.768 108.016 124.968 111.228 127.432 113.457C127.924 113.903 128.693 113.903 129.191 113.459C130.647 112.159 131.701 111.198 132.306 110.628C135.181 107.888 139.94 105.973 144.098 107.853C144.592 108.076 151.864 112.007 148.303 121.527C148.009 122.286 147.332 124.112 146.337 126.86C146.055 127.649 146.322 128.539 147.019 129.027C150.542 131.487 159.42 137.953 160.173 144.292C160.687 148.639 154.889 153.182 150.65 153.893C148.54 154.229 146.296 153.983 144.007 153.122C143.474 152.93 142.869 153.227 142.76 153.797C142.551 154.917 142.138 155.995 141.549 156.968C140.383 158.944 138.621 160.428 136.53 161.268C135.983 161.492 135.512 161.874 135.156 162.333C134.446 163.301 133.872 164.132 133.267 164.974C132.883 165.495 133.015 166.025 134.06 166.621C135.363 167.359 135.81 168.726 135.449 170.074C135.087 171.423 133.92 172.358 132.537 172.402L129.558 172.518C128.569 172.567 127.635 172.988 126.925 173.683C125.066 175.545 122.404 176.771 119.234 177.147C113.123 177.831 108.494 175.292 107.864 174.933Z" fill="#F3EAD4"/>
<path d="M109.386 172.225C104.311 169.411 99.4064 162.658 102.161 156.566L114.427 129.168C118.228 122.682 128.211 121.493 134.658 125.275L135.486 125.748C141.953 129.538 146.913 139.514 143.112 146C143.112 146 128.42 166.154 125.447 170.536C122.444 174.929 114.44 175.03 109.386 172.225Z" fill="#6FA467"/>
<path d="M110.209 173.093C109.859 172.934 109.518 172.756 109.178 172.577C103.534 169.431 99.0715 162.358 101.791 156.399L114.056 129.001C114.066 128.98 114.066 128.98 114.075 128.96C115.923 125.804 119.268 123.672 123.477 122.972C127.454 122.291 131.608 123.028 134.867 124.923L135.695 125.396C138.965 127.32 141.902 130.804 143.531 134.713C145.306 139.01 145.294 143.095 143.465 146.209C143.455 146.229 143.455 146.229 143.446 146.25C143.302 146.458 128.715 166.436 125.781 170.786C122.833 175.056 115.458 175.465 110.209 173.093ZM114.768 129.347L102.511 156.725C99.7475 162.837 105.078 169.361 109.554 171.855C109.853 172.015 110.173 172.184 110.482 172.324C115.361 174.529 122.396 174.214 125.054 170.309C127.96 166.021 142.24 146.449 142.72 145.773C146.312 139.638 141.601 129.825 135.236 126.081L134.409 125.608C128.437 122.091 118.552 122.952 114.768 129.347Z" fill="#141414"/>
<path d="M113.101 134.568L106.327 128.879L111.689 139.556" fill="#6FA467"/>
<path d="M111.521 139.926C111.439 139.889 111.366 139.831 111.332 139.742L105.98 129.044C105.882 128.876 105.934 128.651 106.081 128.544C106.229 128.438 106.451 128.439 106.597 128.555L113.392 134.253C113.57 134.408 113.58 134.66 113.435 134.817C113.28 134.995 113.027 135.005 112.87 134.86L107.581 130.437L112.066 139.379C112.175 139.577 112.084 139.833 111.895 139.922C111.746 139.978 111.624 139.973 111.521 139.926Z" fill="#141414"/>
<path d="M106.663 157.138L99.665 150.902L103.388 159.5" fill="#6FA467"/>
<path d="M103.221 159.871C103.139 159.834 103.055 159.746 103.021 159.657L99.2975 151.058C99.2299 150.879 99.2725 150.675 99.42 150.568C99.5675 150.461 99.79 150.463 99.9267 150.599L106.925 156.835C107.082 156.981 107.112 157.243 106.958 157.42C106.812 157.578 106.55 157.608 106.372 157.453L100.748 152.457L103.748 159.365C103.827 159.575 103.745 159.81 103.536 159.889C103.446 159.923 103.324 159.918 103.221 159.871Z" fill="#141414"/>
<path d="M124.661 169.536L132.365 169.275L125.871 165.324" fill="#6FA467"/>
<path d="M124.493 169.906C124.348 169.841 124.262 169.703 124.256 169.552C124.258 169.329 124.422 169.131 124.644 169.132L130.995 168.904L125.671 165.655C125.475 165.541 125.414 165.291 125.528 165.095C125.642 164.898 125.892 164.838 126.089 164.951L132.562 168.893C132.717 168.988 132.785 169.168 132.752 169.351C132.719 169.534 132.541 169.652 132.369 169.649L124.665 169.91C124.616 169.962 124.554 169.934 124.493 169.906Z" fill="#141414"/>
<path d="M116.931 152.36C120.478 153.963 124.654 152.388 126.257 148.842C127.861 145.296 126.285 141.121 122.738 139.518C119.191 137.915 115.015 139.49 113.412 143.036C111.808 146.582 113.384 150.757 116.931 152.36Z" fill="#F3EAD4"/>
<path d="M116.763 152.731C116.516 152.619 116.299 152.496 116.061 152.364C114.333 151.36 113.128 149.749 112.617 147.808C112.127 145.876 112.392 143.864 113.408 142.167C115.483 138.619 120.058 137.439 123.607 139.514C125.335 140.518 126.541 142.129 127.051 144.07C127.562 146.011 127.276 148.014 126.261 149.711C124.317 153.022 120.201 154.284 116.763 152.731ZM122.57 139.888C119.524 138.511 115.846 139.625 114.121 142.564C113.23 144.094 112.967 145.884 113.408 147.595C113.849 149.306 114.936 150.74 116.458 151.651C119.614 153.499 123.688 152.44 125.536 149.285C126.427 147.754 126.69 145.964 126.249 144.253C125.808 142.542 124.721 141.108 123.199 140.197C122.993 140.104 122.776 139.981 122.57 139.888Z" fill="#141414"/>
<path d="M129.82 158.235C133.367 159.839 137.542 158.263 139.146 154.717C140.75 151.171 139.174 146.996 135.627 145.393C132.08 143.79 127.904 145.365 126.3 148.911C124.697 152.458 126.272 156.632 129.82 158.235Z" fill="#F3EAD4"/>
<path d="M129.673 158.615C129.426 158.503 129.188 158.371 128.951 158.239C125.401 156.164 124.222 151.59 126.297 148.042C127.301 146.315 128.912 145.11 130.854 144.599C132.786 144.109 134.799 144.374 136.497 145.389C140.046 147.464 141.226 152.038 139.15 155.586C138.146 157.314 136.535 158.519 134.593 159.029C132.941 159.448 131.217 159.313 129.673 158.615ZM135.439 145.754C134.06 145.131 132.528 145.009 131.046 145.38C129.335 145.821 127.901 146.908 126.99 148.429C125.141 151.585 126.201 155.657 129.357 157.505C130.888 158.396 132.678 158.659 134.389 158.218C136.101 157.778 137.535 156.69 138.446 155.169C140.294 152.014 139.235 147.941 136.079 146.093C135.883 145.979 135.666 145.857 135.439 145.754Z" fill="#141414"/>
<path d="M117.345 146.128C116.796 145.805 116.636 145.064 117.02 144.543C117.355 144.075 118.01 143.999 118.506 144.273L122.976 146.888C123.017 146.907 123.077 146.884 123.095 146.843C123.88 144.669 122.953 142.168 120.767 141.081C118.675 140.061 116.064 140.79 114.806 142.749C113.377 144.979 114.099 147.932 116.366 149.279C118.105 150.313 120.258 150.047 121.727 148.827C121.766 148.795 121.774 148.724 121.712 148.696L117.345 146.128Z" fill="#141414"/>
<path d="M130.133 152.006C129.584 151.684 129.424 150.942 129.808 150.422C130.143 149.954 130.798 149.878 131.294 150.151L135.919 152.862C135.96 152.88 136.011 152.878 136.009 152.828C136.823 150.643 135.906 148.121 133.72 147.034C131.637 145.993 129.017 146.743 127.759 148.702C126.329 150.932 127.051 153.885 129.318 155.232C131.057 156.266 133.201 156.021 134.65 154.791C134.689 154.759 134.687 154.709 134.625 154.681L130.133 152.006Z" fill="#141414"/>
<path d="M122.048 142.032C118.696 140.07 117.641 139.717 117.184 139.412C119.07 138.529 121.651 138.853 123.4 139.866C125.417 141.051 126.635 143.237 126.788 144.818C126.125 144.42 123.746 143.047 122.048 142.032Z" fill="#8BB4C8"/>
<path d="M126.62 145.189C126.599 145.18 126.579 145.17 126.579 145.17C126.092 144.876 124.705 144.051 123.35 143.265C122.822 142.952 122.315 142.648 121.839 142.384C119.51 141.009 118.285 140.43 117.615 140.102C117.306 139.963 117.109 139.849 116.954 139.754C116.819 139.668 116.753 139.54 116.768 139.398C116.783 139.255 116.868 139.121 116.997 139.055C118.884 138.173 121.601 138.36 123.598 139.535C125.854 140.852 127.048 143.201 127.191 144.803C127.197 144.954 127.132 145.098 126.994 145.184C126.895 145.239 126.744 145.245 126.62 145.189ZM118.217 139.482C118.928 139.829 120.145 140.428 122.256 141.68C122.723 141.965 123.26 142.257 123.767 142.561C124.647 143.083 125.568 143.623 126.219 143.991C125.824 142.673 124.763 141.127 123.2 140.198C121.741 139.365 119.78 139.098 118.217 139.482Z" fill="#141414"/>
<path d="M134.05 147.506C130.335 146.348 129.338 146.195 128.836 146.042C130.251 144.723 132.795 144.634 134.758 145.174C136.986 145.785 138.767 147.383 139.263 149.193C138.505 148.95 135.964 148.099 134.05 147.506Z" fill="#8BB4C8"/>
<path d="M128.669 146.413C128.545 146.357 128.47 146.249 128.446 146.139C128.41 145.998 128.455 145.845 128.572 145.749C130.114 144.314 132.86 144.217 134.884 144.785C137.245 145.431 139.131 147.126 139.653 149.097C139.689 149.237 139.645 149.391 139.548 149.495C139.451 149.6 139.29 149.627 139.136 149.582C138.379 149.339 135.838 148.488 133.945 147.905C131.396 147.125 130.13 146.801 129.436 146.636C129.099 146.558 128.905 146.495 128.71 146.431C128.69 146.422 128.69 146.422 128.669 146.413ZM135.657 145.928C135.328 145.779 134.989 145.65 134.632 145.563C133.088 145.138 131.116 145.114 129.75 145.885C130.486 146.069 131.752 146.393 134.167 147.138C135.6 147.587 137.443 148.173 138.56 148.553C138.012 147.463 136.954 146.514 135.657 145.928Z" fill="#141414"/>
<path d="M115.915 159.486C115.647 159.365 115.389 159.224 115.108 159.022C113.122 157.604 113.72 155.074 114.333 153.938C114.447 153.741 114.677 153.672 114.883 153.765C115.079 153.878 115.149 154.108 115.056 154.314C115.009 154.417 113.665 157.006 115.578 158.367C118.001 160.082 120.038 157.879 120.126 157.795C120.271 157.638 120.533 157.607 120.711 157.762C120.868 157.908 120.899 158.169 120.744 158.347C120.714 158.358 118.571 160.686 115.915 159.486Z" fill="#141414"/>
<path d="M118.256 123.934C118.256 123.934 123.534 126.245 127.687 131.096C130.642 134.539 131.722 136.812 131.991 138.52C130.241 136.415 128.253 133.682 125.208 131.315C118.908 126.385 114.799 128.345 114.799 128.345L118.256 123.934Z" fill="#141414"/>
<path d="M139.414 136.471C139.414 136.471 144.341 123.107 145.319 120.451C146.297 117.795 146.4 113.181 143.603 111.198C140.805 109.215 136.865 110.582 134.398 112.912C131.931 115.242 123.64 122.501 123.64 122.501L139.414 136.471Z" fill="#8BB4C8"/>
<path d="M139.246 136.842C139.205 136.823 139.164 136.804 139.153 136.775L123.37 122.825C123.286 122.737 123.231 122.638 123.237 122.517C123.242 122.395 123.289 122.292 123.376 122.208C123.455 122.144 131.736 114.907 134.134 112.619C136.707 110.164 140.879 108.778 143.823 110.876C146.828 113.003 146.724 117.839 145.699 120.598C144.71 123.224 139.829 136.485 139.794 136.618C139.738 136.742 139.641 136.846 139.51 136.862C139.43 136.875 139.329 136.879 139.246 136.842ZM124.258 122.507L139.255 135.78C140.187 133.227 144.09 122.622 144.969 120.293C145.912 117.769 146.034 113.388 143.383 111.52C140.773 109.671 137.042 110.959 134.692 113.194C132.557 115.228 125.852 121.121 124.258 122.507Z" fill="#141414"/>
<path d="M142.047 129.332L139.727 134.902C139.727 134.902 141.784 139.673 147.307 143.632C150.397 145.847 152.178 146.404 153.001 146.503C153.815 146.623 157.369 147.535 157.002 144.618C156.73 142.314 154.768 139.196 150.621 135.81C147.059 132.887 142.047 129.332 142.047 129.332Z" fill="#4C8BAA"/>
<path d="M150.899 146.272C149.932 145.835 148.67 145.116 147.079 143.975C141.544 139.986 139.438 135.267 139.359 135.058C139.305 134.959 139.31 134.838 139.357 134.735L141.677 129.165C141.723 129.062 141.82 128.957 141.931 128.933C142.05 128.888 142.183 128.923 142.277 128.99C142.329 129.039 147.342 132.593 150.883 135.507C154.769 138.702 157.1 141.936 157.416 144.582C157.53 145.427 157.333 146.082 156.855 146.535C155.9 147.442 154.087 147.118 153.212 146.97C153.1 146.944 153.008 146.928 152.937 146.92C152.54 146.865 151.867 146.71 150.899 146.272ZM140.172 134.905C140.568 135.728 142.742 139.859 147.549 143.32C150.732 145.602 152.468 146.039 153.047 146.128C153.118 146.135 153.231 146.161 153.352 146.166C154.044 146.281 155.623 146.573 156.297 145.96C156.569 145.687 156.675 145.288 156.601 144.685C156.424 143.266 155.386 140.244 150.352 136.135C147.417 133.742 143.462 130.864 142.213 129.953L140.172 134.905Z" fill="#141414"/>
<path d="M121.718 112.882C115.481 108.527 111.251 106.862 108.57 107.856C107.045 108.432 105.38 112.388 108.408 120.276C109.496 120.173 113.14 121.051 116.771 123.659C129.576 132.843 133.878 142.793 140.737 147.802C144.443 150.518 151.191 153.741 156.358 146.484C156.358 146.484 153.905 147.631 148.203 144.285C139.469 139.148 134.4 121.737 121.718 112.882Z" fill="#8BB4C8"/>
<path d="M143.934 150.164C142.616 149.568 141.444 148.815 140.476 148.105C137.572 145.974 135.13 142.987 132.316 139.559C128.376 134.729 123.926 129.273 116.53 123.972C113.025 121.47 109.482 120.588 108.433 120.659C108.252 120.676 108.076 120.572 108.029 120.402C105.461 113.689 106.398 110.246 106.929 109.073C107.301 108.25 107.835 107.673 108.432 107.447C111.203 106.419 115.512 108.02 121.957 112.519C128.776 117.287 133.426 124.494 137.528 130.884C141.219 136.593 144.385 141.544 148.389 143.874C153.781 147.029 156.149 146.067 156.179 146.056C156.338 145.979 156.542 146.022 156.649 146.169C156.756 146.317 156.773 146.498 156.678 146.653C154.847 149.222 152.672 150.742 150.16 151.143C147.971 151.542 145.828 151.019 143.934 150.164ZM113.297 121.197C114.471 121.727 115.721 122.416 116.97 123.328C124.46 128.696 128.942 134.192 132.913 139.06C135.686 142.47 138.096 145.418 140.937 147.47C143.195 149.111 146.594 150.969 150 150.402C152.009 150.07 153.805 148.949 155.359 147.048C154.087 147.118 151.679 146.798 147.953 144.619C143.803 142.173 140.564 137.164 136.839 131.366C132.78 125.045 128.153 117.897 121.469 113.215C115.273 108.878 111.197 107.309 108.696 108.236C108.307 108.382 107.94 108.811 107.661 109.429C107.177 110.499 106.338 113.615 108.665 119.872C109.576 119.887 111.301 120.294 113.297 121.197Z" fill="#141414"/>
<path d="M114.501 127.963C110.001 123.276 108.386 120.267 108.386 120.267C108.386 120.267 113.46 120.725 118.133 124.647C116.667 125.422 115.32 126.92 114.501 127.963Z" fill="#4C8BAA"/>
<path d="M114.334 128.333C114.293 128.315 114.252 128.296 114.199 128.247C109.689 123.582 108.066 120.592 108 120.464C107.935 120.335 107.938 120.163 108.014 120.049C108.091 119.934 108.25 119.857 108.392 119.872C108.605 119.894 113.66 120.394 118.344 124.345C118.449 124.442 118.494 124.562 118.479 124.704C118.465 124.846 118.388 124.96 118.259 125.026C116.802 125.78 115.469 127.359 114.775 128.235C114.708 128.329 114.588 128.374 114.478 128.398C114.467 128.368 114.396 128.361 114.334 128.333ZM109.186 120.801C109.897 121.916 111.545 124.247 114.478 127.357C115.25 126.417 116.269 125.316 117.413 124.594C114.138 122.023 110.715 121.095 109.186 120.801Z" fill="#141414"/>
<path d="M91.9192 105.09L92.2381 104.713L93.7666 106.049L90.5711 109.661L89.0428 108.326L89.5371 107.781L88.6685 107.289L87.5549 108.546L88.1623 109.341L88.6566 108.796L90.1851 110.131L87.3963 113.282L85.8679 111.947L86.1868 111.571L81.8955 104.996L84.8578 101.626L91.9192 105.09ZM86.7749 107.474L87.5304 106.626L85.3683 105.376L85.2806 105.46L86.7749 107.474Z" fill="#141414"/>
<path d="M100.984 91.7866L100.482 92.1297L103.554 96.7404L104.056 96.3973L105.184 98.0717L101.311 100.659L100.184 98.9847L100.677 98.6622L98.2819 95.0764L100.06 101.507L98.5328 102.527L93.2594 98.5073L95.6318 102.033L96.1248 101.711L97.2519 103.385L93.8817 105.63L92.7546 103.955L93.2568 103.612L90.1848 99.0014L89.6826 99.3445L88.5554 97.6701L93.2457 94.5352L96.4368 97.0185L95.3145 93.1403L99.8274 90.1235L100.984 91.7866Z" fill="#141414"/>
<path d="M105.907 98.2256L105.166 96.3542L105.744 96.1193L103.682 90.9738L103.105 91.2087L102.364 89.3372L106.715 87.6106L107.456 89.482L106.879 89.7168L108.94 94.8623L109.517 94.6275L110.258 96.499L105.907 98.2256Z" fill="#141414"/>
<path d="M119.229 91.1347L118.627 91.2594L119.146 93.6752C118.844 93.9599 118.37 94.2413 117.714 94.5398C117.079 94.8477 116.35 95.0884 115.558 95.2508C114.053 95.5623 112.795 95.4396 111.78 94.8323C110.766 94.225 110.064 93.09 109.717 91.4458C109.347 89.7418 109.497 88.4218 110.178 87.4652C110.858 86.5087 111.996 85.8577 113.56 85.5237C114.332 85.352 115.057 85.2833 115.745 85.2968C116.454 85.3197 116.992 85.3896 117.361 85.5066L117.99 88.3932L114.971 89.0368L114.858 88.4651C114.784 88.1344 114.664 87.9066 114.498 87.7817C114.331 87.6568 114.088 87.6461 113.787 87.7084C113.486 87.7707 113.279 87.9 113.174 88.076C113.07 88.2519 113.05 88.5155 113.124 88.8462L113.888 92.3644C113.962 92.6951 114.082 92.9229 114.248 93.0478C114.415 93.1727 114.658 93.1834 114.959 93.1211C115.26 93.0588 115.467 92.9294 115.572 92.7535C115.676 92.5775 115.696 92.314 115.622 91.9833L115.609 91.9029L114.948 92.05L114.564 90.2657L118.825 89.3411L119.229 91.1347Z" fill="#141414"/>
<path d="M121.46 93.1095C120.651 92.3223 120.227 91.0652 120.22 89.3268C120.213 87.5885 120.629 86.339 121.437 85.5392C122.266 84.7487 123.413 84.3501 124.92 84.362C126.436 84.3533 127.594 84.7528 128.404 85.5399C129.213 86.3271 129.636 87.5842 129.643 89.3226C129.651 91.0609 129.235 92.3104 128.427 93.1102C127.598 93.9007 126.451 94.2994 124.944 94.2875C123.428 94.2962 122.269 93.8966 121.46 93.1095ZM125.567 91.8674C125.713 91.7101 125.785 91.495 125.783 91.1716L125.779 87.4519C125.776 87.1285 125.707 86.8988 125.57 86.7626C125.433 86.6264 125.227 86.5334 124.945 86.5545C124.672 86.5551 124.463 86.634 124.326 86.7707C124.181 86.9281 124.108 87.1431 124.111 87.4665L124.115 91.1863C124.117 91.5096 124.187 91.7394 124.324 91.8756C124.461 92.0117 124.676 92.0842 124.949 92.0836C125.212 92.1037 125.422 92.0247 125.567 91.8674Z" fill="#141414"/>
<path d="M131.686 94.5092C131.018 94.2321 130.534 93.9882 130.18 93.7291L130.642 91.3355L133.302 91.8685C133.262 92.1228 133.279 92.304 133.365 92.4422C133.451 92.5803 133.657 92.6734 133.953 92.7326C134.207 92.7732 134.379 92.7766 134.508 92.7109C134.628 92.6658 134.704 92.5516 134.748 92.3982C134.784 92.2655 134.739 92.1459 134.664 92.0376C134.568 91.9201 134.401 91.7952 134.173 91.6424L133.211 91.0836C132.381 90.56 131.825 90.0359 131.521 89.5019C131.217 88.9679 131.141 88.3139 131.302 87.5191C131.487 86.5617 131.936 85.8972 132.67 85.5349C133.384 85.1634 134.494 85.12 135.951 85.4067C136.655 85.5511 137.289 85.7386 137.886 86.0084C138.483 86.2783 138.928 86.554 139.264 86.8542L138.832 89.0141L136.418 88.5424C136.503 88.1347 136.291 87.8903 135.792 87.7885C135.547 87.7273 135.365 87.7445 135.255 87.769C135.136 87.8141 135.068 87.9077 135.044 88.0704C135.009 88.2032 135.054 88.3227 135.15 88.4403C135.255 88.5373 135.421 88.6622 135.68 88.8037L136.663 89.3718C137.469 89.8356 138.014 90.3298 138.318 90.8638C138.622 91.3978 138.698 92.0518 138.535 92.7961C138.343 93.8246 137.825 94.5322 137.031 94.917C136.237 95.3018 135.168 95.3638 133.843 95.1123C133.08 94.9905 132.364 94.7658 131.686 94.5092Z" fill="#141414"/>
<path d="M143.116 95.387L143.663 95.6588L146.21 90.7375L145.673 90.4451L146.604 88.66L151.62 91.2741C152.528 91.734 153.137 92.3066 153.465 92.9508C153.773 93.5857 153.769 94.2531 153.402 94.9548C153.186 95.3777 152.895 95.6923 152.538 95.878C152.182 96.0638 151.832 96.1786 151.488 96.1718C151.135 96.1856 150.83 96.147 150.544 96.0672L150.497 96.1701C150.995 96.4943 151.365 96.8843 151.637 97.379C151.909 97.8738 151.861 98.472 151.485 99.1943C151.09 99.9578 150.51 100.365 149.743 100.415C148.977 100.465 148.15 100.265 147.231 99.775L142.215 97.1608L143.116 95.387ZM147.369 97.6064C147.586 97.7294 147.778 97.7421 147.928 97.6857C148.077 97.6293 148.243 97.4813 148.355 97.2343L148.599 96.7497C148.731 96.512 148.753 96.2989 148.727 96.1382C148.68 95.9682 148.543 95.832 148.346 95.7184L147.686 95.3702L146.708 97.2582L147.369 97.6064ZM148.923 94.4424C149.14 94.5653 149.333 94.578 149.482 94.5216C149.653 94.4745 149.798 94.3172 149.91 94.0703L150.116 93.6679C150.249 93.4303 150.291 93.2265 150.244 93.0565C150.197 92.8865 150.06 92.7503 149.864 92.6367L149.285 92.3257L148.354 94.1108L148.923 94.4424Z" fill="#141414"/>
<path d="M158.934 105.858L159.31 106.177L158.016 107.723L154.296 104.654L155.591 103.107L156.166 103.59L156.637 102.713L155.341 101.631L154.557 102.268L155.132 102.751L153.837 104.298L150.588 101.615L151.882 100.068L152.259 100.387L158.685 95.8802L162.154 98.7368L158.934 105.858ZM156.399 100.771L157.266 101.485L158.443 99.2659L158.35 99.1988L156.399 100.771Z" fill="#141414"/>
<path d="M159.61 108.146C159.687 106.991 160.412 105.881 161.754 104.777C164.331 102.695 166.624 102.889 168.663 105.397C169.162 105.994 169.541 106.636 169.808 107.252C170.086 107.899 170.227 108.409 170.263 108.822L167.872 110.765L166.013 108.462L166.709 107.909C166.944 107.718 167.088 107.51 167.101 107.318C167.123 107.105 167.064 106.905 166.884 106.699C166.714 106.474 166.517 106.36 166.325 106.347C166.132 106.335 165.893 106.425 165.658 106.616L162.766 108.953C162.531 109.144 162.387 109.352 162.375 109.544C162.353 109.757 162.411 109.957 162.591 110.163C162.762 110.388 162.958 110.502 163.151 110.515C163.343 110.527 163.583 110.437 163.818 110.246L164.602 109.609L166.461 111.912L163.992 113.919C163.603 113.792 163.118 113.549 162.556 113.146C161.994 112.743 161.47 112.258 160.971 111.661C159.974 110.467 159.514 109.292 159.61 108.146Z" fill="#141414"/>
<path d="M169.74 122.094L170.014 122.64L168.21 123.559L166.688 120.566L169.255 117.191L168.567 116.904L167.377 117.507L167.64 118.022L165.836 118.942L163.722 114.789L165.526 113.869L165.8 114.414L170.737 111.886L170.462 111.341L172.267 110.422L174.38 114.574L172.576 115.494L172.313 114.979L170.866 115.713L173.188 116.663L172.828 115.98L174.632 115.06L176.723 119.153L174.919 120.073L174.645 119.527L172.197 118.471L169.74 122.094Z" fill="#141414"/>
<path d="M168.225 124.185L170.153 123.595L170.337 124.174L175.642 122.531L175.458 121.952L177.386 121.361L178.764 125.826L176.836 126.417L176.651 125.838L171.346 127.48L171.531 128.059L169.602 128.65L168.225 124.185Z" fill="#141414"/>
<path d="M180.36 135.124L180.83 139.128L178.817 139.359L178.743 138.755L171.234 139.625L170.827 136.194L175.939 131.961L172.436 132.36L172.499 132.934L170.486 133.164L170.016 129.159L172.029 128.929L172.103 129.533L177.62 128.903L177.546 128.299L179.559 128.069L180.065 132.487L175.531 136.262L178.431 135.937L178.368 135.363L180.36 135.124Z" fill="#141414"/>
<path d="M173.18 150.344L173.258 149.735L170.809 149.446C170.633 149.069 170.531 148.527 170.432 147.814C170.354 147.109 170.354 146.341 170.444 145.539C170.617 144.006 171.159 142.862 172.058 142.079C172.958 141.296 174.251 141.013 175.927 141.2C177.644 141.406 178.849 141.976 179.533 142.929C180.218 143.883 180.46 145.157 180.28 146.762C180.199 147.543 180.025 148.258 179.777 148.914C179.53 149.571 179.286 150.055 179.046 150.368L176.121 150.037L176.466 146.971L177.034 147.03C177.39 147.067 177.631 147.027 177.808 146.909C177.965 146.781 178.088 146.564 178.106 146.25C178.145 145.945 178.084 145.695 177.957 145.538C177.829 145.382 177.582 145.27 177.248 145.243L173.663 144.837C173.307 144.8 173.066 144.84 172.909 144.967C172.753 145.095 172.63 145.312 172.612 145.626C172.573 145.931 172.633 146.181 172.761 146.338C172.888 146.494 173.135 146.606 173.47 146.633L173.562 146.65L173.637 145.99L175.455 146.192L174.957 150.528L173.18 150.344Z" fill="#141414"/>
<path d="M76.2065 147.512C76.5799 147.235 76.8504 146.911 77.0365 146.499C77.2226 146.088 77.2759 145.641 77.2263 145.147C77.1787 144.705 77.032 144.316 76.8276 144.001C76.7001 143.844 76.5633 143.708 76.3967 143.583L76.9912 143.529L76.8443 142.1L69.825 142.819L69.9851 144.329L72.4022 144.082C72.2865 144.229 72.1709 144.375 72.1058 144.519C71.9476 144.869 71.8923 145.265 71.9492 145.687C71.9989 146.181 72.1568 146.599 72.4136 146.963C72.6705 147.327 73.0152 147.607 73.4269 147.793C73.8386 147.979 74.3267 148.051 74.88 147.979C75.3735 147.929 75.8332 147.79 76.2065 147.512ZM75.428 146.218C75.2413 146.357 74.9815 146.438 74.6694 146.47C74.3778 146.512 74.1234 146.472 73.897 146.369C73.6705 146.267 73.4833 146.133 73.3445 145.946C73.2058 145.759 73.1268 145.55 73.0964 145.289C73.0659 145.027 73.1085 144.823 73.2109 144.597C73.304 144.391 73.4588 144.213 73.6455 144.074C73.8322 143.936 74.0919 143.855 74.3835 143.813C74.6957 143.781 74.95 143.821 75.1652 143.894C75.3916 143.996 75.5583 144.121 75.697 144.308C75.8358 144.494 75.9147 144.703 75.9452 144.965C75.9756 145.227 75.933 145.43 75.84 145.636C75.7695 145.902 75.6352 146.089 75.428 146.218Z" fill="#141414"/>
<path d="M77.9603 154.873C78.2906 154.527 78.4972 154.125 78.6103 153.655C78.7234 153.186 78.7037 152.681 78.5718 152.151C78.4192 151.611 78.1995 151.164 77.8623 150.814C77.525 150.463 77.1412 150.215 76.681 150.081C76.2208 149.948 75.7552 149.936 75.2451 150.077C74.7442 150.197 74.3296 150.456 74.0087 150.782C73.6785 151.129 73.4718 151.531 73.3587 152C73.2456 152.47 73.2653 152.974 73.3973 153.505C73.5293 154.036 73.7788 154.471 74.1161 154.821C74.4533 155.172 74.8372 155.42 75.2974 155.554C75.7576 155.687 76.2325 155.679 76.7127 155.549C77.2248 155.458 77.6301 155.22 77.9603 154.873ZM77.0063 153.748C76.8309 153.917 76.6031 154.037 76.2929 154.12C76.0126 154.191 75.7396 154.192 75.5058 154.161C75.2608 154.099 75.0642 153.986 74.9069 153.84C74.7382 153.665 74.6294 153.467 74.5597 153.237C74.4994 152.987 74.5008 152.764 74.5527 152.54C74.6046 152.316 74.7388 152.128 74.9142 151.96C75.0896 151.791 75.3175 151.671 75.6071 151.579C75.8874 151.507 76.1697 151.486 76.3941 151.538C76.6392 151.599 76.8357 151.713 76.9838 151.879C77.1524 152.054 77.2613 152.252 77.3309 152.482C77.3913 152.732 77.3899 152.955 77.338 153.179C77.316 153.392 77.1817 153.58 77.0063 153.748Z" fill="#141414"/>
<path d="M82.1596 161.927L81.4382 160.287L78.6425 159.123L82.3599 157.481L81.7401 156.111L75.2001 159.004L75.8199 160.375L77.023 159.853L77.968 160.231L76.7742 162.542L77.5068 164.211L79.2761 160.847L82.1596 161.927Z" fill="#141414"/>
<path d="M84.3898 165.438C84.1197 164.994 83.7525 164.654 83.3388 164.418C82.9251 164.181 82.4762 164.077 82.0013 164.086C81.5264 164.094 81.0874 164.243 80.6429 164.513C80.1985 164.783 79.8888 165.139 79.6728 165.562C79.4568 165.985 79.3736 166.443 79.4232 166.936C79.4728 167.429 79.644 167.928 79.9573 168.442C80.2049 168.826 80.4804 169.149 80.8024 169.369C81.1244 169.589 81.4538 169.738 81.7998 169.795L82.0985 168.641C81.8741 168.589 81.6476 168.487 81.481 168.362C81.2937 168.228 81.1251 168.052 80.9844 167.815C80.8324 167.548 80.7215 167.3 80.6911 167.038C80.6606 166.777 80.7125 166.552 80.8149 166.326C80.8707 166.202 80.9678 166.097 81.0648 165.993L83.1656 169.297C83.2254 169.274 83.2944 169.231 83.3542 169.209C83.4233 169.165 83.4831 169.143 83.5223 169.111C84.0059 168.809 84.3362 168.463 84.5522 168.04C84.7682 167.617 84.8627 167.189 84.8244 166.725C84.8179 166.301 84.6487 165.853 84.3898 165.438ZM82.2864 165.429C82.5182 165.41 82.7221 165.453 82.9186 165.566C83.1152 165.68 83.2931 165.835 83.4225 166.042C83.5726 166.258 83.6216 166.479 83.6408 166.711C83.6394 166.933 83.5968 167.137 83.4832 167.333C83.3974 167.468 83.321 167.582 83.1941 167.699L81.836 165.548C81.9948 165.471 82.135 165.435 82.2864 165.429Z" fill="#141414"/>
<path d="M87.4671 170.969L87.986 170.534L87.0732 169.427L83.0882 172.757L84.0534 173.912L85.933 172.332C86.325 172.014 86.6837 171.879 87.0091 171.926C87.3551 171.984 87.6546 172.144 87.9301 172.467C87.962 172.506 87.9938 172.545 88.0257 172.584C88.0576 172.623 88.0894 172.663 88.1326 172.732L89.2003 171.851C88.8929 171.489 88.5483 171.209 88.189 171.072C87.9626 170.969 87.7195 170.959 87.4671 170.969Z" fill="#141414"/>
<path d="M93.3062 178.342C93.5247 178.243 93.7566 178.223 93.9903 178.255C94.2241 178.286 94.4506 178.388 94.6491 178.552C94.827 178.707 94.975 178.873 95.0447 179.103C95.1236 179.312 95.1541 179.574 95.1042 179.849L96.4079 180.091C96.5116 179.642 96.4939 179.188 96.3154 178.76C96.1369 178.333 95.8389 177.95 95.4006 177.603C94.9624 177.256 94.4983 177.022 94.0101 176.95C93.5313 176.857 93.0676 176.896 92.6286 177.044C92.1802 177.213 91.8068 177.491 91.4786 177.888C91.1503 178.285 90.9754 178.726 90.9128 179.194C90.8502 179.661 90.939 180.123 91.1288 180.58C91.3186 181.038 91.6373 181.43 92.0755 181.776C92.4931 182.114 92.946 182.319 93.4042 182.402C93.8625 182.485 94.2942 182.407 94.7107 182.199L94.1978 180.976C93.9288 181.077 93.6877 181.117 93.4539 181.086C93.2201 181.054 93.0143 180.961 92.8363 180.807C92.6378 180.643 92.4991 180.456 92.3995 180.237C92.3 180.019 92.2808 179.787 92.3121 179.553C92.3434 179.32 92.4551 179.073 92.6584 178.842C92.8711 178.592 93.067 178.432 93.3062 178.342Z" fill="#141414"/>
<path d="M102.048 182.367C101.789 181.953 101.422 181.614 100.956 181.328C100.48 181.064 100.009 180.901 99.5134 180.9C99.0272 180.878 98.5769 180.997 98.1603 181.205C97.7345 181.434 97.4136 181.76 97.1378 182.205C96.8826 182.66 96.7582 183.1 96.7666 183.574C96.7751 184.049 96.9237 184.488 97.162 184.893C97.4208 185.308 97.788 185.647 98.2541 185.932C98.7296 186.197 99.201 186.36 99.6965 186.361C100.183 186.383 100.633 186.264 101.05 186.056C101.475 185.827 101.796 185.501 102.052 185.046C102.307 184.591 102.44 184.131 102.432 183.656C102.435 183.211 102.307 182.782 102.048 182.367ZM100.749 184.308C100.607 184.567 100.422 184.756 100.215 184.885C100.008 185.015 99.7781 185.084 99.5556 185.083C99.3331 185.081 99.1086 185.03 98.8915 184.907C98.6743 184.784 98.5057 184.608 98.3969 184.41C98.288 184.213 98.2184 183.983 98.2291 183.74C98.2398 183.497 98.3103 183.231 98.4725 182.982C98.6141 182.724 98.7987 182.535 99.006 182.405C99.2133 182.276 99.4338 182.227 99.6656 182.208C99.8881 182.209 100.113 182.261 100.33 182.384C100.547 182.507 100.716 182.682 100.824 182.88C100.933 183.078 100.982 183.299 100.992 183.551C100.981 183.794 100.89 184.05 100.749 184.308Z" fill="#141414"/>
<path d="M112.934 187.461C112.879 187.089 112.705 186.762 112.472 186.508C112.22 186.245 111.909 186.055 111.52 185.929C111.048 185.765 110.592 185.733 110.151 185.831C109.9 185.891 109.682 185.991 109.475 186.12C109.426 185.9 109.326 185.681 109.208 185.504C108.942 185.16 108.588 184.901 108.137 184.747C107.727 184.611 107.351 184.566 106.97 184.641C106.759 184.67 106.549 184.748 106.372 184.867L106.582 184.292L105.229 183.83L103.531 188.738L104.945 189.229L105.789 186.759C105.899 186.462 106.022 186.245 106.167 186.088C106.313 185.93 106.501 185.842 106.692 185.804C106.882 185.767 107.096 185.788 107.29 185.852C107.588 185.961 107.786 186.125 107.876 186.364C107.967 186.604 107.949 186.918 107.813 187.327L106.913 189.92L108.328 190.41L109.172 187.941C109.281 187.644 109.404 187.427 109.55 187.27C109.695 187.112 109.884 187.024 110.075 186.986C110.265 186.948 110.478 186.97 110.673 187.034C110.971 187.143 111.169 187.307 111.28 187.556C111.37 187.795 111.373 188.118 111.216 188.519L110.317 191.111L111.731 191.602L112.703 188.794C112.936 188.279 112.989 187.833 112.934 187.461Z" fill="#141414"/>
<path d="M124.206 188.962C124.071 188.603 123.827 188.319 123.537 188.139C123.226 187.949 122.888 187.82 122.482 187.786C121.985 187.734 121.553 187.812 121.136 188.02C120.908 188.14 120.722 188.279 120.546 188.448C120.447 188.229 120.299 188.063 120.141 187.917C119.817 187.647 119.396 187.482 118.949 187.428C118.523 187.384 118.151 187.439 117.783 187.595C117.574 187.674 117.417 187.802 117.251 187.95L117.298 187.351L115.877 187.205L115.351 192.37L116.843 192.524L117.096 189.937C117.135 189.632 117.196 189.387 117.31 189.191C117.423 188.994 117.58 188.867 117.769 188.778C117.957 188.69 118.139 188.673 118.382 188.684C118.687 188.722 118.934 188.834 119.084 189.051C119.234 189.267 119.287 189.588 119.252 189.994L118.984 192.724L120.477 192.878L120.73 190.29C120.768 189.985 120.829 189.74 120.943 189.544C121.057 189.347 121.214 189.22 121.402 189.132C121.591 189.044 121.772 189.026 122.015 189.037C122.32 189.076 122.567 189.187 122.717 189.404C122.867 189.62 122.92 189.942 122.885 190.347L122.618 193.077L124.11 193.231L124.409 190.268C124.399 189.742 124.351 189.3 124.206 188.962Z" fill="#141414"/>
<path d="M130.693 187.555L130.924 190.114C130.957 190.426 130.937 190.69 130.834 190.916C130.762 191.131 130.637 191.298 130.46 191.416C130.282 191.534 130.082 191.592 129.871 191.621C129.538 191.644 129.273 191.573 129.063 191.379C128.874 191.195 128.74 190.887 128.713 190.453L128.466 187.764L126.965 187.903L127.231 190.824C127.283 191.368 127.42 191.777 127.645 192.102C127.87 192.427 128.142 192.649 128.501 192.786C128.86 192.924 129.236 192.97 129.679 192.922C130.072 192.877 130.421 192.762 130.746 192.537C130.923 192.419 131.099 192.25 131.203 192.074L131.247 192.689L132.668 192.563L132.183 187.386L130.693 187.555Z" fill="#141414"/>
<path d="M139.746 186.616C139.473 186.343 139.162 186.153 138.825 186.076C138.468 185.988 138.085 186.014 137.694 186.11C137.274 186.217 136.907 186.423 136.614 186.688C136.439 186.856 136.314 187.023 136.2 187.219L136.046 186.629L134.665 186.996L135.963 192.02L137.425 191.639L136.782 189.168C136.699 188.858 136.699 188.585 136.73 188.351C136.782 188.127 136.886 187.951 137.052 187.803C137.218 187.655 137.407 187.566 137.637 187.497C137.968 187.423 138.231 187.443 138.46 187.596C138.688 187.749 138.861 188.025 138.957 188.416L139.647 191.057L141.108 190.677L140.349 187.805C140.207 187.295 140.02 186.888 139.746 186.616Z" fill="#141414"/>
<path d="M143.56 184.17L142.153 184.729L144.073 189.557L145.479 188.998L143.56 184.17Z" fill="#141414"/>
<path d="M141.842 183.845C142.057 183.917 142.3 183.928 142.549 183.817C142.818 183.716 142.993 183.547 143.086 183.341C143.179 183.135 143.19 182.892 143.091 182.674C142.991 182.455 142.864 182.299 142.628 182.217C142.413 182.144 142.181 182.164 141.912 182.265C141.663 182.376 141.477 182.515 141.374 182.741C141.281 182.947 141.259 183.16 141.349 183.399C141.479 183.606 141.636 183.752 141.842 183.845Z" fill="#141414"/>
<path d="M149.813 185.737C149.645 185.835 149.463 185.852 149.319 185.787C149.166 185.742 149.029 185.606 148.941 185.417L147.978 183.545L149.138 182.953L148.612 181.923L147.452 182.514L146.872 181.384L145.544 182.073L146.124 183.203L145.411 183.574L145.936 184.605L146.65 184.233L147.624 186.136C147.898 186.681 148.265 187.021 148.705 187.145C149.145 187.269 149.647 187.199 150.181 186.895C150.379 186.787 150.587 186.657 150.753 186.509C150.919 186.361 151.044 186.195 151.139 186.039L150.29 185.284C150.156 185.471 150.02 185.608 149.813 185.737Z" fill="#141414"/>
<path d="M155.974 184.779C156.021 184.453 155.987 184.091 155.889 183.65L154.699 177.783L153.508 178.608L154.301 182.337L151.105 180.248L149.815 181.128L154.635 184.174L154.637 184.224C154.677 184.465 154.685 184.667 154.641 184.821C154.596 184.974 154.48 185.12 154.303 185.238C154.185 185.334 154.036 185.39 153.875 185.417C153.714 185.443 153.554 185.47 153.412 185.455L153.569 186.642C153.782 186.664 154.035 186.654 154.294 186.573C154.554 186.492 154.803 186.381 155.019 186.231C155.275 186.049 155.49 185.849 155.642 185.621C155.834 185.36 155.926 185.104 155.974 184.779Z" fill="#141414"/>
</svg>
