<svg width="301" height="305" viewBox="0 0 301 305" fill="none" xmlns="http://www.w3.org/2000/svg">
<path d="M25.7276 104.976L26.1077 103.648L31.5575 105.292L27.5652 118.193L22.1156 116.549L22.7493 114.588L19.961 114.335L18.567 118.825L21.0383 120.153L21.6719 118.193L27.1217 119.837L23.6364 131.093L18.1867 129.449L18.567 128.121L0 116.296L3.6754 104.28L25.7276 104.976ZM15.3351 116.991L16.2856 113.956L9.31512 113.26L9.18841 113.576L15.3351 116.991Z" fill="#141414"/>
<path d="M33.5219 60.5822L32.6347 62.0367L45.8153 70.2578L46.7024 68.8033L51.5185 71.7756L44.6114 82.8424L39.7953 79.87L40.6824 78.4788L30.4168 72.0918L42.3935 86.4469L39.6686 90.8104L21.5452 86.6367L31.6841 92.8973L32.5714 91.506L37.3873 94.4782L31.3673 104.09L26.5514 101.118L27.4385 99.6638L14.2578 91.4427L13.3707 92.8973L8.55469 89.9251L16.9193 76.5185L27.9455 79.1745L20.5947 70.574L28.6424 57.6733L33.5219 60.5822Z" fill="#141414"/>
<path d="M53.5463 71.3335L49.4908 67.4127L50.6948 66.1479L39.4786 55.3973L38.2747 56.6621L34.219 52.7414L43.3441 43.3188L47.3996 47.2396L46.1957 48.5044L57.4119 59.255L58.6158 57.9902L62.6715 61.911L53.5463 71.3335Z" fill="#141414"/>
<path d="M79.4008 37.8799L78.0067 38.8918L82.1257 44.4567C81.6821 45.5317 80.795 46.7966 79.4642 48.3143C78.1969 49.832 76.6126 51.2865 74.7749 52.6145C71.2896 55.1441 67.9311 56.2824 64.6359 55.9029C61.3408 55.5235 58.2357 53.4367 55.4475 49.6424C52.5326 45.7216 51.392 42.1801 52.0257 38.9549C52.6594 35.7298 54.8138 32.7575 58.4258 30.1015C60.2001 28.7735 61.9745 27.7617 63.7488 27.0029C65.5865 26.244 67.0439 25.8013 68.1212 25.6748L73.064 32.3149L66.0934 37.4373L65.1429 36.1092C64.5726 35.3503 64.0023 34.9077 63.432 34.7813C62.8617 34.6548 62.228 34.9077 61.531 35.4137C60.8339 35.9196 60.4537 36.4886 60.3903 37.0578C60.3269 37.6269 60.5804 38.3225 61.1507 39.0814L67.1707 47.176C67.741 47.9348 68.3113 48.3776 68.8816 48.504C69.4519 48.6305 70.0856 48.3776 70.7826 47.8716C71.4797 47.3657 71.8599 46.7965 71.9233 46.2274C71.9867 45.6582 71.7332 44.9626 71.1629 44.2038L71.0362 44.014L69.5153 45.1524L66.4737 41.0418L76.2958 33.7694L79.4008 37.8799Z" fill="#141414"/>
<path d="M87.3857 40.3457C84.4074 39.2707 81.8726 36.5514 79.8448 32.1247C77.817 27.698 77.4368 24.0302 78.5775 21.0579C79.7815 18.0857 82.2529 15.746 86.1184 14.0385C89.9839 12.2678 93.4057 11.9516 96.384 13.0267C99.3623 14.1017 101.897 16.821 103.925 21.2477C105.953 25.6744 106.333 29.3422 105.192 32.3145C103.988 35.2867 101.517 37.6266 97.6514 39.334C93.7859 41.1047 90.3641 41.4208 87.3857 40.3457ZM96.4473 32.4409C96.6374 31.8718 96.5741 31.2394 96.1939 30.4173L91.8848 20.9315C91.5046 20.1094 91.0611 19.6035 90.5542 19.4138C90.0472 19.2241 89.4134 19.2241 88.7164 19.6036C88.0193 19.9198 87.5759 20.3624 87.3857 20.8683C87.1956 21.4375 87.259 22.0698 87.6392 22.8919L91.9482 32.3778C92.3285 33.1999 92.7719 33.7057 93.2789 33.8954C93.7858 34.0851 94.4196 34.0219 95.1167 33.7057C95.8137 33.4527 96.2572 33.01 96.4473 32.4409Z" fill="#141414"/>
<path d="M115.14 32.1248C113.112 32.1881 111.591 32.1249 110.387 31.8719L108.803 25.2319L116.217 23.5245C116.407 24.2201 116.661 24.6627 117.041 24.9157C117.421 25.1686 118.055 25.1687 118.879 24.979C119.576 24.7893 120.019 24.5995 120.273 24.2833C120.526 24.0303 120.59 23.6509 120.526 23.2083C120.463 22.8288 120.209 22.5759 119.893 22.3861C119.512 22.1964 118.942 22.07 118.182 21.9435L115.077 21.6273C112.352 21.2479 110.324 20.5522 108.93 19.5404C107.536 18.5286 106.585 16.9476 106.078 14.7342C105.445 12.0782 105.825 9.86482 107.282 8.09413C108.676 6.32345 111.465 4.9322 115.52 3.98362C117.485 3.54095 119.322 3.28809 121.16 3.28809C122.998 3.28809 124.455 3.47774 125.659 3.85717L127.053 9.86485L120.336 11.4458C120.083 10.3075 119.259 9.92815 117.865 10.2443C117.168 10.3708 116.724 10.6237 116.471 10.8134C116.217 11.0664 116.154 11.3826 116.281 11.8253C116.344 12.2047 116.597 12.4577 116.978 12.6474C117.358 12.7739 117.928 12.9004 118.752 12.9636L121.92 13.2798C124.519 13.5328 126.483 14.1652 127.877 15.177C129.271 16.1888 130.222 17.7697 130.665 19.8566C131.362 22.7023 130.855 25.1054 129.271 27.0026C127.687 28.8998 125.025 30.2909 121.35 31.1763C119.259 31.7454 117.168 31.9984 115.14 32.1248Z" fill="#141414"/>
<path d="M145.367 21.185L147.078 21.2481L147.902 5.75463L146.191 5.62818L146.507 0L162.349 0.88528C165.201 1.01176 167.419 1.77056 169.003 3.03533C170.524 4.30011 171.284 6.00768 171.158 8.22103C171.094 9.54904 170.714 10.6872 170.017 11.5726C169.32 12.4579 168.56 13.1536 167.672 13.533C166.785 13.9757 165.962 14.2287 165.138 14.3552V14.6713C166.785 14.9243 168.179 15.4935 169.447 16.4421C170.714 17.3906 171.284 18.9715 171.158 21.2481C171.031 23.6512 170.017 25.3587 168.116 26.3705C166.215 27.3823 163.87 27.825 160.955 27.6353L145.113 26.7498L145.367 21.185ZM158.801 21.9438C159.498 22.007 160.005 21.8173 160.322 21.5012C160.639 21.185 160.892 20.6158 160.892 19.8569L160.955 18.3392C161.019 17.5804 160.829 17.0111 160.575 16.6317C160.258 16.2522 159.751 16.0625 159.118 15.9993L157.027 15.8728L156.71 21.8173L158.801 21.9438ZM159.118 12.0785C159.815 12.1417 160.322 11.9521 160.639 11.6359C161.019 11.3197 161.209 10.7505 161.209 9.99159L161.272 8.72682C161.336 7.96795 161.209 7.39883 160.892 7.0194C160.575 6.63997 160.068 6.45025 159.435 6.38702L157.597 6.26057L157.28 11.8888L159.118 12.0785Z" fill="#141414"/>
<path d="M197.899 29.6588L199.23 30.0383L197.709 35.4767L184.655 31.9354L186.176 26.4968L188.204 27.0659L188.394 24.2835L183.831 23.0187L182.564 25.5483L184.592 26.1174L183.071 31.5559L171.665 28.4573L173.186 23.0187L174.516 23.3982L185.733 4.48975L197.899 7.77813V29.6588ZM185.542 19.6039L188.584 20.4259L189.028 13.4065L188.711 13.3432L185.542 19.6039Z" fill="#141414"/>
<path d="M202.272 34.7183C201.131 31.6828 201.702 28.015 203.856 23.6515C208.038 15.3672 214.122 13.217 222.233 17.2643C224.197 18.2129 225.908 19.4145 227.302 20.6793C228.76 22.0073 229.71 23.1456 230.281 24.1574L226.415 31.8725L219.001 28.1415L220.142 25.9281C220.522 25.1693 220.649 24.4736 220.459 23.9677C220.269 23.3985 219.888 22.9558 219.191 22.6396C218.494 22.2602 217.861 22.197 217.354 22.3867C216.847 22.5764 216.34 23.0824 215.96 23.8412L211.27 33.1373C210.89 33.8962 210.763 34.5918 210.953 35.0978C211.144 35.6669 211.524 36.1095 212.221 36.4257C212.918 36.8051 213.552 36.8684 214.058 36.6787C214.565 36.489 215.072 35.9831 215.453 35.2242L216.72 32.6947L224.134 36.4257L220.142 44.3938C219.001 44.5203 217.48 44.457 215.579 44.0776C213.678 43.6982 211.777 43.0657 209.813 42.1172C205.884 40.22 203.349 37.7537 202.272 34.7183Z" fill="#141414"/>
<path d="M244.285 58.6221L245.616 59.6971L242.067 64.1238L234.717 58.2426L237.378 46.6699L235.287 46.7332L232.942 49.6422L234.21 50.654L230.661 55.0807L220.459 46.923L224.007 42.4962L225.338 43.5713L235.033 31.4295L233.703 30.3544L237.251 25.9277L247.454 34.0855L243.905 38.5122L242.638 37.5003L239.786 41.0417L246.82 40.7888L245.109 39.4608L248.658 35.034L258.733 43.0653L255.184 47.492L253.854 46.417L246.376 46.5435L244.285 58.6221Z" fill="#141414"/>
<path d="M242.827 65.7047L247.072 61.9737L248.213 63.2385L259.873 52.9305L258.732 51.6657L262.978 47.9346L271.659 57.7366L267.414 61.4677L266.273 60.203L254.613 70.5109L255.754 71.7757L251.508 75.5067L242.827 65.7047Z" fill="#141414"/>
<path d="M286.488 79.6174L292.317 89.293L287.438 92.2019L286.551 90.7475L268.364 101.625L263.358 93.3402L271.533 76.6452L263.041 81.7043L263.865 83.0955L258.986 86.0046L253.156 76.329L258.035 73.42L258.922 74.8745L272.293 66.9064L271.406 65.452L276.285 62.543L282.685 73.2302L275.461 88.0913L282.495 83.9177L281.672 82.5265L286.488 79.6174Z" fill="#141414"/>
<path d="M285.728 126.73L285.221 125.086L278.631 127.173C277.744 126.414 276.857 125.149 275.779 123.442C274.765 121.735 273.878 119.774 273.181 117.624C271.851 113.514 271.914 109.972 273.308 106.937C274.702 103.901 277.681 101.688 282.18 100.233C286.806 98.7789 290.544 98.8421 293.396 100.486C296.247 102.131 298.339 105.103 299.733 109.403C300.43 111.49 300.81 113.513 300.937 115.474C301.063 117.434 301 118.952 300.747 120.027L292.889 122.557L290.227 114.336L291.748 113.83C292.699 113.514 293.269 113.134 293.586 112.628C293.839 112.122 293.903 111.427 293.586 110.604C293.332 109.782 292.889 109.213 292.382 108.96C291.875 108.707 291.115 108.707 290.227 109.024L280.595 112.122C279.645 112.438 279.075 112.818 278.821 113.324C278.568 113.83 278.504 114.525 278.821 115.347C279.075 116.17 279.518 116.739 280.025 116.992C280.532 117.245 281.293 117.245 282.18 116.928L282.433 116.865L281.863 115.095L286.742 113.514L290.481 125.149L285.728 126.73Z" fill="#141414"/>
<path d="M34.5989 231.327C35.2326 230.189 35.5494 229.051 35.5494 227.786C35.5494 226.521 35.1692 225.32 34.4722 224.118C33.8385 223.043 33.0146 222.221 32.1274 221.652C31.6205 221.399 31.1135 221.209 30.5432 221.082L32.0007 220.26L29.973 216.782L12.8635 226.711L15.018 230.379L20.9113 226.964C20.7845 227.47 20.6579 227.976 20.6579 228.418C20.6579 229.493 20.9747 230.568 21.6084 231.58C22.3054 232.782 23.1926 233.667 24.2698 234.299C25.3471 234.932 26.5512 235.248 27.8185 235.248C29.0859 235.248 30.4166 234.869 31.7473 234.046C32.9513 233.351 33.9652 232.465 34.5989 231.327ZM31.1136 228.924C30.7968 229.493 30.2264 229.999 29.466 230.442C28.769 230.885 28.0719 231.074 27.3748 231.074C26.6778 231.074 26.0441 230.948 25.4738 230.632C24.9035 230.315 24.4599 229.873 24.0797 229.24C23.6995 228.608 23.5727 228.039 23.5727 227.343C23.5727 226.711 23.7629 226.078 24.0797 225.509C24.3965 224.94 24.9668 224.434 25.6639 223.992C26.4243 223.549 27.1214 223.359 27.7551 223.296C28.4521 223.296 29.0224 223.422 29.5927 223.738C30.163 224.055 30.6067 224.497 30.9869 225.13C31.3671 225.762 31.4938 226.331 31.4938 226.964C31.6205 227.723 31.4939 228.355 31.1136 228.924Z" fill="#141414"/>
<path d="M47.5896 248.085C48.0332 246.821 48.0965 245.556 47.843 244.228C47.5895 242.9 46.9559 241.635 46.0054 240.434C44.9915 239.232 43.9142 238.347 42.6468 237.841C41.3795 237.335 40.112 237.145 38.7813 237.335C37.4506 237.525 36.2467 238.031 35.1061 238.979C33.9654 239.864 33.2049 241.003 32.7613 242.204C32.3177 243.469 32.2544 244.734 32.5079 246.062C32.7614 247.39 33.395 248.655 34.3455 249.856C35.296 251.058 36.4367 251.88 37.7041 252.386C38.9714 252.892 40.2389 253.081 41.5696 252.892C42.9003 252.702 44.1043 252.133 45.1816 251.247C46.3856 250.425 47.146 249.35 47.5896 248.085ZM43.8508 246.315C43.5973 246.947 43.1537 247.516 42.4567 248.085C41.823 248.591 41.1261 248.908 40.4924 249.097C39.7953 249.224 39.1616 249.161 38.5913 248.971C37.9576 248.718 37.4507 248.338 37.0071 247.833C36.5635 247.263 36.31 246.694 36.1833 246.062C36.0566 245.429 36.1832 244.797 36.4367 244.165C36.6902 243.532 37.1338 242.963 37.7675 242.394C38.4012 241.888 39.0981 241.509 39.7318 241.382C40.4289 241.256 41.0626 241.319 41.6329 241.572C42.2666 241.825 42.7735 242.204 43.2171 242.71C43.6607 243.279 43.9142 243.848 44.0409 244.481C44.231 245.05 44.1042 245.682 43.8508 246.315Z" fill="#141414"/>
<path d="M66.4737 261.239L62.7349 257.887L54.2436 258.14L61.8478 249.666L58.6794 246.884L45.3086 261.808L48.477 264.591L50.9485 261.871L53.8 261.745L53.4198 269.017L57.2219 272.432L57.8556 261.808L66.4737 261.239Z" fill="#141414"/>
<path d="M76.2315 267.626C75.0275 266.804 73.6967 266.362 72.366 266.235C71.0352 266.109 69.7679 266.361 68.5639 266.931C67.3599 267.5 66.4094 268.385 65.5856 269.587C64.7618 270.788 64.3816 272.053 64.3182 273.381C64.2549 274.709 64.5717 275.974 65.2687 277.175C65.9658 278.377 66.9798 279.452 68.3739 280.4C69.4512 281.096 70.5283 281.602 71.6056 281.792C72.6828 281.981 73.6968 281.981 74.6473 281.729L74.077 278.44C73.4434 278.566 72.7463 278.566 72.176 278.44C71.5423 278.314 70.9086 278.061 70.2749 277.618C69.5779 277.112 69.0075 276.606 68.6273 275.974C68.2471 275.341 68.1203 274.709 68.1203 274.013C68.1203 273.634 68.2472 273.255 68.3739 272.875L77.5623 278.883C77.689 278.756 77.8157 278.566 77.9424 278.44C78.0692 278.25 78.1959 278.124 78.2593 277.997C79.1464 276.669 79.59 275.405 79.6533 274.077C79.7167 272.749 79.4634 271.547 78.8297 270.409C78.3227 269.334 77.3721 268.385 76.2315 267.626ZM70.8452 270.029C71.4155 269.713 71.9859 269.587 72.6195 269.65C73.2532 269.713 73.8868 269.903 74.4572 270.282C75.0908 270.662 75.4711 271.168 75.788 271.737C76.0414 272.306 76.1682 272.875 76.1048 273.507C76.0414 273.95 75.9781 274.33 75.788 274.772L69.8312 270.851C70.1481 270.472 70.465 270.219 70.8452 270.029Z" fill="#141414"/>
<path d="M90.4897 278.187L91.3135 276.48L87.7016 274.709L81.3647 287.799L85.1668 289.633L88.1451 283.436C88.7788 282.171 89.5391 281.412 90.4263 281.159C91.3768 280.906 92.3275 280.97 93.4047 281.475C93.5315 281.539 93.6581 281.602 93.7848 281.665C93.9116 281.728 94.0383 281.792 94.2284 281.918L95.9395 278.44C94.7355 277.871 93.5315 277.555 92.4542 277.618C91.7572 277.618 91.1234 277.871 90.4897 278.187Z" fill="#141414"/>
<path d="M113.937 290.266C114.381 289.76 114.951 289.444 115.585 289.254C116.218 289.064 116.915 289.064 117.612 289.254C118.246 289.444 118.816 289.697 119.26 290.203C119.703 290.645 120.084 291.278 120.274 292.036L123.886 291.151C123.632 289.886 123.062 288.748 122.111 287.863C121.161 286.977 119.957 286.345 118.436 285.966C116.915 285.586 115.458 285.523 114.127 285.902C112.796 286.219 111.656 286.851 110.705 287.736C109.755 288.685 109.121 289.823 108.741 291.214C108.361 292.606 108.424 293.934 108.804 295.198C109.184 296.463 109.945 297.538 110.959 298.487C111.973 299.436 113.24 300.068 114.761 300.447C116.218 300.827 117.612 300.827 118.88 300.511C120.147 300.194 121.161 299.499 121.985 298.487L119.26 295.957C118.69 296.527 118.119 296.906 117.486 297.096C116.852 297.285 116.218 297.285 115.585 297.096C114.888 296.906 114.317 296.59 113.81 296.147C113.303 295.704 112.986 295.135 112.796 294.503C112.606 293.87 112.606 293.112 112.86 292.29C113.113 291.404 113.43 290.772 113.937 290.266Z" fill="#141414"/>
<path d="M140.933 290.456C139.792 289.697 138.461 289.254 136.94 289.064C135.42 288.938 134.025 289.064 132.758 289.634C131.491 290.139 130.477 290.962 129.653 291.973C128.829 293.048 128.386 294.25 128.195 295.704C128.069 297.159 128.259 298.424 128.829 299.625C129.399 300.827 130.287 301.775 131.364 302.534C132.505 303.293 133.835 303.736 135.356 303.925C136.877 304.052 138.271 303.925 139.538 303.356C140.806 302.85 141.82 302.028 142.644 301.017C143.467 299.941 143.911 298.74 144.038 297.285C144.164 295.831 143.974 294.503 143.404 293.301C142.897 292.163 142.073 291.214 140.933 290.456ZM139.855 296.906C139.792 297.728 139.538 298.424 139.158 298.993C138.778 299.562 138.271 300.005 137.701 300.258C137.13 300.511 136.497 300.637 135.8 300.574C135.103 300.511 134.469 300.258 133.962 299.878C133.455 299.499 133.011 298.993 132.758 298.36C132.505 297.728 132.378 296.969 132.505 296.147C132.568 295.325 132.821 294.629 133.202 294.06C133.582 293.491 134.089 293.112 134.659 292.796C135.229 292.543 135.863 292.416 136.56 292.479C137.257 292.543 137.891 292.795 138.398 293.175C138.905 293.554 139.285 294.06 139.602 294.693C139.855 295.325 139.919 296.084 139.855 296.906Z" fill="#141414"/>
<path d="M174.643 290.898C174.073 290.012 173.249 289.38 172.362 289.001C171.411 288.621 170.397 288.495 169.257 288.621C167.863 288.748 166.659 289.19 165.645 289.949C165.074 290.392 164.631 290.898 164.251 291.467C163.87 290.961 163.363 290.518 162.856 290.202C161.779 289.633 160.575 289.38 159.244 289.506C158.04 289.633 157.027 289.949 156.139 290.582C155.633 290.898 155.189 291.34 154.872 291.846L154.745 290.139L150.753 290.518L152.084 305L156.266 304.621L155.569 297.348C155.506 296.463 155.569 295.767 155.759 295.198C155.949 294.629 156.33 294.186 156.773 293.87C157.217 293.554 157.787 293.364 158.357 293.301C159.245 293.238 159.941 293.427 160.448 293.933C160.955 294.439 161.272 295.261 161.399 296.463L162.096 304.115L166.278 303.735L165.581 296.463C165.518 295.577 165.581 294.882 165.771 294.313C165.962 293.743 166.342 293.301 166.785 292.985C167.229 292.668 167.799 292.479 168.369 292.415C169.257 292.352 169.954 292.542 170.524 293.048C171.031 293.554 171.411 294.376 171.475 295.577L172.172 303.229L176.354 302.85L175.594 294.566C175.594 292.985 175.213 291.783 174.643 290.898Z" fill="#141414"/>
<path d="M205.186 281.728C204.426 280.969 203.475 280.526 202.525 280.4C201.511 280.274 200.497 280.337 199.42 280.716C198.089 281.159 197.075 281.854 196.251 282.866C195.808 283.435 195.491 284.005 195.237 284.637C194.731 284.194 194.16 283.941 193.59 283.752C192.449 283.436 191.182 283.499 189.978 283.878C188.837 284.258 187.95 284.827 187.19 285.649C186.746 286.092 186.493 286.597 186.239 287.167L185.669 285.586L181.867 286.85L186.493 300.636L190.485 299.308L188.14 292.415C187.887 291.593 187.76 290.898 187.823 290.265C187.887 289.633 188.14 289.127 188.52 288.684C188.901 288.242 189.344 287.989 189.978 287.736C190.802 287.483 191.562 287.483 192.196 287.862C192.829 288.242 193.336 289.001 193.717 290.076L196.188 297.348L200.18 296.02L197.835 289.127C197.582 288.305 197.455 287.609 197.519 286.977C197.582 286.344 197.836 285.838 198.216 285.396C198.596 284.953 199.04 284.7 199.673 284.447C200.497 284.194 201.257 284.194 201.891 284.574C202.525 284.953 203.032 285.712 203.412 286.787L205.883 294.06L209.875 292.732L207.214 284.827C206.58 283.499 205.947 282.424 205.186 281.728Z" fill="#141414"/>
<path d="M220.141 270.662L223.69 276.922C224.133 277.681 224.387 278.377 224.387 279.073C224.45 279.705 224.323 280.274 224.007 280.78C223.69 281.286 223.246 281.665 222.739 281.982C221.915 282.424 221.155 282.551 220.395 282.298C219.698 282.045 219 281.412 218.43 280.337L214.692 273.761L211.016 275.847L215.072 282.993C215.832 284.321 216.656 285.207 217.607 285.776C218.557 286.345 219.508 286.598 220.585 286.535C221.662 286.472 222.676 286.155 223.753 285.523C224.704 284.954 225.464 284.258 226.034 283.31C226.351 282.804 226.605 282.171 226.668 281.602L227.492 283.12L230.977 281.159L223.753 268.512L220.141 270.662Z" fill="#141414"/>
<path d="M242.193 257.825C241.179 257.445 240.166 257.319 239.215 257.509C238.201 257.698 237.251 258.204 236.363 258.9C235.413 259.659 234.716 260.607 234.272 261.619C234.019 262.251 233.892 262.821 233.829 263.453L232.751 262.125L229.646 264.655L238.771 275.974L242.067 273.318L237.568 267.753C236.997 267.058 236.68 266.362 236.49 265.73C236.363 265.097 236.427 264.528 236.68 263.959C236.934 263.39 237.314 262.947 237.821 262.504C238.581 261.935 239.278 261.682 240.039 261.809C240.799 261.935 241.56 262.441 242.257 263.326L247.073 269.271L250.368 266.615L245.108 260.165C244.158 259.026 243.207 258.204 242.193 257.825Z" fill="#141414"/>
<path d="M249.115 247.188L246.166 250.236L256.651 260.339L259.6 257.291L249.115 247.188Z" fill="#141414"/>
<path d="M244.349 248.338C244.982 248.275 245.616 248.022 246.123 247.453C246.693 246.884 246.947 246.251 246.947 245.619C246.947 244.987 246.693 244.354 246.186 243.912C245.679 243.469 245.172 243.216 244.475 243.279C243.842 243.342 243.271 243.659 242.701 244.228C242.194 244.797 241.877 245.366 241.877 246.062C241.877 246.694 242.067 247.263 242.574 247.769C243.145 248.148 243.715 248.338 244.349 248.338Z" fill="#141414"/>
<path d="M266.908 243.975C266.591 244.418 266.148 244.671 265.704 244.671C265.261 244.734 264.754 244.544 264.31 244.165L259.684 240.497L261.966 237.651L259.431 235.627L257.149 238.473L254.361 236.26L251.763 239.548L254.551 241.762L253.157 243.532L255.692 245.556L257.086 243.785L261.775 247.516C263.106 248.591 264.437 249.034 265.704 248.844C266.972 248.655 268.176 247.896 269.189 246.504C269.57 245.999 269.95 245.43 270.203 244.86C270.457 244.291 270.584 243.722 270.647 243.216L267.605 242.268C267.479 242.9 267.288 243.406 266.908 243.975Z" fill="#141414"/>
<path d="M281.546 234.426C281.292 233.54 280.785 232.655 280.025 231.643L270.203 218.047L268.111 221.525L274.448 230.126L263.866 228.481L261.584 232.212L277.427 234.426L277.49 234.552C277.87 235.121 278.124 235.627 278.187 236.07C278.25 236.513 278.124 237.019 277.807 237.524C277.617 237.904 277.3 238.22 276.92 238.473C276.539 238.726 276.159 238.979 275.779 239.105L277.553 241.951C278.124 241.761 278.757 241.445 279.328 240.939C279.898 240.433 280.405 239.864 280.785 239.232C281.229 238.473 281.545 237.714 281.672 236.955C281.862 236.07 281.799 235.311 281.546 234.426Z" fill="#141414"/>
</svg>
