<svg width="62" height="250" viewBox="0 0 62 250" fill="none" xmlns="http://www.w3.org/2000/svg">
<path d="M17.1926 1.73734C17.5924 1.73734 17.9165 1.41324 17.9165 1.01345C17.9165 0.61365 17.5924 0.289551 17.1926 0.289551C16.7928 0.289551 16.4688 0.61365 16.4688 1.01345C16.4688 1.41324 16.7928 1.73734 17.1926 1.73734Z" fill="#141414"/>
<path d="M33.155 2.02695C33.7147 2.02695 34.1684 1.57319 34.1684 1.01347C34.1684 0.453757 33.7147 0 33.155 0C32.5953 0 32.1416 0.453757 32.1416 1.01347C32.1416 1.57319 32.5953 2.02695 33.155 2.02695Z" fill="#141414"/>
<path d="M1.23085 9.80855C1.69062 9.80855 2.06326 9.43582 2.06326 8.97605C2.06326 8.51629 1.69062 8.14355 1.23085 8.14355C0.771081 8.14355 0.398438 8.51629 0.398438 8.97605C0.398438 9.43582 0.771081 9.80855 1.23085 9.80855Z" fill="#141414"/>
<path d="M9.19288 9.91727C9.71261 9.91727 10.1342 9.49599 10.1342 8.97626C10.1342 8.45652 9.71261 8.03516 9.19288 8.03516C8.67314 8.03516 8.25195 8.45652 8.25195 8.97626C8.25195 9.49599 8.67314 9.91727 9.19288 9.91727Z" fill="#141414"/>
<path d="M17.1923 9.91727C17.712 9.91727 18.1332 9.49599 18.1332 8.97626C18.1332 8.45652 17.712 8.03516 17.1923 8.03516C16.6725 8.03516 16.251 8.45652 16.251 8.97626C16.251 9.49599 16.6725 9.91727 17.1923 9.91727Z" fill="#141414"/>
<path d="M25.1909 9.91727C25.7107 9.91727 26.1318 9.49599 26.1318 8.97626C26.1318 8.45652 25.7107 8.03516 25.1909 8.03516C24.6712 8.03516 24.25 8.45652 24.25 8.97626C24.25 9.49599 24.6712 9.91727 25.1909 9.91727Z" fill="#141414"/>
<path d="M33.1537 9.80855C33.6135 9.80855 33.9861 9.43582 33.9861 8.97605C33.9861 8.51629 33.6135 8.14355 33.1537 8.14355C32.6939 8.14355 32.3213 8.51629 32.3213 8.97605C32.3213 9.43582 32.6939 9.80855 33.1537 9.80855Z" fill="#141414"/>
<path d="M41.1525 9.73599C41.5723 9.73599 41.9128 9.39573 41.9128 8.97595C41.9128 8.55616 41.5723 8.21582 41.1525 8.21582C40.7327 8.21582 40.3926 8.55616 40.3926 8.97595C40.3926 9.39573 40.7327 9.73599 41.1525 9.73599Z" fill="#141414"/>
<path d="M57.1153 10.1711C57.7749 10.1711 58.3096 9.63634 58.3096 8.97667C58.3096 8.31701 57.7749 7.78223 57.1153 7.78223C56.4556 7.78223 55.9209 8.31701 55.9209 8.97667C55.9209 9.63634 56.4556 10.1711 57.1153 10.1711Z" fill="#141414"/>
<path d="M9.19452 17.735C9.61431 17.735 9.95482 17.3947 9.95482 16.9749C9.95482 16.5551 9.61431 16.2148 9.19452 16.2148C8.77473 16.2148 8.43457 16.5551 8.43457 16.9749C8.43457 17.3947 8.77473 17.735 9.19452 17.735Z" fill="#141414"/>
<path d="M1.23065 41.6959C1.65044 41.6959 1.99096 41.3557 1.99096 40.9359C1.99096 40.5161 1.65044 40.1758 1.23065 40.1758C0.810866 40.1758 0.470703 40.5161 0.470703 40.9359C0.470703 41.3557 0.810866 41.6959 1.23065 41.6959Z" fill="#141414"/>
<path d="M17.1926 17.6993C17.5924 17.6993 17.9165 17.3752 17.9165 16.9754C17.9165 16.5756 17.5924 16.2515 17.1926 16.2515C16.7928 16.2515 16.4688 16.5756 16.4688 16.9754C16.4688 17.3752 16.7928 17.6993 17.1926 17.6993Z" fill="#141414"/>
<path d="M25.1921 17.8443C25.6718 17.8443 26.0609 17.4553 26.0609 16.9756C26.0609 16.4958 25.6718 16.1069 25.1921 16.1069C24.7123 16.1069 24.3232 16.4958 24.3232 16.9756C24.3232 17.4553 24.7123 17.8443 25.1921 17.8443Z" fill="#141414"/>
<path d="M33.155 17.9888C33.7147 17.9888 34.1684 17.535 34.1684 16.9753C34.1684 16.4156 33.7147 15.9619 33.155 15.9619C32.5953 15.9619 32.1416 16.4156 32.1416 16.9753C32.1416 17.535 32.5953 17.9888 33.155 17.9888Z" fill="#141414"/>
<path d="M41.153 17.9888C41.7127 17.9888 42.1668 17.535 42.1668 16.9753C42.1668 16.4156 41.7127 15.9619 41.153 15.9619C40.5933 15.9619 40.1396 16.4156 40.1396 16.9753C40.1396 17.535 40.5933 17.9888 41.153 17.9888Z" fill="#141414"/>
<path d="M49.1165 17.8443C49.5963 17.8443 49.9853 17.4553 49.9853 16.9756C49.9853 16.4958 49.5963 16.1069 49.1165 16.1069C48.6368 16.1069 48.248 16.4958 48.248 16.9756C48.248 17.4553 48.6368 17.8443 49.1165 17.8443Z" fill="#141414"/>
<path d="M57.1149 17.8443C57.5947 17.8443 57.9834 17.4553 57.9834 16.9756C57.9834 16.4958 57.5947 16.1069 57.1149 16.1069C56.6352 16.1069 56.2461 16.4958 56.2461 16.9756C56.2461 17.4553 56.6352 17.8443 57.1149 17.8443Z" fill="#141414"/>
<path d="M9.19288 25.8792C9.71261 25.8792 10.1342 25.4578 10.1342 24.9381C10.1342 24.4183 9.71261 23.9971 9.19288 23.9971C8.67314 23.9971 8.25195 24.4183 8.25195 24.9381C8.25195 25.4578 8.67314 25.8792 9.19288 25.8792Z" fill="#141414"/>
<path d="M17.1925 26.0963C17.8322 26.0963 18.3504 25.5777 18.3504 24.938C18.3504 24.2983 17.8322 23.7798 17.1925 23.7798C16.5528 23.7798 16.0342 24.2983 16.0342 24.938C16.0342 25.5777 16.5528 26.0963 17.1925 26.0963Z" fill="#141414"/>
<path d="M25.1921 25.8067C25.6718 25.8067 26.0609 25.4177 26.0609 24.938C26.0609 24.4582 25.6718 24.0693 25.1921 24.0693C24.7123 24.0693 24.3232 24.4582 24.3232 24.938C24.3232 25.4177 24.7123 25.8067 25.1921 25.8067Z" fill="#141414"/>
<path d="M33.1538 25.7342C33.5936 25.7342 33.9501 25.3776 33.9501 24.9379C33.9501 24.4981 33.5936 24.1416 33.1538 24.1416C32.714 24.1416 32.3574 24.4981 32.3574 24.9379C32.3574 25.3776 32.714 25.7342 33.1538 25.7342Z" fill="#141414"/>
<path d="M41.1536 25.8067C41.6334 25.8067 42.0224 25.4177 42.0224 24.938C42.0224 24.4582 41.6334 24.0693 41.1536 24.0693C40.6739 24.0693 40.2852 24.4582 40.2852 24.938C40.2852 25.4177 40.6739 25.8067 41.1536 25.8067Z" fill="#141414"/>
<path d="M49.1165 25.8067C49.5963 25.8067 49.9853 25.4177 49.9853 24.938C49.9853 24.4582 49.5963 24.0693 49.1165 24.0693C48.6368 24.0693 48.248 24.4582 48.248 24.938C48.248 25.4177 48.6368 25.8067 49.1165 25.8067Z" fill="#141414"/>
<path d="M57.1147 25.7342C57.5545 25.7342 57.9111 25.3776 57.9111 24.9379C57.9111 24.4981 57.5545 24.1416 57.1147 24.1416C56.6749 24.1416 56.3184 24.4981 56.3184 24.9379C56.3184 25.3776 56.6749 25.7342 57.1147 25.7342Z" fill="#141414"/>
<path d="M9.19288 33.8783C9.71261 33.8783 10.1342 33.4569 10.1342 32.9372C10.1342 32.4175 9.71261 31.9961 9.19288 31.9961C8.67314 31.9961 8.25195 32.4175 8.25195 32.9372C8.25195 33.4569 8.67314 33.8783 9.19288 33.8783Z" fill="#141414"/>
<path d="M17.1925 34.0952C17.8322 34.0952 18.3504 33.5767 18.3504 32.937C18.3504 32.2974 17.8322 31.7788 17.1925 31.7788C16.5528 31.7788 16.0342 32.2974 16.0342 32.937C16.0342 33.5767 16.5528 34.0952 17.1925 34.0952Z" fill="#141414"/>
<path d="M25.1908 34.276C25.9305 34.276 26.5301 33.6765 26.5301 32.9368C26.5301 32.1972 25.9305 31.5977 25.1908 31.5977C24.4512 31.5977 23.8516 32.1972 23.8516 32.9368C23.8516 33.6765 24.4512 34.276 25.1908 34.276Z" fill="#141414"/>
<path d="M33.1544 34.0952C33.7941 34.0952 34.3127 33.5767 34.3127 32.937C34.3127 32.2974 33.7941 31.7788 33.1544 31.7788C32.5147 31.7788 31.9961 32.2974 31.9961 32.937C31.9961 33.5767 32.5147 34.0952 33.1544 34.0952Z" fill="#141414"/>
<path d="M41.1527 34.4573C41.9923 34.4573 42.673 33.7767 42.673 32.9372C42.673 32.0976 41.9923 31.417 41.1527 31.417C40.3131 31.417 39.6328 32.0976 39.6328 32.9372C39.6328 33.7767 40.3131 34.4573 41.1527 34.4573Z" fill="#141414"/>
<path d="M49.1163 34.276C49.8559 34.276 50.4556 33.6765 50.4556 32.9368C50.4556 32.1972 49.8559 31.5977 49.1163 31.5977C48.3766 31.5977 47.7773 32.1972 47.7773 32.9368C47.7773 33.6765 48.3766 34.276 49.1163 34.276Z" fill="#141414"/>
<path d="M57.1156 34.276C57.8553 34.276 58.4549 33.6765 58.4549 32.9368C58.4549 32.1972 57.8553 31.5977 57.1156 31.5977C56.376 31.5977 55.7764 32.1972 55.7764 32.9368C55.7764 33.6765 56.376 34.276 57.1156 34.276Z" fill="#141414"/>
<path d="M9.19218 41.9136C9.7319 41.9136 10.1695 41.476 10.1695 40.9363C10.1695 40.3966 9.7319 39.959 9.19218 39.959C8.65245 39.959 8.21484 40.3966 8.21484 40.9363C8.21484 41.476 8.65245 41.9136 9.19218 41.9136Z" fill="#141414"/>
<path d="M17.1925 42.0944C17.8322 42.0944 18.3504 41.5758 18.3504 40.9361C18.3504 40.2965 17.8322 39.7778 17.1925 39.7778C16.5528 39.7778 16.0342 40.2965 16.0342 40.9361C16.0342 41.5758 16.5528 42.0944 17.1925 42.0944Z" fill="#141414"/>
<path d="M25.1919 42.3839C25.9915 42.3839 26.6397 41.7357 26.6397 40.9361C26.6397 40.1365 25.9915 39.4883 25.1919 39.4883C24.3923 39.4883 23.7441 40.1365 23.7441 40.9361C23.7441 41.7357 24.3923 42.3839 25.1919 42.3839Z" fill="#141414"/>
<path d="M33.1541 41.9136C33.6938 41.9136 34.1314 41.476 34.1314 40.9363C34.1314 40.3966 33.6938 39.959 33.1541 39.959C32.6144 39.959 32.1768 40.3966 32.1768 40.9363C32.1768 41.476 32.6144 41.9136 33.1541 41.9136Z" fill="#141414"/>
<path d="M41.1529 42.3839C41.9525 42.3839 42.6007 41.7357 42.6007 40.9361C42.6007 40.1365 41.9525 39.4883 41.1529 39.4883C40.3533 39.4883 39.7051 40.1365 39.7051 40.9361C39.7051 41.7357 40.3533 42.3839 41.1529 42.3839Z" fill="#141414"/>
<path d="M49.1162 42.1305C49.7759 42.1305 50.3109 41.5958 50.3109 40.9361C50.3109 40.2765 49.7759 39.7417 49.1162 39.7417C48.4566 39.7417 47.9219 40.2765 47.9219 40.9361C47.9219 41.5958 48.4566 42.1305 49.1162 42.1305Z" fill="#141414"/>
<path d="M57.1153 42.0944C57.755 42.0944 58.2736 41.5758 58.2736 40.9361C58.2736 40.2965 57.755 39.7778 57.1153 39.7778C56.4757 39.7778 55.957 40.2965 55.957 40.9361C55.957 41.5758 56.4757 42.0944 57.1153 42.0944Z" fill="#141414"/>
<path d="M17.1927 50.1297C17.8723 50.1297 18.4231 49.5788 18.4231 48.8991C18.4231 48.2195 17.8723 47.6685 17.1927 47.6685C16.513 47.6685 15.9619 48.2195 15.9619 48.8991C15.9619 49.5788 16.513 50.1297 17.1927 50.1297Z" fill="#141414"/>
<path d="M25.1917 50.1297C25.8714 50.1297 26.4225 49.5788 26.4225 48.8991C26.4225 48.2195 25.8714 47.6685 25.1917 47.6685C24.512 47.6685 23.9609 48.2195 23.9609 48.8991C23.9609 49.5788 24.512 50.1297 25.1917 50.1297Z" fill="#141414"/>
<path d="M33.1536 50.1297C33.8333 50.1297 34.3844 49.5788 34.3844 48.8991C34.3844 48.2195 33.8333 47.6685 33.1536 47.6685C32.474 47.6685 31.9229 48.2195 31.9229 48.8991C31.9229 49.5788 32.474 50.1297 33.1536 50.1297Z" fill="#141414"/>
<path d="M41.1529 50.3468C41.9525 50.3468 42.6007 49.6986 42.6007 48.899C42.6007 48.0994 41.9525 47.4512 41.1529 47.4512C40.3533 47.4512 39.7051 48.0994 39.7051 48.899C39.7051 49.6986 40.3533 50.3468 41.1529 50.3468Z" fill="#141414"/>
<path d="M49.1165 49.7676C49.5963 49.7676 49.9853 49.3788 49.9853 48.899C49.9853 48.4192 49.5963 48.0303 49.1165 48.0303C48.6368 48.0303 48.248 48.4192 48.248 48.899C48.248 49.3788 48.6368 49.7676 49.1165 49.7676Z" fill="#141414"/>
<path d="M57.1156 50.2385C57.8553 50.2385 58.4549 49.639 58.4549 48.8993C58.4549 48.1597 57.8553 47.5601 57.1156 47.5601C56.376 47.5601 55.7764 48.1597 55.7764 48.8993C55.7764 49.639 56.376 50.2385 57.1156 50.2385Z" fill="#141414"/>
<path d="M17.1923 57.8391C17.712 57.8391 18.1332 57.4178 18.1332 56.898C18.1332 56.3783 17.712 55.957 17.1923 55.957C16.6725 55.957 16.251 56.3783 16.251 56.898C16.251 57.4178 16.6725 57.8391 17.1923 57.8391Z" fill="#141414"/>
<path d="M25.1909 57.8391C25.7107 57.8391 26.1318 57.4178 26.1318 56.898C26.1318 56.3783 25.7107 55.957 25.1909 55.957C24.6712 55.957 24.25 56.3783 24.25 56.898C24.25 57.4178 24.6712 57.8391 25.1909 57.8391Z" fill="#141414"/>
<path d="M33.1548 57.8391C33.6745 57.8391 34.0957 57.4178 34.0957 56.898C34.0957 56.3783 33.6745 55.957 33.1548 55.957C32.6351 55.957 32.2139 56.3783 32.2139 56.898C32.2139 57.4178 32.6351 57.8391 33.1548 57.8391Z" fill="#141414"/>
<path d="M41.1532 57.9842C41.7529 57.9842 42.2391 57.498 42.2391 56.8983C42.2391 56.2986 41.7529 55.8125 41.1532 55.8125C40.5535 55.8125 40.0674 56.2986 40.0674 56.8983C40.0674 57.498 40.5535 57.9842 41.1532 57.9842Z" fill="#141414"/>
<path d="M49.1162 58.0925C49.7759 58.0925 50.3109 57.5577 50.3109 56.8981C50.3109 56.2384 49.7759 55.7036 49.1162 55.7036C48.4566 55.7036 47.9219 56.2384 47.9219 56.8981C47.9219 57.5577 48.4566 58.0925 49.1162 58.0925Z" fill="#141414"/>
<path d="M57.1158 58.3458C57.9154 58.3458 58.5636 57.6976 58.5636 56.898C58.5636 56.0984 57.9154 55.4502 57.1158 55.4502C56.3162 55.4502 55.668 56.0984 55.668 56.898C55.668 57.6976 56.3162 58.3458 57.1158 58.3458Z" fill="#141414"/>
<path d="M9.19288 65.802C9.71261 65.802 10.1342 65.3807 10.1342 64.8609C10.1342 64.3412 9.71261 63.9199 9.19288 63.9199C8.67314 63.9199 8.25195 64.3412 8.25195 64.8609C8.25195 65.3807 8.67314 65.802 9.19288 65.802Z" fill="#141414"/>
<path d="M17.1927 66.0912C17.8723 66.0912 18.4231 65.5401 18.4231 64.8605C18.4231 64.1808 17.8723 63.6299 17.1927 63.6299C16.513 63.6299 15.9619 64.1808 15.9619 64.8605C15.9619 65.5401 16.513 66.0912 17.1927 66.0912Z" fill="#141414"/>
<path d="M1.23041 82.0536C1.91007 82.0536 2.46118 81.5026 2.46118 80.823C2.46118 80.1433 1.91007 79.5923 1.23041 79.5923C0.550757 79.5923 0 80.1433 0 80.823C0 81.5026 0.550757 82.0536 1.23041 82.0536Z" fill="#141414"/>
<path d="M1.23041 121.976C1.91007 121.976 2.46118 121.425 2.46118 120.745C2.46118 120.066 1.91007 119.515 1.23041 119.515C0.550757 119.515 0 120.066 0 120.745C0 121.425 0.550757 121.976 1.23041 121.976Z" fill="#141414"/>
<path d="M25.1917 66.0912C25.8714 66.0912 26.4225 65.5401 26.4225 64.8605C26.4225 64.1808 25.8714 63.6299 25.1917 63.6299C24.512 63.6299 23.9609 64.1808 23.9609 64.8605C23.9609 65.5401 24.512 66.0912 25.1917 66.0912Z" fill="#141414"/>
<path d="M33.154 66.3812C33.9936 66.3812 34.6743 65.7006 34.6743 64.861C34.6743 64.0214 33.9936 63.3408 33.154 63.3408C32.3145 63.3408 31.6338 64.0214 31.6338 64.861C31.6338 65.7006 32.3145 66.3812 33.154 66.3812Z" fill="#141414"/>
<path d="M41.1529 66.3087C41.9525 66.3087 42.6007 65.6605 42.6007 64.8609C42.6007 64.0613 41.9525 63.4131 41.1529 63.4131C40.3533 63.4131 39.7051 64.0613 39.7051 64.8609C39.7051 65.6605 40.3533 66.3087 41.1529 66.3087Z" fill="#141414"/>
<path d="M49.1165 65.7296C49.5963 65.7296 49.9853 65.3406 49.9853 64.8608C49.9853 64.3811 49.5963 63.9922 49.1165 63.9922C48.6368 63.9922 48.248 64.3811 48.248 64.8608C48.248 65.3406 48.6368 65.7296 49.1165 65.7296Z" fill="#141414"/>
<path d="M57.1158 66.3087C57.9154 66.3087 58.5636 65.6605 58.5636 64.8609C58.5636 64.0613 57.9154 63.4131 57.1158 63.4131C56.3162 63.4131 55.668 64.0613 55.668 64.8609C55.668 65.6605 56.3162 66.3087 57.1158 66.3087Z" fill="#141414"/>
<path d="M57.1155 82.741C58.175 82.741 59.0338 81.8821 59.0338 80.8226C59.0338 79.7632 58.175 78.9043 57.1155 78.9043C56.0561 78.9043 55.1973 79.7632 55.1973 80.8226C55.1973 81.8821 56.0561 82.741 57.1155 82.741Z" fill="#141414"/>
<path d="M49.1159 82.3789C49.9754 82.3789 50.6725 81.6821 50.6725 80.8225C50.6725 79.9629 49.9754 79.2661 49.1159 79.2661C48.2563 79.2661 47.5596 79.9629 47.5596 80.8225C47.5596 81.6821 48.2563 82.3789 49.1159 82.3789Z" fill="#141414"/>
<path d="M41.1535 82.6322C42.153 82.6322 42.9632 81.8219 42.9632 80.8224C42.9632 79.8229 42.153 79.0127 41.1535 79.0127C40.154 79.0127 39.3438 79.8229 39.3438 80.8224C39.3438 81.8219 40.154 82.6322 41.1535 82.6322Z" fill="#141414"/>
<path d="M33.1541 82.4876C34.0736 82.4876 34.8189 81.7422 34.8189 80.8227C34.8189 79.9032 34.0736 79.1577 33.1541 79.1577C32.2345 79.1577 31.4893 79.9032 31.4893 80.8227C31.4893 81.7422 32.2345 82.4876 33.1541 82.4876Z" fill="#141414"/>
<path d="M25.192 82.3789C26.0516 82.3789 26.7484 81.6821 26.7484 80.8225C26.7484 79.9629 26.0516 79.2661 25.192 79.2661C24.3325 79.2661 23.6357 79.9629 23.6357 80.8225C23.6357 81.6821 24.3325 82.3789 25.192 82.3789Z" fill="#141414"/>
<path d="M17.1915 82.4876C18.1111 82.4876 18.8564 81.7422 18.8564 80.8227C18.8564 79.9032 18.1111 79.1577 17.1915 79.1577C16.272 79.1577 15.5264 79.9032 15.5264 80.8227C15.5264 81.7422 16.272 82.4876 17.1915 82.4876Z" fill="#141414"/>
<path d="M9.19284 81.6189C9.63262 81.6189 9.9892 81.2624 9.9892 80.8226C9.9892 80.3829 9.63262 80.0264 9.19284 80.0264C8.75306 80.0264 8.39648 80.3829 8.39648 80.8226C8.39648 81.2624 8.75306 81.6189 9.19284 81.6189Z" fill="#141414"/>
<path d="M57.1155 90.7399C58.175 90.7399 59.0338 89.881 59.0338 88.8216C59.0338 87.7621 58.175 86.9033 57.1155 86.9033C56.0561 86.9033 55.1973 87.7621 55.1973 88.8216C55.1973 89.881 56.0561 90.7399 57.1155 90.7399Z" fill="#141414"/>
<path d="M49.116 90.4866C50.0355 90.4866 50.7812 89.7412 50.7812 88.8216C50.7812 87.9021 50.0355 87.1567 49.116 87.1567C48.1965 87.1567 47.4512 87.9021 47.4512 88.8216C47.4512 89.7412 48.1965 90.4866 49.116 90.4866Z" fill="#141414"/>
<path d="M41.1535 90.6317C42.153 90.6317 42.9632 89.8214 42.9632 88.8219C42.9632 87.8225 42.153 87.0122 41.1535 87.0122C40.154 87.0122 39.3438 87.8225 39.3438 88.8219C39.3438 89.8214 40.154 90.6317 41.1535 90.6317Z" fill="#141414"/>
<path d="M33.1536 90.7399C34.2131 90.7399 35.0719 89.881 35.0719 88.8216C35.0719 87.7621 34.2131 86.9033 33.1536 86.9033C32.0941 86.9033 31.2354 87.7621 31.2354 88.8216C31.2354 89.881 32.0941 90.7399 33.1536 90.7399Z" fill="#141414"/>
<path d="M25.1917 90.7399C26.2512 90.7399 27.11 89.881 27.11 88.8216C27.11 87.7621 26.2512 86.9033 25.1917 86.9033C24.1322 86.9033 23.2734 87.7621 23.2734 88.8216C23.2734 89.881 24.1322 90.7399 25.1917 90.7399Z" fill="#141414"/>
<path d="M17.1915 90.4866C18.1111 90.4866 18.8564 89.7412 18.8564 88.8216C18.8564 87.9021 18.1111 87.1567 17.1915 87.1567C16.272 87.1567 15.5264 87.9021 15.5264 88.8216C15.5264 89.7412 16.272 90.4866 17.1915 90.4866Z" fill="#141414"/>
<path d="M9.19284 89.618C9.63262 89.618 9.9892 89.2614 9.9892 88.8217C9.9892 88.3819 9.63262 88.0254 9.19284 88.0254C8.75306 88.0254 8.39648 88.3819 8.39648 88.8217C8.39648 89.2614 8.75306 89.618 9.19284 89.618Z" fill="#141414"/>
<path d="M57.1155 74.7781C58.175 74.7781 59.0338 73.9192 59.0338 72.8598C59.0338 71.8003 58.175 70.9414 57.1155 70.9414C56.0561 70.9414 55.1973 71.8003 55.1973 72.8598C55.1973 73.9192 56.0561 74.7781 57.1155 74.7781Z" fill="#141414"/>
<path d="M49.1159 74.4165C49.9754 74.4165 50.6725 73.7197 50.6725 72.8601C50.6725 72.0005 49.9754 71.3037 49.1159 71.3037C48.2563 71.3037 47.5596 72.0005 47.5596 72.8601C47.5596 73.7197 48.2563 74.4165 49.1159 74.4165Z" fill="#141414"/>
<path d="M41.1535 74.6698C42.153 74.6698 42.9632 73.8595 42.9632 72.86C42.9632 71.8605 42.153 71.0503 41.1535 71.0503C40.154 71.0503 39.3438 71.8605 39.3438 72.86C39.3438 73.8595 40.154 74.6698 41.1535 74.6698Z" fill="#141414"/>
<path d="M33.1541 74.5247C34.0736 74.5247 34.8189 73.7794 34.8189 72.8598C34.8189 71.9403 34.0736 71.1948 33.1541 71.1948C32.2345 71.1948 31.4893 71.9403 31.4893 72.8598C31.4893 73.7794 32.2345 74.5247 33.1541 74.5247Z" fill="#141414"/>
<path d="M25.192 74.4165C26.0516 74.4165 26.7484 73.7197 26.7484 72.8601C26.7484 72.0005 26.0516 71.3037 25.192 71.3037C24.3325 71.3037 23.6357 72.0005 23.6357 72.8601C23.6357 73.7197 24.3325 74.4165 25.192 74.4165Z" fill="#141414"/>
<path d="M17.1915 74.5247C18.1111 74.5247 18.8564 73.7794 18.8564 72.8598C18.8564 71.9403 18.1111 71.1948 17.1915 71.1948C16.272 71.1948 15.5264 71.9403 15.5264 72.8598C15.5264 73.7794 16.272 74.5247 17.1915 74.5247Z" fill="#141414"/>
<path d="M9.19284 73.656C9.63262 73.656 9.9892 73.2995 9.9892 72.8597C9.9892 72.42 9.63262 72.0635 9.19284 72.0635C8.75306 72.0635 8.39648 72.42 8.39648 72.8597C8.39648 73.2995 8.75306 73.656 9.19284 73.656Z" fill="#141414"/>
<path d="M1.22995 73.656C1.66973 73.656 2.02631 73.2995 2.02631 72.8597C2.02631 72.42 1.66973 72.0635 1.22995 72.0635C0.790174 72.0635 0.433594 72.42 0.433594 72.8597C0.433594 73.2995 0.790174 73.656 1.22995 73.656Z" fill="#141414"/>
<path d="M57.1155 98.739C58.175 98.739 59.0338 97.8802 59.0338 96.8207C59.0338 95.7612 58.175 94.9023 57.1155 94.9023C56.0561 94.9023 55.1973 95.7612 55.1973 96.8207C55.1973 97.8802 56.0561 98.739 57.1155 98.739Z" fill="#141414"/>
<path d="M49.1164 98.7752C50.1959 98.7752 51.0711 97.9001 51.0711 96.8207C51.0711 95.7412 50.1959 94.8662 49.1164 94.8662C48.037 94.8662 47.1621 95.7412 47.1621 96.8207C47.1621 97.9001 48.037 98.7752 49.1164 98.7752Z" fill="#141414"/>
<path d="M41.1535 98.6302C42.153 98.6302 42.9632 97.82 42.9632 96.8205C42.9632 95.821 42.153 95.0107 41.1535 95.0107C40.154 95.0107 39.3438 95.821 39.3438 96.8205C39.3438 97.82 40.154 98.6302 41.1535 98.6302Z" fill="#141414"/>
<path d="M33.1541 98.4858C34.0736 98.4858 34.8189 97.7403 34.8189 96.8208C34.8189 95.9012 34.0736 95.1558 33.1541 95.1558C32.2345 95.1558 31.4893 95.9012 31.4893 96.8208C31.4893 97.7403 32.2345 98.4858 33.1541 98.4858Z" fill="#141414"/>
<path d="M25.192 98.9203C26.3514 98.9203 27.2912 97.9804 27.2912 96.821C27.2912 95.6616 26.3514 94.7217 25.192 94.7217C24.0326 94.7217 23.0928 95.6616 23.0928 96.821C23.0928 97.9804 24.0326 98.9203 25.192 98.9203Z" fill="#141414"/>
<path d="M17.1915 98.4858C18.1111 98.4858 18.8564 97.7403 18.8564 96.8208C18.8564 95.9012 18.1111 95.1558 17.1915 95.1558C16.272 95.1558 15.5264 95.9012 15.5264 96.8208C15.5264 97.7403 16.272 98.4858 17.1915 98.4858Z" fill="#141414"/>
<path d="M9.19284 97.617C9.63262 97.617 9.9892 97.2605 9.9892 96.8207C9.9892 96.3809 9.63262 96.0244 9.19284 96.0244C8.75306 96.0244 8.39648 96.3809 8.39648 96.8207C8.39648 97.2605 8.75306 97.617 9.19284 97.617Z" fill="#141414"/>
<path d="M1.22995 105.58C1.66973 105.58 2.02631 105.223 2.02631 104.784C2.02631 104.344 1.66973 103.987 1.22995 103.987C0.790174 103.987 0.433594 104.344 0.433594 104.784C0.433594 105.223 0.790174 105.58 1.22995 105.58Z" fill="#141414"/>
<path d="M57.1155 106.702C58.175 106.702 59.0338 105.843 59.0338 104.784C59.0338 103.724 58.175 102.865 57.1155 102.865C56.0561 102.865 55.1973 103.724 55.1973 104.784C55.1973 105.843 56.0561 106.702 57.1155 106.702Z" fill="#141414"/>
<path d="M49.1164 106.594C50.1159 106.594 50.9261 105.783 50.9261 104.784C50.9261 103.784 50.1159 102.974 49.1164 102.974C48.1169 102.974 47.3066 103.784 47.3066 104.784C47.3066 105.783 48.1169 106.594 49.1164 106.594Z" fill="#141414"/>
<path d="M41.1535 106.594C42.153 106.594 42.9632 105.783 42.9632 104.784C42.9632 103.784 42.153 102.974 41.1535 102.974C40.154 102.974 39.3438 103.784 39.3438 104.784C39.3438 105.783 40.154 106.594 41.1535 106.594Z" fill="#141414"/>
<path d="M33.1535 106.594C34.153 106.594 34.9632 105.783 34.9632 104.784C34.9632 103.784 34.153 102.974 33.1535 102.974C32.154 102.974 31.3438 103.784 31.3438 104.784C31.3438 105.783 32.154 106.594 33.1535 106.594Z" fill="#141414"/>
<path d="M25.192 106.34C26.0516 106.34 26.7484 105.643 26.7484 104.784C26.7484 103.924 26.0516 103.228 25.192 103.228C24.3325 103.228 23.6357 103.924 23.6357 104.784C23.6357 105.643 24.3325 106.34 25.192 106.34Z" fill="#141414"/>
<path d="M17.1915 106.449C18.1111 106.449 18.8564 105.703 18.8564 104.784C18.8564 103.864 18.1111 103.119 17.1915 103.119C16.272 103.119 15.5264 103.864 15.5264 104.784C15.5264 105.703 16.272 106.449 17.1915 106.449Z" fill="#141414"/>
<path d="M9.19284 105.58C9.63262 105.58 9.9892 105.223 9.9892 104.784C9.9892 104.344 9.63262 103.987 9.19284 103.987C8.75306 103.987 8.39648 104.344 8.39648 104.784C8.39648 105.223 8.75306 105.58 9.19284 105.58Z" fill="#141414"/>
<path d="M57.1155 114.701C58.175 114.701 59.0338 113.842 59.0338 112.783C59.0338 111.723 58.175 110.864 57.1155 110.864C56.0561 110.864 55.1973 111.723 55.1973 112.783C55.1973 113.842 56.0561 114.701 57.1155 114.701Z" fill="#141414"/>
<path d="M49.116 114.448C50.0355 114.448 50.7812 113.702 50.7812 112.783C50.7812 111.863 50.0355 111.118 49.116 111.118C48.1965 111.118 47.4512 111.863 47.4512 112.783C47.4512 113.702 48.1965 114.448 49.116 114.448Z" fill="#141414"/>
<path d="M41.1535 114.593C42.153 114.593 42.9632 113.782 42.9632 112.783C42.9632 111.783 42.153 110.973 41.1535 110.973C40.154 110.973 39.3438 111.783 39.3438 112.783C39.3438 113.782 40.154 114.593 41.1535 114.593Z" fill="#141414"/>
<path d="M33.1536 114.701C34.2131 114.701 35.0719 113.842 35.0719 112.783C35.0719 111.723 34.2131 110.864 33.1536 110.864C32.0941 110.864 31.2354 111.723 31.2354 112.783C31.2354 113.842 32.0941 114.701 33.1536 114.701Z" fill="#141414"/>
<path d="M25.1917 114.701C26.2512 114.701 27.11 113.842 27.11 112.783C27.11 111.723 26.2512 110.864 25.1917 110.864C24.1322 110.864 23.2734 111.723 23.2734 112.783C23.2734 113.842 24.1322 114.701 25.1917 114.701Z" fill="#141414"/>
<path d="M17.1915 114.448C18.1111 114.448 18.8564 113.702 18.8564 112.783C18.8564 111.863 18.1111 111.118 17.1915 111.118C16.272 111.118 15.5264 111.863 15.5264 112.783C15.5264 113.702 16.272 114.448 17.1915 114.448Z" fill="#141414"/>
<path d="M9.19284 113.579C9.63262 113.579 9.9892 113.222 9.9892 112.783C9.9892 112.343 9.63262 111.986 9.19284 111.986C8.75306 111.986 8.39648 112.343 8.39648 112.783C8.39648 113.222 8.75306 113.579 9.19284 113.579Z" fill="#141414"/>
<path d="M57.1155 122.664C58.175 122.664 59.0338 121.805 59.0338 120.745C59.0338 119.686 58.175 118.827 57.1155 118.827C56.0561 118.827 55.1973 119.686 55.1973 120.745C55.1973 121.805 56.0561 122.664 57.1155 122.664Z" fill="#141414"/>
<path d="M49.1155 122.664C50.175 122.664 51.0341 121.805 51.0341 120.745C51.0341 119.686 50.175 118.827 49.1155 118.827C48.0561 118.827 47.1973 119.686 47.1973 120.745C47.1973 121.805 48.0561 122.664 49.1155 122.664Z" fill="#141414"/>
<path d="M41.1535 122.555C42.153 122.555 42.9632 121.745 42.9632 120.745C42.9632 119.746 42.153 118.936 41.1535 118.936C40.154 118.936 39.3438 119.746 39.3438 120.745C39.3438 121.745 40.154 122.555 41.1535 122.555Z" fill="#141414"/>
<path d="M33.1537 122.773C34.2732 122.773 35.1805 121.865 35.1805 120.746C35.1805 119.626 34.2732 118.719 33.1537 118.719C32.0343 118.719 31.127 119.626 31.127 120.746C31.127 121.865 32.0343 122.773 33.1537 122.773Z" fill="#141414"/>
<path d="M25.1916 122.555C26.1911 122.555 27.0013 121.745 27.0013 120.745C27.0013 119.746 26.1911 118.936 25.1916 118.936C24.1921 118.936 23.3818 119.746 23.3818 120.745C23.3818 121.745 24.1921 122.555 25.1916 122.555Z" fill="#141414"/>
<path d="M17.1915 122.41C18.1111 122.41 18.8564 121.665 18.8564 120.746C18.8564 119.826 18.1111 119.081 17.1915 119.081C16.272 119.081 15.5264 119.826 15.5264 120.746C15.5264 121.665 16.272 122.41 17.1915 122.41Z" fill="#141414"/>
<path d="M9.19284 121.542C9.63262 121.542 9.9892 121.185 9.9892 120.746C9.9892 120.306 9.63262 119.949 9.19284 119.949C8.75306 119.949 8.39648 120.306 8.39648 120.746C8.39648 121.185 8.75306 121.542 9.19284 121.542Z" fill="#141414"/>
<path d="M1.23065 209.35C1.65044 209.35 1.99096 209.01 1.99096 208.59C1.99096 208.17 1.65044 207.83 1.23065 207.83C0.810866 207.83 0.470703 208.17 0.470703 208.59C0.470703 209.01 0.810866 209.35 1.23065 209.35Z" fill="#141414"/>
<path d="M1.23041 169.898C1.91007 169.898 2.46118 169.347 2.46118 168.667C2.46118 167.987 1.91007 167.437 1.23041 167.437C0.550757 167.437 0 167.987 0 168.667C0 169.347 0.550757 169.898 1.23041 169.898Z" fill="#141414"/>
<path d="M1.23041 129.975C1.91007 129.975 2.46118 129.424 2.46118 128.744C2.46118 128.065 1.91007 127.514 1.23041 127.514C0.550757 127.514 0 128.065 0 128.744C0 129.424 0.550757 129.975 1.23041 129.975Z" fill="#141414"/>
<path d="M1.22995 177.462C1.66973 177.462 2.02631 177.106 2.02631 176.666C2.02631 176.226 1.66973 175.87 1.22995 175.87C0.790174 175.87 0.433594 176.226 0.433594 176.666C0.433594 177.106 0.790174 177.462 1.22995 177.462Z" fill="#141414"/>
<path d="M1.22995 145.503C1.66973 145.503 2.02631 145.146 2.02631 144.706C2.02631 144.267 1.66973 143.91 1.22995 143.91C0.790174 143.91 0.433594 144.267 0.433594 144.706C0.433594 145.146 0.790174 145.503 1.22995 145.503Z" fill="#141414"/>
<path d="M57.1155 162.623C58.175 162.623 59.0338 161.764 59.0338 160.704C59.0338 159.645 58.175 158.786 57.1155 158.786C56.0561 158.786 55.1973 159.645 55.1973 160.704C55.1973 161.764 56.0561 162.623 57.1155 162.623Z" fill="#141414"/>
<path d="M49.116 162.369C50.0355 162.369 50.7812 161.624 50.7812 160.704C50.7812 159.785 50.0355 159.039 49.116 159.039C48.1965 159.039 47.4512 159.785 47.4512 160.704C47.4512 161.624 48.1965 162.369 49.116 162.369Z" fill="#141414"/>
<path d="M41.1535 162.514C42.153 162.514 42.9632 161.704 42.9632 160.704C42.9632 159.705 42.153 158.895 41.1535 158.895C40.154 158.895 39.3438 159.705 39.3438 160.704C39.3438 161.704 40.154 162.514 41.1535 162.514Z" fill="#141414"/>
<path d="M33.1536 162.623C34.2131 162.623 35.0719 161.764 35.0719 160.704C35.0719 159.645 34.2131 158.786 33.1536 158.786C32.0941 158.786 31.2354 159.645 31.2354 160.704C31.2354 161.764 32.0941 162.623 33.1536 162.623Z" fill="#141414"/>
<path d="M25.1919 162.189C26.0114 162.189 26.6757 161.524 26.6757 160.705C26.6757 159.885 26.0114 159.221 25.1919 159.221C24.3723 159.221 23.708 159.885 23.708 160.705C23.708 161.524 24.3723 162.189 25.1919 162.189Z" fill="#141414"/>
<path d="M17.1915 162.369C18.1111 162.369 18.8564 161.624 18.8564 160.704C18.8564 159.785 18.1111 159.039 17.1915 159.039C16.272 159.039 15.5264 159.785 15.5264 160.704C15.5264 161.624 16.272 162.369 17.1915 162.369Z" fill="#141414"/>
<path d="M9.19284 161.501C9.63262 161.501 9.9892 161.144 9.9892 160.704C9.9892 160.265 9.63262 159.908 9.19284 159.908C8.75306 159.908 8.39648 160.265 8.39648 160.704C8.39648 161.144 8.75306 161.501 9.19284 161.501Z" fill="#141414"/>
<path d="M57.1155 154.624C58.175 154.624 59.0338 153.765 59.0338 152.705C59.0338 151.646 58.175 150.787 57.1155 150.787C56.0561 150.787 55.1973 151.646 55.1973 152.705C55.1973 153.765 56.0561 154.624 57.1155 154.624Z" fill="#141414"/>
<path d="M49.1152 154.442C50.0747 154.442 50.8528 153.665 50.8528 152.705C50.8528 151.746 50.0747 150.968 49.1152 150.968C48.1557 150.968 47.3779 151.746 47.3779 152.705C47.3779 153.665 48.1557 154.442 49.1152 154.442Z" fill="#141414"/>
<path d="M41.1535 154.515C42.153 154.515 42.9632 153.705 42.9632 152.705C42.9632 151.706 42.153 150.896 41.1535 150.896C40.154 150.896 39.3438 151.706 39.3438 152.705C39.3438 153.705 40.154 154.515 41.1535 154.515Z" fill="#141414"/>
<path d="M33.1541 154.37C34.0736 154.37 34.8189 153.625 34.8189 152.705C34.8189 151.786 34.0736 151.041 33.1541 151.041C32.2345 151.041 31.4893 151.786 31.4893 152.705C31.4893 153.625 32.2345 154.37 33.1541 154.37Z" fill="#141414"/>
<path d="M25.1919 154.189C26.0114 154.189 26.6757 153.525 26.6757 152.705C26.6757 151.886 26.0114 151.221 25.1919 151.221C24.3723 151.221 23.708 151.886 23.708 152.705C23.708 153.525 24.3723 154.189 25.1919 154.189Z" fill="#141414"/>
<path d="M17.1915 154.37C18.1111 154.37 18.8564 153.625 18.8564 152.705C18.8564 151.786 18.1111 151.041 17.1915 151.041C16.272 151.041 15.5264 151.786 15.5264 152.705C15.5264 153.625 16.272 154.37 17.1915 154.37Z" fill="#141414"/>
<path d="M9.19284 153.502C9.63262 153.502 9.9892 153.145 9.9892 152.705C9.9892 152.266 9.63262 151.909 9.19284 151.909C8.75306 151.909 8.39648 152.266 8.39648 152.705C8.39648 153.145 8.75306 153.502 9.19284 153.502Z" fill="#141414"/>
<path d="M57.1155 146.625C58.175 146.625 59.0338 145.766 59.0338 144.706C59.0338 143.647 58.175 142.788 57.1155 142.788C56.0561 142.788 55.1973 143.647 55.1973 144.706C55.1973 145.766 56.0561 146.625 57.1155 146.625Z" fill="#141414"/>
<path d="M49.116 146.371C50.0355 146.371 50.7812 145.626 50.7812 144.706C50.7812 143.786 50.0355 143.041 49.116 143.041C48.1965 143.041 47.4512 143.786 47.4512 144.706C47.4512 145.626 48.1965 146.371 49.116 146.371Z" fill="#141414"/>
<path d="M41.1535 146.516C42.153 146.516 42.9632 145.706 42.9632 144.706C42.9632 143.707 42.153 142.896 41.1535 142.896C40.154 142.896 39.3438 143.707 39.3438 144.706C39.3438 145.706 40.154 146.516 41.1535 146.516Z" fill="#141414"/>
<path d="M33.1543 146.443C34.1138 146.443 34.8916 145.666 34.8916 144.706C34.8916 143.747 34.1138 142.969 33.1543 142.969C32.1948 142.969 31.417 143.747 31.417 144.706C31.417 145.666 32.1948 146.443 33.1543 146.443Z" fill="#141414"/>
<path d="M25.192 146.263C26.0516 146.263 26.7484 145.566 26.7484 144.707C26.7484 143.847 26.0516 143.15 25.192 143.15C24.3325 143.15 23.6357 143.847 23.6357 144.707C23.6357 145.566 24.3325 146.263 25.192 146.263Z" fill="#141414"/>
<path d="M17.1915 146.371C18.1111 146.371 18.8564 145.626 18.8564 144.706C18.8564 143.786 18.1111 143.041 17.1915 143.041C16.272 143.041 15.5264 143.786 15.5264 144.706C15.5264 145.626 16.272 146.371 17.1915 146.371Z" fill="#141414"/>
<path d="M9.19284 145.503C9.63262 145.503 9.9892 145.146 9.9892 144.706C9.9892 144.267 9.63262 143.91 9.19284 143.91C8.75306 143.91 8.39648 144.267 8.39648 144.706C8.39648 145.146 8.75306 145.503 9.19284 145.503Z" fill="#141414"/>
<path d="M57.1155 138.662C58.175 138.662 59.0338 137.803 59.0338 136.744C59.0338 135.684 58.175 134.825 57.1155 134.825C56.0561 134.825 55.1973 135.684 55.1973 136.744C55.1973 137.803 56.0561 138.662 57.1155 138.662Z" fill="#141414"/>
<path d="M49.116 138.409C50.0355 138.409 50.7812 137.663 50.7812 136.744C50.7812 135.824 50.0355 135.079 49.116 135.079C48.1965 135.079 47.4512 135.824 47.4512 136.744C47.4512 137.663 48.1965 138.409 49.116 138.409Z" fill="#141414"/>
<path d="M41.1535 138.553C42.153 138.553 42.9632 137.743 42.9632 136.743C42.9632 135.744 42.153 134.934 41.1535 134.934C40.154 134.934 39.3438 135.744 39.3438 136.743C39.3438 137.743 40.154 138.553 41.1535 138.553Z" fill="#141414"/>
<path d="M33.1536 138.662C34.2131 138.662 35.0719 137.803 35.0719 136.744C35.0719 135.684 34.2131 134.825 33.1536 134.825C32.0941 134.825 31.2354 135.684 31.2354 136.744C31.2354 137.803 32.0941 138.662 33.1536 138.662Z" fill="#141414"/>
<path d="M25.1917 138.662C26.2512 138.662 27.11 137.803 27.11 136.744C27.11 135.684 26.2512 134.825 25.1917 134.825C24.1322 134.825 23.2734 135.684 23.2734 136.744C23.2734 137.803 24.1322 138.662 25.1917 138.662Z" fill="#141414"/>
<path d="M17.1915 138.409C18.1111 138.409 18.8564 137.663 18.8564 136.744C18.8564 135.824 18.1111 135.079 17.1915 135.079C16.272 135.079 15.5264 135.824 15.5264 136.744C15.5264 137.663 16.272 138.409 17.1915 138.409Z" fill="#141414"/>
<path d="M9.19284 137.54C9.63262 137.54 9.9892 137.183 9.9892 136.744C9.9892 136.304 9.63262 135.947 9.19284 135.947C8.75306 135.947 8.39648 136.304 8.39648 136.744C8.39648 137.183 8.75306 137.54 9.19284 137.54Z" fill="#141414"/>
<path d="M57.1155 130.663C58.175 130.663 59.0338 129.804 59.0338 128.745C59.0338 127.685 58.175 126.826 57.1155 126.826C56.0561 126.826 55.1973 127.685 55.1973 128.745C55.1973 129.804 56.0561 130.663 57.1155 130.663Z" fill="#141414"/>
<path d="M49.1155 130.663C50.175 130.663 51.0341 129.804 51.0341 128.745C51.0341 127.685 50.175 126.826 49.1155 126.826C48.0561 126.826 47.1973 127.685 47.1973 128.745C47.1973 129.804 48.0561 130.663 49.1155 130.663Z" fill="#141414"/>
<path d="M41.1535 130.554C42.153 130.554 42.9632 129.744 42.9632 128.744C42.9632 127.745 42.153 126.935 41.1535 126.935C40.154 126.935 39.3438 127.745 39.3438 128.744C39.3438 129.744 40.154 130.554 41.1535 130.554Z" fill="#141414"/>
<path d="M33.1537 130.772C34.2732 130.772 35.1805 129.864 35.1805 128.745C35.1805 127.625 34.2732 126.718 33.1537 126.718C32.0343 126.718 31.127 127.625 31.127 128.745C31.127 129.864 32.0343 130.772 33.1537 130.772Z" fill="#141414"/>
<path d="M25.1916 130.554C26.1911 130.554 27.0013 129.744 27.0013 128.744C27.0013 127.745 26.1911 126.935 25.1916 126.935C24.1921 126.935 23.3818 127.745 23.3818 128.744C23.3818 129.744 24.1921 130.554 25.1916 130.554Z" fill="#141414"/>
<path d="M17.1915 130.409C18.1111 130.409 18.8564 129.664 18.8564 128.744C18.8564 127.825 18.1111 127.08 17.1915 127.08C16.272 127.08 15.5264 127.825 15.5264 128.744C15.5264 129.664 16.272 130.409 17.1915 130.409Z" fill="#141414"/>
<path d="M9.19284 129.541C9.63262 129.541 9.9892 129.184 9.9892 128.745C9.9892 128.305 9.63262 127.948 9.19284 127.948C8.75306 127.948 8.39648 128.305 8.39648 128.745C8.39648 129.184 8.75306 129.541 9.19284 129.541Z" fill="#141414"/>
<path d="M17.1926 249.237C17.5924 249.237 17.9165 248.913 17.9165 248.513C17.9165 248.113 17.5924 247.789 17.1926 247.789C16.7928 247.789 16.4688 248.113 16.4688 248.513C16.4688 248.913 16.7928 249.237 17.1926 249.237Z" fill="#141414"/>
<path d="M33.155 249.526C33.7147 249.526 34.1684 249.072 34.1684 248.512C34.1684 247.953 33.7147 247.499 33.155 247.499C32.5953 247.499 32.1416 247.953 32.1416 248.512C32.1416 249.072 32.5953 249.526 33.155 249.526Z" fill="#141414"/>
<path d="M1.23085 241.347C1.69062 241.347 2.06326 240.974 2.06326 240.514C2.06326 240.054 1.69062 239.682 1.23085 239.682C0.771081 239.682 0.398438 240.054 0.398438 240.514C0.398438 240.974 0.771081 241.347 1.23085 241.347Z" fill="#141414"/>
<path d="M9.19288 241.454C9.71261 241.454 10.1342 241.033 10.1342 240.513C10.1342 239.994 9.71261 239.572 9.19288 239.572C8.67314 239.572 8.25195 239.994 8.25195 240.513C8.25195 241.033 8.67314 241.454 9.19288 241.454Z" fill="#141414"/>
<path d="M17.1923 241.454C17.712 241.454 18.1332 241.033 18.1332 240.513C18.1332 239.994 17.712 239.572 17.1923 239.572C16.6725 239.572 16.251 239.994 16.251 240.513C16.251 241.033 16.6725 241.454 17.1923 241.454Z" fill="#141414"/>
<path d="M25.1909 241.454C25.7107 241.454 26.1318 241.033 26.1318 240.513C26.1318 239.994 25.7107 239.572 25.1909 239.572C24.6712 239.572 24.25 239.994 24.25 240.513C24.25 241.033 24.6712 241.454 25.1909 241.454Z" fill="#141414"/>
<path d="M33.1537 241.347C33.6135 241.347 33.9861 240.974 33.9861 240.514C33.9861 240.054 33.6135 239.682 33.1537 239.682C32.6939 239.682 32.3213 240.054 32.3213 240.514C32.3213 240.974 32.6939 241.347 33.1537 241.347Z" fill="#141414"/>
<path d="M41.1525 241.274C41.5723 241.274 41.9128 240.933 41.9128 240.514C41.9128 240.094 41.5723 239.753 41.1525 239.753C40.7327 239.753 40.3926 240.094 40.3926 240.514C40.3926 240.933 40.7327 241.274 41.1525 241.274Z" fill="#141414"/>
<path d="M57.1153 241.708C57.7749 241.708 58.3096 241.173 58.3096 240.514C58.3096 239.854 57.7749 239.319 57.1153 239.319C56.4556 239.319 55.9209 239.854 55.9209 240.514C55.9209 241.173 56.4556 241.708 57.1153 241.708Z" fill="#141414"/>
<path d="M9.19452 233.311C9.61431 233.311 9.95482 232.971 9.95482 232.551C9.95482 232.131 9.61431 231.791 9.19452 231.791C8.77473 231.791 8.43457 232.131 8.43457 232.551C8.43457 232.971 8.77473 233.311 9.19452 233.311Z" fill="#141414"/>
<path d="M17.1926 233.275C17.5924 233.275 17.9165 232.951 17.9165 232.551C17.9165 232.151 17.5924 231.827 17.1926 231.827C16.7928 231.827 16.4688 232.151 16.4688 232.551C16.4688 232.951 16.7928 233.275 17.1926 233.275Z" fill="#141414"/>
<path d="M25.1921 233.42C25.6718 233.42 26.0609 233.031 26.0609 232.551C26.0609 232.072 25.6718 231.683 25.1921 231.683C24.7123 231.683 24.3232 232.072 24.3232 232.551C24.3232 233.031 24.7123 233.42 25.1921 233.42Z" fill="#141414"/>
<path d="M33.155 233.565C33.7147 233.565 34.1684 233.111 34.1684 232.551C34.1684 231.991 33.7147 231.538 33.155 231.538C32.5953 231.538 32.1416 231.991 32.1416 232.551C32.1416 233.111 32.5953 233.565 33.155 233.565Z" fill="#141414"/>
<path d="M41.153 233.565C41.7127 233.565 42.1668 233.111 42.1668 232.551C42.1668 231.991 41.7127 231.538 41.153 231.538C40.5933 231.538 40.1396 231.991 40.1396 232.551C40.1396 233.111 40.5933 233.565 41.153 233.565Z" fill="#141414"/>
<path d="M49.1165 233.42C49.5963 233.42 49.9853 233.031 49.9853 232.551C49.9853 232.072 49.5963 231.683 49.1165 231.683C48.6368 231.683 48.248 232.072 48.248 232.551C48.248 233.031 48.6368 233.42 49.1165 233.42Z" fill="#141414"/>
<path d="M57.1149 233.42C57.5947 233.42 57.9834 233.031 57.9834 232.551C57.9834 232.072 57.5947 231.683 57.1149 231.683C56.6352 231.683 56.2461 232.072 56.2461 232.551C56.2461 233.031 56.6352 233.42 57.1149 233.42Z" fill="#141414"/>
<path d="M9.19288 225.493C9.71261 225.493 10.1342 225.072 10.1342 224.552C10.1342 224.032 9.71261 223.611 9.19288 223.611C8.67314 223.611 8.25195 224.032 8.25195 224.552C8.25195 225.072 8.67314 225.493 9.19288 225.493Z" fill="#141414"/>
<path d="M17.1925 225.71C17.8322 225.71 18.3504 225.191 18.3504 224.552C18.3504 223.912 17.8322 223.394 17.1925 223.394C16.5528 223.394 16.0342 223.912 16.0342 224.552C16.0342 225.191 16.5528 225.71 17.1925 225.71Z" fill="#141414"/>
<path d="M25.1921 225.421C25.6718 225.421 26.0609 225.032 26.0609 224.552C26.0609 224.072 25.6718 223.684 25.1921 223.684C24.7123 223.684 24.3232 224.072 24.3232 224.552C24.3232 225.032 24.7123 225.421 25.1921 225.421Z" fill="#141414"/>
<path d="M33.1538 225.348C33.5936 225.348 33.9501 224.992 33.9501 224.552C33.9501 224.112 33.5936 223.756 33.1538 223.756C32.714 223.756 32.3574 224.112 32.3574 224.552C32.3574 224.992 32.714 225.348 33.1538 225.348Z" fill="#141414"/>
<path d="M41.1536 225.421C41.6334 225.421 42.0224 225.032 42.0224 224.552C42.0224 224.072 41.6334 223.684 41.1536 223.684C40.6739 223.684 40.2852 224.072 40.2852 224.552C40.2852 225.032 40.6739 225.421 41.1536 225.421Z" fill="#141414"/>
<path d="M49.1165 225.421C49.5963 225.421 49.9853 225.032 49.9853 224.552C49.9853 224.072 49.5963 223.684 49.1165 223.684C48.6368 223.684 48.248 224.072 48.248 224.552C48.248 225.032 48.6368 225.421 49.1165 225.421Z" fill="#141414"/>
<path d="M57.1147 225.348C57.5545 225.348 57.9111 224.992 57.9111 224.552C57.9111 224.112 57.5545 223.756 57.1147 223.756C56.6749 223.756 56.3184 224.112 56.3184 224.552C56.3184 224.992 56.6749 225.348 57.1147 225.348Z" fill="#141414"/>
<path d="M9.19288 217.53C9.71261 217.53 10.1342 217.109 10.1342 216.589C10.1342 216.069 9.71261 215.648 9.19288 215.648C8.67314 215.648 8.25195 216.069 8.25195 216.589C8.25195 217.109 8.67314 217.53 9.19288 217.53Z" fill="#141414"/>
<path d="M17.1925 217.747C17.8322 217.747 18.3504 217.229 18.3504 216.589C18.3504 215.949 17.8322 215.431 17.1925 215.431C16.5528 215.431 16.0342 215.949 16.0342 216.589C16.0342 217.229 16.5528 217.747 17.1925 217.747Z" fill="#141414"/>
<path d="M25.1908 217.928C25.9305 217.928 26.5301 217.328 26.5301 216.589C26.5301 215.849 25.9305 215.25 25.1908 215.25C24.4512 215.25 23.8516 215.849 23.8516 216.589C23.8516 217.328 24.4512 217.928 25.1908 217.928Z" fill="#141414"/>
<path d="M33.1544 217.747C33.7941 217.747 34.3127 217.229 34.3127 216.589C34.3127 215.949 33.7941 215.431 33.1544 215.431C32.5147 215.431 31.9961 215.949 31.9961 216.589C31.9961 217.229 32.5147 217.747 33.1544 217.747Z" fill="#141414"/>
<path d="M41.1527 218.109C41.9923 218.109 42.673 217.429 42.673 216.589C42.673 215.749 41.9923 215.069 41.1527 215.069C40.3131 215.069 39.6328 215.749 39.6328 216.589C39.6328 217.429 40.3131 218.109 41.1527 218.109Z" fill="#141414"/>
<path d="M49.1163 217.928C49.8559 217.928 50.4556 217.328 50.4556 216.589C50.4556 215.849 49.8559 215.25 49.1163 215.25C48.3766 215.25 47.7773 215.849 47.7773 216.589C47.7773 217.328 48.3766 217.928 49.1163 217.928Z" fill="#141414"/>
<path d="M57.1156 217.928C57.8553 217.928 58.4549 217.328 58.4549 216.589C58.4549 215.849 57.8553 215.25 57.1156 215.25C56.376 215.25 55.7764 215.849 55.7764 216.589C55.7764 217.328 56.376 217.928 57.1156 217.928Z" fill="#141414"/>
<path d="M9.19218 209.567C9.7319 209.567 10.1695 209.13 10.1695 208.59C10.1695 208.05 9.7319 207.613 9.19218 207.613C8.65245 207.613 8.21484 208.05 8.21484 208.59C8.21484 209.13 8.65245 209.567 9.19218 209.567Z" fill="#141414"/>
<path d="M17.1925 209.748C17.8322 209.748 18.3504 209.23 18.3504 208.59C18.3504 207.95 17.8322 207.432 17.1925 207.432C16.5528 207.432 16.0342 207.95 16.0342 208.59C16.0342 209.23 16.5528 209.748 17.1925 209.748Z" fill="#141414"/>
<path d="M25.1919 210.038C25.9915 210.038 26.6397 209.39 26.6397 208.59C26.6397 207.791 25.9915 207.143 25.1919 207.143C24.3923 207.143 23.7441 207.791 23.7441 208.59C23.7441 209.39 24.3923 210.038 25.1919 210.038Z" fill="#141414"/>
<path d="M33.1541 209.567C33.6938 209.567 34.1314 209.13 34.1314 208.59C34.1314 208.05 33.6938 207.613 33.1541 207.613C32.6144 207.613 32.1768 208.05 32.1768 208.59C32.1768 209.13 32.6144 209.567 33.1541 209.567Z" fill="#141414"/>
<path d="M41.1529 210.038C41.9525 210.038 42.6007 209.39 42.6007 208.59C42.6007 207.791 41.9525 207.143 41.1529 207.143C40.3533 207.143 39.7051 207.791 39.7051 208.59C39.7051 209.39 40.3533 210.038 41.1529 210.038Z" fill="#141414"/>
<path d="M49.1162 209.784C49.7759 209.784 50.3109 209.25 50.3109 208.59C50.3109 207.93 49.7759 207.396 49.1162 207.396C48.4566 207.396 47.9219 207.93 47.9219 208.59C47.9219 209.25 48.4566 209.784 49.1162 209.784Z" fill="#141414"/>
<path d="M57.1153 209.748C57.755 209.748 58.2736 209.23 58.2736 208.59C58.2736 207.95 57.755 207.432 57.1153 207.432C56.4757 207.432 55.957 207.95 55.957 208.59C55.957 209.23 56.4757 209.748 57.1153 209.748Z" fill="#141414"/>
<path d="M17.1927 201.858C17.8723 201.858 18.4231 201.307 18.4231 200.627C18.4231 199.948 17.8723 199.396 17.1927 199.396C16.513 199.396 15.9619 199.948 15.9619 200.627C15.9619 201.307 16.513 201.858 17.1927 201.858Z" fill="#141414"/>
<path d="M25.1917 201.858C25.8714 201.858 26.4225 201.307 26.4225 200.627C26.4225 199.948 25.8714 199.396 25.1917 199.396C24.512 199.396 23.9609 199.948 23.9609 200.627C23.9609 201.307 24.512 201.858 25.1917 201.858Z" fill="#141414"/>
<path d="M33.1536 201.858C33.8333 201.858 34.3844 201.307 34.3844 200.627C34.3844 199.948 33.8333 199.396 33.1536 199.396C32.474 199.396 31.9229 199.948 31.9229 200.627C31.9229 201.307 32.474 201.858 33.1536 201.858Z" fill="#141414"/>
<path d="M41.1529 202.075C41.9525 202.075 42.6007 201.427 42.6007 200.627C42.6007 199.827 41.9525 199.179 41.1529 199.179C40.3533 199.179 39.7051 199.827 39.7051 200.627C39.7051 201.427 40.3533 202.075 41.1529 202.075Z" fill="#141414"/>
<path d="M49.1165 201.496C49.5963 201.496 49.9853 201.107 49.9853 200.628C49.9853 200.148 49.5963 199.759 49.1165 199.759C48.6368 199.759 48.248 200.148 48.248 200.628C48.248 201.107 48.6368 201.496 49.1165 201.496Z" fill="#141414"/>
<path d="M57.1156 201.966C57.8553 201.966 58.4549 201.367 58.4549 200.627C58.4549 199.888 57.8553 199.288 57.1156 199.288C56.376 199.288 55.7764 199.888 55.7764 200.627C55.7764 201.367 56.376 201.966 57.1156 201.966Z" fill="#141414"/>
<path d="M17.1923 193.569C17.712 193.569 18.1332 193.148 18.1332 192.628C18.1332 192.108 17.712 191.687 17.1923 191.687C16.6725 191.687 16.251 192.108 16.251 192.628C16.251 193.148 16.6725 193.569 17.1923 193.569Z" fill="#141414"/>
<path d="M25.1909 193.569C25.7107 193.569 26.1318 193.148 26.1318 192.628C26.1318 192.108 25.7107 191.687 25.1909 191.687C24.6712 191.687 24.25 192.108 24.25 192.628C24.25 193.148 24.6712 193.569 25.1909 193.569Z" fill="#141414"/>
<path d="M33.1548 193.569C33.6745 193.569 34.0957 193.148 34.0957 192.628C34.0957 192.108 33.6745 191.687 33.1548 191.687C32.6351 191.687 32.2139 192.108 32.2139 192.628C32.2139 193.148 32.6351 193.569 33.1548 193.569Z" fill="#141414"/>
<path d="M41.1532 193.714C41.7529 193.714 42.2391 193.228 42.2391 192.628C42.2391 192.028 41.7529 191.542 41.1532 191.542C40.5535 191.542 40.0674 192.028 40.0674 192.628C40.0674 193.228 40.5535 193.714 41.1532 193.714Z" fill="#141414"/>
<path d="M49.1162 193.822C49.7759 193.822 50.3109 193.288 50.3109 192.628C50.3109 191.968 49.7759 191.434 49.1162 191.434C48.4566 191.434 47.9219 191.968 47.9219 192.628C47.9219 193.288 48.4566 193.822 49.1162 193.822Z" fill="#141414"/>
<path d="M57.1158 194.076C57.9154 194.076 58.5636 193.428 58.5636 192.628C58.5636 191.829 57.9154 191.181 57.1158 191.181C56.3162 191.181 55.668 191.829 55.668 192.628C55.668 193.428 56.3162 194.076 57.1158 194.076Z" fill="#141414"/>
<path d="M9.19288 185.57C9.71261 185.57 10.1342 185.149 10.1342 184.629C10.1342 184.109 9.71261 183.688 9.19288 183.688C8.67314 183.688 8.25195 184.109 8.25195 184.629C8.25195 185.149 8.67314 185.57 9.19288 185.57Z" fill="#141414"/>
<path d="M17.1927 185.86C17.8723 185.86 18.4231 185.309 18.4231 184.629C18.4231 183.949 17.8723 183.398 17.1927 183.398C16.513 183.398 15.9619 183.949 15.9619 184.629C15.9619 185.309 16.513 185.86 17.1927 185.86Z" fill="#141414"/>
<path d="M25.1917 185.86C25.8714 185.86 26.4225 185.309 26.4225 184.629C26.4225 183.949 25.8714 183.398 25.1917 183.398C24.512 183.398 23.9609 183.949 23.9609 184.629C23.9609 185.309 24.512 185.86 25.1917 185.86Z" fill="#141414"/>
<path d="M33.154 186.15C33.9936 186.15 34.6743 185.469 34.6743 184.63C34.6743 183.79 33.9936 183.109 33.154 183.109C32.3145 183.109 31.6338 183.79 31.6338 184.63C31.6338 185.469 32.3145 186.15 33.154 186.15Z" fill="#141414"/>
<path d="M41.1529 186.077C41.9525 186.077 42.6007 185.429 42.6007 184.629C42.6007 183.83 41.9525 183.182 41.1529 183.182C40.3533 183.182 39.7051 183.83 39.7051 184.629C39.7051 185.429 40.3533 186.077 41.1529 186.077Z" fill="#141414"/>
<path d="M49.1165 185.498C49.5963 185.498 49.9853 185.109 49.9853 184.629C49.9853 184.149 49.5963 183.76 49.1165 183.76C48.6368 183.76 48.248 184.149 48.248 184.629C48.248 185.109 48.6368 185.498 49.1165 185.498Z" fill="#141414"/>
<path d="M57.1158 186.077C57.9154 186.077 58.5636 185.429 58.5636 184.629C58.5636 183.83 57.9154 183.182 57.1158 183.182C56.3162 183.182 55.668 183.83 55.668 184.629C55.668 185.429 56.3162 186.077 57.1158 186.077Z" fill="#141414"/>
<path d="M57.1155 170.586C58.175 170.586 59.0338 169.727 59.0338 168.667C59.0338 167.608 58.175 166.749 57.1155 166.749C56.0561 166.749 55.1973 167.608 55.1973 168.667C55.1973 169.727 56.0561 170.586 57.1155 170.586Z" fill="#141414"/>
<path d="M49.1159 170.224C49.9754 170.224 50.6725 169.527 50.6725 168.667C50.6725 167.808 49.9754 167.111 49.1159 167.111C48.2563 167.111 47.5596 167.808 47.5596 168.667C47.5596 169.527 48.2563 170.224 49.1159 170.224Z" fill="#141414"/>
<path d="M41.1535 170.477C42.153 170.477 42.9632 169.667 42.9632 168.667C42.9632 167.668 42.153 166.857 41.1535 166.857C40.154 166.857 39.3438 167.668 39.3438 168.667C39.3438 169.667 40.154 170.477 41.1535 170.477Z" fill="#141414"/>
<path d="M33.1541 170.332C34.0736 170.332 34.8189 169.587 34.8189 168.667C34.8189 167.748 34.0736 167.002 33.1541 167.002C32.2345 167.002 31.4893 167.748 31.4893 168.667C31.4893 169.587 32.2345 170.332 33.1541 170.332Z" fill="#141414"/>
<path d="M25.192 170.224C26.0516 170.224 26.7484 169.527 26.7484 168.667C26.7484 167.808 26.0516 167.111 25.192 167.111C24.3325 167.111 23.6357 167.808 23.6357 168.667C23.6357 169.527 24.3325 170.224 25.192 170.224Z" fill="#141414"/>
<path d="M17.1915 170.332C18.1111 170.332 18.8564 169.587 18.8564 168.667C18.8564 167.748 18.1111 167.002 17.1915 167.002C16.272 167.002 15.5264 167.748 15.5264 168.667C15.5264 169.587 16.272 170.332 17.1915 170.332Z" fill="#141414"/>
<path d="M9.19284 169.464C9.63262 169.464 9.9892 169.107 9.9892 168.667C9.9892 168.228 9.63262 167.871 9.19284 167.871C8.75306 167.871 8.39648 168.228 8.39648 168.667C8.39648 169.107 8.75306 169.464 9.19284 169.464Z" fill="#141414"/>
<path d="M57.1155 178.585C58.175 178.585 59.0338 177.726 59.0338 176.666C59.0338 175.607 58.175 174.748 57.1155 174.748C56.0561 174.748 55.1973 175.607 55.1973 176.666C55.1973 177.726 56.0561 178.585 57.1155 178.585Z" fill="#141414"/>
<path d="M49.1159 178.223C49.9754 178.223 50.6725 177.526 50.6725 176.666C50.6725 175.807 49.9754 175.11 49.1159 175.11C48.2563 175.11 47.5596 175.807 47.5596 176.666C47.5596 177.526 48.2563 178.223 49.1159 178.223Z" fill="#141414"/>
<path d="M41.1535 178.476C42.153 178.476 42.9632 177.666 42.9632 176.666C42.9632 175.667 42.153 174.856 41.1535 174.856C40.154 174.856 39.3438 175.667 39.3438 176.666C39.3438 177.666 40.154 178.476 41.1535 178.476Z" fill="#141414"/>
<path d="M33.1541 178.331C34.0736 178.331 34.8189 177.586 34.8189 176.666C34.8189 175.746 34.0736 175.001 33.1541 175.001C32.2345 175.001 31.4893 175.746 31.4893 176.666C31.4893 177.586 32.2345 178.331 33.1541 178.331Z" fill="#141414"/>
<path d="M25.192 178.223C26.0516 178.223 26.7484 177.526 26.7484 176.666C26.7484 175.807 26.0516 175.11 25.192 175.11C24.3325 175.11 23.6357 175.807 23.6357 176.666C23.6357 177.526 24.3325 178.223 25.192 178.223Z" fill="#141414"/>
<path d="M17.1915 178.331C18.1111 178.331 18.8564 177.586 18.8564 176.666C18.8564 175.746 18.1111 175.001 17.1915 175.001C16.272 175.001 15.5264 175.746 15.5264 176.666C15.5264 177.586 16.272 178.331 17.1915 178.331Z" fill="#141414"/>
<path d="M9.19284 177.462C9.63262 177.462 9.9892 177.106 9.9892 176.666C9.9892 176.226 9.63262 175.87 9.19284 175.87C8.75306 175.87 8.39648 176.226 8.39648 176.666C8.39648 177.106 8.75306 177.462 9.19284 177.462Z" fill="#141414"/>
</svg>
