<svg width="313" height="199" viewBox="0 0 313 199" fill="none" xmlns="http://www.w3.org/2000/svg">
<path d="M278.836 198.281C279.63 198.281 280.274 197.637 280.274 196.843C280.274 196.048 279.63 195.404 278.836 195.404C278.041 195.404 277.397 196.048 277.397 196.843C277.397 197.637 278.041 198.281 278.836 198.281Z" fill="#4C8BAA"/>
<path d="M247.118 198.856C248.23 198.856 249.131 197.955 249.131 196.843C249.131 195.73 248.23 194.829 247.118 194.829C246.005 194.829 245.104 195.73 245.104 196.843C245.104 197.955 246.005 198.856 247.118 198.856Z" fill="#4C8BAA"/>
<path d="M183.679 198.713C184.712 198.713 185.549 197.876 185.549 196.843C185.549 195.81 184.712 194.973 183.679 194.973C182.646 194.973 181.809 195.81 181.809 196.843C181.809 197.876 182.646 198.713 183.679 198.713Z" fill="#4C8BAA"/>
<path d="M136.063 198.425C136.937 198.425 137.645 197.717 137.645 196.843C137.645 195.969 136.937 195.26 136.063 195.26C135.189 195.26 134.481 195.969 134.481 196.843C134.481 197.717 135.189 198.425 136.063 198.425Z" fill="#4C8BAA"/>
<path d="M120.167 198.641C121.16 198.641 121.965 197.836 121.965 196.843C121.965 195.85 121.16 195.045 120.167 195.045C119.174 195.045 118.368 195.85 118.368 196.843C118.368 197.836 119.174 198.641 120.167 198.641Z" fill="#4C8BAA"/>
<path d="M104.344 198.641C105.337 198.641 106.142 197.836 106.142 196.843C106.142 195.85 105.337 195.045 104.344 195.045C103.351 195.045 102.546 195.85 102.546 196.843C102.546 197.836 103.351 198.641 104.344 198.641Z" fill="#4C8BAA"/>
<path d="M88.4491 198.425C89.323 198.425 90.0309 197.717 90.0309 196.843C90.0309 195.969 89.323 195.26 88.4491 195.26C87.5752 195.26 86.8666 195.969 86.8666 196.843C86.8666 197.717 87.5752 198.425 88.4491 198.425Z" fill="#4C8BAA"/>
<path d="M310.556 182.602C311.47 182.602 312.21 181.861 312.21 180.947C312.21 180.034 311.47 179.293 310.556 179.293C309.643 179.293 308.902 180.034 308.902 180.947C308.902 181.861 309.643 182.602 310.556 182.602Z" fill="#4C8BAA"/>
<path d="M294.733 182.817C295.765 182.817 296.602 181.98 296.602 180.947C296.602 179.914 295.765 179.077 294.733 179.077C293.7 179.077 292.862 179.914 292.862 180.947C292.862 181.98 293.7 182.817 294.733 182.817Z" fill="#4C8BAA"/>
<path d="M278.837 182.817C279.87 182.817 280.707 181.98 280.707 180.947C280.707 179.914 279.87 179.077 278.837 179.077C277.804 179.077 276.967 179.914 276.967 180.947C276.967 181.98 277.804 182.817 278.837 182.817Z" fill="#4C8BAA"/>
<path d="M262.94 182.817C263.973 182.817 264.81 181.98 264.81 180.947C264.81 179.914 263.973 179.077 262.94 179.077C261.907 179.077 261.07 179.914 261.07 180.947C261.07 181.98 261.907 182.817 262.94 182.817Z" fill="#4C8BAA"/>
<path d="M247.117 182.602C248.031 182.602 248.772 181.861 248.772 180.947C248.772 180.034 248.031 179.293 247.117 179.293C246.204 179.293 245.463 180.034 245.463 180.947C245.463 181.861 246.204 182.602 247.117 182.602Z" fill="#4C8BAA"/>
<path d="M231.22 182.458C232.054 182.458 232.73 181.781 232.73 180.947C232.73 180.113 232.054 179.437 231.22 179.437C230.385 179.437 229.709 180.113 229.709 180.947C229.709 181.781 230.385 182.458 231.22 182.458Z" fill="#4C8BAA"/>
<path d="M199.502 183.321C200.813 183.321 201.875 182.258 201.875 180.947C201.875 179.636 200.813 178.574 199.502 178.574C198.191 178.574 197.129 179.636 197.129 180.947C197.129 182.258 198.191 183.321 199.502 183.321Z" fill="#4C8BAA"/>
<path d="M183.676 182.385C184.471 182.385 185.115 181.741 185.115 180.947C185.115 180.152 184.471 179.508 183.676 179.508C182.882 179.508 182.238 180.152 182.238 180.947C182.238 181.741 182.882 182.385 183.676 182.385Z" fill="#4C8BAA"/>
<path d="M167.782 183.177C169.014 183.177 170.012 182.178 170.012 180.947C170.012 179.716 169.014 178.717 167.782 178.717C166.551 178.717 165.552 179.716 165.552 180.947C165.552 182.178 166.551 183.177 167.782 183.177Z" fill="#4C8BAA"/>
<path d="M151.887 182.745C152.88 182.745 153.685 181.94 153.685 180.947C153.685 179.954 152.88 179.149 151.887 179.149C150.894 179.149 150.089 179.954 150.089 180.947C150.089 181.94 150.894 182.745 151.887 182.745Z" fill="#4C8BAA"/>
<path d="M136.062 182.242C136.777 182.242 137.357 181.662 137.357 180.947C137.357 180.232 136.777 179.652 136.062 179.652C135.347 179.652 134.767 180.232 134.767 180.947C134.767 181.662 135.347 182.242 136.062 182.242Z" fill="#4C8BAA"/>
<path d="M120.167 183.249C121.439 183.249 122.469 182.218 122.469 180.947C122.469 179.676 121.439 178.646 120.167 178.646C118.896 178.646 117.866 179.676 117.866 180.947C117.866 182.218 118.896 183.249 120.167 183.249Z" fill="#4C8BAA"/>
<path d="M104.344 182.745C105.337 182.745 106.142 181.94 106.142 180.947C106.142 179.954 105.337 179.149 104.344 179.149C103.351 179.149 102.546 179.954 102.546 180.947C102.546 181.94 103.351 182.745 104.344 182.745Z" fill="#4C8BAA"/>
<path d="M88.4491 182.529C89.323 182.529 90.0309 181.821 90.0309 180.947C90.0309 180.073 89.323 179.365 88.4491 179.365C87.5752 179.365 86.8666 180.073 86.8666 180.947C86.8666 181.821 87.5752 182.529 88.4491 182.529Z" fill="#4C8BAA"/>
<path d="M294.733 166.634C295.567 166.634 296.243 165.958 296.243 165.124C296.243 164.289 295.567 163.613 294.733 163.613C293.899 163.613 293.222 164.289 293.222 165.124C293.222 165.958 293.899 166.634 294.733 166.634Z" fill="#4C8BAA"/>
<path d="M310.555 119.019C311.389 119.019 312.065 118.343 312.065 117.509C312.065 116.674 311.389 115.998 310.555 115.998C309.721 115.998 309.044 116.674 309.044 117.509C309.044 118.343 309.721 119.019 310.555 119.019Z" fill="#4C8BAA"/>
<path d="M278.836 166.562C279.63 166.562 280.274 165.918 280.274 165.124C280.274 164.329 279.63 163.685 278.836 163.685C278.041 163.685 277.397 164.329 277.397 165.124C277.397 165.918 278.041 166.562 278.836 166.562Z" fill="#4C8BAA"/>
<path d="M262.94 166.849C263.893 166.849 264.666 166.076 264.666 165.123C264.666 164.17 263.893 163.397 262.94 163.397C261.986 163.397 261.213 164.17 261.213 165.123C261.213 166.076 261.986 166.849 262.94 166.849Z" fill="#4C8BAA"/>
<path d="M247.118 167.137C248.23 167.137 249.131 166.236 249.131 165.123C249.131 164.011 248.23 163.109 247.118 163.109C246.005 163.109 245.104 164.011 245.104 165.123C245.104 166.236 246.005 167.137 247.118 167.137Z" fill="#4C8BAA"/>
<path d="M231.221 167.137C232.334 167.137 233.235 166.236 233.235 165.123C233.235 164.011 232.334 163.109 231.221 163.109C230.109 163.109 229.207 164.011 229.207 165.123C229.207 166.236 230.109 167.137 231.221 167.137Z" fill="#4C8BAA"/>
<path d="M215.398 166.849C216.351 166.849 217.124 166.076 217.124 165.123C217.124 164.17 216.351 163.397 215.398 163.397C214.445 163.397 213.671 164.17 213.671 165.123C213.671 166.076 214.445 166.849 215.398 166.849Z" fill="#4C8BAA"/>
<path d="M199.501 166.849C200.455 166.849 201.228 166.076 201.228 165.123C201.228 164.17 200.455 163.397 199.501 163.397C198.548 163.397 197.776 164.17 197.776 165.123C197.776 166.076 198.548 166.849 199.501 166.849Z" fill="#4C8BAA"/>
<path d="M183.678 166.706C184.552 166.706 185.26 165.998 185.26 165.124C185.26 164.25 184.552 163.541 183.678 163.541C182.804 163.541 182.095 164.25 182.095 165.124C182.095 165.998 182.804 166.706 183.678 166.706Z" fill="#4C8BAA"/>
<path d="M167.782 167.353C169.014 167.353 170.012 166.355 170.012 165.123C170.012 163.892 169.014 162.893 167.782 162.893C166.551 162.893 165.552 163.892 165.552 165.123C165.552 166.355 166.551 167.353 167.782 167.353Z" fill="#4C8BAA"/>
<path d="M151.885 166.706C152.759 166.706 153.468 165.998 153.468 165.124C153.468 164.25 152.759 163.541 151.885 163.541C151.011 163.541 150.303 164.25 150.303 165.124C150.303 165.998 151.011 166.706 151.885 166.706Z" fill="#4C8BAA"/>
<path d="M136.063 166.706C136.937 166.706 137.645 165.998 137.645 165.124C137.645 164.25 136.937 163.541 136.063 163.541C135.189 163.541 134.481 164.25 134.481 165.124C134.481 165.998 135.189 166.706 136.063 166.706Z" fill="#4C8BAA"/>
<path d="M120.169 166.418C120.884 166.418 121.463 165.838 121.463 165.123C121.463 164.408 120.884 163.829 120.169 163.829C119.454 163.829 118.874 164.408 118.874 165.123C118.874 165.838 119.454 166.418 120.169 166.418Z" fill="#4C8BAA"/>
<path d="M104.344 167.065C105.416 167.065 106.286 166.196 106.286 165.123C106.286 164.051 105.416 163.181 104.344 163.181C103.271 163.181 102.402 164.051 102.402 165.123C102.402 166.196 103.271 167.065 104.344 167.065Z" fill="#4C8BAA"/>
<path d="M88.4491 166.706C89.323 166.706 90.0309 165.998 90.0309 165.124C90.0309 164.25 89.323 163.541 88.4491 163.541C87.5752 163.541 86.8666 164.25 86.8666 165.124C86.8666 165.998 87.5752 166.706 88.4491 166.706Z" fill="#4C8BAA"/>
<path d="M294.733 151.098C295.765 151.098 296.602 150.26 296.602 149.228C296.602 148.195 295.765 147.358 294.733 147.358C293.7 147.358 292.862 148.195 292.862 149.228C292.862 150.26 293.7 151.098 294.733 151.098Z" fill="#4C8BAA"/>
<path d="M278.836 151.529C280.107 151.529 281.138 150.499 281.138 149.228C281.138 147.956 280.107 146.926 278.836 146.926C277.565 146.926 276.535 147.956 276.535 149.228C276.535 150.499 277.565 151.529 278.836 151.529Z" fill="#4C8BAA"/>
<path d="M262.94 150.954C263.893 150.954 264.666 150.181 264.666 149.228C264.666 148.274 263.893 147.502 262.94 147.502C261.986 147.502 261.213 148.274 261.213 149.228C261.213 150.181 261.986 150.954 262.94 150.954Z" fill="#4C8BAA"/>
<path d="M247.116 150.81C247.99 150.81 248.699 150.102 248.699 149.228C248.699 148.354 247.99 147.645 247.116 147.645C246.243 147.645 245.534 148.354 245.534 149.228C245.534 150.102 246.243 150.81 247.116 150.81Z" fill="#4C8BAA"/>
<path d="M231.221 150.954C232.175 150.954 232.947 150.181 232.947 149.228C232.947 148.274 232.175 147.502 231.221 147.502C230.268 147.502 229.495 148.274 229.495 149.228C229.495 150.181 230.268 150.954 231.221 150.954Z" fill="#4C8BAA"/>
<path d="M215.398 150.954C216.351 150.954 217.124 150.181 217.124 149.228C217.124 148.274 216.351 147.502 215.398 147.502C214.445 147.502 213.671 148.274 213.671 149.228C213.671 150.181 214.445 150.954 215.398 150.954Z" fill="#4C8BAA"/>
<path d="M199.502 150.81C200.376 150.81 201.085 150.102 201.085 149.228C201.085 148.354 200.376 147.645 199.502 147.645C198.628 147.645 197.92 148.354 197.92 149.228C197.92 150.102 198.628 150.81 199.502 150.81Z" fill="#4C8BAA"/>
<path d="M183.678 151.529C184.95 151.529 185.98 150.499 185.98 149.228C185.98 147.956 184.95 146.926 183.678 146.926C182.407 146.926 181.377 147.956 181.377 149.228C181.377 150.499 182.407 151.529 183.678 151.529Z" fill="#4C8BAA"/>
<path d="M167.782 150.595C168.537 150.595 169.148 149.983 169.148 149.228C169.148 148.473 168.537 147.861 167.782 147.861C167.027 147.861 166.415 148.473 166.415 149.228C166.415 149.983 167.027 150.595 167.782 150.595Z" fill="#4C8BAA"/>
<path d="M151.887 151.026C152.88 151.026 153.685 150.221 153.685 149.228C153.685 148.235 152.88 147.43 151.887 147.43C150.894 147.43 150.089 148.235 150.089 149.228C150.089 150.221 150.894 151.026 151.887 151.026Z" fill="#4C8BAA"/>
<path d="M136.063 151.026C137.057 151.026 137.862 150.221 137.862 149.228C137.862 148.235 137.057 147.43 136.063 147.43C135.07 147.43 134.265 148.235 134.265 149.228C134.265 150.221 135.07 151.026 136.063 151.026Z" fill="#4C8BAA"/>
<path d="M120.167 151.17C121.24 151.17 122.109 150.3 122.109 149.228C122.109 148.155 121.24 147.286 120.167 147.286C119.095 147.286 118.225 148.155 118.225 149.228C118.225 150.3 119.095 151.17 120.167 151.17Z" fill="#4C8BAA"/>
<path d="M104.344 151.17C105.416 151.17 106.286 150.3 106.286 149.228C106.286 148.155 105.416 147.286 104.344 147.286C103.271 147.286 102.402 148.155 102.402 149.228C102.402 150.3 103.271 151.17 104.344 151.17Z" fill="#4C8BAA"/>
<path d="M88.4499 151.17C89.5224 151.17 90.3913 150.3 90.3913 149.228C90.3913 148.155 89.5224 147.286 88.4499 147.286C87.3774 147.286 86.5078 148.155 86.5078 149.228C86.5078 150.3 87.3774 151.17 88.4499 151.17Z" fill="#4C8BAA"/>
<path d="M294.733 135.274C295.765 135.274 296.602 134.437 296.602 133.404C296.602 132.371 295.765 131.534 294.733 131.534C293.7 131.534 292.862 132.371 292.862 133.404C292.862 134.437 293.7 135.274 294.733 135.274Z" fill="#4C8BAA"/>
<path d="M278.836 135.706C280.107 135.706 281.138 134.675 281.138 133.404C281.138 132.133 280.107 131.103 278.836 131.103C277.565 131.103 276.535 132.133 276.535 133.404C276.535 134.675 277.565 135.706 278.836 135.706Z" fill="#4C8BAA"/>
<path d="M262.94 136.065C264.409 136.065 265.601 134.873 265.601 133.404C265.601 131.934 264.409 130.742 262.94 130.742C261.47 130.742 260.278 131.934 260.278 133.404C260.278 134.873 261.47 136.065 262.94 136.065Z" fill="#4C8BAA"/>
<path d="M247.116 135.706C248.387 135.706 249.418 134.675 249.418 133.404C249.418 132.133 248.387 131.103 247.116 131.103C245.845 131.103 244.814 132.133 244.814 133.404C244.814 134.675 245.845 135.706 247.116 135.706Z" fill="#4C8BAA"/>
<path d="M231.222 136.425C232.89 136.425 234.242 135.073 234.242 133.404C234.242 131.736 232.89 130.383 231.222 130.383C229.554 130.383 228.201 131.736 228.201 133.404C228.201 135.073 229.554 136.425 231.222 136.425Z" fill="#4C8BAA"/>
<path d="M215.4 136.065C216.869 136.065 218.06 134.873 218.06 133.404C218.06 131.934 216.869 130.742 215.4 130.742C213.93 130.742 212.738 131.934 212.738 133.404C212.738 134.873 213.93 136.065 215.4 136.065Z" fill="#4C8BAA"/>
<path d="M199.502 136.065C200.971 136.065 202.163 134.873 202.163 133.404C202.163 131.934 200.971 130.742 199.502 130.742C198.032 130.742 196.84 131.934 196.84 133.404C196.84 134.873 198.032 136.065 199.502 136.065Z" fill="#4C8BAA"/>
<path d="M183.678 135.706C184.95 135.706 185.98 134.675 185.98 133.404C185.98 132.133 184.95 131.103 183.678 131.103C182.407 131.103 181.377 132.133 181.377 133.404C181.377 134.675 182.407 135.706 183.678 135.706Z" fill="#4C8BAA"/>
<path d="M167.783 135.993C169.213 135.993 170.372 134.834 170.372 133.404C170.372 131.974 169.213 130.815 167.783 130.815C166.352 130.815 165.193 131.974 165.193 133.404C165.193 134.834 166.352 135.993 167.783 135.993Z" fill="#4C8BAA"/>
<path d="M151.888 135.85C153.238 135.85 154.333 134.755 154.333 133.404C154.333 132.054 153.238 130.959 151.888 130.959C150.537 130.959 149.443 132.054 149.443 133.404C149.443 134.755 150.537 135.85 151.888 135.85Z" fill="#4C8BAA"/>
<path d="M136.063 135.202C137.057 135.202 137.862 134.397 137.862 133.404C137.862 132.411 137.057 131.606 136.063 131.606C135.07 131.606 134.265 132.411 134.265 133.404C134.265 134.397 135.07 135.202 136.063 135.202Z" fill="#4C8BAA"/>
<path d="M120.167 135.706C121.439 135.706 122.469 134.675 122.469 133.404C122.469 132.133 121.439 131.103 120.167 131.103C118.896 131.103 117.866 132.133 117.866 133.404C117.866 134.675 118.896 135.706 120.167 135.706Z" fill="#4C8BAA"/>
<path d="M104.343 136.353C105.971 136.353 107.291 135.033 107.291 133.404C107.291 131.775 105.971 130.455 104.343 130.455C102.714 130.455 101.394 131.775 101.394 133.404C101.394 135.033 102.714 136.353 104.343 136.353Z" fill="#4C8BAA"/>
<path d="M88.4488 135.49C89.6008 135.49 90.5342 134.556 90.5342 133.404C90.5342 132.252 89.6008 131.318 88.4488 131.318C87.2968 131.318 86.3627 132.252 86.3627 133.404C86.3627 134.556 87.2968 135.49 88.4488 135.49Z" fill="#4C8BAA"/>
<path d="M294.732 119.45C295.804 119.45 296.674 118.581 296.674 117.508C296.674 116.436 295.804 115.566 294.732 115.566C293.659 115.566 292.789 116.436 292.789 117.508C292.789 118.581 293.659 119.45 294.732 119.45Z" fill="#4C8BAA"/>
<path d="M278.836 119.81C280.107 119.81 281.138 118.779 281.138 117.508C281.138 116.237 280.107 115.207 278.836 115.207C277.565 115.207 276.535 116.237 276.535 117.508C276.535 118.779 277.565 119.81 278.836 119.81Z" fill="#4C8BAA"/>
<path d="M262.94 120.386C264.529 120.386 265.817 119.098 265.817 117.509C265.817 115.92 264.529 114.632 262.94 114.632C261.351 114.632 260.063 115.92 260.063 117.509C260.063 119.098 261.351 120.386 262.94 120.386Z" fill="#4C8BAA"/>
<path d="M247.116 119.45C248.189 119.45 249.058 118.581 249.058 117.508C249.058 116.436 248.189 115.566 247.116 115.566C246.044 115.566 245.174 116.436 245.174 117.508C245.174 118.581 246.044 119.45 247.116 119.45Z" fill="#4C8BAA"/>
<path d="M231.221 120.386C232.81 120.386 234.098 119.098 234.098 117.509C234.098 115.92 232.81 114.632 231.221 114.632C229.632 114.632 228.344 115.92 228.344 117.509C228.344 119.098 229.632 120.386 231.221 120.386Z" fill="#4C8BAA"/>
<path d="M215.398 119.882C216.709 119.882 217.771 118.819 217.771 117.509C217.771 116.198 216.709 115.135 215.398 115.135C214.087 115.135 213.024 116.198 213.024 117.509C213.024 118.819 214.087 119.882 215.398 119.882Z" fill="#4C8BAA"/>
<path d="M199.502 119.81C200.773 119.81 201.804 118.779 201.804 117.508C201.804 116.237 200.773 115.207 199.502 115.207C198.231 115.207 197.2 116.237 197.2 117.508C197.2 118.779 198.231 119.81 199.502 119.81Z" fill="#4C8BAA"/>
<path d="M183.679 119.882C184.989 119.882 186.052 118.819 186.052 117.509C186.052 116.198 184.989 115.135 183.679 115.135C182.368 115.135 181.305 116.198 181.305 117.509C181.305 118.819 182.368 119.882 183.679 119.882Z" fill="#4C8BAA"/>
<path d="M167.783 119.882C169.093 119.882 170.156 118.819 170.156 117.509C170.156 116.198 169.093 115.135 167.783 115.135C166.472 115.135 165.409 116.198 165.409 117.509C165.409 118.819 166.472 119.882 167.783 119.882Z" fill="#4C8BAA"/>
<path d="M151.887 119.666C153.078 119.666 154.044 118.7 154.044 117.509C154.044 116.317 153.078 115.351 151.887 115.351C150.695 115.351 149.729 116.317 149.729 117.509C149.729 118.7 150.695 119.666 151.887 119.666Z" fill="#4C8BAA"/>
<path d="M136.063 120.457C137.692 120.457 139.013 119.137 139.013 117.509C139.013 115.88 137.692 114.56 136.063 114.56C134.435 114.56 133.115 115.88 133.115 117.509C133.115 119.137 134.435 120.457 136.063 120.457Z" fill="#4C8BAA"/>
<path d="M120.168 119.379C121.2 119.379 122.037 118.541 122.037 117.509C122.037 116.476 121.2 115.638 120.168 115.638C119.135 115.638 118.298 116.476 118.298 117.509C118.298 118.541 119.135 119.379 120.168 119.379Z" fill="#4C8BAA"/>
<path d="M104.344 119.666C105.536 119.666 106.502 118.7 106.502 117.509C106.502 116.317 105.536 115.351 104.344 115.351C103.152 115.351 102.186 116.317 102.186 117.509C102.186 118.7 103.152 119.666 104.344 119.666Z" fill="#4C8BAA"/>
<path d="M88.4475 120.457C90.0762 120.457 91.3962 119.137 91.3962 117.509C91.3962 115.88 90.0762 114.56 88.4475 114.56C86.8189 114.56 85.4982 115.88 85.4982 117.509C85.4982 119.137 86.8189 120.457 88.4475 120.457Z" fill="#4C8BAA"/>
<path d="M278.836 104.13C280.186 104.13 281.282 103.035 281.282 101.685C281.282 100.334 280.186 99.2393 278.836 99.2393C277.485 99.2393 276.391 100.334 276.391 101.685C276.391 103.035 277.485 104.13 278.836 104.13Z" fill="#4C8BAA"/>
<path d="M262.941 104.13C264.291 104.13 265.386 103.035 265.386 101.685C265.386 100.334 264.291 99.2393 262.941 99.2393C261.59 99.2393 260.495 100.334 260.495 101.685C260.495 103.035 261.59 104.13 262.941 104.13Z" fill="#4C8BAA"/>
<path d="M247.118 104.13C248.469 104.13 249.564 103.035 249.564 101.685C249.564 100.334 248.469 99.2393 247.118 99.2393C245.767 99.2393 244.672 100.334 244.672 101.685C244.672 103.035 245.767 104.13 247.118 104.13Z" fill="#4C8BAA"/>
<path d="M231.221 104.562C232.81 104.562 234.098 103.274 234.098 101.685C234.098 100.096 232.81 98.8081 231.221 98.8081C229.632 98.8081 228.344 100.096 228.344 101.685C228.344 103.274 229.632 104.562 231.221 104.562Z" fill="#4C8BAA"/>
<path d="M215.398 103.411C216.351 103.411 217.124 102.638 217.124 101.685C217.124 100.731 216.351 99.9585 215.398 99.9585C214.445 99.9585 213.671 100.731 213.671 101.685C213.671 102.638 214.445 103.411 215.398 103.411Z" fill="#4C8BAA"/>
<path d="M199.502 104.346C200.971 104.346 202.163 103.154 202.163 101.685C202.163 100.215 200.971 99.0234 199.502 99.0234C198.032 99.0234 196.84 100.215 196.84 101.685C196.84 103.154 198.032 104.346 199.502 104.346Z" fill="#4C8BAA"/>
<path d="M183.678 104.346C185.148 104.346 186.34 103.154 186.34 101.685C186.34 100.215 185.148 99.0234 183.678 99.0234C182.209 99.0234 181.017 100.215 181.017 101.685C181.017 103.154 182.209 104.346 183.678 104.346Z" fill="#4C8BAA"/>
<path d="M167.782 104.346C169.252 104.346 170.444 103.154 170.444 101.685C170.444 100.215 169.252 99.0234 167.782 99.0234C166.313 99.0234 165.121 100.215 165.121 101.685C165.121 103.154 166.313 104.346 167.782 104.346Z" fill="#4C8BAA"/>
<path d="M151.888 104.13C153.238 104.13 154.333 103.035 154.333 101.685C154.333 100.334 153.238 99.2393 151.888 99.2393C150.537 99.2393 149.443 100.334 149.443 101.685C149.443 103.035 150.537 104.13 151.888 104.13Z" fill="#4C8BAA"/>
<path d="M136.063 103.627C137.135 103.627 138.005 102.757 138.005 101.685C138.005 100.612 137.135 99.7429 136.063 99.7429C134.99 99.7429 134.121 100.612 134.121 101.685C134.121 102.757 134.99 103.627 136.063 103.627Z" fill="#4C8BAA"/>
<path d="M120.167 105.065C122.034 105.065 123.548 103.552 123.548 101.685C123.548 99.8177 122.034 98.3042 120.167 98.3042C118.3 98.3042 116.786 99.8177 116.786 101.685C116.786 103.552 118.3 105.065 120.167 105.065Z" fill="#4C8BAA"/>
<path d="M104.343 104.634C105.971 104.634 107.291 103.314 107.291 101.685C107.291 100.056 105.971 98.7358 104.343 98.7358C102.714 98.7358 101.394 100.056 101.394 101.685C101.394 103.314 102.714 104.634 104.343 104.634Z" fill="#4C8BAA"/>
<path d="M88.4488 104.202C89.8391 104.202 90.9662 103.075 90.9662 101.685C90.9662 100.294 89.8391 99.1672 88.4488 99.1672C87.0585 99.1672 85.9314 100.294 85.9314 101.685C85.9314 103.075 87.0585 104.202 88.4488 104.202Z" fill="#4C8BAA"/>
<path d="M278.837 87.6595C279.87 87.6595 280.707 86.8222 280.707 85.7894C280.707 84.7566 279.87 83.9194 278.837 83.9194C277.804 83.9194 276.967 84.7566 276.967 85.7894C276.967 86.8222 277.804 87.6595 278.837 87.6595Z" fill="#4C8BAA"/>
<path d="M262.94 87.6595C263.973 87.6595 264.81 86.8222 264.81 85.7894C264.81 84.7566 263.973 83.9194 262.94 83.9194C261.907 83.9194 261.07 84.7566 261.07 85.7894C261.07 86.8222 261.907 87.6595 262.94 87.6595Z" fill="#4C8BAA"/>
<path d="M247.117 87.6595C248.149 87.6595 248.986 86.8222 248.986 85.7894C248.986 84.7566 248.149 83.9194 247.117 83.9194C246.084 83.9194 245.247 84.7566 245.247 85.7894C245.247 86.8222 246.084 87.6595 247.117 87.6595Z" fill="#4C8BAA"/>
<path d="M231.221 87.9467C232.413 87.9467 233.379 86.9806 233.379 85.7889C233.379 84.5972 232.413 83.6311 231.221 83.6311C230.03 83.6311 229.064 84.5972 229.064 85.7889C229.064 86.9806 230.03 87.9467 231.221 87.9467Z" fill="#4C8BAA"/>
<path d="M215.398 88.1629C216.709 88.1629 217.771 87.1002 217.771 85.7894C217.771 84.4785 216.709 83.4158 215.398 83.4158C214.087 83.4158 213.024 84.4785 213.024 85.7894C213.024 87.1002 214.087 88.1629 215.398 88.1629Z" fill="#4C8BAA"/>
<path d="M199.501 88.6659C201.09 88.6659 202.378 87.3778 202.378 85.7889C202.378 84.2 201.09 82.9119 199.501 82.9119C197.912 82.9119 196.624 84.2 196.624 85.7889C196.624 87.3778 197.912 88.6659 199.501 88.6659Z" fill="#4C8BAA"/>
<path d="M183.677 88.6659C185.265 88.6659 186.554 87.3778 186.554 85.7889C186.554 84.2 185.265 82.9119 183.677 82.9119C182.088 82.9119 180.799 84.2 180.799 85.7889C180.799 87.3778 182.088 88.6659 183.677 88.6659Z" fill="#4C8BAA"/>
<path d="M167.783 88.7382C169.412 88.7382 170.732 87.4179 170.732 85.7892C170.732 84.1605 169.412 82.8403 167.783 82.8403C166.155 82.8403 164.834 84.1605 164.834 85.7892C164.834 87.4179 166.155 88.7382 167.783 88.7382Z" fill="#4C8BAA"/>
<path d="M151.887 87.9467C153.078 87.9467 154.044 86.9806 154.044 85.7889C154.044 84.5972 153.078 83.6311 151.887 83.6311C150.695 83.6311 149.729 84.5972 149.729 85.7889C149.729 86.9806 150.695 87.9467 151.887 87.9467Z" fill="#4C8BAA"/>
<path d="M136.063 87.5873C137.057 87.5873 137.862 86.7822 137.862 85.7891C137.862 84.796 137.057 83.991 136.063 83.991C135.07 83.991 134.265 84.796 134.265 85.7891C134.265 86.7822 135.07 87.5873 136.063 87.5873Z" fill="#4C8BAA"/>
<path d="M120.167 89.1694C122.034 89.1694 123.548 87.6559 123.548 85.7889C123.548 83.9219 122.034 82.4084 120.167 82.4084C118.3 82.4084 116.786 83.9219 116.786 85.7889C116.786 87.6559 118.3 89.1694 120.167 89.1694Z" fill="#4C8BAA"/>
<path d="M104.344 87.9467C105.536 87.9467 106.502 86.9806 106.502 85.7889C106.502 84.5972 105.536 83.6311 104.344 83.6311C103.152 83.6311 102.186 84.5972 102.186 85.7889C102.186 86.9806 103.152 87.9467 104.344 87.9467Z" fill="#4C8BAA"/>
<path d="M88.4475 88.7382C90.0762 88.7382 91.3962 87.4179 91.3962 85.7892C91.3962 84.1605 90.0762 82.8403 88.4475 82.8403C86.8189 82.8403 85.4982 84.1605 85.4982 85.7892C85.4982 87.4179 86.8189 88.7382 88.4475 88.7382Z" fill="#4C8BAA"/>
<path d="M294.733 71.7635C295.765 71.7635 296.602 70.9264 296.602 69.8936C296.602 68.8608 295.765 68.0234 294.733 68.0234C293.7 68.0234 292.862 68.8608 292.862 69.8936C292.862 70.9264 293.7 71.7635 294.733 71.7635Z" fill="#4C8BAA"/>
<path d="M278.836 72.3392C280.186 72.3392 281.282 71.2444 281.282 69.8938C281.282 68.5432 280.186 67.4482 278.836 67.4482C277.485 67.4482 276.391 68.5432 276.391 69.8938C276.391 71.2444 277.485 72.3392 278.836 72.3392Z" fill="#4C8BAA"/>
<path d="M310.555 40.6198C311.905 40.6198 313 39.525 313 38.1744C313 36.8238 311.905 35.729 310.555 35.729C309.204 35.729 308.109 36.8238 308.109 38.1744C308.109 39.525 309.204 40.6198 310.555 40.6198Z" fill="#4C8BAA"/>
<path d="M262.941 72.3392C264.291 72.3392 265.386 71.2444 265.386 69.8938C265.386 68.5432 264.291 67.4482 262.941 67.4482C261.59 67.4482 260.495 68.5432 260.495 69.8938C260.495 71.2444 261.59 72.3392 262.941 72.3392Z" fill="#4C8BAA"/>
<path d="M247.116 72.9144C248.784 72.9144 250.137 71.562 250.137 69.8936C250.137 68.2252 248.784 66.8726 247.116 66.8726C245.448 66.8726 244.095 68.2252 244.095 69.8936C244.095 71.562 245.448 72.9144 247.116 72.9144Z" fill="#4C8BAA"/>
<path d="M231.221 72.7709C232.81 72.7709 234.098 71.4828 234.098 69.8939C234.098 68.3049 232.81 67.0168 231.221 67.0168C229.632 67.0168 228.344 68.3049 228.344 69.8939C228.344 71.4828 229.632 72.7709 231.221 72.7709Z" fill="#4C8BAA"/>
<path d="M215.398 71.62C216.351 71.62 217.124 70.8472 217.124 69.8938C217.124 68.9404 216.351 68.1675 215.398 68.1675C214.445 68.1675 213.671 68.9404 213.671 69.8938C213.671 70.8472 214.445 71.62 215.398 71.62Z" fill="#4C8BAA"/>
<path d="M199.501 72.7709C201.09 72.7709 202.378 71.4828 202.378 69.8939C202.378 68.3049 201.09 67.0168 199.501 67.0168C197.912 67.0168 196.624 68.3049 196.624 69.8939C196.624 71.4828 197.912 72.7709 199.501 72.7709Z" fill="#4C8BAA"/>
<path d="M183.678 73.3462C185.585 73.3462 187.131 71.8006 187.131 69.8939C187.131 67.9872 185.585 66.4414 183.678 66.4414C181.771 66.4414 180.226 67.9872 180.226 69.8939C180.226 71.8006 181.771 73.3462 183.678 73.3462Z" fill="#4C8BAA"/>
<path d="M167.783 72.8425C169.412 72.8425 170.732 71.5223 170.732 69.8936C170.732 68.2649 169.412 66.9446 167.783 66.9446C166.155 66.9446 164.834 68.2649 164.834 69.8936C164.834 71.5223 166.155 72.8425 167.783 72.8425Z" fill="#4C8BAA"/>
<path d="M151.886 73.3462C153.793 73.3462 155.339 71.8006 155.339 69.8939C155.339 67.9872 153.793 66.4414 151.886 66.4414C149.98 66.4414 148.434 67.9872 148.434 69.8939C148.434 71.8006 149.98 73.3462 151.886 73.3462Z" fill="#4C8BAA"/>
<path d="M136.062 73.3462C137.969 73.3462 139.515 71.8006 139.515 69.8939C139.515 67.9872 137.969 66.4414 136.062 66.4414C134.155 66.4414 132.61 67.9872 132.61 69.8939C132.61 71.8006 134.155 73.3462 136.062 73.3462Z" fill="#4C8BAA"/>
<path d="M120.168 73.5617C122.194 73.5617 123.836 71.9195 123.836 69.8936C123.836 67.8677 122.194 66.2253 120.168 66.2253C118.142 66.2253 116.5 67.8677 116.5 69.8936C116.5 71.9195 118.142 73.5617 120.168 73.5617Z" fill="#4C8BAA"/>
<path d="M104.344 72.4113C105.734 72.4113 106.861 71.2842 106.861 69.8939C106.861 68.5035 105.734 67.3765 104.344 67.3765C102.954 67.3765 101.827 68.5035 101.827 69.8939C101.827 71.2842 102.954 72.4113 104.344 72.4113Z" fill="#4C8BAA"/>
<path d="M88.4493 73.0583C90.1972 73.0583 91.6137 71.6414 91.6137 69.8936C91.6137 68.1458 90.1972 66.7288 88.4493 66.7288C86.7015 66.7288 85.2843 68.1458 85.2843 69.8936C85.2843 71.6414 86.7015 73.0583 88.4493 73.0583Z" fill="#4C8BAA"/>
<path d="M88.4483 41.6266C90.3551 41.6266 91.9006 40.0809 91.9006 38.1742C91.9006 36.2674 90.3551 34.7217 88.4483 34.7217C86.5416 34.7217 84.9953 36.2674 84.9953 38.1742C84.9953 40.0809 86.5416 41.6266 88.4483 41.6266Z" fill="#4C8BAA"/>
<path d="M104.344 41.6266C106.251 41.6266 107.797 40.0809 107.797 38.1742C107.797 36.2674 106.251 34.7217 104.344 34.7217C102.438 34.7217 100.892 36.2674 100.892 38.1742C100.892 40.0809 102.438 41.6266 104.344 41.6266Z" fill="#4C8BAA"/>
<path d="M120.168 41.8427C122.194 41.8427 123.836 40.2003 123.836 38.1744C123.836 36.1485 122.194 34.5061 120.168 34.5061C118.142 34.5061 116.5 36.1485 116.5 38.1744C116.5 40.2003 118.142 41.8427 120.168 41.8427Z" fill="#4C8BAA"/>
<path d="M136.063 40.6915C137.454 40.6915 138.581 39.5645 138.581 38.1741C138.581 36.7838 137.454 35.6567 136.063 35.6567C134.673 35.6567 133.546 36.7838 133.546 38.1741C133.546 39.5645 134.673 40.6915 136.063 40.6915Z" fill="#4C8BAA"/>
<path d="M151.887 41.3389C153.635 41.3389 155.052 39.922 155.052 38.1742C155.052 36.4264 153.635 35.0095 151.887 35.0095C150.139 35.0095 148.723 36.4264 148.723 38.1742C148.723 39.922 150.139 41.3389 151.887 41.3389Z" fill="#4C8BAA"/>
<path d="M167.783 40.5477C169.093 40.5477 170.156 39.485 170.156 38.1741C170.156 36.8632 169.093 35.8005 167.783 35.8005C166.472 35.8005 165.409 36.8632 165.409 38.1741C165.409 39.485 166.472 40.5477 167.783 40.5477Z" fill="#4C8BAA"/>
<path d="M183.677 40.6915C185.067 40.6915 186.194 39.5645 186.194 38.1741C186.194 36.7838 185.067 35.6567 183.677 35.6567C182.286 35.6567 181.159 36.7838 181.159 38.1741C181.159 39.5645 182.286 40.6915 183.677 40.6915Z" fill="#4C8BAA"/>
<path d="M199.501 41.9865C201.607 41.9865 203.313 40.2798 203.313 38.1744C203.313 36.0691 201.607 34.3623 199.501 34.3623C197.396 34.3623 195.69 36.0691 195.69 38.1744C195.69 40.2798 197.396 41.9865 199.501 41.9865Z" fill="#4C8BAA"/>
<path d="M215.397 41.2675C217.106 41.2675 218.49 39.8827 218.49 38.1746C218.49 36.4665 217.106 35.0818 215.397 35.0818C213.689 35.0818 212.304 36.4665 212.304 38.1746C212.304 39.8827 213.689 41.2675 215.397 41.2675Z" fill="#4C8BAA"/>
<path d="M231.221 41.7705C233.207 41.7705 234.817 40.1604 234.817 38.1742C234.817 36.188 233.207 34.5779 231.221 34.5779C229.235 34.5779 227.625 36.188 227.625 38.1742C227.625 40.1604 229.235 41.7705 231.221 41.7705Z" fill="#4C8BAA"/>
<path d="M247.116 41.4828C248.943 41.4828 250.424 40.0014 250.424 38.1741C250.424 36.3469 248.943 34.8655 247.116 34.8655C245.289 34.8655 243.808 36.3469 243.808 38.1741C243.808 40.0014 245.289 41.4828 247.116 41.4828Z" fill="#4C8BAA"/>
<path d="M262.941 41.2675C264.649 41.2675 266.034 39.8827 266.034 38.1746C266.034 36.4665 264.649 35.0818 262.941 35.0818C261.233 35.0818 259.849 36.4665 259.849 38.1746C259.849 39.8827 261.233 41.2675 262.941 41.2675Z" fill="#4C8BAA"/>
<path d="M278.836 41.4828C280.664 41.4828 282.145 40.0014 282.145 38.1741C282.145 36.3469 280.664 34.8655 278.836 34.8655C277.009 34.8655 275.528 36.3469 275.528 38.1741C275.528 40.0014 277.009 41.4828 278.836 41.4828Z" fill="#4C8BAA"/>
<path d="M294.732 39.7567C295.606 39.7567 296.314 39.0483 296.314 38.1744C296.314 37.3005 295.606 36.592 294.732 36.592C293.858 36.592 293.149 37.3005 293.149 38.1744C293.149 39.0483 293.858 39.7567 294.732 39.7567Z" fill="#4C8BAA"/>
<path d="M120.167 26.4505C122.432 26.4505 124.267 24.615 124.267 22.3507C124.267 20.0865 122.432 18.251 120.167 18.251C117.903 18.251 116.068 20.0865 116.068 22.3507C116.068 24.615 117.903 26.4505 120.167 26.4505Z" fill="#4C8BAA"/>
<path d="M136.062 26.1625C138.167 26.1625 139.875 24.4558 139.875 22.3504C139.875 20.2451 138.167 18.5383 136.062 18.5383C133.957 18.5383 132.25 20.2451 132.25 22.3504C132.25 24.4558 133.957 26.1625 136.062 26.1625Z" fill="#4C8BAA"/>
<path d="M151.886 26.1625C153.991 26.1625 155.699 24.4558 155.699 22.3504C155.699 20.2451 153.991 18.5383 151.886 18.5383C149.781 18.5383 148.074 20.2451 148.074 22.3504C148.074 24.4558 149.781 26.1625 151.886 26.1625Z" fill="#4C8BAA"/>
<path d="M167.783 25.947C169.769 25.947 171.379 24.3369 171.379 22.3507C171.379 20.3645 169.769 18.7544 167.783 18.7544C165.797 18.7544 164.187 20.3645 164.187 22.3507C164.187 24.3369 165.797 25.947 167.783 25.947Z" fill="#4C8BAA"/>
<path d="M183.678 26.4505C185.942 26.4505 187.778 24.615 187.778 22.3507C187.778 20.0865 185.942 18.251 183.678 18.251C181.414 18.251 179.578 20.0865 179.578 22.3507C179.578 24.615 181.414 26.4505 183.678 26.4505Z" fill="#4C8BAA"/>
<path d="M199.501 26.1625C201.607 26.1625 203.313 24.4558 203.313 22.3504C203.313 20.2451 201.607 18.5383 199.501 18.5383C197.396 18.5383 195.69 20.2451 195.69 22.3504C195.69 24.4558 197.396 26.1625 199.501 26.1625Z" fill="#4C8BAA"/>
<path d="M215.397 25.6591C217.225 25.6591 218.706 24.1777 218.706 22.3504C218.706 20.5231 217.225 19.0417 215.397 19.0417C213.57 19.0417 212.088 20.5231 212.088 22.3504C212.088 24.1777 213.57 25.6591 215.397 25.6591Z" fill="#4C8BAA"/>
<path d="M231.221 25.947C233.207 25.947 234.817 24.3369 234.817 22.3507C234.817 20.3645 233.207 18.7544 231.221 18.7544C229.235 18.7544 227.625 20.3645 227.625 22.3507C227.625 24.3369 229.235 25.947 231.221 25.947Z" fill="#4C8BAA"/>
<path d="M247.117 26.1625C249.222 26.1625 250.929 24.4558 250.929 22.3504C250.929 20.2451 249.222 18.5383 247.117 18.5383C245.011 18.5383 243.305 20.2451 243.305 22.3504C243.305 24.4558 245.011 26.1625 247.117 26.1625Z" fill="#4C8BAA"/>
<path d="M262.942 26.1625C265.047 26.1625 266.754 24.4558 266.754 22.3504C266.754 20.2451 265.047 18.5383 262.942 18.5383C260.837 18.5383 259.13 20.2451 259.13 22.3504C259.13 24.4558 260.837 26.1625 262.942 26.1625Z" fill="#4C8BAA"/>
<path d="M278.836 25.6591C280.664 25.6591 282.145 24.1777 282.145 22.3504C282.145 20.5231 280.664 19.0417 278.836 19.0417C277.009 19.0417 275.528 20.5231 275.528 22.3504C275.528 24.1777 277.009 25.6591 278.836 25.6591Z" fill="#4C8BAA"/>
<path d="M294.732 23.933C295.606 23.933 296.314 23.2246 296.314 22.3506C296.314 21.4767 295.606 20.7683 294.732 20.7683C293.858 20.7683 293.149 21.4767 293.149 22.3506C293.149 23.2246 293.858 23.933 294.732 23.933Z" fill="#4C8BAA"/>
<path d="M88.4483 57.5224C90.3551 57.5224 91.9006 55.9769 91.9006 54.0702C91.9006 52.1634 90.3551 50.6177 88.4483 50.6177C86.5416 50.6177 84.9953 52.1634 84.9953 54.0702C84.9953 55.9769 86.5416 57.5224 88.4483 57.5224Z" fill="#4C8BAA"/>
<path d="M104.344 57.5224C106.251 57.5224 107.797 55.9769 107.797 54.0702C107.797 52.1634 106.251 50.6177 104.344 50.6177C102.438 50.6177 100.892 52.1634 100.892 54.0702C100.892 55.9769 102.438 57.5224 104.344 57.5224Z" fill="#4C8BAA"/>
<path d="M120.168 57.7383C122.194 57.7383 123.836 56.096 123.836 54.0701C123.836 52.0442 122.194 50.4019 120.168 50.4019C118.142 50.4019 116.5 52.0442 116.5 54.0701C116.5 56.096 118.142 57.7383 120.168 57.7383Z" fill="#4C8BAA"/>
<path d="M136.063 56.5873C137.454 56.5873 138.581 55.4602 138.581 54.0699C138.581 52.6796 137.454 51.5525 136.063 51.5525C134.673 51.5525 133.546 52.6796 133.546 54.0699C133.546 55.4602 134.673 56.5873 136.063 56.5873Z" fill="#4C8BAA"/>
<path d="M151.887 57.2345C153.635 57.2345 155.052 55.8177 155.052 54.0699C155.052 52.322 153.635 50.905 151.887 50.905C150.139 50.905 148.723 52.322 148.723 54.0699C148.723 55.8177 150.139 57.2345 151.887 57.2345Z" fill="#4C8BAA"/>
<path d="M167.783 56.4433C169.093 56.4433 170.156 55.3808 170.156 54.0699C170.156 52.759 169.093 51.6963 167.783 51.6963C166.472 51.6963 165.409 52.759 165.409 54.0699C165.409 55.3808 166.472 56.4433 167.783 56.4433Z" fill="#4C8BAA"/>
<path d="M183.677 56.5873C185.067 56.5873 186.194 55.4602 186.194 54.0699C186.194 52.6796 185.067 51.5525 183.677 51.5525C182.286 51.5525 181.159 52.6796 181.159 54.0699C181.159 55.4602 182.286 56.5873 183.677 56.5873Z" fill="#4C8BAA"/>
<path d="M199.501 57.8821C201.607 57.8821 203.313 56.1755 203.313 54.0702C203.313 51.9648 201.607 50.2581 199.501 50.2581C197.396 50.2581 195.69 51.9648 195.69 54.0702C195.69 56.1755 197.396 57.8821 199.501 57.8821Z" fill="#4C8BAA"/>
<path d="M215.397 57.1626C217.106 57.1626 218.49 55.778 218.49 54.0699C218.49 52.3618 217.106 50.9771 215.397 50.9771C213.689 50.9771 212.304 52.3618 212.304 54.0699C212.304 55.778 213.689 57.1626 215.397 57.1626Z" fill="#4C8BAA"/>
<path d="M231.221 57.6662C233.207 57.6662 234.817 56.0561 234.817 54.0699C234.817 52.0837 233.207 50.4736 231.221 50.4736C229.235 50.4736 227.625 52.0837 227.625 54.0699C227.625 56.0561 229.235 57.6662 231.221 57.6662Z" fill="#4C8BAA"/>
<path d="M247.116 57.3786C248.943 57.3786 250.424 55.8974 250.424 54.0701C250.424 52.2429 248.943 50.7615 247.116 50.7615C245.289 50.7615 243.808 52.2429 243.808 54.0701C243.808 55.8974 245.289 57.3786 247.116 57.3786Z" fill="#4C8BAA"/>
<path d="M262.941 57.1626C264.649 57.1626 266.034 55.778 266.034 54.0699C266.034 52.3618 264.649 50.9771 262.941 50.9771C261.233 50.9771 259.849 52.3618 259.849 54.0699C259.849 55.778 261.233 57.1626 262.941 57.1626Z" fill="#4C8BAA"/>
<path d="M278.836 57.3786C280.664 57.3786 282.145 55.8974 282.145 54.0701C282.145 52.2429 280.664 50.7615 278.836 50.7615C277.009 50.7615 275.528 52.2429 275.528 54.0701C275.528 55.8974 277.009 57.3786 278.836 57.3786Z" fill="#4C8BAA"/>
<path d="M294.732 55.6524C295.606 55.6524 296.314 54.944 296.314 54.0701C296.314 53.1961 295.606 52.4875 294.732 52.4875C293.858 52.4875 293.149 53.1961 293.149 54.0701C293.149 54.944 293.858 55.6524 294.732 55.6524Z" fill="#4C8BAA"/>
<path d="M310.555 55.6524C311.429 55.6524 312.138 54.944 312.138 54.0701C312.138 53.1961 311.429 52.4875 310.555 52.4875C309.681 52.4875 308.973 53.1961 308.973 54.0701C308.973 54.944 309.681 55.6524 310.555 55.6524Z" fill="#4C8BAA"/>
<path d="M120.168 10.123C122.194 10.123 123.836 8.48063 123.836 6.45473C123.836 4.42883 122.194 2.78662 120.168 2.78662C118.142 2.78662 116.5 4.42883 116.5 6.45473C116.5 8.48063 118.142 10.123 120.168 10.123Z" fill="#4C8BAA"/>
<path d="M136.062 10.6265C138.366 10.6265 140.234 8.75873 140.234 6.45476C140.234 4.1508 138.366 2.2832 136.062 2.2832C133.758 2.2832 131.89 4.1508 131.89 6.45476C131.89 8.75873 133.758 10.6265 136.062 10.6265Z" fill="#4C8BAA"/>
<path d="M151.886 10.2671C153.991 10.2671 155.699 8.56034 155.699 6.455C155.699 4.34965 153.991 2.64307 151.886 2.64307C149.781 2.64307 148.074 4.34965 148.074 6.455C148.074 8.56034 149.781 10.2671 151.886 10.2671Z" fill="#4C8BAA"/>
<path d="M167.783 10.2671C169.888 10.2671 171.595 8.56034 171.595 6.455C171.595 4.34965 169.888 2.64307 167.783 2.64307C165.678 2.64307 163.971 4.34965 163.971 6.455C163.971 8.56034 165.678 10.2671 167.783 10.2671Z" fill="#4C8BAA"/>
<path d="M183.678 9.76363C185.505 9.76363 186.987 8.28225 186.987 6.45497C186.987 4.62768 185.505 3.14648 183.678 3.14648C181.851 3.14648 180.37 4.62768 180.37 6.45497C180.37 8.28225 181.851 9.76363 183.678 9.76363Z" fill="#4C8BAA"/>
<path d="M199.501 10.2671C201.607 10.2671 203.313 8.56034 203.313 6.455C203.313 4.34965 201.607 2.64307 199.501 2.64307C197.396 2.64307 195.69 4.34965 195.69 6.455C195.69 8.56034 197.396 10.2671 199.501 10.2671Z" fill="#4C8BAA"/>
<path d="M215.397 10.3391C217.542 10.3391 219.281 8.60004 219.281 6.45497C219.281 4.3099 217.542 2.57104 215.397 2.57104C213.252 2.57104 211.513 4.3099 211.513 6.45497C211.513 8.60004 213.252 10.3391 215.397 10.3391Z" fill="#4C8BAA"/>
<path d="M231.221 10.0515C233.207 10.0515 234.817 8.44136 234.817 6.45518C234.817 4.469 233.207 2.85889 231.221 2.85889C229.235 2.85889 227.625 4.469 227.625 6.45518C227.625 8.44136 229.235 10.0515 231.221 10.0515Z" fill="#4C8BAA"/>
<path d="M247.116 9.76363C248.943 9.76363 250.424 8.28225 250.424 6.45497C250.424 4.62768 248.943 3.14648 247.116 3.14648C245.289 3.14648 243.808 4.62768 243.808 6.45497C243.808 8.28225 245.289 9.76363 247.116 9.76363Z" fill="#4C8BAA"/>
<path d="M262.942 10.6265C265.246 10.6265 267.113 8.75873 267.113 6.45476C267.113 4.1508 265.246 2.2832 262.942 2.2832C260.638 2.2832 258.77 4.1508 258.77 6.45476C258.77 8.75873 260.638 10.6265 262.942 10.6265Z" fill="#4C8BAA"/>
<path d="M278.836 9.76363C280.664 9.76363 282.145 8.28225 282.145 6.45497C282.145 4.62768 280.664 3.14648 278.836 3.14648C277.009 3.14648 275.528 4.62768 275.528 6.45497C275.528 8.28225 277.009 9.76363 278.836 9.76363Z" fill="#4C8BAA"/>
<path d="M294.732 8.0374C295.606 8.0374 296.314 7.32881 296.314 6.45489C296.314 5.58097 295.606 4.87256 294.732 4.87256C293.858 4.87256 293.149 5.58097 293.149 6.45489C293.149 7.32881 293.858 8.0374 294.732 8.0374Z" fill="#4C8BAA"/>
<path d="M56.728 26.4505C58.9923 26.4505 60.8279 24.615 60.8279 22.3507C60.8279 20.0865 58.9923 18.251 56.728 18.251C54.4638 18.251 52.6281 20.0865 52.6281 22.3507C52.6281 24.615 54.4638 26.4505 56.728 26.4505Z" fill="#4C8BAA"/>
<path d="M72.5515 26.1625C74.6569 26.1625 76.3635 24.4558 76.3635 22.3504C76.3635 20.2451 74.6569 18.5383 72.5515 18.5383C70.4462 18.5383 68.7396 20.2451 68.7396 22.3504C68.7396 24.4558 70.4462 26.1625 72.5515 26.1625Z" fill="#4C8BAA"/>
<path d="M88.4482 26.1625C90.5536 26.1625 92.2601 24.4558 92.2601 22.3504C92.2601 20.2451 90.5536 18.5383 88.4482 18.5383C86.3429 18.5383 84.6356 20.2451 84.6356 22.3504C84.6356 24.4558 86.3429 26.1625 88.4482 26.1625Z" fill="#4C8BAA"/>
<path d="M104.344 25.947C106.33 25.947 107.941 24.3369 107.941 22.3507C107.941 20.3645 106.33 18.7544 104.344 18.7544C102.358 18.7544 100.748 20.3645 100.748 22.3507C100.748 24.3369 102.358 25.947 104.344 25.947Z" fill="#4C8BAA"/>
<path d="M56.7301 10.123C58.756 10.123 60.3987 8.48063 60.3987 6.45473C60.3987 4.42883 58.756 2.78662 56.7301 2.78662C54.7042 2.78662 53.0621 4.42883 53.0621 6.45473C53.0621 8.48063 54.7042 10.123 56.7301 10.123Z" fill="#4C8BAA"/>
<path d="M72.5525 10.3391C74.6975 10.3391 76.4367 8.60004 76.4367 6.45497C76.4367 4.3099 74.6975 2.57104 72.5525 2.57104C70.4074 2.57104 68.6689 4.3099 68.6689 6.45497C68.6689 8.60004 70.4074 10.3391 72.5525 10.3391Z" fill="#4C8BAA"/>
<path d="M88.4482 10.2671C90.5536 10.2671 92.2601 8.56034 92.2601 6.455C92.2601 4.34965 90.5536 2.64307 88.4482 2.64307C86.3429 2.64307 84.6356 4.34965 84.6356 6.455C84.6356 8.56034 86.3429 10.2671 88.4482 10.2671Z" fill="#4C8BAA"/>
<path d="M104.344 10.2671C106.45 10.2671 108.156 8.56034 108.156 6.455C108.156 4.34965 106.45 2.64307 104.344 2.64307C102.239 2.64307 100.532 4.34965 100.532 6.455C100.532 8.56034 102.239 10.2671 104.344 10.2671Z" fill="#4C8BAA"/>
<path d="M40.8339 26.4505C43.0982 26.4505 44.9338 24.615 44.9338 22.3507C44.9338 20.0865 43.0982 18.251 40.8339 18.251C38.5697 18.251 36.734 20.0865 36.734 22.3507C36.734 24.615 38.5697 26.4505 40.8339 26.4505Z" fill="#4C8BAA"/>
<path d="M25.0105 26.1625C27.1159 26.1625 28.8225 24.4558 28.8225 22.3504C28.8225 20.2451 27.1159 18.5383 25.0105 18.5383C22.9052 18.5383 21.1986 20.2451 21.1986 22.3504C21.1986 24.4558 22.9052 26.1625 25.0105 26.1625Z" fill="#4C8BAA"/>
<path d="M9.11289 26.1625C11.2182 26.1625 12.9255 24.4558 12.9255 22.3504C12.9255 20.2451 11.2182 18.5383 9.11289 18.5383C7.00755 18.5383 5.30096 20.2451 5.30096 22.3504C5.30096 24.4558 7.00755 26.1625 9.11289 26.1625Z" fill="#4C8BAA"/>
<path d="M40.8331 10.123C42.859 10.123 44.5011 8.48063 44.5011 6.45473C44.5011 4.42883 42.859 2.78662 40.8331 2.78662C38.8072 2.78662 37.1645 4.42883 37.1645 6.45473C37.1645 8.48063 38.8072 10.123 40.8331 10.123Z" fill="#4C8BAA"/>
<path d="M25.0103 10.4829C27.2348 10.4829 29.0379 8.67951 29.0379 6.45499C29.0379 4.23047 27.2348 2.42725 25.0103 2.42725C22.7858 2.42725 20.982 4.23047 20.982 6.45499C20.982 8.67951 22.7858 10.4829 25.0103 10.4829Z" fill="#4C8BAA"/>
<path d="M9.11289 10.2671C11.2182 10.2671 12.9255 8.56034 12.9255 6.455C12.9255 4.34965 11.2182 2.64307 9.11289 2.64307C7.00755 2.64307 5.30096 4.34965 5.30096 6.455C5.30096 8.56034 7.00755 10.2671 9.11289 10.2671Z" fill="#4C8BAA"/>
<path d="M25.0094 198.425C25.8833 198.425 26.5919 197.717 26.5919 196.843C26.5919 195.969 25.8833 195.26 25.0094 195.26C24.1355 195.26 23.4269 195.969 23.4269 196.843C23.4269 197.717 24.1355 198.425 25.0094 198.425Z" fill="#4C8BAA"/>
<path d="M40.8345 198.641C41.8276 198.641 42.6327 197.836 42.6327 196.843C42.6327 195.85 41.8276 195.045 40.8345 195.045C39.8414 195.045 39.0364 195.85 39.0364 196.843C39.0364 197.836 39.8414 198.641 40.8345 198.641Z" fill="#4C8BAA"/>
<path d="M56.7288 198.641C57.7219 198.641 58.527 197.836 58.527 196.843C58.527 195.85 57.7219 195.045 56.7288 195.045C55.7358 195.045 54.9307 195.85 54.9307 196.843C54.9307 197.836 55.7358 198.641 56.7288 198.641Z" fill="#4C8BAA"/>
<path d="M72.5532 198.425C73.4271 198.425 74.1357 197.717 74.1357 196.843C74.1357 195.969 73.4271 195.26 72.5532 195.26C71.6792 195.26 70.9706 195.969 70.9706 196.843C70.9706 197.717 71.6792 198.425 72.5532 198.425Z" fill="#4C8BAA"/>
<path d="M9.11351 182.745C10.1066 182.745 10.9117 181.94 10.9117 180.947C10.9117 179.954 10.1066 179.149 9.11351 179.149C8.12043 179.149 7.31537 179.954 7.31537 180.947C7.31537 181.94 8.12043 182.745 9.11351 182.745Z" fill="#4C8BAA"/>
<path d="M25.0104 182.242C25.7254 182.242 26.3049 181.662 26.3049 180.947C26.3049 180.232 25.7254 179.652 25.0104 179.652C24.2954 179.652 23.7159 180.232 23.7159 180.947C23.7159 181.662 24.2954 182.242 25.0104 182.242Z" fill="#4C8BAA"/>
<path d="M40.8344 183.249C42.1056 183.249 43.1362 182.218 43.1362 180.947C43.1362 179.676 42.1056 178.646 40.8344 178.646C39.5633 178.646 38.5327 179.676 38.5327 180.947C38.5327 182.218 39.5633 183.249 40.8344 183.249Z" fill="#4C8BAA"/>
<path d="M56.7288 182.745C57.7219 182.745 58.527 181.94 58.527 180.947C58.527 179.954 57.7219 179.149 56.7288 179.149C55.7358 179.149 54.9307 179.954 54.9307 180.947C54.9307 181.94 55.7358 182.745 56.7288 182.745Z" fill="#4C8BAA"/>
<path d="M72.5532 182.529C73.4271 182.529 74.1357 181.821 74.1357 180.947C74.1357 180.073 73.4271 179.365 72.5532 179.365C71.6792 179.365 70.9706 180.073 70.9706 180.947C70.9706 181.821 71.6792 182.529 72.5532 182.529Z" fill="#4C8BAA"/>
<path d="M9.11379 166.706C9.98771 166.706 10.6963 165.998 10.6963 165.124C10.6963 164.25 9.98771 163.541 9.11379 163.541C8.23987 163.541 7.53198 164.25 7.53198 165.124C7.53198 165.998 8.23987 166.706 9.11379 166.706Z" fill="#4C8BAA"/>
<path d="M25.0094 166.706C25.8833 166.706 26.5919 165.998 26.5919 165.124C26.5919 164.25 25.8833 163.541 25.0094 163.541C24.1355 163.541 23.4269 164.25 23.4269 165.124C23.4269 165.998 24.1355 166.706 25.0094 166.706Z" fill="#4C8BAA"/>
<path d="M40.834 166.418C41.549 166.418 42.1285 165.838 42.1285 165.123C42.1285 164.408 41.549 163.829 40.834 163.829C40.119 163.829 39.5395 164.408 39.5395 165.123C39.5395 165.838 40.119 166.418 40.834 166.418Z" fill="#4C8BAA"/>
<path d="M56.7286 167.065C57.8012 167.065 58.6708 166.196 58.6708 165.123C58.6708 164.051 57.8012 163.181 56.7286 163.181C55.6561 163.181 54.7865 164.051 54.7865 165.123C54.7865 166.196 55.6561 167.065 56.7286 167.065Z" fill="#4C8BAA"/>
<path d="M72.5532 166.706C73.4271 166.706 74.1357 165.998 74.1357 165.124C74.1357 164.25 73.4271 163.541 72.5532 163.541C71.6792 163.541 70.9706 164.25 70.9706 165.124C70.9706 165.998 71.6792 166.706 72.5532 166.706Z" fill="#4C8BAA"/>
<path d="M9.11351 151.026C10.1066 151.026 10.9117 150.221 10.9117 149.228C10.9117 148.235 10.1066 147.43 9.11351 147.43C8.12043 147.43 7.31537 148.235 7.31537 149.228C7.31537 150.221 8.12043 151.026 9.11351 151.026Z" fill="#4C8BAA"/>
<path d="M25.0112 151.026C26.0042 151.026 26.8093 150.221 26.8093 149.228C26.8093 148.235 26.0042 147.43 25.0112 147.43C24.0181 147.43 23.213 148.235 23.213 149.228C23.213 150.221 24.0181 151.026 25.0112 151.026Z" fill="#4C8BAA"/>
<path d="M40.8337 151.17C41.9063 151.17 42.7759 150.3 42.7759 149.228C42.7759 148.155 41.9063 147.286 40.8337 147.286C39.7612 147.286 38.8916 148.155 38.8916 149.228C38.8916 150.3 39.7612 151.17 40.8337 151.17Z" fill="#4C8BAA"/>
<path d="M56.7286 151.17C57.8012 151.17 58.6708 150.3 58.6708 149.228C58.6708 148.155 57.8012 147.286 56.7286 147.286C55.6561 147.286 54.7865 148.155 54.7865 149.228C54.7865 150.3 55.6561 151.17 56.7286 151.17Z" fill="#4C8BAA"/>
<path d="M72.553 151.17C73.6256 151.17 74.4952 150.3 74.4952 149.228C74.4952 148.155 73.6256 147.286 72.553 147.286C71.4805 147.286 70.6109 148.155 70.6109 149.228C70.6109 150.3 71.4805 151.17 72.553 151.17Z" fill="#4C8BAA"/>
<path d="M9.11422 135.85C10.4648 135.85 11.56 134.755 11.56 133.404C11.56 132.054 10.4648 130.959 9.11422 130.959C7.76362 130.959 6.66916 132.054 6.66916 133.404C6.66916 134.755 7.76362 135.85 9.11422 135.85Z" fill="#4C8BAA"/>
<path d="M25.0112 135.202C26.0042 135.202 26.8093 134.397 26.8093 133.404C26.8093 132.411 26.0042 131.606 25.0112 131.606C24.0181 131.606 23.213 132.411 23.213 133.404C23.213 134.397 24.0181 135.202 25.0112 135.202Z" fill="#4C8BAA"/>
<path d="M40.8344 135.706C42.1056 135.706 43.1362 134.675 43.1362 133.404C43.1362 132.133 42.1056 131.103 40.8344 131.103C39.5633 131.103 38.5327 132.133 38.5327 133.404C38.5327 134.675 39.5633 135.706 40.8344 135.706Z" fill="#4C8BAA"/>
<path d="M56.7294 136.353C58.3581 136.353 59.6788 135.033 59.6788 133.404C59.6788 131.775 58.3581 130.455 56.7294 130.455C55.1008 130.455 53.7808 131.775 53.7808 133.404C53.7808 135.033 55.1008 136.353 56.7294 136.353Z" fill="#4C8BAA"/>
<path d="M72.5532 135.49C73.7052 135.49 74.6393 134.556 74.6393 133.404C74.6393 132.252 73.7052 131.318 72.5532 131.318C71.4012 131.318 70.4677 132.252 70.4677 133.404C70.4677 134.556 71.4012 135.49 72.5532 135.49Z" fill="#4C8BAA"/>
<path d="M9.1134 119.666C10.3051 119.666 11.2712 118.7 11.2712 117.509C11.2712 116.317 10.3051 115.351 9.1134 115.351C7.9217 115.351 6.95563 116.317 6.95563 117.509C6.95563 118.7 7.9217 119.666 9.1134 119.666Z" fill="#4C8BAA"/>
<path d="M25.0106 120.457C26.6392 120.457 27.9592 119.137 27.9592 117.509C27.9592 115.88 26.6392 114.56 25.0106 114.56C23.3819 114.56 22.0612 115.88 22.0612 117.509C22.0612 119.137 23.3819 120.457 25.0106 120.457Z" fill="#4C8BAA"/>
<path d="M40.8328 119.379C41.8656 119.379 42.7026 118.541 42.7026 117.509C42.7026 116.476 41.8656 115.638 40.8328 115.638C39.8 115.638 38.9623 116.476 38.9623 117.509C38.9623 118.541 39.8 119.379 40.8328 119.379Z" fill="#4C8BAA"/>
<path d="M56.7287 119.666C57.9204 119.666 58.8865 118.7 58.8865 117.509C58.8865 116.317 57.9204 115.351 56.7287 115.351C55.537 115.351 54.571 116.317 54.571 117.509C54.571 118.7 55.537 119.666 56.7287 119.666Z" fill="#4C8BAA"/>
<path d="M72.5536 120.457C74.1823 120.457 75.503 119.137 75.503 117.509C75.503 115.88 74.1823 114.56 72.5536 114.56C70.925 114.56 69.6049 115.88 69.6049 117.509C69.6049 119.137 70.925 120.457 72.5536 120.457Z" fill="#4C8BAA"/>
<path d="M9.11422 104.13C10.4648 104.13 11.56 103.035 11.56 101.685C11.56 100.334 10.4648 99.2393 9.11422 99.2393C7.76362 99.2393 6.66916 100.334 6.66916 101.685C6.66916 103.035 7.76362 104.13 9.11422 104.13Z" fill="#4C8BAA"/>
<path d="M25.0093 103.627C26.0818 103.627 26.9514 102.757 26.9514 101.685C26.9514 100.612 26.0818 99.7429 25.0093 99.7429C23.9368 99.7429 23.0672 100.612 23.0672 101.685C23.0672 102.757 23.9368 103.627 25.0093 103.627Z" fill="#4C8BAA"/>
<path d="M40.8341 105.065C42.7012 105.065 44.2148 103.552 44.2148 101.685C44.2148 99.8177 42.7012 98.3042 40.8341 98.3042C38.9671 98.3042 37.4535 99.8177 37.4535 101.685C37.4535 103.552 38.9671 105.065 40.8341 105.065Z" fill="#4C8BAA"/>
<path d="M56.7294 104.634C58.3581 104.634 59.6788 103.314 59.6788 101.685C59.6788 100.056 58.3581 98.7358 56.7294 98.7358C55.1008 98.7358 53.7808 100.056 53.7808 101.685C53.7808 103.314 55.1008 104.634 56.7294 104.634Z" fill="#4C8BAA"/>
<path d="M72.5519 104.202C73.9423 104.202 75.0694 103.075 75.0694 101.685C75.0694 100.294 73.9423 99.1672 72.5519 99.1672C71.1616 99.1672 70.0345 100.294 70.0345 101.685C70.0345 103.075 71.1616 104.202 72.5519 104.202Z" fill="#4C8BAA"/>
<path d="M9.1134 87.9467C10.3051 87.9467 11.2712 86.9806 11.2712 85.7889C11.2712 84.5972 10.3051 83.6311 9.1134 83.6311C7.9217 83.6311 6.95563 84.5972 6.95563 85.7889C6.95563 86.9806 7.9217 87.9467 9.1134 87.9467Z" fill="#4C8BAA"/>
<path d="M25.0112 87.5873C26.0042 87.5873 26.8093 86.7822 26.8093 85.7891C26.8093 84.796 26.0042 83.991 25.0112 83.991C24.0181 83.991 23.213 84.796 23.213 85.7891C23.213 86.7822 24.0181 87.5873 25.0112 87.5873Z" fill="#4C8BAA"/>
<path d="M40.8341 89.1694C42.7012 89.1694 44.2148 87.6559 44.2148 85.7889C44.2148 83.9219 42.7012 82.4084 40.8341 82.4084C38.9671 82.4084 37.4535 83.9219 37.4535 85.7889C37.4535 87.6559 38.9671 89.1694 40.8341 89.1694Z" fill="#4C8BAA"/>
<path d="M56.7287 87.9467C57.9204 87.9467 58.8865 86.9806 58.8865 85.7889C58.8865 84.5972 57.9204 83.6311 56.7287 83.6311C55.537 83.6311 54.571 84.5972 54.571 85.7889C54.571 86.9806 55.537 87.9467 56.7287 87.9467Z" fill="#4C8BAA"/>
<path d="M72.5536 88.7382C74.1823 88.7382 75.503 87.4179 75.503 85.7892C75.503 84.1605 74.1823 82.8403 72.5536 82.8403C70.925 82.8403 69.6049 84.1605 69.6049 85.7892C69.6049 87.4179 70.925 88.7382 72.5536 88.7382Z" fill="#4C8BAA"/>
<path d="M9.113 73.3462C11.0197 73.3462 12.566 71.8006 12.566 69.8939C12.566 67.9872 11.0197 66.4414 9.113 66.4414C7.20627 66.4414 5.66071 67.9872 5.66071 69.8939C5.66071 71.8006 7.20627 73.3462 9.113 73.3462Z" fill="#4C8BAA"/>
<path d="M25.0106 73.3462C26.9174 73.3462 28.4629 71.8006 28.4629 69.8939C28.4629 67.9872 26.9174 66.4414 25.0106 66.4414C23.1039 66.4414 21.5583 67.9872 21.5583 69.8939C21.5583 71.8006 23.1039 73.3462 25.0106 73.3462Z" fill="#4C8BAA"/>
<path d="M40.8331 73.5617C42.859 73.5617 44.5011 71.9195 44.5011 69.8936C44.5011 67.8677 42.859 66.2253 40.8331 66.2253C38.8072 66.2253 37.1645 67.8677 37.1645 69.8936C37.1645 71.9195 38.8072 73.5617 40.8331 73.5617Z" fill="#4C8BAA"/>
<path d="M56.7286 72.4113C58.1189 72.4113 59.246 71.2842 59.246 69.8939C59.246 68.5035 58.1189 67.3765 56.7286 67.3765C55.3383 67.3765 54.2112 68.5035 54.2112 69.8939C54.2112 71.2842 55.3383 72.4113 56.7286 72.4113Z" fill="#4C8BAA"/>
<path d="M72.5527 73.0583C74.3005 73.0583 75.7177 71.6414 75.7177 69.8936C75.7177 68.1458 74.3005 66.7288 72.5527 66.7288C70.8048 66.7288 69.3884 68.1458 69.3884 69.8936C69.3884 71.6414 70.8048 73.0583 72.5527 73.0583Z" fill="#4C8BAA"/>
<path d="M72.5516 41.6266C74.4584 41.6266 76.0039 40.0809 76.0039 38.1742C76.0039 36.2674 74.4584 34.7217 72.5516 34.7217C70.6449 34.7217 69.0993 36.2674 69.0993 38.1742C69.0993 40.0809 70.6449 41.6266 72.5516 41.6266Z" fill="#4C8BAA"/>
<path d="M56.7292 41.6266C58.6359 41.6266 60.1815 40.0809 60.1815 38.1742C60.1815 36.2674 58.6359 34.7217 56.7292 34.7217C54.8224 34.7217 53.2769 36.2674 53.2769 38.1742C53.2769 40.0809 54.8224 41.6266 56.7292 41.6266Z" fill="#4C8BAA"/>
<path d="M40.8331 41.8427C42.859 41.8427 44.5011 40.2003 44.5011 38.1744C44.5011 36.1485 42.859 34.5061 40.8331 34.5061C38.8072 34.5061 37.1645 36.1485 37.1645 38.1744C37.1645 40.2003 38.8072 41.8427 40.8331 41.8427Z" fill="#4C8BAA"/>
<path d="M25.011 40.6915C26.4013 40.6915 27.5284 39.5645 27.5284 38.1741C27.5284 36.7838 26.4013 35.6567 25.011 35.6567C23.6207 35.6567 22.4936 36.7838 22.4936 38.1741C22.4936 39.5645 23.6207 40.6915 25.011 40.6915Z" fill="#4C8BAA"/>
<path d="M9.11402 41.3389C10.8619 41.3389 12.279 39.922 12.279 38.1742C12.279 36.4264 10.8619 35.0095 9.11402 35.0095C7.36619 35.0095 5.94971 36.4264 5.94971 38.1742C5.94971 39.922 7.36619 41.3389 9.11402 41.3389Z" fill="#4C8BAA"/>
<path d="M72.5516 57.5224C74.4584 57.5224 76.0039 55.9769 76.0039 54.0702C76.0039 52.1634 74.4584 50.6177 72.5516 50.6177C70.6449 50.6177 69.0993 52.1634 69.0993 54.0702C69.0993 55.9769 70.6449 57.5224 72.5516 57.5224Z" fill="#4C8BAA"/>
<path d="M56.7292 57.5224C58.6359 57.5224 60.1815 55.9769 60.1815 54.0702C60.1815 52.1634 58.6359 50.6177 56.7292 50.6177C54.8224 50.6177 53.2769 52.1634 53.2769 54.0702C53.2769 55.9769 54.8224 57.5224 56.7292 57.5224Z" fill="#4C8BAA"/>
<path d="M40.8331 57.7383C42.859 57.7383 44.5011 56.096 44.5011 54.0701C44.5011 52.0442 42.859 50.4019 40.8331 50.4019C38.8072 50.4019 37.1645 52.0442 37.1645 54.0701C37.1645 56.096 38.8072 57.7383 40.8331 57.7383Z" fill="#4C8BAA"/>
<path d="M25.011 56.5873C26.4013 56.5873 27.5284 55.4602 27.5284 54.0699C27.5284 52.6796 26.4013 51.5525 25.011 51.5525C23.6207 51.5525 22.4936 52.6796 22.4936 54.0699C22.4936 55.4602 23.6207 56.5873 25.011 56.5873Z" fill="#4C8BAA"/>
<path d="M9.11402 57.2345C10.8619 57.2345 12.279 55.8177 12.279 54.0699C12.279 52.322 10.8619 50.905 9.11402 50.905C7.36619 50.905 5.94971 52.322 5.94971 54.0699C5.94971 55.8177 7.36619 57.2345 9.11402 57.2345Z" fill="#4C8BAA"/>
</svg>
