<svg width="414" height="186" viewBox="0 0 414 186" fill="none" xmlns="http://www.w3.org/2000/svg">
<path d="M30.3849 3.07047C31.0915 3.07047 31.6643 2.49767 31.6643 1.79109C31.6643 1.08451 31.0915 0.511719 30.3849 0.511719C29.6784 0.511719 29.1056 1.08451 29.1056 1.79109C29.1056 2.49767 29.6784 3.07047 30.3849 3.07047Z" fill="#4C8BAA"/>
<path d="M58.6595 3.58231C59.6487 3.58231 60.4505 2.78036 60.4505 1.79115C60.4505 0.801944 59.6487 0 58.6595 0C57.6703 0 56.8685 0.801944 56.8685 1.79115C56.8685 2.78036 57.6703 3.58231 58.6595 3.58231Z" fill="#4C8BAA"/>
<path d="M115.08 3.45427C115.999 3.45427 116.743 2.70973 116.743 1.79118C116.743 0.872626 115.999 0.12793 115.08 0.12793C114.162 0.12793 113.417 0.872626 113.417 1.79118C113.417 2.70973 114.162 3.45427 115.08 3.45427Z" fill="#4C8BAA"/>
<path d="M157.427 3.19859C158.204 3.19859 158.834 2.56855 158.834 1.79131C158.834 1.01408 158.204 0.384033 157.427 0.384033C156.65 0.384033 156.019 1.01408 156.019 1.79131C156.019 2.56855 156.65 3.19859 157.427 3.19859Z" fill="#4C8BAA"/>
<path d="M171.501 3.39033C172.384 3.39033 173.1 2.67434 173.1 1.79111C173.1 0.907888 172.384 0.191895 171.501 0.191895C170.618 0.191895 169.902 0.907888 169.902 1.79111C169.902 2.67434 170.618 3.39033 171.501 3.39033Z" fill="#4C8BAA"/>
<path d="M185.637 3.39033C186.52 3.39033 187.236 2.67434 187.236 1.79111C187.236 0.907888 186.52 0.191895 185.637 0.191895C184.754 0.191895 184.038 0.907888 184.038 1.79111C184.038 2.67434 184.754 3.39033 185.637 3.39033Z" fill="#4C8BAA"/>
<path d="M199.711 3.19859C200.488 3.19859 201.118 2.56855 201.118 1.79131C201.118 1.01408 200.488 0.384033 199.711 0.384033C198.934 0.384033 198.303 1.01408 198.303 1.79131C198.303 2.56855 198.934 3.19859 199.711 3.19859Z" fill="#4C8BAA"/>
<path d="M2.17536 17.3357C2.98793 17.3357 3.64652 16.6769 3.64652 15.8644C3.64652 15.0518 2.98793 14.3931 2.17536 14.3931C1.3628 14.3931 0.704208 15.0518 0.704208 15.8644C0.704208 16.6769 1.3628 17.3357 2.17536 17.3357Z" fill="#4C8BAA"/>
<path d="M16.3119 17.5273C17.2305 17.5273 17.9755 16.7827 17.9755 15.8642C17.9755 14.9456 17.2305 14.2009 16.3119 14.2009C15.3934 14.2009 14.649 14.9456 14.649 15.8642C14.649 16.7827 15.3934 17.5273 16.3119 17.5273Z" fill="#4C8BAA"/>
<path d="M30.3849 17.5273C31.3035 17.5273 32.0485 16.7827 32.0485 15.8642C32.0485 14.9456 31.3035 14.2009 30.3849 14.2009C29.4664 14.2009 28.722 14.9456 28.722 15.8642C28.722 16.7827 29.4664 17.5273 30.3849 17.5273Z" fill="#4C8BAA"/>
<path d="M44.522 17.5273C45.4406 17.5273 46.185 16.7827 46.185 15.8642C46.185 14.9456 45.4406 14.2009 44.522 14.2009C43.6035 14.2009 42.8585 14.9456 42.8585 15.8642C42.8585 16.7827 43.6035 17.5273 44.522 17.5273Z" fill="#4C8BAA"/>
<path d="M58.6589 17.3357C59.4715 17.3357 60.1301 16.6769 60.1301 15.8644C60.1301 15.0518 59.4715 14.3931 58.6589 14.3931C57.8463 14.3931 57.1877 15.0518 57.1877 15.8644C57.1877 16.6769 57.8463 17.3357 58.6589 17.3357Z" fill="#4C8BAA"/>
<path d="M72.7334 17.2074C73.4753 17.2074 74.0771 16.6061 74.0771 15.8642C74.0771 15.1222 73.4753 14.5208 72.7334 14.5208C71.9914 14.5208 71.3903 15.1222 71.3903 15.8642C71.3903 16.6061 71.9914 17.2074 72.7334 17.2074Z" fill="#4C8BAA"/>
<path d="M100.942 17.9752C102.108 17.9752 103.053 17.03 103.053 15.8642C103.053 14.6983 102.108 13.7532 100.942 13.7532C99.7765 13.7532 98.8309 14.6983 98.8309 15.8642C98.8309 17.03 99.7765 17.9752 100.942 17.9752Z" fill="#4C8BAA"/>
<path d="M115.079 17.1437C115.786 17.1437 116.359 16.5709 116.359 15.8643C116.359 15.1578 115.786 14.585 115.079 14.585C114.373 14.585 113.8 15.1578 113.8 15.8643C113.8 16.5709 114.373 17.1437 115.079 17.1437Z" fill="#4C8BAA"/>
<path d="M129.217 17.8469C130.312 17.8469 131.201 16.9591 131.201 15.864C131.201 14.7688 130.312 13.8809 129.217 13.8809C128.122 13.8809 127.234 14.7688 127.234 15.864C127.234 16.9591 128.122 17.8469 129.217 17.8469Z" fill="#4C8BAA"/>
<path d="M143.29 17.4633C144.173 17.4633 144.889 16.7473 144.889 15.8641C144.889 14.9809 144.173 14.2649 143.29 14.2649C142.406 14.2649 141.69 14.9809 141.69 15.8641C141.69 16.7473 142.406 17.4633 143.29 17.4633Z" fill="#4C8BAA"/>
<path d="M157.428 17.0156C158.064 17.0156 158.579 16.5 158.579 15.8641C158.579 15.2282 158.064 14.7126 157.428 14.7126C156.792 14.7126 156.276 15.2282 156.276 15.8641C156.276 16.5 156.792 17.0156 157.428 17.0156Z" fill="#4C8BAA"/>
<path d="M171.501 17.9111C172.632 17.9111 173.548 16.9946 173.548 15.8641C173.548 14.7336 172.632 13.8171 171.501 13.8171C170.371 13.8171 169.454 14.7336 169.454 15.8641C169.454 16.9946 170.371 17.9111 171.501 17.9111Z" fill="#4C8BAA"/>
<path d="M185.637 17.4633C186.52 17.4633 187.236 16.7473 187.236 15.8641C187.236 14.9809 186.52 14.2649 185.637 14.2649C184.754 14.2649 184.038 14.9809 184.038 15.8641C184.038 16.7473 184.754 17.4633 185.637 17.4633Z" fill="#4C8BAA"/>
<path d="M199.711 17.2713C200.488 17.2713 201.118 16.6413 201.118 15.8641C201.118 15.0868 200.488 14.4568 199.711 14.4568C198.934 14.4568 198.303 15.0868 198.303 15.8641C198.303 16.6413 198.934 17.2713 199.711 17.2713Z" fill="#4C8BAA"/>
<path d="M16.312 31.3446C17.0539 31.3446 17.6557 30.7431 17.6557 30.0012C17.6557 29.2593 17.0539 28.658 16.312 28.658C15.5701 28.658 14.9689 29.2593 14.9689 30.0012C14.9689 30.7431 15.5701 31.3446 16.312 31.3446Z" fill="#4C8BAA"/>
<path d="M2.17479 73.6918C2.9167 73.6918 3.51788 73.0904 3.51788 72.3485C3.51788 71.6066 2.9167 71.0051 2.17479 71.0051C1.43288 71.0051 0.831696 71.6066 0.831696 72.3485C0.831696 73.0904 1.43288 73.6918 2.17479 73.6918Z" fill="#4C8BAA"/>
<path d="M30.3849 31.2807C31.0915 31.2807 31.6643 30.7079 31.6643 30.0013C31.6643 29.2947 31.0915 28.7219 30.3849 28.7219C29.6784 28.7219 29.1056 29.2947 29.1056 30.0013C29.1056 30.7079 29.6784 31.2807 30.3849 31.2807Z" fill="#4C8BAA"/>
<path d="M44.5222 31.5366C45.3701 31.5366 46.0571 30.8491 46.0571 30.0013C46.0571 29.1534 45.3701 28.4661 44.5222 28.4661C43.6743 28.4661 42.9867 29.1534 42.9867 30.0013C42.9867 30.8491 43.6743 31.5366 44.5222 31.5366Z" fill="#4C8BAA"/>
<path d="M58.6595 31.7924C59.6487 31.7924 60.4505 30.9904 60.4505 30.0012C60.4505 29.012 59.6487 28.2102 58.6595 28.2102C57.6703 28.2102 56.8685 29.012 56.8685 30.0012C56.8685 30.9904 57.6703 31.7924 58.6595 31.7924Z" fill="#4C8BAA"/>
<path d="M72.7323 31.7924C73.7216 31.7924 74.5233 30.9904 74.5233 30.0012C74.5233 29.012 73.7216 28.2102 72.7323 28.2102C71.7431 28.2102 70.9413 29.012 70.9413 30.0012C70.9413 30.9904 71.7431 31.7924 72.7323 31.7924Z" fill="#4C8BAA"/>
<path d="M86.8706 31.5366C87.7184 31.5366 88.4054 30.8491 88.4054 30.0013C88.4054 29.1534 87.7184 28.4661 86.8706 28.4661C86.0227 28.4661 85.3351 29.1534 85.3351 30.0013C85.3351 30.8491 86.0227 31.5366 86.8706 31.5366Z" fill="#4C8BAA"/>
<path d="M100.943 31.5366C101.79 31.5366 102.477 30.8491 102.477 30.0013C102.477 29.1534 101.79 28.4661 100.943 28.4661C100.095 28.4661 99.4071 29.1534 99.4071 30.0013C99.4071 30.8491 100.095 31.5366 100.943 31.5366Z" fill="#4C8BAA"/>
<path d="M115.079 31.4087C115.856 31.4087 116.487 30.7785 116.487 30.0013C116.487 29.224 115.856 28.594 115.079 28.594C114.302 28.594 113.672 29.224 113.672 30.0013C113.672 30.7785 114.302 31.4087 115.079 31.4087Z" fill="#4C8BAA"/>
<path d="M129.217 31.9841C130.312 31.9841 131.201 31.0962 131.201 30.001C131.201 28.9058 130.312 28.0181 129.217 28.0181C128.122 28.0181 127.234 28.9058 127.234 30.001C127.234 31.0962 128.122 31.9841 129.217 31.9841Z" fill="#4C8BAA"/>
<path d="M143.29 31.4087C144.067 31.4087 144.697 30.7785 144.697 30.0013C144.697 29.224 144.067 28.594 143.29 28.594C142.513 28.594 141.883 29.224 141.883 30.0013C141.883 30.7785 142.513 31.4087 143.29 31.4087Z" fill="#4C8BAA"/>
<path d="M157.427 31.4087C158.204 31.4087 158.834 30.7785 158.834 30.0013C158.834 29.224 158.204 28.594 157.427 28.594C156.65 28.594 156.019 29.224 156.019 30.0013C156.019 30.7785 156.65 31.4087 157.427 31.4087Z" fill="#4C8BAA"/>
<path d="M171.501 31.1526C172.137 31.1526 172.652 30.6371 172.652 30.0012C172.652 29.3652 172.137 28.8499 171.501 28.8499C170.865 28.8499 170.349 29.3652 170.349 30.0012C170.349 30.6371 170.865 31.1526 171.501 31.1526Z" fill="#4C8BAA"/>
<path d="M185.637 31.7286C186.591 31.7286 187.364 30.9552 187.364 30.0013C187.364 29.0474 186.591 28.2742 185.637 28.2742C184.683 28.2742 183.91 29.0474 183.91 30.0013C183.91 30.9552 184.683 31.7286 185.637 31.7286Z" fill="#4C8BAA"/>
<path d="M199.711 31.4087C200.488 31.4087 201.118 30.7785 201.118 30.0013C201.118 29.224 200.488 28.594 199.711 28.594C198.934 28.594 198.303 29.224 198.303 30.0013C198.303 30.7785 198.934 31.4087 199.711 31.4087Z" fill="#4C8BAA"/>
<path d="M16.3119 45.7375C17.2305 45.7375 17.9755 44.9928 17.9755 44.0742C17.9755 43.1557 17.2305 42.4111 16.3119 42.4111C15.3934 42.4111 14.649 43.1557 14.649 44.0742C14.649 44.9928 15.3934 45.7375 16.3119 45.7375Z" fill="#4C8BAA"/>
<path d="M30.3856 46.1214C31.5162 46.1214 32.4328 45.2048 32.4328 44.0743C32.4328 42.9438 31.5162 42.0273 30.3856 42.0273C29.2551 42.0273 28.3391 42.9438 28.3391 44.0743C28.3391 45.2048 29.2551 46.1214 30.3856 46.1214Z" fill="#4C8BAA"/>
<path d="M44.5222 45.6096C45.3701 45.6096 46.0571 44.9221 46.0571 44.0742C46.0571 43.2264 45.3701 42.5391 44.5222 42.5391C43.6743 42.5391 42.9867 43.2264 42.9867 44.0742C42.9867 44.9221 43.6743 45.6096 44.5222 45.6096Z" fill="#4C8BAA"/>
<path d="M58.6588 45.4817C59.436 45.4817 60.0662 44.8515 60.0662 44.0743C60.0662 43.297 59.436 42.667 58.6588 42.667C57.8816 42.667 57.2514 43.297 57.2514 44.0743C57.2514 44.8515 57.8816 45.4817 58.6588 45.4817Z" fill="#4C8BAA"/>
<path d="M72.7333 45.6096C73.5812 45.6096 74.2688 44.9221 74.2688 44.0742C74.2688 43.2264 73.5812 42.5391 72.7333 42.5391C71.8854 42.5391 71.1984 43.2264 71.1984 44.0742C71.1984 44.9221 71.8854 45.6096 72.7333 45.6096Z" fill="#4C8BAA"/>
<path d="M86.8706 45.6096C87.7184 45.6096 88.4054 44.9221 88.4054 44.0742C88.4054 43.2264 87.7184 42.5391 86.8706 42.5391C86.0227 42.5391 85.3351 43.2264 85.3351 44.0742C85.3351 44.9221 86.0227 45.6096 86.8706 45.6096Z" fill="#4C8BAA"/>
<path d="M100.944 45.4817C101.721 45.4817 102.35 44.8515 102.35 44.0743C102.35 43.297 101.721 42.667 100.944 42.667C100.166 42.667 99.5361 43.297 99.5361 44.0743C99.5361 44.8515 100.166 45.4817 100.944 45.4817Z" fill="#4C8BAA"/>
<path d="M115.079 46.1214C116.21 46.1214 117.126 45.2048 117.126 44.0743C117.126 42.9438 116.21 42.0273 115.079 42.0273C113.949 42.0273 113.032 42.9438 113.032 44.0743C113.032 45.2048 113.949 46.1214 115.079 46.1214Z" fill="#4C8BAA"/>
<path d="M129.218 45.2897C129.889 45.2897 130.433 44.7455 130.433 44.0742C130.433 43.403 129.889 42.8589 129.218 42.8589C128.546 42.8589 128.003 43.403 128.003 44.0742C128.003 44.7455 128.546 45.2897 129.218 45.2897Z" fill="#4C8BAA"/>
<path d="M143.29 45.6733C144.173 45.6733 144.889 44.9573 144.889 44.0741C144.889 43.1908 144.173 42.4749 143.29 42.4749C142.406 42.4749 141.69 43.1908 141.69 44.0741C141.69 44.9573 142.406 45.6733 143.29 45.6733Z" fill="#4C8BAA"/>
<path d="M157.428 45.6733C158.312 45.6733 159.028 44.9573 159.028 44.0741C159.028 43.1908 158.312 42.4749 157.428 42.4749C156.545 42.4749 155.829 43.1908 155.829 44.0741C155.829 44.9573 156.545 45.6733 157.428 45.6733Z" fill="#4C8BAA"/>
<path d="M171.501 45.8018C172.454 45.8018 173.228 45.0284 173.228 44.0745C173.228 43.1207 172.454 42.3474 171.501 42.3474C170.547 42.3474 169.773 43.1207 169.773 44.0745C169.773 45.0284 170.547 45.8018 171.501 45.8018Z" fill="#4C8BAA"/>
<path d="M185.637 45.8018C186.591 45.8018 187.364 45.0284 187.364 44.0745C187.364 43.1207 186.591 42.3474 185.637 42.3474C184.683 42.3474 183.91 43.1207 183.91 44.0745C183.91 45.0284 184.683 45.8018 185.637 45.8018Z" fill="#4C8BAA"/>
<path d="M199.711 45.8018C200.665 45.8018 201.438 45.0284 201.438 44.0745C201.438 43.1207 200.665 42.3474 199.711 42.3474C198.757 42.3474 197.983 43.1207 197.983 44.0745C197.983 45.0284 198.757 45.8018 199.711 45.8018Z" fill="#4C8BAA"/>
<path d="M16.3119 59.8746C17.2305 59.8746 17.9755 59.1299 17.9755 58.2113C17.9755 57.2928 17.2305 56.5481 16.3119 56.5481C15.3934 56.5481 14.649 57.2928 14.649 58.2113C14.649 59.1299 15.3934 59.8746 16.3119 59.8746Z" fill="#4C8BAA"/>
<path d="M30.3856 60.2582C31.5162 60.2582 32.4328 59.3418 32.4328 58.2113C32.4328 57.0807 31.5162 56.1643 30.3856 56.1643C29.2551 56.1643 28.3391 57.0807 28.3391 58.2113C28.3391 59.3418 29.2551 60.2582 30.3856 60.2582Z" fill="#4C8BAA"/>
<path d="M44.5219 60.5783C45.829 60.5783 46.8888 59.5187 46.8888 58.2115C46.8888 56.9044 45.829 55.8447 44.5219 55.8447C43.2147 55.8447 42.1549 56.9044 42.1549 58.2115C42.1549 59.5187 43.2147 60.5783 44.5219 60.5783Z" fill="#4C8BAA"/>
<path d="M58.6594 60.2582C59.7899 60.2582 60.7065 59.3418 60.7065 58.2113C60.7065 57.0807 59.7899 56.1643 58.6594 56.1643C57.5288 56.1643 56.6122 57.0807 56.6122 58.2113C56.6122 59.3418 57.5288 60.2582 58.6594 60.2582Z" fill="#4C8BAA"/>
<path d="M72.7328 60.898C74.2166 60.898 75.4196 59.6951 75.4196 58.2113C75.4196 56.7275 74.2166 55.5247 72.7328 55.5247C71.249 55.5247 70.046 56.7275 70.046 58.2113C70.046 59.6951 71.249 60.898 72.7328 60.898Z" fill="#4C8BAA"/>
<path d="M86.8712 60.5783C88.1784 60.5783 89.2375 59.5187 89.2375 58.2115C89.2375 56.9044 88.1784 55.8447 86.8712 55.8447C85.564 55.8447 84.5042 56.9044 84.5042 58.2115C84.5042 59.5187 85.564 60.5783 86.8712 60.5783Z" fill="#4C8BAA"/>
<path d="M100.943 60.5783C102.25 60.5783 103.31 59.5187 103.31 58.2115C103.31 56.9044 102.25 55.8447 100.943 55.8447C99.6361 55.8447 98.5763 56.9044 98.5763 58.2115C98.5763 59.5187 99.6361 60.5783 100.943 60.5783Z" fill="#4C8BAA"/>
<path d="M115.079 60.2582C116.21 60.2582 117.126 59.3418 117.126 58.2113C117.126 57.0807 116.21 56.1643 115.079 56.1643C113.949 56.1643 113.032 57.0807 113.032 58.2113C113.032 59.3418 113.949 60.2582 115.079 60.2582Z" fill="#4C8BAA"/>
<path d="M129.217 60.5143C130.489 60.5143 131.52 59.4832 131.52 58.2114C131.52 56.9395 130.489 55.9084 129.217 55.9084C127.945 55.9084 126.915 56.9395 126.915 58.2114C126.915 59.4832 127.945 60.5143 129.217 60.5143Z" fill="#4C8BAA"/>
<path d="M143.29 60.3864C144.491 60.3864 145.465 59.4127 145.465 58.2115C145.465 57.0103 144.491 56.0366 143.29 56.0366C142.089 56.0366 141.116 57.0103 141.116 58.2115C141.116 59.4127 142.089 60.3864 143.29 60.3864Z" fill="#4C8BAA"/>
<path d="M157.428 59.8107C158.312 59.8107 159.028 59.0947 159.028 58.2115C159.028 57.3283 158.312 56.6123 157.428 56.6123C156.545 56.6123 155.829 57.3283 155.829 58.2115C155.829 59.0947 156.545 59.8107 157.428 59.8107Z" fill="#4C8BAA"/>
<path d="M171.501 60.2582C172.632 60.2582 173.548 59.3418 173.548 58.2113C173.548 57.0807 172.632 56.1643 171.501 56.1643C170.371 56.1643 169.454 57.0807 169.454 58.2113C169.454 59.3418 170.371 60.2582 171.501 60.2582Z" fill="#4C8BAA"/>
<path d="M185.638 60.8342C187.086 60.8342 188.261 59.6599 188.261 58.2114C188.261 56.7629 187.086 55.5886 185.638 55.5886C184.189 55.5886 183.015 56.7629 183.015 58.2114C183.015 59.6599 184.189 60.8342 185.638 60.8342Z" fill="#4C8BAA"/>
<path d="M199.711 60.0665C200.735 60.0665 201.566 59.236 201.566 58.2115C201.566 57.1869 200.735 56.3564 199.711 56.3564C198.686 56.3564 197.856 57.1869 197.856 58.2115C197.856 59.236 198.686 60.0665 199.711 60.0665Z" fill="#4C8BAA"/>
<path d="M16.312 74.0757C17.2659 74.0757 18.0393 73.3025 18.0393 72.3486C18.0393 71.3947 17.2659 70.6213 16.312 70.6213C15.3581 70.6213 14.5853 71.3947 14.5853 72.3486C14.5853 73.3025 15.3581 74.0757 16.312 74.0757Z" fill="#4C8BAA"/>
<path d="M30.3856 74.3956C31.5162 74.3956 32.4328 73.4792 32.4328 72.3486C32.4328 71.2181 31.5162 70.3015 30.3856 70.3015C29.2551 70.3015 28.3391 71.2181 28.3391 72.3486C28.3391 73.4792 29.2551 74.3956 30.3856 74.3956Z" fill="#4C8BAA"/>
<path d="M44.5235 74.907C45.9366 74.907 47.0822 73.7615 47.0822 72.3483C47.0822 70.9351 45.9366 69.7896 44.5235 69.7896C43.1103 69.7896 41.9647 70.9351 41.9647 72.3483C41.9647 73.7615 43.1103 74.907 44.5235 74.907Z" fill="#4C8BAA"/>
<path d="M58.6595 74.0757C59.6134 74.0757 60.3867 73.3025 60.3867 72.3486C60.3867 71.3947 59.6134 70.6213 58.6595 70.6213C57.7056 70.6213 56.9322 71.3947 56.9322 72.3486C56.9322 73.3025 57.7056 74.0757 58.6595 74.0757Z" fill="#4C8BAA"/>
<path d="M72.7322 74.907C74.1453 74.907 75.2909 73.7615 75.2909 72.3483C75.2909 70.9351 74.1453 69.7896 72.7322 69.7896C71.319 69.7896 70.1734 70.9351 70.1734 72.3483C70.1734 73.7615 71.319 74.907 72.7322 74.907Z" fill="#4C8BAA"/>
<path d="M86.8695 74.4594C88.0354 74.4594 88.9804 73.5144 88.9804 72.3485C88.9804 71.1827 88.0354 70.2375 86.8695 70.2375C85.7037 70.2375 84.7581 71.1827 84.7581 72.3485C84.7581 73.5144 85.7037 74.4594 86.8695 74.4594Z" fill="#4C8BAA"/>
<path d="M100.943 74.3956C102.074 74.3956 102.99 73.4792 102.99 72.3486C102.99 71.2181 102.074 70.3015 100.943 70.3015C99.8128 70.3015 98.8962 71.2181 98.8962 72.3486C98.8962 73.4792 99.8128 74.3956 100.943 74.3956Z" fill="#4C8BAA"/>
<path d="M115.081 74.4594C116.246 74.4594 117.191 73.5144 117.191 72.3485C117.191 71.1827 116.246 70.2375 115.081 70.2375C113.915 70.2375 112.97 71.1827 112.97 72.3485C112.97 73.5144 113.915 74.4594 115.081 74.4594Z" fill="#4C8BAA"/>
<path d="M129.216 74.4594C130.381 74.4594 131.327 73.5144 131.327 72.3485C131.327 71.1827 130.381 70.2375 129.216 70.2375C128.05 70.2375 127.105 71.1827 127.105 72.3485C127.105 73.5144 128.05 74.4594 129.216 74.4594Z" fill="#4C8BAA"/>
<path d="M143.289 74.2673C144.349 74.2673 145.209 73.4081 145.209 72.3483C145.209 71.2884 144.349 70.4292 143.289 70.4292C142.23 70.4292 141.37 71.2884 141.37 72.3483C141.37 73.4081 142.23 74.2673 143.289 74.2673Z" fill="#4C8BAA"/>
<path d="M157.428 74.9712C158.876 74.9712 160.05 73.7971 160.05 72.3486C160.05 70.9001 158.876 69.7258 157.428 69.7258C155.979 69.7258 154.805 70.9001 154.805 72.3486C154.805 73.7971 155.979 74.9712 157.428 74.9712Z" fill="#4C8BAA"/>
<path d="M171.5 74.0116C172.418 74.0116 173.163 73.2671 173.163 72.3486C173.163 71.43 172.418 70.6853 171.5 70.6853C170.581 70.6853 169.836 71.43 169.836 72.3486C169.836 73.2671 170.581 74.0116 171.5 74.0116Z" fill="#4C8BAA"/>
<path d="M185.637 74.2673C186.697 74.2673 187.556 73.4081 187.556 72.3483C187.556 71.2884 186.697 70.4292 185.637 70.4292C184.577 70.4292 183.718 71.2884 183.718 72.3483C183.718 73.4081 184.577 74.2673 185.637 74.2673Z" fill="#4C8BAA"/>
<path d="M199.711 74.9712C201.16 74.9712 202.334 73.7971 202.334 72.3486C202.334 70.9001 201.16 69.7258 199.711 69.7258C198.263 69.7258 197.089 70.9001 197.089 72.3486C197.089 73.7971 198.263 74.9712 199.711 74.9712Z" fill="#4C8BAA"/>
<path d="M30.3855 88.5965C31.5867 88.5965 32.5607 87.6228 32.5607 86.4216C32.5607 85.2204 31.5867 84.2466 30.3855 84.2466C29.1843 84.2466 28.2109 85.2204 28.2109 86.4216C28.2109 87.6228 29.1843 88.5965 30.3855 88.5965Z" fill="#4C8BAA"/>
<path d="M44.522 88.5965C45.7232 88.5965 46.6965 87.6228 46.6965 86.4216C46.6965 85.2204 45.7232 84.2466 44.522 84.2466C43.3208 84.2466 42.3468 85.2204 42.3468 86.4216C42.3468 87.6228 43.3208 88.5965 44.522 88.5965Z" fill="#4C8BAA"/>
<path d="M58.6595 88.5965C59.8607 88.5965 60.8347 87.6228 60.8347 86.4216C60.8347 85.2204 59.8607 84.2466 58.6595 84.2466C57.4583 84.2466 56.485 85.2204 56.485 86.4216C56.485 87.6228 57.4583 88.5965 58.6595 88.5965Z" fill="#4C8BAA"/>
<path d="M72.7322 88.9803C74.1453 88.9803 75.2909 87.8347 75.2909 86.4215C75.2909 85.0084 74.1453 83.8628 72.7322 83.8628C71.319 83.8628 70.1734 85.0084 70.1734 86.4215C70.1734 87.8347 71.319 88.9803 72.7322 88.9803Z" fill="#4C8BAA"/>
<path d="M86.8706 87.9568C87.7184 87.9568 88.4054 87.2695 88.4054 86.4216C88.4054 85.5737 87.7184 84.8862 86.8706 84.8862C86.0227 84.8862 85.3351 85.5737 85.3351 86.4216C85.3351 87.2695 86.0227 87.9568 86.8706 87.9568Z" fill="#4C8BAA"/>
<path d="M100.943 88.7882C102.25 88.7882 103.31 87.7286 103.31 86.4214C103.31 85.1142 102.25 84.0544 100.943 84.0544C99.6361 84.0544 98.5763 85.1142 98.5763 86.4214C98.5763 87.7286 99.6361 88.7882 100.943 88.7882Z" fill="#4C8BAA"/>
<path d="M115.079 88.7882C116.386 88.7882 117.446 87.7286 117.446 86.4214C117.446 85.1142 116.386 84.0544 115.079 84.0544C113.772 84.0544 112.712 85.1142 112.712 86.4214C112.712 87.7286 113.772 88.7882 115.079 88.7882Z" fill="#4C8BAA"/>
<path d="M129.217 88.7882C130.524 88.7882 131.584 87.7286 131.584 86.4214C131.584 85.1142 130.524 84.0544 129.217 84.0544C127.91 84.0544 126.851 85.1142 126.851 86.4214C126.851 87.7286 127.91 88.7882 129.217 88.7882Z" fill="#4C8BAA"/>
<path d="M143.29 88.5965C144.491 88.5965 145.465 87.6228 145.465 86.4216C145.465 85.2204 144.491 84.2466 143.29 84.2466C142.089 84.2466 141.116 85.2204 141.116 86.4216C141.116 87.6228 142.089 88.5965 143.29 88.5965Z" fill="#4C8BAA"/>
<path d="M157.427 88.1487C158.381 88.1487 159.154 87.3755 159.154 86.4216C159.154 85.4677 158.381 84.6943 157.427 84.6943C156.473 84.6943 155.699 85.4677 155.699 86.4216C155.699 87.3755 156.473 88.1487 157.427 88.1487Z" fill="#4C8BAA"/>
<path d="M171.501 89.4279C173.161 89.4279 174.508 88.0819 174.508 86.4214C174.508 84.761 173.161 83.4148 171.501 83.4148C169.84 83.4148 168.494 84.761 168.494 86.4214C168.494 88.0819 169.84 89.4279 171.501 89.4279Z" fill="#4C8BAA"/>
<path d="M185.638 89.0442C187.086 89.0442 188.261 87.8701 188.261 86.4216C188.261 84.9731 187.086 83.7988 185.638 83.7988C184.189 83.7988 183.015 84.9731 183.015 86.4216C183.015 87.8701 184.189 89.0442 185.638 89.0442Z" fill="#4C8BAA"/>
<path d="M199.71 88.6607C200.946 88.6607 201.949 87.6583 201.949 86.4218C201.949 85.1853 200.946 84.1829 199.71 84.1829C198.473 84.1829 197.471 85.1853 197.471 86.4218C197.471 87.6583 198.473 88.6607 199.71 88.6607Z" fill="#4C8BAA"/>
<path d="M30.3849 102.222C31.3035 102.222 32.0485 101.477 32.0485 100.559C32.0485 99.64 31.3035 98.8955 30.3849 98.8955C29.4664 98.8955 28.722 99.64 28.722 100.559C28.722 101.477 29.4664 102.222 30.3849 102.222Z" fill="#4C8BAA"/>
<path d="M44.522 102.222C45.4406 102.222 46.185 101.477 46.185 100.559C46.185 99.64 45.4406 98.8955 44.522 98.8955C43.6035 98.8955 42.8585 99.64 42.8585 100.559C42.8585 101.477 43.6035 102.222 44.522 102.222Z" fill="#4C8BAA"/>
<path d="M58.6595 102.222C59.5781 102.222 60.3231 101.477 60.3231 100.559C60.3231 99.64 59.5781 98.8955 58.6595 98.8955C57.741 98.8955 56.9966 99.64 56.9966 100.559C56.9966 101.477 57.741 102.222 58.6595 102.222Z" fill="#4C8BAA"/>
<path d="M72.7316 102.478C73.7915 102.478 74.6507 101.619 74.6507 100.559C74.6507 99.4988 73.7915 98.6396 72.7316 98.6396C71.6718 98.6396 70.8126 99.4988 70.8126 100.559C70.8126 101.619 71.6718 102.478 72.7316 102.478Z" fill="#4C8BAA"/>
<path d="M86.8695 102.67C88.0354 102.67 88.9804 101.725 88.9804 100.559C88.9804 99.3929 88.0354 98.4478 86.8695 98.4478C85.7037 98.4478 84.7581 99.3929 84.7581 100.559C84.7581 101.725 85.7037 102.67 86.8695 102.67Z" fill="#4C8BAA"/>
<path d="M100.942 103.117C102.356 103.117 103.501 101.972 103.501 100.559C103.501 99.1456 102.356 98 100.942 98C99.5293 98 98.3837 99.1456 98.3837 100.559C98.3837 101.972 99.5293 103.117 100.942 103.117Z" fill="#4C8BAA"/>
<path d="M115.08 103.117C116.493 103.117 117.639 101.972 117.639 100.559C117.639 99.1456 116.493 98 115.08 98C113.667 98 112.521 99.1456 112.521 100.559C112.521 101.972 113.667 103.117 115.08 103.117Z" fill="#4C8BAA"/>
<path d="M129.217 103.181C130.666 103.181 131.84 102.007 131.84 100.559C131.84 99.1102 130.666 97.936 129.217 97.936C127.769 97.936 126.595 99.1102 126.595 100.559C126.595 102.007 127.769 103.181 129.217 103.181Z" fill="#4C8BAA"/>
<path d="M143.289 102.478C144.349 102.478 145.209 101.619 145.209 100.559C145.209 99.4988 144.349 98.6396 143.289 98.6396C142.23 98.6396 141.37 99.4988 141.37 100.559C141.37 101.619 142.23 102.478 143.289 102.478Z" fill="#4C8BAA"/>
<path d="M157.428 102.158C158.312 102.158 159.028 101.442 159.028 100.559C159.028 99.6755 158.312 98.9595 157.428 98.9595C156.545 98.9595 155.829 99.6755 155.829 100.559C155.829 101.442 156.545 102.158 157.428 102.158Z" fill="#4C8BAA"/>
<path d="M171.501 103.565C173.161 103.565 174.508 102.219 174.508 100.559C174.508 98.8983 173.161 97.5522 171.501 97.5522C169.84 97.5522 168.494 98.8983 168.494 100.559C168.494 102.219 169.84 103.565 171.501 103.565Z" fill="#4C8BAA"/>
<path d="M185.637 102.478C186.697 102.478 187.556 101.619 187.556 100.559C187.556 99.4988 186.697 98.6396 185.637 98.6396C184.577 98.6396 183.718 99.4988 183.718 100.559C183.718 101.619 184.577 102.478 185.637 102.478Z" fill="#4C8BAA"/>
<path d="M199.711 103.181C201.16 103.181 202.334 102.007 202.334 100.559C202.334 99.1102 201.16 97.936 199.711 97.936C198.263 97.936 197.089 99.1102 197.089 100.559C197.089 102.007 198.263 103.181 199.711 103.181Z" fill="#4C8BAA"/>
<path d="M16.3119 116.295C17.2305 116.295 17.9755 115.55 17.9755 114.632C17.9755 113.713 17.2305 112.969 16.3119 112.969C15.3934 112.969 14.649 113.713 14.649 114.632C14.649 115.55 15.3934 116.295 16.3119 116.295Z" fill="#4C8BAA"/>
<path d="M30.3855 116.807C31.5867 116.807 32.5607 115.833 32.5607 114.632C32.5607 113.43 31.5867 112.457 30.3855 112.457C29.1843 112.457 28.2109 113.43 28.2109 114.632C28.2109 115.833 29.1843 116.807 30.3855 116.807Z" fill="#4C8BAA"/>
<path d="M2.17512 145.017C3.37631 145.017 4.35031 144.043 4.35031 142.842C4.35031 141.641 3.37631 140.667 2.17512 140.667C0.97394 140.667 -6.10352e-05 141.641 -6.10352e-05 142.842C-6.10352e-05 144.043 0.97394 145.017 2.17512 145.017Z" fill="#4C8BAA"/>
<path d="M44.522 116.807C45.7232 116.807 46.6965 115.833 46.6965 114.632C46.6965 113.43 45.7232 112.457 44.522 112.457C43.3208 112.457 42.3468 113.43 42.3468 114.632C42.3468 115.833 43.3208 116.807 44.522 116.807Z" fill="#4C8BAA"/>
<path d="M58.6592 117.318C60.143 117.318 61.346 116.116 61.346 114.632C61.346 113.148 60.143 111.945 58.6592 111.945C57.1754 111.945 55.9724 113.148 55.9724 114.632C55.9724 116.116 57.1754 117.318 58.6592 117.318Z" fill="#4C8BAA"/>
<path d="M72.7322 117.19C74.1453 117.19 75.2909 116.045 75.2909 114.632C75.2909 113.219 74.1453 112.073 72.7322 112.073C71.319 112.073 70.1734 113.219 70.1734 114.632C70.1734 116.045 71.319 117.19 72.7322 117.19Z" fill="#4C8BAA"/>
<path d="M86.8706 116.167C87.7184 116.167 88.4054 115.48 88.4054 114.632C88.4054 113.784 87.7184 113.096 86.8706 113.096C86.0227 113.096 85.3351 113.784 85.3351 114.632C85.3351 115.48 86.0227 116.167 86.8706 116.167Z" fill="#4C8BAA"/>
<path d="M100.942 117.19C102.356 117.19 103.501 116.045 103.501 114.632C103.501 113.219 102.356 112.073 100.942 112.073C99.5293 112.073 98.3837 113.219 98.3837 114.632C98.3837 116.045 99.5293 117.19 100.942 117.19Z" fill="#4C8BAA"/>
<path d="M115.08 117.702C116.775 117.702 118.15 116.328 118.15 114.632C118.15 112.936 116.775 111.561 115.08 111.561C113.384 111.561 112.009 112.936 112.009 114.632C112.009 116.328 113.384 117.702 115.08 117.702Z" fill="#4C8BAA"/>
<path d="M129.217 117.255C130.666 117.255 131.84 116.08 131.84 114.632C131.84 113.183 130.666 112.009 129.217 112.009C127.769 112.009 126.595 113.183 126.595 114.632C126.595 116.08 127.769 117.255 129.217 117.255Z" fill="#4C8BAA"/>
<path d="M143.289 117.702C144.985 117.702 146.36 116.328 146.36 114.632C146.36 112.936 144.985 111.561 143.289 111.561C141.593 111.561 140.219 112.936 140.219 114.632C140.219 116.328 141.593 117.702 143.289 117.702Z" fill="#4C8BAA"/>
<path d="M157.428 117.702C159.124 117.702 160.498 116.328 160.498 114.632C160.498 112.936 159.124 111.561 157.428 111.561C155.732 111.561 154.358 112.936 154.358 114.632C154.358 116.328 155.732 117.702 157.428 117.702Z" fill="#4C8BAA"/>
<path d="M171.5 117.894C173.302 117.894 174.762 116.433 174.762 114.632C174.762 112.83 173.302 111.369 171.5 111.369C169.698 111.369 168.237 112.83 168.237 114.632C168.237 116.433 169.698 117.894 171.5 117.894Z" fill="#4C8BAA"/>
<path d="M185.637 116.871C186.873 116.871 187.876 115.868 187.876 114.632C187.876 113.395 186.873 112.393 185.637 112.393C184.4 112.393 183.398 113.395 183.398 114.632C183.398 115.868 184.4 116.871 185.637 116.871Z" fill="#4C8BAA"/>
<path d="M199.71 117.446C201.265 117.446 202.525 116.186 202.525 114.632C202.525 113.077 201.265 111.817 199.71 111.817C198.156 111.817 196.896 113.077 196.896 114.632C196.896 116.186 198.156 117.446 199.71 117.446Z" fill="#4C8BAA"/>
<path d="M199.71 145.913C201.405 145.913 202.78 144.538 202.78 142.842C202.78 141.146 201.405 139.771 199.71 139.771C198.014 139.771 196.639 141.146 196.639 142.842C196.639 144.538 198.014 145.913 199.71 145.913Z" fill="#4C8BAA"/>
<path d="M185.637 145.913C187.333 145.913 188.708 144.538 188.708 142.842C188.708 141.146 187.333 139.771 185.637 139.771C183.942 139.771 182.567 141.146 182.567 142.842C182.567 144.538 183.942 145.913 185.637 145.913Z" fill="#4C8BAA"/>
<path d="M171.5 146.104C173.302 146.104 174.762 144.644 174.762 142.842C174.762 141.04 173.302 139.58 171.5 139.58C169.698 139.58 168.237 141.04 168.237 142.842C168.237 144.644 169.698 146.104 171.5 146.104Z" fill="#4C8BAA"/>
<path d="M157.428 145.081C158.665 145.081 159.667 144.078 159.667 142.842C159.667 141.605 158.665 140.603 157.428 140.603C156.192 140.603 155.189 141.605 155.189 142.842C155.189 144.078 156.192 145.081 157.428 145.081Z" fill="#4C8BAA"/>
<path d="M143.29 145.657C144.844 145.657 146.105 144.397 146.105 142.842C146.105 141.288 144.844 140.027 143.29 140.027C141.736 140.027 140.476 141.288 140.476 142.842C140.476 144.397 141.736 145.657 143.29 145.657Z" fill="#4C8BAA"/>
<path d="M129.216 144.953C130.381 144.953 131.327 144.008 131.327 142.842C131.327 141.676 130.381 140.731 129.216 140.731C128.05 140.731 127.105 141.676 127.105 142.842C127.105 144.008 128.05 144.953 129.216 144.953Z" fill="#4C8BAA"/>
<path d="M115.08 145.081C116.316 145.081 117.319 144.078 117.319 142.842C117.319 141.605 116.316 140.603 115.08 140.603C113.843 140.603 112.841 141.605 112.841 142.842C112.841 144.078 113.843 145.081 115.08 145.081Z" fill="#4C8BAA"/>
<path d="M100.943 146.232C102.815 146.232 104.333 144.714 104.333 142.842C104.333 140.97 102.815 139.452 100.943 139.452C99.0703 139.452 97.5519 140.97 97.5519 142.842C97.5519 144.714 99.0703 146.232 100.943 146.232Z" fill="#4C8BAA"/>
<path d="M86.8701 145.593C88.3893 145.593 89.6206 144.361 89.6206 142.842C89.6206 141.323 88.3893 140.091 86.8701 140.091C85.351 140.091 84.119 141.323 84.119 142.842C84.119 144.361 85.351 145.593 86.8701 145.593Z" fill="#4C8BAA"/>
<path d="M72.732 146.04C74.4985 146.04 75.9304 144.608 75.9304 142.842C75.9304 141.076 74.4985 139.644 72.732 139.644C70.9656 139.644 69.5336 141.076 69.5336 142.842C69.5336 144.608 70.9656 146.04 72.732 146.04Z" fill="#4C8BAA"/>
<path d="M58.6599 145.785C60.285 145.785 61.6028 144.467 61.6028 142.842C61.6028 141.217 60.285 139.899 58.6599 139.899C57.0348 139.899 55.7176 141.217 55.7176 142.842C55.7176 144.467 57.0348 145.785 58.6599 145.785Z" fill="#4C8BAA"/>
<path d="M44.5226 145.593C46.0418 145.593 47.2732 144.361 47.2732 142.842C47.2732 141.323 46.0418 140.091 44.5226 140.091C43.0035 140.091 41.7721 141.323 41.7721 142.842C41.7721 144.361 43.0035 145.593 44.5226 145.593Z" fill="#4C8BAA"/>
<path d="M30.3853 145.785C32.0104 145.785 33.3282 144.467 33.3282 142.842C33.3282 141.217 32.0104 139.899 30.3853 139.899C28.7602 139.899 27.443 141.217 27.443 142.842C27.443 144.467 28.7602 145.785 30.3853 145.785Z" fill="#4C8BAA"/>
<path d="M16.3121 144.249C17.0893 144.249 17.7195 143.619 17.7195 142.842C17.7195 142.065 17.0893 141.435 16.3121 141.435C15.5348 141.435 14.9053 142.065 14.9053 142.842C14.9053 143.619 15.5348 144.249 16.3121 144.249Z" fill="#4C8BAA"/>
<path d="M171.501 160.625C173.514 160.625 175.147 158.993 175.147 156.979C175.147 154.965 173.514 153.333 171.501 153.333C169.487 153.333 167.854 154.965 167.854 156.979C167.854 158.993 169.487 160.625 171.501 160.625Z" fill="#4C8BAA"/>
<path d="M157.428 160.369C159.3 160.369 160.818 158.852 160.818 156.979C160.818 155.107 159.3 153.589 157.428 153.589C155.555 153.589 154.038 155.107 154.038 156.979C154.038 158.852 155.555 160.369 157.428 160.369Z" fill="#4C8BAA"/>
<path d="M143.289 160.369C145.161 160.369 146.68 158.852 146.68 156.979C146.68 155.107 145.161 153.589 143.289 153.589C141.417 153.589 139.899 155.107 139.899 156.979C139.899 158.852 141.417 160.369 143.289 160.369Z" fill="#4C8BAA"/>
<path d="M129.216 160.177C130.983 160.177 132.415 158.745 132.415 156.979C132.415 155.213 130.983 153.781 129.216 153.781C127.45 153.781 126.018 155.213 126.018 156.979C126.018 158.745 127.45 160.177 129.216 160.177Z" fill="#4C8BAA"/>
<path d="M115.079 160.625C117.093 160.625 118.726 158.993 118.726 156.979C118.726 154.965 117.093 153.333 115.079 153.333C113.066 153.333 111.433 154.965 111.433 156.979C111.433 158.993 113.066 160.625 115.079 160.625Z" fill="#4C8BAA"/>
<path d="M100.943 160.369C102.815 160.369 104.333 158.852 104.333 156.979C104.333 155.107 102.815 153.589 100.943 153.589C99.0703 153.589 97.5519 155.107 97.5519 156.979C97.5519 158.852 99.0703 160.369 100.943 160.369Z" fill="#4C8BAA"/>
<path d="M86.8693 159.921C88.4944 159.921 89.8116 158.604 89.8116 156.979C89.8116 155.354 88.4944 154.036 86.8693 154.036C85.2441 154.036 83.9263 155.354 83.9263 156.979C83.9263 158.604 85.2441 159.921 86.8693 159.921Z" fill="#4C8BAA"/>
<path d="M72.732 160.177C74.4985 160.177 75.9304 158.745 75.9304 156.979C75.9304 155.213 74.4985 153.781 72.732 153.781C70.9656 153.781 69.5336 155.213 69.5336 156.979C69.5336 158.745 70.9656 160.177 72.732 160.177Z" fill="#4C8BAA"/>
<path d="M58.6591 160.369C60.5315 160.369 62.0493 158.852 62.0493 156.979C62.0493 155.107 60.5315 153.589 58.6591 153.589C56.7866 153.589 55.2689 155.107 55.2689 156.979C55.2689 158.852 56.7866 160.369 58.6591 160.369Z" fill="#4C8BAA"/>
<path d="M44.5224 160.369C46.3949 160.369 47.9127 158.852 47.9127 156.979C47.9127 155.107 46.3949 153.589 44.5224 153.589C42.65 153.589 41.1322 155.107 41.1322 156.979C41.1322 158.852 42.65 160.369 44.5224 160.369Z" fill="#4C8BAA"/>
<path d="M30.3853 159.921C32.0104 159.921 33.3282 158.604 33.3282 156.979C33.3282 155.354 32.0104 154.036 30.3853 154.036C28.7602 154.036 27.443 155.354 27.443 156.979C27.443 158.604 28.7602 159.921 30.3853 159.921Z" fill="#4C8BAA"/>
<path d="M16.3121 158.386C17.0893 158.386 17.7195 157.756 17.7195 156.979C17.7195 156.202 17.0893 155.572 16.3121 155.572C15.5348 155.572 14.9053 156.202 14.9053 156.979C14.9053 157.756 15.5348 158.386 16.3121 158.386Z" fill="#4C8BAA"/>
<path d="M199.71 131.839C201.405 131.839 202.78 130.465 202.78 128.769C202.78 127.073 201.405 125.698 199.71 125.698C198.014 125.698 196.639 127.073 196.639 128.769C196.639 130.465 198.014 131.839 199.71 131.839Z" fill="#4C8BAA"/>
<path d="M185.637 131.839C187.333 131.839 188.708 130.465 188.708 128.769C188.708 127.073 187.333 125.698 185.637 125.698C183.942 125.698 182.567 127.073 182.567 128.769C182.567 130.465 183.942 131.839 185.637 131.839Z" fill="#4C8BAA"/>
<path d="M171.5 132.031C173.302 132.031 174.762 130.571 174.762 128.769C174.762 126.967 173.302 125.507 171.5 125.507C169.698 125.507 168.237 126.967 168.237 128.769C168.237 130.571 169.698 132.031 171.5 132.031Z" fill="#4C8BAA"/>
<path d="M157.428 131.008C158.665 131.008 159.667 130.005 159.667 128.769C159.667 127.532 158.665 126.53 157.428 126.53C156.192 126.53 155.189 127.532 155.189 128.769C155.189 130.005 156.192 131.008 157.428 131.008Z" fill="#4C8BAA"/>
<path d="M143.29 131.584C144.844 131.584 146.105 130.324 146.105 128.769C146.105 127.215 144.844 125.954 143.29 125.954C141.736 125.954 140.476 127.215 140.476 128.769C140.476 130.324 141.736 131.584 143.29 131.584Z" fill="#4C8BAA"/>
<path d="M129.216 130.88C130.381 130.88 131.327 129.935 131.327 128.769C131.327 127.603 130.381 126.658 129.216 126.658C128.05 126.658 127.105 127.603 127.105 128.769C127.105 129.935 128.05 130.88 129.216 130.88Z" fill="#4C8BAA"/>
<path d="M115.08 131.008C116.316 131.008 117.319 130.005 117.319 128.769C117.319 127.532 116.316 126.53 115.08 126.53C113.843 126.53 112.841 127.532 112.841 128.769C112.841 130.005 113.843 131.008 115.08 131.008Z" fill="#4C8BAA"/>
<path d="M100.943 132.159C102.815 132.159 104.333 130.641 104.333 128.769C104.333 126.896 102.815 125.378 100.943 125.378C99.0703 125.378 97.5519 126.896 97.5519 128.769C97.5519 130.641 99.0703 132.159 100.943 132.159Z" fill="#4C8BAA"/>
<path d="M86.8701 131.519C88.3893 131.519 89.6206 130.288 89.6206 128.769C89.6206 127.25 88.3893 126.018 86.8701 126.018C85.351 126.018 84.119 127.25 84.119 128.769C84.119 130.288 85.351 131.519 86.8701 131.519Z" fill="#4C8BAA"/>
<path d="M72.732 131.967C74.4985 131.967 75.9304 130.535 75.9304 128.769C75.9304 127.003 74.4985 125.571 72.732 125.571C70.9656 125.571 69.5336 127.003 69.5336 128.769C69.5336 130.535 70.9656 131.967 72.732 131.967Z" fill="#4C8BAA"/>
<path d="M58.6599 131.711C60.285 131.711 61.6028 130.394 61.6028 128.769C61.6028 127.144 60.285 125.826 58.6599 125.826C57.0348 125.826 55.7176 127.144 55.7176 128.769C55.7176 130.394 57.0348 131.711 58.6599 131.711Z" fill="#4C8BAA"/>
<path d="M44.5226 131.519C46.0418 131.519 47.2732 130.288 47.2732 128.769C47.2732 127.25 46.0418 126.018 44.5226 126.018C43.0035 126.018 41.7721 127.25 41.7721 128.769C41.7721 130.288 43.0035 131.519 44.5226 131.519Z" fill="#4C8BAA"/>
<path d="M30.3853 131.711C32.0104 131.711 33.3282 130.394 33.3282 128.769C33.3282 127.144 32.0104 125.826 30.3853 125.826C28.7602 125.826 27.443 127.144 27.443 128.769C27.443 130.394 28.7602 131.711 30.3853 131.711Z" fill="#4C8BAA"/>
<path d="M16.3121 130.176C17.0893 130.176 17.7195 129.546 17.7195 128.769C17.7195 127.992 17.0893 127.362 16.3121 127.362C15.5348 127.362 14.9053 127.992 14.9053 128.769C14.9053 129.546 15.5348 130.176 16.3121 130.176Z" fill="#4C8BAA"/>
<path d="M2.17454 130.176C2.95178 130.176 3.58198 129.546 3.58198 128.769C3.58198 127.992 2.95178 127.362 2.17454 127.362C1.3973 127.362 0.767105 127.992 0.767105 128.769C0.767105 129.546 1.3973 130.176 2.17454 130.176Z" fill="#4C8BAA"/>
<path d="M171.5 174.379C173.302 174.379 174.762 172.918 174.762 171.116C174.762 169.314 173.302 167.854 171.5 167.854C169.698 167.854 168.237 169.314 168.237 171.116C168.237 172.918 169.698 174.379 171.5 174.379Z" fill="#4C8BAA"/>
<path d="M157.428 174.826C159.477 174.826 161.138 173.165 161.138 171.116C161.138 169.067 159.477 167.406 157.428 167.406C155.379 167.406 153.718 169.067 153.718 171.116C153.718 173.165 155.379 174.826 157.428 174.826Z" fill="#4C8BAA"/>
<path d="M143.289 174.507C145.161 174.507 146.68 172.989 146.68 171.116C146.68 169.244 145.161 167.726 143.289 167.726C141.417 167.726 139.899 169.244 139.899 171.116C139.899 172.989 141.417 174.507 143.289 174.507Z" fill="#4C8BAA"/>
<path d="M129.216 174.507C131.088 174.507 132.607 172.989 132.607 171.116C132.607 169.244 131.088 167.726 129.216 167.726C127.344 167.726 125.826 169.244 125.826 171.116C125.826 172.989 127.344 174.507 129.216 174.507Z" fill="#4C8BAA"/>
<path d="M115.081 174.059C116.706 174.059 118.023 172.741 118.023 171.116C118.023 169.491 116.706 168.174 115.081 168.174C113.455 168.174 112.138 169.491 112.138 171.116C112.138 172.741 113.455 174.059 115.081 174.059Z" fill="#4C8BAA"/>
<path d="M100.943 174.507C102.815 174.507 104.333 172.989 104.333 171.116C104.333 169.244 102.815 167.726 100.943 167.726C99.0703 167.726 97.5519 169.244 97.5519 171.116C97.5519 172.989 99.0703 174.507 100.943 174.507Z" fill="#4C8BAA"/>
<path d="M86.87 174.57C88.7778 174.57 90.3239 173.024 90.3239 171.116C90.3239 169.208 88.7778 167.662 86.87 167.662C84.9622 167.662 83.4154 169.208 83.4154 171.116C83.4154 173.024 84.9622 174.57 86.87 174.57Z" fill="#4C8BAA"/>
<path d="M72.732 174.315C74.4985 174.315 75.9304 172.883 75.9304 171.116C75.9304 169.35 74.4985 167.918 72.732 167.918C70.9656 167.918 69.5336 169.35 69.5336 171.116C69.5336 172.883 70.9656 174.315 72.732 174.315Z" fill="#4C8BAA"/>
<path d="M58.6599 174.059C60.285 174.059 61.6028 172.741 61.6028 171.116C61.6028 169.491 60.285 168.174 58.6599 168.174C57.0348 168.174 55.7176 169.491 55.7176 171.116C55.7176 172.741 57.0348 174.059 58.6599 174.059Z" fill="#4C8BAA"/>
<path d="M44.5223 174.826C46.5714 174.826 48.2324 173.165 48.2324 171.116C48.2324 169.067 46.5714 167.406 44.5223 167.406C42.4733 167.406 40.8123 169.067 40.8123 171.116C40.8123 173.165 42.4733 174.826 44.5223 174.826Z" fill="#4C8BAA"/>
<path d="M30.3853 174.059C32.0104 174.059 33.3282 172.741 33.3282 171.116C33.3282 169.491 32.0104 168.174 30.3853 168.174C28.7602 168.174 27.443 169.491 27.443 171.116C27.443 172.741 28.7602 174.059 30.3853 174.059Z" fill="#4C8BAA"/>
<path d="M16.3121 172.524C17.0893 172.524 17.7195 171.894 17.7195 171.116C17.7195 170.339 17.0893 169.709 16.3121 169.709C15.5348 169.709 14.9053 170.339 14.9053 171.116C14.9053 171.894 15.5348 172.524 16.3121 172.524Z" fill="#4C8BAA"/>
<path d="M2.17454 186.597C2.95178 186.597 3.58198 185.966 3.58198 185.189C3.58198 184.412 2.95178 183.782 2.17454 183.782C1.3973 183.782 0.767105 184.412 0.767105 185.189C0.767105 185.966 1.3973 186.597 2.17454 186.597Z" fill="#4C8BAA"/>
<path d="M411.383 73.6918C412.125 73.6918 412.726 73.0904 412.726 72.3485C412.726 71.6066 412.125 71.0051 411.383 71.0051C410.641 71.0051 410.039 71.6066 410.039 72.3485C410.039 73.0904 410.641 73.6918 411.383 73.6918Z" fill="#4C8BAA"/>
<path d="M411.382 145.017C412.584 145.017 413.557 144.043 413.557 142.842C413.557 141.641 412.584 140.667 411.382 140.667C410.181 140.667 409.207 141.641 409.207 142.842C409.207 144.043 410.181 145.017 411.382 145.017Z" fill="#4C8BAA"/>
<path d="M411.383 130.176C412.16 130.176 412.79 129.546 412.79 128.769C412.79 127.992 412.16 127.362 411.383 127.362C410.606 127.362 409.975 127.992 409.975 128.769C409.975 129.546 410.606 130.176 411.383 130.176Z" fill="#4C8BAA"/>
<path d="M411.383 186.597C412.16 186.597 412.79 185.966 412.79 185.189C412.79 184.412 412.16 183.782 411.383 183.782C410.606 183.782 409.975 184.412 409.975 185.189C409.975 185.966 410.606 186.597 411.383 186.597Z" fill="#4C8BAA"/>
<path d="M171.501 188.196C173.161 188.196 174.508 186.85 174.508 185.189C174.508 183.529 173.161 182.183 171.501 182.183C169.84 182.183 168.494 183.529 168.494 185.189C168.494 186.85 169.84 188.196 171.501 188.196Z" fill="#4C8BAA"/>
<path d="M157.428 188.26C159.124 188.26 160.498 186.885 160.498 185.189C160.498 183.493 159.124 182.119 157.428 182.119C155.732 182.119 154.358 183.493 154.358 185.189C154.358 186.885 155.732 188.26 157.428 188.26Z" fill="#4C8BAA"/>
<path d="M143.29 188.004C144.844 188.004 146.105 186.744 146.105 185.189C146.105 183.635 144.844 182.375 143.29 182.375C141.736 182.375 140.476 183.635 140.476 185.189C140.476 186.744 141.736 188.004 143.29 188.004Z" fill="#4C8BAA"/>
<path d="M129.217 188.836C131.231 188.836 132.863 187.203 132.863 185.189C132.863 183.176 131.231 181.543 129.217 181.543C127.203 181.543 125.571 183.176 125.571 185.189C125.571 187.203 127.203 188.836 129.217 188.836Z" fill="#4C8BAA"/>
<path d="M115.079 188.836C117.093 188.836 118.726 187.203 118.726 185.189C118.726 183.176 117.093 181.543 115.079 181.543C113.066 181.543 111.433 183.176 111.433 185.189C111.433 187.203 113.066 188.836 115.079 188.836Z" fill="#4C8BAA"/>
<path d="M100.943 188.58C102.815 188.58 104.333 187.062 104.333 185.189C104.333 183.317 102.815 181.799 100.943 181.799C99.0703 181.799 97.5519 183.317 97.5519 185.189C97.5519 187.062 99.0703 188.58 100.943 188.58Z" fill="#4C8BAA"/>
<path d="M86.8692 188.388C88.6357 188.388 90.0676 186.956 90.0676 185.189C90.0676 183.423 88.6357 181.991 86.8692 181.991C85.1028 181.991 83.6708 183.423 83.6708 185.189C83.6708 186.956 85.1028 188.388 86.8692 188.388Z" fill="#4C8BAA"/>
<path d="M72.732 188.388C74.4985 188.388 75.9304 186.956 75.9304 185.189C75.9304 183.423 74.4985 181.991 72.732 181.991C70.9656 181.991 69.5336 183.423 69.5336 185.189C69.5336 186.956 70.9656 188.388 72.732 188.388Z" fill="#4C8BAA"/>
<path d="M58.659 188.388C60.4255 188.388 61.8574 186.956 61.8574 185.189C61.8574 183.423 60.4255 181.991 58.659 181.991C56.8926 181.991 55.4606 183.423 55.4606 185.189C55.4606 186.956 56.8926 188.388 58.659 188.388Z" fill="#4C8BAA"/>
<path d="M44.5226 187.94C46.0418 187.94 47.2732 186.708 47.2732 185.189C47.2732 183.67 46.0418 182.438 44.5226 182.438C43.0035 182.438 41.7721 183.67 41.7721 185.189C41.7721 186.708 43.0035 187.94 44.5226 187.94Z" fill="#4C8BAA"/>
<path d="M30.3853 188.132C32.0104 188.132 33.3282 186.814 33.3282 185.189C33.3282 183.564 32.0104 182.247 30.3853 182.247C28.7602 182.247 27.443 183.564 27.443 185.189C27.443 186.814 28.7602 188.132 30.3853 188.132Z" fill="#4C8BAA"/>
<path d="M16.3121 186.597C17.0893 186.597 17.7195 185.966 17.7195 185.189C17.7195 184.412 17.0893 183.782 16.3121 183.782C15.5348 183.782 14.9053 184.412 14.9053 185.189C14.9053 185.966 15.5348 186.597 16.3121 186.597Z" fill="#4C8BAA"/>
<path d="M227.985 160.625C229.999 160.625 231.631 158.993 231.631 156.979C231.631 154.965 229.999 153.333 227.985 153.333C225.971 153.333 224.338 154.965 224.338 156.979C224.338 158.993 225.971 160.625 227.985 160.625Z" fill="#4C8BAA"/>
<path d="M213.847 160.369C215.72 160.369 217.238 158.852 217.238 156.979C217.238 155.107 215.72 153.589 213.847 153.589C211.975 153.589 210.457 155.107 210.457 156.979C210.457 158.852 211.975 160.369 213.847 160.369Z" fill="#4C8BAA"/>
<path d="M199.709 160.369C201.582 160.369 203.1 158.852 203.1 156.979C203.1 155.107 201.582 153.589 199.709 153.589C197.837 153.589 196.319 155.107 196.319 156.979C196.319 158.852 197.837 160.369 199.709 160.369Z" fill="#4C8BAA"/>
<path d="M185.637 160.177C187.404 160.177 188.836 158.745 188.836 156.979C188.836 155.213 187.404 153.781 185.637 153.781C183.871 153.781 182.439 155.213 182.439 156.979C182.439 158.745 183.871 160.177 185.637 160.177Z" fill="#4C8BAA"/>
<path d="M227.984 174.379C229.786 174.379 231.246 172.918 231.246 171.116C231.246 169.314 229.786 167.854 227.984 167.854C226.182 167.854 224.722 169.314 224.722 171.116C224.722 172.918 226.182 174.379 227.984 174.379Z" fill="#4C8BAA"/>
<path d="M213.848 174.57C215.756 174.57 217.302 173.024 217.302 171.116C217.302 169.208 215.756 167.662 213.848 167.662C211.94 167.662 210.394 169.208 210.394 171.116C210.394 173.024 211.94 174.57 213.848 174.57Z" fill="#4C8BAA"/>
<path d="M199.709 174.507C201.582 174.507 203.1 172.989 203.1 171.116C203.1 169.244 201.582 167.726 199.709 167.726C197.837 167.726 196.319 169.244 196.319 171.116C196.319 172.989 197.837 174.507 199.709 174.507Z" fill="#4C8BAA"/>
<path d="M185.637 174.507C187.51 174.507 189.028 172.989 189.028 171.116C189.028 169.244 187.51 167.726 185.637 167.726C183.765 167.726 182.247 169.244 182.247 171.116C182.247 172.989 183.765 174.507 185.637 174.507Z" fill="#4C8BAA"/>
<path d="M227.984 188.452C229.786 188.452 231.246 186.991 231.246 185.189C231.246 183.387 229.786 181.927 227.984 181.927C226.182 181.927 224.722 183.387 224.722 185.189C224.722 186.991 226.182 188.452 227.984 188.452Z" fill="#4C8BAA"/>
<path d="M213.848 188.26C215.543 188.26 216.918 186.885 216.918 185.189C216.918 183.493 215.543 182.119 213.848 182.119C212.152 182.119 210.777 183.493 210.777 185.189C210.777 186.885 212.152 188.26 213.848 188.26Z" fill="#4C8BAA"/>
<path d="M199.71 188.004C201.265 188.004 202.525 186.744 202.525 185.189C202.525 183.635 201.265 182.375 199.71 182.375C198.156 182.375 196.896 183.635 196.896 185.189C196.896 186.744 198.156 188.004 199.71 188.004Z" fill="#4C8BAA"/>
<path d="M185.636 188.836C187.65 188.836 189.283 187.203 189.283 185.189C189.283 183.176 187.65 181.543 185.636 181.543C183.623 181.543 181.99 183.176 181.99 185.189C181.99 187.203 183.623 188.836 185.636 188.836Z" fill="#4C8BAA"/>
<path d="M242.058 160.625C244.071 160.625 245.704 158.993 245.704 156.979C245.704 154.965 244.071 153.333 242.058 153.333C240.044 153.333 238.411 154.965 238.411 156.979C238.411 158.993 240.044 160.625 242.058 160.625Z" fill="#4C8BAA"/>
<path d="M256.194 160.369C258.066 160.369 259.585 158.852 259.585 156.979C259.585 155.107 258.066 153.589 256.194 153.589C254.321 153.589 252.803 155.107 252.803 156.979C252.803 158.852 254.321 160.369 256.194 160.369Z" fill="#4C8BAA"/>
<path d="M270.267 160.369C272.14 160.369 273.658 158.852 273.658 156.979C273.658 155.107 272.14 153.589 270.267 153.589C268.395 153.589 266.877 155.107 266.877 156.979C266.877 158.852 268.395 160.369 270.267 160.369Z" fill="#4C8BAA"/>
<path d="M284.405 160.177C286.172 160.177 287.604 158.745 287.604 156.979C287.604 155.213 286.172 153.781 284.405 153.781C282.639 153.781 281.207 155.213 281.207 156.979C281.207 158.745 282.639 160.177 284.405 160.177Z" fill="#4C8BAA"/>
<path d="M298.542 160.625C300.556 160.625 302.188 158.993 302.188 156.979C302.188 154.965 300.556 153.333 298.542 153.333C296.528 153.333 294.896 154.965 294.896 156.979C294.896 158.993 296.528 160.625 298.542 160.625Z" fill="#4C8BAA"/>
<path d="M312.615 160.369C314.487 160.369 316.005 158.852 316.005 156.979C316.005 155.107 314.487 153.589 312.615 153.589C310.742 153.589 309.225 155.107 309.225 156.979C309.225 158.852 310.742 160.369 312.615 160.369Z" fill="#4C8BAA"/>
<path d="M326.752 159.921C328.377 159.921 329.695 158.604 329.695 156.979C329.695 155.354 328.377 154.036 326.752 154.036C325.127 154.036 323.809 155.354 323.809 156.979C323.809 158.604 325.127 159.921 326.752 159.921Z" fill="#4C8BAA"/>
<path d="M340.825 160.177C342.592 160.177 344.024 158.745 344.024 156.979C344.024 155.213 342.592 153.781 340.825 153.781C339.059 153.781 337.627 155.213 337.627 156.979C337.627 158.745 339.059 160.177 340.825 160.177Z" fill="#4C8BAA"/>
<path d="M354.962 160.369C356.835 160.369 358.353 158.852 358.353 156.979C358.353 155.107 356.835 153.589 354.962 153.589C353.09 153.589 351.572 155.107 351.572 156.979C351.572 158.852 353.09 160.369 354.962 160.369Z" fill="#4C8BAA"/>
<path d="M369.036 159.602C370.484 159.602 371.658 158.428 371.658 156.979C371.658 155.531 370.484 154.356 369.036 154.356C367.587 154.356 366.413 155.531 366.413 156.979C366.413 158.428 367.587 159.602 369.036 159.602Z" fill="#4C8BAA"/>
<path d="M383.173 159.921C384.798 159.921 386.116 158.604 386.116 156.979C386.116 155.354 384.798 154.036 383.173 154.036C381.548 154.036 380.231 155.354 380.231 156.979C380.231 158.604 381.548 159.921 383.173 159.921Z" fill="#4C8BAA"/>
<path d="M397.31 158.386C398.087 158.386 398.717 157.756 398.717 156.979C398.717 156.202 398.087 155.572 397.31 155.572C396.533 155.572 395.902 156.202 395.902 156.979C395.902 157.756 396.533 158.386 397.31 158.386Z" fill="#4C8BAA"/>
<path d="M242.058 174.379C243.86 174.379 245.32 172.918 245.32 171.116C245.32 169.314 243.86 167.854 242.058 167.854C240.256 167.854 238.796 169.314 238.796 171.116C238.796 172.918 240.256 174.379 242.058 174.379Z" fill="#4C8BAA"/>
<path d="M256.194 174.699C258.173 174.699 259.777 173.095 259.777 171.116C259.777 169.138 258.173 167.534 256.194 167.534C254.216 167.534 252.612 169.138 252.612 171.116C252.612 173.095 254.216 174.699 256.194 174.699Z" fill="#4C8BAA"/>
<path d="M270.267 174.507C272.14 174.507 273.658 172.989 273.658 171.116C273.658 169.244 272.14 167.726 270.267 167.726C268.395 167.726 266.877 169.244 266.877 171.116C266.877 172.989 268.395 174.507 270.267 174.507Z" fill="#4C8BAA"/>
<path d="M284.405 174.507C286.278 174.507 287.796 172.989 287.796 171.116C287.796 169.244 286.278 167.726 284.405 167.726C282.533 167.726 281.015 169.244 281.015 171.116C281.015 172.989 282.533 174.507 284.405 174.507Z" fill="#4C8BAA"/>
<path d="M298.542 174.059C300.167 174.059 301.485 172.741 301.485 171.116C301.485 169.491 300.167 168.174 298.542 168.174C296.917 168.174 295.6 169.491 295.6 171.116C295.6 172.741 296.917 174.059 298.542 174.059Z" fill="#4C8BAA"/>
<path d="M312.615 174.507C314.487 174.507 316.005 172.989 316.005 171.116C316.005 169.244 314.487 167.726 312.615 167.726C310.742 167.726 309.225 169.244 309.225 171.116C309.225 172.989 310.742 174.507 312.615 174.507Z" fill="#4C8BAA"/>
<path d="M326.752 174.187C328.448 174.187 329.823 172.812 329.823 171.116C329.823 169.42 328.448 168.046 326.752 168.046C325.056 168.046 323.681 169.42 323.681 171.116C323.681 172.812 325.056 174.187 326.752 174.187Z" fill="#4C8BAA"/>
<path d="M340.825 174.315C342.592 174.315 344.024 172.883 344.024 171.116C344.024 169.35 342.592 167.918 340.825 167.918C339.059 167.918 337.627 169.35 337.627 171.116C337.627 172.883 339.059 174.315 340.825 174.315Z" fill="#4C8BAA"/>
<path d="M354.962 174.059C356.587 174.059 357.904 172.741 357.904 171.116C357.904 169.491 356.587 168.174 354.962 168.174C353.337 168.174 352.02 169.491 352.02 171.116C352.02 172.741 353.337 174.059 354.962 174.059Z" fill="#4C8BAA"/>
<path d="M369.036 173.739C370.484 173.739 371.658 172.565 371.658 171.116C371.658 169.668 370.484 168.493 369.036 168.493C367.587 168.493 366.413 169.668 366.413 171.116C366.413 172.565 367.587 173.739 369.036 173.739Z" fill="#4C8BAA"/>
<path d="M383.173 174.059C384.798 174.059 386.116 172.741 386.116 171.116C386.116 169.491 384.798 168.174 383.173 168.174C381.548 168.174 380.231 169.491 380.231 171.116C380.231 172.741 381.548 174.059 383.173 174.059Z" fill="#4C8BAA"/>
<path d="M397.31 172.524C398.087 172.524 398.717 171.894 398.717 171.116C398.717 170.339 398.087 169.709 397.31 169.709C396.533 169.709 395.902 170.339 395.902 171.116C395.902 171.894 396.533 172.524 397.31 172.524Z" fill="#4C8BAA"/>
<path d="M242.058 188.452C243.86 188.452 245.32 186.991 245.32 185.189C245.32 183.387 243.86 181.927 242.058 181.927C240.256 181.927 238.796 183.387 238.796 185.189C238.796 186.991 240.256 188.452 242.058 188.452Z" fill="#4C8BAA"/>
<path d="M256.194 188.26C257.89 188.26 259.265 186.885 259.265 185.189C259.265 183.493 257.89 182.119 256.194 182.119C254.498 182.119 253.123 183.493 253.123 185.189C253.123 186.885 254.498 188.26 256.194 188.26Z" fill="#4C8BAA"/>
<path d="M270.268 188.004C271.823 188.004 273.083 186.744 273.083 185.189C273.083 183.635 271.823 182.375 270.268 182.375C268.714 182.375 267.454 183.635 267.454 185.189C267.454 186.744 268.714 188.004 270.268 188.004Z" fill="#4C8BAA"/>
<path d="M284.405 188.836C286.419 188.836 288.052 187.203 288.052 185.189C288.052 183.176 286.419 181.543 284.405 181.543C282.392 181.543 280.759 183.176 280.759 185.189C280.759 187.203 282.392 188.836 284.405 188.836Z" fill="#4C8BAA"/>
<path d="M298.542 188.836C300.556 188.836 302.188 187.203 302.188 185.189C302.188 183.176 300.556 181.543 298.542 181.543C296.528 181.543 294.896 183.176 294.896 185.189C294.896 187.203 296.528 188.836 298.542 188.836Z" fill="#4C8BAA"/>
<path d="M312.615 188.58C314.487 188.58 316.005 187.062 316.005 185.189C316.005 183.317 314.487 181.799 312.615 181.799C310.742 181.799 309.225 183.317 309.225 185.189C309.225 187.062 310.742 188.58 312.615 188.58Z" fill="#4C8BAA"/>
<path d="M326.752 188.132C328.377 188.132 329.695 186.814 329.695 185.189C329.695 183.564 328.377 182.247 326.752 182.247C325.127 182.247 323.809 183.564 323.809 185.189C323.809 186.814 325.127 188.132 326.752 188.132Z" fill="#4C8BAA"/>
<path d="M340.825 188.388C342.592 188.388 344.024 186.956 344.024 185.189C344.024 183.423 342.592 181.991 340.825 181.991C339.059 181.991 337.627 183.423 337.627 185.189C337.627 186.956 339.059 188.388 340.825 188.388Z" fill="#4C8BAA"/>
<path d="M354.963 188.26C356.658 188.26 358.033 186.885 358.033 185.189C358.033 183.493 356.658 182.119 354.963 182.119C353.267 182.119 351.892 183.493 351.892 185.189C351.892 186.885 353.267 188.26 354.963 188.26Z" fill="#4C8BAA"/>
<path d="M369.036 187.94C370.556 187.94 371.787 186.708 371.787 185.189C371.787 183.67 370.556 182.438 369.036 182.438C367.517 182.438 366.286 183.67 366.286 185.189C366.286 186.708 367.517 187.94 369.036 187.94Z" fill="#4C8BAA"/>
<path d="M383.173 188.132C384.798 188.132 386.116 186.814 386.116 185.189C386.116 183.564 384.798 182.247 383.173 182.247C381.548 182.247 380.231 183.564 380.231 185.189C380.231 186.814 381.548 188.132 383.173 188.132Z" fill="#4C8BAA"/>
<path d="M397.31 186.597C398.087 186.597 398.717 185.966 398.717 185.189C398.717 184.412 398.087 183.782 397.31 183.782C396.533 183.782 395.902 184.412 395.902 185.189C395.902 185.966 396.533 186.597 397.31 186.597Z" fill="#4C8BAA"/>
<path d="M383.173 3.07047C383.879 3.07047 384.452 2.49767 384.452 1.79109C384.452 1.08451 383.879 0.511719 383.173 0.511719C382.466 0.511719 381.893 1.08451 381.893 1.79109C381.893 2.49767 382.466 3.07047 383.173 3.07047Z" fill="#4C8BAA"/>
<path d="M354.963 3.58231C355.952 3.58231 356.754 2.78036 356.754 1.79115C356.754 0.801944 355.952 0 354.963 0C353.974 0 353.172 0.801944 353.172 1.79115C353.172 2.78036 353.974 3.58231 354.963 3.58231Z" fill="#4C8BAA"/>
<path d="M298.543 3.45427C299.461 3.45427 300.206 2.70973 300.206 1.79118C300.206 0.872626 299.461 0.12793 298.543 0.12793C297.624 0.12793 296.88 0.872626 296.88 1.79118C296.88 2.70973 297.624 3.45427 298.543 3.45427Z" fill="#4C8BAA"/>
<path d="M256.194 3.19859C256.972 3.19859 257.602 2.56855 257.602 1.79131C257.602 1.01408 256.972 0.384033 256.194 0.384033C255.417 0.384033 254.787 1.01408 254.787 1.79131C254.787 2.56855 255.417 3.19859 256.194 3.19859Z" fill="#4C8BAA"/>
<path d="M242.057 3.39033C242.94 3.39033 243.656 2.67434 243.656 1.79111C243.656 0.907888 242.94 0.191895 242.057 0.191895C241.174 0.191895 240.458 0.907888 240.458 1.79111C240.458 2.67434 241.174 3.39033 242.057 3.39033Z" fill="#4C8BAA"/>
<path d="M227.985 3.39033C228.868 3.39033 229.584 2.67434 229.584 1.79111C229.584 0.907888 228.868 0.191895 227.985 0.191895C227.102 0.191895 226.386 0.907888 226.386 1.79111C226.386 2.67434 227.102 3.39033 227.985 3.39033Z" fill="#4C8BAA"/>
<path d="M213.848 3.19859C214.625 3.19859 215.255 2.56855 215.255 1.79131C215.255 1.01408 214.625 0.384033 213.848 0.384033C213.071 0.384033 212.441 1.01408 212.441 1.79131C212.441 2.56855 213.071 3.19859 213.848 3.19859Z" fill="#4C8BAA"/>
<path d="M411.384 17.3357C412.196 17.3357 412.855 16.6769 412.855 15.8644C412.855 15.0518 412.196 14.3931 411.384 14.3931C410.571 14.3931 409.912 15.0518 409.912 15.8644C409.912 16.6769 410.571 17.3357 411.384 17.3357Z" fill="#4C8BAA"/>
<path d="M397.311 17.5273C398.229 17.5273 398.974 16.7827 398.974 15.8642C398.974 14.9456 398.229 14.2009 397.311 14.2009C396.392 14.2009 395.647 14.9456 395.647 15.8642C395.647 16.7827 396.392 17.5273 397.311 17.5273Z" fill="#4C8BAA"/>
<path d="M383.173 17.5273C384.092 17.5273 384.837 16.7827 384.837 15.8642C384.837 14.9456 384.092 14.2009 383.173 14.2009C382.255 14.2009 381.51 14.9456 381.51 15.8642C381.51 16.7827 382.255 17.5273 383.173 17.5273Z" fill="#4C8BAA"/>
<path d="M369.035 17.5273C369.954 17.5273 370.698 16.7827 370.698 15.8642C370.698 14.9456 369.954 14.2009 369.035 14.2009C368.117 14.2009 367.372 14.9456 367.372 15.8642C367.372 16.7827 368.117 17.5273 369.035 17.5273Z" fill="#4C8BAA"/>
<path d="M354.963 17.3357C355.776 17.3357 356.434 16.6769 356.434 15.8644C356.434 15.0518 355.776 14.3931 354.963 14.3931C354.15 14.3931 353.492 15.0518 353.492 15.8644C353.492 16.6769 354.15 17.3357 354.963 17.3357Z" fill="#4C8BAA"/>
<path d="M340.824 17.2074C341.566 17.2074 342.167 16.6061 342.167 15.8642C342.167 15.1222 341.566 14.5208 340.824 14.5208C340.082 14.5208 339.48 15.1222 339.48 15.8642C339.48 16.6061 340.082 17.2074 340.824 17.2074Z" fill="#4C8BAA"/>
<path d="M312.615 17.9752C313.781 17.9752 314.726 17.03 314.726 15.8642C314.726 14.6983 313.781 13.7532 312.615 13.7532C311.45 13.7532 310.505 14.6983 310.505 15.8642C310.505 17.03 311.45 17.9752 312.615 17.9752Z" fill="#4C8BAA"/>
<path d="M298.54 17.1437C299.247 17.1437 299.82 16.5709 299.82 15.8643C299.82 15.1578 299.247 14.585 298.54 14.585C297.834 14.585 297.261 15.1578 297.261 15.8643C297.261 16.5709 297.834 17.1437 298.54 17.1437Z" fill="#4C8BAA"/>
<path d="M284.405 17.8469C285.5 17.8469 286.388 16.9591 286.388 15.864C286.388 14.7688 285.5 13.8809 284.405 13.8809C283.31 13.8809 282.421 14.7688 282.421 15.864C282.421 16.9591 283.31 17.8469 284.405 17.8469Z" fill="#4C8BAA"/>
<path d="M270.268 17.4633C271.151 17.4633 271.867 16.7473 271.867 15.8641C271.867 14.9809 271.151 14.2649 270.268 14.2649C269.385 14.2649 268.669 14.9809 268.669 15.8641C268.669 16.7473 269.385 17.4633 270.268 17.4633Z" fill="#4C8BAA"/>
<path d="M256.194 17.0156C256.829 17.0156 257.345 16.5 257.345 15.8641C257.345 15.2282 256.829 14.7126 256.194 14.7126C255.558 14.7126 255.042 15.2282 255.042 15.8641C255.042 16.5 255.558 17.0156 256.194 17.0156Z" fill="#4C8BAA"/>
<path d="M242.057 17.9111C243.188 17.9111 244.105 16.9946 244.105 15.8641C244.105 14.7336 243.188 13.8171 242.057 13.8171C240.927 13.8171 240.01 14.7336 240.01 15.8641C240.01 16.9946 240.927 17.9111 242.057 17.9111Z" fill="#4C8BAA"/>
<path d="M227.985 17.4633C228.868 17.4633 229.584 16.7473 229.584 15.8641C229.584 14.9809 228.868 14.2649 227.985 14.2649C227.102 14.2649 226.386 14.9809 226.386 15.8641C226.386 16.7473 227.102 17.4633 227.985 17.4633Z" fill="#4C8BAA"/>
<path d="M213.848 17.2713C214.625 17.2713 215.255 16.6413 215.255 15.8641C215.255 15.0868 214.625 14.4568 213.848 14.4568C213.071 14.4568 212.441 15.0868 212.441 15.8641C212.441 16.6413 213.071 17.2713 213.848 17.2713Z" fill="#4C8BAA"/>
<path d="M397.311 31.3446C398.053 31.3446 398.654 30.7431 398.654 30.0012C398.654 29.2593 398.053 28.658 397.311 28.658C396.569 28.658 395.967 29.2593 395.967 30.0012C395.967 30.7431 396.569 31.3446 397.311 31.3446Z" fill="#4C8BAA"/>
<path d="M383.173 31.2807C383.879 31.2807 384.452 30.7079 384.452 30.0013C384.452 29.2947 383.879 28.7219 383.173 28.7219C382.466 28.7219 381.893 29.2947 381.893 30.0013C381.893 30.7079 382.466 31.2807 383.173 31.2807Z" fill="#4C8BAA"/>
<path d="M369.035 31.5366C369.883 31.5366 370.571 30.8491 370.571 30.0013C370.571 29.1534 369.883 28.4661 369.035 28.4661C368.187 28.4661 367.5 29.1534 367.5 30.0013C367.5 30.8491 368.187 31.5366 369.035 31.5366Z" fill="#4C8BAA"/>
<path d="M354.963 31.7924C355.952 31.7924 356.754 30.9904 356.754 30.0012C356.754 29.012 355.952 28.2102 354.963 28.2102C353.974 28.2102 353.172 29.012 353.172 30.0012C353.172 30.9904 353.974 31.7924 354.963 31.7924Z" fill="#4C8BAA"/>
<path d="M340.826 31.7924C341.815 31.7924 342.617 30.9904 342.617 30.0012C342.617 29.012 341.815 28.2102 340.826 28.2102C339.836 28.2102 339.034 29.012 339.034 30.0012C339.034 30.9904 339.836 31.7924 340.826 31.7924Z" fill="#4C8BAA"/>
<path d="M326.753 31.5366C327.601 31.5366 328.288 30.8491 328.288 30.0013C328.288 29.1534 327.601 28.4661 326.753 28.4661C325.905 28.4661 325.217 29.1534 325.217 30.0013C325.217 30.8491 325.905 31.5366 326.753 31.5366Z" fill="#4C8BAA"/>
<path d="M312.615 31.5366C313.463 31.5366 314.15 30.8491 314.15 30.0013C314.15 29.1534 313.463 28.4661 312.615 28.4661C311.767 28.4661 311.08 29.1534 311.08 30.0013C311.08 30.8491 311.767 31.5366 312.615 31.5366Z" fill="#4C8BAA"/>
<path d="M298.542 31.4087C299.319 31.4087 299.949 30.7785 299.949 30.0013C299.949 29.224 299.319 28.594 298.542 28.594C297.765 28.594 297.134 29.224 297.134 30.0013C297.134 30.7785 297.765 31.4087 298.542 31.4087Z" fill="#4C8BAA"/>
<path d="M284.405 31.9841C285.5 31.9841 286.388 31.0962 286.388 30.001C286.388 28.9058 285.5 28.0181 284.405 28.0181C283.31 28.0181 282.421 28.9058 282.421 30.001C282.421 31.0962 283.31 31.9841 284.405 31.9841Z" fill="#4C8BAA"/>
<path d="M270.266 31.4087C271.044 31.4087 271.674 30.7785 271.674 30.0013C271.674 29.224 271.044 28.594 270.266 28.594C269.489 28.594 268.86 29.224 268.86 30.0013C268.86 30.7785 269.489 31.4087 270.266 31.4087Z" fill="#4C8BAA"/>
<path d="M256.194 31.4087C256.972 31.4087 257.602 30.7785 257.602 30.0013C257.602 29.224 256.972 28.594 256.194 28.594C255.417 28.594 254.787 29.224 254.787 30.0013C254.787 30.7785 255.417 31.4087 256.194 31.4087Z" fill="#4C8BAA"/>
<path d="M242.059 31.1526C242.695 31.1526 243.21 30.6371 243.21 30.0012C243.21 29.3652 242.695 28.8499 242.059 28.8499C241.423 28.8499 240.907 29.3652 240.907 30.0012C240.907 30.6371 241.423 31.1526 242.059 31.1526Z" fill="#4C8BAA"/>
<path d="M227.985 31.7286C228.938 31.7286 229.712 30.9552 229.712 30.0013C229.712 29.0474 228.938 28.2742 227.985 28.2742C227.031 28.2742 226.257 29.0474 226.257 30.0013C226.257 30.9552 227.031 31.7286 227.985 31.7286Z" fill="#4C8BAA"/>
<path d="M213.848 31.4087C214.625 31.4087 215.255 30.7785 215.255 30.0013C215.255 29.224 214.625 28.594 213.848 28.594C213.071 28.594 212.441 29.224 212.441 30.0013C212.441 30.7785 213.071 31.4087 213.848 31.4087Z" fill="#4C8BAA"/>
<path d="M397.311 45.7375C398.229 45.7375 398.974 44.9928 398.974 44.0742C398.974 43.1557 398.229 42.4111 397.311 42.4111C396.392 42.4111 395.647 43.1557 395.647 44.0742C395.647 44.9928 396.392 45.7375 397.311 45.7375Z" fill="#4C8BAA"/>
<path d="M383.173 46.1214C384.303 46.1214 385.22 45.2048 385.22 44.0743C385.22 42.9438 384.303 42.0273 383.173 42.0273C382.042 42.0273 381.126 42.9438 381.126 44.0743C381.126 45.2048 382.042 46.1214 383.173 46.1214Z" fill="#4C8BAA"/>
<path d="M369.035 45.6096C369.883 45.6096 370.571 44.9221 370.571 44.0742C370.571 43.2264 369.883 42.5391 369.035 42.5391C368.187 42.5391 367.5 43.2264 367.5 44.0742C367.5 44.9221 368.187 45.6096 369.035 45.6096Z" fill="#4C8BAA"/>
<path d="M354.962 45.4817C355.739 45.4817 356.37 44.8515 356.37 44.0743C356.37 43.297 355.739 42.667 354.962 42.667C354.185 42.667 353.555 43.297 353.555 44.0743C353.555 44.8515 354.185 45.4817 354.962 45.4817Z" fill="#4C8BAA"/>
<path d="M340.826 45.6096C341.673 45.6096 342.36 44.9221 342.36 44.0742C342.36 43.2264 341.673 42.5391 340.826 42.5391C339.978 42.5391 339.29 43.2264 339.29 44.0742C339.29 44.9221 339.978 45.6096 340.826 45.6096Z" fill="#4C8BAA"/>
<path d="M326.753 45.6096C327.601 45.6096 328.288 44.9221 328.288 44.0742C328.288 43.2264 327.601 42.5391 326.753 42.5391C325.905 42.5391 325.217 43.2264 325.217 44.0742C325.217 44.9221 325.905 45.6096 326.753 45.6096Z" fill="#4C8BAA"/>
<path d="M312.616 45.4817C313.393 45.4817 314.023 44.8515 314.023 44.0743C314.023 43.297 313.393 42.667 312.616 42.667C311.838 42.667 311.208 43.297 311.208 44.0743C311.208 44.8515 311.838 45.4817 312.616 45.4817Z" fill="#4C8BAA"/>
<path d="M298.542 46.1214C299.673 46.1214 300.589 45.2048 300.589 44.0743C300.589 42.9438 299.673 42.0273 298.542 42.0273C297.412 42.0273 296.495 42.9438 296.495 44.0743C296.495 45.2048 297.412 46.1214 298.542 46.1214Z" fill="#4C8BAA"/>
<path d="M284.404 45.2897C285.076 45.2897 285.619 44.7455 285.619 44.0742C285.619 43.403 285.076 42.8589 284.404 42.8589C283.733 42.8589 283.189 43.403 283.189 44.0742C283.189 44.7455 283.733 45.2897 284.404 45.2897Z" fill="#4C8BAA"/>
<path d="M270.268 45.6733C271.151 45.6733 271.867 44.9573 271.867 44.0741C271.867 43.1908 271.151 42.4749 270.268 42.4749C269.385 42.4749 268.669 43.1908 268.669 44.0741C268.669 44.9573 269.385 45.6733 270.268 45.6733Z" fill="#4C8BAA"/>
<path d="M256.195 45.6733C257.078 45.6733 257.794 44.9573 257.794 44.0741C257.794 43.1908 257.078 42.4749 256.195 42.4749C255.312 42.4749 254.596 43.1908 254.596 44.0741C254.596 44.9573 255.312 45.6733 256.195 45.6733Z" fill="#4C8BAA"/>
<path d="M242.057 45.8018C243.011 45.8018 243.785 45.0284 243.785 44.0745C243.785 43.1207 243.011 42.3474 242.057 42.3474C241.104 42.3474 240.33 43.1207 240.33 44.0745C240.33 45.0284 241.104 45.8018 242.057 45.8018Z" fill="#4C8BAA"/>
<path d="M227.985 45.8018C228.938 45.8018 229.712 45.0284 229.712 44.0745C229.712 43.1207 228.938 42.3474 227.985 42.3474C227.031 42.3474 226.257 43.1207 226.257 44.0745C226.257 45.0284 227.031 45.8018 227.985 45.8018Z" fill="#4C8BAA"/>
<path d="M213.849 45.8018C214.803 45.8018 215.576 45.0284 215.576 44.0745C215.576 43.1207 214.803 42.3474 213.849 42.3474C212.895 42.3474 212.122 43.1207 212.122 44.0745C212.122 45.0284 212.895 45.8018 213.849 45.8018Z" fill="#4C8BAA"/>
<path d="M397.311 59.8746C398.229 59.8746 398.974 59.1299 398.974 58.2113C398.974 57.2928 398.229 56.5481 397.311 56.5481C396.392 56.5481 395.647 57.2928 395.647 58.2113C395.647 59.1299 396.392 59.8746 397.311 59.8746Z" fill="#4C8BAA"/>
<path d="M383.173 60.2582C384.303 60.2582 385.22 59.3418 385.22 58.2113C385.22 57.0807 384.303 56.1643 383.173 56.1643C382.042 56.1643 381.126 57.0807 381.126 58.2113C381.126 59.3418 382.042 60.2582 383.173 60.2582Z" fill="#4C8BAA"/>
<path d="M369.035 60.5783C370.342 60.5783 371.402 59.5187 371.402 58.2115C371.402 56.9044 370.342 55.8447 369.035 55.8447C367.728 55.8447 366.668 56.9044 366.668 58.2115C366.668 59.5187 367.728 60.5783 369.035 60.5783Z" fill="#4C8BAA"/>
<path d="M354.962 60.2582C356.093 60.2582 357.009 59.3418 357.009 58.2113C357.009 57.0807 356.093 56.1643 354.962 56.1643C353.832 56.1643 352.915 57.0807 352.915 58.2113C352.915 59.3418 353.832 60.2582 354.962 60.2582Z" fill="#4C8BAA"/>
<path d="M340.826 60.898C342.31 60.898 343.512 59.6951 343.512 58.2113C343.512 56.7275 342.31 55.5247 340.826 55.5247C339.342 55.5247 338.139 56.7275 338.139 58.2113C338.139 59.6951 339.342 60.898 340.826 60.898Z" fill="#4C8BAA"/>
<path d="M326.754 60.5783C328.061 60.5783 329.121 59.5187 329.121 58.2115C329.121 56.9044 328.061 55.8447 326.754 55.8447C325.447 55.8447 324.387 56.9044 324.387 58.2115C324.387 59.5187 325.447 60.5783 326.754 60.5783Z" fill="#4C8BAA"/>
<path d="M312.615 60.5783C313.922 60.5783 314.982 59.5187 314.982 58.2115C314.982 56.9044 313.922 55.8447 312.615 55.8447C311.308 55.8447 310.248 56.9044 310.248 58.2115C310.248 59.5187 311.308 60.5783 312.615 60.5783Z" fill="#4C8BAA"/>
<path d="M298.542 60.2582C299.673 60.2582 300.589 59.3418 300.589 58.2113C300.589 57.0807 299.673 56.1643 298.542 56.1643C297.412 56.1643 296.495 57.0807 296.495 58.2113C296.495 59.3418 297.412 60.2582 298.542 60.2582Z" fill="#4C8BAA"/>
<path d="M284.405 60.5143C285.677 60.5143 286.708 59.4832 286.708 58.2114C286.708 56.9395 285.677 55.9084 284.405 55.9084C283.133 55.9084 282.102 56.9395 282.102 58.2114C282.102 59.4832 283.133 60.5143 284.405 60.5143Z" fill="#4C8BAA"/>
<path d="M270.269 60.3864C271.47 60.3864 272.444 59.4127 272.444 58.2115C272.444 57.0103 271.47 56.0366 270.269 56.0366C269.067 56.0366 268.094 57.0103 268.094 58.2115C268.094 59.4127 269.067 60.3864 270.269 60.3864Z" fill="#4C8BAA"/>
<path d="M256.195 59.8107C257.078 59.8107 257.794 59.0947 257.794 58.2115C257.794 57.3283 257.078 56.6123 256.195 56.6123C255.312 56.6123 254.596 57.3283 254.596 58.2115C254.596 59.0947 255.312 59.8107 256.195 59.8107Z" fill="#4C8BAA"/>
<path d="M242.057 60.2582C243.188 60.2582 244.105 59.3418 244.105 58.2113C244.105 57.0807 243.188 56.1643 242.057 56.1643C240.927 56.1643 240.01 57.0807 240.01 58.2113C240.01 59.3418 240.927 60.2582 242.057 60.2582Z" fill="#4C8BAA"/>
<path d="M227.984 60.8342C229.432 60.8342 230.606 59.6599 230.606 58.2114C230.606 56.7629 229.432 55.5886 227.984 55.5886C226.535 55.5886 225.361 56.7629 225.361 58.2114C225.361 59.6599 226.535 60.8342 227.984 60.8342Z" fill="#4C8BAA"/>
<path d="M213.848 60.0665C214.872 60.0665 215.703 59.236 215.703 58.2115C215.703 57.1869 214.872 56.3564 213.848 56.3564C212.823 56.3564 211.993 57.1869 211.993 58.2115C211.993 59.236 212.823 60.0665 213.848 60.0665Z" fill="#4C8BAA"/>
<path d="M397.31 74.0757C398.264 74.0757 399.037 73.3025 399.037 72.3486C399.037 71.3947 398.264 70.6213 397.31 70.6213C396.356 70.6213 395.582 71.3947 395.582 72.3486C395.582 73.3025 396.356 74.0757 397.31 74.0757Z" fill="#4C8BAA"/>
<path d="M383.173 74.3956C384.303 74.3956 385.22 73.4792 385.22 72.3486C385.22 71.2181 384.303 70.3015 383.173 70.3015C382.042 70.3015 381.126 71.2181 381.126 72.3486C381.126 73.4792 382.042 74.3956 383.173 74.3956Z" fill="#4C8BAA"/>
<path d="M369.036 74.907C370.449 74.907 371.594 73.7615 371.594 72.3483C371.594 70.9351 370.449 69.7896 369.036 69.7896C367.622 69.7896 366.477 70.9351 366.477 72.3483C366.477 73.7615 367.622 74.907 369.036 74.907Z" fill="#4C8BAA"/>
<path d="M354.962 74.0757C355.916 74.0757 356.689 73.3025 356.689 72.3486C356.689 71.3947 355.916 70.6213 354.962 70.6213C354.008 70.6213 353.235 71.3947 353.235 72.3486C353.235 73.3025 354.008 74.0757 354.962 74.0757Z" fill="#4C8BAA"/>
<path d="M340.825 74.907C342.239 74.907 343.384 73.7615 343.384 72.3483C343.384 70.9351 342.239 69.7896 340.825 69.7896C339.412 69.7896 338.267 70.9351 338.267 72.3483C338.267 73.7615 339.412 74.907 340.825 74.907Z" fill="#4C8BAA"/>
<path d="M326.752 74.4594C327.918 74.4594 328.863 73.5144 328.863 72.3485C328.863 71.1827 327.918 70.2375 326.752 70.2375C325.587 70.2375 324.641 71.1827 324.641 72.3485C324.641 73.5144 325.587 74.4594 326.752 74.4594Z" fill="#4C8BAA"/>
<path d="M312.615 74.3956C313.746 74.3956 314.662 73.4792 314.662 72.3486C314.662 71.2181 313.746 70.3015 312.615 70.3015C311.485 70.3015 310.568 71.2181 310.568 72.3486C310.568 73.4792 311.485 74.3956 312.615 74.3956Z" fill="#4C8BAA"/>
<path d="M298.542 74.4594C299.708 74.4594 300.653 73.5144 300.653 72.3485C300.653 71.1827 299.708 70.2375 298.542 70.2375C297.377 70.2375 296.432 71.1827 296.432 72.3485C296.432 73.5144 297.377 74.4594 298.542 74.4594Z" fill="#4C8BAA"/>
<path d="M284.405 74.4594C285.571 74.4594 286.516 73.5144 286.516 72.3485C286.516 71.1827 285.571 70.2375 284.405 70.2375C283.239 70.2375 282.294 71.1827 282.294 72.3485C282.294 73.5144 283.239 74.4594 284.405 74.4594Z" fill="#4C8BAA"/>
<path d="M270.268 74.2673C271.328 74.2673 272.187 73.4081 272.187 72.3483C272.187 71.2884 271.328 70.4292 270.268 70.4292C269.208 70.4292 268.349 71.2884 268.349 72.3483C268.349 73.4081 269.208 74.2673 270.268 74.2673Z" fill="#4C8BAA"/>
<path d="M256.195 74.9712C257.643 74.9712 258.818 73.7971 258.818 72.3486C258.818 70.9001 257.643 69.7258 256.195 69.7258C254.746 69.7258 253.572 70.9001 253.572 72.3486C253.572 73.7971 254.746 74.9712 256.195 74.9712Z" fill="#4C8BAA"/>
<path d="M242.058 74.0116C242.976 74.0116 243.721 73.2671 243.721 72.3486C243.721 71.43 242.976 70.6853 242.058 70.6853C241.139 70.6853 240.395 71.43 240.395 72.3486C240.395 73.2671 241.139 74.0116 242.058 74.0116Z" fill="#4C8BAA"/>
<path d="M227.984 74.2673C229.044 74.2673 229.904 73.4081 229.904 72.3483C229.904 71.2884 229.044 70.4292 227.984 70.4292C226.925 70.4292 226.065 71.2884 226.065 72.3483C226.065 73.4081 226.925 74.2673 227.984 74.2673Z" fill="#4C8BAA"/>
<path d="M213.847 74.9712C215.295 74.9712 216.469 73.7971 216.469 72.3486C216.469 70.9001 215.295 69.7258 213.847 69.7258C212.398 69.7258 211.224 70.9001 211.224 72.3486C211.224 73.7971 212.398 74.9712 213.847 74.9712Z" fill="#4C8BAA"/>
<path d="M383.172 88.5965C384.374 88.5965 385.348 87.6228 385.348 86.4216C385.348 85.2204 384.374 84.2466 383.172 84.2466C381.971 84.2466 380.998 85.2204 380.998 86.4216C380.998 87.6228 381.971 88.5965 383.172 88.5965Z" fill="#4C8BAA"/>
<path d="M369.036 88.5965C370.237 88.5965 371.211 87.6228 371.211 86.4216C371.211 85.2204 370.237 84.2466 369.036 84.2466C367.835 84.2466 366.861 85.2204 366.861 86.4216C366.861 87.6228 367.835 88.5965 369.036 88.5965Z" fill="#4C8BAA"/>
<path d="M354.964 88.5965C356.165 88.5965 357.139 87.6228 357.139 86.4216C357.139 85.2204 356.165 84.2466 354.964 84.2466C353.762 84.2466 352.788 85.2204 352.788 86.4216C352.788 87.6228 353.762 88.5965 354.964 88.5965Z" fill="#4C8BAA"/>
<path d="M340.825 88.9803C342.239 88.9803 343.384 87.8347 343.384 86.4215C343.384 85.0084 342.239 83.8628 340.825 83.8628C339.412 83.8628 338.267 85.0084 338.267 86.4215C338.267 87.8347 339.412 88.9803 340.825 88.9803Z" fill="#4C8BAA"/>
<path d="M326.753 87.9568C327.601 87.9568 328.288 87.2695 328.288 86.4216C328.288 85.5737 327.601 84.8862 326.753 84.8862C325.905 84.8862 325.217 85.5737 325.217 86.4216C325.217 87.2695 325.905 87.9568 326.753 87.9568Z" fill="#4C8BAA"/>
<path d="M312.615 88.7882C313.922 88.7882 314.982 87.7286 314.982 86.4214C314.982 85.1142 313.922 84.0544 312.615 84.0544C311.308 84.0544 310.248 85.1142 310.248 86.4214C310.248 87.7286 311.308 88.7882 312.615 88.7882Z" fill="#4C8BAA"/>
<path d="M298.542 88.7882C299.849 88.7882 300.909 87.7286 300.909 86.4214C300.909 85.1142 299.849 84.0544 298.542 84.0544C297.235 84.0544 296.175 85.1142 296.175 86.4214C296.175 87.7286 297.235 88.7882 298.542 88.7882Z" fill="#4C8BAA"/>
<path d="M284.405 88.7882C285.712 88.7882 286.772 87.7286 286.772 86.4214C286.772 85.1142 285.712 84.0544 284.405 84.0544C283.098 84.0544 282.038 85.1142 282.038 86.4214C282.038 87.7286 283.098 88.7882 284.405 88.7882Z" fill="#4C8BAA"/>
<path d="M270.269 88.5965C271.47 88.5965 272.444 87.6228 272.444 86.4216C272.444 85.2204 271.47 84.2466 270.269 84.2466C269.067 84.2466 268.094 85.2204 268.094 86.4216C268.094 87.6228 269.067 88.5965 270.269 88.5965Z" fill="#4C8BAA"/>
<path d="M256.194 88.1487C257.148 88.1487 257.921 87.3755 257.921 86.4216C257.921 85.4677 257.148 84.6943 256.194 84.6943C255.24 84.6943 254.468 85.4677 254.468 86.4216C254.468 87.3755 255.24 88.1487 256.194 88.1487Z" fill="#4C8BAA"/>
<path d="M242.057 89.4279C243.718 89.4279 245.064 88.0819 245.064 86.4214C245.064 84.761 243.718 83.4148 242.057 83.4148C240.397 83.4148 239.05 84.761 239.05 86.4214C239.05 88.0819 240.397 89.4279 242.057 89.4279Z" fill="#4C8BAA"/>
<path d="M227.984 89.0442C229.432 89.0442 230.606 87.8701 230.606 86.4216C230.606 84.9731 229.432 83.7988 227.984 83.7988C226.535 83.7988 225.361 84.9731 225.361 86.4216C225.361 87.8701 226.535 89.0442 227.984 89.0442Z" fill="#4C8BAA"/>
<path d="M213.848 88.6607C215.084 88.6607 216.087 87.6583 216.087 86.4218C216.087 85.1853 215.084 84.1829 213.848 84.1829C212.611 84.1829 211.609 85.1853 211.609 86.4218C211.609 87.6583 212.611 88.6607 213.848 88.6607Z" fill="#4C8BAA"/>
<path d="M383.173 102.222C384.092 102.222 384.837 101.477 384.837 100.559C384.837 99.64 384.092 98.8955 383.173 98.8955C382.255 98.8955 381.51 99.64 381.51 100.559C381.51 101.477 382.255 102.222 383.173 102.222Z" fill="#4C8BAA"/>
<path d="M369.035 102.222C369.954 102.222 370.698 101.477 370.698 100.559C370.698 99.64 369.954 98.8955 369.035 98.8955C368.117 98.8955 367.372 99.64 367.372 100.559C367.372 101.477 368.117 102.222 369.035 102.222Z" fill="#4C8BAA"/>
<path d="M354.962 102.222C355.881 102.222 356.625 101.477 356.625 100.559C356.625 99.64 355.881 98.8955 354.962 98.8955C354.044 98.8955 353.299 99.64 353.299 100.559C353.299 101.477 354.044 102.222 354.962 102.222Z" fill="#4C8BAA"/>
<path d="M340.826 102.478C341.885 102.478 342.745 101.619 342.745 100.559C342.745 99.4988 341.885 98.6396 340.826 98.6396C339.766 98.6396 338.906 99.4988 338.906 100.559C338.906 101.619 339.766 102.478 340.826 102.478Z" fill="#4C8BAA"/>
<path d="M326.752 102.67C327.918 102.67 328.863 101.725 328.863 100.559C328.863 99.3929 327.918 98.4478 326.752 98.4478C325.587 98.4478 324.641 99.3929 324.641 100.559C324.641 101.725 325.587 102.67 326.752 102.67Z" fill="#4C8BAA"/>
<path d="M312.614 103.117C314.028 103.117 315.173 101.972 315.173 100.559C315.173 99.1456 314.028 98 312.614 98C311.201 98 310.056 99.1456 310.056 100.559C310.056 101.972 311.201 103.117 312.614 103.117Z" fill="#4C8BAA"/>
<path d="M298.541 103.117C299.954 103.117 301.099 101.972 301.099 100.559C301.099 99.1456 299.954 98 298.541 98C297.128 98 295.982 99.1456 295.982 100.559C295.982 101.972 297.128 103.117 298.541 103.117Z" fill="#4C8BAA"/>
<path d="M284.406 103.181C285.854 103.181 287.028 102.007 287.028 100.559C287.028 99.1102 285.854 97.936 284.406 97.936C282.957 97.936 281.783 99.1102 281.783 100.559C281.783 102.007 282.957 103.181 284.406 103.181Z" fill="#4C8BAA"/>
<path d="M270.268 102.478C271.328 102.478 272.187 101.619 272.187 100.559C272.187 99.4988 271.328 98.6396 270.268 98.6396C269.208 98.6396 268.349 99.4988 268.349 100.559C268.349 101.619 269.208 102.478 270.268 102.478Z" fill="#4C8BAA"/>
<path d="M256.195 102.158C257.078 102.158 257.794 101.442 257.794 100.559C257.794 99.6755 257.078 98.9595 256.195 98.9595C255.312 98.9595 254.596 99.6755 254.596 100.559C254.596 101.442 255.312 102.158 256.195 102.158Z" fill="#4C8BAA"/>
<path d="M242.057 103.565C243.718 103.565 245.064 102.219 245.064 100.559C245.064 98.8983 243.718 97.5522 242.057 97.5522C240.397 97.5522 239.05 98.8983 239.05 100.559C239.05 102.219 240.397 103.565 242.057 103.565Z" fill="#4C8BAA"/>
<path d="M227.984 102.478C229.044 102.478 229.904 101.619 229.904 100.559C229.904 99.4988 229.044 98.6396 227.984 98.6396C226.925 98.6396 226.065 99.4988 226.065 100.559C226.065 101.619 226.925 102.478 227.984 102.478Z" fill="#4C8BAA"/>
<path d="M213.847 103.181C215.295 103.181 216.469 102.007 216.469 100.559C216.469 99.1102 215.295 97.936 213.847 97.936C212.398 97.936 211.224 99.1102 211.224 100.559C211.224 102.007 212.398 103.181 213.847 103.181Z" fill="#4C8BAA"/>
<path d="M397.311 116.295C398.229 116.295 398.974 115.55 398.974 114.632C398.974 113.713 398.229 112.969 397.311 112.969C396.392 112.969 395.647 113.713 395.647 114.632C395.647 115.55 396.392 116.295 397.311 116.295Z" fill="#4C8BAA"/>
<path d="M383.172 116.807C384.374 116.807 385.348 115.833 385.348 114.632C385.348 113.43 384.374 112.457 383.172 112.457C381.971 112.457 380.998 113.43 380.998 114.632C380.998 115.833 381.971 116.807 383.172 116.807Z" fill="#4C8BAA"/>
<path d="M369.036 116.807C370.237 116.807 371.211 115.833 371.211 114.632C371.211 113.43 370.237 112.457 369.036 112.457C367.835 112.457 366.861 113.43 366.861 114.632C366.861 115.833 367.835 116.807 369.036 116.807Z" fill="#4C8BAA"/>
<path d="M354.962 117.318C356.446 117.318 357.649 116.116 357.649 114.632C357.649 113.148 356.446 111.945 354.962 111.945C353.478 111.945 352.275 113.148 352.275 114.632C352.275 116.116 353.478 117.318 354.962 117.318Z" fill="#4C8BAA"/>
<path d="M340.825 117.19C342.239 117.19 343.384 116.045 343.384 114.632C343.384 113.219 342.239 112.073 340.825 112.073C339.412 112.073 338.267 113.219 338.267 114.632C338.267 116.045 339.412 117.19 340.825 117.19Z" fill="#4C8BAA"/>
<path d="M326.753 116.167C327.601 116.167 328.288 115.48 328.288 114.632C328.288 113.784 327.601 113.096 326.753 113.096C325.905 113.096 325.217 113.784 325.217 114.632C325.217 115.48 325.905 116.167 326.753 116.167Z" fill="#4C8BAA"/>
<path d="M312.614 117.19C314.028 117.19 315.173 116.045 315.173 114.632C315.173 113.219 314.028 112.073 312.614 112.073C311.201 112.073 310.056 113.219 310.056 114.632C310.056 116.045 311.201 117.19 312.614 117.19Z" fill="#4C8BAA"/>
<path d="M298.542 117.702C300.238 117.702 301.613 116.328 301.613 114.632C301.613 112.936 300.238 111.561 298.542 111.561C296.846 111.561 295.472 112.936 295.472 114.632C295.472 116.328 296.846 117.702 298.542 117.702Z" fill="#4C8BAA"/>
<path d="M284.406 117.255C285.854 117.255 287.028 116.08 287.028 114.632C287.028 113.183 285.854 112.009 284.406 112.009C282.957 112.009 281.783 113.183 281.783 114.632C281.783 116.08 282.957 117.255 284.406 117.255Z" fill="#4C8BAA"/>
<path d="M270.267 117.702C271.963 117.702 273.338 116.328 273.338 114.632C273.338 112.936 271.963 111.561 270.267 111.561C268.572 111.561 267.197 112.936 267.197 114.632C267.197 116.328 268.572 117.702 270.267 117.702Z" fill="#4C8BAA"/>
<path d="M256.194 117.702C257.89 117.702 259.265 116.328 259.265 114.632C259.265 112.936 257.89 111.561 256.194 111.561C254.498 111.561 253.123 112.936 253.123 114.632C253.123 116.328 254.498 117.702 256.194 117.702Z" fill="#4C8BAA"/>
<path d="M242.058 117.894C243.86 117.894 245.32 116.433 245.32 114.632C245.32 112.83 243.86 111.369 242.058 111.369C240.256 111.369 238.796 112.83 238.796 114.632C238.796 116.433 240.256 117.894 242.058 117.894Z" fill="#4C8BAA"/>
<path d="M227.985 116.871C229.221 116.871 230.224 115.868 230.224 114.632C230.224 113.395 229.221 112.393 227.985 112.393C226.748 112.393 225.746 113.395 225.746 114.632C225.746 115.868 226.748 116.871 227.985 116.871Z" fill="#4C8BAA"/>
<path d="M213.848 117.446C215.403 117.446 216.663 116.186 216.663 114.632C216.663 113.077 215.403 111.817 213.848 111.817C212.294 111.817 211.034 113.077 211.034 114.632C211.034 116.186 212.294 117.446 213.848 117.446Z" fill="#4C8BAA"/>
<path d="M213.848 145.913C215.543 145.913 216.918 144.538 216.918 142.842C216.918 141.146 215.543 139.771 213.848 139.771C212.152 139.771 210.777 141.146 210.777 142.842C210.777 144.538 212.152 145.913 213.848 145.913Z" fill="#4C8BAA"/>
<path d="M227.985 145.913C229.681 145.913 231.055 144.538 231.055 142.842C231.055 141.146 229.681 139.771 227.985 139.771C226.289 139.771 224.915 141.146 224.915 142.842C224.915 144.538 226.289 145.913 227.985 145.913Z" fill="#4C8BAA"/>
<path d="M242.058 146.104C243.86 146.104 245.32 144.644 245.32 142.842C245.32 141.04 243.86 139.58 242.058 139.58C240.256 139.58 238.796 141.04 238.796 142.842C238.796 144.644 240.256 146.104 242.058 146.104Z" fill="#4C8BAA"/>
<path d="M256.195 145.081C257.431 145.081 258.434 144.078 258.434 142.842C258.434 141.605 257.431 140.603 256.195 140.603C254.958 140.603 253.956 141.605 253.956 142.842C253.956 144.078 254.958 145.081 256.195 145.081Z" fill="#4C8BAA"/>
<path d="M270.268 145.657C271.823 145.657 273.083 144.397 273.083 142.842C273.083 141.288 271.823 140.027 270.268 140.027C268.714 140.027 267.454 141.288 267.454 142.842C267.454 144.397 268.714 145.657 270.268 145.657Z" fill="#4C8BAA"/>
<path d="M284.405 144.953C285.571 144.953 286.516 144.008 286.516 142.842C286.516 141.676 285.571 140.731 284.405 140.731C283.239 140.731 282.294 141.676 282.294 142.842C282.294 144.008 283.239 144.953 284.405 144.953Z" fill="#4C8BAA"/>
<path d="M298.541 145.081C299.777 145.081 300.78 144.078 300.78 142.842C300.78 141.605 299.777 140.603 298.541 140.603C297.304 140.603 296.302 141.605 296.302 142.842C296.302 144.078 297.304 145.081 298.541 145.081Z" fill="#4C8BAA"/>
<path d="M312.615 146.232C314.487 146.232 316.005 144.714 316.005 142.842C316.005 140.97 314.487 139.452 312.615 139.452C310.742 139.452 309.225 140.97 309.225 142.842C309.225 144.714 310.742 146.232 312.615 146.232Z" fill="#4C8BAA"/>
<path d="M326.752 145.593C328.271 145.593 329.503 144.361 329.503 142.842C329.503 141.323 328.271 140.091 326.752 140.091C325.233 140.091 324.001 141.323 324.001 142.842C324.001 144.361 325.233 145.593 326.752 145.593Z" fill="#4C8BAA"/>
<path d="M340.825 146.04C342.592 146.04 344.024 144.608 344.024 142.842C344.024 141.076 342.592 139.644 340.825 139.644C339.059 139.644 337.627 141.076 337.627 142.842C337.627 144.608 339.059 146.04 340.825 146.04Z" fill="#4C8BAA"/>
<path d="M354.962 145.785C356.587 145.785 357.904 144.467 357.904 142.842C357.904 141.217 356.587 139.899 354.962 139.899C353.337 139.899 352.02 141.217 352.02 142.842C352.02 144.467 353.337 145.785 354.962 145.785Z" fill="#4C8BAA"/>
<path d="M369.036 145.593C370.556 145.593 371.787 144.361 371.787 142.842C371.787 141.323 370.556 140.091 369.036 140.091C367.517 140.091 366.286 141.323 366.286 142.842C366.286 144.361 367.517 145.593 369.036 145.593Z" fill="#4C8BAA"/>
<path d="M383.173 145.785C384.798 145.785 386.116 144.467 386.116 142.842C386.116 141.217 384.798 139.899 383.173 139.899C381.548 139.899 380.231 141.217 380.231 142.842C380.231 144.467 381.548 145.785 383.173 145.785Z" fill="#4C8BAA"/>
<path d="M397.31 144.249C398.087 144.249 398.717 143.619 398.717 142.842C398.717 142.065 398.087 141.435 397.31 141.435C396.533 141.435 395.902 142.065 395.902 142.842C395.902 143.619 396.533 144.249 397.31 144.249Z" fill="#4C8BAA"/>
<path d="M213.848 131.839C215.543 131.839 216.918 130.465 216.918 128.769C216.918 127.073 215.543 125.698 213.848 125.698C212.152 125.698 210.777 127.073 210.777 128.769C210.777 130.465 212.152 131.839 213.848 131.839Z" fill="#4C8BAA"/>
<path d="M227.985 131.839C229.681 131.839 231.055 130.465 231.055 128.769C231.055 127.073 229.681 125.698 227.985 125.698C226.289 125.698 224.915 127.073 224.915 128.769C224.915 130.465 226.289 131.839 227.985 131.839Z" fill="#4C8BAA"/>
<path d="M242.058 132.031C243.86 132.031 245.32 130.571 245.32 128.769C245.32 126.967 243.86 125.507 242.058 125.507C240.256 125.507 238.796 126.967 238.796 128.769C238.796 130.571 240.256 132.031 242.058 132.031Z" fill="#4C8BAA"/>
<path d="M256.195 131.008C257.431 131.008 258.434 130.005 258.434 128.769C258.434 127.532 257.431 126.53 256.195 126.53C254.958 126.53 253.956 127.532 253.956 128.769C253.956 130.005 254.958 131.008 256.195 131.008Z" fill="#4C8BAA"/>
<path d="M270.268 131.584C271.823 131.584 273.083 130.324 273.083 128.769C273.083 127.215 271.823 125.954 270.268 125.954C268.714 125.954 267.454 127.215 267.454 128.769C267.454 130.324 268.714 131.584 270.268 131.584Z" fill="#4C8BAA"/>
<path d="M284.405 130.88C285.571 130.88 286.516 129.935 286.516 128.769C286.516 127.603 285.571 126.658 284.405 126.658C283.239 126.658 282.294 127.603 282.294 128.769C282.294 129.935 283.239 130.88 284.405 130.88Z" fill="#4C8BAA"/>
<path d="M298.541 131.008C299.777 131.008 300.78 130.005 300.78 128.769C300.78 127.532 299.777 126.53 298.541 126.53C297.304 126.53 296.302 127.532 296.302 128.769C296.302 130.005 297.304 131.008 298.541 131.008Z" fill="#4C8BAA"/>
<path d="M312.615 132.159C314.487 132.159 316.005 130.641 316.005 128.769C316.005 126.896 314.487 125.378 312.615 125.378C310.742 125.378 309.225 126.896 309.225 128.769C309.225 130.641 310.742 132.159 312.615 132.159Z" fill="#4C8BAA"/>
<path d="M326.752 131.519C328.271 131.519 329.503 130.288 329.503 128.769C329.503 127.25 328.271 126.018 326.752 126.018C325.233 126.018 324.001 127.25 324.001 128.769C324.001 130.288 325.233 131.519 326.752 131.519Z" fill="#4C8BAA"/>
<path d="M340.825 131.967C342.592 131.967 344.024 130.535 344.024 128.769C344.024 127.003 342.592 125.571 340.825 125.571C339.059 125.571 337.627 127.003 337.627 128.769C337.627 130.535 339.059 131.967 340.825 131.967Z" fill="#4C8BAA"/>
<path d="M354.962 131.711C356.587 131.711 357.904 130.394 357.904 128.769C357.904 127.144 356.587 125.826 354.962 125.826C353.337 125.826 352.02 127.144 352.02 128.769C352.02 130.394 353.337 131.711 354.962 131.711Z" fill="#4C8BAA"/>
<path d="M369.036 131.519C370.556 131.519 371.787 130.288 371.787 128.769C371.787 127.25 370.556 126.018 369.036 126.018C367.517 126.018 366.286 127.25 366.286 128.769C366.286 130.288 367.517 131.519 369.036 131.519Z" fill="#4C8BAA"/>
<path d="M383.173 131.711C384.798 131.711 386.116 130.394 386.116 128.769C386.116 127.144 384.798 125.826 383.173 125.826C381.548 125.826 380.231 127.144 380.231 128.769C380.231 130.394 381.548 131.711 383.173 131.711Z" fill="#4C8BAA"/>
<path d="M397.31 130.176C398.087 130.176 398.717 129.546 398.717 128.769C398.717 127.992 398.087 127.362 397.31 127.362C396.533 127.362 395.902 127.992 395.902 128.769C395.902 129.546 396.533 130.176 397.31 130.176Z" fill="#4C8BAA"/>
</svg>
