<svg width="32" height="29" viewBox="0 0 32 29" fill="none" xmlns="http://www.w3.org/2000/svg">
<path d="M1.00216 13.5236C0.706151 13.3711 30.9999 0.353163 31 1.02517C31.0001 1.69717 26.6231 28.1875 26.4324 27.999C26.2417 27.8104 21.266 24.3497 17.9556 22.0114C15.6638 24.0928 12.0902 27.3572 12.0871 27.341C12.0704 27.4509 10.1001 21.3257 8.82684 17.4714C8.79641 17.4834 8.79024 17.4797 8.8066 17.4614C7.46294 16.7976 1.29665 13.6753 1.00216 13.5236Z" fill="#8BB4C8"/>
<path d="M13.3912 18.7874C14.0433 18.1294 25.1283 6.94387 25.7803 6.2859C26.4324 5.62792 7.96801 17.8103 8.82684 17.4714M13.3912 18.7874C12.882 22.1278 12.5964 24.0006 12.0871 27.341M13.3912 18.7874C15.1738 20.0465 16.1731 20.7524 17.9556 22.0114M8.82684 17.4714C10.1001 21.3257 12.0704 27.4509 12.0871 27.341M8.82684 17.4714C7.52615 16.8296 1.29816 13.6761 1.00216 13.5236C0.706151 13.3711 30.9999 0.353163 31 1.02517C31.0001 1.69717 26.6231 28.1875 26.4324 27.999C26.2417 27.8104 21.266 24.3497 17.9556 22.0114M12.0871 27.341C12.0902 27.3572 15.6638 24.0928 17.9556 22.0114" stroke="#1A1A1A" stroke-width="0.6"/>
</svg>
