<svg width="27" height="28" viewBox="0 0 27 28" fill="none" xmlns="http://www.w3.org/2000/svg">
<g clip-path="url(#clip0_641_31421)">
<path d="M0.304504 23.3107V5.35992C0.304504 5.27582 0.318715 5.18967 0.347136 5.10967L1.80676 0.849156C1.91841 0.525053 2.22902 0.307617 2.58022 0.307617H25.8794C26.3301 0.307617 26.6935 0.662489 26.6935 1.09941V16.402C26.6935 16.6051 26.6143 16.7979 26.4701 16.9456L19.7547 23.8522C19.6004 24.0102 19.3872 24.1004 19.1619 24.1004H14.5719C14.3567 24.1004 14.1476 24.1845 13.9953 24.3322L10.7777 27.4584C10.6254 27.6061 10.4183 27.6902 10.2011 27.6902H8.32441C7.87374 27.6902 7.51035 27.3353 7.51035 26.8984L7.5 25C7.5 24.5631 7.13459 24.2082 6.68594 24.2082L1.11856 24.1004C0.667888 24.1004 0.304504 23.7456 0.304504 23.3086V23.3107Z" fill="#8BB4C8" stroke="#1A1A1A" stroke-width="0.6" stroke-miterlimit="10"/>
<path d="M4.36466 18.6093V3.74978C4.36466 3.26362 4.77676 2.87183 5.28631 2.87183H23.3398C23.8493 2.87183 24.2614 3.26567 24.2614 3.74978V15.6923C24.2614 15.9262 24.164 16.1498 23.9914 16.3139L20.656 19.4954C20.4835 19.6595 20.25 19.7518 20.0044 19.7518H13.7517C13.5081 19.7518 13.2726 19.8441 13.1001 20.0082L11.0152 21.9959C10.4346 22.5498 9.44187 22.158 9.44187 21.3744V20.4923C9.44187 20.0205 9.0521 19.6349 8.55879 19.6144L5.24571 19.4831C4.7524 19.4646 4.36263 19.077 4.36263 18.6052L4.36466 18.6093Z" fill="#8BB4C8" stroke="#1A1A1A" stroke-width="0.6" stroke-miterlimit="10"/>
<path d="M12.9113 7.38452H11.4496C11.1805 7.38452 10.9624 7.60494 10.9624 7.87683V14.2768C10.9624 14.5487 11.1805 14.7691 11.4496 14.7691H12.9113C13.1804 14.7691 13.3985 14.5487 13.3985 14.2768V7.87683C13.3985 7.60494 13.1804 7.38452 12.9113 7.38452Z" fill="#F3EAD4" stroke="#1A1A1A" stroke-width="0.6" stroke-miterlimit="10"/>
<path d="M19.4075 7.38452H17.9459C17.6768 7.38452 17.4586 7.60494 17.4586 7.87683V14.2768C17.4586 14.5487 17.6768 14.7691 17.9459 14.7691H19.4075C19.6766 14.7691 19.8947 14.5487 19.8947 14.2768V7.87683C19.8947 7.60494 19.6766 7.38452 19.4075 7.38452Z" fill="#F3EAD4" stroke="#1A1A1A" stroke-width="0.6" stroke-miterlimit="10"/>
</g>
<defs>
<clipPath id="clip0_641_31421">
<rect width="27" height="28" fill="white"/>
</clipPath>
</defs>
</svg>
