<svg width="25" height="18" viewBox="0 0 25 18" fill="" xmlns="http://www.w3.org/2000/svg">
<path d="M22.0283 0.176514H2.67793C1.96798 0.177249 1.2873 0.463945 0.785258 0.973695C0.283214 1.48344 0.000807174 2.17461 0 2.89555V15.1045C0.000807023 15.8254 0.283171 16.5165 0.785147 17.0263C1.28712 17.536 1.96772 17.8228 2.67762 17.8236H22.028C22.7379 17.8228 23.4186 17.5361 23.9206 17.0264C24.4227 16.5166 24.7051 15.8255 24.7059 15.1045V2.89555C24.7051 2.17467 24.4227 1.48355 23.9207 0.973806C23.4188 0.464065 22.7382 0.177333 22.0283 0.176514ZM23.455 15.1045C23.4545 15.4886 23.3041 15.8569 23.0366 16.1285C22.7691 16.4001 22.4065 16.5529 22.0283 16.5533H2.67793C2.29963 16.5529 1.93692 16.4002 1.66939 16.1286C1.40186 15.857 1.25137 15.4887 1.25093 15.1045V2.89555C1.25137 2.51145 1.40182 2.14321 1.66928 1.87161C1.93674 1.60001 2.29937 1.44724 2.67762 1.44679H22.028C22.4063 1.44715 22.769 1.59989 23.0365 1.8715C23.304 2.14311 23.4545 2.5114 23.455 2.89555V15.1045ZM17.9075 7.93722L11.1791 3.99252C10.9954 3.88482 10.787 3.82813 10.5748 3.82814C10.3627 3.82815 10.1543 3.88486 9.9706 3.99257C9.78689 4.10028 9.63433 4.2552 9.52827 4.44176C9.4222 4.62831 9.36635 4.83993 9.36634 5.05534V12.9448C9.36555 13.1606 9.4209 13.3727 9.52679 13.5597C9.63267 13.7468 9.78534 13.9021 9.96933 14.0099C10.1533 14.1178 10.3621 14.1744 10.5746 14.174C10.787 14.1736 10.9956 14.1162 11.1792 14.0077L17.9076 10.063C18.0913 9.95522 18.2439 9.80029 18.3499 9.61373C18.456 9.42716 18.5118 9.21554 18.5118 9.00012C18.5118 8.78471 18.456 8.57308 18.3499 8.38652C18.2439 8.19996 18.0912 8.04495 17.9075 7.93722ZM10.6173 12.8703V5.12958L17.2185 9.00004L10.6173 12.8703Z" fill="#141414"/>
<path fill-rule="evenodd" clip-rule="evenodd" d="M23.455 15.1045C23.4545 15.4886 23.3041 15.8569 23.0366 16.1285C22.7691 16.4001 22.4065 16.5529 22.0283 16.5533H2.67793C2.29963 16.5529 1.93692 16.4002 1.66939 16.1286C1.40186 15.857 1.25137 15.4887 1.25093 15.1045V2.89555C1.25137 2.51145 1.40182 2.14321 1.66928 1.87161C1.93674 1.60001 2.29937 1.44724 2.67762 1.44679H22.028C22.4063 1.44715 22.769 1.59989 23.0365 1.8715C23.304 2.14311 23.4545 2.5114 23.455 2.89555V15.1045ZM11.1791 3.99252L17.9075 7.93722C18.0912 8.04495 18.2439 8.19996 18.3499 8.38652C18.456 8.57308 18.5118 8.78471 18.5118 9.00012C18.5118 9.21554 18.456 9.42716 18.3499 9.61373C18.2439 9.80029 18.0913 9.95522 17.9076 10.063L11.1792 14.0077C10.9956 14.1162 10.787 14.1736 10.5746 14.174C10.3621 14.1744 10.1533 14.1178 9.96933 14.0099C9.78534 13.9021 9.63267 13.7468 9.52679 13.5597C9.4209 13.3727 9.36555 13.1606 9.36634 12.9448V5.05534C9.36635 4.83993 9.4222 4.62831 9.52827 4.44176C9.63433 4.2552 9.78689 4.10028 9.9706 3.99257C10.1543 3.88486 10.3627 3.82815 10.5748 3.82814C10.787 3.82813 10.9954 3.88482 11.1791 3.99252Z" fill="#F3EAD4"/>
</svg>
