<svg width="118" height="133" viewBox="0 0 118 133" fill="none" xmlns="http://www.w3.org/2000/svg">
<path d="M51.6835 133C58.2287 133 64.56 131.503 69.5224 128.808C76.1104 125.214 80.1317 119.61 81.1584 112.594L81.2866 111.525L85.4363 109.429C87.7036 108.317 88.9869 105.835 88.6019 103.354C88.2169 100.83 86.2917 98.8624 83.8106 98.4346L82.8695 98.2634L83.8534 90.221L92.8798 85.0019C95.1043 83.7186 96.2166 81.1519 95.6604 78.6707C95.1043 76.1467 93.0081 74.35 90.4413 74.1361L85.8213 73.7511L86.8051 65.5803C94.8048 64.4253 99.2111 62.8852 100.195 62.5002L100.494 62.4146L100.751 62.2863L100.837 62.2435L101.008 62.1152H101.051C113.114 55.4844 116.579 48.7681 117.521 45.3458C118.333 42.5224 118.119 39.7417 116.879 37.6028C113.414 31.4426 104.943 28.063 89.4147 26.6085C87.5324 26.4374 85.5645 26.3519 83.5538 26.3519C82.0994 26.3519 80.6449 26.3947 79.1049 26.4802C78.506 22.3307 78.1211 19.3361 77.95 17.7105C77.0516 9.49696 71.4475 0.812791 62.4639 0.0427686C62.0788 -1.04447e-05 61.6511 0 61.2661 0C52.2398 0 45.9512 8.47024 43.8978 14.1599C43.3417 15.6999 41.8872 19.6783 39.8338 25.3252C35.9409 25.0685 30.2084 24.7263 25.3744 24.6407C25.0321 24.6407 24.6899 24.6407 24.3477 24.6407C14.7224 24.6407 7.36455 26.7369 3.08665 30.7154C0.819359 32.8115 -0.25016 35.5066 0.0492935 38.2445C0.0492935 38.33 0.0921097 38.4156 0.0921097 38.5439C-0.2929 45.0035 1.33262 50.4365 4.92606 54.6288C8.26283 58.5217 13.1825 61.174 19.3427 62.4146C19.471 63.7408 19.6848 65.5375 19.8987 67.6337C18.3159 70.4143 17.5031 73.5372 17.5887 76.7884C17.6742 81.1091 19.2571 85.1303 22.0805 88.3387C22.3372 90.7771 22.5937 93.0444 22.8076 95.1406L21.2249 95.1834C18.6154 95.2689 16.4336 97.0229 15.7919 99.5468C15.1502 102.071 16.1769 104.68 18.4015 106.049L24.4762 109.771C24.6045 110.755 24.6899 111.525 24.7755 112.167C25.6311 118.669 28.9251 124.102 34.1869 127.909C39.0209 131.203 45.0527 133 51.6835 133Z" fill="#F3EAD4"/>
<path d="M51.6834 127.182C61.0093 127.182 73.672 123.375 75.3404 111.782L81.8 58.0083C81.5434 45.1746 67.7256 34.9932 54.9347 35.2499L53.3092 35.2926C40.5182 35.5493 24.7327 46.2441 24.9894 59.0778C24.9894 59.0778 29.4385 102.327 30.6363 111.311C32.048 121.492 41.0315 127.182 51.6834 127.182Z" fill="#6FA467"/>
<path d="M51.6835 127.866C61.8649 127.866 74.3564 123.674 76.0675 111.867L82.5272 58.0509C82.5272 58.0081 82.5272 57.9653 82.5272 57.9653C82.3989 51.7196 79.2332 45.7305 73.5436 41.1532C68.1962 36.8325 61.3944 34.3941 54.9347 34.5224L53.3092 34.5652C46.8068 34.6936 39.5344 37.4314 33.8448 41.8804C27.5562 46.8 24.1766 52.9174 24.3049 59.0776V59.1203C24.3477 59.5481 28.754 102.498 29.9518 111.354C30.6363 116.444 33.1603 120.679 37.2671 123.631C41.16 126.412 46.1222 127.866 51.6835 127.866ZM81.1156 57.9653L74.6559 111.696C73.0731 122.605 61.3088 126.455 51.6835 126.455C40.6037 126.455 32.604 120.465 31.3634 111.182C30.1656 102.413 25.8451 60.361 25.7167 58.992C25.6312 53.2597 28.7968 47.6128 34.7003 42.9927C40.1761 38.7148 47.149 36.1052 53.3092 35.9769L54.9347 35.9341C66.8273 35.7202 80.8161 45.26 81.1156 57.9653Z" fill="#141414"/>
<path d="M77.4793 78.8843L89.9707 79.9538L77.3509 87.2262" fill="#6FA467"/>
<path d="M77.351 87.9535C77.4793 87.9535 77.6078 87.9107 77.6934 87.8679L90.2704 80.5955C90.527 80.4244 90.6981 80.1249 90.6125 79.8254C90.5269 79.526 90.2703 79.3121 89.9708 79.2694L77.4795 78.1999C77.0944 78.1571 76.7521 78.4566 76.7093 78.8416C76.6665 79.2266 76.966 79.5688 77.351 79.6116L87.5754 80.4671L76.966 86.5846C76.6238 86.7985 76.4954 87.2262 76.7093 87.5684C76.8804 87.8251 77.1371 87.9535 77.351 87.9535Z" fill="#141414"/>
<path d="M71.9181 102.37L82.8268 104.21L72.0036 109.6" fill="#6FA467"/>
<path d="M72.0034 110.327C72.1318 110.327 72.2174 110.284 72.303 110.241L83.126 104.851C83.4254 104.723 83.5539 104.423 83.5112 104.124C83.4684 103.825 83.2115 103.568 82.9121 103.525L71.9608 101.643C71.5758 101.557 71.1906 101.857 71.1478 102.242C71.0623 102.627 71.3619 103.012 71.7469 103.054L80.5166 104.552L71.6613 108.958C71.319 109.129 71.148 109.557 71.3191 109.942C71.4902 110.199 71.7467 110.327 72.0034 110.327Z" fill="#141414"/>
<path d="M32.7754 107.846L21.5244 100.959L34.4866 100.488" fill="#6FA467"/>
<path d="M32.7753 108.53C33.0319 108.53 33.2458 108.402 33.3741 108.188C33.588 107.846 33.4596 107.418 33.1174 107.204L23.9199 101.6L34.4864 101.215C34.8714 101.215 35.2137 100.873 35.1709 100.488C35.1709 100.103 34.8286 99.7607 34.4436 99.8034L21.4816 100.274C21.1822 100.274 20.8827 100.488 20.7971 100.83C20.7116 101.13 20.8398 101.472 21.0965 101.643L32.3475 108.488C32.5186 108.53 32.6469 108.53 32.7753 108.53Z" fill="#141414"/>
<path d="M35.5558 88.3812C28.9169 88.3812 23.5349 82.9992 23.5349 76.3603C23.5349 69.7213 28.9169 64.3394 35.5558 64.3394C42.1948 64.3394 47.5768 69.7213 47.5768 76.3603C47.5768 82.9992 42.1948 88.3812 35.5558 88.3812Z" fill="#F3EAD4"/>
<path d="M35.5559 89.1512C35.6414 89.1512 35.727 89.1512 35.8126 89.1512C42.8284 89.0229 48.4751 83.2049 48.304 76.1464C48.1756 69.1306 42.3577 63.4838 35.2992 63.6549C31.8768 63.6977 28.7112 65.1094 26.3584 67.5478C24.0055 69.9862 22.722 73.2374 22.8076 76.6169C22.9359 83.5471 28.6257 89.1512 35.5559 89.1512ZM35.5559 65.0666C41.7161 65.0666 46.7639 69.9862 46.8495 76.1891C46.9778 82.4349 41.9727 87.6112 35.727 87.6967C29.4812 87.8251 24.305 82.8199 24.2194 76.5742C24.1767 73.5369 25.2889 70.6706 27.385 68.5317C29.4812 66.3499 32.3047 65.1094 35.342 65.0666C35.4275 65.0666 35.4703 65.0666 35.5559 65.0666Z" fill="#141414"/>
<path d="M36.8822 78.4566C37.9089 78.6278 38.8499 77.9861 39.0638 76.9594C39.2349 75.9327 38.5932 74.9916 37.5665 74.7777L29.6524 72.4676C29.5241 72.4248 29.4386 72.2537 29.5242 72.1253C31.0214 69.7725 33.7165 68.2325 36.7966 68.4036C40.5184 68.6602 43.6413 71.5692 44.1547 75.291C44.7536 80.0822 41.1173 84.189 36.4116 84.2746C32.476 84.3601 29.1391 81.5367 28.4547 77.7722C28.4119 77.6439 28.5403 77.4727 28.7114 77.5155L36.8822 78.4566Z" fill="#141414"/>
<path d="M37.1814 68.8314C43.6839 70.2431 45.3095 70.842 46.165 71.0131C45.1811 67.8475 41.4594 65.5802 38.0798 64.7674C34.2725 63.8262 30.2513 64.7246 28.0268 66.9919C29.3529 67.2485 33.8447 68.1469 37.1814 68.8314Z" fill="#A6CC9E"/>
<path d="M46.165 71.7404C46.3789 71.7404 46.5502 71.6548 46.7213 71.4837C46.8924 71.3126 46.9351 71.0131 46.8495 70.7992C45.7801 67.3341 41.7588 64.9385 38.2509 64.0401C34.1869 63.0134 29.9517 63.9974 27.5133 66.4786C27.3422 66.6497 27.2567 66.9491 27.3422 67.2058C27.4278 67.4625 27.6418 67.6336 27.8985 67.7192C29.2247 67.9758 33.7164 68.8742 37.0532 69.5586C41.5022 70.4998 43.6838 71.0987 44.8388 71.4409C45.395 71.612 45.7801 71.6976 46.0796 71.7404C46.0796 71.7404 46.1222 71.7404 46.165 71.7404ZM35.0853 65.1096C36.0264 65.1096 37.0104 65.238 37.9516 65.4519C40.5611 66.0935 43.5128 67.6764 44.9245 69.9437C43.6839 69.6014 41.5021 69.0453 37.3525 68.147C34.8713 67.5908 31.6629 66.9919 29.6951 66.5641C31.1496 65.623 33.0319 65.1096 35.0853 65.1096Z" fill="#141414"/>
<path d="M60.496 92.8733C60.496 92.8733 59.2555 98.1351 55.2342 100.274C49.8869 103.14 45.5233 99.9318 45.5233 99.9318" fill="#6FA467"/>
<path d="M50.6568 102.199C52.1113 102.199 53.8225 101.857 55.5764 100.915C59.8543 98.6482 61.1378 93.258 61.1805 93.0441C61.2661 92.6591 61.0095 92.2741 60.6245 92.1885C60.2395 92.103 59.8545 92.3169 59.7689 92.7447C59.7689 92.7874 58.5709 97.707 54.8919 99.6748C50.0579 102.284 46.1223 99.5037 45.9511 99.4182C45.6089 99.2043 45.1812 99.2471 44.9673 99.5893C44.7534 99.9315 44.7962 100.359 45.1384 100.573C45.2667 100.659 47.4912 102.199 50.6568 102.199Z" fill="#141414"/>
<path d="M51.6834 74.2645C51.6834 78.6707 56.3037 80.3819 60.7955 80.3819C65.5012 80.3819 69.3513 77.7296 69.3513 74.0078C68.0679 74.0506 52.5818 74.2645 51.6834 74.2645Z" fill="#6FA467"/>
<path d="M60.7956 81.1518C63.7473 81.1518 66.4423 80.1679 68.1963 78.414C69.4368 77.1734 70.0785 75.6761 70.0785 74.0505C70.0785 73.8793 69.9929 73.6655 69.8646 73.5371C69.7363 73.4088 69.5225 73.3232 69.3514 73.3232C68.2391 73.3232 52.7102 73.5799 51.6835 73.5799C51.2985 73.5799 50.9564 73.9221 50.9564 74.3071C50.9564 79.3551 56.261 81.1518 60.7956 81.1518ZM68.5812 74.7777C68.4101 75.7617 67.9396 76.66 67.1696 77.3873C65.7151 78.8417 63.3623 79.6973 60.7956 79.6973C56.9882 79.6973 52.9242 78.4567 52.4537 74.9916C55.4054 74.9489 65.5439 74.8205 68.5812 74.7777Z" fill="#141414"/>
<path d="M70.8915 74.1359C70.8915 69.0452 65.5013 67.1201 60.1967 67.1201C54.6782 67.1201 50.1436 70.2002 50.1436 74.4781C50.8709 74.4781 54.4642 75.8471 60.496 75.8471C66.8701 75.8043 70.3354 74.1359 70.8915 74.1359Z" fill="#A6CC9E"/>
<path d="M60.4961 76.5315C65.544 76.5315 68.8807 75.462 70.2924 75.0342C70.5491 74.9487 70.8059 74.8631 70.8915 74.8631C71.2765 74.8631 71.5758 74.5209 71.5758 74.1359C71.5758 68.4035 65.4586 66.3928 60.1967 66.3928C54.1649 66.3928 49.4592 69.9435 49.4592 74.4353C49.4592 74.6492 49.5447 74.8203 49.6731 74.9486C49.8014 75.077 50.0152 75.1625 50.1863 75.1625C50.3146 75.1625 50.7425 75.2909 51.1703 75.3764C52.8815 75.8042 56.0043 76.5315 60.4961 76.5315ZM70.1214 73.5797C70.0358 73.6225 69.9502 73.6225 69.8646 73.6653C68.4957 74.093 65.3301 75.1198 60.4961 75.1198C56.1754 75.1198 53.1381 74.3925 51.5125 74.0075C51.2986 73.9647 51.0847 73.9219 50.9136 73.8792C51.3414 70.4568 55.2772 67.8473 60.1967 67.8473C64.8169 67.8045 69.7363 69.3446 70.1214 73.5797Z" fill="#141414"/>
<path d="M81.1585 50.7785C81.1585 50.7785 71.6187 47.9551 60.7956 49.709C53.0954 50.9496 49.1597 52.7464 46.8924 54.7142C51.5553 53.8586 57.2022 52.5325 63.8329 52.7891C77.6078 53.3453 81.5006 60.9599 81.5006 60.9599L81.1585 50.7785Z" fill="#141414"/>
<path d="M39.406 43.7626C39.406 43.7626 47.8335 20.7047 49.4591 16.1273C51.0847 11.5499 56.1326 5.3898 61.9933 5.90315C67.8968 6.4165 71.5331 12.5767 72.1748 18.3946C72.8165 24.1698 75.6398 43.0353 75.6398 43.0353L39.406 43.7626Z" fill="#8BB4C8"/>
<path d="M39.406 44.4473L75.6826 43.6344C75.8965 43.6344 76.0677 43.5489 76.196 43.3778C76.3243 43.2067 76.3671 42.9928 76.3671 42.8216C76.3243 42.6505 73.5008 23.9561 72.9019 18.2237C72.2602 12.1063 68.3246 5.64668 62.0789 5.09055C55.7476 4.53442 50.4857 11.0368 48.7746 15.8281C47.149 20.3627 38.8071 43.2494 38.7215 43.4633C38.6359 43.6772 38.6788 43.9339 38.8071 44.1478C38.9783 44.3617 39.1921 44.4473 39.406 44.4473ZM74.8698 42.2227L40.4755 42.9928C42.1011 38.5437 48.7317 20.3199 50.1862 16.3414C51.7263 11.9779 56.432 6.07447 61.9933 6.58781C67.469 7.05838 70.9342 12.8763 71.5331 18.4376C72.0465 23.4427 74.3137 38.5865 74.8698 42.2227Z" fill="#141414"/>
<path d="M43.8978 31.4425L40.7322 41.3672C40.7322 41.3672 32.6898 45.3457 21.0539 44.4474C14.5087 43.934 11.5569 42.6506 10.3591 41.8806C9.16129 41.1106 3.4715 38.3727 7.19328 34.9504C10.145 32.2125 16.1769 30.3302 25.4172 30.4586C33.3313 30.5441 43.8978 31.4425 43.8978 31.4425Z" fill="#4C8BAA"/>
<path d="M24.5616 45.2601C34.3152 45.2601 40.7321 42.1372 41.0316 41.9661C41.2027 41.8805 41.331 41.7094 41.4165 41.5383L44.5823 31.6136C44.6679 31.3997 44.625 31.1858 44.4967 31.0147C44.3684 30.8436 44.1973 30.7152 43.9407 30.7152C43.8551 30.7152 33.2457 29.8169 25.3744 29.6885C16.6902 29.5602 10.0596 31.2286 6.68007 34.3942C5.6106 35.4209 5.09729 36.4904 5.22562 37.6027C5.4823 39.8699 8.21999 41.4527 9.54614 42.2228C9.71726 42.3083 9.8456 42.3939 9.97393 42.4795C11.1717 43.2495 14.2091 44.6184 20.9682 45.1318C22.2516 45.2173 23.4494 45.2601 24.5616 45.2601ZM40.1332 40.8111C38.6359 41.4528 31.2351 44.4901 21.0965 43.6773C14.3802 43.1639 11.6424 41.795 10.7441 41.2389C10.6157 41.1533 10.4874 41.0678 10.2735 40.9822C9.24677 40.3833 6.85119 38.9716 6.68007 37.4315C6.59451 36.7898 6.93666 36.1482 7.66391 35.4637C9.46062 33.7953 14.1663 30.9719 25.3744 31.143C31.8768 31.2286 40.2187 31.8703 42.9138 32.0841L40.1332 40.8111Z" fill="#141414"/>
<path d="M88.9442 32.4263C101.992 33.6241 109.393 36.148 111.831 40.4259C113.2 42.8643 110.975 49.9229 98.2273 56.9386C96.9439 55.6125 91.1688 52.7035 83.4685 52.0618C56.4322 49.8801 39.7056 58.222 25.118 57.1525C17.2038 56.5964 4.75514 53.3452 6.08129 38.0303C6.08129 38.0303 8.00626 42.2654 19.2572 44.1905C36.3688 47.2278 62.3784 29.9451 88.9442 32.4263Z" fill="#8BB4C8"/>
<path d="M27.77 58.0081C33.1602 58.0081 38.8926 56.9386 45.3522 55.7408C55.8759 53.773 67.8112 51.5484 83.4256 52.8318C90.7836 53.4307 96.4731 56.2114 97.7137 57.4947C97.9276 57.7086 98.2699 57.7942 98.5693 57.623C109.435 51.634 112.002 46.0727 112.601 43.9338C113.029 42.4365 112.986 41.0676 112.43 40.1265C109.906 35.6774 102.462 32.9823 88.9869 31.7417C74.7414 30.4156 60.5815 34.7363 48.0472 38.5436C36.8391 41.9659 27.1712 44.9177 19.3427 43.5488C8.73345 41.7093 6.72279 37.8164 6.68002 37.7736C6.55168 37.4742 6.20932 37.303 5.90987 37.3886C5.61041 37.4314 5.35378 37.688 5.311 38.0303C4.84044 43.4632 6.03838 47.8694 8.86179 51.2062C13.0541 56.083 19.9415 57.5803 25.0322 57.9225C25.9733 57.9653 26.8716 58.0081 27.77 58.0081ZM74.3137 50.9923C62.8489 50.9923 53.5229 52.7463 45.0527 54.3291C37.6091 55.698 31.1923 56.8958 25.1604 56.468C20.3692 56.1258 13.8668 54.7569 10.0167 50.2651C7.74941 47.6128 6.63728 44.1905 6.72284 39.9553C8.34844 41.4526 11.8563 43.6771 19.1288 44.9605C27.3423 46.3722 37.1386 43.3777 48.5178 39.9126C60.881 36.148 74.9125 31.8701 88.9012 33.1535C101.863 34.3513 108.965 36.7897 111.232 40.8109C111.574 41.4098 111.574 42.3937 111.275 43.506C110.719 45.431 108.366 50.479 98.3554 56.083C96.3876 54.543 90.7835 51.9762 83.5538 51.3773C80.3026 51.1206 77.2655 50.9923 74.3137 50.9923Z" fill="#141414"/>
<path d="M81.6288 60.2755C92.7513 59.1205 98.2272 56.9815 98.2272 56.9815C98.2272 56.9815 91.0402 51.9336 80.5593 51.8909C81.6288 54.5004 81.7143 58.0083 81.6288 60.2755Z" fill="#6FA467"/>
<path d="M81.6288 61.0028C81.6716 61.0028 81.6717 61.0028 81.7145 61.0028C92.837 59.8477 98.2699 57.7516 98.5266 57.666C98.7832 57.5805 98.9543 57.3238 98.9543 57.0671C98.9543 56.8104 98.8689 56.5538 98.655 56.3826C98.3556 56.1688 91.1686 51.2064 80.5594 51.1636C80.3027 51.1636 80.0888 51.2919 79.9605 51.4631C79.8322 51.677 79.7895 51.9336 79.8751 52.1475C80.9445 54.757 80.9445 58.3077 80.8589 60.2328C80.8589 60.4467 80.9445 60.6605 81.0728 60.7889C81.2439 60.9172 81.4149 61.0028 81.6288 61.0028ZM96.5161 56.7676C94.3343 57.4521 89.5858 58.6499 82.3562 59.4627C82.3989 57.4093 82.2707 54.8426 81.5862 52.6181C88.6875 52.8747 94.1632 55.4415 96.5161 56.7676Z" fill="#141414"/>
</svg>
