<svg width="110" height="127" viewBox="0 0 110 127" fill="none" xmlns="http://www.w3.org/2000/svg">
<path d="M59.1587 126.015C71.1764 125.005 83.7557 116.85 85.3281 104.693L91.4307 99.1568C93.7144 97.0994 93.8266 93.3961 91.1311 91.2265C89.8207 90.1417 88.2108 89.8798 86.4138 90.4035C86.0394 90.5158 85.5528 90.628 85.5528 89.8424L85.6277 71.5505C85.6277 70.6153 86.0395 69.7549 86.7509 69.1938L96.1853 61.5629C98.0946 60.0292 98.6562 57.3358 97.5331 55.1662C96.6346 53.4455 94.875 52.3981 92.9282 52.3607C91.6553 52.3607 91.8424 51.3881 93.4148 50.5652C95.4365 49.5552 97.6829 48.246 99.2928 46.7871C106.256 40.5402 110 34.8168 110 27.2606C110 18.9189 101.876 16.263 93.7143 16.263C85.3655 16.263 76.8295 18.2456 71.6256 19.9289C70.5773 20.2656 69.4169 19.7419 68.9676 18.7319C67.6573 15.7768 66.7212 13.6072 66.197 12.3353C63.7261 6.23799 57.8483 0.103271 50.3232 0.103271C49.4246 0.103271 35.7971 1.07582 34.674 17.8341C34.5991 19.1808 34.3744 22.3978 34 27.1858C33.8877 28.5699 32.8769 29.7295 31.4917 29.9914C24.5282 31.3006 6.7075 35.0039 1.20405 44.0564C-2.53979 50.266 3.11337 61.0765 9.02864 65.0416C11.9863 66.9868 15.5428 68.1464 19.5862 68.4083C20.5221 68.4831 21.2336 69.3434 21.0089 70.2786C20.5597 72.1115 20.4474 74.0193 20.672 75.8896C21.0839 79.6303 22.7311 83.1092 25.3144 85.8025C25.9883 86.5132 26.4376 87.411 26.6622 88.3462C27.074 90.2913 27.3734 91.9373 27.7104 93.6206C27.935 94.668 27.3734 95.3787 25.3891 95.5657C22.9182 95.7902 21.3084 97.5482 20.934 99.8301C20.5596 102.112 21.6828 104.319 23.7419 105.329L28.1597 107.536C29.6198 108.284 30.743 109.556 31.342 111.09C32.877 115.167 36.0591 118.833 40.5892 121.564C49.2375 126.8 57.9606 126.127 59.1587 126.015Z" fill="#F3EAD4"/>
<path d="M58.709 120.89C68.2558 120.104 80.3111 113.259 80.3111 102.187L80.4983 52.5101C79.1879 40.1284 64.9613 31.5249 52.6067 32.8341L51.0342 32.9837C38.6795 34.293 24.3781 45.964 25.7259 58.3457C25.7259 58.3457 34.1496 98.7452 35.6471 107.386C37.1821 116.065 49.1622 121.676 58.709 120.89Z" fill="#6FA467"/>
<path d="M56.8744 121.638C57.5108 121.638 58.1473 121.601 58.7838 121.563C69.4537 120.666 80.9847 113.035 80.9847 102.187L81.1719 52.5101C81.1719 52.4727 81.1719 52.4727 81.1719 52.4353C80.5354 46.4128 76.9413 40.914 71.0635 36.9862C65.5226 33.2456 58.7837 31.5249 52.5315 32.1608L50.9592 32.3104C44.7069 32.9837 37.8931 36.2381 32.8015 41.0262C27.1858 46.3006 24.4152 52.4727 25.0517 58.4204C25.0517 58.4578 25.0517 58.4578 25.0517 58.4952C25.1266 58.9067 33.5128 99.007 34.9729 107.536C36.4704 115.99 47.3276 121.638 56.8744 121.638ZM79.8615 52.5476L79.6743 102.187C79.6743 113.296 67.1699 119.506 58.7088 120.217C58.1472 120.254 57.5484 120.292 56.9868 120.292C48.1513 120.292 37.706 115.017 36.3956 107.311C34.9355 98.8573 26.7365 59.6175 26.4745 58.2708C25.239 46.5625 39.0163 34.9663 51.1838 33.6945L52.7561 33.5448C58.6714 32.9089 65.1109 34.5922 70.3897 38.1459C75.8557 41.8118 79.2251 46.9365 79.8615 52.5476Z" fill="#141414"/>
<path d="M78.7752 61.5628L92.927 57.5977L77.5398 70.0542" fill="#6FA467"/>
<path d="M77.5404 70.7274C77.6901 70.7274 77.8399 70.69 77.9522 70.5777L93.3393 58.1212C93.6013 57.9342 93.6762 57.5601 93.5265 57.2983C93.3767 56.999 93.0399 56.8868 92.7404 56.9617L78.626 60.9267C78.2516 61.039 78.0644 61.4131 78.1767 61.7498C78.289 62.1238 78.6635 62.3108 79.0004 62.1986L90.0073 59.1313L77.1285 69.5678C76.829 69.7922 76.7916 70.2411 77.0163 70.5029C77.1286 70.6526 77.3532 70.7274 77.5404 70.7274Z" fill="#141414"/>
<path d="M73.1229 99.9797L87.9111 95.3787L76.4176 105.815" fill="#6FA467"/>
<path d="M76.4177 106.489C76.5674 106.489 76.7545 106.414 76.8668 106.301L88.3605 95.865C88.5851 95.6405 88.66 95.3039 88.5102 95.042C88.3605 94.7802 88.0235 94.6306 87.724 94.7428L72.8985 99.3812C72.5616 99.4934 72.3368 99.8675 72.4492 100.204C72.5615 100.541 72.9359 100.765 73.2729 100.653L85.1782 96.9497L75.9309 105.329C75.6688 105.591 75.6315 106.002 75.8936 106.264C76.0808 106.414 76.2679 106.489 76.4177 106.489Z" fill="#141414"/>
<path d="M37.4818 106.451L26.0631 100.765L38.53 99.2317" fill="#6FA467"/>
<path d="M37.4814 107.124C37.7435 107.124 37.9681 106.975 38.0804 106.75C38.2302 106.414 38.1178 106.002 37.7808 105.853L28.3465 101.177L38.6045 99.9049C38.9789 99.8675 39.241 99.5309 39.2036 99.1568C39.1662 98.7827 38.8292 98.5208 38.4548 98.5582L25.9877 100.092C25.6882 100.129 25.4636 100.354 25.4261 100.653C25.3887 100.952 25.5385 101.252 25.8005 101.364L37.2193 107.012C37.2941 107.087 37.3691 107.124 37.4814 107.124Z" fill="#141414"/>
<path d="M60.8808 85.8021C54.4297 85.8021 49.2 80.5768 49.2 74.1311C49.2 67.6855 54.4297 62.4602 60.8808 62.4602C67.332 62.4602 72.5615 67.6855 72.5615 74.1311C72.5615 80.5768 67.332 85.8021 60.8808 85.8021Z" fill="#F3EAD4"/>
<path d="M60.8434 86.4757C61.2926 86.4757 61.7419 86.4383 62.1912 86.4009C68.9675 85.6902 73.8719 79.5929 73.1606 72.8222C72.4492 66.0516 66.3468 61.1512 59.5705 61.862C52.7941 62.5727 47.8896 68.67 48.6009 75.4407C48.9379 78.7325 50.5477 81.6503 53.131 83.7077C55.3399 85.5032 58.0355 86.4757 60.8434 86.4757ZM60.8808 63.1338C66.4217 63.1338 71.2137 67.3234 71.8127 72.9344C72.4492 78.957 68.069 84.381 62.0415 85.0169C59.1213 85.3162 56.2385 84.4932 53.9547 82.6602C51.671 80.8273 50.2482 78.2088 49.9113 75.2911C49.2748 69.2686 53.6551 63.8446 59.6827 63.2086C60.0946 63.1712 60.5064 63.1338 60.8808 63.1338Z" fill="#141414"/>
<path d="M37.4074 85.8774C30.9563 85.8774 25.7267 80.652 25.7267 74.2063C25.7267 67.7606 30.9563 62.5354 37.4074 62.5354C43.8585 62.5354 49.0883 67.7606 49.0883 74.2063C49.0883 80.652 43.8585 85.8774 37.4074 85.8774Z" fill="#F3EAD4"/>
<path d="M37.4073 86.5131C37.8565 86.5131 38.2683 86.4757 38.7176 86.4383C45.494 85.7276 50.3985 79.6303 49.6872 72.8596C49.3502 69.5678 47.7403 66.65 45.1571 64.5926C42.5738 62.5353 39.3915 61.5627 36.0969 61.9368C32.8023 62.2735 29.8821 63.8819 27.823 66.463C25.7639 69.0441 24.7906 72.2236 25.165 75.5154C25.8389 81.8372 31.1925 86.5131 37.4073 86.5131ZM37.4447 63.2086C39.9531 63.2086 42.3491 64.069 44.3334 65.6401C46.6171 67.473 48.0399 70.0915 48.3768 73.0092C49.0133 79.0317 44.633 84.4557 38.6054 85.0917C32.5778 85.7276 27.1491 81.3509 26.5126 75.3284C25.8762 69.3059 30.2565 63.882 36.2841 63.246C36.6585 63.246 37.0329 63.2086 37.4447 63.2086Z" fill="#141414"/>
<path d="M64.5127 76.1138C65.5609 76.0015 66.3098 74.9915 66.0852 73.9441C65.898 73.009 64.962 72.4478 64.026 72.5227L55.4902 73.4205C55.4153 73.4205 55.3403 73.3456 55.3403 73.2708C55.6398 69.4553 58.7473 66.3131 62.7906 66.2009C66.6468 66.0887 70.0911 68.9691 70.6527 72.7846C71.2892 77.1238 68.1817 81.0889 63.8388 81.5752C60.5068 81.9493 57.4369 80.0789 56.0517 77.236C56.0143 77.1612 56.0517 77.0489 56.164 77.0489L64.5127 76.1138Z" fill="#141414"/>
<path d="M41.1887 76.2265C42.237 76.1143 42.9859 75.1043 42.7612 74.0569C42.574 73.1217 41.6381 72.5606 40.7021 72.6354L31.8666 73.5706C31.7917 73.5706 31.7168 73.5332 31.7542 73.4584C32.0163 69.6055 35.1238 66.4259 39.1671 66.2763C43.0233 66.1266 46.4676 69.0444 47.0292 72.8599C47.6656 77.1991 44.5582 81.1642 40.2153 81.6505C36.8833 82.0246 33.8509 80.1917 32.4657 77.3487C32.4282 77.2739 32.4656 77.1991 32.5779 77.1991L41.1887 76.2265Z" fill="#141414"/>
<path d="M60.2075 66.7249C66.6095 66.0516 68.4441 66.2386 69.3052 66.089C67.0589 63.4705 62.9407 62.1987 59.6087 62.5353C55.7525 62.9468 52.4204 65.4157 51.1101 67.6975C52.4204 67.5479 56.9504 67.0615 60.2075 66.7249Z" fill="#FC9B59"/>
<path d="M51.1466 68.3708C51.184 68.3708 51.2214 68.3708 51.2214 68.3708C52.1573 68.2586 54.8154 67.9593 57.3987 67.6974L60.2815 67.3982C64.7367 66.9119 66.983 66.8745 68.1811 66.8371C68.7426 66.8371 69.117 66.7997 69.4165 66.7623C69.6785 66.7249 69.8657 66.5752 69.9406 66.3508C70.0154 66.1263 69.9781 65.8645 69.8283 65.6775C67.582 63.059 63.3515 61.4879 59.5328 61.8994C55.2273 62.3482 51.8578 65.0789 50.5101 67.3982C50.3977 67.6226 50.3978 67.8845 50.5475 68.1089C50.6973 68.2586 50.922 68.3708 51.1466 68.3708ZM60.1318 66.0516L57.2865 66.3508C55.5643 66.5378 53.8421 66.7248 52.5692 66.8371C54.0667 65.1163 56.7248 63.5078 59.6825 63.1712C62.4904 62.8719 65.5977 63.8071 67.6943 65.453C66.4214 65.5278 64.1377 65.6401 60.1318 66.0516Z" fill="#141414"/>
<path d="M38.3427 66.7994C44.7447 67.585 46.3546 68.0338 47.2157 68.146C45.9802 65.1909 42.1988 63.3205 38.8668 62.7968C35.0855 62.1983 31.3043 63.3953 29.32 65.7894C30.6678 65.9016 35.0856 66.3879 38.3427 66.7994Z" fill="#FC9B59"/>
<path d="M47.2156 68.7823C47.4402 68.7823 47.6273 68.6701 47.7397 68.5205C47.8894 68.3334 47.9269 68.0716 47.8146 67.8471C46.4668 64.6301 42.386 62.6102 38.9791 62.0865C34.9732 61.4506 30.9672 62.7224 28.8332 65.3409C28.6835 65.5279 28.6461 65.7898 28.721 66.0142C28.8333 66.2387 29.0205 66.3883 29.2826 66.4257C30.5929 66.5754 35.0107 67.0242 38.2678 67.4357C42.6481 67.9968 44.7821 68.3709 45.9427 68.5579C46.5043 68.6701 46.8411 68.7075 47.1781 68.7449C47.1781 68.7823 47.1781 68.7823 47.2156 68.7823ZM36.9947 63.3209C37.5938 63.3209 38.1929 63.3583 38.7544 63.4705C41.3751 63.882 44.3702 65.1912 45.9052 67.286C44.6697 67.0616 42.5357 66.6875 38.38 66.1638C35.9091 65.8645 32.7269 65.4906 30.7801 65.3035C32.4274 64.0317 34.6736 63.3209 36.9947 63.3209Z" fill="#141414"/>
<path d="M57.5494 97.2115C58.0361 97.2115 58.5227 97.1741 59.0843 97.0619C63.0527 96.2764 63.8765 92.0493 63.7268 89.9171C63.6893 89.5431 63.3897 89.2812 63.0153 89.2812C62.6409 89.3187 62.3789 89.618 62.3789 89.992C62.3789 90.1791 62.641 95.0045 58.8223 95.7527C53.9927 96.6878 52.4202 91.9745 52.3453 91.7875C52.233 91.4508 51.8587 91.2264 51.4843 91.3386C51.1474 91.4509 50.9227 91.8249 51.035 92.199C51.0724 92.2364 52.7199 97.2115 57.5494 97.2115Z" fill="#141414"/>
<path d="M78.2903 41.9988C78.2903 41.9988 68.7435 41.8866 59.1592 46.3754C52.3454 49.555 49.1632 52.2483 47.6283 54.6423C51.7091 52.6598 56.5761 49.8916 62.7908 48.3953C75.6697 45.2905 80.5366 51.0138 80.5366 51.0138L78.2903 41.9988Z" fill="#141414"/>
<path d="M37.7816 46.4879C37.7816 46.4879 39.4663 22.9963 39.8032 18.283C40.1402 13.5697 43.1354 6.57466 48.7137 5.48986C54.292 4.40506 59.3087 9.15572 61.4053 14.3553C63.5018 19.5548 71.1018 36.201 71.1018 36.201L37.7816 46.4879Z" fill="#FC9B59"/>
<path d="M37.7817 47.1612C37.8565 47.1612 37.9314 47.1611 37.9689 47.1237L71.3265 36.8368C71.5137 36.762 71.6635 36.6498 71.7384 36.4627C71.8133 36.2757 71.8133 36.0887 71.7384 35.9016C71.6635 35.752 64.101 19.2181 62.0419 14.0934C59.833 8.63197 54.4792 3.69428 48.6013 4.85389C42.6112 6.0135 39.4665 13.3827 39.167 18.2456C38.8675 22.884 37.1828 46.2259 37.1453 46.4504C37.1453 46.6748 37.2201 46.8993 37.4073 47.0115C37.4822 47.0863 37.6319 47.1612 37.7817 47.1612ZM70.2034 35.7894L38.5304 45.59C38.8674 41.1012 40.2152 22.4352 40.4773 18.3578C40.7768 13.9064 43.5847 7.21056 48.8635 6.20058C54.0674 5.19059 58.8221 9.67936 60.8063 14.6545C62.6408 19.1433 68.7433 32.5724 70.2034 35.7894Z" fill="#141414"/>
<path d="M38.6803 33.9189L38.3809 43.9066C38.3809 43.9066 32.0163 49.7047 20.972 51.9117C14.7946 53.1461 11.7246 52.7721 10.4143 52.3606C9.10394 51.9865 3.1139 50.9391 5.65971 46.787C7.64395 43.4952 12.7355 40.1285 21.3089 37.8467C28.6843 35.9015 38.6803 33.9189 38.6803 33.9189Z" fill="#FB7C26"/>
<path d="M13.7841 53.4455C15.5437 53.4455 17.9398 53.2212 21.122 52.5853C32.2038 50.3408 38.5684 44.6549 38.8305 44.3931C38.9803 44.2809 39.055 44.0938 39.055 43.9068L39.3546 33.9192C39.3546 33.7321 39.2797 33.5077 39.1299 33.3955C38.9802 33.2833 38.7556 33.2084 38.5684 33.2458C38.4561 33.2832 28.46 35.2284 21.122 37.211C13.0728 39.3806 7.38215 42.6724 5.06097 46.4505C4.3122 47.6475 4.16252 48.7698 4.57434 49.7797C5.39799 51.7997 8.35559 52.5478 9.77825 52.9219C9.96544 52.9593 10.1151 52.9967 10.2274 53.0341C10.9013 53.2212 12.0244 53.4455 13.7841 53.4455ZM37.7074 43.6076C36.5468 44.5802 30.4443 49.3309 20.8226 51.276C14.4955 52.5479 11.5377 52.0241 10.6018 51.7622C10.4895 51.7248 10.3024 51.6875 10.1152 51.6126C8.992 51.3134 6.40879 50.6775 5.84721 49.2934C5.62258 48.6949 5.73494 48.0216 6.25907 47.1613C7.49454 45.1413 11.126 41.2883 21.5339 38.5202C27.5989 36.9117 35.4985 35.2658 38.0443 34.7421L37.7074 43.6076Z" fill="#141414"/>
<path d="M80.611 22.9964C93.0031 20.6771 100.528 21.0512 103.898 24.3804C105.807 26.2882 105.62 33.3955 95.6613 43.2336C94.0889 42.3358 87.9864 41.1761 80.7234 42.635C55.1155 47.7598 41.8622 59.8422 28.0849 62.7225C20.6347 64.2936 8.24252 64.5554 5.43465 50.0789C5.43465 50.0789 8.3548 53.483 19.2494 52.3234C35.9095 50.4904 55.4149 27.7096 80.611 22.9964Z" fill="#FC9B59"/>
<path d="M21.6081 64.0691C24.0042 64.0691 26.2878 63.7325 28.2346 63.321C34.075 62.0866 39.8031 59.281 46.3923 55.9892C55.6395 51.3881 66.0849 46.1886 80.8731 43.2335C87.8741 41.8494 93.8268 42.9342 95.3244 43.7571C95.5864 43.9068 95.9234 43.8693 96.1106 43.6449C104.572 35.2658 105.47 29.4303 105.47 27.2981C105.47 25.8018 105.058 24.5674 104.31 23.8192C100.828 20.3778 93.2277 19.8541 80.4238 22.2482C66.871 24.7918 54.9283 32.4977 44.3706 39.3058C34.8987 45.4031 26.7371 50.6774 19.1371 51.5004C8.84157 52.5852 5.92141 49.5178 5.88397 49.4804C5.69678 49.256 5.35979 49.1811 5.09772 49.3307C4.83566 49.4804 4.68591 49.7423 4.72334 50.0415C5.73418 55.1663 7.98048 58.9444 11.4623 61.2636C14.6071 63.3958 18.2012 64.0691 21.6081 64.0691ZM87.612 41.2509C85.5155 41.2509 83.1193 41.4379 80.6109 41.9616C65.673 44.9541 55.1154 50.1912 45.7932 54.8296C39.2789 58.084 33.6633 60.8521 27.9726 62.0491C23.4426 62.9843 17.0779 63.4706 12.2858 60.291C9.47791 58.4206 7.53112 55.5029 6.48284 51.5752C8.35476 52.5477 12.211 53.7074 19.3243 52.9593C27.2613 52.0989 35.5726 46.7497 45.1569 40.5401C55.6022 33.7695 67.4327 26.1385 80.7234 23.6696C93.0406 21.3504 100.266 21.7619 103.411 24.8667C103.898 25.3529 104.16 26.2507 104.16 27.3729C104.16 29.3181 103.299 34.5924 95.5116 42.4105C94.1263 41.8494 91.281 41.2509 87.612 41.2509Z" fill="#141414"/>
<path d="M81.173 50.64C91.1691 46.6374 95.6617 43.196 95.6617 43.196C95.6617 43.196 87.6873 40.4279 77.9907 43.1586C79.6755 45.3282 80.6863 48.5078 81.173 50.64Z" fill="#FB7C26"/>
<path d="M81.1733 51.3133C81.2481 51.3133 81.3231 51.3133 81.4354 51.2759C91.394 47.3108 95.8867 43.9067 96.0739 43.7571C96.2611 43.6075 96.3733 43.3456 96.3358 43.1212C96.2984 42.8968 96.1113 42.6723 95.8867 42.5974C95.5497 42.4852 87.6127 39.792 77.8038 42.5601C77.5792 42.6349 77.4295 42.7845 77.3547 43.009C77.2798 43.2334 77.3172 43.4578 77.4669 43.6449C79.1516 45.7771 80.0877 49.0689 80.5369 50.8644C80.5744 51.0514 80.7241 51.2011 80.8738 51.3133C80.9862 51.3133 81.061 51.3133 81.1733 51.3133ZM94.127 43.4953C92.2925 44.6923 88.2118 47.0864 81.6601 49.7797C81.1359 47.8345 80.3496 45.4779 79.1142 43.6075C85.8156 41.9242 91.5812 42.8968 94.127 43.4953Z" fill="#141414"/>
</svg>
