<svg width="418" height="377" viewBox="0 0 418 377" fill="none" xmlns="http://www.w3.org/2000/svg">
<path d="M259.817 368.9C260.948 367.362 263.003 366.747 264.749 367.362C273.073 369.822 280.985 371.052 288.486 371.052C304.824 371.052 319.004 365.414 330.923 354.138C339.349 346.143 345.309 337.224 348.597 327.588C349.009 326.153 349.317 325.128 351.886 325.231C355.996 325.436 362.264 324.206 365.552 322.565C366.682 322.053 367.915 321.95 369.046 322.361C372.231 323.591 376.341 323.898 381.993 322.771C387.85 321.54 391.857 319.183 394.837 315.697C395.865 314.467 397.2 313.545 398.742 312.93C407.27 309.547 411.894 304.114 414.258 299.706C419.704 289.865 419.19 277.256 412.819 262.085C405.832 245.581 395.659 235.842 379.732 230.922C376.752 229.999 374.081 228.257 372.128 225.694C369.354 222.106 366.271 218.826 362.983 215.956C361.545 214.623 360.928 212.573 361.648 210.728C362.572 208.165 363.497 205.602 364.422 203.04C366.374 197.812 365.038 191.764 360.928 187.971C355.174 182.64 347.775 183.255 342.843 186.843C338.527 190.021 334.007 193.301 329.28 196.786C327.122 198.324 324.347 199.042 321.676 198.632C308.215 196.581 296.501 196.991 285.3 199.657C282.834 200.272 280.266 198.939 279.341 196.581C276.464 189.201 274.203 181.41 272.456 173.004C272.045 170.954 272.559 168.904 273.997 167.366L284.068 156.603C291.158 149.017 287.972 142.046 285.403 138.971C284.89 138.356 285.198 137.434 285.917 137.229C300.611 131.591 330.41 112.831 333.39 82.6935C334.109 75.7229 332.362 69.3673 328.56 64.7544C309.962 42.4073 256.735 50.0955 238.547 54.0934C236.697 54.5034 234.848 53.3759 234.232 51.6332C231.663 43.8425 229.813 38.2045 228.888 34.9242C217.996 -1.87671 186.759 -0.134044 184.909 0.0709749C164.564 2.01865 150.384 22.623 147.301 41.0747C146.684 44.56 145.349 52.5558 143.191 64.9595C142.78 67.2147 140.93 68.9573 138.67 69.1623C129.113 70.2899 76.5026 73.1602 58.6233 96.9423C49.6836 108.833 53.5884 130.668 66.4328 145.634C67.0493 146.352 66.4329 147.479 65.5081 147.274C61.7061 146.454 58.7264 146.557 54.9245 147.069C48.0399 148.095 42.4912 152.297 38.9975 158.14C35.9149 163.368 34.6816 170.032 35.1954 178.027C35.2982 179.36 34.4763 180.59 33.346 181.103C29.8524 182.743 25.6394 185.715 24.0981 188.381C23.1733 189.918 21.9399 190.636 20.1931 191.148C8.27356 194.531 3.64948 203.45 1.08063 213.803C-1.79651 225.079 1.18378 236.97 8.68488 245.683C10.4317 247.734 12.1783 249.886 13.6169 252.142C22.4538 265.878 33.6539 273.463 48.3478 275.514C52.458 276.129 56.2601 277.871 59.3428 280.434C80.0992 297.451 102.089 304.831 130.655 304.831C142.882 304.831 154.802 302.371 164.666 300.321C167.852 299.706 168.982 300.526 170.524 302.064C171.551 303.191 172.681 304.421 173.709 305.549C175.044 306.984 175.558 309.034 174.839 310.879C173.298 314.877 173.709 319.593 176.072 323.283C181.005 331.074 188.095 329.946 193.643 328.921C196.212 328.409 198.986 329.126 200.939 330.971C210.289 339.275 219.948 346.245 230.224 351.576C231.765 352.396 232.69 354.036 232.485 355.676L231.868 361.519C231.251 367.772 234.745 373.513 240.499 375.87C246.048 378.331 253.241 377.101 259.817 368.9Z" fill="#F3EAD4"/>
<path d="M180.695 280.844C180.695 280.844 156.034 291.095 130.859 291.095C101.779 291.095 81.5365 283.202 59.958 262.187C41.9759 263.11 31.2891 255.934 22.6577 239.635C8.7858 228.974 12.1769 205.602 32.1113 202.322C34.1664 197.914 36.4272 194.736 40.0236 193.711C47.011 191.763 53.2789 195.761 53.2789 195.761C53.2789 195.761 41.8732 163.778 57.492 160.908C67.5619 159.063 72.802 168.084 75.0626 180.487C76.7067 189.303 76.3986 196.274 77.3234 204.987C99.5185 209.907 96.025 244.761 85.7495 253.474C89.5514 259.727 100.752 276.333 130.756 277.051C149.457 277.461 175.557 270.9 175.557 270.9" fill="#6FA467"/>
<path d="M130.755 292.838C155.93 292.838 180.283 282.894 181.31 282.382C182.235 281.972 182.646 281.049 182.235 280.126C181.824 279.204 180.899 278.794 179.974 279.204C179.769 279.306 155.313 289.352 130.755 289.352C101.573 289.352 82.0493 281.357 60.9845 260.957C60.6763 260.65 60.1622 260.445 59.6484 260.445C42.8994 261.265 32.5215 255.012 23.9928 238.815C23.89 238.61 23.6845 238.405 23.479 238.2C17.211 233.382 14.4366 225.386 16.2862 217.801C18.1358 210.42 24.0956 205.295 32.2132 203.962C32.8297 203.859 33.2405 203.552 33.5488 202.937C35.7066 198.221 37.6591 195.966 40.3307 195.249C46.3932 193.506 52.0448 197.094 52.1475 197.094C52.7641 197.504 53.5861 197.401 54.2026 196.991C54.8191 196.581 55.0247 195.761 54.7164 195.044C54.6136 194.839 47.5235 174.644 52.5584 165.931C53.6887 163.983 55.3327 162.856 57.5933 162.446C65.4027 161.011 70.6433 167.161 73.1094 180.59C74.1369 186.125 74.3425 190.841 74.6507 195.864C74.8562 198.734 74.9591 201.707 75.2673 204.885C75.3701 205.602 75.8837 206.217 76.603 206.422C85.6454 208.472 89.242 215.648 90.6806 221.389C93.6605 233.177 89.7556 247.221 84.3096 251.936C83.693 252.449 83.4877 253.372 84.0015 254.089C95.7156 273.668 115.753 278.076 130.447 278.486C149.148 278.896 174.631 272.541 175.659 272.336C176.584 272.131 177.097 271.208 176.892 270.285C176.686 269.363 175.761 268.85 174.837 269.055C174.528 269.158 148.737 275.514 130.549 275.104C110.923 274.693 96.5377 267.415 87.7008 253.577C93.9688 246.913 96.9484 232.049 94.0713 220.568C91.8107 211.65 86.3651 205.602 78.5557 203.347C78.3502 200.682 78.1447 198.119 78.0419 195.659C77.7337 190.533 77.5281 185.613 76.3978 179.975C72.8013 160.395 63.7589 157.73 56.8743 159.063C53.5862 159.678 51.1199 161.421 49.4758 164.188C45.0573 171.774 48.2428 185.613 50.0924 192.378C47.318 191.456 43.4133 190.636 39.2003 191.866C34.8846 193.096 32.4186 196.889 30.569 200.682C21.5266 202.424 14.9505 208.472 12.7926 216.878C10.532 225.694 13.7173 235.022 20.9102 240.66C29.9526 257.574 41.3584 264.545 58.9294 263.93C80.4052 284.432 101.264 292.838 130.755 292.838Z" fill="#141414"/>
<path d="M55.848 212.676C56.7727 212.676 57.5945 211.856 57.5945 210.933C57.5945 205.603 56.5669 200.17 54.5118 194.224C54.2036 193.302 53.2792 192.789 52.3544 193.097C51.4296 193.404 50.9157 194.327 51.224 195.249C53.0736 200.887 53.9982 206.013 54.1009 210.933C54.1009 211.958 54.8204 212.676 55.848 212.676Z" fill="#141414"/>
<path d="M41.3598 234.818C44.0314 234.818 46.8058 233.998 49.5801 232.255C50.4022 231.742 50.6077 230.717 50.0939 229.897C49.5801 229.077 48.5528 228.872 47.7308 229.385C44.6481 231.332 41.36 231.947 38.9966 231.025C37.2498 230.307 36.1191 228.872 35.5025 226.617C32.9337 217.186 33.3448 200.58 37.1467 197.504C37.866 196.889 38.0718 195.864 37.4553 195.044C36.8387 194.326 35.8108 194.121 34.9888 194.737C29.029 199.452 29.7485 218.826 32.1118 227.437C33.2421 231.64 35.811 233.383 37.7633 234.1C38.7909 234.613 40.0239 234.818 41.3598 234.818Z" fill="#141414"/>
<path d="M24.6109 241.788C26.5633 241.788 28.8238 241.07 30.6733 239.635C34.4753 236.765 36.2222 231.947 35.4002 226.821C35.1947 225.899 34.3722 225.284 33.4474 225.386C32.5226 225.591 31.9062 226.411 32.009 227.334C32.9338 232.869 29.9541 235.842 28.6183 236.867C26.8714 238.2 24.7134 238.713 23.2748 238.097C22.4528 237.687 21.4255 238.097 21.0145 238.918C20.6035 239.738 21.0143 240.763 21.8363 241.173C22.6584 241.583 23.5834 241.788 24.6109 241.788Z" fill="#141414"/>
<path d="M59.9579 238.098C66.4315 238.098 73.5215 235.638 75.3711 232.46C75.8849 231.64 75.5765 230.615 74.7545 230.102C73.9325 229.59 72.9051 229.897 72.3913 230.717C70.9528 233.178 60.1633 236.253 54.2035 233.69C50.7099 232.153 49.6825 228.872 51.3266 223.849C57.8002 203.347 76.0903 206.525 76.8096 206.73C77.7344 206.935 78.6592 206.32 78.8647 205.398C79.0702 204.475 78.4539 203.552 77.5291 203.347C77.3236 203.347 55.4366 199.35 48.0382 222.824C45.1611 231.948 49.7853 235.535 52.8679 236.868C54.923 237.791 57.389 238.098 59.9579 238.098Z" fill="#141414"/>
<path d="M321.267 343.99C343.873 322.668 342.024 294.991 321.165 275.821C277.597 235.843 257.251 201.092 254.272 138.459C251.292 76.3381 183.884 87.8192 182.959 88.0242C155.935 94.6873 125.931 112.524 126.856 147.275C129.013 229.18 161.998 287.302 225.911 331.791C276.672 367.157 304.929 359.367 321.267 343.99Z" fill="#6FA467"/>
<path d="M288.487 358.752C301.537 358.752 312.943 354.241 322.397 345.22C333.494 334.764 339.248 322.463 339.145 309.547C339.043 296.939 333.083 284.432 322.294 274.592C276.157 232.255 258.791 196.582 256.017 138.459C255.092 119.905 248.516 105.964 236.391 96.9427C214.607 80.7463 182.855 86.3843 182.547 86.4868C171.552 89.1521 155.728 94.7901 143.295 105.964C130.862 117.137 124.696 131.078 125.107 147.48C127.162 228.36 158.914 287.405 224.882 333.329C249.235 350.243 270.505 358.752 288.487 358.752ZM196.111 88.742C207.003 88.742 222.724 90.6896 234.849 100.121C245.741 108.526 251.701 121.442 252.523 138.562C255.4 197.709 272.972 233.998 319.931 277.052C330.001 286.278 335.652 297.861 335.755 309.547C335.857 321.438 330.412 332.919 320.033 342.658C298.763 362.75 267.423 358.649 226.835 330.357C161.791 285.047 130.553 226.925 128.498 147.275C127.471 106.681 170.217 92.9449 183.37 89.7671C183.472 89.6646 188.61 88.742 196.111 88.742Z" fill="#141414"/>
<path d="M252.729 153.016L273.793 147.173L249.851 172.8" fill="#6FA467"/>
<path d="M249.849 174.542C250.363 174.542 250.774 174.337 251.083 174.03L275.024 148.3C275.538 147.685 275.641 146.865 275.23 146.25C274.819 145.634 273.997 145.327 273.278 145.532L252.213 151.375C251.288 151.58 250.774 152.605 250.98 153.528C251.185 154.45 252.213 154.963 253.138 154.758L268.242 150.555L248.411 171.774C247.794 172.492 247.795 173.517 248.514 174.235C248.925 174.44 249.438 174.542 249.849 174.542Z" fill="#141414"/>
<path d="M250.468 276.027L272.355 266.801L258.278 289.558" fill="#6FA467"/>
<path d="M258.276 291.3C258.893 291.3 259.407 290.992 259.715 290.48L273.895 267.723C274.306 267.108 274.204 266.288 273.793 265.672C273.382 265.057 272.456 264.955 271.84 265.16L249.953 274.386C249.028 274.796 248.618 275.718 249.029 276.641C249.44 277.564 250.364 277.974 251.289 277.564L268.243 270.49L256.94 288.635C256.427 289.455 256.735 290.48 257.454 290.992C257.66 291.197 257.968 291.3 258.276 291.3Z" fill="#141414"/>
<path d="M157.987 252.757L131.785 250.092L152.644 236.663" fill="#6FA467"/>
<path d="M157.99 254.5C158.915 254.5 159.634 253.885 159.737 252.962C159.84 252.04 159.12 251.22 158.195 251.117L136.925 248.964L153.674 238.098C154.496 237.586 154.701 236.561 154.188 235.741C153.674 234.921 152.647 234.716 151.824 235.228L130.965 248.759C130.349 249.169 130.04 249.887 130.246 250.605C130.451 251.322 131.068 251.835 131.787 251.937L157.99 254.602C157.887 254.5 157.887 254.5 157.99 254.5Z" fill="#141414"/>
<path d="M211.833 311.188L188.199 316.108L202.071 298.374" fill="#6FA467"/>
<path d="M188.197 317.851C188.3 317.851 188.403 317.851 188.505 317.851L212.139 312.828C213.064 312.623 213.68 311.7 213.475 310.778C213.269 309.855 212.344 309.24 211.419 309.445L192.41 313.443L203.405 299.297C204.021 298.579 203.816 297.451 203.096 296.836C202.377 296.221 201.247 296.426 200.63 297.144L186.758 314.98C186.347 315.596 186.244 316.313 186.655 316.928C187.066 317.543 187.58 317.851 188.197 317.851Z" fill="#141414"/>
<path d="M213.271 210.317C197.665 210.317 185.013 197.696 185.013 182.127C185.013 166.558 197.665 153.937 213.271 153.937C228.877 153.937 241.529 166.558 241.529 182.127C241.529 197.696 228.877 210.317 213.271 210.317Z" fill="#F3EAD4"/>
<path d="M213.27 212.061C214.297 212.061 215.428 211.958 216.455 211.855C224.367 211.035 231.56 207.14 236.595 200.887C241.63 194.634 243.891 186.843 243.068 178.95C241.322 162.548 226.525 150.657 210.085 152.4C193.644 154.143 181.724 168.904 183.471 185.305C185.218 200.682 198.165 212.061 213.27 212.061ZM213.372 155.783C226.731 155.783 238.239 165.829 239.678 179.36C240.397 186.331 238.445 193.301 233.923 198.734C229.505 204.27 223.134 207.653 216.147 208.37C201.659 209.908 188.506 199.349 186.965 184.896C185.423 170.442 196.007 157.32 210.496 155.783C211.42 155.783 212.345 155.783 213.372 155.783Z" fill="#141414"/>
<path d="M154.905 210.83C139.299 210.83 126.648 198.209 126.648 182.64C126.648 167.071 139.299 154.45 154.905 154.45C170.511 154.45 183.163 167.071 183.163 182.64C183.163 198.209 170.511 210.83 154.905 210.83Z" fill="#F3EAD4"/>
<path d="M154.906 212.573C155.934 212.573 157.064 212.471 158.195 212.368C166.107 211.548 173.299 207.653 178.334 201.4C183.369 195.147 185.63 187.356 184.808 179.463C183.986 171.57 180.081 164.394 173.813 159.371C167.545 154.348 159.736 152.093 151.824 152.913C143.912 153.733 136.719 157.628 131.684 163.881C126.649 170.134 124.388 177.925 125.21 185.818C126.032 193.711 129.937 200.887 136.205 205.91C141.548 210.216 148.124 212.573 154.906 212.573ZM155.009 156.296C161.072 156.296 166.826 158.346 171.553 162.139C177.102 166.547 180.492 172.902 181.212 179.873C181.931 186.843 179.978 193.814 175.457 199.247C171.039 204.783 164.668 208.165 157.681 208.883C150.591 209.6 143.706 207.653 138.26 203.142C132.711 198.734 129.32 192.379 128.601 185.408C127.882 178.438 129.834 171.467 134.355 166.034C138.774 160.499 145.144 157.116 152.132 156.398C153.056 156.296 154.084 156.296 155.009 156.296Z" fill="#141414"/>
<path d="M218.614 187.971C221.08 188.074 223.135 186.228 223.238 183.871C223.34 181.513 221.491 179.36 219.127 179.258L199.604 176.388C199.296 176.388 199.09 175.978 199.193 175.67C201.659 169.212 207.619 164.291 215.017 163.676C224.676 162.856 233.616 169.827 235.054 179.463C236.596 190.021 229.095 199.555 218.614 200.682C210.188 201.605 202.584 196.787 199.501 189.406C199.398 189.099 199.604 188.689 200.015 188.689L218.614 187.971Z" fill="#141414"/>
<path d="M160.249 187.765C162.715 187.868 164.771 186.023 164.873 183.665C164.976 181.307 163.127 179.155 160.763 179.052L141.651 176.284C141.137 176.182 140.829 175.669 141.034 175.259C143.603 169.006 149.46 164.393 156.653 163.778C166.312 162.958 175.252 169.929 176.69 179.565C178.231 190.123 170.73 199.657 160.249 200.784C151.926 201.707 144.322 196.991 141.137 189.611C140.931 189.098 141.342 188.586 141.856 188.483L160.249 187.765Z" fill="#141414"/>
<path d="M211.728 164.292C227.244 162.652 231.663 163.062 233.821 162.754C228.375 156.501 218.408 153.323 210.393 154.144C201.042 155.066 193.027 161.012 189.842 166.65C192.924 166.24 203.816 165.112 211.728 164.292Z" fill="#FC9B59"/>
<path d="M189.738 168.392C189.841 168.392 189.841 168.392 189.944 168.392C192.205 168.084 198.678 167.469 204.844 166.752L211.831 166.034C222.62 164.907 228.066 164.702 230.943 164.702C232.279 164.702 233.204 164.599 233.923 164.599C234.54 164.497 235.054 164.087 235.259 163.472C235.465 162.856 235.362 162.241 234.951 161.729C229.505 155.373 219.229 151.58 209.981 152.503C199.5 153.631 191.28 160.191 188.094 165.829C187.786 166.444 187.786 167.059 188.197 167.674C188.608 168.084 189.225 168.392 189.738 168.392ZM229.608 161.216C226.422 161.319 220.976 161.524 211.523 162.549L204.535 163.266C200.528 163.676 196.52 164.087 193.438 164.497C197.137 160.396 203.405 156.603 210.495 155.886C217.071 155.168 224.573 157.423 229.608 161.216Z" fill="#141414"/>
<path d="M157.164 164.804C172.577 166.751 176.482 167.777 178.64 167.982C175.66 160.806 166.515 156.296 158.5 155.065C149.355 153.63 140.21 156.501 135.483 162.344C138.566 162.651 149.252 163.779 157.164 164.804Z" fill="#FC9B59"/>
<path d="M178.641 169.725C179.154 169.725 179.668 169.418 179.976 169.007C180.387 168.495 180.387 167.88 180.182 167.367C176.894 159.474 167.029 154.656 158.706 153.426C148.945 151.888 139.286 154.964 134.045 161.319C133.634 161.832 133.531 162.447 133.737 163.062C133.942 163.677 134.559 164.087 135.175 164.087C138.258 164.394 148.944 165.522 156.856 166.547C167.44 167.88 172.578 168.802 175.455 169.315C176.791 169.52 177.716 169.725 178.435 169.827C178.538 169.725 178.641 169.725 178.641 169.725ZM153.98 156.501C155.418 156.501 156.856 156.604 158.295 156.809C164.563 157.731 171.653 160.807 175.352 165.727C172.372 165.215 167.132 164.292 157.37 163.062C151.41 162.344 144.012 161.524 139.285 161.012C143.087 158.141 148.431 156.501 153.98 156.501Z" fill="#141414"/>
<path d="M279.651 228.052L292.084 246.196L273.383 243.531L268.143 227.129L279.651 228.052Z" fill="#141414"/>
<path d="M266.5 226.925C277.084 216.674 287.565 210.831 307.088 211.651C331.441 212.676 352.814 218.006 366.377 242.199C383.229 244.864 393.094 250.912 399.978 267.519C406.041 281.87 407.788 298.169 387.751 301.654C386.312 304.832 382.613 308.625 379.735 309.035C374.289 309.957 371.31 308.42 367.097 306.062C359.801 309.957 351.375 313.238 343.052 309.752C329.18 303.909 324.659 295.504 323.837 280.845C319.624 278.487 315 271.516 315.617 267.519C318.185 252.45 327.125 248.042 340.894 248.247C332.366 232.255 324.351 227.437 305.752 226.515C294.038 225.9 277.906 232.563 271.946 242.814" fill="#6FA467"/>
<path d="M350.45 313.033C356.512 313.033 362.267 310.572 367.096 308.112C370.795 310.162 374.289 311.802 380.043 310.777C383.332 310.265 387.134 306.574 388.88 303.192C395.97 301.756 400.903 298.681 403.574 293.863C407.068 287.508 406.349 278.384 401.519 266.903C394.84 251.014 385.284 243.634 367.404 240.661C352.813 215.239 329.899 210.831 307.087 209.908C286.639 209.088 275.85 215.341 265.266 225.695C264.547 226.31 264.547 227.437 265.266 228.155C265.883 228.872 267.013 228.872 267.732 228.155C277.699 218.416 287.769 212.573 306.985 213.393C328.871 214.316 351.066 218.519 364.835 243.121C365.144 243.634 365.555 243.941 366.069 243.941C383.331 246.607 392.065 253.167 398.334 268.236C402.752 278.794 403.471 286.893 400.491 292.223C398.334 296.221 393.915 298.784 387.339 299.911C386.723 300.014 386.311 300.424 386.003 300.936C384.77 303.807 381.379 306.984 379.324 307.292C374.494 308.112 372.131 306.882 367.816 304.524C367.302 304.217 366.685 304.217 366.171 304.524C359.39 308.112 351.375 311.392 343.668 308.215C331.029 302.987 326.303 295.811 325.583 280.845C325.583 280.23 325.172 279.717 324.659 279.409C320.857 277.257 316.746 270.901 317.363 267.826C319.521 255.012 326.405 249.784 340.997 249.989C341.613 249.989 342.127 249.682 342.435 249.169C342.743 248.657 342.743 248.042 342.435 247.427C333.701 231.025 325.172 225.797 305.854 224.772C293.935 224.157 276.877 230.923 270.507 241.891C269.993 242.711 270.301 243.736 271.123 244.249C271.945 244.761 272.973 244.454 273.486 243.634C279.241 233.69 294.757 227.642 305.649 228.257C322.809 229.18 330.207 233.178 338.017 246.606C323.734 247.222 316.233 253.68 313.869 267.313C313.047 271.926 317.671 278.999 322.09 281.972C323.117 297.554 328.768 305.857 342.229 311.495C345.106 312.52 347.778 313.033 350.45 313.033Z" fill="#141414"/>
<path d="M349.111 263.316C351.166 269.159 353.221 274.899 355.174 280.845L349.111 263.316Z" fill="#6FA467"/>
<path d="M355.173 282.485C355.379 282.485 355.584 282.485 355.687 282.382C356.612 282.075 357.126 281.152 356.818 280.229C354.865 274.591 352.913 268.748 350.858 263.213L350.652 262.7C350.344 261.778 349.316 261.368 348.494 261.675C347.57 261.983 347.159 263.008 347.467 263.828L347.673 264.341C349.625 269.876 351.68 275.617 353.529 281.255C353.838 282.075 354.454 282.485 355.173 282.485Z" fill="#141414"/>
<path d="M352.299 273.361C349.525 277.359 347.264 279.512 341.818 280.639C336.475 281.767 328.357 281.049 322.603 280.024" fill="#6FA467"/>
<path d="M335.241 282.895C337.81 282.895 340.173 282.69 342.331 282.28C348.188 281.049 350.86 278.589 353.84 274.386C354.354 273.566 354.148 272.541 353.429 272.029C352.607 271.516 351.579 271.721 351.065 272.439C348.497 276.129 346.544 277.974 341.715 278.999C336.68 280.024 328.768 279.409 323.116 278.384C322.192 278.179 321.267 278.794 321.061 279.717C320.856 280.639 321.472 281.562 322.397 281.767C325.891 282.382 330.72 282.895 335.241 282.895Z" fill="#141414"/>
<path d="M372.026 281.87C373.67 286.175 374.492 288.738 373.362 293.761C371.615 300.936 368.018 306.779 360.312 309.24" fill="#6FA467"/>
<path d="M360.312 311.085C360.518 311.085 360.621 311.085 360.826 310.982C368.224 308.625 372.849 303.089 375.007 294.273C376.342 288.635 375.315 285.765 373.67 281.357C373.362 280.434 372.335 280.024 371.41 280.332C370.485 280.639 370.074 281.664 370.383 282.587C371.924 286.79 372.746 288.84 371.615 293.453C369.766 301.141 365.964 305.754 359.696 307.702C358.771 308.009 358.258 308.932 358.566 309.855C358.977 310.572 359.593 311.085 360.312 311.085Z" fill="#141414"/>
<path d="M383.845 274.079C386.62 278.282 389.189 282.177 389.806 287.405C390.628 294.888 388.778 301.654 383.537 307.189" fill="#6FA467"/>
<path d="M383.538 308.932C383.949 308.932 384.463 308.727 384.771 308.419C390.115 302.781 392.375 295.606 391.45 287.302C390.834 281.664 388.162 277.666 385.285 273.361L385.182 273.259C384.669 272.438 383.538 272.233 382.819 272.746C381.997 273.259 381.791 274.386 382.305 275.104L382.408 275.206C385.079 279.307 387.443 282.894 387.956 287.61C388.778 294.991 386.826 301.039 382.202 306.062C381.586 306.779 381.586 307.804 382.305 308.522C382.613 308.829 383.024 308.932 383.538 308.932Z" fill="#141414"/>
<path d="M327.021 215.956C335.138 210.113 343.256 204.167 351.374 198.222C348.086 207.345 344.797 216.469 341.509 225.592" fill="#6FA467"/>
<path d="M341.509 227.335C342.228 227.335 342.845 226.925 343.153 226.207L344.797 221.697C347.468 214.214 350.243 206.423 353.017 198.837C353.325 198.12 353.017 197.3 352.401 196.89C351.784 196.48 350.962 196.48 350.346 196.89C342.742 202.425 334.83 208.268 325.993 214.624C325.171 215.136 325.068 216.264 325.582 216.981C326.095 217.801 327.226 217.904 327.945 217.391C335.035 212.266 341.509 207.551 347.777 203.04C345.619 208.883 343.564 214.829 341.509 220.569L339.865 225.08C339.556 226.002 339.967 226.925 340.892 227.232C341.098 227.335 341.303 227.335 341.509 227.335Z" fill="#141414"/>
<path d="M264.852 340.095L246.15 363.159L249.028 334.047" fill="#6FA467"/>
<path d="M246.151 364.902C246.665 364.902 247.179 364.697 247.487 364.287L266.291 341.223C266.907 340.505 266.805 339.377 266.086 338.762C265.366 338.147 264.236 338.25 263.619 338.967L248.514 357.521L250.878 334.149C250.98 333.227 250.261 332.407 249.336 332.304C248.412 332.202 247.59 332.919 247.487 333.842L244.609 362.955C244.507 363.672 244.918 364.39 245.637 364.697C245.637 364.8 245.945 364.902 246.151 364.902Z" fill="#141414"/>
<path d="M184.498 231.742V244.761C184.395 248.144 186.861 249.476 190.869 249.476C197.548 249.476 209.776 246.299 212.242 224.259C211.214 223.746 210.29 223.337 209.468 222.824C197.445 232.665 189.225 233.075 184.498 231.742Z" fill="#F3EAD4"/>
<path d="M190.766 251.117H190.868C198.37 251.117 211.419 247.529 213.988 224.362C214.091 223.644 213.68 222.927 212.961 222.619C212.036 222.209 211.214 221.799 210.495 221.287C209.878 220.876 209.056 220.876 208.44 221.389C197.034 230.82 189.327 231.332 185.011 230.102C184.497 230 183.984 230.102 183.47 230.41C182.956 230.717 182.751 231.23 182.751 231.742V244.761C182.751 246.504 183.265 248.041 184.292 249.067C185.628 250.502 187.786 251.117 190.766 251.117ZM210.392 225.182C207.823 244.659 197.136 247.631 190.868 247.631C188.813 247.631 187.478 247.324 186.758 246.606C186.656 246.504 186.142 245.991 186.142 244.761V233.793C191.279 234.51 199.089 233.075 209.57 224.772C209.878 224.977 210.186 225.079 210.392 225.182Z" fill="#141414"/>
<path d="M185.732 233.793C186.452 233.793 187.171 233.28 187.376 232.563C187.582 231.64 187.068 230.717 186.143 230.41C183.677 229.795 182.033 227.54 181.93 227.54C181.314 226.822 180.286 226.617 179.567 227.232C178.848 227.847 178.642 228.872 179.259 229.59C179.362 229.692 181.622 232.768 185.321 233.793C185.424 233.69 185.629 233.793 185.732 233.793Z" fill="#141414"/>
<path d="M223.136 228.257C224.061 228.257 224.781 227.539 224.884 226.617C224.986 225.694 224.267 224.874 223.342 224.772C214.3 224.054 210.703 222.106 206.182 215.648C205.668 214.828 204.538 214.623 203.819 215.238C202.997 215.751 202.791 216.878 203.408 217.596C208.443 224.977 213.067 227.539 223.136 228.257C223.034 228.257 223.034 228.257 223.136 228.257Z" fill="#141414"/>
<path d="M164.872 272.541L173.709 283.92L163.639 286.585L157.68 274.181L164.872 272.541Z" fill="#141414"/>
<path d="M250.262 110.986C250.262 110.986 226.731 108.424 202.07 117.137C184.499 123.39 176.073 129.233 171.552 134.769C182.136 130.873 194.774 125.235 210.393 123.082C242.864 118.47 253.55 133.743 253.55 133.743L250.262 110.986Z" fill="#141414"/>
<path d="M149.252 112.319C149.252 112.319 159.117 54.8111 161.069 43.3301C163.022 31.849 172.064 15.345 186.141 14.0124C200.219 12.6798 211.419 25.596 215.324 38.9222C219.228 52.146 234.025 95.0973 234.025 95.0973L149.252 112.319Z" fill="#FC9B59"/>
<path d="M149.255 114.062C149.358 114.062 149.46 114.062 149.563 114.062L234.336 96.7379C234.85 96.6354 235.261 96.3279 235.466 95.9178C235.672 95.5078 235.775 94.9952 235.569 94.4827C235.466 94.0726 220.772 51.5313 216.868 38.4101C212.757 24.3663 200.735 10.9375 185.836 12.3727C170.731 13.8078 161.175 31.2344 159.223 43.1255C157.373 54.504 147.509 111.602 147.406 112.114C147.303 112.627 147.509 113.242 147.92 113.652C148.433 113.857 148.844 114.062 149.255 114.062ZM231.767 93.6627L151.413 110.064C153.365 98.8906 161.072 53.479 162.819 43.5356C164.669 32.6696 173.094 16.883 186.35 15.6529C199.4 14.4228 209.983 26.6215 213.785 39.3327C217.176 50.9163 228.89 85.3594 231.767 93.6627Z" fill="#141414"/>
<path d="M154.598 81.5662L151.412 106.066C151.412 106.066 134.252 118.777 106.508 121.647C90.9921 123.185 83.491 121.545 80.3056 120.212C77.223 118.982 62.6317 114.984 69.9273 105.348C75.6816 97.6601 89.0399 90.6895 110.721 87.1017C129.423 84.0264 154.598 81.5662 154.598 81.5662Z" fill="#FB7C26"/>
<path d="M95.1008 124.006C98.389 124.006 102.191 123.801 106.61 123.391C134.559 120.521 151.616 108.015 152.335 107.502C152.746 107.195 152.952 106.784 153.055 106.374L156.24 81.8747C156.343 81.3622 156.137 80.8496 155.726 80.4395C155.315 80.0295 154.801 79.8245 154.288 79.927C154.082 79.927 128.805 82.3873 110.309 85.4625C89.8606 88.8453 75.0637 95.611 68.3846 104.427C66.2267 107.297 65.6102 109.962 66.3295 112.525C67.8708 117.753 74.9612 120.316 78.4549 121.546C78.8659 121.751 79.277 121.853 79.5853 121.956C81.9486 122.776 86.5722 124.006 95.1008 124.006ZM149.767 105.144C146.581 107.297 130.449 117.548 106.302 120.008C90.3745 121.648 83.2842 119.598 80.9209 118.675C80.6126 118.573 80.2014 118.368 79.6876 118.266C77.016 117.343 70.7483 115.088 69.7207 111.5C69.3097 110.065 69.7206 108.322 71.1592 106.477C74.6528 101.762 84.5174 93.2532 110.823 88.8453C126.133 86.2825 145.965 84.2324 152.438 83.5148L149.767 105.144Z" fill="#141414"/>
<path d="M260.641 64.7552C291.775 62.09 310.271 64.7553 317.773 73.7761C322.088 78.9016 319.827 96.3282 292.906 118.265C289.309 115.702 274.513 111.295 256.223 113.14C191.795 119.598 156.139 146.148 121.511 149.94C102.707 151.991 72.086 149.633 68.6951 113.345C68.6951 113.345 75.066 122.365 102.193 122.16C143.603 121.75 197.241 70.2907 260.641 64.7552Z" fill="#FC9B59"/>
<path d="M112.16 152.093C115.551 152.093 118.737 151.888 121.717 151.581C136.513 149.941 151.207 144.405 168.264 137.844C192.103 128.721 219.23 118.47 256.428 114.78C273.999 113.037 288.487 117.137 291.981 119.598C292.597 120.008 293.419 120.008 294.036 119.495C316.95 100.838 320.649 86.6922 321.163 81.4643C321.574 77.7739 320.855 74.5961 319.108 72.6485C311.299 63.3201 292.7 60.2448 260.538 63.0126C226.526 65.9853 195.083 82.1818 167.442 96.4306C142.679 109.244 121.203 120.213 102.193 120.418C76.6072 120.623 70.1334 112.422 70.0306 112.32C69.6196 111.704 68.6948 111.5 67.9755 111.705C67.2562 112.012 66.8451 112.73 66.8451 113.447C68.0782 126.363 72.805 136.204 80.8199 142.765C89.8623 150.043 101.782 152.093 112.16 152.093ZM264.957 110.987C262.079 110.987 259.099 111.089 256.12 111.397C218.511 115.19 191.178 125.543 167.134 134.667C150.282 141.125 135.691 146.66 121.408 148.198C110.002 149.428 94.1783 149.018 83.1835 140.1C76.8127 134.872 72.7022 127.286 71.0582 117.445C75.5794 120.315 84.7244 124.006 102.296 123.801C122.127 123.596 143.911 112.422 169.086 99.4034C196.522 85.2571 227.554 69.2656 260.949 66.3953C291.878 63.7301 309.552 66.3954 316.642 74.8011C317.67 76.0313 318.184 78.3889 317.875 81.1567C317.362 85.8721 314.073 98.6858 292.906 116.112C288.384 113.857 278.006 110.987 264.957 110.987Z" fill="#141414"/>
<path d="M255.295 133.026C280.983 125.645 292.8 118.162 292.8 118.162C292.8 118.162 273.79 109.449 249.129 113.857C252.931 119.495 254.575 127.695 255.295 133.026Z" fill="#FB7C26"/>
<path d="M255.295 134.769C255.5 134.769 255.603 134.769 255.809 134.666C281.394 127.285 293.314 119.905 293.828 119.597C294.342 119.29 294.65 118.675 294.65 118.06C294.65 117.445 294.239 116.829 293.622 116.624C292.8 116.214 273.791 107.706 249.027 112.114C248.41 112.217 247.999 112.627 247.793 113.139C247.588 113.652 247.588 114.267 247.896 114.779C251.493 120.417 253.034 128.721 253.753 133.231C253.856 133.744 254.061 134.154 254.472 134.461C254.678 134.666 254.987 134.769 255.295 134.769ZM288.792 118.47C283.963 121.032 273.38 125.85 256.733 130.771C255.911 125.953 254.575 120.007 252.006 115.087C268.755 112.729 282.73 116.419 288.792 118.47Z" fill="#141414"/>
</svg>
