<svg width="224" height="225" viewBox="0 0 224 225" fill="none" xmlns="http://www.w3.org/2000/svg">
<mask id="mask0_2005_291" style="mask-type:alpha" maskUnits="userSpaceOnUse" x="0" y="0" width="224" height="225">
<ellipse cx="112" cy="112.5" rx="112" ry="112.5" fill="#D9D9D9"/>
</mask>
<g mask="url(#mask0_2005_291)">
<path d="M120.451 27.2158C113.105 26.4489 105.684 26.7555 98.4152 27.9059L98.1096 27.9827C90.841 29.2097 83.6487 31.357 76.9156 34.4246L66.4333 11.2641C75.2322 7.27618 84.5664 4.5153 94.0539 2.9048L94.4364 2.82812C103.847 1.29431 113.412 0.987493 122.976 1.90778L120.451 27.2158Z" fill="#FC9B59"/>
<path d="M76.915 35.6513C76.3794 35.6513 75.9199 35.3445 75.6903 34.8844L65.2088 11.7237C65.0557 11.4169 65.0557 11.0336 65.2088 10.7268C65.3618 10.4201 65.5909 10.1133 65.8969 9.95993C74.7723 5.97202 84.1833 3.13437 93.8238 1.52387L94.2064 1.4472C103.77 -0.0866115 113.488 -0.393336 123.052 0.526951C123.817 0.603641 124.352 1.21709 124.275 1.984L121.828 27.2919C121.828 27.6753 121.598 27.9821 121.368 28.2121C121.062 28.4422 120.756 28.519 120.374 28.519C113.182 27.8288 105.913 28.0588 98.6439 29.2091L98.4146 29.2859C91.2224 30.513 84.1835 32.5836 77.5269 35.5745C77.2209 35.6512 77.068 35.6513 76.915 35.6513ZM68.1923 11.8772L77.6031 32.5836C84.1066 29.7461 90.9167 27.7521 97.9558 26.6017L98.2614 26.525C105.224 25.3746 112.34 25.1447 119.302 25.6815L121.445 3.05768C112.493 2.29078 103.464 2.67427 94.5889 4.0547L94.2833 4.13137C85.2549 5.66518 76.4556 8.27274 68.1923 11.8772Z" fill="#141414"/>
<path d="M176.608 22.1541L161.842 42.7837C149.141 33.6576 134.833 28.5194 120.372 27.1389L122.82 1.83105C141.642 3.74832 160.158 10.3437 176.608 22.1541Z" fill="#FC9B59"/>
<path d="M161.84 44.1637C161.533 44.1637 161.304 44.087 161.074 43.9336C149.062 35.2676 134.907 29.976 120.294 28.5189C119.529 28.4422 118.992 27.8286 119.069 27.0617L121.518 1.75389C121.518 1.37043 121.747 1.06361 121.976 0.833543C122.282 0.603471 122.589 0.526855 122.972 0.526855C142.559 2.44412 161.38 9.49969 177.448 21.08C177.754 21.31 177.907 21.6167 177.983 21.9234C178.06 22.3069 177.983 22.6137 177.754 22.9205L162.987 43.5501C162.681 44.0103 162.299 44.1637 161.84 44.1637ZM121.9 25.9881C136.131 27.5986 149.751 32.7369 161.61 40.9427L174.847 22.4602C159.774 11.8769 142.253 5.28165 124.119 3.2877L121.9 25.9881Z" fill="#141414"/>
<path d="M212.874 66.1735L189.843 76.7569C183.875 63.6428 174.464 51.8325 161.917 42.8597L176.683 22.23C192.904 33.8869 205.07 49.1482 212.874 66.1735Z" fill="#FC9B59"/>
<path d="M189.767 78.0607C189.231 78.0607 188.772 77.7539 188.542 77.2938C182.498 64.0263 172.934 52.446 161.075 43.9334C160.463 43.4732 160.31 42.6297 160.769 42.0929L175.535 21.4632C175.765 21.1564 176.071 21.0029 176.377 20.9262C176.76 20.8495 177.066 20.9263 177.372 21.1563C193.286 32.5832 205.911 47.9981 214.021 65.7136C214.174 66.0204 214.174 66.4039 214.021 66.7106C213.868 67.0174 213.639 67.3242 213.333 67.4775L190.303 78.0607C190.15 78.0607 189.997 78.0607 189.767 78.0607ZM163.753 42.5531C175.153 51.0658 184.411 62.1857 190.455 74.9931L211.113 65.5603C203.386 49.1485 191.603 34.884 176.989 24.0706L163.753 42.5531Z" fill="#141414"/>
<path d="M222.439 122.924L197.19 120.47C197.878 113.108 197.572 105.746 196.425 98.5368C195.201 91.0211 192.982 83.6589 189.768 76.68L212.798 66.0967C216.93 75.1462 219.837 84.6558 221.367 94.3188C222.974 103.828 223.357 113.415 222.439 122.924Z" fill="#FC9B59"/>
<path d="M222.44 124.228C222.363 124.228 222.363 124.228 222.287 124.228L197.038 121.774C196.273 121.697 195.737 121.084 195.813 120.317C196.502 113.108 196.196 105.899 195.048 98.767C193.824 91.328 191.605 84.1191 188.468 77.2936C188.315 76.9869 188.315 76.6036 188.468 76.2968C188.621 75.99 188.851 75.6833 189.157 75.5299L212.187 64.9466C212.876 64.6398 213.641 64.9465 213.947 65.6367C218.078 74.6862 221.063 84.3492 222.669 94.2423C224.2 103.752 224.582 113.492 223.664 123.078C223.664 123.461 223.435 123.768 223.205 123.998C223.052 124.152 222.746 124.228 222.44 124.228ZM198.644 119.244L221.215 121.391C221.904 112.495 221.521 103.445 220.068 94.6258C218.537 85.4229 215.86 76.4501 212.111 67.9374L191.453 77.3704C194.36 84.0425 196.502 91.098 197.65 98.307C198.874 105.286 199.18 112.341 198.644 119.244Z" fill="#141414"/>
<path d="M202.317 176.992L181.736 162.19C190.764 149.383 195.891 135.042 197.191 120.471L222.44 122.925C220.68 141.791 214.1 160.503 202.317 176.992Z" fill="#FC9B59"/>
<path d="M202.318 178.372C202.012 178.372 201.782 178.295 201.553 178.142L180.972 163.341C180.359 162.881 180.206 162.114 180.665 161.5C189.311 149.383 194.514 135.119 195.891 120.394C195.891 120.011 196.121 119.704 196.35 119.474C196.656 119.244 196.962 119.167 197.345 119.167L222.594 121.621C223.359 121.698 223.895 122.311 223.818 123.078C221.982 142.711 214.942 161.654 203.466 177.835C203.236 178.142 202.93 178.295 202.624 178.372C202.471 178.372 202.394 178.372 202.318 178.372ZM183.649 161.884L202.089 175.151C212.571 159.966 219.151 142.404 221.063 124.075L198.492 121.928C196.886 136.192 191.76 149.997 183.649 161.884Z" fill="#141414"/>
<path d="M202.316 176.992L202.164 177.222C190.458 193.557 175.232 205.751 158.169 213.573L147.687 190.489C160.771 184.507 172.553 175.074 181.582 162.497L181.735 162.267L202.316 176.992Z" fill="#FC9B59"/>
<path d="M158.169 214.953C158.016 214.953 157.862 214.954 157.709 214.877C157.403 214.723 157.097 214.493 156.944 214.186L146.462 191.103C146.156 190.413 146.462 189.646 147.151 189.339C160.387 183.28 171.94 173.694 180.51 161.73L180.663 161.5C180.892 161.193 181.199 161.04 181.505 160.963C181.888 160.887 182.193 160.963 182.5 161.193L203.081 175.995C203.387 176.225 203.54 176.531 203.617 176.838C203.693 177.145 203.617 177.528 203.387 177.835L203.234 178.065C191.834 194.017 176.455 206.748 158.704 214.8C158.551 214.953 158.398 214.953 158.169 214.953ZM149.446 191.179L158.857 211.886C175.307 204.14 189.692 192.176 200.48 177.375L182.04 164.108C173.547 175.688 162.3 184.967 149.446 191.179Z" fill="#141414"/>
<path d="M158.169 213.65C149.217 217.792 139.729 220.629 130.089 222.24C120.678 223.773 111.114 224.157 101.55 223.237L103.998 197.929C111.343 198.619 118.765 198.389 125.957 197.162C133.455 195.935 140.724 193.711 147.687 190.49L158.169 213.65Z" fill="#FC9B59"/>
<path d="M111.955 225C108.436 225 104.916 224.847 101.473 224.54C101.091 224.54 100.784 224.31 100.555 224.08C100.325 223.773 100.249 223.467 100.249 223.083L102.698 197.775C102.774 197.008 103.386 196.471 104.151 196.548C111.343 197.238 118.612 197.008 125.804 195.781C133.225 194.554 140.418 192.33 147.227 189.262C147.533 189.109 147.916 189.109 148.222 189.262C148.528 189.416 148.834 189.646 148.988 189.953L159.469 213.037C159.775 213.727 159.47 214.494 158.781 214.8C149.752 218.942 140.188 221.856 130.318 223.467C124.197 224.54 118.076 225 111.955 225ZM103.003 222.01C111.955 222.776 120.984 222.393 129.859 220.936C139.041 219.402 147.916 216.718 156.409 213.037L146.998 192.33C140.341 195.244 133.302 197.315 126.11 198.542C119.148 199.692 112.108 199.999 105.069 199.462L103.003 222.01Z" fill="#141414"/>
<path d="M101.548 223.236C82.6497 221.472 63.9806 214.8 47.454 202.913L62.2207 182.283C74.9982 191.486 89.3822 196.624 103.996 198.005L101.548 223.236Z" fill="#FC9B59"/>
<path d="M101.548 224.539C101.472 224.539 101.472 224.539 101.395 224.539C81.7316 222.699 62.7562 215.566 46.6121 203.986C46 203.526 45.8474 202.682 46.3065 202.145L61.0732 181.516C61.5323 180.902 62.2977 180.749 62.9098 181.209C75.0752 189.952 89.2298 195.243 104.073 196.624C104.456 196.624 104.762 196.854 104.991 197.084C105.221 197.391 105.297 197.697 105.297 198.081L102.848 223.389C102.772 224.002 102.237 224.539 101.548 224.539ZM49.29 202.529C64.4394 213.112 82.0373 219.784 100.324 221.702L102.466 199.078C88.1582 197.544 74.3861 192.329 62.4503 184.047L49.29 202.529Z" fill="#141414"/>
<path d="M62.224 182.207L47.4574 202.837C31.0838 191.103 18.9184 175.688 11.1141 158.586L34.144 148.003C40.1119 161.27 49.5996 173.157 62.224 182.207Z" fill="#FC9B59"/>
<path d="M47.4565 204.216C47.1504 204.216 46.9209 204.14 46.6914 203.986C30.7003 192.483 17.9989 176.991 9.8886 159.199C9.58255 158.509 9.8889 157.742 10.5775 157.435L33.6073 146.852C33.9134 146.698 34.2966 146.698 34.6026 146.852C34.9086 147.005 35.2147 147.235 35.3677 147.542C41.4122 160.963 50.9759 172.543 62.9883 181.209C63.2943 181.439 63.4475 181.746 63.524 182.053C63.6005 182.436 63.5242 182.743 63.2946 183.05L48.5272 203.679C48.2211 203.986 47.839 204.216 47.4565 204.216ZM12.8729 159.276C20.6006 175.764 32.3833 190.182 47.1501 200.995L60.3866 182.513C48.9098 174 39.6521 162.727 33.5311 149.766L12.8729 159.276Z" fill="#141414"/>
<path d="M34.1397 148.08L11.1098 158.663C7.05469 149.69 4.22329 140.334 2.61654 130.671C2.54003 130.134 2.46367 129.597 2.38715 129.061C1.00994 120.011 0.780849 110.808 1.69899 101.605L26.948 104.06C26.2594 111.115 26.4118 118.247 27.483 125.303C27.5595 125.686 27.5596 126.146 27.6361 126.53C28.8603 133.892 31.0027 141.178 34.1397 148.08Z" fill="#FC9B59"/>
<path d="M11.1119 159.966C10.9588 159.966 10.8054 159.967 10.6523 159.89C10.3463 159.736 10.0402 159.506 9.88721 159.2C5.83207 150.227 2.92521 140.64 1.31846 130.901C1.24195 130.364 1.16484 129.827 1.08833 129.214C-0.288891 120.087 -0.517979 110.731 0.400166 101.452C0.476678 100.685 1.08833 100.148 1.85345 100.225L27.1024 102.679C27.485 102.679 27.7912 102.909 28.0207 103.139C28.2503 103.446 28.3271 103.752 28.3271 104.136C27.6385 111.038 27.7916 118.094 28.8628 124.996C28.9393 125.379 28.9387 125.839 29.0152 126.223C30.2394 133.585 32.3821 140.717 35.4425 147.466C35.7486 148.156 35.4422 148.923 34.7536 149.23L11.7238 159.813C11.4943 159.89 11.2649 159.966 11.1119 159.966ZM2.8487 103.062C2.08358 111.651 2.38933 120.318 3.69004 128.83C3.76655 129.367 3.84291 129.904 3.91942 130.441C5.44966 139.567 8.05122 148.463 11.7238 156.822L32.3821 147.389C29.5511 140.794 27.4853 133.815 26.2611 126.683C26.1846 126.223 26.1079 125.839 26.1079 125.379C25.1133 118.707 24.8842 111.882 25.4198 105.209L2.8487 103.062Z" fill="#141414"/>
<path d="M26.8754 104.059L1.6264 101.605C3.46269 82.8162 10.1195 64.257 21.8259 47.7685L21.9791 47.5386L42.5604 62.3397L42.4072 62.5698C33.4553 75.2238 28.3291 89.565 26.8754 104.059Z" fill="#FC9B59"/>
<path d="M26.8744 105.363C26.7979 105.363 26.7977 105.363 26.7212 105.363L1.47225 102.909C1.08969 102.909 0.784235 102.679 0.554699 102.449C0.325163 102.219 0.248352 101.835 0.248352 101.452C2.16115 81.8958 9.20011 63.0299 20.7534 47.0016L20.9066 46.7716C21.3657 46.1581 22.2076 46.0046 22.7432 46.4648L43.3245 61.2661C43.9366 61.7262 44.0899 62.4931 43.6308 63.1066L43.4777 63.3367C34.8318 75.3771 29.5528 89.4881 28.099 104.136C28.1756 104.826 27.563 105.363 26.8744 105.363ZM3.15566 100.378L25.7267 102.526C27.3335 88.1845 32.5361 74.4568 40.876 62.5698L22.4369 49.3023C11.8017 64.5637 5.14497 82.1259 3.15566 100.378Z" fill="#141414"/>
<path d="M76.911 34.3474C64.057 40.1759 52.4273 49.2255 43.3989 61.3426C43.1693 61.6494 42.9395 61.956 42.7099 62.3395L22.1279 47.5383C22.4339 47.0782 22.7406 46.6179 23.1232 46.2344C34.753 30.5129 49.7491 18.7793 66.4287 11.2637L76.911 34.3474Z" fill="#FC9B59"/>
<path d="M42.71 63.6432C42.4039 63.6432 42.1744 63.5665 41.9449 63.4131L21.2866 48.6118C20.6745 48.1516 20.5212 47.3848 20.9803 46.7713C21.2863 46.3111 21.6695 45.8509 21.9755 45.3908C33.3758 30.0527 48.5251 17.7821 65.8168 10.0364C66.5054 9.72961 67.2704 10.0365 67.5764 10.7267L78.0587 33.8872C78.2117 34.194 78.2117 34.5775 78.0587 34.8842C77.9057 35.191 77.6759 35.4977 77.3698 35.6511C64.3628 41.4796 52.9628 50.6824 44.3934 62.2627C44.1639 62.5695 43.934 62.8762 43.7045 63.183C43.475 63.4897 43.0925 63.6432 42.71 63.6432ZM23.9645 47.2313L42.4036 60.4988C50.973 48.9952 62.2209 39.7924 75.1514 33.7339L65.7398 13.0274C49.3662 20.6965 34.9824 32.43 24.1177 47.0012C24.0412 47.0779 24.041 47.1546 23.9645 47.2313Z" fill="#141414"/>
<path d="M181.735 162.267L181.582 162.497C172.553 175.074 160.847 184.507 147.687 190.489C140.724 193.634 133.455 195.858 125.957 197.161C118.688 198.388 111.343 198.618 103.998 197.928C89.3842 196.548 75.0002 191.409 62.2227 182.207C49.5982 173.157 40.1871 161.27 34.1427 148.003C31.0057 141.101 28.8633 133.892 27.6391 126.453C27.5626 126.069 27.486 125.609 27.486 125.225C26.4148 118.247 26.2624 111.114 26.951 103.982C28.3282 89.4877 33.454 75.2234 42.559 62.4928L42.7122 62.2627C42.9417 61.9559 43.1715 61.6491 43.4011 61.2656C52.4295 49.1485 63.9827 40.0224 76.9132 34.2706C83.7228 31.203 90.8385 29.0555 98.1072 27.8285L98.4128 27.7519C105.681 26.6016 113.103 26.2947 120.448 27.0616C134.909 28.442 149.217 33.5804 161.918 42.7066C174.466 51.6794 183.877 63.4897 189.845 76.6038C193.058 83.5826 195.277 90.9449 196.501 98.4606C197.726 105.669 197.955 113.032 197.267 120.394C195.889 135.042 190.84 149.46 181.735 162.267Z" fill="#F3EAD4"/>
<mask id="mask1_2005_291" style="mask-type:alpha" maskUnits="userSpaceOnUse" x="-11" y="-40" width="240" height="239">
<path d="M181.735 162.267L181.582 162.497C172.553 175.074 160.847 184.507 147.687 190.489C140.724 193.633 133.455 195.857 125.957 197.161C118.688 198.388 111.343 198.618 103.998 197.928C89.3842 196.548 75.0002 191.409 62.2227 182.206C49.5982 173.157 40.1871 161.27 34.1427 148.003C31.0057 141.1 28.8633 133.891 27.6391 126.452C27.5626 126.069 27.4859 125.609 27.4859 125.225C26.4148 118.247 26.2624 111.114 26.951 103.982C28.3282 89.4876 33.454 75.2232 42.559 62.4926L42.7122 62.2625C2.84204 42.7064 -29.2372 30.9477 0.846733 42.7064C9.87516 30.5893 36.8002 12.2603 49.7307 6.50852C56.5403 3.4409 76.8803 2.73578 84.1489 1.50873L91.1323 1.50463C98.401 0.35427 118.612 -40.7563 125.957 -39.9894C140.418 -38.609 149.217 33.5802 161.918 42.7064C174.466 51.6792 221.84 54.3919 227.808 67.506C231.021 74.4848 226.584 99.4887 227.808 107.004C229.032 114.213 216.026 134.641 215.337 142.003C213.96 156.651 190.84 149.46 181.735 162.267Z" fill="#F3EAD4"/>
</mask>
<g mask="url(#mask1_2005_291)">
<path d="M146.935 266.669C144.076 266.669 141.414 265.977 139.245 264.593C127.807 257.626 128.054 244.58 128.201 236.773C128.251 235.241 128.251 233.165 128.152 232.375C126.23 228.026 114.694 203.369 108.925 191.163C108.531 191.163 108.087 191.163 107.693 191.163C106.115 191.163 104.538 191.114 103.01 190.965C102.96 190.965 102.96 190.965 102.911 190.965C106.707 206.926 106.559 212.214 105.77 215.179C105.376 216.71 104.587 218.539 102.566 220.96C106.46 222.591 109.961 225.061 112.968 228.273C120.314 236.081 121.546 243.246 122.187 247.1C122.286 247.693 122.384 248.188 122.434 248.484C123.518 253.129 121.842 256.242 120.708 257.626C118.637 260.245 115.482 261.579 111.242 261.579C109.862 261.579 101.728 261.381 89.4522 261.085H88.8111C80.8246 260.887 73.331 260.689 71.2604 260.64C67.6123 260.591 58.7877 259.108 55.7804 246.952C50.604 226.247 64.753 217.353 74.12 211.472C80.1838 207.668 82.6486 205.79 82.3528 203.961C81.8598 200.75 80.3316 191.509 78.9512 183.356C70.6689 177.525 68.8448 169.964 68.8448 164.38V164.232L69.042 160.279C68.4504 161.267 67.6617 162.305 66.725 163.293C66.3306 168.926 64.3093 177.278 52.3788 182.219C50.3082 183.059 48.0404 183.504 45.674 183.504C43.209 183.504 40.6455 183.059 38.0326 182.12C37.5889 181.972 37.1451 181.824 36.7507 181.676C35.2718 182.219 33.4971 182.614 31.4758 182.614C30.6377 182.614 29.7996 182.565 29.0109 182.417C27.1868 182.12 25.4613 181.33 23.8837 180.193C23.6373 179.995 23.3906 179.847 23.1934 179.65L23.0456 179.551C22.5526 179.106 22.0596 178.612 21.6159 178.118C16.7353 176.882 13.9744 174.066 12.4462 171.644C9.04449 166.308 8.94589 158.55 12.1997 150.297C15.8971 140.909 23.095 134.583 31.7717 132.804C33.6944 129.642 36.0606 126.875 38.8214 124.602L36.6523 118.87C35.4691 115.756 36.455 112.347 39.0679 110.321C40.3497 109.333 41.9767 108.789 43.6036 108.789C45.1812 108.789 46.66 109.283 47.9418 110.222L56.7664 116.596C59.6751 116.004 62.8304 115.608 66.2814 115.411C66.9223 115.361 67.6125 115.361 68.2534 115.361C69.2393 115.361 70.2253 115.411 71.2113 115.509L72.148 96.7318L60.7597 87.4913C58.0482 85.2677 57.2102 81.4133 58.8371 78.3002C59.4287 77.1142 60.3161 76.126 61.3514 75.4836C61.7458 75.2365 60.7104 74.0506 60.7104 74.0506L56.8158 69.3068C53.3155 65.7983 51.0477 62.7347 49.6673 60.8569C49.2729 60.3134 48.7799 59.671 48.632 59.4733C44.9345 55.3225 40.4484 42.0794 46.808 35.7543C50.7027 31.8506 56.5199 29.9728 64.6543 29.9728C69.4364 29.9728 75.1553 30.6152 82.0572 31.9494C85.2124 32.5424 89.0083 33.6789 93.2481 35.2602C95.2201 30.8129 96.6005 27.6009 97.2907 25.8219C100.446 17.965 107.989 10.0093 117.799 10.0093C118.933 10.0093 120.067 10.1081 121.152 10.3552C131.307 12.2823 137.47 23.4006 138.16 32.8388C138.308 34.7165 138.604 39.3121 139.146 46.4278C143.879 47.4161 150.386 48.8492 155.415 50.2328C163.599 52.407 174.346 56.6567 179.128 64.5136C179.177 64.6124 179.226 64.7112 179.276 64.7606C180.804 64.1183 182.431 63.7724 184.206 63.7724C187.41 63.7724 190.22 64.9583 192.34 67.1326C193.918 66.4902 195.495 66.2431 196.827 66.2431C197.27 66.2431 197.763 66.2925 198.207 66.3419C204.566 67.0337 207.13 70.7892 208.165 73.8529C209.25 77.0154 209.053 80.7215 208.757 84.8723C208.412 89.9126 205.306 100.438 202.447 109.876L201.855 111.803C201.707 112.248 201.559 112.742 201.411 113.286C200.179 117.585 198.256 124.157 194.756 131.47L199.094 134.336C201.806 136.115 203.038 139.574 202.102 142.687C201.165 145.85 198.305 147.975 195.002 147.975H183.368C177.255 153.707 170.599 156.573 165.916 157.957C162.169 159.044 157.338 159.686 151.52 159.785C151.717 160.131 151.915 160.526 152.063 160.921C153.196 164.183 151.964 167.79 149.055 169.668L136.385 177.772C135.35 179.897 133.92 181.774 132.145 183.454L147.626 204.703C150.14 202.133 153.394 199.366 157.486 196.994C160.345 195.314 166.31 192.497 173.656 192.497C177.452 192.497 181.1 193.288 184.354 194.77C188.939 196.895 195.742 202.726 189.678 218.045C183.762 233.067 176.86 244.63 167.395 255.649C161.38 262.567 153.886 266.669 146.935 266.669Z" fill="#F3EAD4"/>
<path d="M197.517 73.1605C193.326 72.6664 190.911 77.1136 189.136 82.2528C189.53 78.3984 189.383 74.5441 187.805 72.3698C186.967 71.1839 185.784 70.591 184.305 70.591C182.727 70.591 181.445 71.1345 180.508 72.1228C178.487 74.2476 178.142 78.2503 178.192 82.1046C177.649 80.721 176.959 79.6339 176.022 78.8927C174.938 78.0032 173.607 77.509 171.93 77.4596C172.719 75.7795 173.311 74.05 173.656 72.2217C173.754 72.0735 173.853 71.8757 173.952 71.6781C174.395 70.5416 174.198 69.2568 173.36 67.8732C170.55 63.2776 163.599 59.2751 153.788 56.6561C145.703 54.4819 134.956 52.357 132.787 51.9123C132.195 44.1048 131.603 35.8525 131.406 33.0359C131.012 27.1556 127.216 18.2116 120.018 16.8774C112.919 15.4938 106.51 21.5223 103.848 28.1438C102.566 31.3063 99.6572 37.9774 96.995 43.9071C90.5861 41.1399 84.8673 39.2621 80.874 38.5209C65.3446 35.556 56.1257 36.149 51.8366 40.4481C49.1744 43.1165 51.6395 52.11 53.9073 54.6795C54.3017 55.1243 54.7947 55.7666 55.3863 56.6066C56.6681 58.3362 58.5413 60.9058 61.4007 63.8212L61.2529 63.8706L61.9924 64.4142L62.2389 64.6612L62.2882 64.6118C63.57 65.5012 69.0914 69.2567 79.9373 73.6052L80.4797 73.8029C80.3811 74.2971 80.3318 74.7418 80.2825 75.2359L77.8176 124.156C74.7117 122.872 71.0143 121.933 66.7745 122.229C62.4854 122.526 58.6893 123.069 55.3369 124.008L43.8993 115.756C43.7514 115.657 43.5051 115.657 43.3572 115.756C43.2093 115.904 43.1106 116.102 43.2092 116.299L47.3012 127.171C42.3219 129.938 38.7231 133.891 36.2088 139.228C28.3702 139.524 22.0105 144.466 18.7074 152.817C16.3411 158.845 16.1931 164.429 18.3622 167.789C19.8412 170.063 22.257 171.347 25.6094 171.545C26.201 172.533 26.9405 173.571 27.8279 174.312L27.877 174.362C28.5179 174.905 29.3067 175.3 30.1941 175.449C33.3493 175.992 35.9621 174.362 36.7509 173.769C36.8002 173.818 36.8497 173.818 36.9483 173.867C37.7864 174.46 38.7722 174.905 39.9554 175.3C41.5329 175.893 43.5049 176.437 45.6248 176.437C46.9559 176.437 48.3364 176.239 49.6675 175.646C59.626 171.545 59.7246 165.22 59.7739 160.13V159.982C63.8657 156.918 64.2109 153.904 64.0137 152.372C63.6193 149.012 62.0417 146.146 59.5274 144.268C57.0624 142.44 53.9071 141.649 50.5548 142.094C50.6041 142.044 50.6042 141.995 50.6535 141.896C52.1817 138.338 54.9919 131.766 69.1901 130.679C72.4932 130.432 75.2047 131.371 77.3739 132.705L75.7469 164.33C75.7469 170.557 78.9021 175.498 85.1138 178.957C86.4449 187.012 88.4662 199.118 89.0578 202.824C90.0931 209.446 84.325 213.053 77.6695 217.253C68.6477 222.936 58.3936 229.36 62.3376 245.222C64.063 252.14 68.1548 253.623 71.3099 253.672C73.4298 253.721 81.2191 253.919 89.5014 254.117C99.5092 254.364 109.813 254.611 111.193 254.611C112.475 254.611 114.299 254.463 115.285 253.277C115.926 252.486 116.025 251.399 115.729 249.966C115.581 249.422 115.482 248.829 115.384 248.138C114.792 244.58 113.856 239.194 107.94 232.918C100.298 224.814 90.5368 224.913 85.459 225.654C89.9946 222.788 98.1288 217.253 99.1148 213.399C100.298 208.754 96.4035 192.596 93.6428 182.268C97.2416 183.207 100.742 183.701 103.552 183.899C104.981 183.997 106.362 184.096 107.742 184.096C109.566 184.096 111.391 183.997 113.067 183.8C118.243 194.819 132.836 225.802 134.561 229.805C135.153 231.188 135.104 233.758 135.054 236.772C134.907 243.937 134.759 253.721 142.844 258.613C143.978 259.305 145.407 259.651 146.985 259.651C151.323 259.651 157.042 256.983 162.366 250.806C171.339 240.429 177.797 229.409 183.466 215.178C186.523 207.42 185.932 202.676 181.642 200.65C174.494 197.339 166.31 199.464 161.084 202.577C156.105 205.493 152.556 209.1 150.436 211.62C149.893 212.263 148.316 214.288 147.478 215.672L122.483 181.329C127.61 179.056 130.716 175.399 131.505 170.804C131.998 168.086 133.329 160.822 135.104 151.581C136.632 151.779 143.041 152.52 150.041 152.52C154.971 152.52 160.197 152.174 164.141 150.988C169.219 149.457 178.734 145.355 184.995 134.978C190.615 125.688 193.277 116.547 194.855 111.111C195.003 110.518 195.2 110.024 195.298 109.53C195.446 108.986 195.644 108.344 195.89 107.602C197.763 101.475 201.609 88.7755 201.904 84.1305C202.397 76.6195 202.2 73.7041 197.517 73.1605ZM171.24 94.8535C170.649 95.4465 170.008 95.6442 169.318 95.4465C167.888 95.1006 166.606 93.3217 166.064 91.8393C165.62 90.6039 164.979 89.1709 164.092 88.2814C164.979 88.1826 165.867 87.9354 166.754 87.6884C167.493 87.4907 168.184 87.2931 168.726 87.2437C170.451 87.0954 171.388 88.6767 171.684 89.3685C172.522 91.3451 172.374 93.7664 171.24 94.8535ZM154.133 89.2697C155.957 89.2697 157.732 89.1214 159.408 88.7261C157.683 90.4556 156.697 94.3099 159.753 98.0654C163.204 102.364 169.811 107.207 173.952 109.184C174.248 114.372 173.015 124.305 169.416 129.74C163.106 139.228 153.443 142.539 137.174 140.76C140.822 121.784 145.21 99.2514 147.281 88.6767C149.203 88.9731 151.668 89.2697 154.133 89.2697Z" fill="#141414"/>
<path d="M111.735 179.748C111.735 179.748 132.934 224.765 135.054 229.657C137.174 234.549 131.899 251.399 143.09 258.218C147.28 260.788 155.218 258.317 161.873 250.559C169.86 241.318 176.663 230.793 182.875 215.079C185.931 207.321 185.192 203.072 181.346 201.293C174.839 198.278 166.902 199.86 161.281 203.17C151.767 208.754 147.478 216.809 147.478 216.809L147.28 216.562L117.701 175.894" fill="#6FA467"/>
<path d="M146.935 260.047C145.259 260.047 143.83 259.651 142.646 258.96C134.463 253.969 134.611 244.086 134.758 236.871C134.808 233.907 134.857 231.337 134.265 230.003C132.195 225.16 111.193 180.539 110.947 180.094C110.749 179.699 110.947 179.205 111.341 179.007C111.736 178.809 112.228 179.007 112.426 179.402C112.623 179.847 133.674 224.468 135.744 229.36C136.435 231.041 136.435 233.61 136.336 236.921C136.237 243.74 136.04 253.03 143.435 257.576C147.034 259.75 154.478 257.873 161.183 250.065C170.008 239.787 176.466 228.916 182.037 214.832C185.685 205.592 183.171 203.171 180.952 202.133C174.297 199.069 166.409 201.194 161.676 203.961C152.457 209.347 148.217 217.204 148.168 217.303L147.428 216.908L146.738 217.402L116.961 176.487C116.715 176.141 116.764 175.597 117.158 175.35C117.504 175.103 118.046 175.153 118.292 175.548L147.33 215.425C147.379 215.327 147.478 215.228 147.527 215.129C148.02 214.338 148.908 213.103 150.091 211.67C152.211 209.15 155.76 205.493 160.789 202.578C166.113 199.464 174.395 197.34 181.593 200.65C186.03 202.726 186.671 207.569 183.565 215.475C177.945 229.756 171.388 240.775 162.416 251.202C157.141 257.378 151.323 260.047 146.935 260.047Z" fill="#141414"/>
<path d="M84.4235 171.397C84.4235 171.397 88.7126 197.044 89.6 202.825C92.1635 219.082 56.1255 218.045 62.9289 245.173C63.3726 246.903 64.9009 253.129 71.3591 253.228C76.0919 253.327 108.728 254.167 111.242 254.167C113.757 254.167 115.975 253.524 115.186 250.214C114.398 246.903 114.496 240.776 107.545 233.413C96.847 222.047 82.1557 227.088 82.1557 227.088C82.1557 227.088 97.2414 218.44 98.5232 213.35C100.249 206.581 90.586 173.621 90.586 173.621" fill="#6FA467"/>
<path d="M111.193 255.007C109.813 255.007 99.4598 254.76 89.5013 254.513C81.2683 254.315 73.4297 254.117 71.3098 254.068C68.1053 254.019 63.8657 252.487 62.0909 245.42C58.0484 229.361 68.4012 222.887 77.5216 217.155C84.1277 213.004 89.7971 209.447 88.7618 203.023C87.8744 197.291 83.5854 171.842 83.5854 171.595C83.4868 171.15 83.832 170.706 84.2757 170.656C84.7194 170.557 85.1631 170.903 85.2124 171.348C85.2617 171.595 89.5014 197.044 90.3888 202.776C91.572 210.287 85.1631 214.339 78.3598 218.588C69.2887 224.271 59.9216 230.151 63.6684 245.025C64.9009 249.868 67.4644 252.388 71.3098 252.437C73.4297 252.487 81.2683 252.684 89.5013 252.882C99.4598 253.129 109.764 253.376 111.144 253.376C112.722 253.376 113.708 253.129 114.102 252.586C114.447 252.141 114.496 251.449 114.25 250.461C114.102 249.868 114.003 249.225 113.905 248.533C113.313 245.124 112.475 239.985 106.855 234.006C96.6498 223.184 82.5008 227.878 82.3529 227.928C81.9585 228.076 81.515 227.878 81.3178 227.483C81.1206 227.088 81.2683 226.643 81.6627 226.445C85.7546 224.073 96.6497 217.106 97.6357 213.202C98.9668 208.013 93.0018 185.233 89.6987 173.917C89.5508 173.473 89.7971 173.028 90.2408 172.88C90.6845 172.732 91.1282 172.979 91.2761 173.423C91.6705 174.757 101.038 206.679 99.2628 213.597C98.3261 217.303 91.1777 222.393 86.4942 225.408C91.8679 224.815 100.84 225.259 108.038 232.869C114.003 239.194 114.94 244.63 115.532 248.237C115.63 248.929 115.729 249.522 115.877 250.065C116.222 251.548 116.074 252.734 115.384 253.574C114.447 254.859 112.524 255.007 111.193 255.007Z" fill="#141414"/>
<path d="M103.552 183.553C91.8184 182.565 76.1904 178.019 76.1904 164.38L80.7261 75.2859C82.3529 60.0662 99.8049 49.4421 114.94 51.0728L116.863 51.2704C131.998 52.9011 149.548 67.2807 147.921 82.5004C147.921 82.5004 132.786 160.18 130.962 170.804C129.138 181.478 115.285 184.541 103.552 183.553Z" fill="#6FA467"/>
<path d="M107.742 184.591C106.312 184.591 104.883 184.542 103.503 184.393C98.4247 183.949 91.1282 182.763 85.1137 179.452C78.6554 175.894 75.4018 170.854 75.4018 164.43L79.9372 75.2859C80.726 67.8243 85.1631 61.0544 92.3608 56.2118C99.1641 51.6162 107.447 49.4914 115.088 50.2821L117.011 50.4798C132.786 52.1599 150.485 66.8854 148.809 82.5993V82.6486C148.661 83.4392 133.674 160.427 131.85 170.952C130.026 181.132 118.539 184.591 107.742 184.591ZM103.601 182.763C115.63 183.751 128.497 180.44 130.173 170.755C131.997 160.328 146.738 84.477 147.133 82.451C148.661 68.0713 131.702 53.7905 116.813 52.1598L114.891 51.9622C100.791 50.4304 83.1911 60.3627 81.5642 75.4341L77.0286 164.479C77.0286 178.958 95.6145 182.071 103.601 182.763Z" fill="#141414"/>
<path d="M82.8459 86.4537L65.4926 81.5615L84.3742 96.9301" fill="#6FA467"/>
<path d="M84.3742 97.7704C84.177 97.7704 84.0291 97.7209 83.8319 97.5726L64.9503 82.2041C64.6545 81.9571 64.5559 81.5123 64.7531 81.1663C64.9503 80.8204 65.3447 80.6227 65.6898 80.771L83.0433 85.6633C83.487 85.7621 83.7334 86.2562 83.6348 86.701C83.5362 87.1457 83.0431 87.3929 82.5994 87.2941L69.0914 83.4889L84.8672 96.3372C85.2123 96.6337 85.2617 97.128 84.9659 97.5233C84.8673 97.6715 84.6207 97.7704 84.3742 97.7704Z" fill="#141414"/>
<path d="M87.7268 155.387L69.535 149.704L83.6841 162.552" fill="#6FA467"/>
<path d="M83.684 163.392C83.4868 163.392 83.2895 163.343 83.1416 163.195L69.0419 150.346C68.7461 150.099 68.6969 149.655 68.8941 149.309C69.0913 148.963 69.4857 148.815 69.8801 148.913L88.0716 154.596C88.5153 154.745 88.7618 155.189 88.6139 155.634C88.466 156.079 88.0223 156.326 87.5786 156.178L72.9859 151.631L84.3248 161.959C84.6699 162.256 84.6699 162.799 84.3741 163.145C84.1276 163.294 83.8812 163.392 83.684 163.392Z" fill="#141414"/>
<path d="M137.125 134.337L151.175 127.369L135.843 125.491" fill="#6FA467"/>
<path d="M137.125 135.177C136.829 135.177 136.533 135.029 136.385 134.732C136.188 134.337 136.336 133.843 136.78 133.645L148.365 127.913L135.794 126.331C135.35 126.282 135.005 125.837 135.054 125.392C135.103 124.948 135.547 124.602 135.991 124.651L151.323 126.529C151.668 126.578 151.964 126.875 152.013 127.221C152.062 127.567 151.915 127.962 151.57 128.11L137.519 135.078C137.371 135.177 137.273 135.177 137.125 135.177Z" fill="#141414"/>
<path d="M116.764 164.381L123.173 151.434L109.024 156.771" fill="#6FA467"/>
<path d="M116.764 165.221C116.616 165.221 116.517 165.171 116.419 165.122C116.024 164.924 115.827 164.43 116.025 164.035L121.497 152.966L109.32 157.561C108.876 157.71 108.432 157.512 108.235 157.067C108.087 156.622 108.284 156.178 108.728 155.98L122.877 150.643C123.173 150.544 123.567 150.593 123.764 150.841C123.962 151.088 124.06 151.483 123.912 151.78L117.504 164.727C117.356 165.073 117.06 165.221 116.764 165.221Z" fill="#141414"/>
<path d="M128.35 174.017L145.21 163.244L128.645 165.023" fill="#6FA467"/>
<path d="M128.35 174.857C128.054 174.857 127.807 174.708 127.659 174.461C127.413 174.066 127.512 173.572 127.906 173.325L141.759 164.479L128.744 165.912C128.3 165.962 127.857 165.616 127.807 165.171C127.758 164.726 128.103 164.282 128.547 164.232L145.062 162.453C145.456 162.404 145.801 162.651 145.949 162.997C146.097 163.343 145.95 163.787 145.604 163.985L128.744 174.758C128.645 174.807 128.497 174.857 128.35 174.857Z" fill="#141414"/>
<path d="M104.833 116.25C112.729 116.25 119.13 109.834 119.13 101.92C119.13 94.0057 112.729 87.5898 104.833 87.5898C96.9375 87.5898 90.5366 94.0057 90.5366 101.92C90.5366 109.834 96.9375 116.25 104.833 116.25Z" fill="#F3EAD4"/>
<path d="M104.834 117.09C104.291 117.09 103.749 117.041 103.207 116.992C94.9245 116.102 88.8605 108.591 89.7479 100.289C90.6352 91.9878 98.1289 85.9099 106.411 86.7993C114.694 87.6888 120.757 95.1997 119.87 103.501C119.032 111.309 112.475 117.09 104.834 117.09ZM104.834 88.4299C98.0302 88.4299 92.1637 93.5691 91.4242 100.487C90.6354 107.899 96.009 114.57 103.404 115.361C110.799 116.151 117.454 110.765 118.243 103.353C119.032 95.941 113.658 89.27 106.263 88.4794C105.77 88.43 105.277 88.4299 104.834 88.4299Z" fill="#141414"/>
<path d="M133.624 116.349C141.52 116.349 147.921 109.934 147.921 102.019C147.921 94.1048 141.52 87.689 133.624 87.689C125.729 87.689 119.328 94.1048 119.328 102.019C119.328 109.934 125.729 116.349 133.624 116.349Z" fill="#F3EAD4"/>
<path d="M133.624 117.19C133.082 117.19 132.54 117.14 131.998 117.091C127.955 116.646 124.356 114.669 121.842 111.507C119.328 108.344 118.144 104.391 118.588 100.339C119.032 96.2872 121.004 92.6799 124.159 90.1597C127.314 87.5902 131.258 86.4537 135.301 86.8984C143.583 87.7879 149.647 95.2989 148.76 103.601C148.316 107.653 146.344 111.26 143.189 113.78C140.379 116.004 137.075 117.19 133.624 117.19ZM133.575 88.4797C130.519 88.4797 127.561 89.5174 125.145 91.494C122.335 93.7671 120.61 96.979 120.215 100.586C119.821 104.194 120.856 107.702 123.124 110.519C125.392 113.335 128.596 115.065 132.195 115.46C135.794 115.855 139.294 114.818 142.104 112.545C144.914 110.271 146.64 107.06 147.034 103.452C147.428 99.845 146.393 96.3366 144.125 93.5199C141.858 90.7033 138.653 88.9738 135.054 88.5785C134.561 88.5291 134.068 88.4797 133.575 88.4797Z" fill="#141414"/>
<path d="M100.347 104.392C99.0653 104.243 98.1287 103.008 98.4245 101.723C98.671 100.586 99.7556 99.8452 100.939 99.9935L111.144 101.081C111.39 101.13 111.637 100.883 111.588 100.636C111.095 95.9908 107.2 92.2351 102.27 92.1856C97.8823 92.1362 93.9382 95.2494 93.0015 99.5487C91.769 105.182 95.6638 110.47 101.235 111.063C105.228 111.508 108.876 109.383 110.602 106.022C110.749 105.775 110.552 105.429 110.306 105.429L100.347 104.392Z" fill="#141414"/>
<path d="M128.99 104.54C127.708 104.391 126.772 103.156 127.068 101.871C127.314 100.735 128.399 99.9933 129.582 100.142L140.231 101.278C140.428 101.278 140.625 101.13 140.576 100.932C140.181 96.2376 136.287 92.3831 131.258 92.2843C126.821 92.2349 122.877 95.3481 121.94 99.6968C120.708 105.33 124.603 110.618 130.173 111.211C134.167 111.656 137.864 109.481 139.59 106.121C139.688 105.923 139.54 105.676 139.343 105.676L128.99 104.54Z" fill="#141414"/>
<path d="M105.622 92.828C97.7837 91.9879 95.5158 92.235 94.4312 92.0867C97.192 88.8746 102.221 87.2932 106.312 87.6886C111.045 88.1827 115.137 91.1972 116.715 94.0634C115.186 93.8163 109.665 93.2727 105.622 92.828Z" fill="#FC9B59"/>
<path d="M116.764 94.8543C116.715 94.8543 116.715 94.8543 116.665 94.8543C115.531 94.706 112.228 94.3601 109.073 94.0142L105.524 93.6189C100.051 93.0259 97.2907 92.9765 95.8117 92.9271C95.1215 92.9271 94.6778 92.8777 94.3327 92.8283C94.0369 92.7788 93.7903 92.5811 93.6917 92.2846C93.5931 91.9881 93.6425 91.6917 93.8397 91.4446C96.6005 88.2325 101.777 86.3052 106.46 86.75C111.736 87.2936 115.877 90.6539 117.504 93.52C117.651 93.8165 117.651 94.1131 117.454 94.4096C117.306 94.7061 117.06 94.8543 116.764 94.8543ZM96.4525 91.2963C98.0794 91.3457 100.84 91.4446 105.77 91.9882L109.32 92.3834C111.39 92.5811 113.51 92.8283 115.088 92.9765C113.215 90.8516 110.01 88.8749 106.362 88.4796C102.862 88.1337 99.0161 89.2702 96.4525 91.2963Z" fill="#141414"/>
<path d="M132.491 92.9274C124.652 93.9158 122.68 94.4594 121.595 94.5582C123.124 90.9014 127.758 88.6282 131.8 87.9858C136.435 87.2445 141.069 88.727 143.484 91.692C141.907 91.8403 136.484 92.3838 132.491 92.9274Z" fill="#FC9B59"/>
<path d="M121.595 95.3981C121.349 95.3981 121.102 95.2499 120.955 95.0522C120.757 94.8051 120.757 94.5086 120.856 94.2615C122.483 90.2587 127.511 87.8373 131.702 87.1949C136.632 86.4042 141.512 87.9856 144.175 91.1977C144.372 91.4448 144.421 91.7412 144.322 92.0377C144.224 92.3342 143.928 92.5319 143.632 92.5319C142.055 92.6802 136.582 93.2732 132.638 93.7673C127.265 94.4592 124.652 94.9039 123.222 95.151C122.532 95.2498 122.088 95.3487 121.743 95.3981C121.645 95.3487 121.595 95.3981 121.595 95.3981ZM134.117 88.628C133.378 88.628 132.688 88.6775 131.948 88.7763C128.744 89.2705 125.046 90.9012 123.173 93.4709C124.652 93.2238 127.314 92.7296 132.392 92.0872C135.448 91.6919 139.294 91.2965 141.71 91.0494C139.738 89.4681 136.977 88.628 134.117 88.628Z" fill="#141414"/>
<path d="M108.876 130.384C108.285 130.384 107.693 130.334 107.003 130.186C102.122 129.247 101.136 124.009 101.284 121.39C101.333 120.945 101.678 120.599 102.171 120.599C102.615 120.649 102.96 121.044 102.96 121.489C102.96 121.736 102.664 127.616 107.348 128.555C113.264 129.741 115.236 123.91 115.285 123.663C115.433 123.218 115.877 122.971 116.321 123.119C116.764 123.268 117.011 123.712 116.863 124.157C116.863 124.256 114.842 130.384 108.876 130.384Z" fill="#141414"/>
<path d="M121.595 181.33L112.919 183.504L116.074 190.274L126.624 188.248L121.595 181.33Z" fill="#141414"/>
<path d="M93.4452 181.972L85.3602 178.661L87.2337 188.594L94.9736 189.533L93.4452 181.972Z" fill="#141414"/>
<path d="M77.6203 129.345L77.0779 139.574L83.684 139.377L85.9519 129.444L77.6203 129.345Z" fill="#141414"/>
<path d="M86.7407 130.778C86.7407 130.778 78.7542 121.933 66.7744 122.724C51.7874 123.712 41.7302 128.308 36.4552 139.673C28.9617 139.871 22.5033 144.318 19.0523 152.966C16.0943 160.477 15.6507 170.607 25.7571 171.15C26.9896 173.275 28.3207 174.757 30.1941 175.054C33.7436 175.647 36.6523 173.324 36.6523 173.324C36.6523 173.324 43.5049 177.772 49.4209 175.35C59.3794 171.249 59.2315 164.874 59.2808 159.884C63.1262 157.067 63.7178 154.3 63.5206 152.521C62.7318 145.8 57.0131 141.402 49.7661 142.687C51.2944 139.327 53.3648 131.569 69.042 130.383C78.9512 129.642 83.9799 139.179 83.9799 139.179" fill="#6FA467"/>
<path d="M45.5756 176.931C41.6316 176.931 38.0328 175.103 36.7017 174.362C35.6664 175.054 33.1028 176.487 30.0462 175.943C27.8278 175.548 26.398 173.769 25.2641 171.99C21.9117 171.693 19.3975 170.409 17.9185 168.037C15.7 164.578 15.8478 158.846 18.2635 152.718C21.6158 144.318 28.0249 139.277 35.9128 138.882C41.04 128.209 50.5548 122.971 66.6757 121.884C78.902 121.093 86.9871 129.839 87.3322 130.185C87.628 130.531 87.6279 131.025 87.2828 131.371C86.9377 131.668 86.4448 131.668 86.0997 131.322C86.0011 131.223 78.2119 122.773 66.7744 123.564C51.0972 124.601 41.9767 129.691 37.1947 140.019C37.0468 140.315 36.8003 140.513 36.4552 140.513C29.011 140.71 22.947 145.355 19.7918 153.311C18.0663 157.66 17.031 163.589 19.2988 167.147C20.5806 169.124 22.7498 170.211 25.7571 170.359C26.0529 170.359 26.2993 170.507 26.4472 170.754C27.7783 173.028 28.9124 174.016 30.2927 174.263C33.4479 174.807 36.0607 172.731 36.11 172.682C36.4058 172.435 36.8002 172.435 37.096 172.632C37.1453 172.682 43.6528 176.832 49.125 174.559C58.3441 170.754 58.3933 165.121 58.4426 160.18V159.834C58.4426 159.587 58.5906 159.34 58.7878 159.192C62.5346 156.424 62.8304 153.855 62.7318 152.619C62.3867 149.605 60.9569 147.036 58.7384 145.355C56.3721 143.577 53.2663 142.934 49.9632 143.527C49.6674 143.576 49.3716 143.478 49.1744 143.231C48.9772 142.984 48.9278 142.638 49.0757 142.391C49.1743 142.143 49.3223 141.847 49.4702 141.55C51.0971 137.795 54.1043 130.729 69.0914 129.592C79.4443 128.801 84.6207 138.437 84.8179 138.833C85.0151 139.228 84.8673 139.722 84.4729 139.969C84.0785 140.167 83.5854 140.019 83.3389 139.623C83.2896 139.524 78.4584 130.58 69.1901 131.272C55.7806 132.31 52.8226 138.042 51.1957 141.748C54.4002 141.501 57.4074 142.292 59.7738 144.071C62.3867 146.047 64.0628 149.012 64.4572 152.471C64.6544 154.052 64.3093 157.165 60.2174 160.328C60.1681 165.269 60.0695 171.94 49.8645 176.141C48.3855 176.684 46.956 176.931 45.5756 176.931Z" fill="#141414"/>
<path d="M43.4061 160.971C43.3075 160.971 43.2582 160.971 43.1596 160.922C42.7159 160.773 42.4696 160.329 42.6175 159.884L45.6246 150.593C45.7725 150.149 46.2163 149.902 46.66 150.05C47.1037 150.198 47.3502 150.643 47.2023 151.088L44.195 160.378C44.0964 160.724 43.7512 160.971 43.4061 160.971Z" fill="#141414"/>
<path d="M44.7867 156.424C44.7867 156.424 46.0685 158.895 49.7167 159.784C53.7593 160.773 60.0203 159.29 60.0203 159.29" fill="#6FA467"/>
<path d="M53.0197 160.97C51.7872 160.97 50.6042 160.872 49.5197 160.625C45.5757 159.686 44.0967 156.968 44.0474 156.819C43.8502 156.424 43.9979 155.93 44.3923 155.683C44.7867 155.485 45.2798 155.633 45.5263 156.029C45.5756 156.128 46.7095 158.203 49.914 158.994C53.71 159.933 59.774 158.5 59.8726 158.5C60.3163 158.401 60.76 158.697 60.8586 159.142C60.9572 159.587 60.6612 160.032 60.2175 160.13C60.0203 160.18 56.52 160.97 53.0197 160.97Z" fill="#141414"/>
<path d="M33.9409 160.674C33.9409 160.674 32.3633 163.342 33.2507 166.801C34.4832 171.743 36.2086 173.819 40.3004 175.054" fill="#6FA467"/>
<path d="M40.3004 175.894C40.2018 175.894 40.1525 175.894 40.0539 175.845C35.7155 174.511 33.7929 172.287 32.4125 166.999C31.4758 163.244 33.152 160.378 33.2013 160.229C33.4478 159.834 33.9407 159.686 34.3351 159.933C34.7295 160.18 34.8775 160.674 34.631 161.069C34.631 161.119 33.2505 163.54 34.0393 166.555C35.2225 171.299 36.7508 173.078 40.5469 174.214C40.9906 174.362 41.2371 174.807 41.0892 175.252C40.9906 175.697 40.6948 175.894 40.3004 175.894Z" fill="#141414"/>
<path d="M27.6798 156.572C27.6798 156.572 24.9685 160.031 24.5741 163.589C24.0318 168.63 25.8066 172.04 28.0744 174.066" fill="#6FA467"/>
<path d="M28.0743 174.906C27.8771 174.906 27.6798 174.857 27.5319 174.708C25.8557 173.176 23.0949 169.717 23.7851 163.54C24.1795 159.784 26.9403 156.226 27.0389 156.078C27.3347 155.732 27.8277 155.633 28.2221 155.93C28.5672 156.226 28.6657 156.721 28.3699 157.116C28.3206 157.165 25.8063 160.476 25.4612 163.738C24.9189 168.927 26.8909 171.892 28.6657 173.522C29.0108 173.819 29.0108 174.362 28.715 174.708C28.5179 174.807 28.3207 174.906 28.0743 174.906Z" fill="#141414"/>
<path d="M56.2735 125.343L43.6036 116.151L49.0757 130.63" fill="#6FA467"/>
<path d="M49.0757 131.471C48.7306 131.471 48.435 131.273 48.2871 130.927L42.8148 116.448C42.6669 116.102 42.8148 115.707 43.0613 115.509C43.3571 115.262 43.7515 115.262 44.0473 115.509L56.7665 124.701C57.1609 124.948 57.2101 125.491 56.9636 125.837C56.7171 126.233 56.1749 126.282 55.8298 126.035L45.3782 118.474L49.8645 130.334C50.0124 130.779 49.8152 131.224 49.3716 131.421C49.273 131.421 49.1743 131.471 49.0757 131.471Z" fill="#141414"/>
<path d="M179.473 140.365H195.15L182.283 131.816" fill="#6FA467"/>
<path d="M195.15 141.205H179.473C179.029 141.205 178.635 140.81 178.635 140.365C178.635 139.92 179.029 139.525 179.473 139.525H192.39L181.79 132.508C181.396 132.261 181.297 131.717 181.544 131.371C181.79 130.976 182.332 130.877 182.677 131.124L195.545 139.624C195.84 139.821 195.988 140.217 195.89 140.562C195.791 140.908 195.495 141.205 195.15 141.205Z" fill="#141414"/>
<path d="M83.684 62.4874C83.684 62.4874 95.3681 62.3886 107.151 67.8244C118.933 73.2603 116.123 72.7168 121.004 74.4463C125.885 76.2253 131.16 79.4868 102.714 70.3447C87.2337 65.3537 80.9232 73.6062 80.9232 73.6062L83.684 62.4874Z" fill="#141414"/>
<path d="M133.378 67.8735C133.378 67.8735 131.209 38.9166 130.815 33.1351C130.42 27.3536 126.673 18.7554 119.821 17.4212C112.968 16.087 106.806 21.9674 104.242 28.3419C101.679 34.7164 92.4102 55.2728 92.4102 55.2728L133.378 67.8735Z" fill="#FC9B59"/>
<path d="M133.378 68.7136C133.279 68.7136 133.23 68.7135 133.131 68.6641L92.1637 56.0634C91.9172 56.014 91.7694 55.8164 91.6708 55.6187C91.5722 55.4211 91.5722 55.174 91.6708 54.927C91.7694 54.7293 100.988 34.321 103.503 28.0454C106.214 21.325 112.722 15.1976 120.018 16.5812C127.364 18.0142 131.258 27.0571 131.653 33.0363C132.047 38.7684 134.216 67.4783 134.216 67.7748C134.216 68.0712 134.118 68.3183 133.92 68.4665C133.772 68.6642 133.575 68.7136 133.378 68.7136ZM93.5934 54.7787L132.491 66.737C132.096 61.2026 130.371 38.2248 130.026 33.1846C129.631 27.749 126.18 19.4967 119.722 18.2119C113.363 16.9766 107.545 22.5109 105.08 28.6383C102.812 34.2716 95.3682 50.8255 93.5934 54.7787Z" fill="#141414"/>
<path d="M132.244 52.4067L132.639 64.7114C132.639 64.7114 140.477 71.8275 154.035 74.5454C161.627 76.0773 165.374 75.5337 167 75.0889C168.578 74.5948 175.924 73.31 172.818 68.2201C170.353 64.1679 164.092 60.0663 153.542 57.2496C144.52 54.8282 132.244 52.4067 132.244 52.4067Z" fill="#FB7C26"/>
<path d="M162.859 76.3727C160.69 76.3727 157.781 76.1255 153.936 75.3349C140.329 72.6171 132.491 65.6003 132.145 65.3038C131.998 65.1556 131.899 64.9578 131.85 64.7108L131.455 52.4066C131.455 52.1595 131.554 51.9124 131.751 51.7642C131.948 51.6159 132.195 51.5172 132.441 51.5666C132.54 51.5666 144.865 53.9879 153.837 56.3598C163.746 58.9787 170.747 63.0307 173.606 67.7251C174.494 69.2075 174.74 70.5912 174.247 71.8265C173.261 74.2973 169.613 75.2362 167.888 75.6809C167.641 75.7303 167.493 75.7796 167.346 75.8291C166.458 76.1255 165.028 76.3727 162.859 76.3727ZM133.477 64.3156C134.906 65.5509 142.4 71.3818 154.232 73.7043C162.021 75.2362 165.62 74.5937 166.803 74.2478C166.951 74.1984 167.148 74.149 167.395 74.0995C168.775 73.7536 171.93 72.9137 172.62 71.2336C172.916 70.4924 172.768 69.6523 172.127 68.6146C170.599 66.0945 166.162 61.4001 153.344 57.9905C145.9 56.0139 136.188 54.0373 133.033 53.3949L133.477 64.3156Z" fill="#141414"/>
<path d="M80.7262 39.0654C65.542 36.15 56.2736 36.6936 52.1325 40.8444C49.8154 43.1669 51.8859 51.7155 54.2523 54.3345C55.6326 55.8663 57.7034 59.4736 62.2882 64.0198C64.2109 62.9327 71.7043 61.4502 80.6275 63.2291C111.933 69.4059 131.258 82.5502 131.258 82.5502C131.258 82.5502 139.984 86.7505 145.309 87.7882C150.633 88.8259 156.993 89.2706 161.085 87.64C167.148 85.2681 171.832 78.7947 173.114 72.1732C173.114 72.1732 169.564 76.3735 156.155 74.9404C144.471 73.7051 131.455 64.4645 119.673 56.7559C104.932 47.0706 89.0085 40.6467 80.7262 39.0654Z" fill="#FC9B59"/>
<path d="M154.133 89.5669C150.781 89.5669 147.428 89.0728 145.21 88.628C139.836 87.5903 131.307 83.489 130.913 83.3407C130.864 83.3407 130.864 83.2912 130.814 83.2912C130.617 83.143 111.292 70.147 80.4796 64.069C71.9014 62.3889 64.5558 63.7231 62.7317 64.7608C62.3866 64.9584 61.9922 64.909 61.7457 64.6125C58.492 61.4006 56.4707 58.6334 55.0903 56.7556C54.4987 55.965 54.055 55.3226 53.6606 54.8779C51.245 52.1601 48.7799 43.0677 51.59 40.2511C55.9776 35.9026 65.2952 35.2603 80.9232 38.2252C89.452 39.8559 105.672 46.5268 120.166 56.0144C121.201 56.7062 122.236 57.398 123.271 58.0898C134.364 65.4526 145.851 73.013 156.302 74.1001C168.923 75.4343 172.522 71.6294 172.522 71.58C172.768 71.2835 173.163 71.234 173.508 71.3823C173.853 71.5305 174.05 71.9259 173.952 72.2718C172.571 79.4863 167.543 85.9597 161.43 88.381C159.26 89.2704 156.697 89.5669 154.133 89.5669ZM131.652 81.8583C132.392 82.2042 140.526 86.0585 145.456 86.9973C151.865 88.2327 157.436 88.1833 160.788 86.8985C165.817 84.922 170.008 79.931 171.782 74.1001C169.465 75.286 164.732 76.7191 156.056 75.7803C145.21 74.6437 133.575 66.935 122.285 59.4734C121.25 58.7816 120.215 58.0898 119.18 57.4474C104.883 48.0586 88.9098 41.4865 80.5289 39.9052C65.6897 37.0392 56.5693 37.5828 52.6747 41.4371C50.8506 43.2655 52.5267 51.2212 54.7944 53.7908C55.2381 54.2849 55.7312 54.9272 56.3228 55.8167C57.6539 57.645 59.4778 60.1159 62.3865 63.0807C65.098 61.9442 72.2958 60.8076 80.7261 62.4877C111.095 68.4174 130.469 81.0676 131.652 81.8583Z" fill="#141414"/>
<path d="M80.1344 73.1613C67.8589 68.269 62.3375 64.0687 62.3375 64.0687C62.3375 64.0687 72.1481 60.6588 84.0293 63.9697C81.9587 66.5888 80.7753 70.5422 80.1344 73.1613Z" fill="#FB7C26"/>
<path d="M80.1345 74.0012C80.0359 74.0012 79.9375 74.0013 79.8389 73.9519C67.5633 69.0596 62.0417 64.9085 61.8445 64.7109C61.598 64.5132 61.4994 64.2168 61.5487 63.9203C61.598 63.6238 61.7952 63.3767 62.091 63.2778C62.4854 63.1296 72.2467 59.8187 84.2758 63.179C84.5223 63.2779 84.7686 63.4755 84.8179 63.7225C84.8672 63.9696 84.8673 64.2662 84.6701 64.5133C82.6488 67.1323 81.4656 71.1845 80.9233 73.4083C80.874 73.6553 80.7261 73.8531 80.4797 73.9519C80.3811 73.9519 80.2824 74.0012 80.1345 74.0012ZM64.2601 64.365C66.5279 65.8475 71.5072 68.7631 79.543 72.0246C80.1839 69.6526 81.1698 66.737 82.6488 64.4145C74.4651 62.4378 67.366 63.6237 64.2601 64.365Z" fill="#141414"/>
<path d="M134.758 151.236C134.758 151.236 153.739 153.707 163.944 150.643C171.388 148.419 179.325 143.478 184.551 134.781C190.713 124.552 193.376 114.274 194.805 109.431C196.235 104.589 201.017 89.3195 201.411 84.131C202.003 76.1258 201.51 74.0011 197.467 73.5563C190.96 72.8151 188.939 84.9216 186.671 92.2844C188.396 86.8488 191.699 71.0361 184.305 71.0361C176.219 71.0361 179.128 85.6628 178.931 90.5549C178.931 79.7331 175.381 76.966 168.972 78.1519C162.613 79.3379 159.605 82.2038 160 84.2298C161.183 90.2584 166.014 86.9971 168.676 86.7995C172.374 86.503 173.804 92.9762 171.536 95.101C169.268 97.2752 166.655 94.5575 165.669 91.9385C164.782 89.5666 163.155 86.0088 159.901 88.7266C158.225 90.1102 156.943 93.9151 160 97.7695C163.451 102.069 170.156 106.961 174.247 108.888C174.593 114.175 173.311 124.453 169.662 129.988C164.092 138.339 155.366 143.28 136.385 141.106" fill="#6FA467"/>
<path d="M149.943 153.015C142.203 153.015 135.153 152.125 134.66 152.076C134.216 152.026 133.871 151.582 133.97 151.137C134.019 150.692 134.463 150.346 134.906 150.445C135.104 150.445 153.837 152.867 163.747 149.902C168.677 148.419 177.846 144.466 183.91 134.435C189.432 125.293 192.045 116.25 193.622 110.864C193.77 110.271 193.967 109.777 194.066 109.283C194.214 108.739 194.411 108.097 194.658 107.356C196.482 101.278 200.327 88.677 200.623 84.1308C201.214 75.7798 200.524 74.7916 197.418 74.4456C192.636 73.9021 190.418 82.1543 188.594 88.7759C188.446 89.3688 188.298 89.9618 188.101 90.5054C187.903 91.3454 187.657 92.0371 187.509 92.6301C187.361 93.0748 186.917 93.322 186.474 93.1737C186.03 93.0255 185.783 92.5807 185.931 92.136C186.129 91.4936 186.326 90.7525 186.523 90.0112C187.854 84.8721 189.185 76.4222 186.868 73.1608C186.276 72.3208 185.439 71.9255 184.354 71.9255C183.121 71.9255 182.185 72.3208 181.445 73.062C178.98 75.681 179.375 82.3025 179.67 86.7004C179.769 88.2816 179.868 89.6159 179.818 90.6042C179.818 91.0489 179.424 91.4442 178.98 91.3948C178.536 91.3948 178.192 90.9995 178.192 90.5547C178.192 85.0203 177.255 81.5119 175.283 79.8813C173.902 78.7447 171.93 78.4482 169.219 78.9423C165.374 79.6835 162.416 81.1165 161.282 82.7472C161.084 83.0931 160.838 83.5379 160.887 84.032C161.134 85.3662 161.627 86.2557 162.268 86.651C163.303 87.2934 164.979 86.7993 166.409 86.404C167.198 86.1569 167.937 85.9592 168.627 85.9098C170.402 85.7616 171.93 86.8487 172.818 88.7759C173.754 90.9007 173.853 94.0138 172.128 95.6445C170.994 96.7316 169.811 96.7315 169.071 96.5833C167.148 96.1385 165.62 94.0632 164.93 92.1854C164.634 91.3948 163.747 88.924 162.465 88.5781C161.922 88.4299 161.282 88.677 160.493 89.3194C159.31 90.3077 157.781 93.5691 160.739 97.1764C164.141 101.377 170.698 106.219 174.691 108.048C174.987 108.196 175.135 108.443 175.184 108.739C175.529 114.027 174.297 124.552 170.451 130.333C163.747 140.365 153.591 143.824 136.385 141.798C135.942 141.748 135.597 141.353 135.646 140.859C135.695 140.414 136.089 140.068 136.582 140.118C157.288 142.539 164.634 136.016 169.071 129.395C172.423 124.354 173.804 114.718 173.557 109.332C169.367 107.257 162.859 102.464 159.458 98.214C156.056 94.0137 157.436 89.7148 159.458 88.0347C159.803 87.7382 160.197 87.4911 160.542 87.2934C159.951 86.6016 159.507 85.6133 159.26 84.3286C159.112 83.5379 159.31 82.6484 159.901 81.8084C161.282 79.733 164.585 78.1022 168.923 77.3116C172.177 76.7186 174.593 77.114 176.367 78.5964C176.959 79.0906 177.452 79.6341 177.846 80.3259C177.945 76.9657 178.487 73.7044 180.262 71.8267C181.297 70.6901 182.678 70.1465 184.403 70.1465C186.03 70.1465 187.312 70.7889 188.249 72.0737C189.481 73.8032 189.875 76.4716 189.826 79.4364C191.551 75.335 193.918 72.2714 197.615 72.6667C202.595 73.2102 202.841 76.4222 202.299 84.1308C201.954 88.8252 198.108 101.574 196.235 107.702C195.988 108.443 195.791 109.085 195.644 109.629C195.496 110.123 195.348 110.617 195.2 111.21C193.622 116.695 190.911 125.837 185.291 135.176C178.931 145.701 169.367 149.852 164.19 151.384C160.197 152.669 154.922 153.015 149.943 153.015ZM164.881 88.5781C165.571 89.4676 166.064 90.6536 166.458 91.6913C167.099 93.3714 168.331 94.8044 169.416 95.0515C169.958 95.1997 170.451 95.0021 170.994 94.5574C171.98 93.6185 172.128 91.3454 171.29 89.5664C170.944 88.8252 170.156 87.5404 168.726 87.6887C168.233 87.7381 167.543 87.9358 166.853 88.1335C166.261 88.2323 165.571 88.4299 164.881 88.5781Z" fill="#141414"/>
<path d="M136.385 140.909L134.413 151.237L140.477 151.385L142.696 141.304L136.385 140.909Z" fill="#141414"/>
</g>
<path d="M160.507 41.8143L160.33 42.0635L162.508 43.6249L162.686 43.3758L160.507 41.8143Z" fill="#141414"/>
<path d="M176.254 20.8608L175.897 21.3594L178.074 22.9232L178.431 22.4247L176.254 20.8608Z" fill="#141414"/>
<path d="M61.4403 180.227L60.8608 181.038L63.0372 182.602L63.6167 181.792L61.4403 180.227Z" fill="#141414"/>
<path d="M67.8237 10.0422L65.3863 11.1543L65.5765 11.5732L68.0139 10.4611L67.8237 10.0422Z" fill="#141414"/>
<path d="M159.672 212.931L157.236 214.044L157.299 214.184L159.736 213.071L159.672 212.931Z" fill="#141414"/>
<path d="M148.555 188.875L146.114 189.979L146.46 190.748L148.901 189.645L148.555 188.875Z" fill="#141414"/>
<path d="M27.0297 102.741L26.7644 105.412L27.6018 105.495L27.8671 102.824L27.0297 102.741Z" fill="#141414"/>
<path d="M1.65241 100.252L1.41553 102.926L1.56828 102.94L1.80516 100.266L1.65241 100.252Z" fill="#141414"/>
<path d="M222.64 121.328L222.374 124L222.831 124.045L223.097 121.374L222.64 121.328Z" fill="#141414"/>
<path d="M121.597 1.20786L121.538 1.81836L124.203 2.07748L124.263 1.46697L121.597 1.20786Z" fill="#141414"/>
<path d="M102.849 223.236L100.172 223.159L102.849 223.236Z" fill="#141414"/>
<path d="M102.664 197.08L102.575 197.996L105.24 198.257L105.33 197.341L102.664 197.08Z" fill="#141414"/>
<path d="M188.899 75.6287L188.552 75.791L189.686 78.2227L190.032 78.0603L188.899 75.6287Z" fill="#141414"/>
<path d="M213.029 64.9454L212.473 65.2031L213.598 67.6391L214.154 67.3814L213.029 64.9454Z" fill="#141414"/>
<path d="M11.5724 159.89L10.5779 157.359L11.5724 159.89Z" fill="#141414"/>
<path d="M34.6176 146.276L33.7835 146.661L34.904 149.099L35.738 148.714L34.6176 146.276Z" fill="#141414"/>
<path d="M182.036 160.437L180.476 162.619L181.035 163.021L182.596 160.839L182.036 160.437Z" fill="#141414"/>
<path d="M203.366 176.031L201.805 178.213L202.054 178.392L203.614 176.21L203.366 176.031Z" fill="#141414"/>
<path d="M22.7525 46.3322L21.1921 48.5137L21.4409 48.6925L23.0013 46.511L22.7525 46.3322Z" fill="#141414"/>
<path d="M43.5139 60.8573L41.9537 63.0391L42.5135 63.4413L44.0737 61.2595L43.5139 60.8573Z" fill="#141414"/>
</g>
</svg>
