<svg width="230" height="297" viewBox="0 0 230 297" fill="none" xmlns="http://www.w3.org/2000/svg">
<path d="M230 141.374C230 139.267 229.829 136.99 229.089 135.453C228.064 133.232 226.925 132.492 225.501 131.125C222.768 128.506 226.241 127.083 228.405 117.518C230.74 107.041 221.401 102.202 217.415 100.664C216.617 100.38 216.275 99.4116 216.731 98.7284C219.749 93.718 219.977 88.4228 217.13 84.0387C211.15 74.701 205 67.8117 192.699 67.8117C183.531 67.8117 177.722 73.9609 177.153 74.6441C175.273 76.6938 168.155 78.0034 163.656 78.0603C162.688 78.0603 162.46 77.5479 163.03 76.58C167.187 69.6337 167.585 65.4773 167.813 61.3779C168.041 57.677 167.244 53.9761 164.567 50.7877C157.905 42.9304 145.148 40.0835 135.638 39.0586C130.285 38.4893 124.078 38.0907 119.066 37.806C117.244 37.6922 115.706 36.3826 115.308 34.6176C113.77 27.8991 112.745 23.7427 112.346 21.8637C107.563 0.854065 93.8386 0 89.112 0C76.7544 0 68.5538 10.9888 66.219 21.1805C65.8204 22.8886 65.0799 25.7354 64.1118 29.5502C63.5993 31.4861 61.7203 32.6817 59.784 32.397C55.6838 31.7707 21.0026 27.5574 10.6382 41.6778C8.70199 44.3538 7.73382 47.9977 8.58803 51.8694C10.752 61.7195 17.5858 71.171 28.0072 77.0355C32.7908 79.7115 36.6633 81.4196 44.9207 83.5832C45.8319 83.811 46.5151 84.665 46.4581 85.6329L46.3444 95.483C46.3444 96.2802 45.6609 96.9065 44.8067 96.9065C43.8386 96.8495 42.6997 96.7925 42.5858 96.7925C39.5106 96.7925 36.7202 98.6145 35.4674 101.404C34.1576 104.365 34.8409 107.895 37.1758 110.173L44.9207 117.631C45.6041 118.315 46.0026 119.226 46.0026 120.194L45.9456 126.571C45.9456 127.14 45.4332 127.652 44.8637 127.595C41.1621 127.538 28.6337 127.937 19.2943 136.307C18.8387 136.762 18.1553 136.933 17.5289 136.819C13.9982 136.364 8.07556 135.68 7.79083 135.68C4.82956 135.68 2.21014 137.332 0.8434 139.951C-0.637234 142.854 -0.124929 146.385 2.03907 148.719C3.57666 150.37 5.9115 152.705 8.58803 155.267C9.21446 155.893 9.55625 156.69 9.55625 157.544C9.38541 163.124 10.2967 174.17 24.4766 186.696C25.3878 187.493 26.0142 188.461 26.4698 189.543C31.4242 201.499 43.497 209.584 51.9821 212.374C52.9502 212.716 53.4628 213.741 53.1211 214.652C52.153 217.669 51.2988 219.605 50.6154 220.858C49.3056 223.249 46.1164 225.811 42.4718 228.772C34.4422 235.263 23.5083 244.145 20.547 261.397C19.5789 267.034 18.6109 275.517 24.6473 280.983C32.3352 287.986 52.8362 293.111 82.0503 293.452C82.0503 293.452 92.5856 294.135 97.9956 287.018C98.2234 286.734 98.679 286.734 98.9068 287.018C104.658 294.591 118.724 302.961 135.866 291.004C147.141 283.09 160.467 265.212 163.884 261.34C172.198 251.775 171.287 236.629 164.966 230.423C153.007 218.637 138.428 223.534 128.064 229.683C127.381 230.082 126.526 229.683 126.356 228.943C123.907 215.677 116.219 204.972 113.485 201.272C113.03 200.645 113.201 199.791 113.827 199.336C118.668 196.033 121.914 191.649 123.337 186.411C123.679 185.215 124.362 184.191 125.33 183.507L128.69 181.059C131.367 179.123 132.563 175.65 131.595 172.518C130.968 170.412 129.488 168.704 127.552 167.793C126.811 167.451 126.412 166.654 126.526 165.857C126.697 164.718 126.868 163.522 127.096 162.27C127.267 161.245 128.007 160.448 129.032 160.277C145.433 157.316 156.31 150.142 162.46 146.441C168.838 142.57 172.312 140.577 178.463 140.463C182.278 140.406 187.973 141.659 193.838 142.968C198.451 143.993 198.337 147.523 201.412 151.338C204.487 155.153 208.075 157.43 212.403 157.487C214.909 157.544 225.16 156.405 229.203 147.409C229.829 145.474 230 143.196 230 141.374ZM95.4899 259.176C95.2052 259.916 94.2941 260.087 93.8385 259.461C90.8773 255.475 84.2713 247.276 74.1346 242.778C73.3374 242.437 73.0526 241.412 73.5652 240.672C83.474 227.121 84.4423 220.232 83.1325 206.225C83.1325 205.94 83.3602 205.713 83.645 205.713C84.2145 205.77 84.9546 205.77 85.4671 205.826C85.8088 205.826 86.0938 205.997 86.2646 206.282C89.5676 211.406 93.269 219.093 94.1233 220.63C97.8818 227.861 99.5333 237.996 98.9638 246.309C98.5082 252.287 96.4011 257.127 95.4899 259.176Z" fill="#F3EAD4"/>
<path d="M65.7632 190.568C64.5673 200.133 62.0046 216.246 57.3918 224.502C51.5263 234.978 31.9364 240.33 28.1779 262.536C25.8431 276.314 31.8794 277.567 41.7883 280.243C51.2416 282.805 66.845 285.367 82.05 285.538C88.7698 285.595 93.2119 283.147 93.041 277.624C92.7563 270.279 88.2574 264.244 82.7335 258.265C75.1025 250.01 61.72 243.747 51.2416 250.01C60.8658 244.259 65.5922 240.216 72.1412 227.918C77.722 217.499 74.647 205.086 74.8748 194.496" fill="#6FA467"/>
<path d="M82.2783 286.506C82.1644 286.506 82.1074 286.506 81.9935 286.506C65.9343 286.335 50.1598 283.545 41.5038 281.211L40.7066 280.983C31.1394 278.364 24.8182 276.656 27.21 262.422C29.7156 247.732 39.1121 240.102 46.6861 233.953C50.9002 230.537 54.5447 227.576 56.5379 224.046C61.0937 215.847 63.6563 199.506 64.7953 190.453C64.8522 189.941 65.3647 189.542 65.8772 189.599C66.3898 189.656 66.7884 190.169 66.7314 190.681C65.3078 201.898 62.6882 216.929 58.2463 224.957C56.0823 228.829 52.1529 232.017 47.9388 235.434C40.2509 241.64 31.5379 248.7 29.1461 262.706C26.9821 275.289 31.7658 276.542 41.2191 279.104L42.0163 279.332C50.5584 281.666 66.1619 284.399 82.0503 284.57C85.9796 284.627 88.9411 283.773 90.5357 282.065C91.6177 280.983 92.13 279.503 92.0731 277.624C91.8453 270.848 87.8589 265.268 82.0503 258.892C74.3054 250.465 61.4354 244.999 51.7544 250.807C51.2988 251.091 50.7291 250.92 50.4444 250.465C50.1597 250.009 50.3306 249.44 50.7862 249.155C59.9547 243.632 64.6244 239.932 71.2872 227.462C75.2166 220.061 74.7042 211.634 74.1916 203.435C74.0208 200.304 73.8499 197.4 73.8499 194.496C73.8499 193.984 74.3056 193.528 74.8181 193.585C75.3306 193.585 75.7863 194.041 75.7293 194.553C75.6724 197.343 75.8432 200.247 76.0141 203.321C76.5266 211.748 77.0391 220.516 72.8819 228.373C67.9845 237.597 64.055 242.266 58.0186 246.65C67.0163 245.568 76.8682 250.579 83.3602 257.582C88.6563 263.333 93.6108 269.766 93.8955 277.51C94.0094 279.901 93.269 281.837 91.8453 283.317C89.9661 285.481 86.6632 286.506 82.2783 286.506Z" fill="#141414"/>
<path d="M55.7974 247.732C51.9249 249.554 49.2483 250.977 46.0023 253.71L55.7974 247.732Z" fill="#6FA467"/>
<path d="M45.9455 254.678C45.6608 254.678 45.3762 254.565 45.2053 254.337C44.8636 253.938 44.9204 253.312 45.319 252.97C48.7928 250.01 51.6972 248.586 55.3419 246.821C55.7974 246.594 56.367 246.821 56.5948 247.277C56.8226 247.732 56.5947 248.302 56.1391 248.529C52.6083 250.181 49.818 251.604 46.515 254.394C46.4011 254.622 46.1733 254.678 45.9455 254.678Z" fill="#141414"/>
<path d="M43.9522 271.247C53.918 275.118 63.1436 276.656 77.7222 277.168L43.9522 271.247Z" fill="#6FA467"/>
<path d="M77.6653 278.079C62.5742 277.51 53.3488 275.916 43.5538 272.101C43.0413 271.93 42.8135 271.361 42.9843 270.848C43.1552 270.336 43.7245 270.108 44.237 270.279C53.8042 273.98 62.8589 275.574 77.6653 276.143C78.1778 276.143 78.6334 276.599 78.5765 277.111C78.6334 277.681 78.1778 278.079 77.6653 278.079Z" fill="#141414"/>
<path d="M75.5012 204.175L63.5423 201.955L64.5675 194.268L75.1598 196.83L75.5012 204.175Z" fill="#141414"/>
<path d="M83.7584 191.137C92.1297 199.165 95.2619 206.225 100.957 216.986C106.139 226.893 107.506 241.241 106.31 252.97C100.558 265.382 98.2232 277.225 108.36 285.652C113.941 290.321 122.767 290.492 131.31 284.513C141.503 277.396 150.33 264.813 157.904 256.102C163.827 249.326 162.517 238.907 159.385 235.832C147.255 223.933 130.74 236.857 124.134 241.412C117.528 245.967 124.761 241.071 120.547 243.69C119.977 232.53 116.162 220.232 110.638 211.463C105.74 203.72 102.665 198.653 97.2551 191.991" fill="#6FA467"/>
<path d="M118.098 290.036C114.226 290.036 110.638 288.84 107.734 286.392C96.2872 276.827 100.445 263.39 105.342 252.685C106.31 242.38 105.456 227.747 100.046 217.442C99.4193 216.246 98.8498 215.107 98.2803 214.025C93.7245 205.2 90.4217 198.88 83.0755 191.877C82.6769 191.535 82.6768 190.909 83.0185 190.511C83.3602 190.112 83.9865 190.112 84.3852 190.454C91.9592 197.685 95.3192 204.175 99.932 213.114C100.501 214.196 101.071 215.335 101.697 216.531C107.335 227.292 108.246 242.437 107.164 253.027C107.164 253.141 107.107 253.255 107.107 253.312C100.16 268.286 100.729 278.022 108.873 284.855C114.453 289.524 122.996 289.011 130.627 283.659C138.144 278.421 144.977 269.994 151.071 262.593C153.178 260.03 155.171 257.582 157.107 255.418C162.688 249.042 161.435 239.191 158.645 236.458C147.882 225.868 133.132 236.174 126.071 241.127C125.558 241.469 125.103 241.811 124.647 242.095C123.053 243.177 122.255 243.747 121.914 243.974C121.857 243.974 121.857 244.031 121.8 244.031C121.8 244.031 121.8 244.031 121.743 244.031L121.686 244.088C121.458 244.202 121.287 244.259 121.116 244.259C121.059 244.316 121.003 244.316 120.946 244.373C120.661 244.544 120.319 244.544 119.977 244.43C119.693 244.259 119.465 243.974 119.465 243.633C118.895 232.701 115.194 220.516 109.727 211.862L108.531 209.926C104.374 203.321 101.356 198.539 96.4011 192.503C96.0595 192.105 96.1165 191.479 96.5151 191.137C96.9138 190.795 97.5401 190.852 97.8818 191.251C102.893 197.4 105.911 202.24 110.126 208.901L111.321 210.837C116.675 219.321 120.433 231.107 121.287 241.981C121.401 241.925 121.458 241.924 121.572 241.867C122.028 241.583 122.654 241.127 123.508 240.558C123.964 240.273 124.419 239.932 124.932 239.59C132.449 234.352 148.053 223.42 159.955 235.092C163.258 238.337 164.852 249.383 158.474 256.671C156.538 258.835 154.601 261.283 152.494 263.845C146.344 271.361 139.396 279.844 131.709 285.253C127.381 288.442 122.54 290.036 118.098 290.036Z" fill="#141414"/>
<path d="M150.786 244.828C134.157 250.123 123.451 262.706 118.667 276.77L150.786 244.828Z" fill="#6FA467"/>
<path d="M118.667 277.738C118.554 277.738 118.44 277.738 118.383 277.681C117.87 277.51 117.642 276.941 117.813 276.485C123.166 260.714 135.125 248.871 150.558 243.974C151.071 243.803 151.583 244.088 151.754 244.6C151.925 245.113 151.64 245.625 151.128 245.796C136.264 250.522 124.761 261.966 119.635 277.111C119.408 277.51 119.066 277.738 118.667 277.738Z" fill="#141414"/>
<path d="M120.547 243.12C120.66 245.284 120.831 247.789 121.002 249.953L120.547 243.12Z" fill="#6FA467"/>
<path d="M121.002 250.864C120.49 250.864 120.091 250.465 120.034 249.953L119.92 248.586C119.749 246.707 119.636 244.771 119.522 243.063C119.522 242.551 119.92 242.095 120.433 242.038C120.945 242.038 121.401 242.437 121.458 242.949C121.514 244.657 121.685 246.536 121.799 248.415L121.913 249.782C121.97 250.294 121.571 250.75 121.059 250.807C121.059 250.864 121.059 250.864 121.002 250.864Z" fill="#141414"/>
<path d="M106.537 250.864C106.423 253.71 106.424 259.803 106.367 262.649L106.537 250.864Z" fill="#6FA467"/>
<path d="M106.367 263.617C106.31 263.617 106.31 263.617 106.367 263.617C105.797 263.617 105.399 263.162 105.399 262.649C105.456 261.34 105.456 259.347 105.456 257.24C105.456 254.849 105.513 252.401 105.57 250.863C105.57 250.351 106.025 249.896 106.537 249.953C107.05 249.953 107.505 250.408 107.448 250.92C107.391 252.458 107.392 254.906 107.335 257.24C107.335 259.347 107.278 261.34 107.278 262.706C107.278 263.219 106.879 263.617 106.367 263.617Z" fill="#141414"/>
<path d="M104.317 201.784L94.6926 204.346L90.2508 198.425L100.9 196.489L104.317 201.784Z" fill="#141414"/>
<path d="M119.977 153.387C125.615 152.989 132.733 151.85 140.706 148.662C161.72 140.235 165.194 130.67 183.075 132.776C187.46 133.289 196.458 135.282 203.007 137.331C211.492 139.95 218.155 133.061 208.53 125.033C205 122.129 196.344 119.339 191.389 118.258C196.799 118.941 207.107 120.82 211.777 120.934C222.027 121.218 224.02 111.994 215.934 108.464C208.018 105.048 198.849 105.902 190.763 107.383C197.426 104.763 203.064 102.714 208.132 97.2478C215.877 88.8781 208.132 83.2983 199.704 86.0312C190.421 89.0489 184.157 94.5718 179.089 102.144C176.355 97.1339 175.672 93.3192 170.66 89.1058C163.656 83.2414 154.943 85.0633 156.765 96.5645C157.619 101.86 161.606 105.162 161.89 111.197C162.175 117.176 159.67 121.958 156.253 126.229C150.501 133.46 143.724 138.128 136.378 141.146C130.399 143.651 125.33 144.391 121.23 144.79" fill="#6FA467"/>
<path d="M119.977 154.355C119.465 154.355 119.066 153.957 119.009 153.444C118.952 152.932 119.351 152.477 119.92 152.42C127.153 151.907 133.873 150.37 140.365 147.751C147.996 144.676 153.235 141.545 157.847 138.755C165.82 133.915 171.572 130.442 183.246 131.809C187.859 132.378 197.084 134.428 203.348 136.363C207.107 137.502 210.695 136.705 211.948 134.371C213.2 132.036 211.72 128.791 207.961 125.716C204.658 122.983 196.173 120.193 191.219 119.112C190.706 118.998 190.422 118.542 190.479 118.03C190.592 117.517 191.048 117.176 191.56 117.233C193.44 117.46 195.945 117.859 198.622 118.258C203.405 118.998 208.873 119.795 211.834 119.909C217.016 120.08 219.408 117.688 219.92 115.582C220.49 113.133 218.781 110.685 215.592 109.262C207.676 105.788 198.28 106.927 190.991 108.237C190.478 108.351 190.023 108.009 189.909 107.553C189.795 107.098 190.023 106.586 190.479 106.415L191.276 106.073C197.426 103.682 202.779 101.575 207.506 96.5077C210.296 93.49 211.15 90.6432 209.897 88.6505C208.36 86.2591 204.26 85.5189 200.103 86.8854C191.731 89.6183 185.353 94.6288 180 102.6C179.829 102.885 179.487 103.055 179.146 102.999C178.804 102.999 178.519 102.771 178.349 102.486C177.608 101.12 176.982 99.867 176.412 98.6144C174.932 95.4259 173.622 92.6929 170.091 89.6753C166.674 86.7715 162.802 85.8605 160.296 87.284C157.962 88.5935 157.05 91.7819 157.79 96.223C158.132 98.4435 159.1 100.322 160.125 102.258C161.435 104.82 162.802 107.44 162.916 110.913C163.2 118.03 159.727 123.268 157.05 126.57C151.583 133.403 144.977 138.356 136.834 141.772C130.513 144.392 125.273 145.132 121.401 145.473C120.889 145.53 120.433 145.132 120.376 144.619C120.319 144.107 120.718 143.651 121.23 143.594C124.989 143.253 130.057 142.57 136.094 140.007C143.952 136.762 150.33 131.922 155.57 125.375C159.556 120.421 161.207 115.98 160.98 110.97C160.866 107.895 159.67 105.561 158.36 103.112C157.335 101.063 156.253 99.0129 155.854 96.5077C154.715 89.3906 157.506 86.6007 159.328 85.6328C162.574 83.8108 167.244 84.8357 171.344 88.1949C175.217 91.4403 176.64 94.515 178.178 97.7603C178.52 98.5575 178.918 99.2976 179.317 100.152C184.727 92.5221 191.219 87.6825 199.533 84.9496C204.601 83.2984 209.499 84.3802 211.549 87.5117C213.314 90.3016 212.403 94.0025 208.986 97.7034C205.684 101.233 202.21 103.397 198.394 105.162C204.317 104.65 210.695 104.877 216.446 107.383C220.49 109.148 222.597 112.45 221.856 115.866C221.23 118.656 218.269 121.845 211.891 121.674C209.784 121.617 206.538 121.218 203.178 120.706C205.626 121.731 207.847 122.869 209.328 124.065C213.827 127.823 215.478 131.922 213.77 135.111C212.062 138.242 207.62 139.438 202.95 138.015C196.116 135.908 187.232 133.972 183.189 133.517C172.198 132.207 166.959 135.396 159.043 140.178C154.374 143.025 149.078 146.214 141.333 149.345C134.613 152.021 127.779 153.615 120.319 154.128C120.034 154.356 119.977 154.355 119.977 154.355Z" fill="#141414"/>
<path d="M179.486 108.635C179.259 112.336 177.835 115.183 175.843 116.891L179.486 108.635Z" fill="#6FA467"/>
<path d="M175.843 117.802C175.558 117.802 175.273 117.688 175.103 117.46C174.761 117.062 174.818 116.436 175.216 116.094C177.153 114.5 178.292 111.824 178.519 108.521C178.576 108.009 179.032 107.61 179.544 107.61C180.057 107.667 180.456 108.123 180.456 108.635C180.171 112.45 178.747 115.582 176.469 117.517C176.241 117.745 176.014 117.802 175.843 117.802Z" fill="#141414"/>
<path d="M183.986 117.404C181.082 115.923 176.412 115.183 172.938 119.226L183.986 117.404Z" fill="#6FA467"/>
<path d="M172.938 120.193C172.711 120.193 172.483 120.136 172.312 119.966C171.913 119.624 171.856 118.998 172.198 118.599C175.843 114.329 180.911 114.784 184.385 116.549C184.84 116.777 185.011 117.346 184.784 117.859C184.556 118.314 183.986 118.485 183.474 118.258C180.626 116.777 176.526 116.435 173.622 119.852C173.508 120.079 173.223 120.193 172.938 120.193Z" fill="#141414"/>
<path d="M127.437 143.652L125.9 152.989L120.148 153.786L121.458 144.62L127.437 143.652Z" fill="#141414"/>
<path d="M85.1821 198.026C71.6856 197.4 53.5763 192.845 53.0068 177.301L54.3738 75.1565C55.5697 57.677 75.1594 44.7523 92.5853 45.948L94.8065 46.1188C112.232 47.3145 133.018 63.029 131.765 80.5086C131.765 80.5086 117.756 170.07 116.105 182.312C114.453 194.553 98.6787 198.652 85.1821 198.026Z" fill="#6FA467"/>
<path d="M87.8019 199.051C86.8908 199.051 85.9798 199.051 85.1256 198.994C79.26 198.709 70.8318 197.685 63.7703 194.154C56.2532 190.34 52.2668 184.703 51.982 177.358L53.3487 75.1565C53.9182 66.5591 58.7018 58.6449 66.7884 52.7804C74.4193 47.2575 83.8156 44.4107 92.5855 45.037L94.8066 45.2078C103.634 45.8341 113.371 50.0474 120.831 56.5382C129.032 63.6553 133.246 72.1958 132.677 80.6225V80.6794C132.563 81.5904 118.668 170.355 117.016 182.425C115.422 194.781 100.843 199.051 87.8019 199.051ZM90.4216 46.859C74.6471 46.859 56.4808 58.6449 55.3419 75.2135L53.9752 177.301C54.6016 193.87 76.0708 196.66 85.2393 197.058C86.0935 197.115 86.9477 197.115 87.8019 197.115C100.843 197.115 113.77 192.617 115.194 182.141C116.788 170.127 130.456 82.7292 130.854 80.3948C131.367 72.5944 127.437 64.6233 119.693 57.9047C112.517 51.6986 103.235 47.656 94.7496 47.0297L92.5287 46.859C91.8454 46.9159 91.1049 46.859 90.4216 46.859Z" fill="#141414"/>
<path d="M121.515 123.667L137.46 123.268L121.344 134.826" fill="#6FA467"/>
<path d="M121.344 135.794C121.059 135.794 120.775 135.68 120.547 135.395C120.262 134.94 120.319 134.371 120.774 134.086L134.385 124.293L121.515 124.634C121.002 124.634 120.547 124.236 120.547 123.723C120.547 123.211 120.945 122.755 121.458 122.755L137.403 122.357C137.802 122.357 138.201 122.585 138.314 122.983C138.428 123.382 138.314 123.837 137.973 124.065L121.857 135.623C121.743 135.737 121.515 135.794 121.344 135.794Z" fill="#141414"/>
<path d="M107.05 173.942L124.077 174.568L109.1 185.329" fill="#6FA467"/>
<path d="M109.1 186.297C108.816 186.297 108.531 186.184 108.303 185.899C108.018 185.443 108.075 184.874 108.531 184.589L121.23 175.423L106.993 174.91C106.481 174.91 106.025 174.455 106.082 173.942C106.082 173.43 106.538 172.974 107.05 173.031L124.078 173.601C124.476 173.601 124.818 173.885 124.932 174.284C125.046 174.682 124.932 175.081 124.59 175.309L109.613 186.07C109.499 186.241 109.328 186.297 109.1 186.297Z" fill="#141414"/>
<path d="M87.46 161.757L99.8747 160.846L90.2506 170.753" fill="#6FA467"/>
<path d="M90.2509 171.721C90.0231 171.721 89.7952 171.607 89.5675 171.437C89.1688 171.095 89.1688 170.469 89.5675 170.07L97.4261 161.985L87.5173 162.725C87.0048 162.782 86.5493 162.384 86.4923 161.814C86.4354 161.302 86.8341 160.846 87.4036 160.79L99.818 159.879C100.217 159.822 100.615 160.049 100.729 160.448C100.9 160.79 100.843 161.245 100.558 161.53L90.9341 171.437C90.7064 171.607 90.4787 171.721 90.2509 171.721Z" fill="#141414"/>
<path d="M55.7404 117.119L42.5855 104.365L55.8541 105.276" fill="#6FA467"/>
<path d="M55.7408 118.087C55.513 118.087 55.2851 117.973 55.0573 117.802L41.8456 105.049C41.5609 104.764 41.4468 104.365 41.6176 103.967C41.7885 103.625 42.1302 103.397 42.5288 103.397L55.7978 104.309C56.3103 104.365 56.7087 104.821 56.7087 105.333C56.7087 105.846 56.1963 106.244 55.6838 106.244L45.0345 105.504L56.3673 116.436C56.7659 116.778 56.7659 117.404 56.3673 117.802C56.2534 117.973 56.0255 118.087 55.7408 118.087Z" fill="#141414"/>
<path d="M56.4808 65.1356C56.4808 65.1356 69.7495 62.8581 84.0433 67.0145C94.2369 69.9752 99.2485 72.9928 101.925 76.0105C95.7747 74.1316 88.4285 71.3986 79.4308 70.6584C60.809 69.1781 53.9182 78.9713 53.9182 78.9713L56.4808 65.1356Z" fill="#141414"/>
<path d="M113.827 62.4594C113.827 62.4594 106.253 30.0623 104.772 23.6285C103.292 17.1377 97.5398 8.08478 89.5672 7.8001C81.5376 7.51541 75.615 15.2588 73.8496 22.9453C72.0842 30.6317 65.1367 55.5131 65.1367 55.5131L113.827 62.4594Z" fill="#FC9B59"/>
<path d="M113.827 63.3706C113.77 63.3706 113.713 63.3706 113.713 63.3706L65.023 56.3673C64.7383 56.3104 64.5107 56.1965 64.3398 55.9688C64.169 55.741 64.1689 55.4563 64.2258 55.1716C64.2828 54.9439 71.1735 30.2333 72.882 22.6607C74.7612 14.5757 81.0823 6.49069 89.5675 6.77537C98.1665 7.06005 104.146 16.6254 105.683 23.344C107.164 29.7209 114.624 61.8902 114.738 62.1749C114.795 62.4596 114.738 62.8012 114.51 63.0289C114.34 63.2567 114.112 63.3706 113.827 63.3706ZM66.333 54.6592L112.574 61.2638C111.094 55.0577 105.114 29.4362 103.861 23.7995C102.495 17.7072 97.0845 8.99592 89.5105 8.71124C82.0503 8.42655 76.4695 15.7714 74.7611 23.1162C73.2235 29.8347 67.6997 49.8196 66.333 54.6592Z" fill="#141414"/>
<path d="M109.784 45.1509L112.403 58.9865C112.403 58.9865 122.54 65.6481 138.428 66.3313C147.312 66.7299 151.469 65.4773 153.234 64.6232C154.943 63.8261 163.086 61.0362 158.644 55.798C155.114 51.6416 147.312 48.1116 134.84 46.8021C124.134 45.6633 109.784 45.1509 109.784 45.1509Z" fill="#FB7C26"/>
<path d="M141.56 67.3561C140.592 67.3561 139.567 67.3561 138.428 67.2991C122.483 66.6159 112.346 60.1251 111.948 59.8404C111.72 59.7265 111.606 59.4988 111.549 59.2141L108.929 45.3785C108.873 45.0938 108.929 44.8091 109.157 44.5814C109.328 44.3536 109.613 44.2397 109.898 44.2397C110.069 44.2397 124.419 44.7521 135.068 45.8909C146.743 47.1435 155.399 50.4458 159.499 55.2285C160.809 56.7658 161.264 58.3031 160.922 59.7265C160.239 62.7442 156.253 64.3953 154.373 65.2494C154.146 65.3632 153.918 65.4202 153.747 65.534C152.096 66.2173 148.622 67.3561 141.56 67.3561ZM113.315 58.417C115.194 59.5557 124.704 64.7939 138.485 65.3633C147.597 65.7618 151.526 64.3953 152.836 63.769C153.007 63.7121 153.235 63.5982 153.519 63.4843C155 62.858 158.474 61.3207 158.986 59.271C159.214 58.417 158.872 57.449 157.961 56.4242C155.797 53.862 149.932 49.364 134.841 47.7698C126.071 46.8588 114.681 46.3464 111.037 46.1755L113.315 58.417Z" fill="#141414"/>
<path d="M49.0204 39.1723C31.2528 38.7168 20.8884 40.8235 16.9021 46.2325C14.6242 49.307 16.5034 59.1571 32.5056 70.6583C34.4988 69.0641 42.6994 66.1034 53.1777 66.5019C89.9658 67.9823 111.093 81.8748 130.911 82.8428C141.617 83.3552 158.929 81.0208 159.67 60.2389C159.67 60.2389 156.367 65.5909 140.934 66.388C117.358 67.5837 85.1251 40.1402 49.0204 39.1723Z" fill="#FC9B59"/>
<path d="M133.417 83.8678C132.506 83.8678 131.651 83.8678 130.854 83.8109C122.426 83.4123 113.884 80.7363 103.975 77.6048C90.1366 73.2776 74.4193 68.3241 53.1779 67.47C43.1551 67.0714 35.0685 69.8614 33.1893 71.3987C32.8476 71.6833 32.392 71.6833 32.0503 71.4556C18.3829 61.6625 15.8204 53.7483 15.3648 50.7876C15.0231 48.6809 15.3079 46.8589 16.219 45.7202C20.3192 40.1404 30.7975 37.749 49.1346 38.2615C68.5536 38.7739 86.8906 46.9158 103.121 54.0899C117.642 60.5237 130.171 66.0466 140.991 65.5341C155.569 64.794 158.929 59.8974 158.986 59.8405C159.214 59.4988 159.67 59.3281 160.068 59.4419C160.467 59.5558 160.752 59.9544 160.752 60.3529C160.524 67.6978 158.189 73.5053 153.804 77.4909C147.995 82.6152 139.909 83.8678 133.417 83.8678ZM51.1847 65.5341C51.8681 65.5341 52.4945 65.5342 53.1779 65.5911C74.6471 66.4452 90.4785 71.3986 104.488 75.7828C114.283 78.8573 122.711 81.5334 130.911 81.932C137.403 82.2736 146.401 81.4765 152.324 76.0105C155.797 72.8221 157.847 68.3241 158.474 62.6304C156.082 64.3954 150.957 66.8437 140.934 67.3562C129.658 67.9255 116.959 62.2888 102.21 55.798C86.1505 48.6809 67.9843 40.6528 48.9638 40.1403C31.3101 39.6849 21.3443 41.7916 17.6427 46.802C17.0732 47.5422 16.9022 48.9086 17.13 50.4459C17.5286 53.1219 19.9204 60.296 32.5058 69.4628C35.1823 67.8686 42.3009 65.5341 51.1847 65.5341Z" fill="#141414"/>
<path d="M54.3168 77.8325C39.5104 74.4732 32.5057 70.6584 32.5057 70.6584C32.5057 70.6584 42.9842 65.0787 57.1071 66.7298C55.2848 70.0891 54.6015 74.7579 54.3168 77.8325Z" fill="#FB7C26"/>
<path d="M54.317 78.8004C54.26 78.8004 54.2031 78.8004 54.0892 78.8004C39.3398 75.4411 32.3352 71.6833 32.0504 71.5694C31.7657 71.3986 31.538 71.057 31.538 70.7154C31.538 70.3737 31.7088 70.0321 32.0504 69.8613C32.506 69.6336 42.9845 64.1106 57.2213 65.8187C57.563 65.8757 57.7907 66.0465 57.9615 66.3312C58.1324 66.6159 58.0754 66.9575 57.9615 67.2422C56.0823 70.5445 55.5127 75.3841 55.2849 77.9463C55.2849 78.231 55.1142 78.4587 54.8864 78.6295C54.7725 78.7434 54.5447 78.8004 54.317 78.8004ZM34.7838 70.7154C37.6312 71.968 43.7817 74.4162 53.4627 76.6937C53.7475 73.9038 54.3738 70.4307 55.6266 67.5838C46.0025 66.7298 38.2007 69.2919 34.7838 70.7154Z" fill="#141414"/>
<path d="M99.1912 136.876C99.1912 136.876 97.7677 146.954 86.549 144.79C81.082 143.765 76.8677 138.186 78.0636 132.89C78.8039 132.663 79.3736 132.378 79.943 132.093C84.7836 136.193 92.4714 138.129 99.1912 136.876Z" fill="#F3EAD4"/>
<path d="M89.5105 146.043C88.5424 146.043 87.4604 145.929 86.3784 145.701C83.3033 145.132 80.4559 143.196 78.6905 140.463C77.096 138.015 76.5267 135.225 77.1531 132.606C77.21 132.264 77.4376 132.037 77.7793 131.923C78.4057 131.695 78.9752 131.467 79.5447 131.183C79.8864 131.012 80.285 131.069 80.6267 131.296C85.2394 135.225 92.6427 137.104 99.0209 135.908C99.3056 135.851 99.5903 135.908 99.8181 136.136C100.046 136.307 100.16 136.592 100.16 136.876C100.16 136.933 99.6472 141.033 96.3442 143.766C94.465 145.246 92.1871 146.043 89.5105 146.043ZM78.9182 133.574C78.6335 135.51 79.0893 137.616 80.2852 139.438C81.7658 141.716 84.1575 143.367 86.7202 143.823C89.9662 144.449 92.6426 144.05 94.6358 142.627C96.5151 141.317 97.4263 139.325 97.8819 138.015C91.5038 138.755 84.4991 136.933 79.8295 133.175C79.5447 133.346 79.2599 133.46 78.9182 133.574Z" fill="#141414"/>
<path d="M101.355 140.064C101.184 140.064 100.956 140.007 100.842 139.894C100.728 139.837 98.6218 138.356 97.8247 135.168C97.7108 134.655 97.9956 134.143 98.508 134.029C99.0205 133.915 99.5329 134.2 99.6468 134.712C100.273 137.161 101.867 138.299 101.867 138.299C102.323 138.584 102.437 139.21 102.095 139.609C101.981 139.894 101.697 140.064 101.355 140.064Z" fill="#141414"/>
<path d="M74.818 134.655C74.3624 134.655 73.9637 134.314 73.9068 133.858C73.7929 133.346 74.1345 132.833 74.647 132.72C77.836 132.15 80.0002 131.125 81.0822 129.702C81.4239 129.303 81.9933 129.19 82.4489 129.531C82.8475 129.873 82.9613 130.442 82.6196 130.898C81.2529 132.72 78.7473 133.972 74.9887 134.655C74.9318 134.655 74.8749 134.655 74.818 134.655Z" fill="#141414"/>
<path d="M55.0568 135.737L57.9036 145.473L53.4627 149.914L53.6334 135.623L55.0568 135.737Z" fill="#141414"/>
<path d="M58.986 136.819C47.9952 134.656 31.4235 132.834 21.7425 144.79C10.9224 158.17 22.198 175.479 32.5055 183.166C34.7264 190.966 39.1684 195.635 43.7242 198.994C50.1593 203.72 60.296 209.3 65.1365 202.923C67.5853 199.677 65.8768 197.343 63.6559 194.952C67.0727 195.407 70.4895 195.179 71.8562 191.649C73.166 188.119 71.7425 184.76 68.8951 183.45C73.2231 185.443 83.5304 185.557 83.4735 176.618C83.4735 168.362 69.1796 166.255 59.2708 168.419C56.1956 169.102 54.2594 168.248 54.715 165.8C55.6831 160.334 57.7332 152.534 50.7287 151.281C41.5032 149.63 38.8269 163.579 38.4282 170.526C27.6082 166.369 25.2734 153.729 31.3098 148.434C40.3075 140.577 52.665 144.221 57.6764 144.619" fill="#6FA467"/>
<path d="M59.1003 206.737C53.6903 206.737 47.2552 202.809 43.098 199.734C37.2324 195.407 33.5308 190.283 31.6515 183.735C25.4442 179.009 17.8132 170.013 16.5604 159.821C15.8201 154.014 17.3009 148.719 21.0025 144.164C30.8544 131.979 47.4831 133.574 59.1573 135.908C59.6698 136.022 60.0114 136.534 59.8975 137.047C59.7836 137.559 59.2711 137.901 58.7585 137.787C47.5968 135.623 31.6517 134.029 22.4832 145.416C19.1233 149.516 17.8134 154.299 18.4398 159.594C19.5788 168.704 26.5834 177.586 33.0184 182.368C33.1893 182.482 33.303 182.653 33.3599 182.881C35.1253 189.144 38.5991 194.04 44.1799 198.197C48.6788 201.499 59.5559 208.502 64.2256 202.296C66.0479 199.848 65.3076 198.254 62.8019 195.578C62.5171 195.293 62.4601 194.838 62.6879 194.496C62.8587 194.154 63.2575 193.927 63.6561 193.984C67.7563 194.496 69.9204 193.699 70.8315 191.307C71.9135 188.404 70.8885 185.443 68.3259 184.304C67.8703 184.077 67.6424 183.507 67.8701 183.052C68.0979 182.596 68.6675 182.368 69.1231 182.596C71.5149 183.678 76.4693 184.304 79.6584 182.255C81.4807 181.059 82.3918 179.18 82.3918 176.675C82.3918 174.853 81.5947 173.315 80.0001 172.063C75.4443 168.419 65.9339 167.963 59.328 169.387C57.1071 169.842 55.3986 169.615 54.4305 168.647C53.918 168.134 53.3485 167.223 53.6333 165.629C53.6902 165.23 53.8041 164.832 53.861 164.376C54.5444 160.846 55.3418 156.462 53.6903 154.071C53.0069 153.103 51.925 152.477 50.3874 152.192C48.4512 151.85 46.7995 152.249 45.3189 153.388C41.3895 156.462 39.6243 164.262 39.2257 170.526C39.2257 170.81 39.0547 171.095 38.7699 171.266C38.4852 171.437 38.2004 171.437 37.9157 171.38C32.164 169.159 28.1208 164.433 27.1527 158.74C26.3554 154.356 27.6082 150.199 30.5125 147.694C38.3713 140.861 48.5651 142.399 54.6585 143.31C55.7974 143.481 56.8223 143.651 57.6196 143.708C58.1321 143.765 58.5308 144.221 58.4738 144.733C58.4169 145.246 57.9614 145.644 57.4489 145.587C56.5947 145.53 55.5697 145.359 54.3738 145.189C48.6221 144.335 38.9409 142.854 31.7655 149.174C29.3737 151.224 28.3488 154.697 29.0321 158.455C29.8294 163.124 32.9613 166.995 37.4032 169.159C37.7449 165.23 39.1688 155.836 44.1232 151.964C46.0594 150.484 48.2802 149.914 50.7289 150.37C52.779 150.712 54.2599 151.623 55.228 153.046C57.335 156.121 56.4238 160.903 55.6834 164.832C55.6265 165.23 55.5127 165.629 55.4557 166.028C55.3418 166.654 55.3987 167.052 55.6834 167.337C56.196 167.793 57.335 167.906 58.8726 167.565C66.1049 165.971 76.0708 166.54 81.1391 170.582C83.1892 172.234 84.2142 174.283 84.2712 176.675C84.2712 179.863 83.0182 182.368 80.6833 183.906C78.2346 185.5 74.9317 185.785 72.1982 185.386C73.2802 187.265 73.5081 189.656 72.597 192.048C71.3441 195.407 68.4397 196.147 65.7063 196.147C67.073 198.026 68.0411 200.531 65.7063 203.549C64.0548 205.826 61.7199 206.737 59.1003 206.737Z" fill="#141414"/>
<path d="M62.8588 181.173C64.8519 182.255 66.9588 182.824 68.952 183.394L62.8588 181.173Z" fill="#6FA467"/>
<path d="M68.9523 184.362C68.8384 184.362 68.7815 184.362 68.6676 184.305L68.3261 184.191C66.3899 183.621 64.3965 183.052 62.4033 181.97C61.9478 181.742 61.7771 181.116 62.0049 180.661C62.2327 180.205 62.859 180.034 63.3146 180.262C65.1369 181.23 67.0163 181.799 68.8386 182.312L69.1803 182.426C69.6928 182.596 69.9774 183.109 69.8635 183.621C69.7496 184.077 69.4079 184.362 68.9523 184.362Z" fill="#141414"/>
<path d="M57.7906 192.503C59.8407 193.813 62.0615 194.838 64.5102 194.951L57.7906 192.503Z" fill="#6FA467"/>
<path d="M64.5105 195.919C62.1187 195.806 59.8407 194.952 57.2781 193.3C56.8225 193.016 56.7086 192.446 56.9933 191.991C57.2781 191.535 57.8477 191.422 58.3033 191.706C60.5812 193.187 62.5744 193.927 64.5675 194.041C65.0801 194.098 65.4787 194.496 65.4787 195.065C65.4218 195.578 65.023 195.919 64.5105 195.919Z" fill="#141414"/>
<path d="M19.5217 154.64C15.1367 150.711 10.2961 146.099 7.79044 143.31C14.0547 144.05 19.1801 144.733 24.4762 145.473" fill="#6FA467"/>
<path d="M19.522 155.608C19.2942 155.608 19.0664 155.551 18.8955 155.38C14.2258 151.224 9.49936 146.612 7.10757 143.993C6.82283 143.708 6.76572 143.253 6.93656 142.911C7.1074 142.57 7.50615 142.342 7.90478 142.399C14.0551 143.139 19.1803 143.765 24.5903 144.619C25.1028 144.676 25.4444 145.189 25.3875 145.701C25.3305 146.214 24.8181 146.612 24.3055 146.498C19.6928 145.815 15.3078 145.246 10.2964 144.619C12.859 147.238 16.5038 150.712 20.1485 153.957C20.5471 154.299 20.5472 154.925 20.2055 155.324C20.0346 155.494 19.8067 155.608 19.522 155.608Z" fill="#141414"/>
<path d="M182.562 85.9748C182.448 85.9748 182.335 85.9179 182.221 85.8609C181.993 85.6901 181.993 85.3485 182.164 85.1207C182.449 84.836 188.884 77.7759 198.963 78.4591C199.248 78.4591 199.476 78.7438 199.419 79.0285C199.419 79.3132 199.134 79.5409 198.849 79.484C189.282 78.8007 182.961 85.6901 182.904 85.804C182.847 85.9179 182.733 85.9748 182.562 85.9748Z" fill="#141414"/>
<path d="M182.62 80.0531C182.506 80.0531 182.392 79.9962 182.278 79.9392C182.05 79.7684 182.05 79.4268 182.221 79.199C182.392 78.9713 186.777 74.1886 193.667 74.6441C193.952 74.6441 194.18 74.9288 194.123 75.2135C194.123 75.4981 193.838 75.7259 193.554 75.669C187.176 75.2135 182.961 79.8254 182.961 79.8823C182.904 79.9962 182.734 80.0531 182.62 80.0531Z" fill="#141414"/>
<path d="M207.107 146.555C206.936 146.555 206.765 146.555 206.594 146.555C206.31 146.555 206.082 146.328 206.082 146.043C206.082 145.758 206.31 145.531 206.594 145.531C217.073 145.815 221.572 137.503 221.628 137.389C221.742 137.161 222.084 137.047 222.312 137.161C222.54 137.275 222.654 137.616 222.54 137.844C222.483 138.015 217.87 146.555 207.107 146.555Z" fill="#141414"/>
<path d="M212.232 150.427C212.004 150.427 211.776 150.256 211.72 149.971C211.663 149.687 211.89 149.402 212.175 149.402C219.806 148.263 221.856 143.993 221.913 143.936C222.027 143.652 222.312 143.538 222.597 143.708C222.881 143.822 222.995 144.107 222.881 144.392C222.767 144.562 220.603 149.231 212.346 150.427C212.289 150.427 212.232 150.427 212.232 150.427Z" fill="#141414"/>
<path d="M76.64 120.592C85.7295 120.592 93.0981 113.225 93.0981 104.137C93.0981 95.0497 85.7295 87.6826 76.64 87.6826C67.5506 87.6826 60.1823 95.0497 60.1823 104.137C60.1823 113.225 67.5506 120.592 76.64 120.592Z" fill="#F3EAD4"/>
<path d="M76.6401 121.56C76.4123 121.56 76.1277 121.56 75.8999 121.56C71.2871 121.389 66.959 119.396 63.8269 115.923C60.6948 112.507 59.0433 108.066 59.2711 103.454C59.6697 93.8887 67.8134 86.4299 77.3806 86.8285C86.9477 87.227 94.4077 95.369 94.0091 104.934C93.6104 114.215 85.9225 121.56 76.6401 121.56ZM76.6401 88.6505C68.3827 88.6505 61.5492 95.1413 61.2075 103.454C61.0367 107.61 62.4602 111.539 65.2506 114.557C68.041 117.574 71.8567 119.396 76.0139 119.567C84.556 119.909 91.7882 113.304 92.1299 104.764C92.4716 96.2231 85.8657 88.9921 77.3236 88.6505C77.0958 88.7074 76.8679 88.6505 76.6401 88.6505Z" fill="#141414"/>
<path d="M110.695 119.339C119.784 119.339 127.153 111.972 127.153 102.885C127.153 93.797 119.784 86.4299 110.695 86.4299C101.605 86.4299 94.2371 93.797 94.2371 102.885C94.2371 111.972 101.605 119.339 110.695 119.339Z" fill="#F3EAD4"/>
<path d="M110.752 120.25C110.524 120.25 110.239 120.25 110.011 120.25C100.444 119.852 92.9843 111.71 93.3829 102.144C93.7816 92.5791 101.925 85.1204 111.492 85.5189C121.059 85.9175 128.52 94.0594 128.121 103.625C127.722 112.905 119.977 120.25 110.752 120.25ZM110.695 87.3978C102.438 87.3978 95.6038 93.8886 95.2621 102.201C94.9204 110.742 101.526 117.973 110.068 118.314C118.554 118.656 125.843 112.051 126.184 103.511C126.526 94.9704 119.92 87.7394 111.378 87.3978C111.15 87.3978 110.923 87.3978 110.695 87.3978Z" fill="#141414"/>
<path d="M74.3623 115.126C69.4649 114.842 65.5356 111.311 64.5105 106.813C64.4536 106.586 64.6245 106.358 64.9093 106.358L73.1667 106.813C74.4765 107.098 75.7292 106.244 75.957 104.935C76.2418 103.625 75.3874 102.372 74.0776 102.145L65.7065 100.038C65.4787 99.981 65.3649 99.6963 65.4788 99.5255C67.415 95.8246 71.4581 93.4333 75.9 93.8318C81.9365 94.4012 86.3214 99.8102 85.5811 105.845C84.8977 111.368 79.9432 115.468 74.3623 115.126Z" fill="#141414"/>
<path d="M108.873 113.532C103.975 113.247 100.046 109.717 99.0208 105.219C98.9638 104.991 99.1345 104.764 99.4192 104.764L107.677 105.219C108.986 105.504 110.239 104.65 110.467 103.34C110.752 102.031 109.898 100.778 108.588 100.55L100.217 98.4437C99.9889 98.3868 99.8748 98.1021 99.9887 97.9313C101.925 94.2304 105.968 91.839 110.41 92.2376C116.447 92.807 120.832 98.2159 120.091 104.251C119.351 109.774 114.396 113.874 108.873 113.532Z" fill="#141414"/>
<path d="M77.95 94.4579C70.8885 93.6608 66.048 93.0915 64.6243 92.9206C67.5856 89.1059 72.6538 86.8284 79.3166 87.8533C85.2961 88.8212 89.1115 92.522 90.9339 95.9952C89.1115 95.6536 82.5627 94.9703 77.95 94.4579Z" fill="#FC9B59"/>
<path d="M90.9341 96.9631C90.8772 96.9631 90.8203 96.9631 90.7634 96.9631C89.4536 96.7354 85.6381 96.2798 81.9365 95.8813C80.5128 95.7105 79.089 95.5396 77.8362 95.4258C75.2166 95.1411 72.9387 94.8565 71.0025 94.6287C67.6426 94.2301 65.4217 94.0024 64.5105 93.8316C64.1689 93.7746 63.8842 93.5469 63.7703 93.2622C63.6564 92.9206 63.7132 92.5789 63.8841 92.2942C67.3579 87.8532 73.0525 85.8604 79.4876 86.8852C84.8407 87.7393 89.4535 90.9847 91.7883 95.5397C91.9592 95.8813 91.9022 96.2798 91.7313 96.5645C91.5035 96.8492 91.2189 96.9631 90.9341 96.9631ZM66.5607 92.1804C67.6997 92.2943 69.294 92.522 71.2302 92.6928C73.1664 92.9206 75.4443 93.1483 78.0639 93.49C79.3168 93.6608 80.7406 93.7746 82.1643 93.9454C84.6699 94.2301 87.2326 94.5148 89.055 94.7425C87.4604 92.579 84.4423 89.6182 79.1462 88.7642C74.1348 88.024 69.6359 89.2197 66.5607 92.1804Z" fill="#141414"/>
<path d="M109.442 93.2056C102.437 94.2304 97.5968 94.9706 96.1731 95.1984C98.0524 90.7573 102.324 87.2272 109.043 86.487C115.08 85.8607 119.749 88.4229 122.369 91.3266C120.547 91.4974 113.998 92.5223 109.442 93.2056Z" fill="#FC9B59"/>
<path d="M96.1734 96.1661C95.8886 96.1661 95.6037 96.0523 95.4329 95.7676C95.2051 95.4829 95.2053 95.1413 95.3192 94.7996C97.5401 89.5614 102.494 86.2022 108.93 85.519C114.34 84.9496 119.636 86.8855 123.052 90.6433C123.28 90.928 123.394 91.2696 123.223 91.6112C123.11 91.9528 122.768 92.1805 122.426 92.2375C121.116 92.3513 117.301 92.9208 113.656 93.4901C112.232 93.7179 110.809 93.9456 109.556 94.1164C106.993 94.515 104.659 94.8566 102.779 95.1412C99.4194 95.6537 97.1983 95.9953 96.2871 96.1092C96.2302 96.1661 96.2303 96.1661 96.1734 96.1661ZM110.809 87.3409C110.239 87.3409 109.727 87.3978 109.157 87.4548C104.089 87.9672 100.103 90.3585 97.8818 94.0025C99.0208 93.8317 100.558 93.604 102.495 93.3193C104.431 93.0346 106.709 92.693 109.271 92.2944C110.524 92.1236 111.948 91.8959 113.371 91.6681C115.877 91.2696 118.383 90.871 120.205 90.6433C117.642 88.5366 114.283 87.3409 110.809 87.3409Z" fill="#141414"/>
</svg>
