<svg width="280" height="280" viewBox="0 0 280 280" fill="none" xmlns="http://www.w3.org/2000/svg">
  <path d="M150.545 33.8583C141.376 32.9039 132.112 33.2856 123.038 34.7172L122.657 34.8127C113.584 36.3398 104.606 39.0121 96.2009 42.8297L83.116 14.0065C94.0995 9.0436 105.751 5.60769 117.594 3.60343L118.072 3.50801C129.819 1.59919 141.759 1.21736 153.697 2.36265L150.545 33.8583Z" fill="#8BB4C8"/>
  <path d="M96.2 44.3563C95.5315 44.3563 94.9578 43.9746 94.6713 43.4019L81.5874 14.5785C81.3963 14.1967 81.3963 13.7197 81.5874 13.338C81.7784 12.9562 82.0643 12.5744 82.4464 12.3835C93.5254 7.42061 105.273 3.88917 117.307 1.88491L117.785 1.78949C129.723 -0.119333 141.853 -0.501051 153.792 0.644242C154.747 0.739683 155.415 1.50312 155.319 2.45753L152.264 33.9531C152.264 34.4303 151.977 34.812 151.69 35.0983C151.308 35.3847 150.926 35.4803 150.449 35.4803C141.471 34.6213 132.397 34.9075 123.324 36.3391L123.038 36.4347C114.06 37.9617 105.273 40.5386 96.9639 44.2608C96.5819 44.3562 96.391 44.3563 96.2 44.3563ZM85.3116 14.7696L97.059 40.5387C105.177 37.0074 113.678 34.5258 122.465 33.0942L122.846 32.9987C131.538 31.5671 140.42 31.2809 149.111 31.949L151.786 3.79373C140.612 2.83932 129.341 3.31657 118.262 5.03451L117.881 5.12993C106.611 7.03875 95.6266 10.2838 85.3116 14.7696Z" fill="#141414"/>
  <path d="M220.646 27.5589L202.213 53.2325C186.358 41.875 168.498 35.4805 150.447 33.7626L153.503 2.26703C176.998 4.65306 200.111 12.861 220.646 27.5589Z" fill="#8BB4C8"/>
  <path d="M202.21 54.9499C201.828 54.9499 201.542 54.8545 201.255 54.6636C186.26 43.8787 168.591 37.2934 150.349 35.4801C149.394 35.3846 148.725 34.6209 148.82 33.6665L151.877 2.17108C151.877 1.69387 152.163 1.31204 152.449 1.02571C152.832 0.739391 153.214 0.644043 153.692 0.644043C178.142 3.03007 201.637 11.8107 221.693 26.2223C222.075 26.5086 222.267 26.8903 222.362 27.272C222.458 27.7492 222.362 28.131 222.076 28.5128L203.643 54.1864C203.261 54.759 202.783 54.9499 202.21 54.9499ZM152.354 32.3304C170.119 34.3347 187.12 40.7293 201.924 50.9415L218.447 27.9401C199.631 14.7692 177.76 6.56137 155.124 4.0799L152.354 32.3304Z" fill="#141414"/>
  <path d="M265.916 82.3411L237.167 95.512C229.717 79.1916 217.97 64.4937 202.306 53.3271L220.739 27.6535C240.987 42.1606 256.174 61.1531 265.916 82.3411Z" fill="#8BB4C8"/>
  <path d="M237.072 97.1348C236.403 97.1348 235.829 96.753 235.543 96.1804C227.998 79.6691 216.06 65.2574 201.256 54.6635C200.492 54.0908 200.3 53.0411 200.873 52.373L219.306 26.6994C219.593 26.3177 219.975 26.1266 220.358 26.0311C220.835 25.9357 221.217 26.0312 221.599 26.3175C241.465 40.5382 257.224 59.722 267.348 81.7689C267.539 82.1507 267.539 82.6279 267.348 83.0097C267.157 83.3914 266.87 83.7732 266.488 83.9641L237.74 97.1348C237.549 97.1348 237.358 97.1348 237.072 97.1348ZM204.599 52.9457C218.829 63.5397 230.385 77.3785 237.931 93.3171L263.718 81.5781C254.072 61.1537 239.364 43.4015 221.121 29.9443L204.599 52.9457Z" fill="#141414"/>
  <path d="M277.855 152.967L246.337 149.913C247.197 140.751 246.815 131.588 245.382 122.617C243.854 113.264 241.084 104.101 237.073 95.4162L265.821 82.2452C270.978 93.5073 274.608 105.342 276.518 117.368C278.523 129.202 279.001 141.132 277.855 152.967Z" fill="#8BB4C8"/>
  <path d="M277.857 154.59C277.761 154.59 277.761 154.59 277.665 154.59L246.148 151.536C245.192 151.44 244.523 150.677 244.619 149.722C245.478 140.751 245.096 131.779 243.664 122.903C242.136 113.646 239.366 104.674 235.45 96.1799C235.259 95.7981 235.259 95.3211 235.45 94.9393C235.641 94.5576 235.928 94.1758 236.31 93.9849L265.058 80.814C265.918 80.4323 266.873 80.8139 267.255 81.6729C272.412 92.9349 276.137 104.961 278.143 117.272C280.053 129.107 280.531 141.228 279.384 153.158C279.384 153.636 279.098 154.017 278.812 154.304C278.621 154.495 278.239 154.59 277.857 154.59ZM248.153 148.386L276.328 151.059C277.188 139.987 276.71 128.725 274.895 117.75C272.985 106.297 269.643 95.1301 264.963 84.5361L239.176 96.2754C242.805 104.579 245.479 113.359 246.911 122.331C248.44 131.016 248.821 139.797 248.153 148.386Z" fill="#141414"/>
  <path d="M252.737 220.253L227.046 201.833C238.316 185.895 244.715 168.047 246.339 149.913L277.857 152.967C275.66 176.446 267.446 199.734 252.737 220.253Z" fill="#8BB4C8"/>
  <path d="M252.739 221.972C252.357 221.972 252.07 221.876 251.784 221.685L226.092 203.265C225.328 202.693 225.137 201.738 225.71 200.975C236.502 185.895 242.997 168.143 244.716 149.818C244.716 149.341 245.003 148.959 245.289 148.673C245.671 148.386 246.053 148.291 246.531 148.291L278.048 151.345C279.004 151.441 279.673 152.204 279.577 153.159C277.285 177.592 268.498 201.166 254.171 221.304C253.885 221.685 253.503 221.876 253.121 221.972C252.93 221.972 252.834 221.972 252.739 221.972ZM229.435 201.452L252.452 217.963C265.537 199.066 273.751 177.21 276.138 154.399L247.963 151.727C245.957 169.479 239.559 186.658 229.435 201.452Z" fill="#141414"/>
  <path d="M252.737 220.254L252.546 220.54C237.934 240.869 218.927 256.044 197.629 265.779L184.544 237.051C200.876 229.607 215.584 217.868 226.854 202.215L227.045 201.929L252.737 220.254Z" fill="#8BB4C8"/>
  <path d="M197.628 267.497C197.437 267.497 197.245 267.497 197.054 267.402C196.672 267.211 196.29 266.924 196.099 266.543L183.014 237.815C182.632 236.956 183.015 236.002 183.874 235.62C200.397 228.08 214.819 216.15 225.516 201.261L225.707 200.975C225.994 200.593 226.376 200.402 226.758 200.307C227.236 200.211 227.618 200.307 228 200.593L253.691 219.013C254.073 219.299 254.264 219.681 254.36 220.063C254.455 220.445 254.36 220.922 254.073 221.304L253.882 221.59C239.651 241.442 220.454 257.285 198.296 267.306C198.105 267.497 197.915 267.497 197.628 267.497ZM186.74 237.91L198.487 263.679C219.021 254.04 236.978 239.151 250.444 220.731L227.426 204.22C216.825 218.631 202.785 230.18 186.74 237.91Z" fill="#141414"/>
  <path d="M197.628 265.875C186.454 271.028 174.61 274.56 162.576 276.564C150.829 278.473 138.89 278.95 126.952 277.805L130.007 246.309C139.176 247.168 148.441 246.882 157.418 245.355C166.778 243.828 175.852 241.06 184.543 237.051L197.628 265.875Z" fill="#8BB4C8"/>
  <path d="M139.941 280C135.547 280 131.154 279.809 126.856 279.427C126.378 279.427 125.996 279.141 125.709 278.855C125.423 278.473 125.328 278.091 125.328 277.614L128.384 246.118C128.48 245.164 129.243 244.496 130.198 244.591C139.176 245.45 148.249 245.164 157.227 243.637C166.492 242.11 175.469 239.342 183.97 235.524C184.352 235.334 184.83 235.334 185.212 235.524C185.594 235.715 185.976 236.002 186.167 236.383L199.251 265.111C199.633 265.97 199.252 266.925 198.392 267.306C187.122 272.46 175.183 276.087 162.863 278.091C155.222 279.427 147.581 280 139.941 280ZM128.766 276.278C139.94 277.232 151.211 276.755 162.29 274.942C173.751 273.033 184.829 269.692 195.431 265.111L183.683 239.342C175.374 242.969 166.588 245.546 157.61 247.073C148.918 248.504 140.132 248.886 131.345 248.218L128.766 276.278Z" fill="#141414"/>
  <path d="M126.949 277.804C103.359 275.609 80.0545 267.306 59.4246 252.512L77.8576 226.839C93.8076 238.292 111.763 244.686 130.005 246.404L126.949 277.804Z" fill="#8BB4C8"/>
  <path d="M126.95 279.427C126.854 279.427 126.854 279.427 126.758 279.427C102.213 277.136 78.5259 268.26 58.3736 253.849C57.6095 253.276 57.419 252.226 57.9921 251.558L76.4251 225.884C76.9982 225.121 77.9536 224.93 78.7177 225.502C93.9036 236.383 111.573 242.968 130.101 244.686C130.579 244.686 130.961 244.973 131.248 245.259C131.534 245.641 131.629 246.022 131.629 246.499L128.573 277.995C128.477 278.758 127.809 279.427 126.95 279.427ZM61.7164 252.035C80.6271 265.206 102.594 273.509 125.421 275.895L128.095 247.74C110.235 245.831 93.0435 239.341 78.1441 229.034L61.7164 252.035Z" fill="#141414"/>
  <path d="M77.8615 226.744L59.4285 252.418C38.9896 237.815 23.8037 218.631 14.0618 197.348L42.8096 184.177C50.2592 200.688 62.1025 215.482 77.8615 226.744Z" fill="#8BB4C8"/>
  <path d="M59.4275 254.135C59.0454 254.135 58.7589 254.04 58.4724 253.849C38.511 239.533 22.656 220.254 12.5321 198.111C12.15 197.252 12.5324 196.298 13.392 195.916L42.1398 182.745C42.5218 182.554 43.0001 182.554 43.3822 182.745C43.7642 182.936 44.1462 183.222 44.3372 183.604C51.8824 200.306 63.8207 214.718 78.8156 225.503C79.1976 225.789 79.3888 226.171 79.4843 226.553C79.5798 227.03 79.4845 227.412 79.198 227.793L60.764 253.467C60.382 253.849 59.905 254.135 59.4275 254.135ZM16.2573 198.207C25.9037 218.727 40.6118 236.669 59.045 250.127L75.5679 227.125C61.2416 216.531 49.6854 202.501 42.0447 186.372L16.2573 198.207Z" fill="#141414"/>
  <path d="M42.8044 184.273L14.0566 197.444C8.99463 186.277 5.46024 174.633 3.45456 162.608C3.35905 161.94 3.26373 161.271 3.16822 160.603C1.44906 149.341 1.16309 137.889 2.3092 126.436L33.8271 129.49C32.9675 138.27 33.1578 147.146 34.4949 155.927C34.5904 156.404 34.5906 156.977 34.6861 157.454C36.2143 166.616 38.8885 175.683 42.8044 184.273Z" fill="#8BB4C8"/>
  <path d="M14.0591 199.066C13.8681 199.066 13.6765 199.066 13.4855 198.971C13.1034 198.78 12.7214 198.494 12.5304 198.112C7.46843 186.945 3.83984 175.015 1.83415 162.894C1.73864 162.226 1.64239 161.558 1.54688 160.794C-0.172278 149.437 -0.458245 137.793 0.687861 126.245C0.78337 125.29 1.54688 124.622 2.50197 124.718L34.0199 127.772C34.4974 127.772 34.8797 128.058 35.1662 128.344C35.4527 128.726 35.5486 129.108 35.5486 129.585C34.689 138.175 34.8802 146.956 36.2173 155.545C36.3128 156.022 36.3121 156.595 36.4076 157.072C37.9357 166.234 40.6104 175.11 44.4307 183.509C44.8128 184.368 44.4303 185.323 43.5708 185.704L14.823 198.875C14.5365 198.971 14.2501 199.066 14.0591 199.066ZM3.74433 128.249C2.78924 138.938 3.1709 149.723 4.79455 160.317C4.89006 160.985 4.98539 161.653 5.08089 162.321C6.99107 173.679 10.2386 184.75 14.823 195.153L40.6104 183.414C37.0765 175.206 34.4978 166.521 32.9697 157.645C32.8742 157.072 32.7785 156.595 32.7785 156.022C31.5368 147.719 31.2509 139.225 31.9194 130.921L3.74433 128.249Z" fill="#141414"/>
  <path d="M33.7364 129.489L2.21851 126.435C4.51072 103.052 12.8204 79.9554 27.4332 59.4356L27.6244 59.1494L53.3157 77.5694L53.1245 77.8557C41.95 93.6035 35.5511 111.451 33.7364 129.489Z" fill="#8BB4C8"/>
  <path d="M33.7352 131.112C33.6397 131.112 33.6395 131.112 33.544 131.112L2.02606 128.058C1.54852 128.058 1.16723 127.772 0.880699 127.485C0.594173 127.199 0.498291 126.722 0.498291 126.244C2.88601 101.907 11.6726 78.4284 26.0945 58.4812L26.2857 58.1951C26.8587 57.4316 27.9097 57.2406 28.5783 57.8132L54.2696 76.2334C55.0337 76.806 55.225 77.7603 54.652 78.5239L54.4608 78.8102C43.6683 93.7945 37.0785 111.356 35.2639 129.585C35.3594 130.444 34.5948 131.112 33.7352 131.112ZM4.12744 124.908L32.3025 127.581C34.3082 109.733 40.8026 92.6492 51.2131 77.8558L28.1959 61.3445C14.9201 80.3373 6.61067 102.193 4.12744 124.908Z" fill="#141414"/>
  <path d="M96.1952 42.7336C80.1497 49.9871 65.6325 61.2494 54.3625 76.3291C54.076 76.7108 53.7891 77.0924 53.5026 77.5696L27.8103 59.1497C28.1923 58.577 28.5751 58.0042 29.0527 57.527C43.57 37.9616 62.2894 23.3592 83.1103 14.006L96.1952 42.7336Z" fill="#8BB4C8"/>
  <path d="M53.5026 79.1921C53.1206 79.1921 52.8341 79.0966 52.5475 78.9057L26.7602 60.4855C25.9961 59.9129 25.8047 58.9585 26.3777 58.195C26.7598 57.6224 27.2381 57.0497 27.6201 56.477C41.8509 37.3888 60.7615 22.1181 82.3465 12.4786C83.2061 12.0968 84.161 12.4787 84.543 13.3377L97.6279 42.1609C97.8189 42.5426 97.8189 43.0199 97.6279 43.4016C97.4369 43.7834 97.15 44.1652 96.768 44.3561C80.5314 51.6096 66.301 63.0625 55.604 77.4741C55.3175 77.8558 55.0306 78.2376 54.7441 78.6193C54.4575 79.0011 53.9802 79.1921 53.5026 79.1921ZM30.103 58.7675L53.1202 75.2789C63.8172 60.9627 77.8578 49.5099 93.9988 41.97L82.2504 16.2009C61.8115 25.745 43.8564 40.3473 30.2942 58.4812C30.1987 58.5766 30.1985 58.6721 30.103 58.7675Z" fill="#141414"/>
  <path d="M200.547 52.026L200.325 52.3362L203.045 54.2798L203.267 53.9696L200.547 52.026Z" fill="#141414"/>
  <path d="M220.204 25.9496L219.758 26.5703L222.476 28.5169L222.921 27.8962L220.204 25.9496Z" fill="#141414"/>
  <path d="M76.8839 224.28L76.1602 225.289L78.8775 227.236L79.6012 226.227L76.8839 224.28Z" fill="#141414"/>
  <path d="M97.3708 41.9749L94.3281 43.359L94.6054 43.9676L97.648 42.5835L97.3708 41.9749Z" fill="#141414"/>
  <path d="M84.8518 12.4861L81.8088 13.8702L82.0464 14.3918L85.0894 13.0077L84.8518 12.4861Z" fill="#141414"/>
  <path d="M199.505 264.98L196.463 266.365L196.542 266.539L199.585 265.154L199.505 264.98Z" fill="#141414"/>
  <path d="M185.628 235.043L182.58 236.416L183.012 237.374L186.06 236.001L185.628 235.043Z" fill="#141414"/>
  <path d="M33.9283 127.849L33.5979 131.173L34.6432 131.277L34.9736 127.953L33.9283 127.849Z" fill="#141414"/>
  <path d="M2.25031 124.752L1.95532 128.08L2.14555 128.096L2.44054 124.769L2.25031 124.752Z" fill="#141414"/>
  <path d="M278.106 150.981L277.774 154.305L278.345 154.362L278.676 151.038L278.106 150.981Z" fill="#141414"/>
  <path d="M245.863 148.254L245.55 151.58L246.215 151.642L246.528 148.317L245.863 148.254Z" fill="#141414"/>
  <path d="M148.792 33.7899L148.742 34.2649L152.067 34.611L152.117 34.136L148.792 33.7899Z" fill="#141414"/>
  <path d="M151.976 1.49057L151.902 2.25085L155.229 2.57407L155.303 1.81378L151.976 1.49057Z" fill="#141414"/>
  <path d="M128.574 277.804L125.231 277.709L128.574 277.804Z" fill="#141414"/>
  <path d="M128.342 245.253L128.23 246.393L131.557 246.719L131.669 245.579L128.342 245.253Z" fill="#141414"/>
  <path d="M235.988 94.1084L235.555 94.3104L236.97 97.3365L237.403 97.1345L235.988 94.1084Z" fill="#141414"/>
  <path d="M266.109 80.8119L265.416 81.1326L266.82 84.164L267.513 83.8433L266.109 80.8119Z" fill="#141414"/>
  <path d="M14.634 198.971L13.3926 195.821L14.634 198.971Z" fill="#141414"/>
  <path d="M43.4008 182.029L42.3596 182.508L43.7583 185.542L44.7994 185.063L43.4008 182.029Z" fill="#141414"/>
  <path d="M227.421 199.652L225.474 202.367L226.172 202.867L228.12 200.152L227.421 199.652Z" fill="#141414"/>
  <path d="M254.046 219.059L252.099 221.773L252.409 221.996L254.357 219.281L254.046 219.059Z" fill="#141414"/>
  <path d="M28.5899 57.6481L26.6421 60.3629L26.9527 60.5855L28.9005 57.8707L28.5899 57.6481Z" fill="#141414"/>
  <path d="M54.5061 75.7245L52.5586 78.4396L53.2574 78.9401L55.2049 76.225L54.5061 75.7245Z" fill="#141414"/>
</svg>
