<svg width="65" height="65" viewBox="0 0 65 65" fill="none" xmlns="http://www.w3.org/2000/svg">
<path d="M34.9479 7.85997C32.8194 7.63841 30.6688 7.72702 28.5625 8.05936L28.4739 8.08153C26.3676 8.43603 24.2834 9.05638 22.3323 9.94262L19.2947 3.25152C21.8445 2.09941 24.5493 1.30179 27.2986 0.836512L27.4095 0.814362C30.1366 0.371242 32.9082 0.282602 35.6797 0.548474L34.9479 7.85997Z" fill="#F3EAD4"/>
<path d="M22.3322 10.297C22.177 10.297 22.0438 10.2084 21.9773 10.0754L18.94 3.3843C18.8956 3.29567 18.8956 3.18494 18.94 3.09631C18.9843 3.00769 19.0507 2.91906 19.1394 2.87475C21.7113 1.72264 24.4384 0.902843 27.232 0.437568L27.3429 0.415417C30.1144 -0.0277024 32.9302 -0.116315 35.7017 0.149556C35.9234 0.171712 36.0785 0.348938 36.0563 0.570498L35.347 7.88197C35.347 7.99275 35.2804 8.08137 35.2139 8.14783C35.1252 8.2143 35.0365 8.23649 34.9257 8.23649C32.8415 8.03709 30.7351 8.10353 28.6288 8.43587L28.5624 8.45805C26.4782 8.81254 24.4385 9.41075 22.5095 10.2748C22.4208 10.297 22.3765 10.297 22.3322 10.297ZM19.8045 3.42865L22.5316 9.41077C24.4162 8.591 26.3896 8.01493 28.4294 7.68259L28.518 7.66041C30.5356 7.32807 32.5976 7.26164 34.6152 7.41673L35.2362 0.880687C32.6421 0.659128 30.0257 0.769918 27.4538 1.16873L27.3652 1.19088C24.749 1.634 22.1991 2.38732 19.8045 3.42865Z" fill="#141414"/>
<path d="M51.2213 6.39752L46.9422 12.3575C43.2617 9.72089 39.1156 8.23647 34.9251 7.83766L35.6347 0.526184C41.0889 1.08008 46.4544 2.9855 51.2213 6.39752Z" fill="#F3EAD4"/>
<path d="M46.9417 12.7563C46.853 12.7563 46.7865 12.7341 46.7199 12.6898C43.239 10.1862 39.1373 8.65743 34.9025 8.23647C34.6808 8.21431 34.5254 8.03703 34.5476 7.81547L35.2571 0.504026C35.2571 0.393247 35.3236 0.304606 35.3901 0.238138C35.4788 0.17167 35.5676 0.149536 35.6785 0.149536C41.3544 0.703436 46.8085 2.7418 51.4646 6.08735C51.5532 6.15382 51.5976 6.24241 51.6198 6.33103C51.642 6.44181 51.6198 6.53045 51.5533 6.61907L47.2742 12.579C47.1855 12.7119 47.0747 12.7563 46.9417 12.7563ZM35.368 7.50531C39.4919 7.97059 43.4386 9.45504 46.8752 11.8257L50.7108 6.48611C46.343 3.42859 41.2657 1.5232 36.0111 0.947146L35.368 7.50531Z" fill="#141414"/>
<path d="M61.7304 19.1149L55.0566 22.1724C53.3272 18.3838 50.6001 14.9717 46.964 12.3795L51.2431 6.41956C55.9435 9.78726 59.4689 14.1963 61.7304 19.1149Z" fill="#F3EAD4"/>
<path d="M55.0344 22.5492C54.8792 22.5492 54.7461 22.4606 54.6796 22.3276C52.928 18.4946 50.1567 15.1491 46.72 12.6898C46.5427 12.5568 46.4982 12.3131 46.6313 12.158L50.9104 6.19811C50.9769 6.10949 51.0657 6.06513 51.1544 6.04297C51.2652 6.02082 51.3539 6.04299 51.4426 6.10945C56.0543 9.41069 59.7127 13.8641 62.0629 18.9821C62.1072 19.0707 62.1072 19.1815 62.0629 19.2701C62.0186 19.3588 61.952 19.4474 61.8633 19.4917L55.1897 22.5492C55.1453 22.5492 55.1009 22.5492 55.0344 22.5492ZM47.4961 12.291C50.7996 14.7503 53.4823 17.9629 55.2338 21.6629L61.2202 18.9378C58.9809 14.1964 55.5665 10.0754 51.3317 6.95139L47.4961 12.291Z" fill="#141414"/>
<path d="M64.5021 35.5101L57.1854 34.8012C57.385 32.6742 57.2963 30.5472 56.9637 28.4646C56.609 26.2933 55.966 24.1663 55.0347 22.1501L61.7083 19.0926C62.9056 21.707 63.7482 24.4543 64.1916 27.246C64.6572 29.9933 64.7682 32.7628 64.5021 35.5101Z" fill="#F3EAD4"/>
<path d="M64.5025 35.8868C64.4803 35.8868 64.4803 35.8868 64.4581 35.8868L57.1414 35.1778C56.9197 35.1556 56.7644 34.9784 56.7866 34.7569C56.9861 32.6742 56.8974 30.5915 56.5648 28.531C56.2101 26.3819 55.5672 24.2992 54.6582 22.3273C54.6138 22.2387 54.6138 22.128 54.6582 22.0393C54.7025 21.9507 54.7691 21.8621 54.8578 21.8178L61.5314 18.7602C61.7309 18.6716 61.9526 18.7602 62.0413 18.9596C63.2386 21.574 64.1034 24.3657 64.569 27.2238C65.0124 29.9712 65.1232 32.785 64.8571 35.5545C64.8571 35.6653 64.7907 35.7539 64.7242 35.8204C64.6799 35.8647 64.5912 35.8868 64.5025 35.8868ZM57.607 34.4467L64.1476 35.067C64.3472 32.4969 64.2363 29.8825 63.815 27.3346C63.3716 24.6759 62.5957 22.0836 61.5093 19.6243L55.5229 22.3495C56.3655 24.2771 56.9862 26.3154 57.3188 28.3981C57.6735 30.4143 57.7622 32.4527 57.607 34.4467Z" fill="#141414"/>
<path d="M58.6712 51.1303L52.7072 46.8542C55.3234 43.1542 56.809 39.011 57.1859 34.8013L64.5026 35.5103C63.9926 40.9607 62.0857 46.3667 58.6712 51.1303Z" fill="#F3EAD4"/>
<path d="M58.6714 51.529C58.5827 51.529 58.5162 51.5069 58.4497 51.4625L52.4856 47.1865C52.3083 47.0536 52.2638 46.832 52.3969 46.6547C54.9023 43.1541 56.41 39.0331 56.8091 34.7791C56.8091 34.6684 56.8756 34.5797 56.9421 34.5132C57.0308 34.4468 57.1194 34.4246 57.2303 34.4246L64.5469 35.1336C64.7686 35.1558 64.924 35.333 64.9018 35.5546C64.3697 41.2265 62.3297 46.699 59.004 51.3739C58.9375 51.4626 58.8489 51.5069 58.7602 51.529C58.7158 51.529 58.6936 51.529 58.6714 51.529ZM53.2617 46.7655L58.6049 50.5985C61.6425 46.2116 63.5492 41.1379 64.1035 35.8426L57.5628 35.2223C57.0972 39.3433 55.6119 43.3313 53.2617 46.7655Z" fill="#141414"/>
<path d="M58.671 51.1302L58.6268 51.1967C55.2345 55.9159 50.8224 59.4388 45.8781 61.6987L42.8405 55.0297C46.6319 53.3015 50.0463 50.5763 52.6625 46.9428L52.7069 46.8763L58.671 51.1302Z" fill="#F3EAD4"/>
<path d="M45.8779 62.0974C45.8336 62.0974 45.7891 62.0975 45.7448 62.0753C45.6561 62.031 45.5674 61.9645 45.523 61.8759L42.4855 55.207C42.3968 55.0075 42.4856 54.786 42.6851 54.6974C46.5208 52.947 49.8686 50.1775 52.3519 46.7212L52.3963 46.6547C52.4628 46.5661 52.5516 46.5218 52.6403 46.4996C52.7511 46.4775 52.8398 46.4997 52.9285 46.5661L58.8925 50.8422C58.9812 50.9087 59.0256 50.9973 59.0478 51.0859C59.0699 51.1745 59.0478 51.2853 58.9813 51.374L58.9369 51.4404C55.6333 56.0489 51.1768 59.7268 46.0329 62.0531C45.9886 62.0974 45.9444 62.0974 45.8779 62.0974ZM43.3503 55.2291L46.0773 61.2112C50.8442 58.9734 55.0126 55.5171 58.1388 51.241L52.7953 47.4081C50.3343 50.7536 47.0751 53.4344 43.3503 55.2291Z" fill="#141414"/>
<path d="M45.878 61.7209C43.2839 62.9173 40.5346 63.7371 37.7409 64.2023C35.0138 64.6455 32.2424 64.7562 29.4709 64.4904L30.1802 57.1789C32.3087 57.3783 34.4594 57.3118 36.5436 56.9573C38.7164 56.6028 40.8228 55.9603 42.8404 55.0298L45.878 61.7209Z" fill="#F3EAD4"/>
<path d="M32.4862 65C31.4663 65 30.4463 64.9556 29.4486 64.867C29.3377 64.867 29.249 64.8006 29.1825 64.7341C29.116 64.6455 29.0939 64.5569 29.0939 64.4461L29.8035 57.1346C29.8256 56.913 30.0029 56.7579 30.2246 56.7801C32.3087 56.9795 34.415 56.913 36.4991 56.5585C38.6498 56.204 40.7339 55.5615 42.7072 54.6753C42.7959 54.631 42.9069 54.631 42.9956 54.6753C43.0843 54.7196 43.173 54.7861 43.2173 54.8747L46.2547 61.5436C46.3434 61.743 46.2548 61.9646 46.0553 62.0532C43.439 63.2496 40.6675 64.0916 37.8074 64.5569C36.0336 64.867 34.2599 65 32.4862 65ZM29.892 64.1359C32.4861 64.3575 35.1025 64.2467 37.6744 63.8257C40.335 63.3826 42.9068 62.6071 45.3678 61.5436L42.6408 55.5615C40.7118 56.4034 38.6721 57.0017 36.5879 57.3562C34.5703 57.6885 32.5305 57.7771 30.4907 57.622L29.892 64.1359Z" fill="#141414"/>
<path d="M29.4704 64.4902C23.994 63.9806 18.5841 62.0531 13.795 58.6189L18.0741 52.6589C21.7767 55.3177 25.9449 56.8021 30.1797 57.2009L29.4704 64.4902Z" fill="#F3EAD4"/>
<path d="M29.4705 64.8668C29.4483 64.8668 29.4483 64.8668 29.4261 64.8668C23.728 64.3351 18.2293 62.2746 13.551 58.9291C13.3736 58.7961 13.3294 58.5524 13.4625 58.3973L17.7416 52.4374C17.8746 52.2601 18.0964 52.2158 18.2738 52.3487C21.7991 54.8745 25.9008 56.4033 30.2021 56.8021C30.313 56.8021 30.4017 56.8686 30.4682 56.935C30.5347 57.0237 30.5568 57.1122 30.5568 57.223L29.8472 64.5345C29.825 64.7117 29.67 64.8668 29.4705 64.8668ZM14.327 58.5081C18.717 61.5656 23.8166 63.4932 29.1156 64.0471L29.7364 57.5111C25.5903 57.0679 21.5994 55.5614 18.1406 53.1685L14.327 58.5081Z" fill="#141414"/>
<path d="M18.075 52.6368L13.7959 58.5968C9.05119 55.207 5.52589 50.7536 3.26437 45.8128L9.93797 42.7553C11.6674 46.5883 14.4167 50.0224 18.075 52.6368Z" fill="#F3EAD4"/>
<path d="M13.7956 58.9956C13.707 58.9956 13.6404 58.9735 13.5739 58.9291C8.94004 55.6058 5.25941 51.1302 2.90921 45.99C2.82052 45.7906 2.9093 45.569 3.10884 45.4804L9.78244 42.4229C9.87112 42.3786 9.98215 42.3786 10.0708 42.4229C10.1595 42.4673 10.2482 42.5337 10.2926 42.6223C12.0441 46.4996 14.8155 49.8452 18.2965 52.3488C18.3851 52.4152 18.4295 52.5039 18.4517 52.5925C18.4739 52.7033 18.4517 52.7919 18.3852 52.8806L14.1059 58.8405C14.0172 58.9291 13.9065 58.9956 13.7956 58.9956ZM3.77399 46.0122C6.01333 50.7757 9.42773 54.941 13.7069 58.065L17.5425 52.7255C14.2168 50.2662 11.5341 47.0092 9.76035 43.2648L3.77399 46.0122Z" fill="#141414"/>
<path d="M9.93681 42.7776L3.26322 45.8351C2.08812 43.2429 1.26764 40.5398 0.802034 37.7482C0.779862 37.5931 0.757734 37.438 0.735562 37.2829C0.336472 34.6685 0.270086 32.0098 0.536147 29.3511L7.85281 30.0601C7.65326 32.0984 7.69743 34.1589 8.00783 36.1973C8.03001 36.308 8.03005 36.441 8.05222 36.5518C8.40697 38.6787 9.02777 40.7835 9.93681 42.7776Z" fill="#F3EAD4"/>
<path d="M3.26372 46.2118C3.21938 46.2118 3.1749 46.2118 3.13056 46.1897C3.04187 46.1454 2.95319 46.0789 2.90884 45.9902C1.73374 43.398 0.891391 40.6285 0.425786 37.8147C0.403614 37.6596 0.381269 37.5045 0.359097 37.3273C-0.0399932 34.6907 -0.106378 31.9876 0.159682 29.3068C0.181854 29.0852 0.359097 28.9301 0.580814 28.9523L7.89747 29.6613C8.00833 29.6613 8.09706 29.7278 8.16358 29.7942C8.23009 29.8829 8.25235 29.9714 8.25235 30.0822C8.05281 32.0763 8.09719 34.1147 8.4076 36.1087C8.42977 36.2195 8.42959 36.3524 8.45177 36.4632C8.80651 38.5901 9.42741 40.6506 10.3143 42.6004C10.403 42.7998 10.3142 43.0213 10.1146 43.11L3.44105 46.1675C3.37453 46.1896 3.30806 46.2118 3.26372 46.2118ZM0.869219 29.7721C0.647503 32.2535 0.736103 34.7572 1.11302 37.2165C1.13519 37.3716 1.15732 37.5266 1.17949 37.6817C1.62293 40.3183 2.37681 42.8884 3.44105 45.3034L9.42741 42.5782C8.60705 40.6728 8.00842 38.6566 7.65367 36.5961C7.6315 36.4632 7.60929 36.3524 7.60929 36.2195C7.32105 34.2919 7.25467 32.32 7.40987 30.3924L0.869219 29.7721Z" fill="#141414"/>
<path d="M7.83167 30.06L0.515015 29.351C1.04714 23.9228 2.97616 18.561 6.36843 13.7974L6.41282 13.731L12.3769 18.0071L12.3325 18.0736C9.7384 21.7293 8.25294 25.8725 7.83167 30.06Z" fill="#F3EAD4"/>
<path d="M7.83125 30.4367C7.80907 30.4367 7.80903 30.4367 7.78686 30.4367L0.4702 29.7277C0.359342 29.7277 0.270828 29.6612 0.204313 29.5947C0.137798 29.5282 0.11554 29.4175 0.11554 29.3067C0.669832 23.6569 2.70958 18.2065 6.05751 13.5759L6.1019 13.5095C6.23493 13.3323 6.4789 13.2879 6.63411 13.4209L12.5982 17.697C12.7755 17.8299 12.82 18.0514 12.6869 18.2287L12.6425 18.2952C10.1371 21.7737 8.60739 25.8503 8.18612 30.0821C8.2083 30.2815 8.03079 30.4367 7.83125 30.4367ZM0.958021 28.9965L7.49867 29.6169C7.96428 25.4737 9.47191 21.5078 11.8886 18.0736L6.54533 14.2406C3.46347 18.6497 1.53448 23.7234 0.958021 28.9965Z" fill="#141414"/>
<path d="M22.331 9.92026C18.6062 11.6041 15.2361 14.2186 12.6198 17.7192C12.5533 17.8078 12.4867 17.8964 12.4202 18.0072L6.45593 13.7311C6.54462 13.5982 6.63348 13.4652 6.74434 13.3544C10.1144 8.81246 14.46 5.42263 19.2934 3.25134L22.331 9.92026Z" fill="#F3EAD4"/>
<path d="M12.4202 18.3839C12.3316 18.3839 12.265 18.3617 12.1985 18.3174L6.21217 14.0413C6.0348 13.9084 5.99037 13.6868 6.1234 13.5096C6.21209 13.3766 6.32312 13.2437 6.41181 13.1108C9.71539 8.67957 14.1053 5.13459 19.1161 2.89684C19.3157 2.80821 19.5374 2.89687 19.6261 3.09627L22.6636 9.78737C22.708 9.87599 22.708 9.98678 22.6636 10.0754C22.6193 10.164 22.5527 10.2527 22.464 10.297C18.6948 11.9808 15.3913 14.6395 12.9081 17.9851C12.8416 18.0737 12.775 18.1623 12.7084 18.2509C12.6419 18.3396 12.5311 18.3839 12.4202 18.3839ZM6.98818 13.6425L12.3315 17.4755C14.8147 14.1521 18.0741 11.4934 21.8211 9.74307L19.0938 3.76095C14.3491 5.97655 10.181 9.36637 7.03257 13.576C7.0104 13.5982 7.01036 13.6203 6.98818 13.6425Z" fill="#141414"/>
<path d="M52.7068 46.8764L52.6625 46.9429C50.0462 50.5764 46.654 53.3016 42.8404 55.0298C40.8228 55.9382 38.7164 56.5807 36.5436 56.9574C34.4373 57.3119 32.3088 57.3783 30.1803 57.1789C25.9455 56.7801 21.7773 55.2957 18.0746 52.6369C14.4163 50.0225 11.6891 46.5884 9.93756 42.7554C9.02852 40.7614 8.40771 38.6787 8.05296 36.5296C8.03079 36.4188 8.00857 36.2858 8.00857 36.175C7.69817 34.1588 7.654 32.0983 7.85355 30.0378C8.25264 25.8504 9.73801 21.7294 12.3764 18.0515L12.4208 17.985C12.4873 17.8964 12.5539 17.8077 12.6205 17.697C15.2367 14.1963 18.5846 11.5598 22.3316 9.89808C24.3049 9.01184 26.3669 8.39144 28.4732 8.03694L28.5618 8.01482C30.6681 7.68248 32.8187 7.59382 34.9472 7.81538C39.1376 8.21419 43.2838 9.69867 46.9643 12.3352C50.6004 14.9275 53.3276 18.3395 55.057 22.1282C55.9882 24.1444 56.6312 26.2713 56.9859 28.4426C57.3407 30.5253 57.4072 32.6523 57.2076 34.7793C56.8086 39.011 55.3453 43.1763 52.7068 46.8764Z" fill="#F3EAD4"/>
<path d="M32.4862 57.6664C31.7102 57.6664 30.9121 57.6221 30.1361 57.5557C25.7239 57.1347 21.4669 55.5617 17.8308 52.9473C14.239 50.3772 11.3788 46.8987 9.58285 42.9106C8.67381 40.8944 8.03079 38.7674 7.65387 36.5961C7.6317 36.4632 7.60948 36.3524 7.60948 36.2195C7.29908 34.159 7.25469 32.0763 7.45424 29.9936C7.8755 25.6289 9.47191 21.4193 12.0438 17.83L12.0882 17.7636C12.1547 17.6749 12.2434 17.5641 12.3099 17.4755C14.8597 14.0413 18.2742 11.294 22.1542 9.56584C24.1275 8.6796 26.2337 8.03708 28.4065 7.68258L28.4953 7.6604C30.6459 7.30591 32.8409 7.23946 34.9915 7.46102C39.3815 7.88198 43.5942 9.4772 47.186 12.0473C50.7556 14.5952 53.5937 18.0294 55.4118 21.9953C56.343 24.0337 57.0081 26.1828 57.3629 28.3984C57.7176 30.5254 57.7841 32.6967 57.5846 34.8237C57.1855 39.2105 55.6113 43.4423 53.0394 47.0759L52.995 47.1423C50.4452 50.7095 46.9865 53.5454 43.0177 55.3622C40.9779 56.2928 38.8273 56.9575 36.6323 57.312C35.2355 57.5557 33.8608 57.6664 32.4862 57.6664ZM32.5306 8.1257C31.2224 8.1257 29.9142 8.23646 28.6282 8.43586L28.5617 8.45804C26.4776 8.81254 24.4378 9.41074 22.5089 10.2748C18.7397 11.9587 15.4362 14.6174 12.953 17.9629C12.8865 18.0516 12.8199 18.1402 12.7534 18.2288L12.709 18.2953C10.2036 21.7738 8.67381 25.8505 8.25255 30.0822C8.053 32.0984 8.09739 34.1147 8.40779 36.1087C8.42997 36.2195 8.42979 36.3524 8.45196 36.4632C8.80671 38.5901 9.42761 40.6506 10.3145 42.6004C12.066 46.4777 14.8374 49.8233 18.3184 52.3269C21.8437 54.8527 25.9456 56.3814 30.2469 56.7802C32.3311 56.9796 34.4373 56.9131 36.5215 56.5586C38.6721 56.2041 40.7563 55.5616 42.7295 54.6754C46.5652 52.9251 49.9131 50.1556 52.3963 46.6992L52.4407 46.6328C54.9461 43.1322 56.4539 39.0111 56.853 34.7572C57.0525 32.6745 56.9638 30.5918 56.6312 28.5313C56.2765 26.3822 55.6334 24.2995 54.7243 22.3277C52.9728 18.4947 50.2014 15.1491 46.7648 12.6898C43.2839 10.1862 39.1819 8.65744 34.9471 8.23648C34.1046 8.14786 33.3287 8.1257 32.5306 8.1257Z" fill="#141414"/>
<path d="M46.5555 12.0775L46.504 12.1495L47.1353 12.6007L47.1869 12.5287L46.5555 12.0775Z" fill="#141414"/>
<path d="M51.1187 6.02393L51.0153 6.16803L51.6462 6.61992L51.7496 6.47582L51.1187 6.02393Z" fill="#141414"/>
<path d="M17.848 52.065L17.68 52.2992L18.3108 52.7512L18.4788 52.517L17.848 52.065Z" fill="#141414"/>
<path d="M22.6039 9.74418L21.8976 10.0655L21.9619 10.2068L22.6683 9.88545L22.6039 9.74418Z" fill="#141414"/>
<path d="M19.6976 2.89853L18.9913 3.22003L19.0464 3.34114L19.7527 3.01963L19.6976 2.89853Z" fill="#141414"/>
<path d="M46.3136 61.5133L45.6074 61.8351L45.6258 61.8754L46.332 61.5536L46.3136 61.5133Z" fill="#141414"/>
<path d="M43.0921 54.5636L42.3847 54.8826L42.4849 55.1049L43.1924 54.7859L43.0921 54.5636Z" fill="#141414"/>
<path d="M7.87625 29.6787L7.7995 30.4509L8.04216 30.4749L8.11891 29.7027L7.87625 29.6787Z" fill="#141414"/>
<path d="M0.522447 28.9599L0.453918 29.7328L0.498078 29.7368L0.566607 28.9638L0.522447 28.9599Z" fill="#141414"/>
<path d="M64.5603 35.0487L64.4833 35.8209L64.6156 35.8341L64.6926 35.0619L64.5603 35.0487Z" fill="#141414"/>
<path d="M57.0752 34.4156L57.0025 35.1882L57.157 35.2027L57.2297 34.4301L57.0752 34.4156Z" fill="#141414"/>
<path d="M34.541 7.84427L34.5295 7.95453L35.3013 8.03492L35.3128 7.92466L34.541 7.84427Z" fill="#141414"/>
<path d="M35.2801 0.345903L35.263 0.5224L36.0353 0.597485L36.0525 0.420988L35.2801 0.345903Z" fill="#141414"/>
<path d="M29.8475 64.4903L29.0714 64.4681L29.8475 64.4903Z" fill="#141414"/>
<path d="M29.7938 56.9338L29.7678 57.1986L30.5401 57.2743L30.5661 57.0095L29.7938 56.9338Z" fill="#141414"/>
<path d="M54.7828 21.8468L54.6824 21.8937L55.0111 22.5966L55.1116 22.5497L54.7828 21.8468Z" fill="#141414"/>
<path d="M61.7753 18.76L61.6143 18.8345L61.9405 19.5386L62.1015 19.4642L61.7753 18.76Z" fill="#141414"/>
<path d="M3.39717 46.1901L3.10898 45.4584L3.39717 46.1901Z" fill="#141414"/>
<path d="M10.0751 42.2567L9.83337 42.368L10.1582 43.0727L10.4 42.9615L10.0751 42.2567Z" fill="#141414"/>
<path d="M52.7944 46.3475L52.342 46.9781L52.5043 47.0943L52.9566 46.4637L52.7944 46.3475Z" fill="#141414"/>
<path d="M58.9753 50.8524L58.5229 51.4829L58.595 51.5346L59.0474 50.9041L58.9753 50.8524Z" fill="#141414"/>
<path d="M6.63715 13.3822L6.18475 14.0128L6.25687 14.0644L6.70927 13.4339L6.63715 13.3822Z" fill="#141414"/>
<path d="M12.6534 17.5785L12.2011 18.2091L12.3633 18.3253L12.8157 17.6947L12.6534 17.5785Z" fill="#141414"/>
<path fill-rule="evenodd" clip-rule="evenodd" d="M38.2321 38.2515L38.228 38.249C37.433 37.7592 36.8216 37.0656 36.3915 36.1957L36.3881 36.1888L36.3881 36.1887C36.153 35.7012 35.9873 35.1784 35.8868 34.6239C35.9776 34.1952 36.023 33.7377 36.023 33.2515C36.023 32.7653 35.9776 32.3079 35.8868 31.8792C35.9873 31.3246 36.153 30.8018 36.3881 30.3143L36.3915 30.3073L36.3915 30.3073C36.8216 29.4374 37.433 28.7438 38.228 28.2541L38.2321 28.2515L38.2321 28.2515C39.038 27.7618 39.9548 27.5281 40.9563 27.5281C41.9568 27.5281 42.8704 27.7614 43.669 28.2528C44.4735 28.7422 45.0871 29.4369 45.5093 30.3108C45.9404 31.1844 46.1438 32.1715 46.1438 33.2515C46.1438 34.3315 45.9404 35.3186 45.5093 36.1922C45.0871 37.0661 44.4735 37.7609 43.669 38.2503C42.8703 38.7417 41.9567 38.975 40.9563 38.975C39.9548 38.975 39.038 38.7412 38.2321 38.2515ZM44.7903 30.6614C44.4303 29.9149 43.9173 29.3393 43.2513 28.9346C42.5943 28.5299 41.8293 28.3275 40.9563 28.3275C40.0833 28.3275 39.3138 28.5299 38.6478 28.9346C37.9908 29.3393 37.4778 29.9149 37.1088 30.6614C36.7488 31.4078 36.5688 32.2712 36.5688 33.2515C36.5688 34.2318 36.7488 35.0952 37.1088 35.8417C37.4778 36.5882 37.9908 37.1637 38.6478 37.5685C39.3138 37.9732 40.0833 38.1755 40.9563 38.1755C41.8293 38.1755 42.5943 37.9732 43.2513 37.5685C43.9173 37.1637 44.4303 36.5882 44.7903 35.8417C45.1593 35.0952 45.3438 34.2318 45.3438 33.2515C45.3438 32.2712 45.1593 31.4078 44.7903 30.6614ZM41.0407 32.0781L41.0408 32.078C41.0156 32.0289 40.9938 31.9977 40.9784 31.9789C40.9709 31.9697 40.965 31.9638 40.9612 31.9602M41.0407 32.0781L41.0445 32.0852L41.0407 32.0781ZM40.8682 32.0852L40.8681 32.0852C40.7661 32.2795 40.6763 32.6422 40.6763 33.2515C40.6763 33.8553 40.7644 34.2265 40.87 34.4348C40.8936 34.4792 40.9138 34.5074 40.928 34.5242C40.9351 34.5327 40.9406 34.5382 40.9442 34.5414C40.9447 34.5419 40.9452 34.5423 40.9456 34.5427C40.9482 34.5429 40.9517 34.5431 40.9563 34.5431C40.9609 34.5431 40.9644 34.5429 40.967 34.5427C40.9674 34.5423 40.9679 34.5419 40.9684 34.5414C40.972 34.5382 40.9775 34.5327 40.9846 34.5242C40.9988 34.5074 41.019 34.4792 41.0426 34.4348C41.1482 34.2265 41.2363 33.8553 41.2363 33.2515C41.2363 32.6422 41.1465 32.2795 41.0445 32.0852M41.7528 34.8029C41.5638 35.1627 41.2983 35.3425 40.9563 35.3425C40.6143 35.3425 40.3488 35.1627 40.1598 34.8029C39.9708 34.4342 39.8763 33.917 39.8763 33.2515C39.8763 32.586 39.9708 32.0734 40.1598 31.7136C40.3488 31.3449 40.6143 31.1605 40.9563 31.1605C41.2983 31.1605 41.5638 31.3449 41.7528 31.7136C41.9418 32.0734 42.0363 32.586 42.0363 33.2515C42.0363 33.917 41.9418 34.4342 41.7528 34.8029ZM40.8682 32.0852L40.8718 32.078L40.8682 32.0852ZM40.961 31.96C40.9596 31.96 40.9581 31.9599 40.9563 31.9599C40.9545 31.9599 40.953 31.96 40.9516 31.96C40.9461 31.9602 40.9438 31.9607 40.9441 31.9607C40.9442 31.9606 40.9451 31.9605 40.9466 31.96C40.948 31.9596 40.9495 31.959 40.951 31.9584C40.9519 31.9581 40.9528 31.9577 40.9536 31.9572" fill="#1A1A1A"/>
<path fill-rule="evenodd" clip-rule="evenodd" d="M28.9113 38.2515L28.9072 38.249C28.1122 37.7592 27.5008 37.0656 27.0707 36.1957L27.0673 36.1888L27.0673 36.1887C26.9539 35.9535 26.8566 35.71 26.775 35.4587V33.7237H26.4611C26.4523 33.5684 26.448 33.411 26.448 33.2515C26.448 32.1728 26.6464 31.1871 27.0673 30.3143L27.0707 30.3073L27.0707 30.3073C27.5008 29.4374 28.1122 28.7438 28.9072 28.2541L28.9113 28.2515L28.9113 28.2515C29.7172 27.7618 30.634 27.5281 31.6355 27.5281C32.636 27.5281 33.5496 27.7614 34.3482 28.2528C35.1527 28.7422 35.7663 29.4369 36.1885 30.3108C36.4293 30.7988 36.5991 31.3222 36.702 31.8774C36.6132 32.3066 36.5688 32.7646 36.5688 33.2515C36.5688 33.7384 36.6132 34.1964 36.702 34.6256C36.5991 35.1808 36.4293 35.7042 36.1885 36.1922C35.7663 37.0661 35.1527 37.7609 34.3482 38.2503C33.5495 38.7417 32.6359 38.975 31.6355 38.975C30.634 38.975 29.7172 38.7412 28.9113 38.2515ZM33.9305 37.5685C34.5965 37.1637 35.1095 36.5882 35.4695 35.8417C35.8385 35.0952 36.023 34.2318 36.023 33.2515C36.023 32.2712 35.8385 31.4078 35.4695 30.6614C35.1095 29.9149 34.5965 29.3393 33.9305 28.9346C33.2735 28.5299 32.5085 28.3275 31.6355 28.3275C30.7625 28.3275 29.993 28.5299 29.327 28.9346C28.67 29.3393 28.157 29.9149 27.788 30.6614C27.428 31.4078 27.248 32.2712 27.248 33.2515C27.248 34.2318 27.428 35.0952 27.788 35.8417C28.157 36.5882 28.67 37.1637 29.327 37.5685C29.993 37.9732 30.7625 38.1755 31.6355 38.1755C32.5085 38.1755 33.2735 37.9732 33.9305 37.5685ZM31.7199 32.0781L31.72 32.078C31.6948 32.0289 31.673 31.9977 31.6576 31.9789C31.6501 31.9697 31.6442 31.9638 31.6404 31.9602M31.7199 32.0781L31.7237 32.0852L31.7199 32.0781ZM31.5474 32.0852L31.5473 32.0852C31.4453 32.2795 31.3555 32.6422 31.3555 33.2515C31.3555 33.8554 31.4436 34.2266 31.5492 34.4349C31.5728 34.4792 31.593 34.5074 31.6072 34.5242C31.6143 34.5327 31.6198 34.5382 31.6234 34.5414C31.6239 34.5419 31.6244 34.5423 31.6248 34.5427C31.6274 34.5429 31.6309 34.5431 31.6355 34.5431C31.6401 34.5431 31.6436 34.5429 31.6462 34.5427C31.6466 34.5423 31.6471 34.5419 31.6476 34.5414C31.6512 34.5382 31.6567 34.5327 31.6638 34.5242C31.678 34.5074 31.6982 34.4792 31.7218 34.4349C31.8274 34.2265 31.9155 33.8554 31.9155 33.2515C31.9155 32.6422 31.8257 32.2795 31.7237 32.0852M32.432 34.8029C32.243 35.1627 31.9775 35.3425 31.6355 35.3425C31.2935 35.3425 31.028 35.1627 30.839 34.8029C30.65 34.4342 30.5555 33.917 30.5555 33.2515C30.5555 32.586 30.65 32.0734 30.839 31.7136C31.028 31.3449 31.2935 31.1605 31.6355 31.1605C31.9775 31.1605 32.243 31.3449 32.432 31.7136C32.621 32.0734 32.7155 32.586 32.7155 33.2515C32.7155 33.917 32.621 34.4342 32.432 34.8029ZM31.5474 32.0852L31.551 32.078L31.5474 32.0852ZM31.6402 31.96C31.6388 31.96 31.6373 31.9599 31.6355 31.9599C31.6337 31.9599 31.6322 31.96 31.6308 31.96C31.6223 31.9603 31.6215 31.9613 31.6258 31.96C31.6263 31.9598 31.6269 31.9597 31.6274 31.9595C31.6292 31.9589 31.631 31.9581 31.6328 31.9572" fill="#1A1A1A"/>
<path fill-rule="evenodd" clip-rule="evenodd" d="M18.135 33.6563V36.2869H22.3875V37.9732H25.6275V36.2869H26.775V33.7237H25.6275V28.5299H22.185L18.135 33.6563ZM26.4275 32.9243V27.7305H21.7973L17.335 33.3787V37.0863H21.5875V38.7726H26.4275V37.0863H27.575V35.3276C27.4029 34.8371 27.2987 34.3025 27.2625 33.7237C27.2528 33.5695 27.248 33.4121 27.248 33.2516C27.248 33.141 27.2503 33.0319 27.2549 32.9243H26.4275ZM22.59 31.4978L20.916 33.7237H22.6575V31.4978H22.59Z" fill="#1A1A1A"/>
</svg>
