<svg width="32" height="24" viewBox="0 0 32 24" fill="none" xmlns="http://www.w3.org/2000/svg">
<path d="M12.4004 2.44405C12.1686 1.38732 11.0959 0.75841 10.0801 1.08784C8.29516 1.66754 5.78734 2.60448 5.02446 3.51362C2.45552 6.57258 0.270139 15.2275 1.23112 19.1293C1.95607 22.0728 7.35525 23.1167 8.85573 23.352C9.08965 23.3883 9.32146 23.2835 9.45212 23.0846L10.9252 20.8406" fill="#8BB4C8"/>
<path d="M12.4004 2.44405C12.1686 1.38732 11.0959 0.75841 10.0801 1.08784C8.29516 1.66754 5.78734 2.60448 5.02446 3.51362C2.45552 6.57258 0.270139 15.2275 1.23112 19.1293C1.95607 22.0728 7.35525 23.1167 8.85573 23.352C9.08965 23.3883 9.32146 23.2835 9.45212 23.0846L10.9252 20.8406" stroke="#1A1A1A" stroke-width="0.6" stroke-linecap="round" stroke-linejoin="round"/>
<path d="M19.966 2.44405C20.1978 1.38732 21.2705 0.75841 22.2863 1.08784C24.0712 1.66754 26.5791 2.60448 27.3419 3.51362C29.9109 6.57472 32.0963 15.2275 31.1353 19.1293C30.4103 22.0728 25.0111 23.1167 23.5107 23.352C23.2767 23.3883 23.0449 23.2835 22.9143 23.0846L21.4412 20.8406" fill="#8BB4C8"/>
<path d="M19.966 2.44405C20.1978 1.38732 21.2705 0.75841 22.2863 1.08784C24.0712 1.66754 26.5791 2.60448 27.3419 3.51362C29.9109 6.57472 32.0963 15.2275 31.1353 19.1293C30.4103 22.0728 25.0111 23.1167 23.5107 23.352C23.2767 23.3883 23.0449 23.2835 22.9143 23.0846L21.4412 20.8406" stroke="#1A1A1A" stroke-width="0.6" stroke-linecap="round" stroke-linejoin="round"/>
<path d="M6.07819 18.2737C10.0823 21.4824 18.9334 23.4076 26.3093 18.2737H6.07819Z" fill="#8BB4C8"/>
<path d="M6.07819 18.2737C10.0823 21.4824 18.9334 23.4076 26.3093 18.2737" stroke="#1A1A1A" stroke-width="0.6" stroke-miterlimit="10" stroke-linecap="round"/>
<path d="M5.65668 5.61196C9.66076 2.40326 18.5119 0.478034 25.8878 5.61196H5.65668Z" fill="#8BB4C8"/>
<path d="M5.65668 5.61196C9.66076 2.40326 18.5119 0.478034 25.8878 5.61196" stroke="#1A1A1A" stroke-width="0.6" stroke-miterlimit="10" stroke-linecap="round"/>
<rect x="11" y="5" width="12" height="14" fill="#8BB4C8"/>
<path d="M11.6628 16.5622C12.8849 16.5622 13.8756 15.1256 13.8756 13.3535C13.8756 11.5814 12.8849 10.1448 11.6628 10.1448C10.4407 10.1448 9.45001 11.5814 9.45001 13.3535C9.45001 15.1256 10.4407 16.5622 11.6628 16.5622Z" fill="#F3EAD4" stroke="#1A1A1A" stroke-width="0.6" stroke-linecap="round" stroke-linejoin="round"/>
<path d="M20.7247 16.5622C21.9468 16.5622 22.9375 15.1256 22.9375 13.3535C22.9375 11.5814 21.9468 10.1448 20.7247 10.1448C19.5026 10.1448 18.5119 11.5814 18.5119 13.3535C18.5119 15.1256 19.5026 16.5622 20.7247 16.5622Z" fill="#F3EAD4" stroke="#1A1A1A" stroke-width="0.6" stroke-linecap="round" stroke-linejoin="round"/>
</svg>
