<svg width="187" height="214" viewBox="0 0 187 214" fill="none" xmlns="http://www.w3.org/2000/svg">
<path d="M86.2042 213.781C65.8629 212.073 44.5712 198.287 41.9097 177.735L31.5807 168.375C27.7152 164.897 27.5251 158.636 32.0876 154.969C34.3055 153.135 37.0303 152.692 40.072 153.577C40.7057 153.767 41.5295 153.957 41.5295 152.629L41.4028 121.705C41.4028 120.124 40.7057 118.67 39.5017 117.721L23.5329 104.757C20.3011 102.164 19.3505 97.6111 21.2516 93.9433C22.7724 91.0343 25.7508 89.2636 29.0459 89.2004C31.2005 89.2004 30.8836 87.5562 28.2221 86.1649C24.8002 84.4575 20.9982 82.244 18.2733 79.7777C6.4868 69.2169 0.149902 59.4781 0.149902 46.7672C0.149902 32.6017 13.9008 28.175 27.7151 28.175C41.8463 28.175 56.2943 31.5267 65.1659 34.3725C66.9402 34.9416 68.9045 34.0561 69.665 32.3487C71.8829 27.3528 73.4672 23.6851 74.3543 21.535C78.5366 11.2271 88.4855 0.855957 101.286 0.855957C102.807 0.855957 125.936 2.50016 127.837 30.8943C127.964 33.1709 128.344 38.6094 128.978 46.7672C129.168 49.107 130.879 51.0674 133.223 51.5101C145.073 53.7234 175.237 59.9841 184.489 75.2879C190.825 85.7855 181.257 104.061 171.244 110.765C166.238 114.053 160.218 116.014 153.375 116.456C151.79 116.583 150.586 118.037 150.967 119.618C151.727 122.717 151.917 125.942 151.537 129.104C150.84 135.491 148.052 141.309 143.679 145.862C142.539 147.064 141.778 148.581 141.398 150.162C140.701 153.451 140.194 156.233 139.624 159.079C139.243 160.85 140.194 162.051 143.553 162.368C147.735 162.747 150.46 165.719 151.093 169.577C151.727 173.434 149.826 177.165 146.341 178.873L138.863 182.604C136.392 183.869 134.491 186.019 133.477 188.612C130.879 195.505 125.492 201.702 117.825 206.318C102.997 215.109 88.2319 213.97 86.2042 213.781Z" fill="#F3EAD4"/>
<path d="M86.9656 205.117C70.7433 203.789 50.402 192.216 50.402 173.498L50.0852 89.4533C52.3031 68.5213 76.4464 53.9765 97.2946 56.1899L99.9561 56.4428C120.868 58.6561 145.074 78.3866 142.856 99.3186C142.856 99.3186 128.599 167.68 126.064 182.288C123.466 196.959 103.124 206.445 86.9656 205.117Z" fill="#6FA467"/>
<path d="M90.0707 206.382C88.9935 206.382 87.9161 206.319 86.8389 206.255C68.7789 204.738 49.1981 191.837 49.2614 173.498L48.9446 89.4535C48.9446 89.3903 48.9446 89.3903 48.9446 89.3271C50.0218 79.1457 56.1052 69.8496 66.054 63.2095C75.4326 56.8856 86.9022 53.9767 97.4214 55.0518L100.083 55.3046C110.665 56.4429 122.198 61.9447 130.88 70.0393C140.385 78.956 145.074 89.3903 143.997 99.4453C143.997 99.5085 143.997 99.5085 143.997 99.5717C143.87 100.267 129.676 168.059 127.204 182.541C124.606 196.833 106.23 206.382 90.0707 206.382ZM51.1625 89.5168L51.4793 173.498C51.4793 192.28 72.6443 202.777 86.9656 203.979C87.9161 204.042 88.9301 204.105 89.8806 204.105C104.899 204.105 122.515 195.189 124.796 182.162C127.268 167.87 141.146 101.469 141.589 99.1924C143.68 79.3987 120.297 59.7947 99.7027 57.5813L97.0413 57.3283C77.7139 55.2414 53.4437 68.8378 51.1625 89.5168Z" fill="#141414"/>
<path d="M52.9387 104.757L29.0488 98.0537L55.0931 119.112" fill="#6FA467"/>
<path d="M55.0917 120.251C54.8383 120.251 54.5849 120.188 54.3948 119.998L28.3503 98.8763C27.9067 98.5601 27.78 97.9276 28.0335 97.4849C28.287 97.0423 28.8573 96.7894 29.3643 96.9159L53.3176 103.619C53.9512 103.809 54.268 104.441 54.0779 105.01C53.8878 105.643 53.2542 105.959 52.6839 105.769L34.0535 100.584L55.8523 118.227C56.3592 118.607 56.4225 119.366 56.0423 119.808C55.7254 120.124 55.4086 120.251 55.0917 120.251Z" fill="#141414"/>
<path d="M62.5696 169.767L37.4758 161.925L56.9299 179.569" fill="#6FA467"/>
<path d="M56.9306 180.707C56.6771 180.707 56.3603 180.581 56.1702 180.391L36.716 162.748C36.3358 162.368 36.2091 161.799 36.4626 161.356C36.7161 160.913 37.2864 160.661 37.7934 160.85L62.8871 168.692C63.4575 168.882 63.8376 169.514 63.6475 170.146C63.4574 170.716 62.8239 171.095 62.1902 170.905L42.039 164.645L57.691 178.81C58.1346 179.253 58.198 179.948 57.7544 180.391C57.5643 180.581 57.2474 180.707 56.9306 180.707Z" fill="#141414"/>
<path d="M122.895 180.644L142.286 171.095L121.121 168.502" fill="#6FA467"/>
<path d="M122.895 181.782C122.451 181.782 122.071 181.529 121.881 181.15C121.627 180.581 121.817 179.885 122.388 179.632L138.356 171.727L120.993 169.577C120.36 169.514 119.916 168.945 119.98 168.312C120.043 167.68 120.613 167.237 121.247 167.3L142.349 169.893C142.856 169.956 143.236 170.336 143.363 170.842C143.489 171.348 143.172 171.854 142.729 172.043L123.338 181.592C123.275 181.782 123.085 181.782 122.895 181.782Z" fill="#141414"/>
<path d="M83.2897 145.736C94.2089 145.736 103.061 136.902 103.061 126.005C103.061 115.108 94.2089 106.275 83.2897 106.275C72.3705 106.275 63.5188 115.108 63.5188 126.005C63.5188 136.902 72.3705 145.736 83.2897 145.736Z" fill="#F3EAD4"/>
<path d="M83.2893 146.874C82.5288 146.874 81.8318 146.811 81.0714 146.748C75.495 146.179 70.5523 143.459 67.0036 139.096C63.5184 134.732 61.8709 129.294 62.5046 123.792C63.7086 112.346 74.0375 104.061 85.5072 105.263C91.0836 105.832 96.0264 108.551 99.5751 112.915C103.124 117.278 104.708 122.717 104.074 128.219C102.933 138.906 93.8718 146.874 83.2893 146.874ZM83.2893 107.413C73.9108 107.413 65.7996 114.496 64.7857 123.982C64.2788 128.914 65.6729 133.784 68.778 137.641C71.883 141.499 76.3188 143.902 81.2615 144.471C91.4638 145.546 100.652 138.147 101.73 127.966C102.236 123.033 100.842 118.164 97.7373 114.306C94.6322 110.449 90.1965 108.046 85.2538 107.476C84.6201 107.476 83.923 107.413 83.2893 107.413Z" fill="#141414"/>
<path d="M123.023 145.862C133.942 145.862 142.794 137.029 142.794 126.132C142.794 115.235 133.942 106.401 123.023 106.401C112.104 106.401 103.252 115.235 103.252 126.132C103.252 137.029 112.104 145.862 123.023 145.862Z" fill="#F3EAD4"/>
<path d="M123.086 147.001C122.326 147.001 121.565 146.938 120.805 146.874C109.335 145.673 101.034 135.365 102.238 123.919C102.808 118.354 105.533 113.421 109.906 109.88C114.278 106.402 119.728 104.757 125.241 105.39C136.711 106.591 145.012 116.899 143.808 128.345C143.237 133.91 140.513 138.843 136.14 142.384C132.401 145.357 127.839 147.001 123.086 147.001ZM122.96 107.54C118.714 107.54 114.658 108.994 111.3 111.651C107.434 114.749 105.026 119.176 104.456 124.109C103.379 134.29 110.793 143.46 120.995 144.535C125.938 145.041 130.817 143.649 134.683 140.551C138.548 137.452 140.956 133.025 141.526 128.093C142.604 117.911 135.19 108.742 124.987 107.666C124.354 107.603 123.657 107.54 122.96 107.54Z" fill="#141414"/>
<path d="M77.1442 129.357C75.3699 129.167 74.1026 127.46 74.4828 125.689C74.7996 124.108 76.3839 123.159 77.9681 123.286L92.4161 124.804C92.5428 124.804 92.6695 124.677 92.6695 124.551C92.1625 118.1 86.903 112.788 80.0592 112.535C73.5323 112.346 67.7024 117.215 66.7519 123.665C65.6746 131.001 70.9342 137.704 78.2849 138.527C83.9247 139.159 89.1209 135.997 91.4656 131.191C91.5289 131.064 91.4655 130.875 91.2754 130.875L77.1442 129.357Z" fill="#141414"/>
<path d="M116.621 129.61C114.847 129.42 113.579 127.713 113.959 125.942C114.276 124.361 115.861 123.412 117.445 123.539L132.4 125.12C132.526 125.12 132.653 125.057 132.59 124.93C132.146 118.417 126.887 113.041 120.043 112.788C113.516 112.535 107.686 117.468 106.735 123.918C105.658 131.254 110.918 137.957 118.269 138.779C123.908 139.412 129.105 136.313 131.386 131.507C131.449 131.38 131.386 131.254 131.196 131.254L116.621 129.61Z" fill="#141414"/>
<path d="M84.4306 113.484C73.5946 112.346 70.4896 112.662 68.9688 112.409C72.7709 107.982 79.7413 105.832 85.3811 106.401C91.908 107.097 97.5478 111.271 99.7657 115.128C97.6112 114.875 89.9436 114.116 84.4306 113.484Z" fill="#8BB4C8"/>
<path d="M99.7653 116.267C99.7019 116.267 99.6386 116.267 99.6386 116.267C98.0544 116.077 93.5552 115.571 89.1828 115.129C87.4719 114.939 85.8243 114.749 84.3035 114.623C76.7627 113.801 72.9606 113.737 70.8694 113.674C69.9189 113.674 69.2852 113.611 68.7783 113.548C68.3347 113.484 68.0179 113.231 67.8912 112.852C67.7644 112.473 67.8277 112.03 68.0811 111.714C71.8832 107.287 79.0439 104.631 85.5074 105.327C92.7948 106.086 98.5614 110.702 100.779 114.623C100.969 115.002 100.969 115.445 100.716 115.824C100.526 116.077 100.146 116.267 99.7653 116.267ZM71.6933 111.397C73.9112 111.461 77.7131 111.587 84.5569 112.346C86.0778 112.536 87.7888 112.662 89.4364 112.852C92.288 113.168 95.2663 113.484 97.3574 113.674C94.8227 110.765 90.3235 108.046 85.254 107.477C80.5648 107.034 75.2419 108.615 71.6933 111.397Z" fill="#141414"/>
<path d="M121.437 113.611C110.601 114.939 107.876 115.698 106.418 115.887C108.509 110.892 114.91 107.73 120.549 106.844C126.95 105.832 133.35 107.856 136.708 111.903C134.49 112.156 127.013 112.915 121.437 113.611Z" fill="#8BB4C8"/>
<path d="M106.418 117.026C106.038 117.026 105.721 116.837 105.531 116.584C105.277 116.267 105.214 115.825 105.404 115.445C107.686 110.007 114.593 106.592 120.423 105.706C127.203 104.631 133.983 106.782 137.595 111.208C137.849 111.525 137.912 111.967 137.785 112.346C137.659 112.726 137.278 112.979 136.835 113.042C134.617 113.295 127.139 114.054 121.626 114.75C114.212 115.698 110.6 116.331 108.636 116.71C107.685 116.9 107.115 116.963 106.545 117.026C106.482 117.026 106.481 117.026 106.418 117.026ZM123.718 107.73C122.704 107.73 121.69 107.793 120.676 107.983C116.24 108.679 111.171 110.892 108.573 114.433C110.664 114.054 114.276 113.422 121.31 112.536C125.492 112.03 130.878 111.398 134.173 111.082C131.512 108.932 127.71 107.73 123.718 107.73Z" fill="#141414"/>
<path d="M88.9296 165.087C88.1058 165.087 87.2819 165.024 86.3314 164.834C79.6144 163.506 78.2203 156.36 78.4738 152.755C78.5372 152.123 79.0441 151.68 79.6777 151.68C80.3114 151.744 80.755 152.25 80.755 152.882C80.755 153.198 80.3114 161.356 86.775 162.621C94.9495 164.202 97.611 156.234 97.7377 155.917C97.9278 155.348 98.5615 154.969 99.1952 155.159C99.7655 155.348 100.146 155.981 99.9556 156.613C99.8922 156.676 97.1041 165.087 88.9296 165.087Z" fill="#141414"/>
<path d="M53.8241 71.6838C53.8241 71.6838 69.9831 71.494 86.2054 79.0827C97.7385 84.458 103.125 89.0111 105.786 93.0583C98.879 89.7067 90.6411 85.0271 80.122 82.4975C58.3233 77.1855 50.0854 86.9242 50.0854 86.9242L53.8241 71.6838Z" fill="#141414"/>
<path d="M122.391 79.2722C122.391 79.2722 119.539 39.4949 118.969 31.5901C118.398 23.6853 113.329 11.7964 103.887 9.96249C94.4451 8.12857 85.9538 16.1599 82.3418 24.95C78.7298 33.7402 65.9294 61.8182 65.9294 61.8182L122.391 79.2722Z" fill="#8BB4C8"/>
<path d="M122.391 80.4108C122.264 80.4108 122.137 80.4109 122.074 80.3476L65.6125 62.957C65.2956 62.8305 65.0421 62.6408 64.9154 62.3246C64.7886 62.0084 64.7886 61.6922 64.9154 61.376C65.0421 61.1231 77.8426 33.1083 81.3279 24.5078C85.0666 15.275 94.1282 6.92752 104.077 8.88792C114.216 10.8483 119.539 23.3064 120.109 31.5274C120.616 39.369 123.468 78.8299 123.531 79.2093C123.531 79.5888 123.404 79.9682 123.088 80.1579C122.897 80.2844 122.644 80.4108 122.391 80.4108ZM67.5135 61.123L121.186 77.6917C120.616 70.103 118.335 38.5468 117.891 31.5905C117.384 24.0651 112.632 12.7454 103.697 11.038C94.8887 9.33053 86.8409 16.9192 83.419 25.33C80.314 32.9819 69.9849 55.7477 67.5135 61.123Z" fill="#141414"/>
<path d="M120.869 58.0237L121.376 74.9084C121.376 74.9084 132.148 84.7105 150.842 88.4416C161.298 90.5284 166.494 89.896 168.712 89.2004C170.93 88.568 181.069 86.7972 176.76 79.7777C173.401 74.2127 164.783 68.5213 150.272 64.6637C137.788 61.3121 120.869 58.0237 120.869 58.0237Z" fill="#4C8BAA"/>
<path d="M163.072 91.0342C160.094 91.0342 156.038 90.6548 150.652 89.5797C131.895 85.7854 121.059 76.1732 120.615 75.7305C120.362 75.5408 120.235 75.2246 120.235 74.9084L119.728 58.0237C119.728 57.7075 119.855 57.3281 120.108 57.1384C120.362 56.8854 120.742 56.8221 121.059 56.8853C121.249 56.9486 138.168 60.2371 150.589 63.5887C164.213 67.2566 173.908 72.8215 177.773 79.2086C179.041 81.2323 179.294 83.1294 178.597 84.8368C177.203 88.2517 172.197 89.5166 169.789 90.149C169.472 90.2122 169.219 90.2755 169.029 90.3387C167.951 90.6549 166.05 91.0342 163.072 91.0342ZM122.516 74.4024C124.481 76.0466 134.81 84.078 151.095 87.3664C161.868 89.5165 166.811 88.6312 168.395 88.1885C168.585 88.1253 168.902 88.0621 169.219 87.9356C171.12 87.4297 175.492 86.3547 176.506 84.0148C176.886 83.003 176.696 81.8646 175.809 80.4101C173.718 76.9952 167.571 70.4817 149.955 65.8021C139.689 63.0828 126.255 60.3002 122.009 59.4149L122.516 74.4024Z" fill="#141414"/>
<path d="M49.897 39.4952C28.9221 35.5744 16.185 36.2068 10.4819 41.835C7.25011 45.0602 7.56695 57.0757 24.4229 73.7074C27.0844 72.1897 37.4134 70.2292 49.7068 72.6956C93.0508 81.3592 115.547 101.785 138.866 106.655C151.477 109.311 172.451 109.754 177.267 85.2801C177.267 85.2801 172.325 91.0349 153.885 89.0745C125.622 86.039 92.5439 47.4633 49.897 39.4952Z" fill="#8BB4C8"/>
<path d="M149.766 108.994C145.71 108.994 141.845 108.425 138.549 107.729C128.664 105.643 118.969 100.836 107.816 95.3346C92.1639 87.5563 74.484 78.766 49.4535 73.7702C37.6036 71.4304 27.5281 73.2644 24.93 74.6556C24.4864 74.9086 23.9161 74.8453 23.5992 74.4659C9.27796 60.3004 7.69385 50.4352 7.69385 46.8306C7.69385 44.3011 8.39081 42.2141 9.65817 40.9494C15.5514 35.1314 28.4152 34.2461 50.0872 38.2934C73.0266 42.5936 93.2411 55.6207 111.111 67.1934C127.143 77.5013 140.957 86.4813 153.885 87.8093C171.311 89.6432 176.254 84.4576 176.317 84.3943C176.634 84.0149 177.204 83.8885 177.648 84.1414C178.091 84.3944 178.345 84.837 178.281 85.3429C176.57 94.0066 172.768 100.394 166.812 104.315C161.679 107.856 155.596 108.994 149.766 108.994ZM37.9838 70.4187C41.5958 70.4187 45.5881 70.7348 49.8338 71.6201C75.1811 76.6792 92.9877 85.5326 108.766 93.3742C119.792 98.8759 129.361 103.619 138.993 105.579C146.661 107.16 157.497 107.982 165.544 102.607C170.297 99.4452 173.592 94.5125 175.366 87.8724C172.198 89.5167 165.671 91.477 153.631 90.2122C140.197 88.7578 126.129 79.7147 109.907 69.217C92.2271 57.7708 72.1394 44.8702 49.6437 40.6332C28.7955 36.7124 16.5653 37.408 11.2424 42.6568C10.4186 43.4789 9.97502 44.9966 9.97502 46.8937C9.97502 50.1822 11.4326 59.0988 24.6132 72.379C26.9578 71.3672 31.8371 70.4187 37.9838 70.4187Z" fill="#141414"/>
<path d="M48.8823 86.2914C31.963 79.5248 24.3586 73.7069 24.3586 73.7069C24.3586 73.7069 37.8561 69.0272 54.3319 73.6436C51.4803 77.3115 49.7695 82.6867 48.8823 86.2914Z" fill="#4C8BAA"/>
<path d="M48.8832 87.43C48.7565 87.43 48.6296 87.4299 48.4395 87.3667C31.5201 80.6634 23.916 74.9088 23.5991 74.6558C23.2823 74.4029 23.0922 73.9602 23.1556 73.5808C23.2189 73.2014 23.5358 72.8218 23.916 72.6953C24.4863 72.5056 37.9838 67.9525 54.5229 72.6322C54.9031 72.7587 55.1566 73.0116 55.2833 73.391C55.41 73.7705 55.3466 74.1499 55.0932 74.4661C52.2416 78.0707 50.6574 83.6357 49.897 86.6712C49.8336 86.9874 49.5802 87.2403 49.3267 87.43C49.2634 87.3668 49.0733 87.43 48.8832 87.43ZM27.0211 74.1499C30.1262 76.1735 37.0332 80.2208 48.1226 84.774C49.0098 81.4856 50.3406 77.5016 52.4317 74.3396C41.0888 71.5571 31.2668 73.1381 27.0211 74.1499Z" fill="#141414"/>
</svg>
