<svg width="41" height="41" viewBox="0 0 41 41" fill="none" xmlns="http://www.w3.org/2000/svg">
<path d="M17.7755 38.967L2.0292 23.161C0.656933 21.7837 0.656933 19.5531 2.0292 18.1759L18.1906 1.9556C19.5629 0.57834 21.7854 0.57834 23.625 2.69164L39.3738 18.4977C40.2787 19.139 40.2787 21.3695 38.9064 22.7468L22.745 38.967C21.3727 40.3443 19.1502 40.3443 17.778 38.967H17.7755Z" stroke="#1A1A1A" stroke-width="0.527027" stroke-miterlimit="10"/>
<path d="M18.203 35.9031L5.16396 22.8166C4.02787 21.6764 4.02787 19.8276 5.16396 18.6873L18.5461 5.25653C19.6822 4.11629 21.5243 4.11629 23.0457 5.86532L36.0847 18.9518C36.833 19.4808 36.833 21.3296 35.6969 22.4698L22.3148 35.9006C21.1787 37.0409 19.3366 37.0409 18.2005 35.9006L18.203 35.9031Z" fill="#141414" stroke="#1A1A1A" stroke-width="0.527027" stroke-miterlimit="10"/>
<path d="M30.3296 13.6401C26.623 18.6975 24.6963 21.0404 21.38 26.3648C24.8604 26.3648 28.3756 26.3997 31.8212 26.3648L29.0866 29.1093C26.7995 29.1318 22.7995 29.1243 20.1867 29.1168C18.541 29.1118 17.5441 27.2879 18.4291 25.8932C21.3949 21.2225 25.3452 15.4789 28.3408 11.3945L30.3296 13.6401Z" fill="#F3EAD4"/>
<path d="M30.0064 13.45C27.6845 16.6162 25.283 19.7276 23.1028 22.9961C22.4042 24.044 21.7231 25.1069 21.0568 26.1748C20.9052 26.4168 21.1016 26.7386 21.38 26.7386C24.8604 26.7386 28.3408 26.7736 31.8212 26.7386L31.5576 26.0999C30.6453 27.0156 29.7354 27.9288 28.8231 28.8444L29.0866 28.7347C27.1947 28.7521 25.3029 28.7521 23.4111 28.7496C22.4465 28.7496 21.4819 28.7471 20.5174 28.7446C20.132 28.7446 19.7616 28.7446 19.4086 28.5575C19.078 28.3829 18.812 28.1109 18.6479 27.7741C18.4987 27.4722 18.4391 27.1229 18.4838 26.791C18.5435 26.3469 18.8095 25.9901 19.0457 25.6209C19.6249 24.7152 20.2116 23.8119 20.8032 22.9137C22.0338 21.0474 23.2892 19.1936 24.5621 17.3548C25.9045 15.4136 27.2693 13.4875 28.664 11.5813L28.0773 11.6561C28.741 12.4046 29.4023 13.1531 30.0661 13.9016C30.3867 14.2634 30.9113 13.732 30.5931 13.3727C29.9293 12.6242 29.268 11.8757 28.6043 11.1272C28.4303 10.93 28.1518 11.0224 28.0176 11.202C26.3221 13.5174 24.6715 15.8652 23.0506 18.233C21.3676 20.6907 19.6547 23.1533 18.1059 25.7032C17.5267 26.6563 17.6336 27.8689 18.3844 28.6997C19.2271 29.6304 20.4403 29.4907 21.5789 29.4932C22.9511 29.4957 24.3259 29.4981 25.6982 29.4957C26.3495 29.4957 27.0033 29.4957 27.6546 29.4907C27.9306 29.4907 28.209 29.4882 28.485 29.4857C28.7609 29.4832 29.1288 29.548 29.3476 29.3709C29.4968 29.2511 29.6235 29.094 29.7578 28.9592L30.6925 28.0211C31.1549 27.557 31.6198 27.0904 32.0822 26.6264C32.3084 26.3993 32.1419 25.9851 31.8187 25.9876C28.3383 26.0226 24.8579 25.9876 21.3775 25.9876L21.7007 26.5515C23.7815 23.2131 26.0561 20.022 28.4004 16.8682C29.1537 15.8578 29.9045 14.8448 30.6503 13.8268C30.9361 13.4376 30.2873 13.0658 30.0064 13.45Z" fill="#1A1A1A"/>
<path d="M9.6958 26.8634C13.4546 21.8433 17.2433 18.0184 20.6143 12.7265C17.1339 12.689 14.8617 12.6666 11.4161 12.6641L13.922 9.91455C16.2091 9.91455 19.2221 9.95198 21.8349 9.98691C23.4806 10.0094 24.4576 11.8432 23.5602 13.228C20.5472 17.8687 14.7225 25.0545 11.6846 29.1089L9.6958 26.8634Z" fill="#F3EAD4"/>
<path d="M10.0165 27.0531C12.7784 23.3729 15.8834 19.9647 18.623 16.267C19.431 15.1767 20.2041 14.0614 20.935 12.9187C21.0916 12.6742 20.8853 12.3573 20.6118 12.3548C17.5466 12.3224 14.4789 12.2949 11.4136 12.2924L11.6771 12.9312C12.5124 12.0155 13.3477 11.0973 14.183 10.1816L13.9195 10.2914C16.3757 10.2914 18.8343 10.3238 21.2905 10.3563C21.7752 10.3638 22.2401 10.3413 22.6727 10.5958C23.0058 10.7904 23.2693 11.0998 23.4085 11.4616C23.7516 12.3473 23.2469 13.0384 22.7696 13.747C20.4253 17.2376 17.82 20.551 15.2445 23.8719C13.9444 25.5511 12.6343 27.2228 11.3614 28.9219L11.9481 28.847C11.2844 28.0985 10.6231 27.35 9.95933 26.6015C9.63863 26.2397 9.11409 26.7712 9.43229 27.1304C10.0961 27.879 10.7573 28.6275 11.4211 29.376C11.5976 29.5731 11.8735 29.4783 12.0078 29.3011C15.2445 24.9822 18.6603 20.803 21.8125 16.4217C22.521 15.4387 23.237 14.4506 23.8809 13.4202C24.5247 12.3897 24.3557 11.0748 23.4781 10.2689C23.0456 9.87224 22.5012 9.65267 21.9169 9.62024C21.1165 9.57533 20.3085 9.59778 19.508 9.5878C17.8722 9.56784 16.2365 9.55037 14.6007 9.54538C14.3073 9.54538 13.8922 9.45806 13.656 9.65766C13.5889 9.71505 13.5317 9.79239 13.4745 9.85727L12.6144 10.8004C12.1271 11.3343 11.6399 11.8683 11.1526 12.4047C10.9388 12.6392 11.083 13.0434 11.4161 13.0434C14.4813 13.0434 17.5491 13.0734 20.6143 13.1058L20.2911 12.5419C17.8051 16.4342 14.7747 19.9048 11.8735 23.4827C11.0208 24.5331 10.1856 25.596 9.37263 26.6788C9.08426 27.0631 9.73061 27.4373 10.0165 27.0556V27.0531Z" fill="#1A1A1A"/>
</svg>
