<svg width="63" height="63" viewBox="0 0 63 63" fill="none" xmlns="http://www.w3.org/2000/svg">
<rect x="23.4265" y="24.3811" width="6.85908" height="5.64773" fill="#F3EAD4" stroke="#1A1A1A"/>
<rect x="34.6538" y="24.3811" width="6.85908" height="5.64773" fill="#F3EAD4" stroke="#1A1A1A"/>
<rect x="23.4265" y="34.3525" width="6.85908" height="5.64773" fill="#F3EAD4" stroke="#1A1A1A"/>
<path d="M34.7021 54.6615L34.7015 54.6609C34.5459 54.5052 34.4603 54.2986 34.4603 54.0758C34.4603 53.7532 34.6487 53.457 34.9458 53.3197L34.9493 53.3181C35.0486 53.2713 35.1605 53.2456 35.2855 53.2456H39.298C39.5172 53.2456 39.7211 53.3295 39.8798 53.4895L39.881 53.4908C40.0366 53.6465 40.1223 53.8531 40.1222 54.0758L40.1223 54.0804C40.1228 54.1376 40.1164 54.1969 40.1053 54.2503C40.0253 54.6298 39.6832 54.907 39.298 54.907H35.2855C35.0672 54.907 34.8627 54.8228 34.7021 54.6615ZM58.5 33.0677C58.5 30.6968 57.1428 28.642 55.1713 27.6358C54.8862 21.5866 52.411 15.9376 48.1191 11.6264C43.5455 7.03131 37.4639 4.5 31 4.5C18.0435 4.5 7.44322 14.777 6.82969 27.6356C4.85727 28.6419 3.5 30.6968 3.5 33.0694V39.3505C3.5 42.7088 6.21961 45.4448 9.56928 45.4448C11.8348 45.4448 13.6728 43.5954 13.6728 41.3251V31.0939C13.6728 29.1263 12.2893 27.4959 10.4536 27.0892C11.3274 16.4678 20.2087 8.09477 31 8.09477C36.5081 8.09477 41.6857 10.2504 45.5849 14.1672C49.0588 17.6568 51.1345 22.1725 51.5425 27.0906C49.7089 27.4989 48.3281 29.1282 48.3281 31.0939V41.3242C48.3281 43.3189 49.7487 44.9672 51.6225 45.3445V47.4972C51.6225 50.1344 49.4859 52.2767 46.8657 52.2767H43.3138C43.1023 51.7918 42.8063 51.3388 42.4163 50.9484C41.5863 50.1112 40.4772 49.6491 39.2988 49.6491H35.2863C34.6386 49.6491 34.0136 49.7873 33.4401 50.0556C31.8816 50.7757 30.878 52.3526 30.878 54.0741C30.878 55.2556 31.3372 56.3688 32.1691 57.2009C33.0005 58.0377 34.1094 58.5 35.2863 58.5H39.2988C41.059 58.5 42.6161 57.4329 43.3138 55.8715H46.8657C51.4673 55.8715 55.2056 52.1132 55.2056 47.4972V44.7632C57.1587 43.7504 58.5 41.7065 58.5 39.3488V33.0677ZM10.0888 31.0939V41.3242C10.0888 41.6153 9.85302 41.8492 9.56842 41.8492C8.20035 41.8492 7.08229 40.7293 7.08229 39.3496V33.0685C7.08229 31.6881 8.20025 30.569 9.56842 30.569C9.85302 30.569 10.0888 30.8029 10.0888 31.0939ZM54.9168 39.3496C54.9168 40.7293 53.7988 41.8492 52.4307 41.8492C52.1464 41.8492 51.9104 41.6156 51.9104 41.3242V31.0939C51.9104 30.8029 52.1461 30.569 52.4307 30.569C53.7988 30.569 54.9168 31.6888 54.9168 33.0685V39.3496Z" fill="#A6CC9E" stroke="#141414"/>
<path d="M24.2234 45.6665L24.2251 45.6672C24.6116 45.8231 25.016 45.9016 25.4187 45.9016C26.2531 45.9016 27.0681 45.5697 27.6663 44.9502L32.3238 40.2969H39.3635C42.6598 40.2969 45.3363 37.6041 45.3363 34.2994V23.0978C45.3363 21.5003 44.7138 19.9931 43.5856 18.8598C42.4574 17.7265 40.9568 17.1003 39.3635 17.1003H22.6367C19.3404 17.1003 16.6638 19.7922 16.6638 23.0978V34.2994C16.6638 37.4711 19.1279 40.0777 22.2391 40.2838V42.6996C22.2391 44.0078 23.0171 45.1747 24.2234 45.6665Z" fill="#A6CC9E" stroke="#1A1A1A"/>
<path d="M24.7255 26.4915C23.3966 26.4915 22.3199 27.5773 22.3199 28.9055C22.3199 30.2339 23.3976 31.3196 24.7255 31.3196C26.0548 31.3196 27.1327 30.2342 27.1327 28.9055C27.1327 27.577 26.0558 26.4915 24.7255 26.4915Z" fill="#F3EAD4" stroke="#1A1A1A"/>
<path d="M30.9993 26.4915C29.6704 26.4915 28.5938 27.5773 28.5938 28.9055C28.5938 30.2339 29.6714 31.3196 30.9993 31.3196C32.3296 31.3196 33.4065 30.234 33.4065 28.9055C33.4065 27.577 32.3296 26.4915 30.9993 26.4915Z" fill="#F3EAD4" stroke="#1A1A1A"/>
<path d="M37.2728 26.4915C35.9439 26.4915 34.8673 27.5773 34.8673 28.9055C34.8673 30.2339 35.9449 31.3196 37.2728 31.3196C38.6021 31.3196 39.68 30.2342 39.68 28.9055C39.68 27.5769 38.6021 26.4915 37.2728 26.4915Z" fill="#F3EAD4" stroke="#1A1A1A"/>
<path d="M57.1406 36.4684C57.1406 40.3878 55.559 43.5652 53.6081 43.5652C51.6571 43.5652 50.0756 40.3878 50.0756 36.4684C50.0756 32.5489 50.9506 28.6619 52.9016 28.6619C54.8525 28.6619 57.1406 32.5489 57.1406 36.4684Z" fill="#A6CC9E"/>
<path d="M37.8379 56.3497C35.2366 56.3549 33.126 55.4059 33.1237 54.2301C33.1213 53.0542 35.2282 52.0968 37.8295 52.0916C40.4307 52.0864 43.0115 52.6087 43.0139 53.7845C43.0162 54.9604 40.4392 56.3445 37.8379 56.3497Z" fill="#A6CC9E"/>
<path d="M11.9244 36.4684C11.9244 40.3878 10.3429 43.5652 8.39189 43.5652C6.44094 43.5652 4.85938 40.3878 4.85938 36.4684C4.85938 32.5489 7.14744 28.6619 9.0984 28.6619C11.0494 28.6619 11.9244 32.5489 11.9244 36.4684Z" fill="#A6CC9E"/>
</svg>
