<svg width="63" height="63" viewBox="0 0 63 63" fill="none" xmlns="http://www.w3.org/2000/svg">
<path d="M24.131 8.65577C22.1553 9.29991 20.2656 10.1802 18.5261 11.2968L18.4616 11.3397C16.7221 12.4562 15.1116 13.8089 13.7157 15.3549L8.43298 10.5882C10.2583 8.56988 12.3412 6.83072 14.5961 5.3492L14.6821 5.30627C16.9369 3.86769 19.3636 2.70823 21.9191 1.87085L24.131 8.65577Z" fill="#8BB4C8"/>
<path d="M13.7156 15.7415C13.6297 15.7415 13.5437 15.7201 13.4578 15.6557L8.17512 10.889C8.11069 10.8246 8.06762 10.7388 8.04614 10.6314C8.04614 10.524 8.06762 10.4381 8.15352 10.3523C10.0004 8.33396 12.0835 6.55184 14.4028 5.04885L14.4886 5.00586C16.7649 3.54581 19.2346 2.3649 21.8116 1.52751C22.0049 1.4631 22.2197 1.57048 22.2841 1.76372L24.4744 8.5272C24.4958 8.61308 24.4959 8.72045 24.453 8.80634C24.41 8.89222 24.3241 8.95661 24.2382 8.99956C22.3055 9.62223 20.4588 10.5026 18.7408 11.5976L18.6762 11.6405C16.9582 12.7571 15.3691 14.0883 13.9947 15.6127C13.9303 15.6986 13.823 15.7415 13.7156 15.7415ZM8.96973 10.5884L13.6942 14.8612C15.0471 13.4227 16.5932 12.1344 18.2683 11.0393L18.3327 10.9964C20.0077 9.92284 21.7901 9.06398 23.6584 8.41984L21.6826 2.36493C19.2989 3.18084 17.0227 4.27587 14.8967 5.62856L14.8107 5.6715C12.6632 7.06713 10.6877 8.72041 8.96973 10.5884Z" fill="#141414"/>
<path d="M38.0253 1.0763L36.5221 8.03302C32.2486 7.10975 27.9966 7.38886 24.1097 8.65567L21.9192 1.89219C26.9658 0.260368 32.4848 -0.10463 38.0253 1.0763Z" fill="#8BB4C8"/>
<path d="M24.1308 9.02096C23.9805 9.02096 23.8301 8.91356 23.7657 8.76326L21.5752 1.99978C21.5537 1.9139 21.5539 1.80658 21.5968 1.7207C21.6398 1.63481 21.7257 1.57037 21.8116 1.52742C27.0514 -0.168815 32.6992 -0.469398 38.1108 0.711527C38.3041 0.754469 38.4331 0.947707 38.3902 1.16242L36.8869 8.11912C36.844 8.31236 36.6506 8.4412 36.4358 8.39826C32.3771 7.51793 28.1467 7.73268 24.2168 9.02096C24.1953 9.02096 24.1523 9.02096 24.1308 9.02096ZM22.3914 2.12863L24.3669 8.18354C28.2109 7.00262 32.2912 6.80937 36.2641 7.58233L37.5956 1.35567C32.5275 0.346514 27.2877 0.604165 22.3914 2.12863Z" fill="#141414"/>
<path d="M52.264 8.31275L47.5182 13.5947C44.5117 10.8893 40.775 8.93539 36.5444 8.01212L38.0477 1.05542C43.5237 2.25782 48.3771 4.81292 52.264 8.31275Z" fill="#8BB4C8"/>
<path d="M47.5178 13.9809C47.4319 13.9809 47.3459 13.9594 47.26 13.895C44.2106 11.1681 40.4741 9.27863 36.4583 8.39831C36.265 8.35536 36.136 8.16215 36.1789 7.94744L37.6822 0.990687C37.7036 0.88333 37.7682 0.818921 37.8541 0.754507C37.94 0.690093 38.0474 0.690104 38.1333 0.711575C43.502 1.87103 48.484 4.40464 52.5428 8.0333C52.6072 8.09772 52.6717 8.18359 52.6717 8.29095C52.6717 8.39831 52.6502 8.4842 52.5858 8.57009L47.8399 13.8521C47.7111 13.9379 47.6252 13.9809 47.5178 13.9809ZM36.9951 7.75417C40.8821 8.65596 44.4897 10.4811 47.4962 13.1006L51.7482 8.37687C47.9256 5.02733 43.3086 2.68695 38.3264 1.54896L36.9951 7.75417Z" fill="#141414"/>
<path d="M61.0892 21.7963L54.3247 23.9863C53.6804 22.0325 52.7785 20.1644 51.6833 18.4467C50.5237 16.6646 49.1278 15.0113 47.5387 13.5942L52.2845 8.31226C54.3461 10.1588 56.15 12.2845 57.6532 14.6034C59.0921 16.8364 60.2517 19.2627 61.0892 21.7963Z" fill="#8BB4C8"/>
<path d="M54.3243 24.3729C54.174 24.3729 54.0238 24.2655 53.9594 24.1152C53.3366 22.2043 52.4561 20.3578 51.3608 18.6615C50.2227 16.8794 48.8483 15.2691 47.2806 13.8734C47.2162 13.809 47.1519 13.7231 47.1519 13.6158C47.1519 13.5084 47.1732 13.4225 47.2376 13.3366L51.9837 8.05471C52.1125 7.90441 52.3488 7.88292 52.5206 8.03322C54.6036 9.90122 56.4289 12.0484 57.9536 14.4102C59.4139 16.6862 60.5951 19.1339 61.4326 21.689C61.4541 21.7749 61.454 21.8822 61.411 21.9681C61.3681 22.054 61.2822 22.1184 61.1963 22.1614L54.4317 24.3514C54.3887 24.3729 54.3458 24.3729 54.3243 24.3729ZM48.0322 13.5728C49.5355 14.9685 50.8669 16.5359 51.9621 18.2536C53.0358 19.9069 53.8948 21.6675 54.5391 23.5141L60.595 21.5387C59.779 19.1554 58.6838 16.9009 57.3094 14.7752C55.8921 12.5851 54.1955 10.5669 52.2842 8.80621L48.0322 13.5728Z" fill="#141414"/>
<path d="M61.9493 37.9428L54.9916 36.4398C55.8935 32.1456 55.5928 27.8728 54.3043 23.9865L61.0689 21.7964C62.7439 26.8422 63.1304 32.3818 61.9493 37.9428Z" fill="#8BB4C8"/>
<path d="M61.9489 38.3296C61.9274 38.3296 61.9061 38.3296 61.8631 38.3296L54.9052 36.8266C54.7119 36.7836 54.5831 36.5904 54.6261 36.3756C55.4851 32.2961 55.2489 28.0447 53.9604 24.1155C53.939 24.0296 53.9389 23.9223 53.9818 23.8364C54.0248 23.7505 54.1107 23.6861 54.1966 23.6431L60.9611 21.4531C61.1544 21.3886 61.3692 21.496 61.4336 21.6893C63.1516 26.9283 63.4736 32.5967 62.314 38.0289C62.2925 38.1363 62.2281 38.2007 62.1422 38.2651C62.0993 38.3081 62.0348 38.3296 61.9489 38.3296ZM55.4421 36.1609L61.6698 37.4921C62.6791 32.4249 62.3999 27.1644 60.8538 22.269L54.7978 24.2443C56.0004 28.0877 56.2152 32.1887 55.4421 36.1609Z" fill="#141414"/>
<path d="M61.9489 37.9427L61.9275 38.0286C60.7464 43.5252 58.1694 48.3778 54.669 52.2856L49.3861 47.5189C52.0919 44.5129 54.0676 40.7769 54.9696 36.5256L54.9912 36.4397L61.9489 37.9427Z" fill="#8BB4C8"/>
<path d="M54.6687 52.672C54.5828 52.672 54.4969 52.6291 54.411 52.5862L49.1283 47.8195C48.9779 47.6907 48.9563 47.4545 49.1067 47.2828C51.834 44.2338 53.7454 40.4978 54.6044 36.4612L54.6257 36.3753C54.6687 36.1821 54.8619 36.0532 55.0766 36.0962L62.0346 37.5992C62.1419 37.6206 62.2063 37.6851 62.2707 37.7709C62.3351 37.8568 62.3352 37.9642 62.3137 38.0501L62.2923 38.1359C61.1327 43.5038 58.5986 48.5066 54.9479 52.5647C54.8834 52.6076 54.7976 52.6506 54.6687 52.672ZM49.9227 47.4975L54.6471 51.7488C58.0187 47.9054 60.3809 43.2462 61.5191 38.2219L55.2914 36.8906C54.3894 40.8199 52.5426 44.47 49.9227 47.4975Z" fill="#141414"/>
<path d="M54.6672 52.286C52.8204 54.3472 50.6943 56.1508 48.3965 57.6323C46.1417 59.0924 43.715 60.2518 41.1595 61.0892L38.969 54.3258C40.9447 53.6816 42.8131 52.7798 44.5311 51.6633C46.3135 50.5038 47.9455 49.1082 49.3843 47.5193L54.6672 52.286Z" fill="#8BB4C8"/>
<path d="M41.1602 61.4754C41.0958 61.4754 41.0528 61.454 40.9884 61.4325C40.9025 61.3896 40.838 61.3037 40.7951 61.2178L38.6048 54.4543C38.5404 54.2611 38.6477 54.0464 38.8409 53.982C40.7737 53.3593 42.6205 52.479 44.317 51.3625C46.0779 50.2245 47.6886 48.8503 49.0845 47.2829C49.1489 47.2185 49.2348 47.1541 49.3422 47.1541C49.4496 47.1541 49.5354 47.1756 49.6213 47.24L54.9041 52.0066C55.0544 52.1354 55.076 52.3716 54.9257 52.5434C53.0573 54.6261 50.9312 56.4297 48.569 57.9542C46.2927 59.4357 43.8231 60.5951 41.2462 61.454C41.2462 61.454 41.2031 61.4754 41.1602 61.4754ZM39.4422 54.5617L41.4179 60.6166C43.8016 59.8007 46.0779 58.7057 48.2039 57.3315C50.3943 55.9144 52.3915 54.2396 54.1524 52.3287L49.428 48.0773C48.0536 49.5803 46.4645 50.8901 44.7465 52.0066C43.0929 53.0587 41.289 53.9175 39.4422 54.5617Z" fill="#141414"/>
<path d="M41.1611 61.0889C36.0931 62.7422 30.5527 63.1287 24.9692 61.9263L26.4725 54.9696C30.7889 55.8928 35.0622 55.5922 38.9706 54.3254L41.1611 61.0889Z" fill="#8BB4C8"/>
<path d="M31.5192 62.9998C29.3073 62.9998 27.0738 62.7637 24.8834 62.2913C24.776 62.2698 24.7117 62.2054 24.6473 62.1195C24.5828 62.0336 24.5828 61.9263 24.6043 61.8404L26.1075 54.8837C26.129 54.7763 26.1934 54.7119 26.2793 54.6475C26.3652 54.5831 26.4725 54.5831 26.5584 54.6045C30.6601 55.4849 34.912 55.2701 38.8634 53.9604C38.9493 53.9389 39.0569 53.9389 39.1427 53.9819C39.2286 54.0248 39.2929 54.1107 39.3359 54.1966L41.5264 60.9601C41.5908 61.1533 41.4835 61.368 41.2902 61.4324C38.1334 62.4845 34.8263 62.9998 31.5192 62.9998ZM25.4203 61.6471C30.5098 62.6778 35.7712 62.3987 40.7104 60.8527L38.7346 54.7978C34.8692 56.0002 30.7461 56.2149 26.7517 55.4204L25.4203 61.6471Z" fill="#141414"/>
<path d="M26.4508 54.9695L24.9475 61.9262C19.4285 60.7453 14.5538 58.1687 10.6454 54.626L15.3912 49.344C18.4407 52.0709 22.1987 54.0677 26.4508 54.9695Z" fill="#8BB4C8"/>
<path d="M24.969 62.3127C24.9475 62.3127 24.926 62.3127 24.883 62.3127C19.4928 61.1533 14.4891 58.5982 10.4089 54.9266C10.2586 54.7977 10.2372 54.5615 10.3875 54.3898L15.1334 49.1079C15.1978 49.0434 15.2837 48.979 15.3911 48.979C15.4985 48.979 15.5843 49.0005 15.6702 49.0649C18.7197 51.8347 22.4779 53.7456 26.5366 54.6045C26.644 54.626 26.7083 54.6904 26.7728 54.7763C26.8372 54.8622 26.8372 54.9695 26.8158 55.0554L25.3125 62.0121C25.291 62.1839 25.1408 62.3127 24.969 62.3127ZM11.2035 54.6045C15.026 57.9755 19.686 60.3373 24.6897 61.4753L26.0211 55.2486C22.1127 54.3468 18.462 52.4789 15.4555 49.8594L11.2035 54.6045Z" fill="#141414"/>
<path d="M15.4135 49.3442L10.6675 54.6262C8.62736 52.7796 6.84491 50.6969 5.36315 48.3995C5.27725 48.2706 5.19144 48.1418 5.12701 48.013C3.7741 45.8444 2.67897 43.504 1.8844 41.0563L8.64896 38.8662C9.25026 40.7557 10.1091 42.5807 11.1613 44.2555C11.2258 44.3628 11.2903 44.4488 11.3547 44.5561C12.4714 46.3168 13.8459 47.9271 15.4135 49.3442Z" fill="#8BB4C8"/>
<path d="M10.6675 55.0127C10.5816 55.0127 10.4957 54.9697 10.4098 54.9267C8.34821 53.0802 6.54433 50.9546 5.04109 48.6142C4.95519 48.4854 4.86938 48.3565 4.80495 48.2277C3.43056 46.0376 2.31392 43.6543 1.51935 41.1851C1.45492 40.9918 1.56221 40.7771 1.75549 40.7127L8.52005 38.5226C8.60595 38.5012 8.71329 38.5012 8.79918 38.5441C8.88508 38.5871 8.94959 38.673 8.99254 38.7588C9.59384 40.6269 10.4314 42.409 11.4621 44.0623C11.5266 44.1696 11.591 44.2555 11.6339 44.3628C12.7721 46.102 14.125 47.6909 15.6497 49.0865C15.8001 49.2154 15.8214 49.4516 15.6711 49.6233L10.9253 54.9053C10.8823 54.9482 10.7964 54.9912 10.6675 55.0127ZM2.35674 41.2924C3.12983 43.5684 4.16071 45.7585 5.4492 47.8197C5.5351 47.9486 5.59944 48.0774 5.68534 48.2062C7.0812 50.3749 8.75636 52.3717 10.6461 54.1109L14.8981 49.3872C13.4164 48.013 12.1279 46.4671 11.0326 44.7708C10.9682 44.6635 10.9037 44.5561 10.8393 44.4702C9.82998 42.8598 9.01397 41.1421 8.41268 39.36L2.35674 41.2924Z" fill="#141414"/>
<path d="M8.64796 38.8448L1.8834 41.0349C0.251313 36.0106 -0.113927 30.4925 1.06719 24.9529L1.08879 24.8669L8.0465 26.3485L8.02511 26.4344C7.10169 30.7286 7.38095 34.98 8.64796 38.8448Z" fill="#8BB4C8"/>
<path d="M1.88352 41.4214C1.81909 41.4214 1.77598 41.3999 1.71155 41.3784C1.62565 41.3355 1.56135 41.2496 1.5184 41.1637C-0.178106 35.9247 -0.457237 30.2992 0.702403 24.8884L0.723794 24.8025C0.766744 24.6093 0.959933 24.4805 1.17468 24.5234L8.1326 26.0049C8.23998 26.0264 8.30432 26.0908 8.36874 26.1767C8.43317 26.2626 8.43321 26.3699 8.41173 26.4558L8.39034 26.5417C7.50988 30.5998 7.72458 34.8297 8.9916 38.7374C9.05602 38.9307 8.94873 39.1454 8.75546 39.2098L1.99089 41.3999C1.94794 41.4213 1.92647 41.4214 1.88352 41.4214ZM1.38943 25.3393C0.337163 30.428 0.594861 35.6671 2.14105 40.584L8.19699 38.6086C7.01587 34.7652 6.82256 30.6427 7.61713 26.6491L1.38943 25.3393Z" fill="#141414"/>
<path d="M13.7158 15.3767C11.0529 18.2968 9.07729 21.947 8.11092 26.0695C8.08945 26.1768 8.06789 26.2842 8.02494 26.3915L1.06702 24.91C1.10997 24.7597 1.13144 24.6094 1.17439 24.4591C2.41993 19.1128 4.97547 14.432 8.41144 10.6316L13.7158 15.3767Z" fill="#8BB4C8"/>
<path d="M8.0468 26.7564C8.02533 26.7564 8.00398 26.7564 7.96103 26.7564L1.00311 25.2749C0.809834 25.232 0.681027 25.0387 0.723976 24.824C0.766926 24.6737 0.788401 24.5234 0.83135 24.3516C2.05541 19.1341 4.58936 14.303 8.15418 10.3523C8.28303 10.202 8.51925 10.1805 8.69105 10.3308L13.974 15.0975C14.0384 15.1619 14.1027 15.2478 14.1027 15.3552C14.1027 15.4625 14.0813 15.5484 13.9954 15.6342C11.311 18.5973 9.39972 22.2259 8.4763 26.1552C8.45482 26.2626 8.43348 26.3699 8.39053 26.4773C8.36905 26.6276 8.2186 26.7564 8.0468 26.7564ZM1.53998 24.5878L7.76767 25.9191C8.66961 22.0113 10.5594 18.3826 13.2008 15.3766L8.4763 11.1038C5.10475 14.9042 2.72122 19.5206 1.56158 24.5019C1.56158 24.5449 1.53998 24.5664 1.53998 24.5878Z" fill="#141414"/>
<path d="M54.9908 36.4611L54.9692 36.547C54.0673 40.7769 52.0916 44.5129 49.3858 47.5404C47.947 49.1292 46.315 50.5249 44.5326 51.6843C42.7931 52.8009 40.9247 53.7026 38.9705 54.3468C35.0621 55.6351 30.7673 55.9142 26.4723 54.9909C22.1988 54.0676 18.4621 52.0708 15.4342 49.3439C13.8665 47.9268 12.4921 46.3165 11.354 44.5344C11.2895 44.427 11.225 44.3411 11.1606 44.2338C10.1083 42.559 9.271 40.7339 8.64823 38.8445C7.40269 34.9581 7.12343 30.7283 8.02538 26.4555L8.04677 26.3696C8.06824 26.2622 8.0898 26.1549 8.13275 26.0475C9.09912 21.925 11.0747 18.2964 13.7376 15.3548C15.1335 13.8089 16.7442 12.4561 18.4837 11.3396L18.548 11.2967C20.2875 10.1802 22.1557 9.27838 24.1529 8.65571C28.0398 7.3889 32.292 7.10979 36.5655 8.03306C40.796 8.93486 44.5326 10.9102 47.539 13.6156C49.1496 15.0542 50.524 16.686 51.6836 18.4682C52.8003 20.1859 53.6807 22.0538 54.325 24.0077C55.592 27.894 55.9142 32.1668 54.9908 36.4611Z" fill="#F3EAD4"/>
<path d="M31.5188 55.8927C29.8008 55.8927 28.0828 55.721 26.3863 55.3559C22.1987 54.4542 18.3332 52.4788 15.1764 49.6231C13.5872 48.1845 12.1914 46.5527 11.0318 44.7491C10.9674 44.6418 10.9028 44.5344 10.8384 44.4485C9.76468 42.7308 8.90581 40.9058 8.28304 38.9733C6.97308 34.9367 6.75825 30.578 7.66019 26.3911L7.68179 26.3052C7.70326 26.1979 7.72461 26.069 7.76756 25.9617C8.71245 21.9251 10.6667 18.1676 13.4584 15.1186C14.8757 13.5512 16.4864 12.1771 18.2688 11.0391L18.3332 10.9962C20.1156 9.85818 22.0269 8.95638 24.024 8.31224C28.0828 7.00249 32.4422 6.78774 36.6298 7.68954C40.7744 8.56986 44.6398 10.5453 47.7751 13.358C49.3857 14.7966 50.8032 16.4714 51.9843 18.2964C53.1225 20.0571 54.0244 21.9465 54.6686 23.9219C56.0001 27.98 56.2578 32.3601 55.3559 36.5685L55.3343 36.6544C54.4323 40.7984 52.4782 44.6632 49.6651 47.8195C48.2262 49.4299 46.5511 50.847 44.7472 52.0279C42.9863 53.1659 41.075 54.0677 39.0778 54.7333C36.6297 55.4848 34.0743 55.8927 31.5188 55.8927ZM31.4972 7.86132C29.0491 7.86132 26.601 8.24781 24.2388 8.99931C22.3061 9.62198 20.4592 10.5023 18.7197 11.5974L18.6553 11.6403C16.9373 12.7568 15.3483 14.088 13.9739 15.6125C11.2895 18.5755 9.37822 22.2042 8.4548 26.1335C8.43332 26.2408 8.41176 26.3482 8.36881 26.4555L8.34742 26.5414C7.46696 30.5995 7.68166 34.8294 8.94868 38.7371C9.54997 40.6051 10.3875 42.3873 11.4183 44.0406C11.4827 44.1479 11.5471 44.2338 11.59 44.3412C12.7282 46.0804 14.0812 47.6692 15.6059 49.0649C18.6553 51.8347 22.4135 53.7456 26.4722 54.6045C30.5739 55.4848 34.8259 55.2701 38.7773 53.9603C40.71 53.3376 42.5568 52.4573 44.2534 51.3408C46.0143 50.2028 47.6249 48.8287 49.0208 47.2613C51.7481 44.2123 53.6593 40.4763 54.5183 36.4397L54.5397 36.3538C55.3987 32.2742 55.1625 28.0229 53.874 24.0937C53.2513 22.1827 52.3709 20.3362 51.2757 18.6399C50.1375 16.8578 48.7631 15.2475 47.1954 13.8519C44.146 11.125 40.4092 9.2355 36.3934 8.35517C34.8258 8.0331 33.1508 7.86132 31.4972 7.86132Z" fill="#141414"/>
<path d="M36.2047 7.98002L36.1866 8.06421L36.9216 8.22203L36.9396 8.13785L36.2047 7.98002Z" fill="#141414"/>
<path d="M37.6636 0.721483L37.6274 0.889648L38.3624 1.04762L38.3985 0.87946L37.6636 0.721483Z" fill="#141414"/>
<path d="M26.1779 54.651L26.1191 54.9243L26.8541 55.0821L26.9128 54.8088L26.1779 54.651Z" fill="#141414"/>
<path d="M14.013 15.0513L13.5087 15.6101L13.6204 15.711L14.1248 15.1522L14.013 15.0513Z" fill="#141414"/>
<path d="M8.54744 10.2903L8.04321 10.8491L8.13905 10.9356L8.64328 10.3767L8.54744 10.2903Z" fill="#141414"/>
<path d="M54.8892 51.9569L54.3876 52.5181L54.4196 52.5467L54.9213 51.9855L54.8892 51.9569Z" fill="#141414"/>
<path d="M49.504 47.0261L48.998 47.5835L49.1733 47.7425L49.6792 47.1851L49.504 47.0261Z" fill="#141414"/>
<path d="M8.73212 38.3789L8.50684 38.4514L8.73716 39.1669L8.96245 39.0944L8.73212 38.3789Z" fill="#141414"/>
<path d="M1.71966 40.7439L1.67883 40.7576L1.91713 41.4704L1.95796 41.4568L1.71966 40.7439Z" fill="#141414"/>
<path d="M61.0937 21.4828L60.9709 21.5222L61.2008 22.2378L61.3236 22.1984L61.0937 21.4828Z" fill="#141414"/>
<path d="M54.2499 23.7225L54.1071 23.7693L54.3411 24.4835L54.484 24.4367L54.2499 23.7225Z" fill="#141414"/>
<path d="M24.4831 8.46316L23.7664 8.6897L23.7988 8.79222L24.5155 8.56568L24.4831 8.46316Z" fill="#141414"/>
<path d="M22.1514 1.60822L21.436 1.83911L21.4889 2.00277L22.2042 1.77188L22.1514 1.60822Z" fill="#141414"/>
<path d="M40.8167 61.2398L41.5039 60.9602L40.8167 61.2398Z" fill="#141414"/>
<path d="M39.3579 53.9078L38.6425 54.1387L38.7218 54.3843L39.4372 54.1534L39.3579 53.9078Z" fill="#141414"/>
<path d="M47.2017 13.3617L47.1306 13.4424L47.6953 13.9401L47.7664 13.8595L47.2017 13.3617Z" fill="#141414"/>
<path d="M52.1659 7.87872L52.0516 8.00732L52.6145 8.50718L52.7287 8.37857L52.1659 7.87872Z" fill="#141414"/>
<path d="M10.9248 54.9058L10.4086 54.3682L10.9248 54.9058Z" fill="#141414"/>
<path d="M15.3745 48.9855L15.2025 49.178L15.7638 49.6796L15.9358 49.4871L15.3745 48.9855Z" fill="#141414"/>
<path d="M54.8858 36.1331L54.7281 36.8679L54.9174 36.9085L55.0751 36.1737L54.8858 36.1331Z" fill="#141414"/>
<path d="M62.0678 37.5763L61.9095 38.311L61.9937 38.3291L62.1519 37.5944L62.0678 37.5763Z" fill="#141414"/>
<path d="M1.06349 24.483L0.90564 25.2178L0.989774 25.2358L1.14762 24.5011L1.06349 24.483Z" fill="#141414"/>
<path d="M8.03197 26.0501L7.87427 26.7849L8.06348 26.8255L8.22118 26.0907L8.03197 26.0501Z" fill="#141414"/>
<rect x="17.5345" y="19.4685" width="29.8595" height="23.3966" rx="4.5" fill="#8BB4C8" stroke="#1A1A1A"/>
<path d="M37.6895 29.6497C38.6896 30.227 38.6896 31.6705 37.6895 32.2478L30.2101 36.5654C29.2101 37.1426 27.9602 36.4209 27.9602 35.2663L27.9602 26.6312C27.9602 25.4766 29.2101 24.7549 30.2101 25.3321L37.6895 29.6497Z" fill="#F3EAD4" stroke="#1A1A1A"/>
</svg>
