<svg width="264" height="56" viewBox="0 0 264 56" fill="none" xmlns="http://www.w3.org/2000/svg">
<path d="M253.26 10.5415C248.158 10.5415 35.1785 10.8206 35.1785 10.8206C35.1142 9.76861 35.6501 0 26.8823 0C21.3729 0 18.9934 4.5086 17.4928 7.98665C15.8636 7.51432 11.8977 6.67699 8.72496 6.67699C1.82217 6.67699 0 10.3697 0 13.2252C0 17.927 3.8587 21.6841 5.23069 22.8864C5.48793 23.1011 5.50938 23.4661 5.31644 23.7237C4.30889 25.0334 3.90158 26.8583 6.45261 28.9194L9.15371 31.1092C9.73251 31.5816 10.0755 32.2901 10.0755 33.0415V35.4031C10.0755 36.3907 9.62533 37.3354 8.81071 37.8936C8.29622 38.2371 7.84603 38.7094 7.52448 39.2676C6.5598 40.9422 6.90279 43.0892 8.33909 44.3988L9.64676 45.6011C10.0541 45.9661 10.3542 46.4599 10.5257 46.9752C12.0263 52.1493 17.5357 55.563 22.8092 55.9923C23.1951 56.0138 32.9491 56.3358 36.0789 49.1436C36.3147 48.6068 36.7434 48.1775 37.2579 47.9413C38.6514 47.2972 41.181 45.7299 40.6879 42.853C40.5164 41.8869 40.0448 41.0281 39.3374 40.427C38.7157 39.8688 38.5227 38.9885 38.9086 38.2586C39.273 37.5716 39.7232 36.7128 40.0877 35.8969C40.6879 34.5444 42.017 33.6641 43.4747 33.6641C43.4747 33.6641 86.7565 33.8144 89.5219 33.8144C92.2874 33.8144 93.3807 34.5658 93.3807 37.0348V48.3921C93.3807 50.582 93.9166 51.2905 96.2747 51.2905H100.476C102.17 51.2905 102.599 51.0114 102.877 49.8091C103.07 49.0362 103.199 49.1007 106.007 49.1007C107.379 49.1007 204.919 48.9718 204.94 48.9718C204.94 48.9718 207.041 51.3764 210.235 51.3764C211.328 51.3764 214.737 51.2047 216.452 46.9752L222.712 33.75C222.712 33.75 250.194 34.0291 253.067 34.0291C258.983 34.0291 264 28.8549 264 28.8549V18.2061C264.043 18.249 259.326 10.5415 253.26 10.5415Z" fill="#F3EAD4"/>
<path d="M67.7211 26.7509H68.4928V29.9499H60.8397V26.7509H62.0187L61.6972 25.1837H59.039L58.7174 26.7509H59.8965V29.9499H53.2295V26.7509H54.0012L57.3026 14.7495H64.3983L67.7211 26.7509ZM59.4892 23.1226H61.2899L60.4967 19.2366H60.3038L59.4892 23.1226Z" fill="#1A1A1A"/>
<path d="M91.4089 17.9705H90.4442V26.7514H91.4089V29.9504H84.0345V26.7514H84.9777V19.9242L81.6549 29.9719H78.7609L75.3524 20.0315V26.7729H76.2956V29.9719H69.9073V26.7729H70.872V17.9919H69.9073V14.793H78.8467L80.8832 20.8903L82.834 14.793H91.4303V17.9705H91.4089Z" fill="#1A1A1A"/>
<path d="M92.974 29.9719V26.7729H93.9386V17.9919H92.974V14.793H100.391V17.9919H99.4266V26.7729H100.391V29.9719H92.974Z" fill="#1A1A1A"/>
<path d="M116.64 25.0766H115.675V28.9841C115.097 29.3061 114.261 29.6067 113.167 29.8428C112.074 30.1005 110.874 30.2293 109.609 30.2293C107.186 30.2293 105.278 29.5852 103.885 28.2971C102.513 27.0089 101.827 25.0337 101.827 22.35C101.827 19.6019 102.513 17.6053 103.885 16.36C105.257 15.1148 107.208 14.4922 109.759 14.4922C111.002 14.4922 112.16 14.621 113.232 14.8786C114.303 15.1363 115.118 15.4368 115.675 15.7589V20.4178H110.809V19.4946C110.809 18.9578 110.702 18.5499 110.466 18.3138C110.23 18.0776 109.887 17.9488 109.394 17.9488C108.901 17.9488 108.537 18.0776 108.322 18.3138C108.087 18.5499 107.979 18.9578 107.979 19.4946V25.2054C107.979 25.7422 108.087 26.1501 108.322 26.3863C108.558 26.6224 108.901 26.7512 109.394 26.7512C109.887 26.7512 110.252 26.6224 110.466 26.3863C110.702 26.1501 110.809 25.7422 110.809 25.2054V25.0766H109.759V22.1568H116.662V25.0766H116.64Z" fill="#1A1A1A"/>
<path d="M119.792 28.361C118.505 27.1158 117.841 25.1191 117.841 22.371C117.841 19.6229 118.484 17.6263 119.792 16.381C121.078 15.1358 122.922 14.5132 125.301 14.5132C127.681 14.5132 129.524 15.1358 130.81 16.381C132.097 17.6263 132.761 19.6229 132.761 22.371C132.761 25.1191 132.118 27.1158 130.81 28.361C129.524 29.6062 127.681 30.2288 125.301 30.2288C122.922 30.2288 121.078 29.6062 119.792 28.361ZM126.287 26.4073C126.502 26.1711 126.609 25.8061 126.609 25.3123V19.4082C126.609 18.9144 126.502 18.5495 126.287 18.3133C126.073 18.0771 125.73 17.9698 125.301 17.9698C124.851 17.9698 124.529 18.0771 124.315 18.3133C124.101 18.5495 123.993 18.9144 123.993 19.4082V25.3123C123.993 25.8276 124.101 26.1926 124.315 26.4073C124.529 26.6434 124.872 26.7508 125.301 26.7508C125.73 26.7508 126.073 26.6434 126.287 26.4073Z" fill="#1A1A1A"/>
<path d="M136.706 29.9068C135.591 29.6921 134.734 29.4559 134.133 29.1768V25.3123H138.421C138.421 25.7202 138.507 25.9993 138.7 26.1926C138.871 26.3643 139.214 26.4717 139.686 26.4717C140.093 26.4717 140.372 26.4073 140.543 26.2785C140.715 26.1496 140.8 25.9779 140.8 25.7203C140.8 25.5056 140.715 25.3338 140.543 25.1835C140.372 25.0332 140.072 24.8829 139.664 24.7327L137.992 24.153C136.556 23.6162 135.505 22.9722 134.884 22.2207C134.262 21.4693 133.94 20.4817 133.94 19.215C133.94 17.6692 134.434 16.5099 135.441 15.7155C136.449 14.9211 138.121 14.5132 140.479 14.5132C141.615 14.5132 142.665 14.6206 143.673 14.8567C144.659 15.0929 145.474 15.3934 146.074 15.7584V19.258H142.172C142.172 18.6139 141.765 18.2918 140.972 18.2918C140.586 18.2918 140.307 18.3348 140.136 18.4421C139.964 18.5495 139.9 18.7212 139.9 18.9574C139.9 19.1721 139.986 19.3653 140.179 19.4941C140.372 19.6229 140.672 19.7518 141.1 19.902L142.794 20.4817C144.166 20.954 145.174 21.5552 145.817 22.3066C146.438 23.058 146.76 24.0456 146.76 25.2479C146.76 26.9011 146.203 28.1463 145.088 29.0051C143.973 29.8424 142.344 30.2718 140.2 30.2718C138.978 30.2288 137.799 30.1215 136.706 29.9068Z" fill="#1A1A1A"/>
<path d="M153.576 26.7079H154.563V17.884H153.576V14.6636H162.559C164.188 14.6636 165.474 15.0071 166.374 15.6726C167.296 16.3382 167.746 17.3043 167.746 18.5281C167.746 19.301 167.554 19.9451 167.189 20.4818C166.825 21.0185 166.396 21.405 165.903 21.6841C165.41 21.9417 164.938 22.1349 164.488 22.2208V22.414C165.41 22.4999 166.246 22.8005 166.996 23.2943C167.746 23.7881 168.111 24.6898 168.111 25.9565C168.111 27.3305 167.596 28.3396 166.567 28.9622C165.538 29.6063 164.188 29.9069 162.559 29.9069H153.576V26.7079ZM161.101 21.1044C161.487 21.1044 161.765 20.9971 161.958 20.8038C162.151 20.6106 162.237 20.2886 162.237 19.8592V19.1507C162.237 18.7213 162.151 18.3993 161.958 18.206C161.765 18.0128 161.487 17.9055 161.101 17.9055H160.05V21.1259H161.101V21.1044ZM161.23 26.7079C161.615 26.7079 161.894 26.6006 162.087 26.4074C162.28 26.2141 162.366 25.8921 162.366 25.4627V24.6039C162.366 24.1745 162.28 23.8525 162.087 23.6593C161.894 23.4661 161.615 23.3587 161.23 23.3587H160.029V26.7294H161.23V26.7079Z" fill="#1A1A1A"/>
<path d="M183.91 26.7079H184.704V29.9283H177.029V26.7079H178.208L177.887 25.1407H175.228L174.907 26.7079H176.086V29.9283H169.397V26.7079H170.191L173.492 14.6636H180.631L183.91 26.7079ZM175.657 23.0796H177.458L176.665 19.1722H176.472L175.657 23.0796Z" fill="#1A1A1A"/>
<path d="M187.426 28.318C186.097 27.0727 185.411 25.0546 185.411 22.3065C185.411 17.0465 187.962 14.4058 193.086 14.4058C194.329 14.4058 195.487 14.5561 196.537 14.8566C197.609 15.1572 198.402 15.5007 198.917 15.8657V20.7607H194.222V19.3437C194.222 18.8499 194.115 18.485 193.879 18.2488C193.664 18.0126 193.321 17.9053 192.871 17.9053C192.421 17.9053 192.1 18.0126 191.864 18.2488C191.649 18.485 191.521 18.8499 191.521 19.3437V25.2693C191.521 25.7631 191.628 26.1281 191.864 26.3643C192.078 26.6004 192.421 26.7078 192.871 26.7078C193.321 26.7078 193.643 26.6004 193.879 26.3643C194.093 26.1281 194.222 25.7631 194.222 25.2693V23.6806H198.917V28.7688C198.381 29.1338 197.587 29.4773 196.537 29.7779C195.487 30.0785 194.35 30.2288 193.128 30.2288C190.663 30.2073 188.755 29.5847 187.426 28.318Z" fill="#1A1A1A"/>
<path d="M215.123 26.708H216.109V29.9284H210.771L207.835 23.8525L206.934 24.6039V26.7294H207.877V29.9498H200.482V26.7294H201.468V17.9055H200.482V14.6851H207.877V17.9055H206.934V20.5033L209.978 17.9055H208.735V14.6851H216.024V17.9055H215.037L211.758 20.6106L215.123 26.708Z" fill="#1A1A1A"/>
<path d="M217.588 29.9283V26.7079H218.574V17.884H217.588V14.6636H225.027V17.884H224.041V26.7079H225.027V29.9283H217.588Z" fill="#1A1A1A"/>
<path d="M237.868 14.6636H244.299V17.884H243.313V29.9283H237.804L232.059 21.0829V26.7079H233.002V29.9283H226.571V26.7079H227.557V17.884H226.571V14.6636H233.645L238.79 22.5214V17.8625H237.847V14.6636H237.868Z" fill="#1A1A1A"/>
<path d="M260.184 25.0331H259.198V28.9621C258.619 29.2841 257.783 29.5847 256.69 29.8423C255.596 30.0999 254.396 30.2288 253.11 30.2288C250.666 30.2288 248.758 29.5847 247.364 28.2965C245.971 27.0083 245.285 25.0117 245.285 22.328C245.285 19.5584 245.971 17.5618 247.343 16.3165C248.715 15.0713 250.687 14.4272 253.238 14.4272C254.482 14.4272 255.639 14.556 256.732 14.8137C257.826 15.0713 258.64 15.3719 259.176 15.6939V20.3743H254.289V19.4511C254.289 18.8929 254.181 18.5064 253.946 18.2703C253.71 18.0341 253.345 17.9053 252.852 17.9053C252.359 17.9053 251.995 18.0341 251.759 18.2703C251.523 18.5064 251.416 18.9143 251.416 19.4511V25.1834C251.416 25.7416 251.523 26.1281 251.759 26.3643C251.995 26.6004 252.359 26.7292 252.852 26.7292C253.345 26.7292 253.71 26.6004 253.946 26.3643C254.181 26.1281 254.289 25.7202 254.289 25.1834V25.0546H253.238V22.1348H260.162V25.0331H260.184Z" fill="#1A1A1A"/>
<path d="M102.642 39.0744C102.17 38.7953 101.635 38.6665 101.034 38.6665C100.477 38.6665 99.9839 38.7953 99.598 39.0315C99.3836 39.1603 99.1907 39.3106 99.0406 39.5038V38.7524H97.2828V47.4475H99.1264V44.4633C99.2764 44.635 99.4479 44.7638 99.6409 44.8926C100.048 45.1288 100.52 45.2576 101.056 45.2576C101.656 45.2576 102.192 45.1288 102.664 44.8497C103.135 44.5706 103.521 44.2056 103.8 43.7118C104.078 43.218 104.228 42.6384 104.228 41.9728C104.228 41.3073 104.078 40.7276 103.8 40.2338C103.5 39.74 103.114 39.3535 102.642 39.0744ZM102.106 42.896C101.956 43.1536 101.763 43.3683 101.527 43.4971C101.292 43.6474 101.013 43.7118 100.713 43.7118C100.413 43.7118 100.134 43.6474 99.8767 43.4971C99.6409 43.3468 99.4479 43.1536 99.2979 42.896C99.1478 42.6384 99.0835 42.3163 99.0835 41.9513C99.0835 41.5864 99.1478 41.2643 99.2979 41.0067C99.4479 40.749 99.6409 40.5344 99.8767 40.4056C100.112 40.2553 100.391 40.1909 100.713 40.1909C101.013 40.1909 101.292 40.2553 101.527 40.4056C101.763 40.5558 101.956 40.749 102.106 41.0067C102.256 41.2643 102.321 41.5864 102.321 41.9513C102.321 42.3163 102.256 42.6384 102.106 42.896Z" fill="#1A1A1A"/>
<path d="M110.852 39.0959C110.316 38.8168 109.716 38.6665 109.051 38.6665C108.365 38.6665 107.765 38.8168 107.251 39.0959C106.715 39.375 106.307 39.7615 106.007 40.2552C105.707 40.749 105.557 41.3073 105.557 41.9513C105.557 42.574 105.707 43.1536 106.007 43.6474C106.307 44.1412 106.736 44.5277 107.251 44.8068C107.787 45.0859 108.387 45.2362 109.051 45.2362C109.716 45.2362 110.316 45.0859 110.852 44.8068C111.388 44.5277 111.795 44.1412 112.095 43.6474C112.396 43.1536 112.546 42.5954 112.546 41.9513C112.546 41.3073 112.396 40.7276 112.095 40.2338C111.795 39.7615 111.388 39.375 110.852 39.0959ZM110.466 42.896C110.316 43.1536 110.123 43.3683 109.887 43.4971C109.652 43.6474 109.373 43.7118 109.051 43.7118C108.73 43.7118 108.473 43.6474 108.215 43.4971C107.98 43.3468 107.765 43.1536 107.637 42.896C107.486 42.6384 107.422 42.3163 107.422 41.9513C107.422 41.5864 107.486 41.2643 107.637 41.0067C107.787 40.749 107.98 40.5344 108.215 40.4056C108.451 40.2553 108.73 40.1909 109.051 40.1909C109.373 40.1909 109.63 40.2553 109.887 40.4056C110.123 40.5558 110.316 40.749 110.466 41.0067C110.616 41.2643 110.681 41.5864 110.681 41.9513C110.681 42.3163 110.616 42.6384 110.466 42.896Z" fill="#1A1A1A"/>
<path d="M121.142 38.7737H118.934L116.233 41.3286V36.3477H114.39V45.1501H116.233V43.5399L117.112 42.6597L119.127 45.1501H121.378L118.484 41.4789L121.142 38.7737Z" fill="#1A1A1A"/>
<path d="M127.145 39.0744C126.652 38.8168 126.073 38.6665 125.451 38.6665C124.808 38.6665 124.229 38.8168 123.715 39.0959C123.2 39.375 122.793 39.7615 122.493 40.2552C122.193 40.749 122.043 41.3073 122.043 41.9513C122.043 42.574 122.193 43.1536 122.493 43.6474C122.793 44.1412 123.222 44.5277 123.758 44.8068C124.315 45.0859 124.937 45.2362 125.666 45.2362C126.244 45.2362 126.759 45.1503 127.188 44.9785C127.638 44.8068 128.002 44.5491 128.281 44.2056L127.295 43.1322C127.08 43.3469 126.845 43.4971 126.587 43.6045C126.33 43.7118 126.03 43.7548 125.687 43.7548C125.301 43.7548 124.98 43.6904 124.701 43.5401C124.422 43.4113 124.208 43.1966 124.058 42.9389C123.972 42.7886 123.908 42.6384 123.886 42.4666H128.71C128.71 42.3807 128.731 42.2948 128.731 42.209C128.731 42.1231 128.752 42.0372 128.752 41.9728C128.752 41.2858 128.602 40.6847 128.324 40.1909C128.045 39.7185 127.638 39.3321 127.145 39.0744ZM124.615 40.2767C124.851 40.1479 125.13 40.062 125.451 40.062C125.773 40.062 126.051 40.1264 126.287 40.2767C126.523 40.4055 126.716 40.5988 126.845 40.8564C126.93 41.0282 126.995 41.1999 127.016 41.3931H123.886C123.908 41.1999 123.972 41.0067 124.058 40.8564C124.186 40.6202 124.379 40.427 124.615 40.2767Z" fill="#1A1A1A"/>
<path d="M132.354 39.6111V38.7524H130.596V45.1288H132.439V42.1231C132.439 41.5219 132.589 41.0711 132.911 40.7705C133.233 40.4914 133.64 40.3411 134.133 40.3411C134.197 40.3411 134.262 40.3411 134.326 40.3411C134.39 40.3411 134.455 40.3411 134.54 40.3626V38.645C133.94 38.645 133.426 38.7524 133.018 38.9885C132.74 39.1818 132.525 39.375 132.354 39.6111Z" fill="#1A1A1A"/>
<path d="M142.451 40.4056C142.708 40.2553 142.986 40.1909 143.308 40.1909C143.608 40.1909 143.865 40.2553 144.123 40.4056C144.38 40.5558 144.573 40.7705 144.744 41.0711L146.181 40.2982C145.945 39.7829 145.58 39.375 145.087 39.0959C144.594 38.8168 144.015 38.6665 143.329 38.6665C142.643 38.6665 142.022 38.8168 141.486 39.0959C140.95 39.375 140.521 39.7615 140.221 40.2552C139.921 40.749 139.771 41.3073 139.771 41.9513C139.771 42.574 139.921 43.1536 140.221 43.6474C140.521 44.1412 140.95 44.5277 141.486 44.8068C142.022 45.0859 142.643 45.2362 143.329 45.2362C143.994 45.2362 144.594 45.0859 145.087 44.8068C145.58 44.5277 145.945 44.1197 146.181 43.6045L144.744 42.8316C144.573 43.1322 144.38 43.3683 144.123 43.4971C143.865 43.6259 143.608 43.7118 143.308 43.7118C142.986 43.7118 142.708 43.6474 142.451 43.4971C142.193 43.3468 142 43.1536 141.85 42.896C141.7 42.6384 141.636 42.3163 141.636 41.9513C141.636 41.5864 141.7 41.2643 141.85 41.0067C142 40.749 142.193 40.5558 142.451 40.4056Z" fill="#1A1A1A"/>
<path d="M152.591 39.0959C152.055 38.8168 151.454 38.6665 150.79 38.6665C150.104 38.6665 149.504 38.8168 148.989 39.0959C148.453 39.375 148.046 39.7615 147.746 40.2552C147.446 40.749 147.296 41.3073 147.296 41.9513C147.296 42.574 147.446 43.1536 147.746 43.6474C148.046 44.1412 148.475 44.5277 148.989 44.8068C149.525 45.0859 150.125 45.2362 150.79 45.2362C151.454 45.2362 152.055 45.0859 152.591 44.8068C153.127 44.5277 153.534 44.1412 153.834 43.6474C154.134 43.1536 154.284 42.5954 154.284 41.9513C154.284 41.3073 154.134 40.7276 153.834 40.2338C153.534 39.7615 153.127 39.375 152.591 39.0959ZM152.205 42.896C152.055 43.1536 151.862 43.3683 151.626 43.4971C151.39 43.6474 151.111 43.7118 150.79 43.7118C150.468 43.7118 150.211 43.6474 149.954 43.4971C149.718 43.3468 149.504 43.1536 149.375 42.896C149.225 42.6384 149.161 42.3163 149.161 41.9513C149.161 41.5864 149.225 41.2643 149.375 41.0067C149.525 40.749 149.718 40.5344 149.954 40.4056C150.19 40.2553 150.468 40.1909 150.79 40.1909C151.111 40.1909 151.369 40.2553 151.626 40.4056C151.862 40.5558 152.055 40.749 152.205 41.0067C152.355 41.2643 152.419 41.5864 152.419 41.9513C152.419 42.3163 152.333 42.6384 152.205 42.896Z" fill="#1A1A1A"/>
<path d="M165.625 38.9671C165.239 38.7738 164.789 38.6665 164.274 38.6665C163.674 38.6665 163.117 38.8168 162.666 39.0959C162.388 39.2676 162.173 39.4609 161.98 39.697C161.83 39.4609 161.637 39.2462 161.423 39.0959C160.994 38.7953 160.48 38.645 159.88 38.645C159.365 38.645 158.893 38.7524 158.486 38.9885C158.25 39.1173 158.057 39.2891 157.886 39.4823V38.7309H156.128V45.1073H157.972V41.9513C157.972 41.5649 158.036 41.2643 158.143 41.0067C158.272 40.7705 158.422 40.5773 158.636 40.4485C158.851 40.3196 159.086 40.2552 159.365 40.2552C159.751 40.2552 160.051 40.3841 160.265 40.6202C160.48 40.8564 160.587 41.2428 160.587 41.7581V45.1288H162.431V41.9513C162.431 41.5649 162.495 41.2643 162.602 41.0067C162.731 40.7705 162.881 40.5773 163.095 40.4485C163.309 40.3196 163.545 40.2552 163.824 40.2552C164.21 40.2552 164.51 40.3841 164.724 40.6202C164.939 40.8564 165.046 41.2428 165.046 41.7581V45.1288H166.889V41.479C166.889 40.8349 166.782 40.2982 166.547 39.8903C166.311 39.4823 166.011 39.1818 165.625 38.9671Z" fill="#1A1A1A"/>
<path d="M178.637 38.9671C178.251 38.7738 177.801 38.6665 177.286 38.6665C176.686 38.6665 176.128 38.8168 175.678 39.0959C175.4 39.2676 175.185 39.4609 174.992 39.697C174.842 39.4609 174.649 39.2462 174.435 39.0959C174.006 38.7953 173.492 38.645 172.891 38.645C172.377 38.645 171.905 38.7524 171.498 38.9885C171.262 39.1173 171.069 39.2891 170.898 39.4823V38.7309H169.14V45.1073H170.984V41.9513C170.984 41.5649 171.048 41.2643 171.155 41.0067C171.284 40.7705 171.434 40.5773 171.648 40.4485C171.862 40.3196 172.098 40.2552 172.377 40.2552C172.763 40.2552 173.063 40.3841 173.277 40.6202C173.492 40.8564 173.599 41.2428 173.599 41.7581V45.1288H175.442V41.9513C175.442 41.5649 175.507 41.2643 175.614 41.0067C175.743 40.7705 175.893 40.5773 176.107 40.4485C176.321 40.3196 176.557 40.2552 176.836 40.2552C177.222 40.2552 177.522 40.3841 177.736 40.6202C177.951 40.8564 178.058 41.2428 178.058 41.7581V45.1288H179.901V41.479C179.901 40.8349 179.794 40.2982 179.558 39.8903C179.344 39.4823 179.022 39.1818 178.637 38.9671Z" fill="#1A1A1A"/>
<path d="M186.719 41.9299C186.719 42.3164 186.655 42.6384 186.526 42.8961C186.397 43.1537 186.226 43.3469 186.012 43.4757C185.797 43.6046 185.54 43.669 185.261 43.669C184.854 43.669 184.532 43.5402 184.318 43.304C184.082 43.0464 183.975 42.6599 183.975 42.1446V38.8169H182.131V42.4237C182.131 43.0893 182.239 43.626 182.474 44.0339C182.71 44.4633 183.032 44.7639 183.439 44.9786C183.846 45.1933 184.318 45.2792 184.854 45.2792C185.347 45.2792 185.797 45.1718 186.204 44.9357C186.44 44.8069 186.655 44.6351 186.826 44.4204V45.1718H188.584V38.7954H186.74V41.9299H186.719Z" fill="#1A1A1A"/>
<path d="M196.13 38.9671C195.723 38.7739 195.272 38.6665 194.779 38.6665C194.243 38.6665 193.75 38.7739 193.322 39.01C193.064 39.1389 192.85 39.3321 192.679 39.5253V38.7524H190.921V45.1288H192.764V41.9728C192.764 41.5864 192.829 41.2428 192.957 41.0067C193.086 40.749 193.279 40.5558 193.493 40.4485C193.729 40.3197 193.986 40.2552 194.286 40.2552C194.694 40.2552 195.015 40.3841 195.251 40.6202C195.465 40.8564 195.594 41.2428 195.594 41.7581V45.1288H197.438V41.479C197.438 40.8349 197.33 40.2982 197.095 39.8903C196.837 39.4824 196.516 39.1818 196.13 38.9671Z" fill="#1A1A1A"/>
<path d="M200.589 35.811C200.246 35.811 199.967 35.9184 199.753 36.1116C199.538 36.3048 199.431 36.5625 199.431 36.8416C199.431 37.1421 199.538 37.3783 199.753 37.5715C199.967 37.7647 200.246 37.8721 200.589 37.8721C200.932 37.8721 201.21 37.7647 201.425 37.5715C201.639 37.3783 201.746 37.1207 201.746 36.7986C201.746 36.4981 201.639 36.2619 201.425 36.0901C201.21 35.8969 200.932 35.811 200.589 35.811Z" fill="#1A1A1A"/>
<path d="M201.51 38.7739H199.667V45.1504H201.51V38.7739Z" fill="#1A1A1A"/>
<path d="M206.699 43.7763C206.463 43.7763 206.27 43.7119 206.12 43.5616C205.97 43.4113 205.905 43.2181 205.905 42.939V40.3412H207.492V38.9242H205.905V37.3784H204.062V38.9242H203.076V40.3412H204.062V42.9605C204.062 43.7119 204.276 44.2916 204.683 44.678C205.112 45.0645 205.691 45.2577 206.441 45.2577C206.72 45.2577 206.999 45.2148 207.256 45.1504C207.513 45.086 207.749 44.9786 207.942 44.8498L207.449 43.5402C207.234 43.6905 206.999 43.7763 206.699 43.7763Z" fill="#1A1A1A"/>
<path d="M214.008 38.7744L212.207 43.1112L210.428 38.7744H208.52L211.285 45.2152L211.264 45.2582C211.135 45.5373 211.007 45.752 210.835 45.8593C210.685 45.9881 210.471 46.0525 210.214 46.0525C210.042 46.0525 209.849 46.0096 209.656 45.9452C209.463 45.8808 209.313 45.7734 209.163 45.6446L208.477 46.9543C208.692 47.126 208.949 47.2763 209.27 47.3837C209.592 47.491 209.913 47.5339 210.256 47.5339C210.642 47.5339 211.007 47.4695 211.307 47.3622C211.628 47.2334 211.929 47.0402 212.186 46.7396C212.443 46.439 212.679 46.0525 212.893 45.5373L215.766 38.7529H214.008V38.7744Z" fill="#1A1A1A"/>
<path d="M23.1517 51.8699C19.2072 51.5479 14.2552 48.7139 14.2552 44.1409L14.1695 23.6161C14.7054 18.5064 20.5792 14.9425 25.6598 15.4792L26.3029 15.5436C31.3836 16.0804 37.2788 20.911 36.7429 26.0207C36.7429 26.0207 33.2701 42.7239 32.6484 46.2879C32.0267 49.8518 27.0747 52.192 23.1517 51.8699Z" fill="#6FA467"/>
<path d="M23.902 52.1922C23.6448 52.1922 23.3661 52.1922 23.1088 52.1707C18.7142 51.8057 13.9551 48.6497 13.9551 44.1626L13.8694 23.6378V23.6163C14.1266 21.1259 15.6058 18.8716 18.0282 17.2399C20.322 15.6941 23.0874 14.9856 25.6599 15.2432L26.303 15.3077C28.8755 15.5868 31.6837 16.9393 33.7846 18.9145C36.0998 21.0829 37.236 23.6378 36.9787 26.1068V26.1283C36.9359 26.3 33.5059 42.853 32.8842 46.3954C32.3269 49.852 27.825 52.1922 23.902 52.1922ZM14.4268 23.6378L14.5125 44.1626C14.5125 48.7571 19.6789 51.3119 23.1517 51.6125C23.3875 51.634 23.6233 51.634 23.8591 51.634C27.5035 51.634 31.8124 49.4441 32.3483 46.2666C32.9485 42.7671 36.3142 26.5576 36.4428 25.9994C36.6786 23.7237 35.6068 21.3406 33.4202 19.301C31.3836 17.4117 28.704 16.102 26.2601 15.8444L25.617 15.78C23.1731 15.5223 20.5364 16.2094 18.3498 17.6693C16.0774 19.1936 14.684 21.3191 14.4268 23.6378Z" fill="#1A1A1A"/>
<path d="M14.8781 27.3524L9.04715 25.7207L15.3926 30.8734" fill="#6FA467"/>
<path d="M15.3923 31.152C15.328 31.152 15.2637 31.1305 15.2208 31.0876L8.87542 25.9349C8.76823 25.8491 8.7468 25.6988 8.81111 25.5914C8.87542 25.4841 9.00404 25.4197 9.13267 25.4411L14.9636 27.0728C15.1137 27.1157 15.1994 27.266 15.1565 27.4163C15.1137 27.5666 14.9636 27.6525 14.8135 27.6095L10.2688 26.3429L15.5853 30.6582C15.7139 30.7441 15.7139 30.9373 15.6282 31.0446C15.5424 31.1091 15.4781 31.152 15.3923 31.152Z" fill="#1A1A1A"/>
<path d="M17.2144 43.2389L11.1047 41.3281L15.8424 45.6435" fill="#6FA467"/>
<path d="M15.8425 45.9232C15.7782 45.9232 15.7139 45.9017 15.6496 45.8587L10.9119 41.5434C10.8262 41.4575 10.7833 41.3072 10.8476 41.1999C10.9119 41.0925 11.0406 41.0281 11.1692 41.0711L17.2788 42.9819C17.4289 43.0248 17.5146 43.1751 17.4503 43.3254C17.4074 43.4756 17.2574 43.5615 17.1073 43.4971L12.1982 41.9513L16.014 45.4079C16.1212 45.5152 16.1426 45.687 16.0354 45.7943C15.9926 45.8802 15.9282 45.9232 15.8425 45.9232Z" fill="#1A1A1A"/>
<path d="M31.8978 45.9022L36.614 43.5621L31.4691 42.918" fill="#6FA467"/>
<path d="M31.8978 46.181C31.7907 46.181 31.7049 46.1166 31.6406 46.0307C31.5763 45.9019 31.6192 45.7301 31.7692 45.6657L35.6494 43.7335L31.4262 43.2182C31.2762 43.1967 31.169 43.0679 31.1904 42.9176C31.2119 42.7673 31.3405 42.66 31.4905 42.6814L36.6355 43.3255C36.7641 43.347 36.8498 43.4329 36.8713 43.5617C36.8927 43.6905 36.8284 43.7979 36.7212 43.8623L32.005 46.2024C31.9836 46.181 31.9407 46.181 31.8978 46.181Z" fill="#1A1A1A"/>
<path d="M22.2518 37.3571C24.9039 37.3571 27.0538 35.2039 27.0538 32.5479C27.0538 29.8919 24.9039 27.7388 22.2518 27.7388C19.5998 27.7388 17.4499 29.8919 17.4499 32.5479C17.4499 35.2039 19.5998 37.3571 22.2518 37.3571Z" fill="#F3EAD4"/>
<path d="M22.252 37.6575C22.0806 37.6575 21.8876 37.6575 21.7161 37.636C18.9293 37.3355 16.8927 34.8235 17.1929 32.0325C17.3429 30.6799 18.0075 29.4562 19.0579 28.6189C20.1083 27.7601 21.4374 27.3736 22.788 27.5239C25.5748 27.8245 27.6114 30.3364 27.3112 33.1274C27.0326 35.7038 24.8245 37.6575 22.252 37.6575ZM22.252 28.0177C21.2231 28.0177 20.2369 28.3612 19.4223 29.0268C18.4791 29.7782 17.9003 30.8732 17.7717 32.0754C17.5144 34.5659 19.3151 36.7987 21.8019 37.0778C24.2886 37.3355 26.5181 35.532 26.7967 33.0416C27.054 30.5511 25.2533 28.3183 22.7665 28.0392C22.5736 28.0177 22.4021 28.0177 22.252 28.0177Z" fill="#1A1A1A"/>
<path d="M31.9199 37.4001C34.572 37.4001 36.7219 35.2469 36.7219 32.5909C36.7219 29.9349 34.572 27.7817 31.9199 27.7817C29.2679 27.7817 27.118 29.9349 27.118 32.5909C27.118 35.2469 29.2679 37.4001 31.9199 37.4001Z" fill="#F3EAD4"/>
<path d="M31.9416 37.6791C31.7486 37.6791 31.5771 37.6791 31.3842 37.6576C28.5974 37.357 26.5608 34.8451 26.8609 32.0541C27.1611 29.263 29.6692 27.2234 32.4561 27.524C35.2429 27.8246 37.2794 30.3365 36.9793 33.1275C36.8293 34.4801 36.1647 35.7039 35.1143 36.5412C34.2139 37.2926 33.0992 37.6791 31.9416 37.6791ZM31.9201 28.0393C29.6263 28.0393 27.6756 29.7783 27.4183 32.097C27.1611 34.5875 28.9618 36.8203 31.4485 37.0994C32.649 37.2282 33.8281 36.8847 34.7713 36.1118C35.7145 35.3389 36.2933 34.2654 36.422 33.0631C36.6792 30.5727 34.8785 28.3399 32.3918 28.0608C32.2417 28.0608 32.0916 28.0393 31.9201 28.0393Z" fill="#1A1A1A"/>
<path d="M20.7513 33.385C20.3226 33.3421 20.001 32.9342 20.1082 32.4833C20.1939 32.0969 20.5798 31.8607 20.9657 31.9036L24.4814 32.2901C24.5243 32.2901 24.5457 32.2686 24.5457 32.2257C24.4171 30.6584 23.1523 29.3488 21.4802 29.3058C19.8938 29.2629 18.479 30.4437 18.2431 32.0325C17.9859 33.8359 19.2721 35.4675 21.0514 35.6608C22.4234 35.8111 23.6882 35.0597 24.267 33.8574C24.2885 33.8144 24.267 33.7715 24.2241 33.7715L20.7513 33.385Z" fill="#1A1A1A"/>
<path d="M30.3769 33.4279C29.9482 33.3849 29.6266 32.977 29.7338 32.5261C29.8196 32.1397 30.2054 31.9035 30.5913 31.9465L34.2356 32.3329C34.2571 32.3329 34.2999 32.3114 34.2999 32.29C34.1928 30.7012 32.9065 29.3916 31.2344 29.3272C29.6481 29.2628 28.2118 30.4651 27.9974 32.0324C27.7401 33.8358 29.0049 35.4674 30.8057 35.6607C32.1777 35.811 33.4424 35.0595 33.9998 33.8787C34.0213 33.8572 33.9998 33.8143 33.9569 33.8143L30.3769 33.4279Z" fill="#1A1A1A"/>
<path d="M22.5307 29.499C19.8939 29.2199 19.1436 29.2844 18.7791 29.2414C19.7009 28.168 21.3945 27.6312 22.7665 27.76C24.3528 27.9318 25.7248 28.9409 26.2607 29.8855C25.7248 29.8211 23.8812 29.6493 22.5307 29.499Z" fill="#FC9B59"/>
<path d="M26.261 30.1863C26.2395 30.1863 26.2395 30.1863 26.2181 30.1863C25.8322 30.1434 24.7389 30.0146 23.6671 29.9073L22.488 29.7784C20.6444 29.5852 19.7226 29.5637 19.2296 29.5423C18.9937 29.5423 18.8437 29.5423 18.7365 29.5208C18.6293 29.4993 18.5436 29.4349 18.5221 29.3491C18.4792 29.2632 18.5007 29.1558 18.565 29.0699C19.4868 27.975 21.2447 27.3309 22.8096 27.5027C24.5889 27.6959 25.9823 28.8123 26.5182 29.7784C26.5611 29.8643 26.5611 29.9931 26.4968 30.079C26.4539 30.1434 26.3682 30.1863 26.261 30.1863ZM22.5523 29.2202L23.7314 29.3491C24.4388 29.4135 25.1462 29.4993 25.6607 29.5637C25.039 28.8553 23.9457 28.1897 22.7238 28.0609C21.5662 27.9321 20.28 28.3185 19.4225 29.0055C19.9799 29.0055 20.9017 29.0485 22.5523 29.2202Z" fill="#1A1A1A"/>
<path d="M31.5552 29.5201C28.9184 29.8421 28.2539 30.0353 27.8895 30.0783C28.4039 28.8545 29.9474 28.0816 31.3194 27.8669C32.8629 27.6308 34.4278 28.1246 35.2424 29.1122C34.7065 29.1551 32.8843 29.3483 31.5552 29.5201Z" fill="#FC9B59"/>
<path d="M27.8898 30.358C27.8041 30.358 27.7183 30.315 27.6754 30.2506C27.6111 30.1647 27.6111 30.0788 27.6326 29.9715C28.1899 28.6404 29.862 27.8031 31.2769 27.5884C32.9276 27.3308 34.5782 27.846 35.4572 28.9195C35.5215 29.0054 35.5429 29.1127 35.5 29.1986C35.4572 29.2845 35.3714 29.3489 35.2642 29.3704C34.7283 29.4348 32.9061 29.628 31.5556 29.7783C29.7548 29.993 28.8759 30.1647 28.3829 30.2506C28.1471 30.2935 27.997 30.315 27.8898 30.3365C27.9112 30.358 27.8898 30.358 27.8898 30.358ZM32.0915 28.0822C31.8557 28.0822 31.5985 28.1036 31.3626 28.1466C30.2908 28.3183 29.0474 28.8551 28.4043 29.7139C28.8974 29.628 29.7977 29.4777 31.5127 29.263C32.5417 29.1342 33.8279 28.9839 34.6425 28.898C33.978 28.3828 33.0562 28.0822 32.0915 28.0822Z" fill="#1A1A1A"/>
<path d="M23.6237 42.1011C23.4308 42.1011 23.2164 42.0797 23.002 42.0367C21.3514 41.7147 21.0298 39.9542 21.0727 39.0739C21.0727 38.9237 21.2227 38.7948 21.3728 38.8163C21.5228 38.8163 21.6515 38.9666 21.63 39.1169C21.63 39.2028 21.5229 41.178 23.1092 41.5C25.1029 41.8864 25.746 39.9542 25.7889 39.8683C25.8317 39.718 25.9818 39.6321 26.1319 39.6966C26.2819 39.7395 26.3677 39.8898 26.3034 40.0401C26.3034 40.0401 25.6174 42.1011 23.6237 42.1011Z" fill="#1A1A1A"/>
<path d="M15.0919 19.2794C15.0919 19.2794 19.0363 19.2364 22.9808 21.0828C25.7891 22.3925 27.0967 23.5088 27.7399 24.4964C26.0463 23.6806 24.0527 22.5427 21.5016 21.9201C16.2066 20.6319 14.1915 22.9936 14.1915 22.9936L15.0919 19.2794Z" fill="#1A1A1A"/>
<path d="M31.7698 21.1263C31.7698 21.1263 31.0624 11.4221 30.9337 9.46835C30.8051 7.5361 29.5617 4.63773 27.268 4.18687C24.9742 3.73601 22.8948 5.7112 22.0373 7.83667C21.1798 9.98362 18.0285 16.8538 18.0285 16.8538L31.7698 21.1263Z" fill="#FC9B59"/>
<path d="M31.7699 21.4051C31.7485 21.4051 31.7056 21.4051 31.6842 21.3836L17.9429 17.1327C17.8571 17.1112 17.8143 17.0468 17.7714 16.9824C17.7285 16.918 17.75 16.8321 17.7714 16.7462C17.7928 16.6818 20.9227 9.85454 21.7587 7.72907C22.6805 5.47478 24.8671 3.43519 27.311 3.90752C29.7763 4.37985 31.0625 7.4285 31.2126 9.44662C31.3412 11.3574 32.0272 20.9972 32.0486 21.1045C32.0486 21.1904 32.0272 21.2763 31.9414 21.3407C31.8985 21.3836 31.8342 21.4051 31.7699 21.4051ZM18.4145 16.7033L31.4698 20.7395C31.3412 18.8932 30.7838 11.1857 30.6766 9.48958C30.548 7.66468 29.4118 4.89511 27.2252 4.46572C25.0815 4.0578 23.1307 5.90416 22.2947 7.96523C21.5229 9.83307 19.0148 15.3722 18.4145 16.7033Z" fill="#1A1A1A"/>
<path d="M31.4056 15.9517L31.5342 20.0738C31.5342 20.0738 34.171 22.4569 38.7157 23.3801C41.2667 23.8954 42.5315 23.7236 43.0675 23.5733C43.6034 23.423 46.0687 22.9936 45.0397 21.2761C44.2251 19.9235 42.1242 18.528 38.5871 17.5833C35.5216 16.746 31.4056 15.9517 31.4056 15.9517Z" fill="#FB7C26"/>
<path d="M41.6738 24.0028C40.945 24.0028 39.9589 23.9169 38.6512 23.6593C34.0851 22.7361 31.4483 20.3744 31.3411 20.2886C31.2768 20.2456 31.2553 20.1597 31.2553 20.0953L31.1267 15.9732C31.1267 15.8873 31.1696 15.8014 31.2339 15.7585C31.2982 15.6941 31.384 15.6726 31.4697 15.6941C31.5126 15.6941 35.6285 16.5099 38.6512 17.3258C41.974 18.2275 44.3106 19.5801 45.2753 21.1473C45.5754 21.6411 45.6397 22.1135 45.4897 22.5214C45.1467 23.3587 43.9247 23.6593 43.3459 23.8095C43.2602 23.831 43.1959 23.8525 43.153 23.8525C42.8529 23.9169 42.4027 24.0028 41.6738 24.0028ZM31.7913 19.945C32.2843 20.353 34.7925 22.3067 38.7584 23.1225C41.3737 23.6593 42.5742 23.4446 42.9815 23.3157C43.0244 23.2943 43.1101 23.2728 43.1959 23.2513C43.6461 23.144 44.7179 22.8649 44.9537 22.2852C45.0609 22.0491 44.9966 21.7485 44.7822 21.405C44.2677 20.5677 42.7886 18.9789 38.5011 17.8196C36.0144 17.154 32.7345 16.467 31.6841 16.2523L31.7913 19.945Z" fill="#1A1A1A"/>
<path d="M14.1271 11.4214C9.02501 10.4767 5.91661 10.6056 4.52319 12.0011C3.73001 12.7954 3.81576 15.7153 7.91027 19.7945C8.55339 19.4295 11.0616 18.9357 14.0628 19.5368C24.6099 21.6408 30.0764 26.6432 35.7573 27.824C38.8228 28.4681 43.9463 28.5755 45.1039 22.607C45.1039 22.607 43.9034 24.0025 39.4016 23.5302C32.5417 22.7787 24.5027 13.3751 14.1271 11.4214Z" fill="#FC9B59"/>
<path d="M38.4369 28.4037C37.4508 28.4037 36.5076 28.2748 35.7144 28.1031C33.292 27.5878 30.9553 26.4285 28.2328 25.0759C24.4384 23.1866 20.1081 21.0396 14.0199 19.8159C11.1473 19.2362 8.68201 19.6871 8.06033 20.0306C7.95314 20.095 7.82452 20.0735 7.73877 19.9876C4.2445 16.531 3.88007 14.105 3.88007 13.2462C3.88007 12.6236 4.05157 12.1083 4.35169 11.8078C5.78798 10.3693 8.91782 10.1761 14.1914 11.1637C19.7651 12.2157 24.6956 15.3932 29.0474 18.2271C32.949 20.7605 36.3146 22.929 39.4659 23.2725C43.7105 23.7233 44.911 22.4566 44.9324 22.4351C45.0181 22.3493 45.1468 22.3063 45.254 22.3708C45.3611 22.4352 45.4255 22.5425 45.404 22.6713C44.9967 24.7968 44.0535 26.3426 42.6172 27.3087C41.3309 28.1246 39.8518 28.4037 38.4369 28.4037ZM11.233 18.9786C12.112 18.9786 13.0766 19.0645 14.1271 19.2577C20.301 20.4814 24.6313 22.6498 28.4686 24.5606C31.1482 25.8917 33.4849 27.0511 35.8216 27.5449C37.6866 27.9313 40.3234 28.1246 42.2956 26.8149C43.4532 26.042 44.2464 24.8397 44.6966 23.208C43.9248 23.616 42.3385 24.0883 39.4016 23.7663C36.1217 23.4228 32.7132 21.2114 28.7473 18.6351C24.4384 15.844 19.5507 12.688 14.0842 11.6575C9.00357 10.7128 6.02379 10.8631 4.73756 12.1513C4.54462 12.3445 4.416 12.731 4.416 13.1818C4.416 13.9762 4.75899 16.1661 7.97458 19.408C8.55339 19.2147 9.73243 18.9786 11.233 18.9786Z" fill="#1A1A1A"/>
<path d="M13.8918 22.843C9.77581 21.1899 7.91077 19.7729 7.91077 19.7729C7.91077 19.7729 11.1907 18.635 15.1994 19.7514C14.5134 20.6531 14.1061 21.9842 13.8918 22.843Z" fill="#FB7C26"/>
<path d="M13.8917 23.1224C13.8488 23.1224 13.8274 23.1224 13.7845 23.1009C9.66856 21.4478 7.82495 20.0523 7.73921 19.9879C7.65346 19.9235 7.61058 19.8161 7.63202 19.7303C7.65346 19.6444 7.71777 19.537 7.80351 19.5156C7.93214 19.4726 11.212 18.3562 15.2637 19.4941C15.3494 19.5156 15.4137 19.58 15.4566 19.6658C15.4781 19.7517 15.478 19.8591 15.4137 19.9235C14.7277 20.8037 14.3204 22.1778 14.1489 22.9077C14.1275 22.9936 14.0846 23.058 13.9989 23.0795C13.9774 23.1224 13.9346 23.1224 13.8917 23.1224ZM8.55382 19.8805C9.30412 20.3743 10.9977 21.3619 13.6988 22.4784C13.9131 21.684 14.2347 20.7179 14.7492 19.9235C11.9838 19.2365 9.58281 19.6444 8.55382 19.8805Z" fill="#1A1A1A"/>
</svg>
