<svg width="137" height="46" viewBox="0 0 137 46" fill="none" xmlns="http://www.w3.org/2000/svg">
<path d="M18.6637 15.8392H19.6751V19.9613H9.80898V15.8392H11.3166L10.9158 13.8164H7.49987L7.09912 15.8392H8.60672V19.9613H6.10352e-05V15.8392H1.01148L5.26711 0.381592H14.4272L18.6637 15.8392ZM8.0533 11.1638H10.3624L9.33189 6.1639H9.08381L8.0533 11.1638Z" fill="#141414"/>
<path d="M49.2544 4.52289H47.9949V15.8585H49.2544V19.9805H39.7318V15.8585H40.934V7.04194L36.6593 19.9805H32.9381L28.5298 7.17552V15.8585H29.732V19.9805H21.4689V15.8585H22.7284V4.52289H21.4689V0.400879H32.9953L35.6097 8.26327L38.1288 0.400879H49.2354V4.52289H49.2544Z" fill="#141414"/>
<path d="M51.2583 19.9613V15.8392H52.5178V4.50365H51.2583V0.381592H60.8191V4.50365H59.5596V15.8392H60.8191V19.9613H51.2583Z" fill="#141414"/>
<path d="M81.8296 13.683H80.5701V18.7211C79.8258 19.1409 78.7572 19.5226 77.345 19.847C75.9328 20.1714 74.387 20.3432 72.7459 20.3432C69.6162 20.3432 67.1544 19.5226 65.3796 17.8623C63.6049 16.2021 62.7079 13.664 62.7079 10.1908C62.7079 6.64126 63.5858 4.06498 65.3606 2.46197C67.1353 0.858958 69.6543 0.0383301 72.9558 0.0383301C74.5588 0.0383301 76.0473 0.2101 77.4404 0.53452C78.8335 0.878022 79.8831 1.24059 80.5892 1.66043V7.67173H74.2916V6.48856C74.2916 5.78247 74.139 5.26722 73.8527 4.96188C73.5665 4.65655 73.0894 4.5039 72.4596 4.5039C71.8299 4.5039 71.3528 4.65655 71.0665 4.96188C70.7803 5.26722 70.6276 5.78247 70.6276 6.48856V13.8357C70.6276 14.5418 70.7803 15.057 71.0665 15.3624C71.3528 15.6677 71.8299 15.8204 72.4596 15.8204C73.0894 15.8204 73.5665 15.6677 73.8527 15.3624C74.139 15.057 74.2916 14.5418 74.2916 13.8357V13.664H72.9367V9.90453H81.8487V13.683H81.8296Z" fill="#141414"/>
<path d="M85.8946 17.9003C84.2153 16.2973 83.3947 13.721 83.3947 10.1715C83.3947 6.62192 84.2344 4.04565 85.8946 2.44264C87.5549 0.839624 89.9403 0.019043 93.0128 0.019043C96.0852 0.019043 98.4516 0.82054 100.131 2.44264C101.791 4.04565 102.631 6.62192 102.631 10.1715C102.631 13.721 101.791 16.2973 100.131 17.9003C98.4707 19.5033 96.0852 20.3239 93.0128 20.3239C89.9403 20.3239 87.5549 19.5224 85.8946 17.9003ZM94.2723 15.3813C94.5586 15.0759 94.6921 14.6179 94.6921 13.9691V6.37386C94.6921 5.7441 94.5586 5.26699 94.2723 4.96165C93.9861 4.65631 93.5662 4.50366 92.9937 4.50366C92.4212 4.50366 92.0014 4.65631 91.7151 4.96165C91.4289 5.26699 91.2953 5.72502 91.2953 6.37386V13.9691C91.2953 14.6179 91.4289 15.095 91.7151 15.4003C92.0014 15.6866 92.4212 15.8392 92.9937 15.8392C93.5662 15.8392 93.9861 15.6866 94.2723 15.3813Z" fill="#141414"/>
<path d="M107.707 19.9041C106.276 19.6178 105.169 19.3125 104.406 18.969V13.9882H109.94C109.94 14.5035 110.055 14.8851 110.284 15.1141C110.513 15.3431 110.952 15.4576 111.562 15.4576C112.077 15.4576 112.459 15.3813 112.688 15.2095C112.917 15.0569 113.032 14.8088 113.032 14.4844C113.032 14.2172 112.917 13.9882 112.707 13.7974C112.497 13.6065 112.116 13.4157 111.581 13.2058L109.425 12.4424C107.555 11.7363 106.219 10.9158 105.417 9.94252C104.597 8.98835 104.196 7.69066 104.196 6.06856C104.196 4.08388 104.845 2.57629 106.142 1.54578C107.44 0.515273 109.616 0 112.65 0C114.119 0 115.474 0.152677 116.772 0.43893C118.051 0.725182 119.1 1.12595 119.883 1.60304V6.10672H114.825C114.825 5.26704 114.31 4.84724 113.261 4.84724C112.764 4.84724 112.402 4.90449 112.192 5.03807C111.982 5.17166 111.887 5.38157 111.887 5.70599C111.887 5.99225 112.001 6.22122 112.249 6.39297C112.497 6.56472 112.898 6.73648 113.451 6.92732L115.646 7.69066C117.421 8.30133 118.719 9.08376 119.539 10.0379C120.36 11.0112 120.76 12.2707 120.76 13.8165C120.76 15.9538 120.035 17.5568 118.604 18.6446C117.173 19.7323 115.074 20.2858 112.306 20.2858C110.665 20.3239 109.139 20.1903 107.707 19.9041Z" fill="#141414"/>
<path d="M0 40.7433H1.25952V29.4077H0V25.2856H11.5455C13.6447 25.2856 15.2859 25.7055 16.45 26.5642C17.6332 27.423 18.2056 28.6443 18.2056 30.2474C18.2056 31.2397 17.9767 32.0794 17.4996 32.7473C17.0225 33.4152 16.4881 33.9305 15.8584 34.274C15.2286 34.6175 14.618 34.8465 14.0264 34.961V35.2091C15.2096 35.3236 16.2973 35.7053 17.2515 36.335C18.2056 36.9648 18.6827 38.1098 18.6827 39.7509C18.6827 41.5066 18.0148 42.8043 16.6981 43.6058C15.3813 44.4264 13.6447 44.8272 11.5455 44.8272H0V40.7433ZM9.65626 33.5488C10.1333 33.5488 10.515 33.4152 10.744 33.1671C10.9921 32.9 11.1066 32.4992 11.1066 31.9458V31.0489C11.1066 30.4954 10.9921 30.0947 10.744 29.8275C10.4959 29.5604 10.1333 29.4459 9.65626 29.4459H8.30132V33.5679H9.65626V33.5488ZM9.828 40.7433C10.3051 40.7433 10.6868 40.6097 10.9158 40.3616C11.1638 40.0944 11.2784 39.6937 11.2784 39.1403V38.0334C11.2784 37.48 11.1638 37.0793 10.9158 36.8121C10.6677 36.5449 10.3051 36.4304 9.828 36.4304H8.30132V40.7624H9.828V40.7433Z" fill="#141414"/>
<path d="M38.9869 40.7433H39.9984V44.8653H30.1322V40.7433H31.6398L31.2391 38.7205H27.804L27.4033 40.7433H28.9109V44.8653H20.3042V40.7433H21.3156L25.5713 25.2856H34.7313L38.9869 40.7433ZM28.3574 36.0488H30.6665L29.636 31.0489H29.388L28.3574 36.0488Z" fill="#141414"/>
<path d="M43.472 42.8043C41.7544 41.2013 40.8957 38.625 40.8957 35.0755C40.8957 28.3199 44.1781 24.9231 50.7619 24.9231C52.3649 24.9231 53.8343 25.1139 55.2083 25.4956C56.5823 25.8773 57.5937 26.3162 58.2617 26.7742V33.0717H52.2122V31.2588C52.2122 30.6291 52.0786 30.152 51.7924 29.8466C51.5061 29.5413 51.0863 29.3886 50.5138 29.3886C49.9413 29.3886 49.5214 29.5413 49.2352 29.8466C48.9489 30.152 48.8153 30.61 48.8153 31.2588V38.854C48.8153 39.4838 48.9489 39.9609 49.2352 40.2662C49.5214 40.5715 49.9413 40.7242 50.5138 40.7242C51.0863 40.7242 51.5061 40.5715 51.7924 40.2662C52.0786 39.9609 52.2122 39.5029 52.2122 38.854V36.8121H58.2617V43.3387C57.5747 43.8158 56.5632 44.2356 55.2083 44.6173C53.8534 44.9989 52.384 45.1898 50.8191 45.1898C47.6322 45.2279 45.1895 44.4073 43.472 42.8043Z" fill="#141414"/>
<path d="M79.0817 40.7433H80.3412V44.8653H73.4712L69.6926 37.0602L68.5286 38.0143V40.7242H69.7308V44.8462H60.2082V40.7242H61.4677V29.3886H60.2082V25.2666H69.7308V29.3886H68.5286V32.7092L72.4216 29.3886H70.8377V25.2666H80.2076V29.3886H78.9481L74.7498 32.8618L79.0817 40.7433Z" fill="#141414"/>
<path d="M82.2495 44.8653V40.7433H83.509V29.4077H82.2495V25.2856H91.8103V29.4077H90.5508V40.7433H91.8103V44.8653H82.2495Z" fill="#141414"/>
<path d="M108.318 25.2856H116.581V29.4077H115.321V44.8653H108.241L100.875 33.5106V40.7433H102.077V44.8653H93.8334V40.7433H95.0929V29.4077H93.8334V25.2856H102.917L109.539 35.3808V29.4077H108.337V25.2856H108.318Z" fill="#141414"/>
<path d="M136.981 38.5678H135.721V43.6058C134.977 44.0257 133.908 44.4074 132.496 44.7318C131.084 45.0562 129.538 45.2279 127.897 45.2279C124.768 45.2279 122.306 44.4073 120.531 42.7471C118.756 41.0868 117.859 38.5487 117.859 35.0755C117.859 31.526 118.737 28.9497 120.512 27.3467C122.287 25.7437 124.806 24.9231 128.107 24.9231C129.71 24.9231 131.199 25.0948 132.592 25.4192C133.985 25.7627 135.034 26.1254 135.741 26.5452V32.5565H129.443V31.3733C129.443 30.6672 129.29 30.152 129.004 29.8466C128.718 29.5413 128.241 29.3886 127.611 29.3886C126.981 29.3886 126.504 29.5413 126.218 29.8466C125.932 30.152 125.779 30.6672 125.779 31.3733V38.7205C125.779 39.4266 125.932 39.9418 126.218 40.2472C126.504 40.5525 126.981 40.7051 127.611 40.7051C128.241 40.7051 128.718 40.5525 129.004 40.2472C129.29 39.9418 129.443 39.4266 129.443 38.7205V38.5487H128.088V34.7893H137V38.5678H136.981Z" fill="#141414"/>
</svg>
