<svg width="241" height="241" viewBox="0 0 241 241" fill="none" xmlns="http://www.w3.org/2000/svg">
<path d="M2.49142 158.871C3.34136 158.871 4.03045 158.182 4.03045 157.332C4.03045 156.482 3.34136 155.793 2.49142 155.793C1.64148 155.793 0.952759 156.482 0.952759 157.332C0.952759 158.182 1.64148 158.871 2.49142 158.871Z" fill="#6FA467"/>
<path d="M2.49156 78.9917C3.86765 78.9917 4.98348 77.8762 4.98348 76.5001C4.98348 75.124 3.86765 74.0085 2.49156 74.0085C1.11547 74.0085 0 75.124 0 76.5001C0 77.8762 1.11547 78.9917 2.49156 78.9917Z" fill="#6FA467"/>
<path d="M2.491 94.3086C3.38141 94.3086 4.10338 93.5868 4.10338 92.6964C4.10338 91.8059 3.38141 91.084 2.491 91.084C1.60059 91.084 0.878983 91.8059 0.878983 92.6964C0.878983 93.5868 1.60059 94.3086 2.491 94.3086Z" fill="#6FA467"/>
<path d="M2.491 29.5994C3.38141 29.5994 4.10338 28.8776 4.10338 27.9872C4.10338 27.0968 3.38141 26.375 2.491 26.375C1.60059 26.375 0.878983 27.0968 0.878983 27.9872C0.878983 28.8776 1.60059 29.5994 2.491 29.5994Z" fill="#6FA467"/>
<path d="M212.596 64.5556C214.903 64.5556 216.773 62.6855 216.773 60.3785C216.773 58.0716 214.903 56.2014 212.596 56.2014C210.289 56.2014 208.418 58.0716 208.418 60.3785C208.418 62.6855 210.289 64.5556 212.596 64.5556Z" fill="#6FA467"/>
<path d="M228.79 64.2622C230.935 64.2622 232.674 62.5233 232.674 60.3782C232.674 58.2331 230.935 56.4941 228.79 56.4941C226.645 56.4941 224.906 58.2331 224.906 60.3782C224.906 62.5233 226.645 64.2622 228.79 64.2622Z" fill="#6FA467"/>
<path d="M212.594 47.9197C214.658 47.9197 216.332 46.2463 216.332 44.1822C216.332 42.118 214.658 40.4448 212.594 40.4448C210.53 40.4448 208.857 42.118 208.857 44.1822C208.857 46.2463 210.53 47.9197 212.594 47.9197Z" fill="#6FA467"/>
<path d="M228.791 48.14C230.977 48.14 232.748 46.3681 232.748 44.1826C232.748 41.997 230.977 40.2253 228.791 40.2253C226.606 40.2253 224.834 41.997 224.834 44.1826C224.834 46.3681 226.606 48.14 228.791 48.14Z" fill="#6FA467"/>
<path d="M212.594 31.7244C214.658 31.7244 216.332 30.0512 216.332 27.987C216.332 25.9229 214.658 24.2495 212.594 24.2495C210.53 24.2495 208.857 25.9229 208.857 27.987C208.857 30.0512 210.53 31.7244 212.594 31.7244Z" fill="#6FA467"/>
<path d="M228.79 31.505C230.733 31.505 232.308 29.9301 232.308 27.9874C232.308 26.0446 230.733 24.4697 228.79 24.4697C226.847 24.4697 225.272 26.0446 225.272 27.9874C225.272 29.9301 226.847 31.505 228.79 31.505Z" fill="#6FA467"/>
<path d="M212.595 15.3824C214.538 15.3824 216.112 13.8075 216.112 11.8648C216.112 9.92209 214.538 8.34717 212.595 8.34717C210.652 8.34717 209.077 9.92209 209.077 11.8648C209.077 13.8075 210.652 15.3824 212.595 15.3824Z" fill="#6FA467"/>
<path d="M228.79 15.7483C230.935 15.7483 232.674 14.0094 232.674 11.8643C232.674 9.71919 230.935 7.98022 228.79 7.98022C226.645 7.98022 224.906 9.71919 224.906 11.8643C224.906 14.0094 226.645 15.7483 228.79 15.7483Z" fill="#6FA467"/>
<path d="M196.474 64.5556C198.781 64.5556 200.651 62.6855 200.651 60.3785C200.651 58.0716 198.781 56.2014 196.474 56.2014C194.167 56.2014 192.296 58.0716 192.296 60.3785C192.296 62.6855 194.167 64.5556 196.474 64.5556Z" fill="#6FA467"/>
<path d="M180.276 64.2622C182.421 64.2622 184.16 62.5233 184.16 60.3782C184.16 58.2331 182.421 56.4941 180.276 56.4941C178.131 56.4941 176.392 58.2331 176.392 60.3782C176.392 62.5233 178.131 64.2622 180.276 64.2622Z" fill="#6FA467"/>
<path d="M164.154 64.2622C166.299 64.2622 168.038 62.5233 168.038 60.3782C168.038 58.2331 166.299 56.4941 164.154 56.4941C162.009 56.4941 160.27 58.2331 160.27 60.3782C160.27 62.5233 162.009 64.2622 164.154 64.2622Z" fill="#6FA467"/>
<path d="M147.959 64.0424C149.983 64.0424 151.623 62.4019 151.623 60.3783C151.623 58.3546 149.983 56.7141 147.959 56.7141C145.935 56.7141 144.295 58.3546 144.295 60.3783C144.295 62.4019 145.935 64.0424 147.959 64.0424Z" fill="#6FA467"/>
<path d="M131.836 64.5556C134.143 64.5556 136.013 62.6855 136.013 60.3785C136.013 58.0716 134.143 56.2014 131.836 56.2014C129.529 56.2014 127.659 58.0716 127.659 60.3785C127.659 62.6855 129.529 64.5556 131.836 64.5556Z" fill="#6FA467"/>
<path d="M115.641 64.2622C117.786 64.2622 119.525 62.5233 119.525 60.3782C119.525 58.2331 117.786 56.4941 115.641 56.4941C113.496 56.4941 111.757 58.2331 111.757 60.3782C111.757 62.5233 113.496 64.2622 115.641 64.2622Z" fill="#6FA467"/>
<path d="M99.4462 63.7495C101.308 63.7495 102.817 62.2402 102.817 60.3784C102.817 58.5167 101.308 57.0073 99.4462 57.0073C97.5845 57.0073 96.0751 58.5167 96.0751 60.3784C96.0751 62.2402 97.5845 63.7495 99.4462 63.7495Z" fill="#6FA467"/>
<path d="M83.3228 64.0424C85.3465 64.0424 86.987 62.4019 86.987 60.3783C86.987 58.3546 85.3465 56.7141 83.3228 56.7141C81.2991 56.7141 79.6586 58.3546 79.6586 60.3783C79.6586 62.4019 81.2991 64.0424 83.3228 64.0424Z" fill="#6FA467"/>
<path d="M67.1276 64.2622C69.2727 64.2622 71.0115 62.5233 71.0115 60.3782C71.0115 58.2331 69.2727 56.4941 67.1276 56.4941C64.9826 56.4941 63.2438 58.2331 63.2438 60.3782C63.2438 62.5233 64.9826 64.2622 67.1276 64.2622Z" fill="#6FA467"/>
<path d="M51.0053 63.3827C52.6647 63.3827 54.01 62.0374 54.01 60.378C54.01 58.7186 52.6647 57.3733 51.0053 57.3733C49.3459 57.3733 48.0006 58.7186 48.0006 60.378C48.0006 62.0374 49.3459 63.3827 51.0053 63.3827Z" fill="#6FA467"/>
<path d="M34.8102 63.7495C36.672 63.7495 38.1813 62.2402 38.1813 60.3784C38.1813 58.5167 36.672 57.0073 34.8102 57.0073C32.9484 57.0073 31.4391 58.5167 31.4391 60.3784C31.4391 62.2402 32.9484 63.7495 34.8102 63.7495Z" fill="#6FA467"/>
<path d="M18.6122 61.9903C19.5026 61.9903 20.2245 61.2685 20.2245 60.3781C20.2245 59.4877 19.5026 58.7659 18.6122 58.7659C17.7218 58.7659 17.0002 59.4877 17.0002 60.3781C17.0002 61.2685 17.7218 61.9903 18.6122 61.9903Z" fill="#6FA467"/>
<path d="M196.472 47.9197C198.536 47.9197 200.21 46.2463 200.21 44.1822C200.21 42.118 198.536 40.4448 196.472 40.4448C194.408 40.4448 192.735 42.118 192.735 44.1822C192.735 46.2463 194.408 47.9197 196.472 47.9197Z" fill="#6FA467"/>
<path d="M180.277 48.2866C182.544 48.2866 184.381 46.4491 184.381 44.1826C184.381 41.9161 182.544 40.0789 180.277 40.0789C178.011 40.0789 176.173 41.9161 176.173 44.1826C176.173 46.4491 178.011 48.2866 180.277 48.2866Z" fill="#6FA467"/>
<path d="M164.154 48.0668C166.299 48.0668 168.038 46.3278 168.038 44.1827C168.038 42.0376 166.299 40.2988 164.154 40.2988C162.009 40.2988 160.27 42.0376 160.27 44.1827C160.27 46.3278 162.009 48.0668 164.154 48.0668Z" fill="#6FA467"/>
<path d="M147.96 48.0668C150.105 48.0668 151.844 46.3278 151.844 44.1827C151.844 42.0376 150.105 40.2988 147.96 40.2988C145.815 40.2988 144.076 42.0376 144.076 44.1827C144.076 46.3278 145.815 48.0668 147.96 48.0668Z" fill="#6FA467"/>
<path d="M131.838 47.5538C133.7 47.5538 135.209 46.0445 135.209 44.1827C135.209 42.3209 133.7 40.8118 131.838 40.8118C129.976 40.8118 128.467 42.3209 128.467 44.1827C128.467 46.0445 129.976 47.5538 131.838 47.5538Z" fill="#6FA467"/>
<path d="M115.641 48.0668C117.786 48.0668 119.525 46.3278 119.525 44.1827C119.525 42.0376 117.786 40.2988 115.641 40.2988C113.496 40.2988 111.757 42.0376 111.757 44.1827C111.757 46.3278 113.496 48.0668 115.641 48.0668Z" fill="#6FA467"/>
<path d="M99.4451 47.7004C101.388 47.7004 102.963 46.1255 102.963 44.1827C102.963 42.24 101.388 40.6653 99.4451 40.6653C97.5024 40.6653 95.9273 42.24 95.9273 44.1827C95.9273 46.1255 97.5024 47.7004 99.4451 47.7004Z" fill="#6FA467"/>
<path d="M83.3228 47.8469C85.3465 47.8469 86.987 46.2064 86.987 44.1827C86.987 42.1591 85.3465 40.5186 83.3228 40.5186C81.2991 40.5186 79.6586 42.1591 79.6586 44.1827C79.6586 46.2064 81.2991 47.8469 83.3228 47.8469Z" fill="#6FA467"/>
<path d="M67.1273 47.5538C68.9891 47.5538 70.4985 46.0445 70.4985 44.1827C70.4985 42.3209 68.9891 40.8118 67.1273 40.8118C65.2656 40.8118 63.7562 42.3209 63.7562 44.1827C63.7562 46.0445 65.2656 47.5538 67.1273 47.5538Z" fill="#6FA467"/>
<path d="M51.0053 47.1874C52.6647 47.1874 54.01 45.8421 54.01 44.1827C54.01 42.5233 52.6647 41.1782 51.0053 41.1782C49.3459 41.1782 48.0006 42.5233 48.0006 44.1827C48.0006 45.8421 49.3459 47.1874 51.0053 47.1874Z" fill="#6FA467"/>
<path d="M34.8102 47.5538C36.672 47.5538 38.1813 46.0445 38.1813 44.1827C38.1813 42.3209 36.672 40.8118 34.8102 40.8118C32.9484 40.8118 31.4391 42.3209 31.4391 44.1827C31.4391 46.0445 32.9484 47.5538 34.8102 47.5538Z" fill="#6FA467"/>
<path d="M18.6122 45.7946C19.5026 45.7946 20.2245 45.0727 20.2245 44.1823C20.2245 43.2919 19.5026 42.5701 18.6122 42.5701C17.7218 42.5701 17.0002 43.2919 17.0002 44.1823C17.0002 45.0727 17.7218 45.7946 18.6122 45.7946Z" fill="#6FA467"/>
<path d="M196.472 31.7244C198.536 31.7244 200.21 30.0512 200.21 27.987C200.21 25.9229 198.536 24.2495 196.472 24.2495C194.408 24.2495 192.735 25.9229 192.735 27.987C192.735 30.0512 194.408 31.7244 196.472 31.7244Z" fill="#6FA467"/>
<path d="M180.276 31.505C182.219 31.505 183.794 29.9301 183.794 27.9874C183.794 26.0446 182.219 24.4697 180.276 24.4697C178.333 24.4697 176.758 26.0446 176.758 27.9874C176.758 29.9301 178.333 31.505 180.276 31.505Z" fill="#6FA467"/>
<path d="M164.154 31.2119C165.935 31.2119 167.379 29.7683 167.379 27.9875C167.379 26.2067 165.935 24.7629 164.154 24.7629C162.374 24.7629 160.93 26.2067 160.93 27.9875C160.93 29.7683 162.374 31.2119 164.154 31.2119Z" fill="#6FA467"/>
<path d="M147.958 32.1643C150.265 32.1643 152.135 30.2941 152.135 27.9872C152.135 25.6802 150.265 23.8101 147.958 23.8101C145.651 23.8101 143.781 25.6802 143.781 27.9872C143.781 30.2941 145.651 32.1643 147.958 32.1643Z" fill="#6FA467"/>
<path d="M131.836 32.1643C134.143 32.1643 136.013 30.2941 136.013 27.9872C136.013 25.6802 134.143 23.8101 131.836 23.8101C129.529 23.8101 127.659 25.6802 127.659 27.9872C127.659 30.2941 129.529 32.1643 131.836 32.1643Z" fill="#6FA467"/>
<path d="M115.641 31.8709C117.786 31.8709 119.525 30.1319 119.525 27.9868C119.525 25.8418 117.786 24.1028 115.641 24.1028C113.496 24.1028 111.757 25.8418 111.757 27.9868C111.757 30.1319 113.496 31.8709 115.641 31.8709Z" fill="#6FA467"/>
<path d="M99.4462 31.358C101.308 31.358 102.817 29.8488 102.817 27.9871C102.817 26.1253 101.308 24.616 99.4462 24.616C97.5845 24.616 96.0751 26.1253 96.0751 27.9871C96.0751 29.8488 97.5845 31.358 99.4462 31.358Z" fill="#6FA467"/>
<path d="M83.3228 31.6506C85.3465 31.6506 86.987 30.0101 86.987 27.9864C86.987 25.9628 85.3465 24.3223 83.3228 24.3223C81.2991 24.3223 79.6586 25.9628 79.6586 27.9864C79.6586 30.0101 81.2991 31.6506 83.3228 31.6506Z" fill="#6FA467"/>
<path d="M67.1278 31.505C69.0705 31.505 70.6452 29.9301 70.6452 27.9874C70.6452 26.0446 69.0705 24.4697 67.1278 24.4697C65.185 24.4697 63.6103 26.0446 63.6103 27.9874C63.6103 29.9301 65.185 31.505 67.1278 31.505Z" fill="#6FA467"/>
<path d="M51.0057 31.1381C52.7461 31.1381 54.1568 29.7273 54.1568 27.9869C54.1568 26.2466 52.7461 24.8357 51.0057 24.8357C49.2654 24.8357 47.8547 26.2466 47.8547 27.9869C47.8547 29.7273 49.2654 31.1381 51.0057 31.1381Z" fill="#6FA467"/>
<path d="M34.8102 31.358C36.672 31.358 38.1813 29.8488 38.1813 27.9871C38.1813 26.1253 36.672 24.616 34.8102 24.616C32.9484 24.616 31.4391 26.1253 31.4391 27.9871C31.4391 29.8488 32.9484 31.358 34.8102 31.358Z" fill="#6FA467"/>
<path d="M18.6122 29.5994C19.5026 29.5994 20.2245 28.8776 20.2245 27.9872C20.2245 27.0968 19.5026 26.375 18.6122 26.375C17.7218 26.375 17.0002 27.0968 17.0002 27.9872C17.0002 28.8776 17.7218 29.5994 18.6122 29.5994Z" fill="#6FA467"/>
<path d="M196.474 16.0422C198.781 16.0422 200.651 14.1721 200.651 11.8651C200.651 9.55813 198.781 7.68799 196.474 7.68799C194.167 7.68799 192.296 9.55813 192.296 11.8651C192.296 14.1721 194.167 16.0422 196.474 16.0422Z" fill="#6FA467"/>
<path d="M180.276 15.7483C182.421 15.7483 184.16 14.0094 184.16 11.8643C184.16 9.71919 182.421 7.98022 180.276 7.98022C178.131 7.98022 176.392 9.71919 176.392 11.8643C176.392 14.0094 178.131 15.7483 180.276 15.7483Z" fill="#6FA467"/>
<path d="M164.154 15.7483C166.299 15.7483 168.038 14.0094 168.038 11.8643C168.038 9.71919 166.299 7.98022 164.154 7.98022C162.009 7.98022 160.27 9.71919 160.27 11.8643C160.27 14.0094 162.009 15.7483 164.154 15.7483Z" fill="#6FA467"/>
<path d="M147.959 15.5285C149.983 15.5285 151.623 13.888 151.623 11.8644C151.623 9.8407 149.983 8.2002 147.959 8.2002C145.935 8.2002 144.295 9.8407 144.295 11.8644C144.295 13.888 145.935 15.5285 147.959 15.5285Z" fill="#6FA467"/>
<path d="M131.836 15.7483C133.981 15.7483 135.72 14.0094 135.72 11.8643C135.72 9.71919 133.981 7.98022 131.836 7.98022C129.691 7.98022 127.952 9.71919 127.952 11.8643C127.952 14.0094 129.691 15.7483 131.836 15.7483Z" fill="#6FA467"/>
<path d="M115.641 15.7483C117.786 15.7483 119.525 14.0094 119.525 11.8643C119.525 9.71919 117.786 7.98022 115.641 7.98022C113.496 7.98022 111.757 9.71919 111.757 11.8643C111.757 14.0094 113.496 15.7483 115.641 15.7483Z" fill="#6FA467"/>
<path d="M99.4462 15.2357C101.308 15.2357 102.817 13.7265 102.817 11.8648C102.817 10.003 101.308 8.49365 99.4462 8.49365C97.5845 8.49365 96.0751 10.003 96.0751 11.8648C96.0751 13.7265 97.5845 15.2357 99.4462 15.2357Z" fill="#6FA467"/>
<path d="M83.3228 15.5285C85.3465 15.5285 86.987 13.888 86.987 11.8644C86.987 9.8407 85.3465 8.2002 83.3228 8.2002C81.2991 8.2002 79.6586 9.8407 79.6586 11.8644C79.6586 13.888 81.2991 15.5285 83.3228 15.5285Z" fill="#6FA467"/>
<path d="M67.1276 15.7483C69.2727 15.7483 71.0115 14.0094 71.0115 11.8643C71.0115 9.71919 69.2727 7.98022 67.1276 7.98022C64.9826 7.98022 63.2438 9.71919 63.2438 11.8643C63.2438 14.0094 64.9826 15.7483 67.1276 15.7483Z" fill="#6FA467"/>
<path d="M51.0055 15.7483C53.1506 15.7483 54.8894 14.0094 54.8894 11.8643C54.8894 9.71919 53.1506 7.98022 51.0055 7.98022C48.8604 7.98022 47.1217 9.71919 47.1217 11.8643C47.1217 14.0094 48.8604 15.7483 51.0055 15.7483Z" fill="#6FA467"/>
<path d="M34.8102 15.2357C36.672 15.2357 38.1813 13.7265 38.1813 11.8648C38.1813 10.003 36.672 8.49365 34.8102 8.49365C32.9484 8.49365 31.4391 10.003 31.4391 11.8648C31.4391 13.7265 32.9484 15.2357 34.8102 15.2357Z" fill="#6FA467"/>
<path d="M18.6122 13.4768C19.5026 13.4768 20.2245 12.7551 20.2245 11.8646C20.2245 10.9742 19.5026 10.2524 18.6122 10.2524C17.7218 10.2524 17.0002 10.9742 17.0002 11.8646C17.0002 12.7551 17.7218 13.4768 18.6122 13.4768Z" fill="#6FA467"/>
<path d="M34.8094 239.63C35.6189 239.63 36.2751 238.973 36.2751 238.164C36.2751 237.354 35.6189 236.698 34.8094 236.698C34 236.698 33.3438 237.354 33.3438 238.164C33.3438 238.973 34 239.63 34.8094 239.63Z" fill="#6FA467"/>
<path d="M67.1273 240.216C68.2606 240.216 69.1791 239.297 69.1791 238.164C69.1791 237.031 68.2606 236.112 67.1273 236.112C65.994 236.112 65.0755 237.031 65.0755 238.164C65.0755 239.297 65.994 240.216 67.1273 240.216Z" fill="#6FA467"/>
<path d="M131.837 240.069C132.89 240.069 133.743 239.216 133.743 238.163C133.743 237.111 132.89 236.258 131.837 236.258C130.785 236.258 129.932 237.111 129.932 238.163C129.932 239.216 130.785 240.069 131.837 240.069Z" fill="#6FA467"/>
<path d="M180.278 239.776C181.168 239.776 181.89 239.054 181.89 238.164C181.89 237.273 181.168 236.552 180.278 236.552C179.388 236.552 178.666 237.273 178.666 238.164C178.666 239.054 179.388 239.776 180.278 239.776Z" fill="#6FA467"/>
<path d="M196.473 239.995C197.485 239.995 198.305 239.175 198.305 238.163C198.305 237.152 197.485 236.331 196.473 236.331C195.461 236.331 194.641 237.152 194.641 238.163C194.641 239.175 195.461 239.995 196.473 239.995Z" fill="#6FA467"/>
<path d="M212.594 239.995C213.606 239.995 214.427 239.175 214.427 238.163C214.427 237.152 213.606 236.331 212.594 236.331C211.583 236.331 210.762 237.152 210.762 238.163C210.762 239.175 211.583 239.995 212.594 239.995Z" fill="#6FA467"/>
<path d="M228.791 239.776C229.682 239.776 230.403 239.054 230.403 238.164C230.403 237.273 229.682 236.552 228.791 236.552C227.901 236.552 227.179 237.273 227.179 238.164C227.179 239.054 227.901 239.776 228.791 239.776Z" fill="#6FA467"/>
<path d="M2.49134 223.654C3.42223 223.654 4.17707 222.899 4.17707 221.968C4.17707 221.037 3.42223 220.282 2.49134 220.282C1.56046 220.282 0.805969 221.037 0.805969 221.968C0.805969 222.899 1.56046 223.654 2.49134 223.654Z" fill="#6FA467"/>
<path d="M18.6144 223.873C19.6667 223.873 20.5198 223.02 20.5198 221.968C20.5198 220.916 19.6667 220.062 18.6144 220.062C17.5621 220.062 16.7093 220.916 16.7093 221.968C16.7093 223.02 17.5621 223.873 18.6144 223.873Z" fill="#6FA467"/>
<path d="M34.8098 223.873C35.8621 223.873 36.7152 223.02 36.7152 221.968C36.7152 220.916 35.8621 220.062 34.8098 220.062C33.7575 220.062 32.9043 220.916 32.9043 221.968C32.9043 223.02 33.7575 223.873 34.8098 223.873Z" fill="#6FA467"/>
<path d="M51.0048 223.873C52.0571 223.873 52.9103 223.02 52.9103 221.968C52.9103 220.916 52.0571 220.062 51.0048 220.062C49.9525 220.062 49.0994 220.916 49.0994 221.968C49.0994 223.02 49.9525 223.873 51.0048 223.873Z" fill="#6FA467"/>
<path d="M67.1274 223.654C68.0583 223.654 68.8128 222.899 68.8128 221.968C68.8128 221.037 68.0583 220.282 67.1274 220.282C66.1965 220.282 65.442 221.037 65.442 221.968C65.442 222.899 66.1965 223.654 67.1274 223.654Z" fill="#6FA467"/>
<path d="M83.323 223.507C84.1729 223.507 84.862 222.818 84.862 221.968C84.862 221.118 84.1729 220.429 83.323 220.429C82.473 220.429 81.784 221.118 81.784 221.968C81.784 222.818 82.473 223.507 83.323 223.507Z" fill="#6FA467"/>
<path d="M115.641 224.386C116.976 224.386 118.059 223.303 118.059 221.968C118.059 220.632 116.976 219.549 115.641 219.549C114.305 219.549 113.222 220.632 113.222 221.968C113.222 223.303 114.305 224.386 115.641 224.386Z" fill="#6FA467"/>
<path d="M131.837 223.434C132.646 223.434 133.302 222.777 133.302 221.968C133.302 221.158 132.646 220.502 131.837 220.502C131.027 220.502 130.371 221.158 130.371 221.968C130.371 222.777 131.027 223.434 131.837 223.434Z" fill="#6FA467"/>
<path d="M147.96 224.24C149.215 224.24 150.232 223.223 150.232 221.968C150.232 220.713 149.215 219.696 147.96 219.696C146.705 219.696 145.689 220.713 145.689 221.968C145.689 223.223 146.705 224.24 147.96 224.24Z" fill="#6FA467"/>
<path d="M164.154 223.8C165.166 223.8 165.986 222.98 165.986 221.968C165.986 220.956 165.166 220.136 164.154 220.136C163.143 220.136 162.322 220.956 162.322 221.968C162.322 222.98 163.143 223.8 164.154 223.8Z" fill="#6FA467"/>
<path d="M180.276 223.287C181.004 223.287 181.595 222.697 181.595 221.968C181.595 221.24 181.004 220.649 180.276 220.649C179.547 220.649 178.957 221.24 178.957 221.968C178.957 222.697 179.547 223.287 180.276 223.287Z" fill="#6FA467"/>
<path d="M196.474 224.313C197.769 224.313 198.819 223.263 198.819 221.968C198.819 220.673 197.769 219.623 196.474 219.623C195.179 219.623 194.129 220.673 194.129 221.968C194.129 223.263 195.179 224.313 196.474 224.313Z" fill="#6FA467"/>
<path d="M212.594 223.8C213.606 223.8 214.427 222.98 214.427 221.968C214.427 220.956 213.606 220.136 212.594 220.136C211.583 220.136 210.762 220.956 210.762 221.968C210.762 222.98 211.583 223.8 212.594 223.8Z" fill="#6FA467"/>
<path d="M228.791 223.58C229.682 223.58 230.403 222.858 230.403 221.968C230.403 221.077 229.682 220.356 228.791 220.356C227.901 220.356 227.179 221.077 227.179 221.968C227.179 222.858 227.901 223.58 228.791 223.58Z" fill="#6FA467"/>
<path d="M18.6145 207.385C19.4644 207.385 20.1535 206.696 20.1535 205.846C20.1535 204.996 19.4644 204.307 18.6145 204.307C17.7645 204.307 17.0758 204.996 17.0758 205.846C17.0758 206.696 17.7645 207.385 18.6145 207.385Z" fill="#6FA467"/>
<path d="M34.8094 207.312C35.6189 207.312 36.2751 206.656 36.2751 205.846C36.2751 205.037 35.6189 204.381 34.8094 204.381C34 204.381 33.3438 205.037 33.3438 205.846C33.3438 206.656 34 207.312 34.8094 207.312Z" fill="#6FA467"/>
<path d="M51.0049 207.604C51.9763 207.604 52.7636 206.817 52.7636 205.846C52.7636 204.874 51.9763 204.087 51.0049 204.087C50.0335 204.087 49.2462 204.874 49.2462 205.846C49.2462 206.817 50.0335 207.604 51.0049 207.604Z" fill="#6FA467"/>
<path d="M67.1273 207.898C68.2606 207.898 69.1791 206.979 69.1791 205.846C69.1791 204.713 68.2606 203.794 67.1273 203.794C65.994 203.794 65.0755 204.713 65.0755 205.846C65.0755 206.979 65.994 207.898 67.1273 207.898Z" fill="#6FA467"/>
<path d="M83.3235 207.898C84.4568 207.898 85.3753 206.979 85.3753 205.846C85.3753 204.713 84.4568 203.794 83.3235 203.794C82.1903 203.794 81.2714 204.713 81.2714 205.846C81.2714 206.979 82.1903 207.898 83.3235 207.898Z" fill="#6FA467"/>
<path d="M99.446 207.604C100.417 207.604 101.205 206.817 101.205 205.846C101.205 204.874 100.417 204.087 99.446 204.087C98.4746 204.087 97.6872 204.874 97.6872 205.846C97.6872 206.817 98.4746 207.604 99.446 207.604Z" fill="#6FA467"/>
<path d="M115.641 207.604C116.613 207.604 117.4 206.817 117.4 205.846C117.4 204.874 116.613 204.087 115.641 204.087C114.67 204.087 113.882 204.874 113.882 205.846C113.882 206.817 114.67 207.604 115.641 207.604Z" fill="#6FA467"/>
<path d="M131.836 207.458C132.726 207.458 133.448 206.736 133.448 205.845C133.448 204.955 132.726 204.233 131.836 204.233C130.946 204.233 130.224 204.955 130.224 205.845C130.224 206.736 130.946 207.458 131.836 207.458Z" fill="#6FA467"/>
<path d="M147.96 208.117C149.215 208.117 150.232 207.1 150.232 205.846C150.232 204.591 149.215 203.574 147.96 203.574C146.705 203.574 145.689 204.591 145.689 205.846C145.689 207.1 146.705 208.117 147.96 208.117Z" fill="#6FA467"/>
<path d="M164.155 207.458C165.046 207.458 165.768 206.736 165.768 205.845C165.768 204.955 165.046 204.233 164.155 204.233C163.265 204.233 162.543 204.955 162.543 205.845C162.543 206.736 163.265 207.458 164.155 207.458Z" fill="#6FA467"/>
<path d="M180.278 207.458C181.168 207.458 181.89 206.736 181.89 205.845C181.89 204.955 181.168 204.233 180.278 204.233C179.388 204.233 178.666 204.955 178.666 205.845C178.666 206.736 179.388 207.458 180.278 207.458Z" fill="#6FA467"/>
<path d="M196.474 207.165C197.202 207.165 197.792 206.575 197.792 205.846C197.792 205.117 197.202 204.527 196.474 204.527C195.745 204.527 195.155 205.117 195.155 205.846C195.155 206.575 195.745 207.165 196.474 207.165Z" fill="#6FA467"/>
<path d="M212.596 207.824C213.689 207.824 214.575 206.939 214.575 205.846C214.575 204.753 213.689 203.867 212.596 203.867C211.503 203.867 210.617 204.753 210.617 205.846C210.617 206.939 211.503 207.824 212.596 207.824Z" fill="#6FA467"/>
<path d="M228.791 207.458C229.682 207.458 230.403 206.736 230.403 205.845C230.403 204.955 229.682 204.233 228.791 204.233C227.901 204.233 227.179 204.955 227.179 205.845C227.179 206.736 227.901 207.458 228.791 207.458Z" fill="#6FA467"/>
<path d="M18.6144 191.556C19.6667 191.556 20.5198 190.702 20.5198 189.65C20.5198 188.598 19.6667 187.745 18.6144 187.745C17.5621 187.745 16.7093 188.598 16.7093 189.65C16.7093 190.702 17.5621 191.556 18.6144 191.556Z" fill="#6FA467"/>
<path d="M34.8106 191.995C36.1057 191.995 37.1558 190.945 37.1558 189.65C37.1558 188.355 36.1057 187.305 34.8106 187.305C33.5154 187.305 32.4657 188.355 32.4657 189.65C32.4657 190.945 33.5154 191.995 34.8106 191.995Z" fill="#6FA467"/>
<path d="M51.0049 191.409C51.9763 191.409 52.7636 190.621 52.7636 189.65C52.7636 188.678 51.9763 187.891 51.0049 187.891C50.0335 187.891 49.2462 188.678 49.2462 189.65C49.2462 190.621 50.0335 191.409 51.0049 191.409Z" fill="#6FA467"/>
<path d="M67.1273 191.263C68.0177 191.263 68.7396 190.541 68.7396 189.651C68.7396 188.76 68.0177 188.039 67.1273 188.039C66.2368 188.039 65.5149 188.76 65.5149 189.651C65.5149 190.541 66.2368 191.263 67.1273 191.263Z" fill="#6FA467"/>
<path d="M83.3247 191.409C84.296 191.409 85.0834 190.621 85.0834 189.65C85.0834 188.678 84.296 187.891 83.3247 187.891C82.3533 187.891 81.5659 188.678 81.5659 189.65C81.5659 190.621 82.3533 191.409 83.3247 191.409Z" fill="#6FA467"/>
<path d="M99.446 191.409C100.417 191.409 101.205 190.621 101.205 189.65C101.205 188.678 100.417 187.891 99.446 187.891C98.4746 187.891 97.6872 188.678 97.6872 189.65C97.6872 190.621 98.4746 191.409 99.446 191.409Z" fill="#6FA467"/>
<path d="M115.64 191.263C116.531 191.263 117.252 190.541 117.252 189.651C117.252 188.76 116.531 188.039 115.64 188.039C114.75 188.039 114.028 188.76 114.028 189.651C114.028 190.541 114.75 191.263 115.64 191.263Z" fill="#6FA467"/>
<path d="M131.836 191.995C133.131 191.995 134.181 190.945 134.181 189.65C134.181 188.355 133.131 187.305 131.836 187.305C130.541 187.305 129.491 188.355 129.491 189.65C129.491 190.945 130.541 191.995 131.836 191.995Z" fill="#6FA467"/>
<path d="M147.959 191.042C148.728 191.042 149.352 190.419 149.352 189.65C149.352 188.881 148.728 188.258 147.959 188.258C147.19 188.258 146.567 188.881 146.567 189.65C146.567 190.419 147.19 191.042 147.959 191.042Z" fill="#6FA467"/>
<path d="M164.154 191.482C165.166 191.482 165.986 190.662 165.986 189.65C165.986 188.638 165.166 187.818 164.154 187.818C163.143 187.818 162.322 188.638 162.322 189.65C162.322 190.662 163.143 191.482 164.154 191.482Z" fill="#6FA467"/>
<path d="M180.277 191.482C181.289 191.482 182.109 190.662 182.109 189.65C182.109 188.638 181.289 187.818 180.277 187.818C179.265 187.818 178.445 188.638 178.445 189.65C178.445 190.662 179.265 191.482 180.277 191.482Z" fill="#6FA467"/>
<path d="M196.473 191.629C197.566 191.629 198.452 190.743 198.452 189.65C198.452 188.557 197.566 187.672 196.473 187.672C195.381 187.672 194.495 188.557 194.495 189.65C194.495 190.743 195.381 191.629 196.473 191.629Z" fill="#6FA467"/>
<path d="M212.596 191.629C213.689 191.629 214.575 190.743 214.575 189.65C214.575 188.557 213.689 187.672 212.596 187.672C211.503 187.672 210.617 188.557 210.617 189.65C210.617 190.743 211.503 191.629 212.596 191.629Z" fill="#6FA467"/>
<path d="M228.791 191.629C229.884 191.629 230.77 190.743 230.77 189.65C230.77 188.557 229.884 187.672 228.791 187.672C227.699 187.672 226.813 188.557 226.813 189.65C226.813 190.743 227.699 191.629 228.791 191.629Z" fill="#6FA467"/>
<path d="M18.6144 175.433C19.6667 175.433 20.5198 174.58 20.5198 173.528C20.5198 172.475 19.6667 171.622 18.6144 171.622C17.5621 171.622 16.7093 172.475 16.7093 173.528C16.7093 174.58 17.5621 175.433 18.6144 175.433Z" fill="#6FA467"/>
<path d="M34.8106 175.873C36.1057 175.873 37.1558 174.823 37.1558 173.528C37.1558 172.233 36.1057 171.183 34.8106 171.183C33.5154 171.183 32.4657 172.233 32.4657 173.528C32.4657 174.823 33.5154 175.873 34.8106 175.873Z" fill="#6FA467"/>
<path d="M51.0049 176.239C52.5025 176.239 53.7166 175.025 53.7166 173.527C53.7166 172.03 52.5025 170.816 51.0049 170.816C49.5074 170.816 48.2933 172.03 48.2933 173.527C48.2933 175.025 49.5074 176.239 51.0049 176.239Z" fill="#6FA467"/>
<path d="M67.1281 175.873C68.4232 175.873 69.4733 174.823 69.4733 173.528C69.4733 172.233 68.4232 171.183 67.1281 171.183C65.8329 171.183 64.7829 172.233 64.7829 173.528C64.7829 174.823 65.8329 175.873 67.1281 175.873Z" fill="#6FA467"/>
<path d="M83.3237 176.605C85.0235 176.605 86.4014 175.227 86.4014 173.527C86.4014 171.827 85.0235 170.449 83.3237 170.449C81.6238 170.449 80.2456 171.827 80.2456 173.527C80.2456 175.227 81.6238 176.605 83.3237 176.605Z" fill="#6FA467"/>
<path d="M99.4452 176.239C100.943 176.239 102.156 175.025 102.156 173.527C102.156 172.03 100.943 170.816 99.4452 170.816C97.9476 170.816 96.7335 172.03 96.7335 173.527C96.7335 175.025 97.9476 176.239 99.4452 176.239Z" fill="#6FA467"/>
<path d="M115.641 176.239C117.138 176.239 118.352 175.025 118.352 173.527C118.352 172.03 117.138 170.816 115.641 170.816C114.143 170.816 112.929 172.03 112.929 173.527C112.929 175.025 114.143 176.239 115.641 176.239Z" fill="#6FA467"/>
<path d="M131.836 175.873C133.131 175.873 134.181 174.823 134.181 173.528C134.181 172.233 133.131 171.183 131.836 171.183C130.541 171.183 129.491 172.233 129.491 173.528C129.491 174.823 130.541 175.873 131.836 175.873Z" fill="#6FA467"/>
<path d="M147.96 176.166C149.417 176.166 150.598 174.985 150.598 173.527C150.598 172.07 149.417 170.889 147.96 170.889C146.503 170.889 145.322 172.07 145.322 173.527C145.322 174.985 146.503 176.166 147.96 176.166Z" fill="#6FA467"/>
<path d="M164.154 176.019C165.53 176.019 166.645 174.903 166.645 173.527C166.645 172.151 165.53 171.035 164.154 171.035C162.778 171.035 161.662 172.151 161.662 173.527C161.662 174.903 162.778 176.019 164.154 176.019Z" fill="#6FA467"/>
<path d="M180.277 175.36C181.289 175.36 182.109 174.539 182.109 173.528C182.109 172.516 181.289 171.696 180.277 171.696C179.265 171.696 178.445 172.516 178.445 173.528C178.445 174.539 179.265 175.36 180.277 175.36Z" fill="#6FA467"/>
<path d="M196.474 175.873C197.769 175.873 198.819 174.823 198.819 173.528C198.819 172.233 197.769 171.183 196.474 171.183C195.179 171.183 194.129 172.233 194.129 173.528C194.129 174.823 195.179 175.873 196.474 175.873Z" fill="#6FA467"/>
<path d="M212.595 176.532C214.254 176.532 215.599 175.187 215.599 173.527C215.599 171.868 214.254 170.523 212.595 170.523C210.935 170.523 209.59 171.868 209.59 173.527C209.59 175.187 210.935 176.532 212.595 176.532Z" fill="#6FA467"/>
<path d="M228.792 175.653C229.966 175.653 230.917 174.701 230.917 173.527C230.917 172.354 229.966 171.402 228.792 171.402C227.618 171.402 226.667 172.354 226.667 173.527C226.667 174.701 227.618 175.653 228.792 175.653Z" fill="#6FA467"/>
<path d="M18.612 159.311C19.7048 159.311 20.5908 158.425 20.5908 157.333C20.5908 156.24 19.7048 155.354 18.612 155.354C17.5193 155.354 16.6336 156.24 16.6336 157.333C16.6336 158.425 17.5193 159.311 18.612 159.311Z" fill="#6FA467"/>
<path d="M34.8106 159.677C36.1057 159.677 37.1558 158.627 37.1558 157.332C37.1558 156.037 36.1057 154.987 34.8106 154.987C33.5154 154.987 32.4657 156.037 32.4657 157.332C32.4657 158.627 33.5154 159.677 34.8106 159.677Z" fill="#6FA467"/>
<path d="M51.0059 160.264C52.6248 160.264 53.9372 158.951 53.9372 157.332C53.9372 155.714 52.6248 154.401 51.0059 154.401C49.387 154.401 48.0746 155.714 48.0746 157.332C48.0746 158.951 49.387 160.264 51.0059 160.264Z" fill="#6FA467"/>
<path d="M67.1282 159.311C68.221 159.311 69.107 158.425 69.107 157.333C69.107 156.24 68.221 155.354 67.1282 155.354C66.0354 155.354 65.1494 156.24 65.1494 157.333C65.1494 158.425 66.0354 159.311 67.1282 159.311Z" fill="#6FA467"/>
<path d="M83.323 160.264C84.942 160.264 86.2544 158.951 86.2544 157.332C86.2544 155.714 84.942 154.401 83.323 154.401C81.7041 154.401 80.3917 155.714 80.3917 157.332C80.3917 158.951 81.7041 160.264 83.323 160.264Z" fill="#6FA467"/>
<path d="M99.4465 159.751C100.782 159.751 101.865 158.668 101.865 157.332C101.865 155.997 100.782 154.914 99.4465 154.914C98.1109 154.914 97.0279 155.997 97.0279 157.332C97.0279 158.668 98.1109 159.751 99.4465 159.751Z" fill="#6FA467"/>
<path d="M115.641 159.677C116.936 159.677 117.986 158.627 117.986 157.332C117.986 156.037 116.936 154.987 115.641 154.987C114.346 154.987 113.296 156.037 113.296 157.332C113.296 158.627 114.346 159.677 115.641 159.677Z" fill="#6FA467"/>
<path d="M131.836 159.751C133.172 159.751 134.255 158.668 134.255 157.332C134.255 155.997 133.172 154.914 131.836 154.914C130.501 154.914 129.418 155.997 129.418 157.332C129.418 158.668 130.501 159.751 131.836 159.751Z" fill="#6FA467"/>
<path d="M147.959 159.751C149.295 159.751 150.378 158.668 150.378 157.332C150.378 155.997 149.295 154.914 147.959 154.914C146.624 154.914 145.541 155.997 145.541 157.332C145.541 158.668 146.624 159.751 147.959 159.751Z" fill="#6FA467"/>
<path d="M164.154 159.53C165.369 159.53 166.353 158.546 166.353 157.332C166.353 156.118 165.369 155.133 164.154 155.133C162.94 155.133 161.956 156.118 161.956 157.332C161.956 158.546 162.94 159.53 164.154 159.53Z" fill="#6FA467"/>
<path d="M180.277 160.337C181.936 160.337 183.281 158.991 183.281 157.332C183.281 155.673 181.936 154.327 180.277 154.327C178.617 154.327 177.272 155.673 177.272 157.332C177.272 158.991 178.617 160.337 180.277 160.337Z" fill="#6FA467"/>
<path d="M196.472 159.238C197.524 159.238 198.377 158.385 198.377 157.333C198.377 156.28 197.524 155.427 196.472 155.427C195.42 155.427 194.567 156.28 194.567 157.333C194.567 158.385 195.42 159.238 196.472 159.238Z" fill="#6FA467"/>
<path d="M212.594 159.53C213.809 159.53 214.793 158.546 214.793 157.332C214.793 156.118 213.809 155.133 212.594 155.133C211.38 155.133 210.396 156.118 210.396 157.332C210.396 158.546 211.38 159.53 212.594 159.53Z" fill="#6FA467"/>
<path d="M228.789 160.337C230.449 160.337 231.794 158.991 231.794 157.332C231.794 155.673 230.449 154.327 228.789 154.327C227.13 154.327 225.785 155.673 225.785 157.332C225.785 158.991 227.13 160.337 228.789 160.337Z" fill="#6FA467"/>
<path d="M34.8096 143.702C36.1856 143.702 37.3011 142.586 37.3011 141.21C37.3011 139.834 36.1856 138.718 34.8096 138.718C33.4335 138.718 32.318 139.834 32.318 141.21C32.318 142.586 33.4335 143.702 34.8096 143.702Z" fill="#6FA467"/>
<path d="M51.0046 143.702C52.3807 143.702 53.4961 142.586 53.4961 141.21C53.4961 139.834 52.3807 138.718 51.0046 138.718C49.6285 138.718 48.513 139.834 48.513 141.21C48.513 142.586 49.6285 143.702 51.0046 143.702Z" fill="#6FA467"/>
<path d="M67.1258 143.702C68.5019 143.702 69.6174 142.586 69.6174 141.21C69.6174 139.834 68.5019 138.718 67.1258 138.718C65.7497 138.718 64.6343 139.834 64.6343 141.21C64.6343 142.586 65.7497 143.702 67.1258 143.702Z" fill="#6FA467"/>
<path d="M83.323 144.141C84.942 144.141 86.2544 142.829 86.2544 141.21C86.2544 139.591 84.942 138.279 83.323 138.279C81.7041 138.279 80.3917 139.591 80.3917 141.21C80.3917 142.829 81.7041 144.141 83.323 144.141Z" fill="#6FA467"/>
<path d="M99.446 142.968C100.417 142.968 101.205 142.181 101.205 141.209C101.205 140.238 100.417 139.45 99.446 139.45C98.4746 139.45 97.6872 140.238 97.6872 141.209C97.6872 142.181 98.4746 142.968 99.446 142.968Z" fill="#6FA467"/>
<path d="M115.641 143.921C117.138 143.921 118.352 142.707 118.352 141.209C118.352 139.712 117.138 138.498 115.641 138.498C114.143 138.498 112.929 139.712 112.929 141.209C112.929 142.707 114.143 143.921 115.641 143.921Z" fill="#6FA467"/>
<path d="M131.836 143.921C133.333 143.921 134.547 142.707 134.547 141.209C134.547 139.712 133.333 138.498 131.836 138.498C130.338 138.498 129.124 139.712 129.124 141.209C129.124 142.707 130.338 143.921 131.836 143.921Z" fill="#6FA467"/>
<path d="M147.958 143.921C149.455 143.921 150.669 142.707 150.669 141.209C150.669 139.712 149.455 138.498 147.958 138.498C146.46 138.498 145.246 139.712 145.246 141.209C145.246 142.707 146.46 143.921 147.958 143.921Z" fill="#6FA467"/>
<path d="M164.154 143.702C165.53 143.702 166.645 142.586 166.645 141.21C166.645 139.834 165.53 138.718 164.154 138.718C162.778 138.718 161.662 139.834 161.662 141.21C161.662 142.586 162.778 143.702 164.154 143.702Z" fill="#6FA467"/>
<path d="M180.278 143.189C181.371 143.189 182.257 142.303 182.257 141.21C182.257 140.117 181.371 139.231 180.278 139.231C179.185 139.231 178.299 140.117 178.299 141.21C178.299 142.303 179.185 143.189 180.278 143.189Z" fill="#6FA467"/>
<path d="M196.474 144.654C198.376 144.654 199.918 143.112 199.918 141.21C199.918 139.308 198.376 137.766 196.474 137.766C194.571 137.766 193.029 139.308 193.029 141.21C193.029 143.112 194.571 144.654 196.474 144.654Z" fill="#6FA467"/>
<path d="M212.595 144.215C214.254 144.215 215.599 142.869 215.599 141.21C215.599 139.551 214.254 138.205 212.595 138.205C210.935 138.205 209.59 139.551 209.59 141.21C209.59 142.869 210.935 144.215 212.595 144.215Z" fill="#6FA467"/>
<path d="M228.79 143.775C230.207 143.775 231.355 142.627 231.355 141.21C231.355 139.793 230.207 138.645 228.79 138.645C227.374 138.645 226.225 139.793 226.225 141.21C226.225 142.627 227.374 143.775 228.79 143.775Z" fill="#6FA467"/>
<path d="M34.8098 126.92C35.8621 126.92 36.7152 126.066 36.7152 125.014C36.7152 123.962 35.8621 123.109 34.8098 123.109C33.7575 123.109 32.9043 123.962 32.9043 125.014C32.9043 126.066 33.7575 126.92 34.8098 126.92Z" fill="#6FA467"/>
<path d="M51.0048 126.92C52.0571 126.92 52.9103 126.066 52.9103 125.014C52.9103 123.962 52.0571 123.109 51.0048 123.109C49.9525 123.109 49.0994 123.962 49.0994 125.014C49.0994 126.066 49.9525 126.92 51.0048 126.92Z" fill="#6FA467"/>
<path d="M67.1277 126.92C68.18 126.92 69.0332 126.066 69.0332 125.014C69.0332 123.962 68.18 123.109 67.1277 123.109C66.0754 123.109 65.2223 123.962 65.2223 125.014C65.2223 126.066 66.0754 126.92 67.1277 126.92Z" fill="#6FA467"/>
<path d="M83.3223 127.213C84.5365 127.213 85.5208 126.228 85.5208 125.014C85.5208 123.8 84.5365 122.816 83.3223 122.816C82.1081 122.816 81.1238 123.8 81.1238 125.014C81.1238 126.228 82.1081 127.213 83.3223 127.213Z" fill="#6FA467"/>
<path d="M99.4465 127.432C100.782 127.432 101.865 126.35 101.865 125.014C101.865 123.678 100.782 122.596 99.4465 122.596C98.1109 122.596 97.0279 123.678 97.0279 125.014C97.0279 126.35 98.1109 127.432 99.4465 127.432Z" fill="#6FA467"/>
<path d="M115.641 127.946C117.26 127.946 118.572 126.633 118.572 125.014C118.572 123.395 117.26 122.083 115.641 122.083C114.022 122.083 112.71 123.395 112.71 125.014C112.71 126.633 114.022 127.946 115.641 127.946Z" fill="#6FA467"/>
<path d="M131.837 127.946C133.456 127.946 134.768 126.633 134.768 125.014C134.768 123.395 133.456 122.083 131.837 122.083C130.218 122.083 128.906 123.395 128.906 125.014C128.906 126.633 130.218 127.946 131.837 127.946Z" fill="#6FA467"/>
<path d="M147.96 128.018C149.619 128.018 150.965 126.673 150.965 125.014C150.965 123.354 149.619 122.009 147.96 122.009C146.301 122.009 144.956 123.354 144.956 125.014C144.956 126.673 146.301 128.018 147.96 128.018Z" fill="#6FA467"/>
<path d="M164.154 127.213C165.369 127.213 166.353 126.228 166.353 125.014C166.353 123.8 165.369 122.816 164.154 122.816C162.94 122.816 161.956 123.8 161.956 125.014C161.956 126.228 162.94 127.213 164.154 127.213Z" fill="#6FA467"/>
<path d="M180.277 126.846C181.289 126.846 182.109 126.026 182.109 125.014C182.109 124.002 181.289 123.182 180.277 123.182C179.265 123.182 178.445 124.002 178.445 125.014C178.445 126.026 179.265 126.846 180.277 126.846Z" fill="#6FA467"/>
<path d="M196.474 128.458C198.376 128.458 199.918 126.916 199.918 125.014C199.918 123.112 198.376 121.57 196.474 121.57C194.571 121.57 193.029 123.112 193.029 125.014C193.029 126.916 194.571 128.458 196.474 128.458Z" fill="#6FA467"/>
<path d="M212.594 127.213C213.809 127.213 214.793 126.228 214.793 125.014C214.793 123.8 213.809 122.816 212.594 122.816C211.38 122.816 210.396 123.8 210.396 125.014C210.396 126.228 211.38 127.213 212.594 127.213Z" fill="#6FA467"/>
<path d="M228.789 128.018C230.449 128.018 231.794 126.673 231.794 125.014C231.794 123.354 230.449 122.009 228.789 122.009C227.13 122.009 225.785 123.354 225.785 125.014C225.785 126.673 227.13 128.018 228.789 128.018Z" fill="#6FA467"/>
<path d="M18.6144 110.724C19.6667 110.724 20.5198 109.871 20.5198 108.818C20.5198 107.766 19.6667 106.913 18.6144 106.913C17.5621 106.913 16.7093 107.766 16.7093 108.818C16.7093 109.871 17.5621 110.724 18.6144 110.724Z" fill="#6FA467"/>
<path d="M34.8096 111.31C36.1856 111.31 37.3011 110.195 37.3011 108.819C37.3011 107.443 36.1856 106.327 34.8096 106.327C33.4335 106.327 32.318 107.443 32.318 108.819C32.318 110.195 33.4335 111.31 34.8096 111.31Z" fill="#6FA467"/>
<path d="M51.0046 111.31C52.3807 111.31 53.4961 110.195 53.4961 108.819C53.4961 107.443 52.3807 106.327 51.0046 106.327C49.6285 106.327 48.513 107.443 48.513 108.819C48.513 110.195 49.6285 111.31 51.0046 111.31Z" fill="#6FA467"/>
<path d="M67.1277 111.897C68.8276 111.897 70.2058 110.519 70.2058 108.819C70.2058 107.119 68.8276 105.741 67.1277 105.741C65.4279 105.741 64.0497 107.119 64.0497 108.819C64.0497 110.519 65.4279 111.897 67.1277 111.897Z" fill="#6FA467"/>
<path d="M83.323 111.75C84.942 111.75 86.2544 110.437 86.2544 108.819C86.2544 107.2 84.942 105.887 83.323 105.887C81.7041 105.887 80.3917 107.2 80.3917 108.819C80.3917 110.437 81.7041 111.75 83.323 111.75Z" fill="#6FA467"/>
<path d="M99.446 110.577C100.417 110.577 101.205 109.79 101.205 108.818C101.205 107.847 100.417 107.06 99.446 107.06C98.4746 107.06 97.6872 107.847 97.6872 108.818C97.6872 109.79 98.4746 110.577 99.446 110.577Z" fill="#6FA467"/>
<path d="M115.641 111.75C117.26 111.75 118.572 110.437 118.572 108.819C118.572 107.2 117.26 105.887 115.641 105.887C114.022 105.887 112.71 107.2 112.71 108.819C112.71 110.437 114.022 111.75 115.641 111.75Z" fill="#6FA467"/>
<path d="M131.836 112.336C133.779 112.336 135.354 110.762 135.354 108.819C135.354 106.876 133.779 105.301 131.836 105.301C129.893 105.301 128.318 106.876 128.318 108.819C128.318 110.762 129.893 112.336 131.836 112.336Z" fill="#6FA467"/>
<path d="M147.96 111.823C149.619 111.823 150.965 110.478 150.965 108.818C150.965 107.159 149.619 105.813 147.96 105.813C146.301 105.813 144.956 107.159 144.956 108.818C144.956 110.478 146.301 111.823 147.96 111.823Z" fill="#6FA467"/>
<path d="M164.155 112.336C166.097 112.336 167.673 110.762 167.673 108.819C167.673 106.876 166.097 105.301 164.155 105.301C162.212 105.301 160.637 106.876 160.637 108.819C160.637 110.762 162.212 112.336 164.155 112.336Z" fill="#6FA467"/>
<path d="M180.276 112.336C182.219 112.336 183.794 110.762 183.794 108.819C183.794 106.876 182.219 105.301 180.276 105.301C178.333 105.301 176.758 106.876 176.758 108.819C176.758 110.762 178.333 112.336 180.276 112.336Z" fill="#6FA467"/>
<path d="M196.472 112.556C198.536 112.556 200.21 110.883 200.21 108.819C200.21 106.754 198.536 105.081 196.472 105.081C194.408 105.081 192.735 106.754 192.735 108.819C192.735 110.883 194.408 112.556 196.472 112.556Z" fill="#6FA467"/>
<path d="M212.594 111.383C214.011 111.383 215.159 110.235 215.159 108.819C215.159 107.402 214.011 106.254 212.594 106.254C211.178 106.254 210.029 107.402 210.029 108.819C210.029 110.235 211.178 111.383 212.594 111.383Z" fill="#6FA467"/>
<path d="M228.791 112.043C230.572 112.043 232.016 110.599 232.016 108.819C232.016 107.038 230.572 105.594 228.791 105.594C227.01 105.594 225.567 107.038 225.567 108.819C225.567 110.599 227.01 112.043 228.791 112.043Z" fill="#6FA467"/>
<path d="M228.79 80.0177C230.733 80.0177 232.308 78.4428 232.308 76.5001C232.308 74.5573 230.733 72.9824 228.79 72.9824C226.847 72.9824 225.272 74.5573 225.272 76.5001C225.272 78.4428 226.847 80.0177 228.79 80.0177Z" fill="#6FA467"/>
<path d="M212.595 80.0177C214.538 80.0177 216.112 78.4428 216.112 76.5001C216.112 74.5573 214.538 72.9824 212.595 72.9824C210.652 72.9824 209.077 74.5573 209.077 76.5001C209.077 78.4428 210.652 80.0177 212.595 80.0177Z" fill="#6FA467"/>
<path d="M196.472 80.238C198.536 80.238 200.21 78.5646 200.21 76.5005C200.21 74.4363 198.536 72.7629 196.472 72.7629C194.408 72.7629 192.735 74.4363 192.735 76.5005C192.735 78.5646 194.408 80.238 196.472 80.238Z" fill="#6FA467"/>
<path d="M180.278 79.0654C181.695 79.0654 182.843 77.917 182.843 76.5005C182.843 75.0839 181.695 73.9355 180.278 73.9355C178.862 73.9355 177.713 75.0839 177.713 76.5005C177.713 77.917 178.862 79.0654 180.278 79.0654Z" fill="#6FA467"/>
<path d="M164.154 79.7247C165.935 79.7247 167.379 78.2811 167.379 76.5003C167.379 74.7195 165.935 73.2759 164.154 73.2759C162.374 73.2759 160.93 74.7195 160.93 76.5003C160.93 78.2811 162.374 79.7247 164.154 79.7247Z" fill="#6FA467"/>
<path d="M147.959 78.919C149.295 78.919 150.378 77.8363 150.378 76.5007C150.378 75.165 149.295 74.0823 147.959 74.0823C146.624 74.0823 145.541 75.165 145.541 76.5007C145.541 77.8363 146.624 78.919 147.959 78.919Z" fill="#6FA467"/>
<path d="M131.837 79.0654C133.254 79.0654 134.402 77.917 134.402 76.5005C134.402 75.0839 133.254 73.9355 131.837 73.9355C130.421 73.9355 129.272 75.0839 129.272 76.5005C129.272 77.917 130.421 79.0654 131.837 79.0654Z" fill="#6FA467"/>
<path d="M115.641 80.3843C117.786 80.3843 119.525 78.6453 119.525 76.5003C119.525 74.3552 117.786 72.6162 115.641 72.6162C113.496 72.6162 111.757 74.3552 111.757 76.5003C111.757 78.6453 113.496 80.3843 115.641 80.3843Z" fill="#6FA467"/>
<path d="M99.4455 79.6523C101.186 79.6523 102.597 78.2414 102.597 76.5011C102.597 74.7607 101.186 73.3499 99.4455 73.3499C97.7051 73.3499 96.2941 74.7607 96.2941 76.5011C96.2941 78.2414 97.7051 79.6523 99.4455 79.6523Z" fill="#6FA467"/>
<path d="M83.3228 80.165C85.3465 80.165 86.987 78.5245 86.987 76.5008C86.987 74.4772 85.3465 72.8367 83.3228 72.8367C81.2991 72.8367 79.6586 74.4772 79.6586 76.5008C79.6586 78.5245 81.2991 80.165 83.3228 80.165Z" fill="#6FA467"/>
<path d="M67.1273 79.8716C68.9891 79.8716 70.4985 78.3623 70.4985 76.5005C70.4985 74.6387 68.9891 73.1294 67.1273 73.1294C65.2656 73.1294 63.7562 74.6387 63.7562 76.5005C63.7562 78.3623 65.2656 79.8716 67.1273 79.8716Z" fill="#6FA467"/>
<path d="M51.0057 79.6523C52.7461 79.6523 54.1568 78.2414 54.1568 76.5011C54.1568 74.7607 52.7461 73.3499 51.0057 73.3499C49.2654 73.3499 47.8547 74.7607 47.8547 76.5011C47.8547 78.2414 49.2654 79.6523 51.0057 79.6523Z" fill="#6FA467"/>
<path d="M34.8102 79.8716C36.672 79.8716 38.1813 78.3623 38.1813 76.5005C38.1813 74.6387 36.672 73.1294 34.8102 73.1294C32.9484 73.1294 31.4391 74.6387 31.4391 76.5005C31.4391 78.3623 32.9484 79.8716 34.8102 79.8716Z" fill="#6FA467"/>
<path d="M18.6122 78.1131C19.5026 78.1131 20.2245 77.3913 20.2245 76.5009C20.2245 75.6105 19.5026 74.8887 18.6122 74.8887C17.7218 74.8887 17.0002 75.6105 17.0002 76.5009C17.0002 77.3913 17.7218 78.1131 18.6122 78.1131Z" fill="#6FA467"/>
<path d="M228.79 96.2143C230.733 96.2143 232.308 94.6396 232.308 92.6968C232.308 90.7541 230.733 89.1792 228.79 89.1792C226.847 89.1792 225.272 90.7541 225.272 92.6968C225.272 94.6396 226.847 96.2143 228.79 96.2143Z" fill="#6FA467"/>
<path d="M212.595 96.2143C214.538 96.2143 216.112 94.6396 216.112 92.6968C216.112 90.7541 214.538 89.1792 212.595 89.1792C210.652 89.1792 209.077 90.7541 209.077 92.6968C209.077 94.6396 210.652 96.2143 212.595 96.2143Z" fill="#6FA467"/>
<path d="M196.472 96.4336C198.536 96.4336 200.21 94.7604 200.21 92.6963C200.21 90.6321 198.536 88.9587 196.472 88.9587C194.408 88.9587 192.735 90.6321 192.735 92.6963C192.735 94.7604 194.408 96.4336 196.472 96.4336Z" fill="#6FA467"/>
<path d="M180.278 95.2609C181.695 95.2609 182.843 94.1126 182.843 92.696C182.843 91.2795 181.695 90.1311 180.278 90.1311C178.862 90.1311 177.713 91.2795 177.713 92.696C177.713 94.1126 178.862 95.2609 180.278 95.2609Z" fill="#6FA467"/>
<path d="M164.154 95.9204C165.935 95.9204 167.379 94.4768 167.379 92.696C167.379 90.9152 165.935 89.4714 164.154 89.4714C162.374 89.4714 160.93 90.9152 160.93 92.696C160.93 94.4768 162.374 95.9204 164.154 95.9204Z" fill="#6FA467"/>
<path d="M147.959 95.1147C149.295 95.1147 150.378 94.0321 150.378 92.6965C150.378 91.3608 149.295 90.2781 147.959 90.2781C146.624 90.2781 145.541 91.3608 145.541 92.6965C145.541 94.0321 146.624 95.1147 147.959 95.1147Z" fill="#6FA467"/>
<path d="M131.837 95.2609C133.254 95.2609 134.402 94.1126 134.402 92.696C134.402 91.2795 133.254 90.1311 131.837 90.1311C130.421 90.1311 129.272 91.2795 129.272 92.696C129.272 94.1126 130.421 95.2609 131.837 95.2609Z" fill="#6FA467"/>
<path d="M115.641 96.5807C117.786 96.5807 119.525 94.8419 119.525 92.6968C119.525 90.5517 117.786 88.8127 115.641 88.8127C113.496 88.8127 111.757 90.5517 111.757 92.6968C111.757 94.8419 113.496 96.5807 115.641 96.5807Z" fill="#6FA467"/>
<path d="M99.4455 95.8469C101.186 95.8469 102.597 94.4362 102.597 92.6959C102.597 90.9555 101.186 89.5447 99.4455 89.5447C97.7051 89.5447 96.2941 90.9555 96.2941 92.6959C96.2941 94.4362 97.7051 95.8469 99.4455 95.8469Z" fill="#6FA467"/>
<path d="M83.3228 96.3601C85.3465 96.3601 86.987 94.7196 86.987 92.6959C86.987 90.6722 85.3465 89.0317 83.3228 89.0317C81.2991 89.0317 79.6586 90.6722 79.6586 92.6959C79.6586 94.7196 81.2991 96.3601 83.3228 96.3601Z" fill="#6FA467"/>
<path d="M67.1273 96.0672C68.9891 96.0672 70.4985 94.5581 70.4985 92.6963C70.4985 90.8345 68.9891 89.3252 67.1273 89.3252C65.2656 89.3252 63.7562 90.8345 63.7562 92.6963C63.7562 94.5581 65.2656 96.0672 67.1273 96.0672Z" fill="#6FA467"/>
<path d="M51.0057 95.8469C52.7461 95.8469 54.1568 94.4362 54.1568 92.6959C54.1568 90.9555 52.7461 89.5447 51.0057 89.5447C49.2654 89.5447 47.8547 90.9555 47.8547 92.6959C47.8547 94.4362 49.2654 95.8469 51.0057 95.8469Z" fill="#6FA467"/>
<path d="M34.8102 96.0672C36.672 96.0672 38.1813 94.5581 38.1813 92.6963C38.1813 90.8345 36.672 89.3252 34.8102 89.3252C32.9484 89.3252 31.4391 90.8345 31.4391 92.6963C31.4391 94.5581 32.9484 96.0672 34.8102 96.0672Z" fill="#6FA467"/>
<path d="M18.6122 94.3086C19.5026 94.3086 20.2245 93.5868 20.2245 92.6964C20.2245 91.8059 19.5026 91.084 18.6122 91.084C17.7218 91.084 17.0002 91.8059 17.0002 92.6964C17.0002 93.5868 17.7218 94.3086 18.6122 94.3086Z" fill="#6FA467"/>
</svg>
