<svg width="432" height="243" viewBox="0 0 432 243" fill="none" xmlns="http://www.w3.org/2000/svg">
<path d="M46.3286 4.45216C47.5125 4.45216 48.4727 3.49251 48.4727 2.30858C48.4727 1.12464 47.5125 0.164795 46.3286 0.164795C45.1446 0.164795 44.1852 1.12464 44.1852 2.30858C44.1852 3.49251 45.1446 4.45216 46.3286 4.45216Z" fill="#4C8BAA"/>
<path d="M100.829 4.12235C101.831 4.12235 102.642 3.31028 102.642 2.30849C102.642 1.3067 101.831 0.494629 100.829 0.494629C99.827 0.494629 99.0147 1.3067 99.0147 2.30849C99.0147 3.31028 99.827 4.12235 100.829 4.12235Z" fill="#4C8BAA"/>
<path d="M119.05 4.36982C120.188 4.36982 121.111 3.44697 121.111 2.30857C121.111 1.17017 120.188 0.247314 119.05 0.247314C117.911 0.247314 116.988 1.17017 116.988 2.30857C116.988 3.44697 117.911 4.36982 119.05 4.36982Z" fill="#4C8BAA"/>
<path d="M137.187 4.36982C138.326 4.36982 139.249 3.44697 139.249 2.30857C139.249 1.17017 138.326 0.247314 137.187 0.247314C136.049 0.247314 135.126 1.17017 135.126 2.30857C135.126 3.44697 136.049 4.36982 137.187 4.36982Z" fill="#4C8BAA"/>
<path d="M155.409 4.12235C156.411 4.12235 157.224 3.31028 157.224 2.30849C157.224 1.3067 156.411 0.494629 155.409 0.494629C154.408 0.494629 153.596 1.3067 153.596 2.30849C153.596 3.31028 154.408 4.12235 155.409 4.12235Z" fill="#4C8BAA"/>
<path d="M28.1054 23.1686C29.6081 23.1686 30.8261 21.9504 30.8261 20.4477C30.8261 18.945 29.6081 17.7268 28.1054 17.7268C26.6027 17.7268 25.3847 18.945 25.3847 20.4477C25.3847 21.9504 26.6027 23.1686 28.1054 23.1686Z" fill="#4C8BAA"/>
<path d="M46.3264 22.0966C47.2372 22.0966 47.9754 21.3583 47.9754 20.4476C47.9754 19.5369 47.2372 18.7986 46.3264 18.7986C45.4157 18.7986 44.6774 19.5369 44.6774 20.4476C44.6774 21.3583 45.4157 22.0966 46.3264 22.0966Z" fill="#4C8BAA"/>
<path d="M64.468 23.0035C65.8797 23.0035 67.0245 21.8593 67.0245 20.4476C67.0245 19.036 65.8797 17.8916 64.468 17.8916C63.0564 17.8916 61.9124 19.036 61.9124 20.4476C61.9124 21.8593 63.0564 23.0035 64.468 23.0035Z" fill="#4C8BAA"/>
<path d="M82.6881 22.5087C83.8265 22.5087 84.7493 21.5859 84.7493 20.4475C84.7493 19.3091 83.8265 18.3862 82.6881 18.3862C81.5497 18.3862 80.6268 19.3091 80.6268 20.4475C80.6268 21.5859 81.5497 22.5087 82.6881 22.5087Z" fill="#4C8BAA"/>
<path d="M100.827 21.9319C101.646 21.9319 102.311 21.2674 102.311 20.4478C102.311 19.6281 101.646 18.9636 100.827 18.9636C100.007 18.9636 99.3419 19.6281 99.3419 20.4478C99.3419 21.2674 100.007 21.9319 100.827 21.9319Z" fill="#4C8BAA"/>
<path d="M119.047 23.0861C120.504 23.0861 121.686 21.9048 121.686 20.4477C121.686 18.9905 120.504 17.8093 119.047 17.8093C117.59 17.8093 116.409 18.9905 116.409 20.4477C116.409 21.9048 117.59 23.0861 119.047 23.0861Z" fill="#4C8BAA"/>
<path d="M137.187 22.5087C138.326 22.5087 139.249 21.5859 139.249 20.4475C139.249 19.3091 138.326 18.3862 137.187 18.3862C136.049 18.3862 135.126 19.3091 135.126 20.4475C135.126 21.5859 136.049 22.5087 137.187 22.5087Z" fill="#4C8BAA"/>
<path d="M155.409 22.2615C156.411 22.2615 157.224 21.4494 157.224 20.4477C157.224 19.4459 156.411 18.6338 155.409 18.6338C154.408 18.6338 153.596 19.4459 153.596 20.4477C153.596 21.4494 154.408 22.2615 155.409 22.2615Z" fill="#4C8BAA"/>
<path d="M9.885 40.6481C10.9779 40.6481 11.8641 39.762 11.8641 38.6692C11.8641 37.5763 10.9779 36.6904 9.885 36.6904C8.79213 36.6904 7.90668 37.5763 7.90668 38.6692C7.90668 39.762 8.79213 40.6481 9.885 40.6481Z" fill="#4C8BAA"/>
<path d="M28.1055 40.6481C29.1984 40.6481 30.0838 39.762 30.0838 38.6692C30.0838 37.5763 29.1984 36.6904 28.1055 36.6904C27.0127 36.6904 26.1264 37.5763 26.1264 38.6692C26.1264 39.762 27.0127 40.6481 28.1055 40.6481Z" fill="#4C8BAA"/>
<path d="M46.3274 40.4829C47.3292 40.4829 48.1415 39.6706 48.1415 38.6688C48.1415 37.6671 47.3292 36.855 46.3274 36.855C45.3256 36.855 44.5134 37.6671 44.5134 38.6688C44.5134 39.6706 45.3256 40.4829 46.3274 40.4829Z" fill="#4C8BAA"/>
<path d="M64.468 41.2251C65.8797 41.2251 67.0245 40.0807 67.0245 38.6691C67.0245 37.2575 65.8797 36.1133 64.468 36.1133C63.0564 36.1133 61.9124 37.2575 61.9124 38.6691C61.9124 40.0807 63.0564 41.2251 64.468 41.2251Z" fill="#4C8BAA"/>
<path d="M82.6892 40.4829C83.6909 40.4829 84.5024 39.6706 84.5024 38.6688C84.5024 37.6671 83.6909 36.855 82.6892 36.855C81.6874 36.855 80.8751 37.6671 80.8751 38.6688C80.8751 39.6706 81.6874 40.4829 82.6892 40.4829Z" fill="#4C8BAA"/>
<path d="M100.829 40.4829C101.831 40.4829 102.642 39.6706 102.642 38.6688C102.642 37.6671 101.831 36.855 100.829 36.855C99.827 36.855 99.0147 37.6671 99.0147 38.6688C99.0147 39.6706 99.827 40.4829 100.829 40.4829Z" fill="#4C8BAA"/>
<path d="M119.05 40.1531C119.87 40.1531 120.534 39.4886 120.534 38.669C120.534 37.8494 119.87 37.1851 119.05 37.1851C118.23 37.1851 117.566 37.8494 117.566 38.669C117.566 39.4886 118.23 40.1531 119.05 40.1531Z" fill="#4C8BAA"/>
<path d="M137.187 40.8953C138.417 40.8953 139.414 39.8985 139.414 38.669C139.414 37.4395 138.417 36.4429 137.187 36.4429C135.958 36.4429 134.961 37.4395 134.961 38.669C134.961 39.8985 135.958 40.8953 137.187 40.8953Z" fill="#4C8BAA"/>
<path d="M155.409 40.4829C156.411 40.4829 157.224 39.6706 157.224 38.6688C157.224 37.6671 156.411 36.855 155.409 36.855C154.408 36.855 153.596 37.6671 153.596 38.6688C153.596 39.6706 154.408 40.4829 155.409 40.4829Z" fill="#4C8BAA"/>
<path d="M9.885 58.787C10.9779 58.787 11.8641 57.9009 11.8641 56.8081C11.8641 55.7152 10.9779 54.8293 9.885 54.8293C8.79213 54.8293 7.90668 55.7152 7.90668 56.8081C7.90668 57.9009 8.79213 58.787 9.885 58.787Z" fill="#4C8BAA"/>
<path d="M28.1055 58.6221C29.1073 58.6221 29.9196 57.8098 29.9196 56.808C29.9196 55.8062 29.1073 54.9941 28.1055 54.9941C27.1037 54.9941 26.2914 55.8062 26.2914 56.808C26.2914 57.8098 27.1037 58.6221 28.1055 58.6221Z" fill="#4C8BAA"/>
<path d="M46.3272 59.4466C47.7843 59.4466 48.9657 58.2652 48.9657 56.808C48.9657 55.3509 47.7843 54.1697 46.3272 54.1697C44.87 54.1697 43.6886 55.3509 43.6886 56.808C43.6886 58.2652 44.87 59.4466 46.3272 59.4466Z" fill="#4C8BAA"/>
<path d="M64.4663 58.3748C65.3315 58.3748 66.0332 57.6734 66.0332 56.8082C66.0332 55.943 65.3315 55.2417 64.4663 55.2417C63.6012 55.2417 62.9003 55.943 62.9003 56.8082C62.9003 57.6734 63.6012 58.3748 64.4663 58.3748Z" fill="#4C8BAA"/>
<path d="M82.6881 58.8691C83.8265 58.8691 84.7493 57.9462 84.7493 56.8078C84.7493 55.6694 83.8265 54.7466 82.6881 54.7466C81.5497 54.7466 80.6268 55.6694 80.6268 56.8078C80.6268 57.9462 81.5497 58.8691 82.6881 58.8691Z" fill="#4C8BAA"/>
<path d="M100.828 58.8691C101.966 58.8691 102.889 57.9462 102.889 56.8078C102.889 55.6694 101.966 54.7466 100.828 54.7466C99.6893 54.7466 98.7664 55.6694 98.7664 56.8078C98.7664 57.9462 99.6893 58.8691 100.828 58.8691Z" fill="#4C8BAA"/>
<path d="M119.047 59.0345C120.277 59.0345 121.274 58.0376 121.274 56.8081C121.274 55.5787 120.277 54.582 119.047 54.582C117.818 54.582 116.821 55.5787 116.821 56.8081C116.821 58.0376 117.818 59.0345 119.047 59.0345Z" fill="#4C8BAA"/>
<path d="M137.187 59.0345C138.417 59.0345 139.414 58.0376 139.414 56.8081C139.414 55.5787 138.417 54.582 137.187 54.582C135.958 54.582 134.961 55.5787 134.961 56.8081C134.961 58.0376 135.958 59.0345 137.187 59.0345Z" fill="#4C8BAA"/>
<path d="M155.409 59.0345C156.639 59.0345 157.636 58.0376 157.636 56.8081C157.636 55.5787 156.639 54.582 155.409 54.582C154.18 54.582 153.184 55.5787 153.184 56.8081C153.184 58.0376 154.18 59.0345 155.409 59.0345Z" fill="#4C8BAA"/>
<path d="M9.88366 78.0802C11.5685 78.0802 12.9345 76.7144 12.9345 75.0296C12.9345 73.3448 11.5685 71.979 9.88366 71.979C8.19883 71.979 6.83365 73.3448 6.83365 75.0296C6.83365 76.7144 8.19883 78.0802 9.88366 78.0802Z" fill="#4C8BAA"/>
<path d="M28.1061 78.0802C29.7909 78.0802 31.1569 76.7144 31.1569 75.0296C31.1569 73.3448 29.7909 71.979 28.1061 71.979C26.4213 71.979 25.0553 73.3448 25.0553 75.0296C25.0553 76.7144 26.4213 78.0802 28.1061 78.0802Z" fill="#4C8BAA"/>
<path d="M46.3272 77.6678C47.7843 77.6678 48.9657 76.4866 48.9657 75.0295C48.9657 73.5723 47.7843 72.3911 46.3272 72.3911C44.87 72.3911 43.6886 73.5723 43.6886 75.0295C43.6886 76.4866 44.87 77.6678 46.3272 77.6678Z" fill="#4C8BAA"/>
<path d="M64.4679 77.9979C66.1072 77.9979 67.4366 76.6689 67.4366 75.0296C67.4366 73.3903 66.1072 72.0613 64.4679 72.0613C62.8286 72.0613 61.5001 73.3903 61.5001 75.0296C61.5001 76.6689 62.8286 77.9979 64.4679 77.9979Z" fill="#4C8BAA"/>
<path d="M82.6877 77.833C84.2359 77.833 85.4905 76.578 85.4905 75.0298C85.4905 73.4816 84.2359 72.2266 82.6877 72.2266C81.1395 72.2266 79.8841 73.4816 79.8841 75.0298C79.8841 76.578 81.1395 77.833 82.6877 77.833Z" fill="#4C8BAA"/>
<path d="M100.828 77.091C101.966 77.091 102.889 76.1682 102.889 75.0298C102.889 73.8914 101.966 72.9685 100.828 72.9685C99.6893 72.9685 98.7664 73.8914 98.7664 75.0298C98.7664 76.1682 99.6893 77.091 100.828 77.091Z" fill="#4C8BAA"/>
<path d="M119.047 77.6678C120.504 77.6678 121.686 76.4866 121.686 75.0295C121.686 73.5723 120.504 72.3911 119.047 72.3911C117.59 72.3911 116.409 73.5723 116.409 75.0295C116.409 76.4866 117.59 77.6678 119.047 77.6678Z" fill="#4C8BAA"/>
<path d="M137.187 78.4102C139.054 78.4102 140.567 76.8967 140.567 75.0297C140.567 73.1627 139.054 71.6492 137.187 71.6492C135.32 71.6492 133.807 73.1627 133.807 75.0297C133.807 76.8967 135.32 78.4102 137.187 78.4102Z" fill="#4C8BAA"/>
<path d="M155.41 77.4206C156.731 77.4206 157.802 76.3502 157.802 75.0296C157.802 73.7091 156.731 72.6387 155.41 72.6387C154.09 72.6387 153.02 73.7091 153.02 75.0296C153.02 76.3502 154.09 77.4206 155.41 77.4206Z" fill="#4C8BAA"/>
<path d="M9.88347 95.9719C11.3862 95.9719 12.605 94.7539 12.605 93.2512C12.605 91.7485 11.3862 90.5303 9.88347 90.5303C8.38079 90.5303 7.16278 91.7485 7.16278 93.2512C7.16278 94.7539 8.38079 95.9719 9.88347 95.9719Z" fill="#4C8BAA"/>
<path d="M28.1065 95.8897C29.5636 95.8897 30.745 94.7085 30.745 93.2514C30.745 91.7942 29.5636 90.6128 28.1065 90.6128C26.6493 90.6128 25.4679 91.7942 25.4679 93.2514C25.4679 94.7085 26.6493 95.8897 28.1065 95.8897Z" fill="#4C8BAA"/>
<path d="M46.3273 95.9719C47.8299 95.9719 49.048 94.7539 49.048 93.2512C49.048 91.7485 47.8299 90.5303 46.3273 90.5303C44.8246 90.5303 43.6066 91.7485 43.6066 93.2512C43.6066 94.7539 44.8246 95.9719 46.3273 95.9719Z" fill="#4C8BAA"/>
<path d="M64.4671 95.9719C65.9698 95.9719 67.1878 94.7539 67.1878 93.2512C67.1878 91.7485 65.9698 90.5303 64.4671 90.5303C62.9644 90.5303 61.7464 91.7485 61.7464 93.2512C61.7464 94.7539 62.9644 95.9719 64.4671 95.9719Z" fill="#4C8BAA"/>
<path d="M82.6879 95.7248C84.054 95.7248 85.1614 94.6174 85.1614 93.2513C85.1614 91.8853 84.054 90.7778 82.6879 90.7778C81.3218 90.7778 80.2144 91.8853 80.2144 93.2513C80.2144 94.6174 81.3218 95.7248 82.6879 95.7248Z" fill="#4C8BAA"/>
<path d="M100.826 96.6317C102.693 96.6317 104.206 95.1184 104.206 93.2514C104.206 91.3844 102.693 89.8708 100.826 89.8708C98.9593 89.8708 97.4453 91.3844 97.4453 93.2514C97.4453 95.1184 98.9593 96.6317 100.826 96.6317Z" fill="#4C8BAA"/>
<path d="M119.048 95.3948C120.232 95.3948 121.191 94.4351 121.191 93.2512C121.191 92.0673 120.232 91.1074 119.048 91.1074C117.864 91.1074 116.904 92.0673 116.904 93.2512C116.904 94.4351 117.864 95.3948 119.048 95.3948Z" fill="#4C8BAA"/>
<path d="M137.187 95.7248C138.553 95.7248 139.661 94.6174 139.661 93.2513C139.661 91.8853 138.553 90.7778 137.187 90.7778C135.821 90.7778 134.714 91.8853 134.714 93.2513C134.714 94.6174 135.821 95.7248 137.187 95.7248Z" fill="#4C8BAA"/>
<path d="M155.408 96.6317C157.275 96.6317 158.789 95.1184 158.789 93.2514C158.789 91.3844 157.275 89.8708 155.408 89.8708C153.541 89.8708 152.028 91.3844 152.028 93.2514C152.028 95.1184 153.541 96.6317 155.408 96.6317Z" fill="#4C8BAA"/>
<path d="M9.885 113.369C10.9779 113.369 11.8641 112.483 11.8641 111.39C11.8641 110.297 10.9779 109.411 9.885 109.411C8.79213 109.411 7.90668 110.297 7.90668 111.39C7.90668 112.483 8.79213 113.369 9.885 113.369Z" fill="#4C8BAA"/>
<path d="M28.1061 114.441C29.7909 114.441 31.1569 113.075 31.1569 111.39C31.1569 109.705 29.7909 108.339 28.1061 108.339C26.4213 108.339 25.0553 109.705 25.0553 111.39C25.0553 113.075 26.4213 114.441 28.1061 114.441Z" fill="#4C8BAA"/>
<path d="M46.3271 114.441C48.0119 114.441 49.3779 113.075 49.3779 111.39C49.3779 109.705 48.0119 108.339 46.3271 108.339C44.6422 108.339 43.2762 109.705 43.2762 111.39C43.2762 113.075 44.6422 114.441 46.3271 114.441Z" fill="#4C8BAA"/>
<path d="M64.4657 114.441C66.1505 114.441 67.5165 113.075 67.5165 111.39C67.5165 109.705 66.1505 108.339 64.4657 108.339C62.7809 108.339 61.4149 109.705 61.4149 111.39C61.4149 113.075 62.7809 114.441 64.4657 114.441Z" fill="#4C8BAA"/>
<path d="M82.6877 114.194C84.2359 114.194 85.4905 112.939 85.4905 111.39C85.4905 109.842 84.2359 108.587 82.6877 108.587C81.1395 108.587 79.8841 109.842 79.8841 111.39C79.8841 112.939 81.1395 114.194 82.6877 114.194Z" fill="#4C8BAA"/>
<path d="M100.829 113.616C102.058 113.616 103.054 112.62 103.054 111.39C103.054 110.161 102.058 109.164 100.829 109.164C99.5992 109.164 98.6023 110.161 98.6023 111.39C98.6023 112.62 99.5992 113.616 100.829 113.616Z" fill="#4C8BAA"/>
<path d="M119.048 115.265C121.188 115.265 122.923 113.53 122.923 111.39C122.923 109.25 121.188 107.515 119.048 107.515C116.908 107.515 115.173 109.25 115.173 111.39C115.173 113.53 116.908 115.265 119.048 115.265Z" fill="#4C8BAA"/>
<path d="M137.187 114.77C139.054 114.77 140.567 113.257 140.567 111.39C140.567 109.523 139.054 108.01 137.187 108.01C135.32 108.01 133.807 109.523 133.807 111.39C133.807 113.257 135.32 114.77 137.187 114.77Z" fill="#4C8BAA"/>
<path d="M155.409 114.276C157.003 114.276 158.295 112.984 158.295 111.39C158.295 109.796 157.003 108.504 155.409 108.504C153.815 108.504 152.523 109.796 152.523 111.39C152.523 112.984 153.815 114.276 155.409 114.276Z" fill="#4C8BAA"/>
<path d="M9.88347 132.332C11.3862 132.332 12.605 131.114 12.605 129.612C12.605 128.109 11.3862 126.891 9.88347 126.891C8.38079 126.891 7.16278 128.109 7.16278 129.612C7.16278 131.114 8.38079 132.332 9.88347 132.332Z" fill="#4C8BAA"/>
<path d="M28.1062 132.91C29.9277 132.91 31.4042 131.433 31.4042 129.612C31.4042 127.79 29.9277 126.314 28.1062 126.314C26.2848 126.314 24.8082 127.79 24.8082 129.612C24.8082 131.433 26.2848 132.91 28.1062 132.91Z" fill="#4C8BAA"/>
<path d="M46.3269 132.91C48.1484 132.91 49.6249 131.433 49.6249 129.612C49.6249 127.79 48.1484 126.314 46.3269 126.314C44.5055 126.314 43.0289 127.79 43.0289 129.612C43.0289 131.433 44.5055 132.91 46.3269 132.91Z" fill="#4C8BAA"/>
<path d="M64.4678 132.992C66.3348 132.992 67.8488 131.479 67.8488 129.612C67.8488 127.745 66.3348 126.231 64.4678 126.231C62.6009 126.231 61.0877 127.745 61.0877 129.612C61.0877 131.479 62.6009 132.992 64.4678 132.992Z" fill="#4C8BAA"/>
<path d="M82.6879 132.085C84.054 132.085 85.1614 130.978 85.1614 129.611C85.1614 128.245 84.054 127.138 82.6879 127.138C81.3218 127.138 80.2144 128.245 80.2144 129.611C80.2144 130.978 81.3218 132.085 82.6879 132.085Z" fill="#4C8BAA"/>
<path d="M100.828 131.673C101.966 131.673 102.889 130.75 102.889 129.612C102.889 128.473 101.966 127.55 100.828 127.55C99.6893 127.55 98.7664 128.473 98.7664 129.612C98.7664 130.75 99.6893 131.673 100.828 131.673Z" fill="#4C8BAA"/>
<path d="M119.048 133.487C121.188 133.487 122.923 131.752 122.923 129.611C122.923 127.471 121.188 125.736 119.048 125.736C116.908 125.736 115.173 127.471 115.173 129.611C115.173 131.752 116.908 133.487 119.048 133.487Z" fill="#4C8BAA"/>
<path d="M137.187 132.085C138.553 132.085 139.661 130.978 139.661 129.611C139.661 128.245 138.553 127.138 137.187 127.138C135.821 127.138 134.714 128.245 134.714 129.611C134.714 130.978 135.821 132.085 137.187 132.085Z" fill="#4C8BAA"/>
<path d="M155.408 132.992C157.275 132.992 158.789 131.479 158.789 129.612C158.789 127.745 157.275 126.231 155.408 126.231C153.541 126.231 152.028 127.745 152.028 129.612C152.028 131.479 153.541 132.992 155.408 132.992Z" fill="#4C8BAA"/>
<path d="M9.885 149.729C10.9779 149.729 11.8641 148.843 11.8641 147.75C11.8641 146.658 10.9779 145.772 9.885 145.772C8.79213 145.772 7.90668 146.658 7.90668 147.75C7.90668 148.843 8.79213 149.729 9.885 149.729Z" fill="#4C8BAA"/>
<path d="M28.1062 151.049C29.9277 151.049 31.4042 149.572 31.4042 147.751C31.4042 145.929 29.9277 144.453 28.1062 144.453C26.2848 144.453 24.8082 145.929 24.8082 147.751C24.8082 149.572 26.2848 151.049 28.1062 151.049Z" fill="#4C8BAA"/>
<path d="M46.3269 151.708C48.5126 151.708 50.2843 149.936 50.2843 147.751C50.2843 145.565 48.5126 143.793 46.3269 143.793C44.1412 143.793 42.3694 145.565 42.3694 147.751C42.3694 149.936 44.1412 151.708 46.3269 151.708Z" fill="#4C8BAA"/>
<path d="M64.4678 151.131C66.3348 151.131 67.8488 149.618 67.8488 147.751C67.8488 145.884 66.3348 144.37 64.4678 144.37C62.6009 144.37 61.0877 145.884 61.0877 147.751C61.0877 149.618 62.6009 151.131 64.4678 151.131Z" fill="#4C8BAA"/>
<path d="M82.6892 151.708C84.8749 151.708 86.6467 149.936 86.6467 147.751C86.6467 145.565 84.8749 143.793 82.6892 143.793C80.5035 143.793 78.731 145.565 78.731 147.751C78.731 149.936 80.5035 151.708 82.6892 151.708Z" fill="#4C8BAA"/>
<path d="M100.827 151.708C103.013 151.708 104.784 149.936 104.784 147.751C104.784 145.565 103.013 143.793 100.827 143.793C98.6412 143.793 96.8687 145.565 96.8687 147.751C96.8687 149.936 98.6412 151.708 100.827 151.708Z" fill="#4C8BAA"/>
<path d="M119.048 151.956C121.37 151.956 123.253 150.073 123.253 147.75C123.253 145.428 121.37 143.546 119.048 143.546C116.726 143.546 114.843 145.428 114.843 147.75C114.843 150.073 116.726 151.956 119.048 151.956Z" fill="#4C8BAA"/>
<path d="M137.187 150.636C138.781 150.636 140.073 149.344 140.073 147.751C140.073 146.157 138.781 144.865 137.187 144.865C135.593 144.865 134.301 146.157 134.301 147.751C134.301 149.344 135.593 150.636 137.187 150.636Z" fill="#4C8BAA"/>
<path d="M155.41 151.378C157.413 151.378 159.038 149.754 159.038 147.751C159.038 145.747 157.413 144.123 155.41 144.123C153.406 144.123 151.782 145.747 151.782 147.751C151.782 149.754 153.406 151.378 155.41 151.378Z" fill="#4C8BAA"/>
<path d="M155.408 188.069C157.593 188.069 159.366 186.297 159.366 184.111C159.366 181.925 157.593 180.154 155.408 180.154C153.222 180.154 151.45 181.925 151.45 184.111C151.45 186.297 153.222 188.069 155.408 188.069Z" fill="#4C8BAA"/>
<path d="M137.188 188.069C139.374 188.069 141.145 186.297 141.145 184.111C141.145 181.925 139.374 180.154 137.188 180.154C135.002 180.154 133.23 181.925 133.23 184.111C133.23 186.297 135.002 188.069 137.188 188.069Z" fill="#4C8BAA"/>
<path d="M119.048 188.316C121.37 188.316 123.253 186.434 123.253 184.111C123.253 181.789 121.37 179.906 119.048 179.906C116.726 179.906 114.843 181.789 114.843 184.111C114.843 186.434 116.726 188.316 119.048 188.316Z" fill="#4C8BAA"/>
<path d="M100.829 186.997C102.422 186.997 103.714 185.705 103.714 184.111C103.714 182.518 102.422 181.226 100.829 181.226C99.2349 181.226 97.9429 182.518 97.9429 184.111C97.9429 185.705 99.2349 186.997 100.829 186.997Z" fill="#4C8BAA"/>
<path d="M82.6885 187.739C84.692 187.739 86.3158 186.115 86.3158 184.111C86.3158 182.108 84.692 180.483 82.6885 180.483C80.6849 180.483 79.0603 182.108 79.0603 184.111C79.0603 186.115 80.6849 187.739 82.6885 187.739Z" fill="#4C8BAA"/>
<path d="M64.4671 186.832C65.9698 186.832 67.1878 185.614 67.1878 184.111C67.1878 182.609 65.9698 181.39 64.4671 181.39C62.9644 181.39 61.7464 182.609 61.7464 184.111C61.7464 185.614 62.9644 186.832 64.4671 186.832Z" fill="#4C8BAA"/>
<path d="M46.3261 186.997C47.9198 186.997 49.2118 185.705 49.2118 184.111C49.2118 182.518 47.9198 181.226 46.3261 181.226C44.7323 181.226 43.4403 182.518 43.4403 184.111C43.4403 185.705 44.7323 186.997 46.3261 186.997Z" fill="#4C8BAA"/>
<path d="M28.1058 188.481C30.5192 188.481 32.4755 186.525 32.4755 184.111C32.4755 181.698 30.5192 179.741 28.1058 179.741C25.6924 179.741 23.7361 181.698 23.7361 184.111C23.7361 186.525 25.6924 188.481 28.1058 188.481Z" fill="#4C8BAA"/>
<path d="M9.88324 187.657C11.8413 187.657 13.4292 186.069 13.4292 184.111C13.4292 182.153 11.8413 180.566 9.88324 180.566C7.92519 180.566 6.33804 182.153 6.33804 184.111C6.33804 186.069 7.92519 187.657 9.88324 187.657Z" fill="#4C8BAA"/>
<path d="M119.048 207.032C121.643 207.032 123.747 204.928 123.747 202.332C123.747 199.737 121.643 197.633 119.048 197.633C116.452 197.633 114.348 199.737 114.348 202.332C114.348 204.928 116.452 207.032 119.048 207.032Z" fill="#4C8BAA"/>
<path d="M100.827 206.702C103.24 206.702 105.196 204.746 105.196 202.333C105.196 199.919 103.24 197.963 100.827 197.963C98.4134 197.963 96.4563 199.919 96.4563 202.333C96.4563 204.746 98.4134 206.702 100.827 206.702Z" fill="#4C8BAA"/>
<path d="M82.6881 206.702C85.1015 206.702 87.0578 204.746 87.0578 202.333C87.0578 199.919 85.1015 197.963 82.6881 197.963C80.2747 197.963 78.3176 199.919 78.3176 202.333C78.3176 204.746 80.2747 206.702 82.6881 206.702Z" fill="#4C8BAA"/>
<path d="M64.4656 206.455C66.7424 206.455 68.5881 204.61 68.5881 202.333C68.5881 200.056 66.7424 198.21 64.4656 198.21C62.1888 198.21 60.3431 200.056 60.3431 202.333C60.3431 204.61 62.1888 206.455 64.4656 206.455Z" fill="#4C8BAA"/>
<path d="M46.3276 207.032C48.9231 207.032 51.0274 204.928 51.0274 202.332C51.0274 199.737 48.9231 197.633 46.3276 197.633C43.732 197.633 41.6277 199.737 41.6277 202.332C41.6277 204.928 43.732 207.032 46.3276 207.032Z" fill="#4C8BAA"/>
<path d="M28.1058 206.702C30.5192 206.702 32.4755 204.746 32.4755 202.333C32.4755 199.919 30.5192 197.963 28.1058 197.963C25.6924 197.963 23.7361 199.919 23.7361 202.333C23.7361 204.746 25.6924 206.702 28.1058 206.702Z" fill="#4C8BAA"/>
<path d="M9.88528 206.125C11.9799 206.125 13.6785 204.427 13.6785 202.332C13.6785 200.238 11.9799 198.54 9.88528 198.54C7.79063 198.54 6.0929 200.238 6.0929 202.332C6.0929 204.427 7.79063 206.125 9.88528 206.125Z" fill="#4C8BAA"/>
<path d="M155.408 169.93C157.593 169.93 159.366 168.158 159.366 165.972C159.366 163.786 157.593 162.014 155.408 162.014C153.222 162.014 151.45 163.786 151.45 165.972C151.45 168.158 153.222 169.93 155.408 169.93Z" fill="#4C8BAA"/>
<path d="M137.188 169.93C139.374 169.93 141.145 168.158 141.145 165.972C141.145 163.786 139.374 162.014 137.188 162.014C135.002 162.014 133.23 163.786 133.23 165.972C133.23 168.158 135.002 169.93 137.188 169.93Z" fill="#4C8BAA"/>
<path d="M119.048 170.177C121.37 170.177 123.253 168.294 123.253 165.972C123.253 163.65 121.37 161.767 119.048 161.767C116.726 161.767 114.843 163.65 114.843 165.972C114.843 168.294 116.726 170.177 119.048 170.177Z" fill="#4C8BAA"/>
<path d="M100.829 168.858C102.422 168.858 103.714 167.566 103.714 165.972C103.714 164.378 102.422 163.086 100.829 163.086C99.2349 163.086 97.9429 164.378 97.9429 165.972C97.9429 167.566 99.2349 168.858 100.829 168.858Z" fill="#4C8BAA"/>
<path d="M82.6885 169.6C84.692 169.6 86.3158 167.976 86.3158 165.972C86.3158 163.969 84.692 162.344 82.6885 162.344C80.6849 162.344 79.0603 163.969 79.0603 165.972C79.0603 167.976 80.6849 169.6 82.6885 169.6Z" fill="#4C8BAA"/>
<path d="M64.4671 168.693C65.9698 168.693 67.1878 167.475 67.1878 165.972C67.1878 164.469 65.9698 163.251 64.4671 163.251C62.9644 163.251 61.7464 164.469 61.7464 165.972C61.7464 167.475 62.9644 168.693 64.4671 168.693Z" fill="#4C8BAA"/>
<path d="M46.3261 168.858C47.9198 168.858 49.2118 167.566 49.2118 165.972C49.2118 164.378 47.9198 163.086 46.3261 163.086C44.7323 163.086 43.4403 164.378 43.4403 165.972C43.4403 167.566 44.7323 168.858 46.3261 168.858Z" fill="#4C8BAA"/>
<path d="M28.1058 170.342C30.5192 170.342 32.4755 168.385 32.4755 165.972C32.4755 163.559 30.5192 161.602 28.1058 161.602C25.6924 161.602 23.7361 163.559 23.7361 165.972C23.7361 168.385 25.6924 170.342 28.1058 170.342Z" fill="#4C8BAA"/>
<path d="M9.88324 169.518C11.8413 169.518 13.4292 167.93 13.4292 165.972C13.4292 164.014 11.8413 162.427 9.88324 162.427C7.92519 162.427 6.33804 164.014 6.33804 165.972C6.33804 167.93 7.92519 169.518 9.88324 169.518Z" fill="#4C8BAA"/>
<path d="M119.048 224.759C121.37 224.759 123.253 222.876 123.253 220.554C123.253 218.232 121.37 216.349 119.048 216.349C116.726 216.349 114.843 218.232 114.843 220.554C114.843 222.876 116.726 224.759 119.048 224.759Z" fill="#4C8BAA"/>
<path d="M100.827 225.336C103.468 225.336 105.609 223.195 105.609 220.554C105.609 217.913 103.468 215.772 100.827 215.772C98.1856 215.772 96.0439 217.913 96.0439 220.554C96.0439 223.195 98.1856 225.336 100.827 225.336Z" fill="#4C8BAA"/>
<path d="M82.6881 224.924C85.1015 224.924 87.0578 222.968 87.0578 220.554C87.0578 218.141 85.1015 216.184 82.6881 216.184C80.2747 216.184 78.3176 218.141 78.3176 220.554C78.3176 222.968 80.2747 224.924 82.6881 224.924Z" fill="#4C8BAA"/>
<path d="M64.4676 224.924C66.881 224.924 68.8373 222.968 68.8373 220.554C68.8373 218.141 66.881 216.184 64.4676 216.184C62.0542 216.184 60.0979 218.141 60.0979 220.554C60.0979 222.968 62.0542 224.924 64.4676 224.924Z" fill="#4C8BAA"/>
<path d="M46.3291 224.347C48.4237 224.347 50.1223 222.649 50.1223 220.554C50.1223 218.459 48.4237 216.761 46.3291 216.761C44.2344 216.761 42.5367 218.459 42.5367 220.554C42.5367 222.649 44.2344 224.347 46.3291 224.347Z" fill="#4C8BAA"/>
<path d="M28.1058 224.924C30.5192 224.924 32.4755 222.968 32.4755 220.554C32.4755 218.141 30.5192 216.184 28.1058 216.184C25.6924 216.184 23.7361 218.141 23.7361 220.554C23.7361 222.968 25.6924 224.924 28.1058 224.924Z" fill="#4C8BAA"/>
<path d="M9.88523 225.006C12.3442 225.006 14.3379 223.013 14.3379 220.554C14.3379 218.095 12.3442 216.102 9.88523 216.102C7.42629 216.102 5.43341 218.095 5.43341 220.554C5.43341 223.013 7.42629 225.006 9.88523 225.006Z" fill="#4C8BAA"/>
<path d="M428.236 94.9826C429.193 94.9826 429.968 94.2076 429.968 93.2513C429.968 92.2951 429.193 91.5198 428.236 91.5198C427.28 91.5198 426.505 92.2951 426.505 93.2513C426.505 94.2076 427.28 94.9826 428.236 94.9826Z" fill="#4C8BAA"/>
<path d="M428.237 186.914C429.785 186.914 431.04 185.659 431.04 184.111C431.04 182.563 429.785 181.308 428.237 181.308C426.689 181.308 425.433 182.563 425.433 184.111C425.433 185.659 426.689 186.914 428.237 186.914Z" fill="#4C8BAA"/>
<path d="M428.236 167.786C429.238 167.786 430.05 166.974 430.05 165.972C430.05 164.97 429.238 164.158 428.236 164.158C427.234 164.158 426.422 164.97 426.422 165.972C426.422 166.974 427.234 167.786 428.236 167.786Z" fill="#4C8BAA"/>
<path d="M428.236 240.507C429.238 240.507 430.05 239.695 430.05 238.693C430.05 237.691 429.238 236.879 428.236 236.879C427.234 236.879 426.422 237.691 426.422 238.693C426.422 239.695 427.234 240.507 428.236 240.507Z" fill="#4C8BAA"/>
<path d="M119.048 242.568C121.188 242.568 122.923 240.833 122.923 238.693C122.923 236.553 121.188 234.818 119.048 234.818C116.908 234.818 115.173 236.553 115.173 238.693C115.173 240.833 116.908 242.568 119.048 242.568Z" fill="#4C8BAA"/>
<path d="M100.827 242.651C103.013 242.651 104.784 240.879 104.784 238.693C104.784 236.507 103.013 234.735 100.827 234.735C98.6412 234.735 96.8687 236.507 96.8687 238.693C96.8687 240.879 98.6412 242.651 100.827 242.651Z" fill="#4C8BAA"/>
<path d="M82.6885 242.321C84.692 242.321 86.3158 240.697 86.3158 238.693C86.3158 236.69 84.692 235.065 82.6885 235.065C80.6849 235.065 79.0603 236.69 79.0603 238.693C79.0603 240.697 80.6849 242.321 82.6885 242.321Z" fill="#4C8BAA"/>
<path d="M64.4662 243.393C67.0618 243.393 69.166 241.289 69.166 238.693C69.166 236.097 67.0618 233.993 64.4662 233.993C61.8707 233.993 59.7664 236.097 59.7664 238.693C59.7664 241.289 61.8707 243.393 64.4662 243.393Z" fill="#4C8BAA"/>
<path d="M46.3276 243.393C48.9231 243.393 51.0274 241.289 51.0274 238.693C51.0274 236.097 48.9231 233.993 46.3276 233.993C43.732 233.993 41.6277 236.097 41.6277 238.693C41.6277 241.289 43.732 243.393 46.3276 243.393Z" fill="#4C8BAA"/>
<path d="M28.1058 243.063C30.5192 243.063 32.4755 241.107 32.4755 238.693C32.4755 236.28 30.5192 234.323 28.1058 234.323C25.6924 234.323 23.7361 236.28 23.7361 238.693C23.7361 241.107 25.6924 243.063 28.1058 243.063Z" fill="#4C8BAA"/>
<path d="M9.8841 242.816C12.1609 242.816 14.0066 240.97 14.0066 238.693C14.0066 236.416 12.1609 234.571 9.8841 234.571C7.60731 234.571 5.7616 236.416 5.7616 238.693C5.7616 240.97 7.60731 242.816 9.8841 242.816Z" fill="#4C8BAA"/>
<path d="M191.77 207.032C194.365 207.032 196.47 204.928 196.47 202.332C196.47 199.737 194.365 197.633 191.77 197.633C189.174 197.633 187.07 199.737 187.07 202.332C187.07 204.928 189.174 207.032 191.77 207.032Z" fill="#4C8BAA"/>
<path d="M173.63 206.702C176.044 206.702 178 204.746 178 202.333C178 199.919 176.044 197.963 173.63 197.963C171.217 197.963 169.261 199.919 169.261 202.333C169.261 204.746 171.217 206.702 173.63 206.702Z" fill="#4C8BAA"/>
<path d="M155.407 206.702C157.821 206.702 159.778 204.746 159.778 202.333C159.778 199.919 157.821 197.963 155.407 197.963C152.994 197.963 151.038 199.919 151.038 202.333C151.038 204.746 152.994 206.702 155.407 206.702Z" fill="#4C8BAA"/>
<path d="M137.187 206.455C139.463 206.455 141.309 204.61 141.309 202.333C141.309 200.056 139.463 198.21 137.187 198.21C134.91 198.21 133.064 200.056 133.064 202.333C133.064 204.61 134.91 206.455 137.187 206.455Z" fill="#4C8BAA"/>
<path d="M191.77 224.759C194.092 224.759 195.975 222.876 195.975 220.554C195.975 218.232 194.092 216.349 191.77 216.349C189.448 216.349 187.565 218.232 187.565 220.554C187.565 222.876 189.448 224.759 191.77 224.759Z" fill="#4C8BAA"/>
<path d="M173.629 225.006C176.088 225.006 178.081 223.013 178.081 220.554C178.081 218.095 176.088 216.102 173.629 216.102C171.17 216.102 169.176 218.095 169.176 220.554C169.176 223.013 171.17 225.006 173.629 225.006Z" fill="#4C8BAA"/>
<path d="M155.407 224.924C157.821 224.924 159.778 222.968 159.778 220.554C159.778 218.141 157.821 216.184 155.407 216.184C152.994 216.184 151.038 218.141 151.038 220.554C151.038 222.968 152.994 224.924 155.407 224.924Z" fill="#4C8BAA"/>
<path d="M137.188 224.924C139.601 224.924 141.557 222.968 141.557 220.554C141.557 218.141 139.601 216.184 137.188 216.184C134.774 216.184 132.818 218.141 132.818 220.554C132.818 222.968 134.774 224.924 137.188 224.924Z" fill="#4C8BAA"/>
<path d="M191.77 242.898C194.092 242.898 195.975 241.015 195.975 238.693C195.975 236.371 194.092 234.488 191.77 234.488C189.448 234.488 187.565 236.371 187.565 238.693C187.565 241.015 189.448 242.898 191.77 242.898Z" fill="#4C8BAA"/>
<path d="M173.63 242.651C175.816 242.651 177.588 240.879 177.588 238.693C177.588 236.507 175.816 234.735 173.63 234.735C171.445 234.735 169.673 236.507 169.673 238.693C169.673 240.879 171.445 242.651 173.63 242.651Z" fill="#4C8BAA"/>
<path d="M155.41 242.321C157.413 242.321 159.038 240.697 159.038 238.693C159.038 236.69 157.413 235.065 155.41 235.065C153.406 235.065 151.782 236.69 151.782 238.693C151.782 240.697 153.406 242.321 155.41 242.321Z" fill="#4C8BAA"/>
<path d="M137.188 243.393C139.783 243.393 141.887 241.289 141.887 238.693C141.887 236.097 139.783 233.993 137.188 233.993C134.592 233.993 132.488 236.097 132.488 238.693C132.488 241.289 134.592 243.393 137.188 243.393Z" fill="#4C8BAA"/>
<path d="M209.992 207.032C212.587 207.032 214.691 204.928 214.691 202.332C214.691 199.737 212.587 197.633 209.992 197.633C207.396 197.633 205.292 199.737 205.292 202.332C205.292 204.928 207.396 207.032 209.992 207.032Z" fill="#4C8BAA"/>
<path d="M228.131 206.702C230.544 206.702 232.5 204.746 232.5 202.333C232.5 199.919 230.544 197.963 228.131 197.963C225.717 197.963 223.761 199.919 223.761 202.333C223.761 204.746 225.717 206.702 228.131 206.702Z" fill="#4C8BAA"/>
<path d="M246.352 206.702C248.766 206.702 250.722 204.746 250.722 202.333C250.722 199.919 248.766 197.963 246.352 197.963C243.939 197.963 241.982 199.919 241.982 202.333C241.982 204.746 243.939 206.702 246.352 206.702Z" fill="#4C8BAA"/>
<path d="M264.572 206.455C266.849 206.455 268.695 204.61 268.695 202.333C268.695 200.056 266.849 198.21 264.572 198.21C262.295 198.21 260.45 200.056 260.45 202.333C260.45 204.61 262.295 206.455 264.572 206.455Z" fill="#4C8BAA"/>
<path d="M282.711 207.032C285.306 207.032 287.411 204.928 287.411 202.332C287.411 199.737 285.306 197.633 282.711 197.633C280.115 197.633 278.011 199.737 278.011 202.332C278.011 204.928 280.115 207.032 282.711 207.032Z" fill="#4C8BAA"/>
<path d="M300.933 206.702C303.346 206.702 305.303 204.746 305.303 202.333C305.303 199.919 303.346 197.963 300.933 197.963C298.519 197.963 296.563 199.919 296.563 202.333C296.563 204.746 298.519 206.702 300.933 206.702Z" fill="#4C8BAA"/>
<path d="M319.072 206.125C321.167 206.125 322.865 204.427 322.865 202.332C322.865 200.238 321.167 198.54 319.072 198.54C316.977 198.54 315.279 200.238 315.279 202.332C315.279 204.427 316.977 206.125 319.072 206.125Z" fill="#4C8BAA"/>
<path d="M337.295 206.455C339.571 206.455 341.417 204.61 341.417 202.333C341.417 200.056 339.571 198.21 337.295 198.21C335.018 198.21 333.172 200.056 333.172 202.333C333.172 204.61 335.018 206.455 337.295 206.455Z" fill="#4C8BAA"/>
<path d="M355.434 206.702C357.848 206.702 359.804 204.746 359.804 202.333C359.804 199.919 357.848 197.963 355.434 197.963C353.021 197.963 351.065 199.919 351.065 202.333C351.065 204.746 353.021 206.702 355.434 206.702Z" fill="#4C8BAA"/>
<path d="M373.655 205.713C375.522 205.713 377.036 204.199 377.036 202.332C377.036 200.466 375.522 198.952 373.655 198.952C371.788 198.952 370.275 200.466 370.275 202.332C370.275 204.199 371.788 205.713 373.655 205.713Z" fill="#4C8BAA"/>
<path d="M391.875 206.125C393.97 206.125 395.667 204.427 395.667 202.332C395.667 200.238 393.97 198.54 391.875 198.54C389.78 198.54 388.082 200.238 388.082 202.332C388.082 204.427 389.78 206.125 391.875 206.125Z" fill="#4C8BAA"/>
<path d="M410.016 204.147C411.018 204.147 411.83 203.334 411.83 202.333C411.83 201.331 411.018 200.519 410.016 200.519C409.015 200.519 408.202 201.331 408.202 202.333C408.202 203.334 409.015 204.147 410.016 204.147Z" fill="#4C8BAA"/>
<path d="M209.992 224.759C212.314 224.759 214.197 222.876 214.197 220.554C214.197 218.232 212.314 216.349 209.992 216.349C207.67 216.349 205.787 218.232 205.787 220.554C205.787 222.876 207.67 224.759 209.992 224.759Z" fill="#4C8BAA"/>
<path d="M228.131 225.172C230.681 225.172 232.748 223.104 232.748 220.554C232.748 218.004 230.681 215.937 228.131 215.937C225.581 215.937 223.514 218.004 223.514 220.554C223.514 223.104 225.581 225.172 228.131 225.172Z" fill="#4C8BAA"/>
<path d="M246.352 224.924C248.766 224.924 250.722 222.968 250.722 220.554C250.722 218.141 248.766 216.184 246.352 216.184C243.939 216.184 241.982 218.141 241.982 220.554C241.982 222.968 243.939 224.924 246.352 224.924Z" fill="#4C8BAA"/>
<path d="M264.574 224.924C266.988 224.924 268.944 222.968 268.944 220.554C268.944 218.141 266.988 216.184 264.574 216.184C262.161 216.184 260.205 218.141 260.205 220.554C260.205 222.968 262.161 224.924 264.574 224.924Z" fill="#4C8BAA"/>
<path d="M282.712 224.347C284.807 224.347 286.505 222.649 286.505 220.554C286.505 218.459 284.807 216.761 282.712 216.761C280.618 216.761 278.92 218.459 278.92 220.554C278.92 222.649 280.618 224.347 282.712 224.347Z" fill="#4C8BAA"/>
<path d="M300.933 224.924C303.346 224.924 305.303 222.968 305.303 220.554C305.303 218.141 303.346 216.184 300.933 216.184C298.519 216.184 296.563 218.141 296.563 220.554C296.563 222.968 298.519 224.924 300.933 224.924Z" fill="#4C8BAA"/>
<path d="M319.072 224.512C321.258 224.512 323.03 222.74 323.03 220.554C323.03 218.369 321.258 216.597 319.072 216.597C316.886 216.597 315.114 218.369 315.114 220.554C315.114 222.74 316.886 224.512 319.072 224.512Z" fill="#4C8BAA"/>
<path d="M337.295 224.677C339.571 224.677 341.417 222.831 341.417 220.554C341.417 218.277 339.571 216.432 337.295 216.432C335.018 216.432 333.172 218.277 333.172 220.554C333.172 222.831 335.018 224.677 337.295 224.677Z" fill="#4C8BAA"/>
<path d="M355.433 224.347C357.528 224.347 359.226 222.649 359.226 220.554C359.226 218.459 357.528 216.761 355.433 216.761C353.339 216.761 351.64 218.459 351.64 220.554C351.64 222.649 353.339 224.347 355.433 224.347Z" fill="#4C8BAA"/>
<path d="M373.655 223.935C375.522 223.935 377.036 222.421 377.036 220.554C377.036 218.687 375.522 217.174 373.655 217.174C371.788 217.174 370.275 218.687 370.275 220.554C370.275 222.421 371.788 223.935 373.655 223.935Z" fill="#4C8BAA"/>
<path d="M391.875 224.347C393.97 224.347 395.667 222.649 395.667 220.554C395.667 218.459 393.97 216.761 391.875 216.761C389.78 216.761 388.082 218.459 388.082 220.554C388.082 222.649 389.78 224.347 391.875 224.347Z" fill="#4C8BAA"/>
<path d="M410.016 222.368C411.018 222.368 411.83 221.556 411.83 220.554C411.83 219.552 411.018 218.74 410.016 218.74C409.015 218.74 408.202 219.552 408.202 220.554C408.202 221.556 409.015 222.368 410.016 222.368Z" fill="#4C8BAA"/>
<path d="M209.992 242.898C212.314 242.898 214.197 241.015 214.197 238.693C214.197 236.371 212.314 234.488 209.992 234.488C207.67 234.488 205.787 236.371 205.787 238.693C205.787 241.015 207.67 242.898 209.992 242.898Z" fill="#4C8BAA"/>
<path d="M228.131 242.651C230.317 242.651 232.088 240.879 232.088 238.693C232.088 236.507 230.317 234.735 228.131 234.735C225.945 234.735 224.173 236.507 224.173 238.693C224.173 240.879 225.945 242.651 228.131 242.651Z" fill="#4C8BAA"/>
<path d="M246.353 242.321C248.356 242.321 249.98 240.697 249.98 238.693C249.98 236.69 248.356 235.065 246.353 235.065C244.349 235.065 242.724 236.69 242.724 238.693C242.724 240.697 244.349 242.321 246.353 242.321Z" fill="#4C8BAA"/>
<path d="M264.573 243.393C267.169 243.393 269.273 241.289 269.273 238.693C269.273 236.097 267.169 233.993 264.573 233.993C261.978 233.993 259.873 236.097 259.873 238.693C259.873 241.289 261.978 243.393 264.573 243.393Z" fill="#4C8BAA"/>
<path d="M282.711 243.393C285.306 243.393 287.411 241.289 287.411 238.693C287.411 236.097 285.306 233.993 282.711 233.993C280.115 233.993 278.011 236.097 278.011 238.693C278.011 241.289 280.115 243.393 282.711 243.393Z" fill="#4C8BAA"/>
<path d="M300.933 243.063C303.346 243.063 305.303 241.107 305.303 238.693C305.303 236.28 303.346 234.323 300.933 234.323C298.519 234.323 296.563 236.28 296.563 238.693C296.563 241.107 298.519 243.063 300.933 243.063Z" fill="#4C8BAA"/>
<path d="M319.072 242.486C321.167 242.486 322.865 240.788 322.865 238.693C322.865 236.599 321.167 234.9 319.072 234.9C316.977 234.9 315.279 236.599 315.279 238.693C315.279 240.788 316.977 242.486 319.072 242.486Z" fill="#4C8BAA"/>
<path d="M337.295 242.816C339.571 242.816 341.417 240.97 341.417 238.693C341.417 236.416 339.571 234.571 337.295 234.571C335.018 234.571 333.172 236.416 333.172 238.693C333.172 240.97 335.018 242.816 337.295 242.816Z" fill="#4C8BAA"/>
<path d="M355.434 242.651C357.62 242.651 359.392 240.879 359.392 238.693C359.392 236.507 357.62 234.735 355.434 234.735C353.249 234.735 351.477 236.507 351.477 238.693C351.477 240.879 353.249 242.651 355.434 242.651Z" fill="#4C8BAA"/>
<path d="M373.653 242.238C375.611 242.238 377.198 240.651 377.198 238.693C377.198 236.735 375.611 235.148 373.653 235.148C371.695 235.148 370.108 236.735 370.108 238.693C370.108 240.651 371.695 242.238 373.653 242.238Z" fill="#4C8BAA"/>
<path d="M391.875 242.486C393.97 242.486 395.667 240.788 395.667 238.693C395.667 236.599 393.97 234.9 391.875 234.9C389.78 234.9 388.082 236.599 388.082 238.693C388.082 240.788 389.78 242.486 391.875 242.486Z" fill="#4C8BAA"/>
<path d="M410.016 240.507C411.018 240.507 411.83 239.695 411.83 238.693C411.83 237.691 411.018 236.879 410.016 236.879C409.015 236.879 408.202 237.691 408.202 238.693C408.202 239.695 409.015 240.507 410.016 240.507Z" fill="#4C8BAA"/>
<path d="M391.877 3.95767C392.787 3.95767 393.526 3.21939 393.526 2.30867C393.526 1.39795 392.787 0.659668 391.877 0.659668C390.966 0.659668 390.228 1.39795 390.228 2.30867C390.228 3.21939 390.966 3.95767 391.877 3.95767Z" fill="#4C8BAA"/>
<path d="M355.433 4.61729C356.708 4.61729 357.741 3.58365 357.741 2.30864C357.741 1.03364 356.708 0 355.433 0C354.158 0 353.124 1.03364 353.124 2.30864C353.124 3.58365 354.158 4.61729 355.433 4.61729Z" fill="#4C8BAA"/>
<path d="M282.712 4.45216C283.896 4.45216 284.855 3.49251 284.855 2.30858C284.855 1.12464 283.896 0.164795 282.712 0.164795C281.528 0.164795 280.568 1.12464 280.568 2.30858C280.568 3.49251 281.528 4.45216 282.712 4.45216Z" fill="#4C8BAA"/>
<path d="M228.129 4.12235C229.131 4.12235 229.943 3.31028 229.943 2.30849C229.943 1.3067 229.131 0.494629 228.129 0.494629C227.128 0.494629 226.315 1.3067 226.315 2.30849C226.315 3.31028 227.128 4.12235 228.129 4.12235Z" fill="#4C8BAA"/>
<path d="M209.989 4.36982C211.128 4.36982 212.051 3.44697 212.051 2.30857C212.051 1.17017 211.128 0.247314 209.989 0.247314C208.851 0.247314 207.928 1.17017 207.928 2.30857C207.928 3.44697 208.851 4.36982 209.989 4.36982Z" fill="#4C8BAA"/>
<path d="M191.77 4.36982C192.908 4.36982 193.831 3.44697 193.831 2.30857C193.831 1.17017 192.908 0.247314 191.77 0.247314C190.631 0.247314 189.708 1.17017 189.708 2.30857C189.708 3.44697 190.631 4.36982 191.77 4.36982Z" fill="#4C8BAA"/>
<path d="M173.631 4.12235C174.633 4.12235 175.445 3.31028 175.445 2.30849C175.445 1.3067 174.633 0.494629 173.631 0.494629C172.629 0.494629 171.817 1.3067 171.817 2.30849C171.817 3.31028 172.629 4.12235 173.631 4.12235Z" fill="#4C8BAA"/>
<path d="M428.238 22.3441C429.286 22.3441 430.134 21.495 430.134 20.4477C430.134 19.4003 429.286 18.5513 428.238 18.5513C427.191 18.5513 426.342 19.4003 426.342 20.4477C426.342 21.495 427.191 22.3441 428.238 22.3441Z" fill="#4C8BAA"/>
<path d="M410.015 22.5913C411.199 22.5913 412.159 21.6317 412.159 20.4477C412.159 19.2638 411.199 18.304 410.015 18.304C408.831 18.304 407.871 19.2638 407.871 20.4477C407.871 21.6317 408.831 22.5913 410.015 22.5913Z" fill="#4C8BAA"/>
<path d="M391.874 22.5913C393.058 22.5913 394.018 21.6317 394.018 20.4477C394.018 19.2638 393.058 18.304 391.874 18.304C390.69 18.304 389.73 19.2638 389.73 20.4477C389.73 21.6317 390.69 22.5913 391.874 22.5913Z" fill="#4C8BAA"/>
<path d="M373.655 22.5913C374.839 22.5913 375.799 21.6317 375.799 20.4477C375.799 19.2638 374.839 18.304 373.655 18.304C372.471 18.304 371.511 19.2638 371.511 20.4477C371.511 21.6317 372.471 22.5913 373.655 22.5913Z" fill="#4C8BAA"/>
<path d="M355.433 22.3441C356.48 22.3441 357.329 21.495 357.329 20.4477C357.329 19.4003 356.48 18.5513 355.433 18.5513C354.386 18.5513 353.537 19.4003 353.537 20.4477C353.537 21.495 354.386 22.3441 355.433 22.3441Z" fill="#4C8BAA"/>
<path d="M337.293 22.1789C338.249 22.1789 339.024 21.4039 339.024 20.4476C339.024 19.4913 338.249 18.7161 337.293 18.7161C336.337 18.7161 335.561 19.4913 335.561 20.4476C335.561 21.4039 336.337 22.1789 337.293 22.1789Z" fill="#4C8BAA"/>
<path d="M300.933 23.1686C302.436 23.1686 303.655 21.9504 303.655 20.4477C303.655 18.945 302.436 17.7268 300.933 17.7268C299.431 17.7268 298.213 18.945 298.213 20.4477C298.213 21.9504 299.431 23.1686 300.933 23.1686Z" fill="#4C8BAA"/>
<path d="M282.713 22.0966C283.624 22.0966 284.362 21.3583 284.362 20.4476C284.362 19.5369 283.624 18.7986 282.713 18.7986C281.802 18.7986 281.064 19.5369 281.064 20.4476C281.064 21.3583 281.802 22.0966 282.713 22.0966Z" fill="#4C8BAA"/>
<path d="M264.573 23.0035C265.984 23.0035 267.128 21.8593 267.128 20.4476C267.128 19.036 265.984 17.8916 264.573 17.8916C263.161 17.8916 262.017 19.036 262.017 20.4476C262.017 21.8593 263.161 23.0035 264.573 23.0035Z" fill="#4C8BAA"/>
<path d="M246.352 22.5087C247.491 22.5087 248.413 21.5859 248.413 20.4475C248.413 19.3091 247.491 18.3862 246.352 18.3862C245.214 18.3862 244.291 19.3091 244.291 20.4475C244.291 21.5859 245.214 22.5087 246.352 22.5087Z" fill="#4C8BAA"/>
<path d="M228.131 21.9319C228.95 21.9319 229.615 21.2674 229.615 20.4478C229.615 19.6281 228.95 18.9636 228.131 18.9636C227.311 18.9636 226.647 19.6281 226.647 20.4478C226.647 21.2674 227.311 21.9319 228.131 21.9319Z" fill="#4C8BAA"/>
<path d="M209.991 23.0861C211.449 23.0861 212.63 21.9048 212.63 20.4477C212.63 18.9905 211.449 17.8093 209.991 17.8093C208.534 17.8093 207.353 18.9905 207.353 20.4477C207.353 21.9048 208.534 23.0861 209.991 23.0861Z" fill="#4C8BAA"/>
<path d="M191.77 22.5087C192.908 22.5087 193.831 21.5859 193.831 20.4475C193.831 19.3091 192.908 18.3862 191.77 18.3862C190.631 18.3862 189.708 19.3091 189.708 20.4475C189.708 21.5859 190.631 22.5087 191.77 22.5087Z" fill="#4C8BAA"/>
<path d="M173.631 22.2615C174.633 22.2615 175.445 21.4494 175.445 20.4477C175.445 19.4459 174.633 18.6338 173.631 18.6338C172.629 18.6338 171.817 19.4459 171.817 20.4477C171.817 21.4494 172.629 22.2615 173.631 22.2615Z" fill="#4C8BAA"/>
<path d="M410.015 40.4006C410.972 40.4006 411.746 39.6253 411.746 38.6691C411.746 37.7128 410.972 36.9377 410.015 36.9377C409.059 36.9377 408.283 37.7128 408.283 38.6691C408.283 39.6253 409.059 40.4006 410.015 40.4006Z" fill="#4C8BAA"/>
<path d="M391.877 40.318C392.787 40.318 393.526 39.5797 393.526 38.669C393.526 37.7583 392.787 37.02 391.877 37.02C390.966 37.02 390.228 37.7583 390.228 38.669C390.228 39.5797 390.966 40.318 391.877 40.318Z" fill="#4C8BAA"/>
<path d="M373.655 40.6481C374.748 40.6481 375.634 39.762 375.634 38.6692C375.634 37.5763 374.748 36.6904 373.655 36.6904C372.562 36.6904 371.677 37.5763 371.677 38.6692C371.677 39.762 372.562 40.6481 373.655 40.6481Z" fill="#4C8BAA"/>
<path d="M355.433 40.9774C356.708 40.9774 357.741 39.9438 357.741 38.6688C357.741 37.3938 356.708 36.3604 355.433 36.3604C354.158 36.3604 353.124 37.3938 353.124 38.6688C353.124 39.9438 354.158 40.9774 355.433 40.9774Z" fill="#4C8BAA"/>
<path d="M337.294 40.9774C338.569 40.9774 339.603 39.9438 339.603 38.6688C339.603 37.3938 338.569 36.3604 337.294 36.3604C336.019 36.3604 334.986 37.3938 334.986 38.6688C334.986 39.9438 336.019 40.9774 337.294 40.9774Z" fill="#4C8BAA"/>
<path d="M319.074 40.6481C320.166 40.6481 321.053 39.762 321.053 38.6692C321.053 37.5763 320.166 36.6904 319.074 36.6904C317.981 36.6904 317.095 37.5763 317.095 38.6692C317.095 39.762 317.981 40.6481 319.074 40.6481Z" fill="#4C8BAA"/>
<path d="M300.934 40.6481C302.027 40.6481 302.913 39.762 302.913 38.6692C302.913 37.5763 302.027 36.6904 300.934 36.6904C299.841 36.6904 298.955 37.5763 298.955 38.6692C298.955 39.762 299.841 40.6481 300.934 40.6481Z" fill="#4C8BAA"/>
<path d="M282.711 40.4829C283.713 40.4829 284.525 39.6706 284.525 38.6688C284.525 37.6671 283.713 36.855 282.711 36.855C281.709 36.855 280.897 37.6671 280.897 38.6688C280.897 39.6706 281.709 40.4829 282.711 40.4829Z" fill="#4C8BAA"/>
<path d="M264.573 41.2251C265.984 41.2251 267.128 40.0807 267.128 38.6691C267.128 37.2575 265.984 36.1133 264.573 36.1133C263.161 36.1133 262.017 37.2575 262.017 38.6691C262.017 40.0807 263.161 41.2251 264.573 41.2251Z" fill="#4C8BAA"/>
<path d="M246.352 40.4829C247.354 40.4829 248.166 39.6706 248.166 38.6688C248.166 37.6671 247.354 36.855 246.352 36.855C245.35 36.855 244.538 37.6671 244.538 38.6688C244.538 39.6706 245.35 40.4829 246.352 40.4829Z" fill="#4C8BAA"/>
<path d="M228.129 40.4829C229.131 40.4829 229.943 39.6706 229.943 38.6688C229.943 37.6671 229.131 36.855 228.129 36.855C227.128 36.855 226.315 37.6671 226.315 38.6688C226.315 39.6706 227.128 40.4829 228.129 40.4829Z" fill="#4C8BAA"/>
<path d="M209.99 40.1531C210.809 40.1531 211.474 39.4886 211.474 38.669C211.474 37.8494 210.809 37.1851 209.99 37.1851C209.17 37.1851 208.506 37.8494 208.506 38.669C208.506 39.4886 209.17 40.1531 209.99 40.1531Z" fill="#4C8BAA"/>
<path d="M191.77 40.8953C192.999 40.8953 193.996 39.8985 193.996 38.669C193.996 37.4395 192.999 36.4429 191.77 36.4429C190.54 36.4429 189.543 37.4395 189.543 38.669C189.543 39.8985 190.54 40.8953 191.77 40.8953Z" fill="#4C8BAA"/>
<path d="M173.631 40.4829C174.633 40.4829 175.445 39.6706 175.445 38.6688C175.445 37.6671 174.633 36.855 173.631 36.855C172.629 36.855 171.817 37.6671 171.817 38.6688C171.817 39.6706 172.629 40.4829 173.631 40.4829Z" fill="#4C8BAA"/>
<path d="M410.015 58.9519C411.199 58.9519 412.159 57.9921 412.159 56.8081C412.159 55.6242 411.199 54.6646 410.015 54.6646C408.831 54.6646 407.871 55.6242 407.871 56.8081C407.871 57.9921 408.831 58.9519 410.015 58.9519Z" fill="#4C8BAA"/>
<path d="M391.877 59.4466C393.335 59.4466 394.515 58.2652 394.515 56.808C394.515 55.3509 393.335 54.1697 391.877 54.1697C390.42 54.1697 389.239 55.3509 389.239 56.808C389.239 58.2652 390.42 59.4466 391.877 59.4466Z" fill="#4C8BAA"/>
<path d="M373.655 58.787C374.748 58.787 375.634 57.9009 375.634 56.8081C375.634 55.7152 374.748 54.8293 373.655 54.8293C372.562 54.8293 371.677 55.7152 371.677 56.8081C371.677 57.9009 372.562 58.787 373.655 58.787Z" fill="#4C8BAA"/>
<path d="M355.433 58.6221C356.435 58.6221 357.247 57.8098 357.247 56.808C357.247 55.8062 356.435 54.9941 355.433 54.9941C354.431 54.9941 353.619 55.8062 353.619 56.808C353.619 57.8098 354.431 58.6221 355.433 58.6221Z" fill="#4C8BAA"/>
<path d="M337.293 58.787C338.386 58.787 339.271 57.9009 339.271 56.8081C339.271 55.7152 338.386 54.8293 337.293 54.8293C336.2 54.8293 335.314 55.7152 335.314 56.8081C335.314 57.9009 336.2 58.787 337.293 58.787Z" fill="#4C8BAA"/>
<path d="M319.074 58.787C320.166 58.787 321.053 57.9009 321.053 56.8081C321.053 55.7152 320.166 54.8293 319.074 54.8293C317.981 54.8293 317.095 55.7152 317.095 56.8081C317.095 57.9009 317.981 58.787 319.074 58.787Z" fill="#4C8BAA"/>
<path d="M300.934 58.6221C301.936 58.6221 302.748 57.8098 302.748 56.808C302.748 55.8062 301.936 54.9941 300.934 54.9941C299.932 54.9941 299.121 55.8062 299.121 56.808C299.121 57.8098 299.932 58.6221 300.934 58.6221Z" fill="#4C8BAA"/>
<path d="M282.71 59.4466C284.168 59.4466 285.349 58.2652 285.349 56.808C285.349 55.3509 284.168 54.1697 282.71 54.1697C281.253 54.1697 280.072 55.3509 280.072 56.808C280.072 58.2652 281.253 59.4466 282.71 59.4466Z" fill="#4C8BAA"/>
<path d="M264.573 58.3748C265.438 58.3748 266.14 57.6734 266.14 56.8082C266.14 55.943 265.438 55.2417 264.573 55.2417C263.708 55.2417 263.006 55.943 263.006 56.8082C263.006 57.6734 263.708 58.3748 264.573 58.3748Z" fill="#4C8BAA"/>
<path d="M246.352 58.8691C247.491 58.8691 248.413 57.9462 248.413 56.8078C248.413 55.6694 247.491 54.7466 246.352 54.7466C245.214 54.7466 244.291 55.6694 244.291 56.8078C244.291 57.9462 245.214 58.8691 246.352 58.8691Z" fill="#4C8BAA"/>
<path d="M228.128 58.8691C229.267 58.8691 230.19 57.9462 230.19 56.8078C230.19 55.6694 229.267 54.7466 228.128 54.7466C226.99 54.7466 226.067 55.6694 226.067 56.8078C226.067 57.9462 226.99 58.8691 228.128 58.8691Z" fill="#4C8BAA"/>
<path d="M209.992 59.0345C211.221 59.0345 212.218 58.0376 212.218 56.8081C212.218 55.5787 211.221 54.582 209.992 54.582C208.762 54.582 207.765 55.5787 207.765 56.8081C207.765 58.0376 208.762 59.0345 209.992 59.0345Z" fill="#4C8BAA"/>
<path d="M191.77 59.0345C192.999 59.0345 193.996 58.0376 193.996 56.8081C193.996 55.5787 192.999 54.582 191.77 54.582C190.54 54.582 189.543 55.5787 189.543 56.8081C189.543 58.0376 190.54 59.0345 191.77 59.0345Z" fill="#4C8BAA"/>
<path d="M173.631 59.0345C174.86 59.0345 175.857 58.0376 175.857 56.8081C175.857 55.5787 174.86 54.582 173.631 54.582C172.401 54.582 171.404 55.5787 171.404 56.8081C171.404 58.0376 172.401 59.0345 173.631 59.0345Z" fill="#4C8BAA"/>
<path d="M410.015 77.1733C411.199 77.1733 412.159 76.2135 412.159 75.0295C412.159 73.8456 411.199 72.8857 410.015 72.8857C408.831 72.8857 407.871 73.8456 407.871 75.0295C407.871 76.2135 408.831 77.1733 410.015 77.1733Z" fill="#4C8BAA"/>
<path d="M391.877 77.6678C393.335 77.6678 394.515 76.4866 394.515 75.0295C394.515 73.5723 393.335 72.3911 391.877 72.3911C390.42 72.3911 389.239 73.5723 389.239 75.0295C389.239 76.4866 390.42 77.6678 391.877 77.6678Z" fill="#4C8BAA"/>
<path d="M373.654 78.0802C375.339 78.0802 376.705 76.7144 376.705 75.0296C376.705 73.3448 375.339 71.979 373.654 71.979C371.97 71.979 370.604 73.3448 370.604 75.0296C370.604 76.7144 371.97 78.0802 373.654 78.0802Z" fill="#4C8BAA"/>
<path d="M355.434 77.6678C356.891 77.6678 358.072 76.4866 358.072 75.0295C358.072 73.5723 356.891 72.3911 355.434 72.3911C353.977 72.3911 352.795 73.5723 352.795 75.0295C352.795 76.4866 353.977 77.6678 355.434 77.6678Z" fill="#4C8BAA"/>
<path d="M337.295 78.4924C339.207 78.4924 340.758 76.942 340.758 75.0295C340.758 73.117 339.207 71.5667 337.295 71.5667C335.382 71.5667 333.832 73.117 333.832 75.0295C333.832 76.942 335.382 78.4924 337.295 78.4924Z" fill="#4C8BAA"/>
<path d="M319.072 78.0802C320.757 78.0802 322.123 76.7144 322.123 75.0296C322.123 73.3448 320.757 71.979 319.072 71.979C317.387 71.979 316.022 73.3448 316.022 75.0296C316.022 76.7144 317.387 78.0802 319.072 78.0802Z" fill="#4C8BAA"/>
<path d="M300.933 78.0802C302.618 78.0802 303.984 76.7144 303.984 75.0296C303.984 73.3448 302.618 71.979 300.933 71.979C299.248 71.979 297.883 73.3448 297.883 75.0296C297.883 76.7144 299.248 78.0802 300.933 78.0802Z" fill="#4C8BAA"/>
<path d="M282.71 77.6678C284.168 77.6678 285.349 76.4866 285.349 75.0295C285.349 73.5723 284.168 72.3911 282.71 72.3911C281.253 72.3911 280.072 73.5723 280.072 75.0295C280.072 76.4866 281.253 77.6678 282.71 77.6678Z" fill="#4C8BAA"/>
<path d="M264.574 77.9979C266.213 77.9979 267.542 76.6689 267.542 75.0296C267.542 73.3903 266.213 72.0613 264.574 72.0613C262.935 72.0613 261.606 73.3903 261.606 75.0296C261.606 76.6689 262.935 77.9979 264.574 77.9979Z" fill="#4C8BAA"/>
<path d="M246.352 77.833C247.9 77.833 249.155 76.578 249.155 75.0298C249.155 73.4816 247.9 72.2266 246.352 72.2266C244.804 72.2266 243.548 73.4816 243.548 75.0298C243.548 76.578 244.804 77.833 246.352 77.833Z" fill="#4C8BAA"/>
<path d="M228.128 77.091C229.267 77.091 230.19 76.1682 230.19 75.0298C230.19 73.8914 229.267 72.9685 228.128 72.9685C226.99 72.9685 226.067 73.8914 226.067 75.0298C226.067 76.1682 226.99 77.091 228.128 77.091Z" fill="#4C8BAA"/>
<path d="M209.991 77.6678C211.449 77.6678 212.63 76.4866 212.63 75.0295C212.63 73.5723 211.449 72.3911 209.991 72.3911C208.534 72.3911 207.353 73.5723 207.353 75.0295C207.353 76.4866 208.534 77.6678 209.991 77.6678Z" fill="#4C8BAA"/>
<path d="M191.77 78.4102C193.637 78.4102 195.15 76.8967 195.15 75.0297C195.15 73.1627 193.637 71.6492 191.77 71.6492C189.903 71.6492 188.389 73.1627 188.389 75.0297C188.389 76.8967 189.903 78.4102 191.77 78.4102Z" fill="#4C8BAA"/>
<path d="M173.63 77.4206C174.95 77.4206 176.02 76.3502 176.02 75.0296C176.02 73.7091 174.95 72.6387 173.63 72.6387C172.309 72.6387 171.238 73.7091 171.238 75.0296C171.238 76.3502 172.309 77.4206 173.63 77.4206Z" fill="#4C8BAA"/>
<path d="M410.016 95.4773C411.246 95.4773 412.242 94.4807 412.242 93.2512C412.242 92.0217 411.246 91.0249 410.016 91.0249C408.787 91.0249 407.79 92.0217 407.79 93.2512C407.79 94.4807 408.787 95.4773 410.016 95.4773Z" fill="#4C8BAA"/>
<path d="M391.877 95.8897C393.335 95.8897 394.515 94.7085 394.515 93.2514C394.515 91.7942 393.335 90.6128 391.877 90.6128C390.42 90.6128 389.239 91.7942 389.239 93.2514C389.239 94.7085 390.42 95.8897 391.877 95.8897Z" fill="#4C8BAA"/>
<path d="M373.653 96.5491C375.475 96.5491 376.951 95.0726 376.951 93.2511C376.951 91.4297 375.475 89.9531 373.653 89.9531C371.832 89.9531 370.355 91.4297 370.355 93.2511C370.355 95.0726 371.832 96.5491 373.653 96.5491Z" fill="#4C8BAA"/>
<path d="M355.433 95.4773C356.662 95.4773 357.659 94.4807 357.659 93.2512C357.659 92.0217 356.662 91.0249 355.433 91.0249C354.203 91.0249 353.207 92.0217 353.207 93.2512C353.207 94.4807 354.203 95.4773 355.433 95.4773Z" fill="#4C8BAA"/>
<path d="M337.295 96.5491C339.116 96.5491 340.593 95.0726 340.593 93.2511C340.593 91.4297 339.116 89.9531 337.295 89.9531C335.473 89.9531 333.997 91.4297 333.997 93.2511C333.997 95.0726 335.473 96.5491 337.295 96.5491Z" fill="#4C8BAA"/>
<path d="M319.072 95.9719C320.575 95.9719 321.794 94.7539 321.794 93.2512C321.794 91.7485 320.575 90.5303 319.072 90.5303C317.57 90.5303 316.352 91.7485 316.352 93.2512C316.352 94.7539 317.57 95.9719 319.072 95.9719Z" fill="#4C8BAA"/>
<path d="M300.934 95.8897C302.391 95.8897 303.572 94.7085 303.572 93.2514C303.572 91.7942 302.391 90.6128 300.934 90.6128C299.477 90.6128 298.296 91.7942 298.296 93.2514C298.296 94.7085 299.477 95.8897 300.934 95.8897Z" fill="#4C8BAA"/>
<path d="M282.713 95.9719C284.215 95.9719 285.433 94.7539 285.433 93.2512C285.433 91.7485 284.215 90.5303 282.713 90.5303C281.21 90.5303 279.992 91.7485 279.992 93.2512C279.992 94.7539 281.21 95.9719 282.713 95.9719Z" fill="#4C8BAA"/>
<path d="M264.574 95.9719C266.076 95.9719 267.294 94.7539 267.294 93.2512C267.294 91.7485 266.076 90.5303 264.574 90.5303C263.071 90.5303 261.853 91.7485 261.853 93.2512C261.853 94.7539 263.071 95.9719 264.574 95.9719Z" fill="#4C8BAA"/>
<path d="M246.351 95.7248C247.717 95.7248 248.825 94.6174 248.825 93.2513C248.825 91.8853 247.717 90.7778 246.351 90.7778C244.985 90.7778 243.878 91.8853 243.878 93.2513C243.878 94.6174 244.985 95.7248 246.351 95.7248Z" fill="#4C8BAA"/>
<path d="M228.131 96.6317C229.998 96.6317 231.512 95.1184 231.512 93.2514C231.512 91.3844 229.998 89.8708 228.131 89.8708C226.264 89.8708 224.751 91.3844 224.751 93.2514C224.751 95.1184 226.264 96.6317 228.131 96.6317Z" fill="#4C8BAA"/>
<path d="M209.992 95.3948C211.176 95.3948 212.136 94.4351 212.136 93.2512C212.136 92.0673 211.176 91.1074 209.992 91.1074C208.808 91.1074 207.848 92.0673 207.848 93.2512C207.848 94.4351 208.808 95.3948 209.992 95.3948Z" fill="#4C8BAA"/>
<path d="M191.77 95.7248C193.136 95.7248 194.243 94.6174 194.243 93.2513C194.243 91.8853 193.136 90.7778 191.77 90.7778C190.403 90.7778 189.296 91.8853 189.296 93.2513C189.296 94.6174 190.403 95.7248 191.77 95.7248Z" fill="#4C8BAA"/>
<path d="M173.63 96.6317C175.497 96.6317 177.01 95.1184 177.01 93.2514C177.01 91.3844 175.497 89.8708 173.63 89.8708C171.763 89.8708 170.249 91.3844 170.249 93.2514C170.249 95.1184 171.763 96.6317 173.63 96.6317Z" fill="#4C8BAA"/>
<path d="M391.876 114.194C393.424 114.194 394.679 112.939 394.679 111.39C394.679 109.842 393.424 108.587 391.876 108.587C390.328 108.587 389.073 109.842 389.073 111.39C389.073 112.939 390.328 114.194 391.876 114.194Z" fill="#4C8BAA"/>
<path d="M373.655 114.194C375.203 114.194 376.458 112.939 376.458 111.39C376.458 109.842 375.203 108.587 373.655 108.587C372.107 108.587 370.852 109.842 370.852 111.39C370.852 112.939 372.107 114.194 373.655 114.194Z" fill="#4C8BAA"/>
<path d="M355.433 114.194C356.981 114.194 358.236 112.939 358.236 111.39C358.236 109.842 356.981 108.587 355.433 108.587C353.884 108.587 352.629 109.842 352.629 111.39C352.629 112.939 353.884 114.194 355.433 114.194Z" fill="#4C8BAA"/>
<path d="M337.295 114.688C339.116 114.688 340.593 113.212 340.593 111.39C340.593 109.569 339.116 108.092 337.295 108.092C335.473 108.092 333.997 109.569 333.997 111.39C333.997 113.212 335.473 114.688 337.295 114.688Z" fill="#4C8BAA"/>
<path d="M319.074 113.369C320.166 113.369 321.053 112.483 321.053 111.39C321.053 110.297 320.166 109.411 319.074 109.411C317.981 109.411 317.095 110.297 317.095 111.39C317.095 112.483 317.981 113.369 319.074 113.369Z" fill="#4C8BAA"/>
<path d="M300.933 114.441C302.618 114.441 303.984 113.075 303.984 111.39C303.984 109.705 302.618 108.339 300.933 108.339C299.248 108.339 297.883 109.705 297.883 111.39C297.883 113.075 299.248 114.441 300.933 114.441Z" fill="#4C8BAA"/>
<path d="M282.71 114.441C284.395 114.441 285.761 113.075 285.761 111.39C285.761 109.705 284.395 108.339 282.71 108.339C281.025 108.339 279.659 109.705 279.659 111.39C279.659 113.075 281.025 114.441 282.71 114.441Z" fill="#4C8BAA"/>
<path d="M264.572 114.441C266.256 114.441 267.622 113.075 267.622 111.39C267.622 109.705 266.256 108.339 264.572 108.339C262.887 108.339 261.521 109.705 261.521 111.39C261.521 113.075 262.887 114.441 264.572 114.441Z" fill="#4C8BAA"/>
<path d="M246.352 114.194C247.9 114.194 249.155 112.939 249.155 111.39C249.155 109.842 247.9 108.587 246.352 108.587C244.804 108.587 243.548 109.842 243.548 111.39C243.548 112.939 244.804 114.194 246.352 114.194Z" fill="#4C8BAA"/>
<path d="M228.129 113.616C229.359 113.616 230.356 112.62 230.356 111.39C230.356 110.161 229.359 109.164 228.129 109.164C226.9 109.164 225.903 110.161 225.903 111.39C225.903 112.62 226.9 113.616 228.129 113.616Z" fill="#4C8BAA"/>
<path d="M209.991 115.265C212.131 115.265 213.866 113.53 213.866 111.39C213.866 109.25 212.131 107.515 209.991 107.515C207.851 107.515 206.116 109.25 206.116 111.39C206.116 113.53 207.851 115.265 209.991 115.265Z" fill="#4C8BAA"/>
<path d="M191.77 114.77C193.637 114.77 195.15 113.257 195.15 111.39C195.15 109.523 193.637 108.01 191.77 108.01C189.903 108.01 188.389 109.523 188.389 111.39C188.389 113.257 189.903 114.77 191.77 114.77Z" fill="#4C8BAA"/>
<path d="M173.632 114.276C175.226 114.276 176.518 112.984 176.518 111.39C176.518 109.796 175.226 108.504 173.632 108.504C172.038 108.504 170.746 109.796 170.746 111.39C170.746 112.984 172.038 114.276 173.632 114.276Z" fill="#4C8BAA"/>
<path d="M391.874 131.755C393.058 131.755 394.018 130.796 394.018 129.612C394.018 128.428 393.058 127.468 391.874 127.468C390.69 127.468 389.73 128.428 389.73 129.612C389.73 130.796 390.69 131.755 391.874 131.755Z" fill="#4C8BAA"/>
<path d="M373.655 131.755C374.839 131.755 375.799 130.796 375.799 129.612C375.799 128.428 374.839 127.468 373.655 127.468C372.471 127.468 371.511 128.428 371.511 129.612C371.511 130.796 372.471 131.755 373.655 131.755Z" fill="#4C8BAA"/>
<path d="M355.434 131.755C356.618 131.755 357.577 130.796 357.577 129.612C357.577 128.428 356.618 127.468 355.434 127.468C354.25 127.468 353.289 128.428 353.289 129.612C353.289 130.796 354.25 131.755 355.434 131.755Z" fill="#4C8BAA"/>
<path d="M337.295 132.085C338.661 132.085 339.769 130.978 339.769 129.611C339.769 128.245 338.661 127.138 337.295 127.138C335.929 127.138 334.822 128.245 334.822 129.611C334.822 130.978 335.929 132.085 337.295 132.085Z" fill="#4C8BAA"/>
<path d="M319.072 132.332C320.575 132.332 321.794 131.114 321.794 129.612C321.794 128.109 320.575 126.891 319.072 126.891C317.57 126.891 316.352 128.109 316.352 129.612C316.352 131.114 317.57 132.332 319.072 132.332Z" fill="#4C8BAA"/>
<path d="M300.933 132.91C302.755 132.91 304.231 131.433 304.231 129.612C304.231 127.79 302.755 126.314 300.933 126.314C299.112 126.314 297.635 127.79 297.635 129.612C297.635 131.433 299.112 132.91 300.933 132.91Z" fill="#4C8BAA"/>
<path d="M282.712 132.91C284.534 132.91 286.01 131.433 286.01 129.612C286.01 127.79 284.534 126.314 282.712 126.314C280.891 126.314 279.414 127.79 279.414 129.612C279.414 131.433 280.891 132.91 282.712 132.91Z" fill="#4C8BAA"/>
<path d="M264.574 132.992C266.441 132.992 267.954 131.479 267.954 129.612C267.954 127.745 266.441 126.231 264.574 126.231C262.707 126.231 261.194 127.745 261.194 129.612C261.194 131.479 262.707 132.992 264.574 132.992Z" fill="#4C8BAA"/>
<path d="M246.351 132.085C247.717 132.085 248.825 130.978 248.825 129.611C248.825 128.245 247.717 127.138 246.351 127.138C244.985 127.138 243.878 128.245 243.878 129.611C243.878 130.978 244.985 132.085 246.351 132.085Z" fill="#4C8BAA"/>
<path d="M228.128 131.673C229.267 131.673 230.19 130.75 230.19 129.612C230.19 128.473 229.267 127.55 228.128 127.55C226.99 127.55 226.067 128.473 226.067 129.612C226.067 130.75 226.99 131.673 228.128 131.673Z" fill="#4C8BAA"/>
<path d="M209.991 133.487C212.131 133.487 213.866 131.752 213.866 129.611C213.866 127.471 212.131 125.736 209.991 125.736C207.851 125.736 206.116 127.471 206.116 129.611C206.116 131.752 207.851 133.487 209.991 133.487Z" fill="#4C8BAA"/>
<path d="M191.77 132.085C193.136 132.085 194.243 130.978 194.243 129.611C194.243 128.245 193.136 127.138 191.77 127.138C190.403 127.138 189.296 128.245 189.296 129.611C189.296 130.978 190.403 132.085 191.77 132.085Z" fill="#4C8BAA"/>
<path d="M173.63 132.992C175.497 132.992 177.01 131.479 177.01 129.612C177.01 127.745 175.497 126.231 173.63 126.231C171.763 126.231 170.249 127.745 170.249 129.612C170.249 131.479 171.763 132.992 173.63 132.992Z" fill="#4C8BAA"/>
<path d="M410.015 149.895C411.199 149.895 412.159 148.935 412.159 147.751C412.159 146.567 411.199 145.607 410.015 145.607C408.831 145.607 407.871 146.567 407.871 147.751C407.871 148.935 408.831 149.895 410.015 149.895Z" fill="#4C8BAA"/>
<path d="M391.876 150.554C393.424 150.554 394.679 149.299 394.679 147.75C394.679 146.202 393.424 144.947 391.876 144.947C390.328 144.947 389.073 146.202 389.073 147.75C389.073 149.299 390.328 150.554 391.876 150.554Z" fill="#4C8BAA"/>
<path d="M373.655 150.554C375.203 150.554 376.458 149.299 376.458 147.75C376.458 146.202 375.203 144.947 373.655 144.947C372.107 144.947 370.852 146.202 370.852 147.75C370.852 149.299 372.107 150.554 373.655 150.554Z" fill="#4C8BAA"/>
<path d="M355.433 151.214C357.346 151.214 358.897 149.663 358.897 147.751C358.897 145.838 357.346 144.288 355.433 144.288C353.521 144.288 351.97 145.838 351.97 147.751C351.97 149.663 353.521 151.214 355.433 151.214Z" fill="#4C8BAA"/>
<path d="M337.295 151.049C339.116 151.049 340.593 149.572 340.593 147.751C340.593 145.929 339.116 144.453 337.295 144.453C335.473 144.453 333.997 145.929 333.997 147.751C333.997 149.572 335.473 151.049 337.295 151.049Z" fill="#4C8BAA"/>
<path d="M319.074 149.729C320.166 149.729 321.053 148.843 321.053 147.75C321.053 146.658 320.166 145.772 319.074 145.772C317.981 145.772 317.095 146.658 317.095 147.75C317.095 148.843 317.981 149.729 319.074 149.729Z" fill="#4C8BAA"/>
<path d="M300.933 151.049C302.755 151.049 304.231 149.572 304.231 147.751C304.231 145.929 302.755 144.453 300.933 144.453C299.112 144.453 297.635 145.929 297.635 147.751C297.635 149.572 299.112 151.049 300.933 151.049Z" fill="#4C8BAA"/>
<path d="M282.713 151.708C284.899 151.708 286.671 149.936 286.671 147.751C286.671 145.565 284.899 143.793 282.713 143.793C280.528 143.793 278.756 145.565 278.756 147.751C278.756 149.936 280.528 151.708 282.713 151.708Z" fill="#4C8BAA"/>
<path d="M264.574 151.131C266.441 151.131 267.954 149.618 267.954 147.751C267.954 145.884 266.441 144.37 264.574 144.37C262.707 144.37 261.194 145.884 261.194 147.751C261.194 149.618 262.707 151.131 264.574 151.131Z" fill="#4C8BAA"/>
<path d="M246.352 151.708C248.538 151.708 250.31 149.936 250.31 147.751C250.31 145.565 248.538 143.793 246.352 143.793C244.167 143.793 242.394 145.565 242.394 147.751C242.394 149.936 244.167 151.708 246.352 151.708Z" fill="#4C8BAA"/>
<path d="M228.131 151.708C230.317 151.708 232.088 149.936 232.088 147.751C232.088 145.565 230.317 143.793 228.131 143.793C225.945 143.793 224.173 145.565 224.173 147.751C224.173 149.936 225.945 151.708 228.131 151.708Z" fill="#4C8BAA"/>
<path d="M209.992 151.956C212.314 151.956 214.197 150.073 214.197 147.75C214.197 145.428 212.314 143.546 209.992 143.546C207.67 143.546 205.787 145.428 205.787 147.75C205.787 150.073 207.67 151.956 209.992 151.956Z" fill="#4C8BAA"/>
<path d="M191.769 150.636C193.363 150.636 194.655 149.344 194.655 147.751C194.655 146.157 193.363 144.865 191.769 144.865C190.176 144.865 188.884 146.157 188.884 147.751C188.884 149.344 190.176 150.636 191.769 150.636Z" fill="#4C8BAA"/>
<path d="M173.63 151.378C175.633 151.378 177.257 149.754 177.257 147.751C177.257 145.747 175.633 144.123 173.63 144.123C171.626 144.123 170.001 145.747 170.001 147.751C170.001 149.754 171.626 151.378 173.63 151.378Z" fill="#4C8BAA"/>
<path d="M173.63 188.069C175.816 188.069 177.588 186.297 177.588 184.111C177.588 181.925 175.816 180.154 173.63 180.154C171.445 180.154 169.673 181.925 169.673 184.111C169.673 186.297 171.445 188.069 173.63 188.069Z" fill="#4C8BAA"/>
<path d="M191.769 188.069C193.955 188.069 195.727 186.297 195.727 184.111C195.727 181.925 193.955 180.154 191.769 180.154C189.583 180.154 187.812 181.925 187.812 184.111C187.812 186.297 189.583 188.069 191.769 188.069Z" fill="#4C8BAA"/>
<path d="M209.992 188.316C212.314 188.316 214.197 186.434 214.197 184.111C214.197 181.789 212.314 179.906 209.992 179.906C207.67 179.906 205.787 181.789 205.787 184.111C205.787 186.434 207.67 188.316 209.992 188.316Z" fill="#4C8BAA"/>
<path d="M228.129 186.997C229.723 186.997 231.015 185.705 231.015 184.111C231.015 182.518 229.723 181.226 228.129 181.226C226.535 181.226 225.243 182.518 225.243 184.111C225.243 185.705 226.535 186.997 228.129 186.997Z" fill="#4C8BAA"/>
<path d="M246.353 187.739C248.356 187.739 249.98 186.115 249.98 184.111C249.98 182.108 248.356 180.483 246.353 180.483C244.349 180.483 242.724 182.108 242.724 184.111C242.724 186.115 244.349 187.739 246.353 187.739Z" fill="#4C8BAA"/>
<path d="M264.574 186.832C266.076 186.832 267.294 185.614 267.294 184.111C267.294 182.609 266.076 181.39 264.574 181.39C263.071 181.39 261.853 182.609 261.853 184.111C261.853 185.614 263.071 186.832 264.574 186.832Z" fill="#4C8BAA"/>
<path d="M282.712 186.997C284.306 186.997 285.598 185.705 285.598 184.111C285.598 182.518 284.306 181.226 282.712 181.226C281.119 181.226 279.827 182.518 279.827 184.111C279.827 185.705 281.119 186.997 282.712 186.997Z" fill="#4C8BAA"/>
<path d="M300.933 188.481C303.346 188.481 305.303 186.525 305.303 184.111C305.303 181.698 303.346 179.741 300.933 179.741C298.519 179.741 296.563 181.698 296.563 184.111C296.563 186.525 298.519 188.481 300.933 188.481Z" fill="#4C8BAA"/>
<path d="M319.072 187.657C321.03 187.657 322.618 186.069 322.618 184.111C322.618 182.153 321.03 180.566 319.072 180.566C317.114 180.566 315.527 182.153 315.527 184.111C315.527 186.069 317.114 187.657 319.072 187.657Z" fill="#4C8BAA"/>
<path d="M337.295 188.234C339.571 188.234 341.417 186.388 341.417 184.111C341.417 181.834 339.571 179.989 337.295 179.989C335.018 179.989 333.172 181.834 333.172 184.111C333.172 186.388 335.018 188.234 337.295 188.234Z" fill="#4C8BAA"/>
<path d="M355.433 187.904C357.528 187.904 359.226 186.206 359.226 184.111C359.226 182.016 357.528 180.318 355.433 180.318C353.339 180.318 351.64 182.016 351.64 184.111C351.64 186.206 353.339 187.904 355.433 187.904Z" fill="#4C8BAA"/>
<path d="M373.653 187.657C375.611 187.657 377.198 186.069 377.198 184.111C377.198 182.153 375.611 180.566 373.653 180.566C371.695 180.566 370.108 182.153 370.108 184.111C370.108 186.069 371.695 187.657 373.653 187.657Z" fill="#4C8BAA"/>
<path d="M391.875 187.904C393.97 187.904 395.667 186.206 395.667 184.111C395.667 182.016 393.97 180.318 391.875 180.318C389.78 180.318 388.082 182.016 388.082 184.111C388.082 186.206 389.78 187.904 391.875 187.904Z" fill="#4C8BAA"/>
<path d="M410.016 185.925C411.018 185.925 411.83 185.113 411.83 184.111C411.83 183.109 411.018 182.297 410.016 182.297C409.015 182.297 408.202 183.109 408.202 184.111C408.202 185.113 409.015 185.925 410.016 185.925Z" fill="#4C8BAA"/>
<path d="M173.63 169.93C175.816 169.93 177.588 168.158 177.588 165.972C177.588 163.786 175.816 162.014 173.63 162.014C171.445 162.014 169.673 163.786 169.673 165.972C169.673 168.158 171.445 169.93 173.63 169.93Z" fill="#4C8BAA"/>
<path d="M191.769 169.93C193.955 169.93 195.727 168.158 195.727 165.972C195.727 163.786 193.955 162.014 191.769 162.014C189.583 162.014 187.812 163.786 187.812 165.972C187.812 168.158 189.583 169.93 191.769 169.93Z" fill="#4C8BAA"/>
<path d="M209.992 170.177C212.314 170.177 214.197 168.294 214.197 165.972C214.197 163.65 212.314 161.767 209.992 161.767C207.67 161.767 205.787 163.65 205.787 165.972C205.787 168.294 207.67 170.177 209.992 170.177Z" fill="#4C8BAA"/>
<path d="M228.129 168.858C229.723 168.858 231.015 167.566 231.015 165.972C231.015 164.378 229.723 163.086 228.129 163.086C226.535 163.086 225.243 164.378 225.243 165.972C225.243 167.566 226.535 168.858 228.129 168.858Z" fill="#4C8BAA"/>
<path d="M246.353 169.6C248.356 169.6 249.98 167.976 249.98 165.972C249.98 163.969 248.356 162.344 246.353 162.344C244.349 162.344 242.724 163.969 242.724 165.972C242.724 167.976 244.349 169.6 246.353 169.6Z" fill="#4C8BAA"/>
<path d="M264.574 168.693C266.076 168.693 267.294 167.475 267.294 165.972C267.294 164.469 266.076 163.251 264.574 163.251C263.071 163.251 261.853 164.469 261.853 165.972C261.853 167.475 263.071 168.693 264.574 168.693Z" fill="#4C8BAA"/>
<path d="M282.712 168.858C284.306 168.858 285.598 167.566 285.598 165.972C285.598 164.378 284.306 163.086 282.712 163.086C281.119 163.086 279.827 164.378 279.827 165.972C279.827 167.566 281.119 168.858 282.712 168.858Z" fill="#4C8BAA"/>
<path d="M300.933 170.342C303.346 170.342 305.303 168.385 305.303 165.972C305.303 163.559 303.346 161.602 300.933 161.602C298.519 161.602 296.563 163.559 296.563 165.972C296.563 168.385 298.519 170.342 300.933 170.342Z" fill="#4C8BAA"/>
<path d="M319.072 169.518C321.03 169.518 322.618 167.93 322.618 165.972C322.618 164.014 321.03 162.427 319.072 162.427C317.114 162.427 315.527 164.014 315.527 165.972C315.527 167.93 317.114 169.518 319.072 169.518Z" fill="#4C8BAA"/>
<path d="M337.295 170.095C339.571 170.095 341.417 168.249 341.417 165.972C341.417 163.696 339.571 161.85 337.295 161.85C335.018 161.85 333.172 163.696 333.172 165.972C333.172 168.249 335.018 170.095 337.295 170.095Z" fill="#4C8BAA"/>
<path d="M355.433 169.765C357.528 169.765 359.226 168.067 359.226 165.972C359.226 163.878 357.528 162.179 355.433 162.179C353.339 162.179 351.64 163.878 351.64 165.972C351.64 168.067 353.339 169.765 355.433 169.765Z" fill="#4C8BAA"/>
<path d="M373.653 169.518C375.611 169.518 377.198 167.93 377.198 165.972C377.198 164.014 375.611 162.427 373.653 162.427C371.695 162.427 370.108 164.014 370.108 165.972C370.108 167.93 371.695 169.518 373.653 169.518Z" fill="#4C8BAA"/>
<path d="M391.875 169.765C393.97 169.765 395.667 168.067 395.667 165.972C395.667 163.878 393.97 162.179 391.875 162.179C389.78 162.179 388.082 163.878 388.082 165.972C388.082 168.067 389.78 169.765 391.875 169.765Z" fill="#4C8BAA"/>
<path d="M410.016 167.786C411.018 167.786 411.83 166.974 411.83 165.972C411.83 164.97 411.018 164.158 410.016 164.158C409.015 164.158 408.202 164.97 408.202 165.972C408.202 166.974 409.015 167.786 410.016 167.786Z" fill="#4C8BAA"/>
</svg>
