<svg width="275" height="226" viewBox="0 0 275 226" fill="none" xmlns="http://www.w3.org/2000/svg">
<path d="M261.108 224.996C262.12 224.996 262.941 224.175 262.941 223.164C262.941 222.152 262.12 221.331 261.108 221.331C260.097 221.331 259.276 222.152 259.276 223.164C259.276 224.175 260.097 224.996 261.108 224.996Z" fill="#FB7C26"/>
<path d="M244.986 224.776C245.877 224.776 246.598 224.054 246.598 223.164C246.598 222.273 245.877 221.551 244.986 221.551C244.096 221.551 243.374 222.273 243.374 223.164C243.374 224.054 244.096 224.776 244.986 224.776Z" fill="#FB7C26"/>
<path d="M277.304 209.313C278.599 209.313 279.649 208.264 279.649 206.968C279.649 205.673 278.599 204.623 277.304 204.623C276.009 204.623 274.959 205.673 274.959 206.968C274.959 208.264 276.009 209.313 277.304 209.313Z" fill="#FB7C26"/>
<path d="M261.108 208.8C262.12 208.8 262.941 207.98 262.941 206.968C262.941 205.956 262.12 205.136 261.108 205.136C260.097 205.136 259.276 205.956 259.276 206.968C259.276 207.98 260.097 208.8 261.108 208.8Z" fill="#FB7C26"/>
<path d="M244.986 208.58C245.877 208.58 246.598 207.858 246.598 206.968C246.598 206.077 245.877 205.356 244.986 205.356C244.096 205.356 243.374 206.077 243.374 206.968C243.374 207.858 244.096 208.58 244.986 208.58Z" fill="#FB7C26"/>
<path d="M261.108 192.825C262.201 192.825 263.087 191.939 263.087 190.846C263.087 189.753 262.201 188.867 261.108 188.867C260.016 188.867 259.13 189.753 259.13 190.846C259.13 191.939 260.016 192.825 261.108 192.825Z" fill="#FB7C26"/>
<path d="M244.986 192.458C245.877 192.458 246.598 191.736 246.598 190.845C246.598 189.955 245.877 189.233 244.986 189.233C244.096 189.233 243.374 189.955 243.374 190.845C243.374 191.736 244.096 192.458 244.986 192.458Z" fill="#FB7C26"/>
<path d="M261.108 176.629C262.201 176.629 263.087 175.743 263.087 174.65C263.087 173.557 262.201 172.672 261.108 172.672C260.016 172.672 259.13 173.557 259.13 174.65C259.13 175.743 260.016 176.629 261.108 176.629Z" fill="#FB7C26"/>
<path d="M244.986 176.629C246.079 176.629 246.965 175.743 246.965 174.65C246.965 173.557 246.079 172.672 244.986 172.672C243.893 172.672 243.007 173.557 243.007 174.65C243.007 175.743 243.893 176.629 244.986 176.629Z" fill="#FB7C26"/>
<path d="M277.304 160.873C278.599 160.873 279.649 159.823 279.649 158.528C279.649 157.233 278.599 156.183 277.304 156.183C276.009 156.183 274.959 157.233 274.959 158.528C274.959 159.823 276.009 160.873 277.304 160.873Z" fill="#FB7C26"/>
<path d="M261.109 161.532C262.768 161.532 264.113 160.187 264.113 158.528C264.113 156.868 262.768 155.523 261.109 155.523C259.449 155.523 258.104 156.868 258.104 158.528C258.104 160.187 259.449 161.532 261.109 161.532Z" fill="#FB7C26"/>
<path d="M244.987 160.653C246.161 160.653 247.112 159.701 247.112 158.527C247.112 157.354 246.161 156.402 244.987 156.402C243.813 156.402 242.862 157.354 242.862 158.527C242.862 159.701 243.813 160.653 244.987 160.653Z" fill="#FB7C26"/>
<path d="M261.108 144.53C262.323 144.53 263.307 143.546 263.307 142.332C263.307 141.118 262.323 140.133 261.108 140.133C259.894 140.133 258.91 141.118 258.91 142.332C258.91 143.546 259.894 144.53 261.108 144.53Z" fill="#FB7C26"/>
<path d="M244.985 145.337C246.645 145.337 247.99 143.991 247.99 142.332C247.99 140.673 246.645 139.327 244.985 139.327C243.326 139.327 241.981 140.673 241.981 142.332C241.981 143.991 243.326 145.337 244.985 145.337Z" fill="#FB7C26"/>
<path d="M277.303 129.654C279.206 129.654 280.748 128.112 280.748 126.21C280.748 124.308 279.206 122.766 277.303 122.766C275.401 122.766 273.859 124.308 273.859 126.21C273.859 128.112 275.401 129.654 277.303 129.654Z" fill="#FB7C26"/>
<path d="M261.109 129.215C262.768 129.215 264.113 127.869 264.113 126.21C264.113 124.551 262.768 123.205 261.109 123.205C259.449 123.205 258.104 124.551 258.104 126.21C258.104 127.869 259.449 129.215 261.109 129.215Z" fill="#FB7C26"/>
<path d="M244.987 128.775C246.404 128.775 247.552 127.627 247.552 126.21C247.552 124.793 246.404 123.645 244.987 123.645C243.571 123.645 242.422 124.793 242.422 126.21C242.422 127.627 243.571 128.775 244.987 128.775Z" fill="#FB7C26"/>
<path d="M277.303 113.458C279.206 113.458 280.748 111.916 280.748 110.014C280.748 108.112 279.206 106.57 277.303 106.57C275.401 106.57 273.859 108.112 273.859 110.014C273.859 111.916 275.401 113.458 277.303 113.458Z" fill="#FB7C26"/>
<path d="M261.108 112.213C262.323 112.213 263.307 111.228 263.307 110.014C263.307 108.8 262.323 107.816 261.108 107.816C259.894 107.816 258.91 108.8 258.91 110.014C258.91 111.228 259.894 112.213 261.108 112.213Z" fill="#FB7C26"/>
<path d="M244.985 113.018C246.645 113.018 247.99 111.673 247.99 110.014C247.99 108.354 246.645 107.009 244.985 107.009C243.326 107.009 241.981 108.354 241.981 110.014C241.981 111.673 243.326 113.018 244.985 113.018Z" fill="#FB7C26"/>
<path d="M277.305 97.556C279.369 97.556 281.042 95.8828 281.042 93.8187C281.042 91.7546 279.369 90.0812 277.305 90.0812C275.241 90.0812 273.568 91.7546 273.568 93.8187C273.568 95.8828 275.241 97.556 277.305 97.556Z" fill="#FB7C26"/>
<path d="M261.108 96.3835C262.525 96.3835 263.673 95.2351 263.673 93.8186C263.673 92.402 262.525 91.2537 261.108 91.2537C259.692 91.2537 258.543 92.402 258.543 93.8186C258.543 95.2351 259.692 96.3835 261.108 96.3835Z" fill="#FB7C26"/>
<path d="M244.987 97.043C246.768 97.043 248.211 95.5994 248.211 93.8186C248.211 92.0377 246.768 90.594 244.987 90.594C243.206 90.594 241.762 92.0377 241.762 93.8186C241.762 95.5994 243.206 97.043 244.987 97.043Z" fill="#FB7C26"/>
<path d="M244.986 65.0178C246.929 65.0178 248.504 63.4429 248.504 61.5002C248.504 59.5575 246.929 57.9825 244.986 57.9825C243.043 57.9825 241.468 59.5575 241.468 61.5002C241.468 63.4429 243.043 65.0178 244.986 65.0178Z" fill="#FB7C26"/>
<path d="M261.108 65.0178C263.051 65.0178 264.626 63.4429 264.626 61.5002C264.626 59.5575 263.051 57.9825 261.108 57.9825C259.165 57.9825 257.59 59.5575 257.59 61.5002C257.59 63.4429 259.165 65.0178 261.108 65.0178Z" fill="#FB7C26"/>
<path d="M277.305 65.238C279.369 65.238 281.042 63.5646 281.042 61.5005C281.042 59.4363 279.369 57.7629 277.305 57.7629C275.241 57.7629 273.568 59.4363 273.568 61.5005C273.568 63.5646 275.241 65.238 277.305 65.238Z" fill="#FB7C26"/>
<path d="M277.304 49.5556C279.611 49.5556 281.481 47.6855 281.481 45.3785C281.481 43.0716 279.611 41.2014 277.304 41.2014C274.997 41.2014 273.127 43.0716 273.127 45.3785C273.127 47.6855 274.997 49.5556 277.304 49.5556Z" fill="#FB7C26"/>
<path d="M244.986 81.2143C246.929 81.2143 248.504 79.6396 248.504 77.6968C248.504 75.7541 246.929 74.1792 244.986 74.1792C243.043 74.1792 241.468 75.7541 241.468 77.6968C241.468 79.6396 243.043 81.2143 244.986 81.2143Z" fill="#FB7C26"/>
<path d="M261.108 81.2143C263.051 81.2143 264.626 79.6396 264.626 77.6968C264.626 75.7541 263.051 74.1792 261.108 74.1792C259.165 74.1792 257.59 75.7541 257.59 77.6968C257.59 79.6396 259.165 81.2143 261.108 81.2143Z" fill="#FB7C26"/>
<path d="M277.305 81.4336C279.369 81.4336 281.042 79.7604 281.042 77.6963C281.042 75.6321 279.369 73.9587 277.305 73.9587C275.241 73.9587 273.568 75.6321 273.568 77.6963C273.568 79.7604 275.241 81.4336 277.305 81.4336Z" fill="#FB7C26"/>
<path d="M277.305 32.9197C279.369 32.9197 281.042 31.2463 281.042 29.1822C281.042 27.118 279.369 25.4448 277.305 25.4448C275.241 25.4448 273.568 27.118 273.568 29.1822C273.568 31.2463 275.241 32.9197 277.305 32.9197Z" fill="#FB7C26"/>
<path d="M2.49142 143.871C3.34136 143.871 4.03045 143.182 4.03045 142.332C4.03045 141.482 3.34136 140.793 2.49142 140.793C1.64148 140.793 0.952759 141.482 0.952759 142.332C0.952759 143.182 1.64148 143.871 2.49142 143.871Z" fill="#FB7C26"/>
<path d="M2.49156 63.9918C3.86765 63.9918 4.98348 62.8763 4.98348 61.5002C4.98348 60.1241 3.86765 59.0087 2.49156 59.0087C1.11547 59.0087 0 60.1241 0 61.5002C0 62.8763 1.11547 63.9918 2.49156 63.9918Z" fill="#FB7C26"/>
<path d="M2.49099 79.3086C3.3814 79.3086 4.10336 78.5868 4.10336 77.6964C4.10336 76.8059 3.3814 76.084 2.49099 76.084C1.60057 76.084 0.878967 76.8059 0.878967 77.6964C0.878967 78.5868 1.60057 79.3086 2.49099 79.3086Z" fill="#FB7C26"/>
<path d="M2.49099 14.5994C3.3814 14.5994 4.10336 13.8776 4.10336 12.9872C4.10336 12.0968 3.3814 11.375 2.49099 11.375C1.60057 11.375 0.878967 12.0968 0.878967 12.9872C0.878967 13.8776 1.60057 14.5994 2.49099 14.5994Z" fill="#FB7C26"/>
<path d="M277.303 16.4314C279.206 16.4314 280.748 14.8894 280.748 12.9871C280.748 11.0849 279.206 9.54285 277.303 9.54285C275.401 9.54285 273.859 11.0849 273.859 12.9871C273.859 14.8894 275.401 16.4314 277.303 16.4314Z" fill="#FB7C26"/>
<path d="M277.304 1.04222C279.611 1.04222 281.481 -0.82792 281.481 -3.1349C281.481 -5.44187 279.611 -7.31201 277.304 -7.31201C274.997 -7.31201 273.127 -5.44187 273.127 -3.1349C273.127 -0.82792 274.997 1.04222 277.304 1.04222Z" fill="#FB7C26"/>
<path d="M212.596 49.5556C214.903 49.5556 216.773 47.6855 216.773 45.3785C216.773 43.0716 214.903 41.2014 212.596 41.2014C210.289 41.2014 208.418 43.0716 208.418 45.3785C208.418 47.6855 210.289 49.5556 212.596 49.5556Z" fill="#FB7C26"/>
<path d="M228.79 49.2622C230.935 49.2622 232.674 47.5233 232.674 45.3782C232.674 43.2331 230.935 41.4941 228.79 41.4941C226.645 41.4941 224.906 43.2331 224.906 45.3782C224.906 47.5233 226.645 49.2622 228.79 49.2622Z" fill="#FB7C26"/>
<path d="M244.986 49.2622C247.131 49.2622 248.87 47.5233 248.87 45.3782C248.87 43.2331 247.131 41.4941 244.986 41.4941C242.841 41.4941 241.102 43.2331 241.102 45.3782C241.102 47.5233 242.841 49.2622 244.986 49.2622Z" fill="#FB7C26"/>
<path d="M261.109 49.0424C263.132 49.0424 264.773 47.4019 264.773 45.3783C264.773 43.3546 263.132 41.7141 261.109 41.7141C259.085 41.7141 257.445 43.3546 257.445 45.3783C257.445 47.4019 259.085 49.0424 261.109 49.0424Z" fill="#FB7C26"/>
<path d="M212.594 32.9197C214.658 32.9197 216.332 31.2463 216.332 29.1822C216.332 27.118 214.658 25.4448 212.594 25.4448C210.53 25.4448 208.857 27.118 208.857 29.1822C208.857 31.2463 210.53 32.9197 212.594 32.9197Z" fill="#FB7C26"/>
<path d="M228.791 33.1399C230.977 33.1399 232.748 31.368 232.748 29.1824C232.748 26.9969 230.977 25.2252 228.791 25.2252C226.606 25.2252 224.834 26.9969 224.834 29.1824C224.834 31.368 226.606 33.1399 228.791 33.1399Z" fill="#FB7C26"/>
<path d="M244.986 33.0669C247.131 33.0669 248.87 31.3279 248.87 29.1828C248.87 27.0377 247.131 25.299 244.986 25.299C242.841 25.299 241.102 27.0377 241.102 29.1828C241.102 31.3279 242.841 33.0669 244.986 33.0669Z" fill="#FB7C26"/>
<path d="M261.108 33.0669C263.253 33.0669 264.992 31.3279 264.992 29.1828C264.992 27.0377 263.253 25.299 261.108 25.299C258.963 25.299 257.224 27.0377 257.224 29.1828C257.224 31.3279 258.963 33.0669 261.108 33.0669Z" fill="#FB7C26"/>
<path d="M212.594 16.7245C214.658 16.7245 216.332 15.0513 216.332 12.9872C216.332 10.923 214.658 9.24963 212.594 9.24963C210.53 9.24963 208.857 10.923 208.857 12.9872C208.857 15.0513 210.53 16.7245 212.594 16.7245Z" fill="#FB7C26"/>
<path d="M228.79 16.5049C230.733 16.5049 232.308 14.93 232.308 12.9872C232.308 11.0445 230.733 9.4696 228.79 9.4696C226.847 9.4696 225.272 11.0445 225.272 12.9872C225.272 14.93 226.847 16.5049 228.79 16.5049Z" fill="#FB7C26"/>
<path d="M244.987 16.2119C246.768 16.2119 248.211 14.7683 248.211 12.9875C248.211 11.2067 246.768 9.76294 244.987 9.76294C243.206 9.76294 241.762 11.2067 241.762 12.9875C241.762 14.7683 243.206 16.2119 244.987 16.2119Z" fill="#FB7C26"/>
<path d="M261.109 17.1643C263.416 17.1643 265.286 15.2941 265.286 12.9872C265.286 10.6802 263.416 8.81006 261.109 8.81006C258.802 8.81006 256.931 10.6802 256.931 12.9872C256.931 15.2941 258.802 17.1643 261.109 17.1643Z" fill="#FB7C26"/>
<path d="M212.595 0.382442C214.538 0.382442 216.112 -1.19248 216.112 -3.1352C216.112 -5.07791 214.538 -6.65283 212.595 -6.65283C210.652 -6.65283 209.077 -5.07791 209.077 -3.1352C209.077 -1.19248 210.652 0.382442 212.595 0.382442Z" fill="#FB7C26"/>
<path d="M228.79 0.748332C230.935 0.748332 232.674 -0.990638 232.674 -3.13572C232.674 -5.28081 230.935 -7.01978 228.79 -7.01978C226.645 -7.01978 224.906 -5.28081 224.906 -3.13572C224.906 -0.990638 226.645 0.748332 228.79 0.748332Z" fill="#FB7C26"/>
<path d="M244.986 0.748332C247.131 0.748332 248.87 -0.990638 248.87 -3.13572C248.87 -5.28081 247.131 -7.01978 244.986 -7.01978C242.841 -7.01978 241.102 -5.28081 241.102 -3.13572C241.102 -0.990638 242.841 0.748332 244.986 0.748332Z" fill="#FB7C26"/>
<path d="M261.109 0.528653C263.132 0.528653 264.773 -1.11185 264.773 -3.13551C264.773 -5.15918 263.132 -6.79968 261.109 -6.79968C259.085 -6.79968 257.445 -5.15918 257.445 -3.13551C257.445 -1.11185 259.085 0.528653 261.109 0.528653Z" fill="#FB7C26"/>
<path d="M196.474 49.5556C198.781 49.5556 200.651 47.6855 200.651 45.3785C200.651 43.0716 198.781 41.2014 196.474 41.2014C194.167 41.2014 192.296 43.0716 192.296 45.3785C192.296 47.6855 194.167 49.5556 196.474 49.5556Z" fill="#FB7C26"/>
<path d="M180.276 49.2622C182.421 49.2622 184.16 47.5233 184.16 45.3782C184.16 43.2331 182.421 41.4941 180.276 41.4941C178.131 41.4941 176.392 43.2331 176.392 45.3782C176.392 47.5233 178.131 49.2622 180.276 49.2622Z" fill="#FB7C26"/>
<path d="M164.154 49.2622C166.299 49.2622 168.038 47.5233 168.038 45.3782C168.038 43.2331 166.299 41.4941 164.154 41.4941C162.009 41.4941 160.27 43.2331 160.27 45.3782C160.27 47.5233 162.009 49.2622 164.154 49.2622Z" fill="#FB7C26"/>
<path d="M147.959 49.0424C149.983 49.0424 151.623 47.4019 151.623 45.3783C151.623 43.3546 149.983 41.7141 147.959 41.7141C145.935 41.7141 144.295 43.3546 144.295 45.3783C144.295 47.4019 145.935 49.0424 147.959 49.0424Z" fill="#FB7C26"/>
<path d="M131.836 49.5556C134.143 49.5556 136.013 47.6855 136.013 45.3785C136.013 43.0716 134.143 41.2014 131.836 41.2014C129.529 41.2014 127.659 43.0716 127.659 45.3785C127.659 47.6855 129.529 49.5556 131.836 49.5556Z" fill="#FB7C26"/>
<path d="M115.641 49.2622C117.786 49.2622 119.525 47.5233 119.525 45.3782C119.525 43.2331 117.786 41.4941 115.641 41.4941C113.496 41.4941 111.757 43.2331 111.757 45.3782C111.757 47.5233 113.496 49.2622 115.641 49.2622Z" fill="#FB7C26"/>
<path d="M99.4462 48.7495C101.308 48.7495 102.817 47.2402 102.817 45.3784C102.817 43.5167 101.308 42.0073 99.4462 42.0073C97.5845 42.0073 96.0751 43.5167 96.0751 45.3784C96.0751 47.2402 97.5845 48.7495 99.4462 48.7495Z" fill="#FB7C26"/>
<path d="M83.3228 49.0424C85.3465 49.0424 86.987 47.4019 86.987 45.3783C86.987 43.3546 85.3465 41.7141 83.3228 41.7141C81.2991 41.7141 79.6586 43.3546 79.6586 45.3783C79.6586 47.4019 81.2991 49.0424 83.3228 49.0424Z" fill="#FB7C26"/>
<path d="M67.1276 49.2622C69.2727 49.2622 71.0115 47.5233 71.0115 45.3782C71.0115 43.2331 69.2727 41.4941 67.1276 41.4941C64.9826 41.4941 63.2438 43.2331 63.2438 45.3782C63.2438 47.5233 64.9826 49.2622 67.1276 49.2622Z" fill="#FB7C26"/>
<path d="M51.0054 48.3827C52.6648 48.3827 54.0101 47.0374 54.0101 45.378C54.0101 43.7186 52.6648 42.3733 51.0054 42.3733C49.346 42.3733 48.0007 43.7186 48.0007 45.378C48.0007 47.0374 49.346 48.3827 51.0054 48.3827Z" fill="#FB7C26"/>
<path d="M34.8102 48.7495C36.672 48.7495 38.1813 47.2402 38.1813 45.3784C38.1813 43.5167 36.672 42.0073 34.8102 42.0073C32.9484 42.0073 31.4391 43.5167 31.4391 45.3784C31.4391 47.2402 32.9484 48.7495 34.8102 48.7495Z" fill="#FB7C26"/>
<path d="M18.6121 46.9903C19.5026 46.9903 20.2245 46.2685 20.2245 45.3781C20.2245 44.4877 19.5026 43.7659 18.6121 43.7659C17.7217 43.7659 17.0001 44.4877 17.0001 45.3781C17.0001 46.2685 17.7217 46.9903 18.6121 46.9903Z" fill="#FB7C26"/>
<path d="M196.472 32.9197C198.536 32.9197 200.21 31.2463 200.21 29.1822C200.21 27.118 198.536 25.4448 196.472 25.4448C194.408 25.4448 192.735 27.118 192.735 29.1822C192.735 31.2463 194.408 32.9197 196.472 32.9197Z" fill="#FB7C26"/>
<path d="M180.277 33.2866C182.544 33.2866 184.381 31.4491 184.381 29.1826C184.381 26.9161 182.544 25.0789 180.277 25.0789C178.011 25.0789 176.173 26.9161 176.173 29.1826C176.173 31.4491 178.011 33.2866 180.277 33.2866Z" fill="#FB7C26"/>
<path d="M164.154 33.0669C166.299 33.0669 168.038 31.3279 168.038 29.1828C168.038 27.0377 166.299 25.299 164.154 25.299C162.009 25.299 160.27 27.0377 160.27 29.1828C160.27 31.3279 162.009 33.0669 164.154 33.0669Z" fill="#FB7C26"/>
<path d="M147.96 33.0669C150.105 33.0669 151.844 31.3279 151.844 29.1828C151.844 27.0377 150.105 25.299 147.96 25.299C145.815 25.299 144.076 27.0377 144.076 29.1828C144.076 31.3279 145.815 33.0669 147.96 33.0669Z" fill="#FB7C26"/>
<path d="M131.838 32.5538C133.7 32.5538 135.209 31.0445 135.209 29.1827C135.209 27.3209 133.7 25.8118 131.838 25.8118C129.976 25.8118 128.467 27.3209 128.467 29.1827C128.467 31.0445 129.976 32.5538 131.838 32.5538Z" fill="#FB7C26"/>
<path d="M115.641 33.0669C117.786 33.0669 119.525 31.3279 119.525 29.1828C119.525 27.0377 117.786 25.299 115.641 25.299C113.496 25.299 111.757 27.0377 111.757 29.1828C111.757 31.3279 113.496 33.0669 115.641 33.0669Z" fill="#FB7C26"/>
<path d="M99.4451 32.7004C101.388 32.7004 102.963 31.1255 102.963 29.1827C102.963 27.24 101.388 25.6653 99.4451 25.6653C97.5024 25.6653 95.9273 27.24 95.9273 29.1827C95.9273 31.1255 97.5024 32.7004 99.4451 32.7004Z" fill="#FB7C26"/>
<path d="M83.3228 32.8468C85.3465 32.8468 86.987 31.2063 86.987 29.1826C86.987 27.1589 85.3465 25.5184 83.3228 25.5184C81.2991 25.5184 79.6586 27.1589 79.6586 29.1826C79.6586 31.2063 81.2991 32.8468 83.3228 32.8468Z" fill="#FB7C26"/>
<path d="M67.1273 32.5538C68.9891 32.5538 70.4984 31.0445 70.4984 29.1827C70.4984 27.3209 68.9891 25.8118 67.1273 25.8118C65.2656 25.8118 63.7562 27.3209 63.7562 29.1827C63.7562 31.0445 65.2656 32.5538 67.1273 32.5538Z" fill="#FB7C26"/>
<path d="M51.0054 32.1873C52.6648 32.1873 54.0101 30.842 54.0101 29.1826C54.0101 27.5232 52.6648 26.1781 51.0054 26.1781C49.346 26.1781 48.0007 27.5232 48.0007 29.1826C48.0007 30.842 49.346 32.1873 51.0054 32.1873Z" fill="#FB7C26"/>
<path d="M34.8102 32.5538C36.672 32.5538 38.1813 31.0445 38.1813 29.1827C38.1813 27.3209 36.672 25.8118 34.8102 25.8118C32.9484 25.8118 31.4391 27.3209 31.4391 29.1827C31.4391 31.0445 32.9484 32.5538 34.8102 32.5538Z" fill="#FB7C26"/>
<path d="M18.6121 30.7948C19.5026 30.7948 20.2245 30.0728 20.2245 29.1824C20.2245 28.292 19.5026 27.5702 18.6121 27.5702C17.7217 27.5702 17.0001 28.292 17.0001 29.1824C17.0001 30.0728 17.7217 30.7948 18.6121 30.7948Z" fill="#FB7C26"/>
<path d="M196.472 16.7245C198.536 16.7245 200.21 15.0513 200.21 12.9872C200.21 10.923 198.536 9.24963 196.472 9.24963C194.408 9.24963 192.735 10.923 192.735 12.9872C192.735 15.0513 194.408 16.7245 196.472 16.7245Z" fill="#FB7C26"/>
<path d="M180.276 16.5049C182.219 16.5049 183.794 14.93 183.794 12.9872C183.794 11.0445 182.219 9.4696 180.276 9.4696C178.333 9.4696 176.758 11.0445 176.758 12.9872C176.758 14.93 178.333 16.5049 180.276 16.5049Z" fill="#FB7C26"/>
<path d="M164.155 16.2119C165.935 16.2119 167.379 14.7683 167.379 12.9875C167.379 11.2067 165.935 9.76294 164.155 9.76294C162.374 9.76294 160.93 11.2067 160.93 12.9875C160.93 14.7683 162.374 16.2119 164.155 16.2119Z" fill="#FB7C26"/>
<path d="M147.958 17.1643C150.265 17.1643 152.135 15.2941 152.135 12.9872C152.135 10.6802 150.265 8.81006 147.958 8.81006C145.651 8.81006 143.781 10.6802 143.781 12.9872C143.781 15.2941 145.651 17.1643 147.958 17.1643Z" fill="#FB7C26"/>
<path d="M131.836 17.1643C134.143 17.1643 136.013 15.2941 136.013 12.9872C136.013 10.6802 134.143 8.81006 131.836 8.81006C129.529 8.81006 127.659 10.6802 127.659 12.9872C127.659 15.2941 129.529 17.1643 131.836 17.1643Z" fill="#FB7C26"/>
<path d="M115.641 16.8709C117.786 16.8709 119.525 15.1319 119.525 12.9868C119.525 10.8418 117.786 9.10278 115.641 9.10278C113.496 9.10278 111.757 10.8418 111.757 12.9868C111.757 15.1319 113.496 16.8709 115.641 16.8709Z" fill="#FB7C26"/>
<path d="M99.4462 16.358C101.308 16.358 102.817 14.8488 102.817 12.9871C102.817 11.1253 101.308 9.61597 99.4462 9.61597C97.5845 9.61597 96.0751 11.1253 96.0751 12.9871C96.0751 14.8488 97.5845 16.358 99.4462 16.358Z" fill="#FB7C26"/>
<path d="M83.3228 16.6506C85.3465 16.6506 86.987 15.0101 86.987 12.9864C86.987 10.9628 85.3465 9.32227 83.3228 9.32227C81.2991 9.32227 79.6586 10.9628 79.6586 12.9864C79.6586 15.0101 81.2991 16.6506 83.3228 16.6506Z" fill="#FB7C26"/>
<path d="M67.1277 16.5049C69.0705 16.5049 70.6452 14.93 70.6452 12.9872C70.6452 11.0445 69.0705 9.4696 67.1277 9.4696C65.185 9.4696 63.6103 11.0445 63.6103 12.9872C63.6103 14.93 65.185 16.5049 67.1277 16.5049Z" fill="#FB7C26"/>
<path d="M51.0058 16.138C52.7461 16.138 54.1568 14.7271 54.1568 12.9868C54.1568 11.2464 52.7461 9.83557 51.0058 9.83557C49.2654 9.83557 47.8547 11.2464 47.8547 12.9868C47.8547 14.7271 49.2654 16.138 51.0058 16.138Z" fill="#FB7C26"/>
<path d="M34.8102 16.358C36.672 16.358 38.1813 14.8488 38.1813 12.9871C38.1813 11.1253 36.672 9.61597 34.8102 9.61597C32.9484 9.61597 31.4391 11.1253 31.4391 12.9871C31.4391 14.8488 32.9484 16.358 34.8102 16.358Z" fill="#FB7C26"/>
<path d="M18.6121 14.5994C19.5026 14.5994 20.2245 13.8776 20.2245 12.9872C20.2245 12.0968 19.5026 11.375 18.6121 11.375C17.7217 11.375 17.0001 12.0968 17.0001 12.9872C17.0001 13.8776 17.7217 14.5994 18.6121 14.5994Z" fill="#FB7C26"/>
<path d="M196.474 1.04222C198.781 1.04222 200.651 -0.82792 200.651 -3.1349C200.651 -5.44187 198.781 -7.31201 196.474 -7.31201C194.167 -7.31201 192.296 -5.44187 192.296 -3.1349C192.296 -0.82792 194.167 1.04222 196.474 1.04222Z" fill="#FB7C26"/>
<path d="M180.276 0.748332C182.421 0.748332 184.16 -0.990638 184.16 -3.13572C184.16 -5.28081 182.421 -7.01978 180.276 -7.01978C178.131 -7.01978 176.392 -5.28081 176.392 -3.13572C176.392 -0.990638 178.131 0.748332 180.276 0.748332Z" fill="#FB7C26"/>
<path d="M164.154 0.748332C166.299 0.748332 168.038 -0.990638 168.038 -3.13572C168.038 -5.28081 166.299 -7.01978 164.154 -7.01978C162.009 -7.01978 160.27 -5.28081 160.27 -3.13572C160.27 -0.990638 162.009 0.748332 164.154 0.748332Z" fill="#FB7C26"/>
<path d="M147.959 0.528653C149.983 0.528653 151.623 -1.11185 151.623 -3.13551C151.623 -5.15918 149.983 -6.79968 147.959 -6.79968C145.935 -6.79968 144.295 -5.15918 144.295 -3.13551C144.295 -1.11185 145.935 0.528653 147.959 0.528653Z" fill="#FB7C26"/>
<path d="M131.836 0.748332C133.981 0.748332 135.72 -0.990638 135.72 -3.13572C135.72 -5.28081 133.981 -7.01978 131.836 -7.01978C129.691 -7.01978 127.952 -5.28081 127.952 -3.13572C127.952 -0.990638 129.691 0.748332 131.836 0.748332Z" fill="#FB7C26"/>
<path d="M115.641 0.748332C117.786 0.748332 119.525 -0.990638 119.525 -3.13572C119.525 -5.28081 117.786 -7.01978 115.641 -7.01978C113.496 -7.01978 111.757 -5.28081 111.757 -3.13572C111.757 -0.990638 113.496 0.748332 115.641 0.748332Z" fill="#FB7C26"/>
<path d="M99.4462 0.235563C101.308 0.235563 102.817 -1.27359 102.817 -3.13536C102.817 -4.99713 101.308 -6.50647 99.4462 -6.50647C97.5845 -6.50647 96.0751 -4.99713 96.0751 -3.13536C96.0751 -1.27359 97.5845 0.235563 99.4462 0.235563Z" fill="#FB7C26"/>
<path d="M83.3228 0.528653C85.3465 0.528653 86.987 -1.11185 86.987 -3.13551C86.987 -5.15918 85.3465 -6.79968 83.3228 -6.79968C81.2991 -6.79968 79.6586 -5.15918 79.6586 -3.13551C79.6586 -1.11185 81.2991 0.528653 83.3228 0.528653Z" fill="#FB7C26"/>
<path d="M67.1276 0.748332C69.2727 0.748332 71.0115 -0.990638 71.0115 -3.13572C71.0115 -5.28081 69.2727 -7.01978 67.1276 -7.01978C64.9826 -7.01978 63.2438 -5.28081 63.2438 -3.13572C63.2438 -0.990638 64.9826 0.748332 67.1276 0.748332Z" fill="#FB7C26"/>
<path d="M51.0055 0.748332C53.1506 0.748332 54.8894 -0.990638 54.8894 -3.13572C54.8894 -5.28081 53.1506 -7.01978 51.0055 -7.01978C48.8604 -7.01978 47.1216 -5.28081 47.1216 -3.13572C47.1216 -0.990638 48.8604 0.748332 51.0055 0.748332Z" fill="#FB7C26"/>
<path d="M34.8102 0.235563C36.672 0.235563 38.1813 -1.27359 38.1813 -3.13536C38.1813 -4.99713 36.672 -6.50647 34.8102 -6.50647C32.9484 -6.50647 31.4391 -4.99713 31.4391 -3.13536C31.4391 -1.27359 32.9484 0.235563 34.8102 0.235563Z" fill="#FB7C26"/>
<path d="M34.8094 224.63C35.6189 224.63 36.2751 223.973 36.2751 223.164C36.2751 222.354 35.6189 221.698 34.8094 221.698C34 221.698 33.3438 222.354 33.3438 223.164C33.3438 223.973 34 224.63 34.8094 224.63Z" fill="#FB7C26"/>
<path d="M67.1273 225.216C68.2605 225.216 69.1791 224.297 69.1791 223.164C69.1791 222.031 68.2605 221.112 67.1273 221.112C65.994 221.112 65.0755 222.031 65.0755 223.164C65.0755 224.297 65.994 225.216 67.1273 225.216Z" fill="#FB7C26"/>
<path d="M131.837 225.068C132.89 225.068 133.743 224.215 133.743 223.163C133.743 222.111 132.89 221.258 131.837 221.258C130.785 221.258 129.932 222.111 129.932 223.163C129.932 224.215 130.785 225.068 131.837 225.068Z" fill="#FB7C26"/>
<path d="M180.278 224.776C181.168 224.776 181.89 224.054 181.89 223.164C181.89 222.273 181.168 221.551 180.278 221.551C179.388 221.551 178.666 222.273 178.666 223.164C178.666 224.054 179.388 224.776 180.278 224.776Z" fill="#FB7C26"/>
<path d="M196.473 224.996C197.485 224.996 198.305 224.175 198.305 223.164C198.305 222.152 197.485 221.331 196.473 221.331C195.461 221.331 194.641 222.152 194.641 223.164C194.641 224.175 195.461 224.996 196.473 224.996Z" fill="#FB7C26"/>
<path d="M212.594 224.996C213.606 224.996 214.427 224.175 214.427 223.164C214.427 222.152 213.606 221.331 212.594 221.331C211.583 221.331 210.762 222.152 210.762 223.164C210.762 224.175 211.583 224.996 212.594 224.996Z" fill="#FB7C26"/>
<path d="M228.791 224.776C229.682 224.776 230.403 224.054 230.403 223.164C230.403 222.273 229.682 221.551 228.791 221.551C227.901 221.551 227.179 222.273 227.179 223.164C227.179 224.054 227.901 224.776 228.791 224.776Z" fill="#FB7C26"/>
<path d="M2.49134 208.654C3.42223 208.654 4.17707 207.899 4.17707 206.968C4.17707 206.037 3.42223 205.283 2.49134 205.283C1.56046 205.283 0.805969 206.037 0.805969 206.968C0.805969 207.899 1.56046 208.654 2.49134 208.654Z" fill="#FB7C26"/>
<path d="M18.6144 208.873C19.6667 208.873 20.5198 208.02 20.5198 206.968C20.5198 205.916 19.6667 205.062 18.6144 205.062C17.5621 205.062 16.7093 205.916 16.7093 206.968C16.7093 208.02 17.5621 208.873 18.6144 208.873Z" fill="#FB7C26"/>
<path d="M34.8098 208.873C35.8621 208.873 36.7152 208.02 36.7152 206.968C36.7152 205.916 35.8621 205.062 34.8098 205.062C33.7575 205.062 32.9044 205.916 32.9044 206.968C32.9044 208.02 33.7575 208.873 34.8098 208.873Z" fill="#FB7C26"/>
<path d="M51.0049 208.873C52.0572 208.873 52.9103 208.02 52.9103 206.968C52.9103 205.916 52.0572 205.062 51.0049 205.062C49.9526 205.062 49.0994 205.916 49.0994 206.968C49.0994 208.02 49.9526 208.873 51.0049 208.873Z" fill="#FB7C26"/>
<path d="M67.1274 208.654C68.0583 208.654 68.8128 207.899 68.8128 206.968C68.8128 206.037 68.0583 205.283 67.1274 205.283C66.1965 205.283 65.442 206.037 65.442 206.968C65.442 207.899 66.1965 208.654 67.1274 208.654Z" fill="#FB7C26"/>
<path d="M83.323 208.507C84.1729 208.507 84.862 207.818 84.862 206.968C84.862 206.118 84.1729 205.429 83.323 205.429C82.473 205.429 81.7839 206.118 81.7839 206.968C81.7839 207.818 82.473 208.507 83.323 208.507Z" fill="#FB7C26"/>
<path d="M115.641 209.386C116.976 209.386 118.059 208.303 118.059 206.968C118.059 205.632 116.976 204.549 115.641 204.549C114.305 204.549 113.222 205.632 113.222 206.968C113.222 208.303 114.305 209.386 115.641 209.386Z" fill="#FB7C26"/>
<path d="M131.837 208.433C132.646 208.433 133.302 207.777 133.302 206.968C133.302 206.158 132.646 205.502 131.837 205.502C131.027 205.502 130.371 206.158 130.371 206.968C130.371 207.777 131.027 208.433 131.837 208.433Z" fill="#FB7C26"/>
<path d="M147.96 209.24C149.215 209.24 150.232 208.223 150.232 206.968C150.232 205.713 149.215 204.696 147.96 204.696C146.705 204.696 145.689 205.713 145.689 206.968C145.689 208.223 146.705 209.24 147.96 209.24Z" fill="#FB7C26"/>
<path d="M164.154 208.8C165.166 208.8 165.986 207.98 165.986 206.968C165.986 205.956 165.166 205.136 164.154 205.136C163.143 205.136 162.322 205.956 162.322 206.968C162.322 207.98 163.143 208.8 164.154 208.8Z" fill="#FB7C26"/>
<path d="M180.276 208.287C181.004 208.287 181.595 207.697 181.595 206.968C181.595 206.24 181.004 205.649 180.276 205.649C179.547 205.649 178.957 206.24 178.957 206.968C178.957 207.697 179.547 208.287 180.276 208.287Z" fill="#FB7C26"/>
<path d="M196.474 209.313C197.769 209.313 198.819 208.264 198.819 206.968C198.819 205.673 197.769 204.623 196.474 204.623C195.179 204.623 194.129 205.673 194.129 206.968C194.129 208.264 195.179 209.313 196.474 209.313Z" fill="#FB7C26"/>
<path d="M212.594 208.8C213.606 208.8 214.427 207.98 214.427 206.968C214.427 205.956 213.606 205.136 212.594 205.136C211.583 205.136 210.762 205.956 210.762 206.968C210.762 207.98 211.583 208.8 212.594 208.8Z" fill="#FB7C26"/>
<path d="M228.791 208.58C229.682 208.58 230.403 207.858 230.403 206.968C230.403 206.077 229.682 205.356 228.791 205.356C227.901 205.356 227.179 206.077 227.179 206.968C227.179 207.858 227.901 208.58 228.791 208.58Z" fill="#FB7C26"/>
<path d="M18.6145 192.385C19.4644 192.385 20.1535 191.696 20.1535 190.846C20.1535 189.996 19.4644 189.307 18.6145 189.307C17.7645 189.307 17.0758 189.996 17.0758 190.846C17.0758 191.696 17.7645 192.385 18.6145 192.385Z" fill="#FB7C26"/>
<path d="M34.8094 192.312C35.6189 192.312 36.2751 191.656 36.2751 190.846C36.2751 190.037 35.6189 189.381 34.8094 189.381C34 189.381 33.3438 190.037 33.3438 190.846C33.3438 191.656 34 192.312 34.8094 192.312Z" fill="#FB7C26"/>
<path d="M51.0049 192.604C51.9762 192.604 52.7636 191.817 52.7636 190.846C52.7636 189.874 51.9762 189.087 51.0049 189.087C50.0335 189.087 49.2462 189.874 49.2462 190.846C49.2462 191.817 50.0335 192.604 51.0049 192.604Z" fill="#FB7C26"/>
<path d="M67.1273 192.898C68.2605 192.898 69.1791 191.979 69.1791 190.846C69.1791 189.713 68.2605 188.794 67.1273 188.794C65.994 188.794 65.0755 189.713 65.0755 190.846C65.0755 191.979 65.994 192.898 67.1273 192.898Z" fill="#FB7C26"/>
<path d="M83.3236 192.898C84.4568 192.898 85.3754 191.979 85.3754 190.846C85.3754 189.713 84.4568 188.794 83.3236 188.794C82.1903 188.794 81.2714 189.713 81.2714 190.846C81.2714 191.979 82.1903 192.898 83.3236 192.898Z" fill="#FB7C26"/>
<path d="M99.446 192.604C100.417 192.604 101.205 191.817 101.205 190.846C101.205 189.874 100.417 189.087 99.446 189.087C98.4746 189.087 97.6873 189.874 97.6873 190.846C97.6873 191.817 98.4746 192.604 99.446 192.604Z" fill="#FB7C26"/>
<path d="M115.641 192.604C116.613 192.604 117.4 191.817 117.4 190.846C117.4 189.874 116.613 189.087 115.641 189.087C114.67 189.087 113.882 189.874 113.882 190.846C113.882 191.817 114.67 192.604 115.641 192.604Z" fill="#FB7C26"/>
<path d="M131.836 192.458C132.726 192.458 133.448 191.736 133.448 190.845C133.448 189.955 132.726 189.233 131.836 189.233C130.946 189.233 130.224 189.955 130.224 190.845C130.224 191.736 130.946 192.458 131.836 192.458Z" fill="#FB7C26"/>
<path d="M147.96 193.117C149.215 193.117 150.232 192.1 150.232 190.845C150.232 189.591 149.215 188.574 147.96 188.574C146.705 188.574 145.689 189.591 145.689 190.845C145.689 192.1 146.705 193.117 147.96 193.117Z" fill="#FB7C26"/>
<path d="M164.155 192.458C165.046 192.458 165.767 191.736 165.767 190.845C165.767 189.955 165.046 189.233 164.155 189.233C163.265 189.233 162.543 189.955 162.543 190.845C162.543 191.736 163.265 192.458 164.155 192.458Z" fill="#FB7C26"/>
<path d="M180.278 192.458C181.168 192.458 181.89 191.736 181.89 190.845C181.89 189.955 181.168 189.233 180.278 189.233C179.388 189.233 178.666 189.955 178.666 190.845C178.666 191.736 179.388 192.458 180.278 192.458Z" fill="#FB7C26"/>
<path d="M196.473 192.165C197.202 192.165 197.792 191.575 197.792 190.846C197.792 190.118 197.202 189.527 196.473 189.527C195.745 189.527 195.155 190.118 195.155 190.846C195.155 191.575 195.745 192.165 196.473 192.165Z" fill="#FB7C26"/>
<path d="M212.596 192.825C213.689 192.825 214.575 191.939 214.575 190.846C214.575 189.753 213.689 188.867 212.596 188.867C211.503 188.867 210.617 189.753 210.617 190.846C210.617 191.939 211.503 192.825 212.596 192.825Z" fill="#FB7C26"/>
<path d="M228.791 192.458C229.682 192.458 230.403 191.736 230.403 190.845C230.403 189.955 229.682 189.233 228.791 189.233C227.901 189.233 227.179 189.955 227.179 190.845C227.179 191.736 227.901 192.458 228.791 192.458Z" fill="#FB7C26"/>
<path d="M18.6144 176.556C19.6667 176.556 20.5198 175.702 20.5198 174.65C20.5198 173.598 19.6667 172.745 18.6144 172.745C17.5621 172.745 16.7093 173.598 16.7093 174.65C16.7093 175.702 17.5621 176.556 18.6144 176.556Z" fill="#FB7C26"/>
<path d="M34.8106 176.995C36.1058 176.995 37.1558 175.945 37.1558 174.65C37.1558 173.355 36.1058 172.305 34.8106 172.305C33.5155 172.305 32.4658 173.355 32.4658 174.65C32.4658 175.945 33.5155 176.995 34.8106 176.995Z" fill="#FB7C26"/>
<path d="M51.0049 176.409C51.9762 176.409 52.7636 175.621 52.7636 174.65C52.7636 173.679 51.9762 172.891 51.0049 172.891C50.0335 172.891 49.2462 173.679 49.2462 174.65C49.2462 175.621 50.0335 176.409 51.0049 176.409Z" fill="#FB7C26"/>
<path d="M67.1273 176.263C68.0177 176.263 68.7396 175.541 68.7396 174.651C68.7396 173.76 68.0177 173.039 67.1273 173.039C66.2369 173.039 65.5149 173.76 65.5149 174.651C65.5149 175.541 66.2369 176.263 67.1273 176.263Z" fill="#FB7C26"/>
<path d="M83.3246 176.409C84.296 176.409 85.0834 175.621 85.0834 174.65C85.0834 173.679 84.296 172.891 83.3246 172.891C82.3533 172.891 81.5659 173.679 81.5659 174.65C81.5659 175.621 82.3533 176.409 83.3246 176.409Z" fill="#FB7C26"/>
<path d="M99.446 176.409C100.417 176.409 101.205 175.621 101.205 174.65C101.205 173.679 100.417 172.891 99.446 172.891C98.4746 172.891 97.6873 173.679 97.6873 174.65C97.6873 175.621 98.4746 176.409 99.446 176.409Z" fill="#FB7C26"/>
<path d="M115.64 176.263C116.531 176.263 117.252 175.541 117.252 174.651C117.252 173.76 116.531 173.039 115.64 173.039C114.75 173.039 114.028 173.76 114.028 174.651C114.028 175.541 114.75 176.263 115.64 176.263Z" fill="#FB7C26"/>
<path d="M131.836 176.995C133.131 176.995 134.181 175.945 134.181 174.65C134.181 173.355 133.131 172.305 131.836 172.305C130.541 172.305 129.491 173.355 129.491 174.65C129.491 175.945 130.541 176.995 131.836 176.995Z" fill="#FB7C26"/>
<path d="M147.959 176.042C148.728 176.042 149.352 175.419 149.352 174.65C149.352 173.881 148.728 173.258 147.959 173.258C147.19 173.258 146.567 173.881 146.567 174.65C146.567 175.419 147.19 176.042 147.959 176.042Z" fill="#FB7C26"/>
<path d="M164.154 176.482C165.166 176.482 165.986 175.661 165.986 174.65C165.986 173.638 165.166 172.818 164.154 172.818C163.143 172.818 162.322 173.638 162.322 174.65C162.322 175.661 163.143 176.482 164.154 176.482Z" fill="#FB7C26"/>
<path d="M180.277 176.482C181.289 176.482 182.109 175.661 182.109 174.65C182.109 173.638 181.289 172.818 180.277 172.818C179.265 172.818 178.445 173.638 178.445 174.65C178.445 175.661 179.265 176.482 180.277 176.482Z" fill="#FB7C26"/>
<path d="M196.473 176.629C197.566 176.629 198.452 175.743 198.452 174.65C198.452 173.557 197.566 172.672 196.473 172.672C195.381 172.672 194.495 173.557 194.495 174.65C194.495 175.743 195.381 176.629 196.473 176.629Z" fill="#FB7C26"/>
<path d="M212.596 176.629C213.689 176.629 214.575 175.743 214.575 174.65C214.575 173.557 213.689 172.672 212.596 172.672C211.503 172.672 210.617 173.557 210.617 174.65C210.617 175.743 211.503 176.629 212.596 176.629Z" fill="#FB7C26"/>
<path d="M228.791 176.629C229.884 176.629 230.77 175.743 230.77 174.65C230.77 173.557 229.884 172.672 228.791 172.672C227.699 172.672 226.813 173.557 226.813 174.65C226.813 175.743 227.699 176.629 228.791 176.629Z" fill="#FB7C26"/>
<path d="M18.6144 160.433C19.6667 160.433 20.5198 159.58 20.5198 158.528C20.5198 157.475 19.6667 156.622 18.6144 156.622C17.5621 156.622 16.7093 157.475 16.7093 158.528C16.7093 159.58 17.5621 160.433 18.6144 160.433Z" fill="#FB7C26"/>
<path d="M34.8106 160.873C36.1058 160.873 37.1558 159.823 37.1558 158.528C37.1558 157.233 36.1058 156.183 34.8106 156.183C33.5155 156.183 32.4658 157.233 32.4658 158.528C32.4658 159.823 33.5155 160.873 34.8106 160.873Z" fill="#FB7C26"/>
<path d="M51.005 161.239C52.5025 161.239 53.7166 160.025 53.7166 158.527C53.7166 157.03 52.5025 155.816 51.005 155.816C49.5075 155.816 48.2933 157.03 48.2933 158.527C48.2933 160.025 49.5075 161.239 51.005 161.239Z" fill="#FB7C26"/>
<path d="M67.128 160.873C68.4232 160.873 69.4733 159.823 69.4733 158.528C69.4733 157.233 68.4232 156.183 67.128 156.183C65.8329 156.183 64.7828 157.233 64.7828 158.528C64.7828 159.823 65.8329 160.873 67.128 160.873Z" fill="#FB7C26"/>
<path d="M83.3236 161.605C85.0235 161.605 86.4013 160.227 86.4013 158.527C86.4013 156.827 85.0235 155.449 83.3236 155.449C81.6238 155.449 80.2456 156.827 80.2456 158.527C80.2456 160.227 81.6238 161.605 83.3236 161.605Z" fill="#FB7C26"/>
<path d="M99.4451 161.239C100.943 161.239 102.156 160.025 102.156 158.527C102.156 157.03 100.943 155.816 99.4451 155.816C97.9476 155.816 96.7335 157.03 96.7335 158.527C96.7335 160.025 97.9476 161.239 99.4451 161.239Z" fill="#FB7C26"/>
<path d="M115.641 161.239C117.138 161.239 118.352 160.025 118.352 158.527C118.352 157.03 117.138 155.816 115.641 155.816C114.143 155.816 112.929 157.03 112.929 158.527C112.929 160.025 114.143 161.239 115.641 161.239Z" fill="#FB7C26"/>
<path d="M131.836 160.873C133.131 160.873 134.181 159.823 134.181 158.528C134.181 157.233 133.131 156.183 131.836 156.183C130.541 156.183 129.491 157.233 129.491 158.528C129.491 159.823 130.541 160.873 131.836 160.873Z" fill="#FB7C26"/>
<path d="M147.96 161.166C149.417 161.166 150.598 159.985 150.598 158.528C150.598 157.071 149.417 155.89 147.96 155.89C146.503 155.89 145.322 157.071 145.322 158.528C145.322 159.985 146.503 161.166 147.96 161.166Z" fill="#FB7C26"/>
<path d="M164.154 161.019C165.53 161.019 166.645 159.903 166.645 158.527C166.645 157.151 165.53 156.035 164.154 156.035C162.778 156.035 161.662 157.151 161.662 158.527C161.662 159.903 162.778 161.019 164.154 161.019Z" fill="#FB7C26"/>
<path d="M180.277 160.36C181.289 160.36 182.109 159.539 182.109 158.528C182.109 157.516 181.289 156.696 180.277 156.696C179.265 156.696 178.445 157.516 178.445 158.528C178.445 159.539 179.265 160.36 180.277 160.36Z" fill="#FB7C26"/>
<path d="M196.474 160.873C197.769 160.873 198.819 159.823 198.819 158.528C198.819 157.233 197.769 156.183 196.474 156.183C195.179 156.183 194.129 157.233 194.129 158.528C194.129 159.823 195.179 160.873 196.474 160.873Z" fill="#FB7C26"/>
<path d="M212.595 161.532C214.254 161.532 215.599 160.187 215.599 158.528C215.599 156.868 214.254 155.523 212.595 155.523C210.935 155.523 209.59 156.868 209.59 158.528C209.59 160.187 210.935 161.532 212.595 161.532Z" fill="#FB7C26"/>
<path d="M228.792 160.653C229.966 160.653 230.917 159.701 230.917 158.527C230.917 157.354 229.966 156.402 228.792 156.402C227.618 156.402 226.667 157.354 226.667 158.527C226.667 159.701 227.618 160.653 228.792 160.653Z" fill="#FB7C26"/>
<path d="M18.612 144.311C19.7048 144.311 20.5908 143.425 20.5908 142.333C20.5908 141.24 19.7048 140.354 18.612 140.354C17.5193 140.354 16.6336 141.24 16.6336 142.333C16.6336 143.425 17.5193 144.311 18.612 144.311Z" fill="#FB7C26"/>
<path d="M34.8106 144.677C36.1058 144.677 37.1558 143.627 37.1558 142.332C37.1558 141.037 36.1058 139.987 34.8106 139.987C33.5155 139.987 32.4658 141.037 32.4658 142.332C32.4658 143.627 33.5155 144.677 34.8106 144.677Z" fill="#FB7C26"/>
<path d="M51.0059 145.264C52.6249 145.264 53.9373 143.951 53.9373 142.332C53.9373 140.713 52.6249 139.401 51.0059 139.401C49.387 139.401 48.0746 140.713 48.0746 142.332C48.0746 143.951 49.387 145.264 51.0059 145.264Z" fill="#FB7C26"/>
<path d="M67.1282 144.311C68.221 144.311 69.107 143.425 69.107 142.333C69.107 141.24 68.221 140.354 67.1282 140.354C66.0354 140.354 65.1494 141.24 65.1494 142.333C65.1494 143.425 66.0354 144.311 67.1282 144.311Z" fill="#FB7C26"/>
<path d="M83.3231 145.264C84.942 145.264 86.2544 143.951 86.2544 142.332C86.2544 140.713 84.942 139.401 83.3231 139.401C81.7041 139.401 80.3917 140.713 80.3917 142.332C80.3917 143.951 81.7041 145.264 83.3231 145.264Z" fill="#FB7C26"/>
<path d="M99.4465 144.751C100.782 144.751 101.865 143.668 101.865 142.332C101.865 140.997 100.782 139.914 99.4465 139.914C98.1109 139.914 97.028 140.997 97.028 142.332C97.028 143.668 98.1109 144.751 99.4465 144.751Z" fill="#FB7C26"/>
<path d="M115.641 144.677C116.936 144.677 117.986 143.627 117.986 142.332C117.986 141.037 116.936 139.987 115.641 139.987C114.346 139.987 113.296 141.037 113.296 142.332C113.296 143.627 114.346 144.677 115.641 144.677Z" fill="#FB7C26"/>
<path d="M131.836 144.751C133.172 144.751 134.255 143.668 134.255 142.332C134.255 140.997 133.172 139.914 131.836 139.914C130.501 139.914 129.418 140.997 129.418 142.332C129.418 143.668 130.501 144.751 131.836 144.751Z" fill="#FB7C26"/>
<path d="M147.959 144.751C149.295 144.751 150.378 143.668 150.378 142.332C150.378 140.997 149.295 139.914 147.959 139.914C146.624 139.914 145.541 140.997 145.541 142.332C145.541 143.668 146.624 144.751 147.959 144.751Z" fill="#FB7C26"/>
<path d="M164.154 144.53C165.369 144.53 166.353 143.546 166.353 142.332C166.353 141.118 165.369 140.133 164.154 140.133C162.94 140.133 161.956 141.118 161.956 142.332C161.956 143.546 162.94 144.53 164.154 144.53Z" fill="#FB7C26"/>
<path d="M180.277 145.337C181.936 145.337 183.281 143.991 183.281 142.332C183.281 140.673 181.936 139.327 180.277 139.327C178.617 139.327 177.272 140.673 177.272 142.332C177.272 143.991 178.617 145.337 180.277 145.337Z" fill="#FB7C26"/>
<path d="M196.472 144.238C197.524 144.238 198.377 143.385 198.377 142.333C198.377 141.28 197.524 140.427 196.472 140.427C195.42 140.427 194.567 141.28 194.567 142.333C194.567 143.385 195.42 144.238 196.472 144.238Z" fill="#FB7C26"/>
<path d="M212.594 144.53C213.809 144.53 214.793 143.546 214.793 142.332C214.793 141.118 213.809 140.133 212.594 140.133C211.38 140.133 210.396 141.118 210.396 142.332C210.396 143.546 211.38 144.53 212.594 144.53Z" fill="#FB7C26"/>
<path d="M228.789 145.337C230.449 145.337 231.794 143.991 231.794 142.332C231.794 140.673 230.449 139.327 228.789 139.327C227.13 139.327 225.785 140.673 225.785 142.332C225.785 143.991 227.13 145.337 228.789 145.337Z" fill="#FB7C26"/>
<path d="M34.8096 128.701C36.1856 128.701 37.3011 127.586 37.3011 126.21C37.3011 124.834 36.1856 123.718 34.8096 123.718C33.4335 123.718 32.318 124.834 32.318 126.21C32.318 127.586 33.4335 128.701 34.8096 128.701Z" fill="#FB7C26"/>
<path d="M51.0046 128.701C52.3807 128.701 53.4961 127.586 53.4961 126.21C53.4961 124.834 52.3807 123.718 51.0046 123.718C49.6285 123.718 48.513 124.834 48.513 126.21C48.513 127.586 49.6285 128.701 51.0046 128.701Z" fill="#FB7C26"/>
<path d="M67.1258 128.701C68.5019 128.701 69.6174 127.586 69.6174 126.21C69.6174 124.834 68.5019 123.718 67.1258 123.718C65.7497 123.718 64.6343 124.834 64.6343 126.21C64.6343 127.586 65.7497 128.701 67.1258 128.701Z" fill="#FB7C26"/>
<path d="M83.3231 129.141C84.942 129.141 86.2544 127.829 86.2544 126.21C86.2544 124.591 84.942 123.279 83.3231 123.279C81.7041 123.279 80.3917 124.591 80.3917 126.21C80.3917 127.829 81.7041 129.141 83.3231 129.141Z" fill="#FB7C26"/>
<path d="M99.446 127.968C100.417 127.968 101.205 127.181 101.205 126.209C101.205 125.238 100.417 124.451 99.446 124.451C98.4746 124.451 97.6873 125.238 97.6873 126.209C97.6873 127.181 98.4746 127.968 99.446 127.968Z" fill="#FB7C26"/>
<path d="M115.641 128.921C117.138 128.921 118.352 127.707 118.352 126.21C118.352 124.712 117.138 123.498 115.641 123.498C114.143 123.498 112.929 124.712 112.929 126.21C112.929 127.707 114.143 128.921 115.641 128.921Z" fill="#FB7C26"/>
<path d="M131.836 128.921C133.333 128.921 134.547 127.707 134.547 126.21C134.547 124.712 133.333 123.498 131.836 123.498C130.338 123.498 129.124 124.712 129.124 126.21C129.124 127.707 130.338 128.921 131.836 128.921Z" fill="#FB7C26"/>
<path d="M147.958 128.921C149.455 128.921 150.669 127.707 150.669 126.21C150.669 124.712 149.455 123.498 147.958 123.498C146.46 123.498 145.246 124.712 145.246 126.21C145.246 127.707 146.46 128.921 147.958 128.921Z" fill="#FB7C26"/>
<path d="M164.154 128.701C165.53 128.701 166.645 127.586 166.645 126.21C166.645 124.834 165.53 123.718 164.154 123.718C162.778 123.718 161.662 124.834 161.662 126.21C161.662 127.586 162.778 128.701 164.154 128.701Z" fill="#FB7C26"/>
<path d="M180.278 128.189C181.371 128.189 182.257 127.303 182.257 126.21C182.257 125.117 181.371 124.231 180.278 124.231C179.185 124.231 178.299 125.117 178.299 126.21C178.299 127.303 179.185 128.189 180.278 128.189Z" fill="#FB7C26"/>
<path d="M196.474 129.654C198.376 129.654 199.918 128.112 199.918 126.21C199.918 124.308 198.376 122.766 196.474 122.766C194.571 122.766 193.029 124.308 193.029 126.21C193.029 128.112 194.571 129.654 196.474 129.654Z" fill="#FB7C26"/>
<path d="M212.595 129.215C214.254 129.215 215.599 127.869 215.599 126.21C215.599 124.551 214.254 123.205 212.595 123.205C210.935 123.205 209.59 124.551 209.59 126.21C209.59 127.869 210.935 129.215 212.595 129.215Z" fill="#FB7C26"/>
<path d="M228.79 128.775C230.207 128.775 231.355 127.627 231.355 126.21C231.355 124.793 230.207 123.645 228.79 123.645C227.374 123.645 226.225 124.793 226.225 126.21C226.225 127.627 227.374 128.775 228.79 128.775Z" fill="#FB7C26"/>
<path d="M34.8098 111.92C35.8621 111.92 36.7152 111.066 36.7152 110.014C36.7152 108.962 35.8621 108.109 34.8098 108.109C33.7575 108.109 32.9044 108.962 32.9044 110.014C32.9044 111.066 33.7575 111.92 34.8098 111.92Z" fill="#FB7C26"/>
<path d="M51.0049 111.92C52.0572 111.92 52.9103 111.066 52.9103 110.014C52.9103 108.962 52.0572 108.109 51.0049 108.109C49.9526 108.109 49.0994 108.962 49.0994 110.014C49.0994 111.066 49.9526 111.92 51.0049 111.92Z" fill="#FB7C26"/>
<path d="M67.1277 111.92C68.18 111.92 69.0332 111.066 69.0332 110.014C69.0332 108.962 68.18 108.109 67.1277 108.109C66.0754 108.109 65.2223 108.962 65.2223 110.014C65.2223 111.066 66.0754 111.92 67.1277 111.92Z" fill="#FB7C26"/>
<path d="M83.3223 112.213C84.5365 112.213 85.5208 111.228 85.5208 110.014C85.5208 108.8 84.5365 107.816 83.3223 107.816C82.1081 107.816 81.1238 108.8 81.1238 110.014C81.1238 111.228 82.1081 112.213 83.3223 112.213Z" fill="#FB7C26"/>
<path d="M99.4465 112.432C100.782 112.432 101.865 111.35 101.865 110.014C101.865 108.678 100.782 107.596 99.4465 107.596C98.1109 107.596 97.028 108.678 97.028 110.014C97.028 111.35 98.1109 112.432 99.4465 112.432Z" fill="#FB7C26"/>
<path d="M115.641 112.946C117.26 112.946 118.572 111.633 118.572 110.014C118.572 108.395 117.26 107.083 115.641 107.083C114.022 107.083 112.71 108.395 112.71 110.014C112.71 111.633 114.022 112.946 115.641 112.946Z" fill="#FB7C26"/>
<path d="M131.837 112.946C133.456 112.946 134.768 111.633 134.768 110.014C134.768 108.395 133.456 107.083 131.837 107.083C130.218 107.083 128.906 108.395 128.906 110.014C128.906 111.633 130.218 112.946 131.837 112.946Z" fill="#FB7C26"/>
<path d="M147.96 113.018C149.619 113.018 150.965 111.673 150.965 110.014C150.965 108.354 149.619 107.009 147.96 107.009C146.3 107.009 144.956 108.354 144.956 110.014C144.956 111.673 146.3 113.018 147.96 113.018Z" fill="#FB7C26"/>
<path d="M164.154 112.213C165.369 112.213 166.353 111.228 166.353 110.014C166.353 108.8 165.369 107.816 164.154 107.816C162.94 107.816 161.956 108.8 161.956 110.014C161.956 111.228 162.94 112.213 164.154 112.213Z" fill="#FB7C26"/>
<path d="M180.277 111.846C181.289 111.846 182.109 111.026 182.109 110.014C182.109 109.002 181.289 108.182 180.277 108.182C179.265 108.182 178.445 109.002 178.445 110.014C178.445 111.026 179.265 111.846 180.277 111.846Z" fill="#FB7C26"/>
<path d="M196.474 113.458C198.376 113.458 199.918 111.916 199.918 110.014C199.918 108.112 198.376 106.57 196.474 106.57C194.571 106.57 193.029 108.112 193.029 110.014C193.029 111.916 194.571 113.458 196.474 113.458Z" fill="#FB7C26"/>
<path d="M212.594 112.213C213.809 112.213 214.793 111.228 214.793 110.014C214.793 108.8 213.809 107.816 212.594 107.816C211.38 107.816 210.396 108.8 210.396 110.014C210.396 111.228 211.38 112.213 212.594 112.213Z" fill="#FB7C26"/>
<path d="M228.789 113.018C230.449 113.018 231.794 111.673 231.794 110.014C231.794 108.354 230.449 107.009 228.789 107.009C227.13 107.009 225.785 108.354 225.785 110.014C225.785 111.673 227.13 113.018 228.789 113.018Z" fill="#FB7C26"/>
<path d="M18.6144 95.7235C19.6667 95.7235 20.5198 94.8706 20.5198 93.8183C20.5198 92.766 19.6667 91.9128 18.6144 91.9128C17.5621 91.9128 16.7093 92.766 16.7093 93.8183C16.7093 94.8706 17.5621 95.7235 18.6144 95.7235Z" fill="#FB7C26"/>
<path d="M34.8096 96.3101C36.1856 96.3101 37.3011 95.1946 37.3011 93.8185C37.3011 92.4424 36.1856 91.3268 34.8096 91.3268C33.4335 91.3268 32.318 92.4424 32.318 93.8185C32.318 95.1946 33.4335 96.3101 34.8096 96.3101Z" fill="#FB7C26"/>
<path d="M51.0046 96.3101C52.3807 96.3101 53.4961 95.1946 53.4961 93.8185C53.4961 92.4424 52.3807 91.3268 51.0046 91.3268C49.6285 91.3268 48.513 92.4424 48.513 93.8185C48.513 95.1946 49.6285 96.3101 51.0046 96.3101Z" fill="#FB7C26"/>
<path d="M67.1277 96.8968C68.8276 96.8968 70.2058 95.5188 70.2058 93.8189C70.2058 92.119 68.8276 90.7408 67.1277 90.7408C65.4278 90.7408 64.0497 92.119 64.0497 93.8189C64.0497 95.5188 65.4278 96.8968 67.1277 96.8968Z" fill="#FB7C26"/>
<path d="M83.3231 96.7499C84.942 96.7499 86.2544 95.4375 86.2544 93.8185C86.2544 92.1996 84.942 90.8872 83.3231 90.8872C81.7041 90.8872 80.3917 92.1996 80.3917 93.8185C80.3917 95.4375 81.7041 96.7499 83.3231 96.7499Z" fill="#FB7C26"/>
<path d="M99.446 95.5772C100.417 95.5772 101.205 94.7898 101.205 93.8185C101.205 92.8471 100.417 92.0596 99.446 92.0596C98.4746 92.0596 97.6873 92.8471 97.6873 93.8185C97.6873 94.7898 98.4746 95.5772 99.446 95.5772Z" fill="#FB7C26"/>
<path d="M115.641 96.7499C117.26 96.7499 118.572 95.4375 118.572 93.8185C118.572 92.1996 117.26 90.8872 115.641 90.8872C114.022 90.8872 112.71 92.1996 112.71 93.8185C112.71 95.4375 114.022 96.7499 115.641 96.7499Z" fill="#FB7C26"/>
<path d="M131.836 97.3364C133.779 97.3364 135.354 95.7616 135.354 93.8189C135.354 91.8762 133.779 90.3013 131.836 90.3013C129.893 90.3013 128.318 91.8762 128.318 93.8189C128.318 95.7616 129.893 97.3364 131.836 97.3364Z" fill="#FB7C26"/>
<path d="M147.96 96.8227C149.619 96.8227 150.965 95.4776 150.965 93.8182C150.965 92.1588 149.619 90.8135 147.96 90.8135C146.3 90.8135 144.956 92.1588 144.956 93.8182C144.956 95.4776 146.3 96.8227 147.96 96.8227Z" fill="#FB7C26"/>
<path d="M164.155 97.3364C166.097 97.3364 167.673 95.7616 167.673 93.8189C167.673 91.8762 166.097 90.3013 164.155 90.3013C162.212 90.3013 160.637 91.8762 160.637 93.8189C160.637 95.7616 162.212 97.3364 164.155 97.3364Z" fill="#FB7C26"/>
<path d="M180.276 97.3364C182.219 97.3364 183.794 95.7616 183.794 93.8189C183.794 91.8762 182.219 90.3013 180.276 90.3013C178.333 90.3013 176.758 91.8762 176.758 93.8189C176.758 95.7616 178.333 97.3364 180.276 97.3364Z" fill="#FB7C26"/>
<path d="M196.472 97.556C198.536 97.556 200.21 95.8828 200.21 93.8187C200.21 91.7546 198.536 90.0812 196.472 90.0812C194.408 90.0812 192.735 91.7546 192.735 93.8187C192.735 95.8828 194.408 97.556 196.472 97.556Z" fill="#FB7C26"/>
<path d="M212.594 96.3835C214.011 96.3835 215.159 95.2351 215.159 93.8186C215.159 92.402 214.011 91.2537 212.594 91.2537C211.178 91.2537 210.029 92.402 210.029 93.8186C210.029 95.2351 211.178 96.3835 212.594 96.3835Z" fill="#FB7C26"/>
<path d="M228.791 97.043C230.572 97.043 232.016 95.5994 232.016 93.8186C232.016 92.0377 230.572 90.594 228.791 90.594C227.01 90.594 225.567 92.0377 225.567 93.8186C225.567 95.5994 227.01 97.043 228.791 97.043Z" fill="#FB7C26"/>
<path d="M228.79 65.0178C230.733 65.0178 232.308 63.4429 232.308 61.5002C232.308 59.5575 230.733 57.9825 228.79 57.9825C226.847 57.9825 225.272 59.5575 225.272 61.5002C225.272 63.4429 226.847 65.0178 228.79 65.0178Z" fill="#FB7C26"/>
<path d="M212.595 65.0178C214.538 65.0178 216.112 63.4429 216.112 61.5002C216.112 59.5575 214.538 57.9825 212.595 57.9825C210.652 57.9825 209.077 59.5575 209.077 61.5002C209.077 63.4429 210.652 65.0178 212.595 65.0178Z" fill="#FB7C26"/>
<path d="M196.472 65.238C198.536 65.238 200.21 63.5646 200.21 61.5005C200.21 59.4363 198.536 57.7629 196.472 57.7629C194.408 57.7629 192.735 59.4363 192.735 61.5005C192.735 63.5646 194.408 65.238 196.472 65.238Z" fill="#FB7C26"/>
<path d="M180.278 64.0653C181.695 64.0653 182.843 62.9169 182.843 61.5003C182.843 60.0838 181.695 58.9354 180.278 58.9354C178.862 58.9354 177.713 60.0838 177.713 61.5003C177.713 62.9169 178.862 64.0653 180.278 64.0653Z" fill="#FB7C26"/>
<path d="M164.155 64.7245C165.935 64.7245 167.379 63.281 167.379 61.5002C167.379 59.7193 165.935 58.2758 164.155 58.2758C162.374 58.2758 160.93 59.7193 160.93 61.5002C160.93 63.281 162.374 64.7245 164.155 64.7245Z" fill="#FB7C26"/>
<path d="M147.959 63.919C149.295 63.919 150.378 62.8363 150.378 61.5007C150.378 60.165 149.295 59.0823 147.959 59.0823C146.624 59.0823 145.541 60.165 145.541 61.5007C145.541 62.8363 146.624 63.919 147.959 63.919Z" fill="#FB7C26"/>
<path d="M131.837 64.0653C133.254 64.0653 134.402 62.9169 134.402 61.5003C134.402 60.0838 133.254 58.9354 131.837 58.9354C130.421 58.9354 129.272 60.0838 129.272 61.5003C129.272 62.9169 130.421 64.0653 131.837 64.0653Z" fill="#FB7C26"/>
<path d="M115.641 65.3843C117.786 65.3843 119.525 63.6453 119.525 61.5003C119.525 59.3552 117.786 57.6162 115.641 57.6162C113.496 57.6162 111.757 59.3552 111.757 61.5003C111.757 63.6453 113.496 65.3843 115.641 65.3843Z" fill="#FB7C26"/>
<path d="M99.4455 64.6523C101.186 64.6523 102.597 63.2414 102.597 61.5011C102.597 59.7607 101.186 58.3499 99.4455 58.3499C97.7051 58.3499 96.2941 59.7607 96.2941 61.5011C96.2941 63.2414 97.7051 64.6523 99.4455 64.6523Z" fill="#FB7C26"/>
<path d="M83.3228 65.165C85.3465 65.165 86.987 63.5245 86.987 61.5008C86.987 59.4772 85.3465 57.8367 83.3228 57.8367C81.2991 57.8367 79.6586 59.4772 79.6586 61.5008C79.6586 63.5245 81.2991 65.165 83.3228 65.165Z" fill="#FB7C26"/>
<path d="M67.1273 64.8716C68.9891 64.8716 70.4984 63.3623 70.4984 61.5005C70.4984 59.6387 68.9891 58.1294 67.1273 58.1294C65.2656 58.1294 63.7562 59.6387 63.7562 61.5005C63.7562 63.3623 65.2656 64.8716 67.1273 64.8716Z" fill="#FB7C26"/>
<path d="M51.0058 64.6523C52.7461 64.6523 54.1568 63.2414 54.1568 61.5011C54.1568 59.7607 52.7461 58.3499 51.0058 58.3499C49.2654 58.3499 47.8547 59.7607 47.8547 61.5011C47.8547 63.2414 49.2654 64.6523 51.0058 64.6523Z" fill="#FB7C26"/>
<path d="M34.8102 64.8716C36.672 64.8716 38.1813 63.3623 38.1813 61.5005C38.1813 59.6387 36.672 58.1294 34.8102 58.1294C32.9484 58.1294 31.4391 59.6387 31.4391 61.5005C31.4391 63.3623 32.9484 64.8716 34.8102 64.8716Z" fill="#FB7C26"/>
<path d="M18.6121 63.1132C19.5026 63.1132 20.2245 62.3914 20.2245 61.501C20.2245 60.6106 19.5026 59.8888 18.6121 59.8888C17.7217 59.8888 17.0001 60.6106 17.0001 61.501C17.0001 62.3914 17.7217 63.1132 18.6121 63.1132Z" fill="#FB7C26"/>
<path d="M228.79 81.2143C230.733 81.2143 232.308 79.6396 232.308 77.6968C232.308 75.7541 230.733 74.1792 228.79 74.1792C226.847 74.1792 225.272 75.7541 225.272 77.6968C225.272 79.6396 226.847 81.2143 228.79 81.2143Z" fill="#FB7C26"/>
<path d="M212.595 81.2143C214.538 81.2143 216.112 79.6396 216.112 77.6968C216.112 75.7541 214.538 74.1792 212.595 74.1792C210.652 74.1792 209.077 75.7541 209.077 77.6968C209.077 79.6396 210.652 81.2143 212.595 81.2143Z" fill="#FB7C26"/>
<path d="M196.472 81.4336C198.536 81.4336 200.21 79.7604 200.21 77.6963C200.21 75.6321 198.536 73.9587 196.472 73.9587C194.408 73.9587 192.735 75.6321 192.735 77.6963C192.735 79.7604 194.408 81.4336 196.472 81.4336Z" fill="#FB7C26"/>
<path d="M180.278 80.2609C181.695 80.2609 182.843 79.1126 182.843 77.696C182.843 76.2795 181.695 75.1311 180.278 75.1311C178.862 75.1311 177.713 76.2795 177.713 77.696C177.713 79.1126 178.862 80.2609 180.278 80.2609Z" fill="#FB7C26"/>
<path d="M164.155 80.9204C165.935 80.9204 167.379 79.4768 167.379 77.696C167.379 75.9152 165.935 74.4714 164.155 74.4714C162.374 74.4714 160.93 75.9152 160.93 77.696C160.93 79.4768 162.374 80.9204 164.155 80.9204Z" fill="#FB7C26"/>
<path d="M147.959 80.1145C149.295 80.1145 150.378 79.032 150.378 77.6963C150.378 76.3607 149.295 75.278 147.959 75.278C146.624 75.278 145.541 76.3607 145.541 77.6963C145.541 79.032 146.624 80.1145 147.959 80.1145Z" fill="#FB7C26"/>
<path d="M131.837 80.2609C133.254 80.2609 134.402 79.1126 134.402 77.696C134.402 76.2795 133.254 75.1311 131.837 75.1311C130.421 75.1311 129.272 76.2795 129.272 77.696C129.272 79.1126 130.421 80.2609 131.837 80.2609Z" fill="#FB7C26"/>
<path d="M115.641 81.5807C117.786 81.5807 119.525 79.8419 119.525 77.6968C119.525 75.5517 117.786 73.8127 115.641 73.8127C113.496 73.8127 111.757 75.5517 111.757 77.6968C111.757 79.8419 113.496 81.5807 115.641 81.5807Z" fill="#FB7C26"/>
<path d="M99.4455 80.8469C101.186 80.8469 102.597 79.4362 102.597 77.6959C102.597 75.9555 101.186 74.5447 99.4455 74.5447C97.7051 74.5447 96.2941 75.9555 96.2941 77.6959C96.2941 79.4362 97.7051 80.8469 99.4455 80.8469Z" fill="#FB7C26"/>
<path d="M83.3228 81.3602C85.3465 81.3602 86.987 79.7197 86.987 77.696C86.987 75.6724 85.3465 74.0319 83.3228 74.0319C81.2991 74.0319 79.6586 75.6724 79.6586 77.696C79.6586 79.7197 81.2991 81.3602 83.3228 81.3602Z" fill="#FB7C26"/>
<path d="M67.1273 81.0671C68.9891 81.0671 70.4984 79.558 70.4984 77.6962C70.4984 75.8344 68.9891 74.3251 67.1273 74.3251C65.2656 74.3251 63.7562 75.8344 63.7562 77.6962C63.7562 79.558 65.2656 81.0671 67.1273 81.0671Z" fill="#FB7C26"/>
<path d="M51.0058 80.8469C52.7461 80.8469 54.1568 79.4362 54.1568 77.6959C54.1568 75.9555 52.7461 74.5447 51.0058 74.5447C49.2654 74.5447 47.8547 75.9555 47.8547 77.6959C47.8547 79.4362 49.2654 80.8469 51.0058 80.8469Z" fill="#FB7C26"/>
<path d="M34.8102 81.0671C36.672 81.0671 38.1813 79.558 38.1813 77.6962C38.1813 75.8344 36.672 74.3251 34.8102 74.3251C32.9484 74.3251 31.4391 75.8344 31.4391 77.6962C31.4391 79.558 32.9484 81.0671 34.8102 81.0671Z" fill="#FB7C26"/>
<path d="M18.6121 79.3086C19.5026 79.3086 20.2245 78.5868 20.2245 77.6964C20.2245 76.8059 19.5026 76.084 18.6121 76.084C17.7217 76.084 17.0001 76.8059 17.0001 77.6964C17.0001 78.5868 17.7217 79.3086 18.6121 79.3086Z" fill="#FB7C26"/>
</svg>
