<svg width="375" height="223" viewBox="0 0 375 223" fill="none" xmlns="http://www.w3.org/2000/svg">
<path d="M348.576 222.216C349.709 222.216 350.627 221.297 350.627 220.164C350.627 219.031 349.709 218.112 348.576 218.112C347.442 218.112 346.523 219.031 346.523 220.164C346.523 221.297 347.442 222.216 348.576 222.216Z" fill="#FB7C26"/>
<path d="M283.94 222.068C284.992 222.068 285.845 221.215 285.845 220.163C285.845 219.111 284.992 218.258 283.94 218.258C282.887 218.258 282.034 219.111 282.034 220.163C282.034 221.215 282.887 222.068 283.94 222.068Z" fill="#FB7C26"/>
<path d="M235.425 221.776C236.316 221.776 237.038 221.054 237.038 220.164C237.038 219.273 236.316 218.551 235.425 218.551C234.535 218.551 233.813 219.273 233.813 220.164C233.813 221.054 234.535 221.776 235.425 221.776Z" fill="#FB7C26"/>
<path d="M219.304 221.996C220.316 221.996 221.136 221.175 221.136 220.164C221.136 219.152 220.316 218.331 219.304 218.331C218.292 218.331 217.472 219.152 217.472 220.164C217.472 221.175 218.292 221.996 219.304 221.996Z" fill="#FB7C26"/>
<path d="M203.108 221.996C204.12 221.996 204.941 221.175 204.941 220.164C204.941 219.152 204.12 218.331 203.108 218.331C202.097 218.331 201.276 219.152 201.276 220.164C201.276 221.175 202.097 221.996 203.108 221.996Z" fill="#FB7C26"/>
<path d="M186.986 221.776C187.877 221.776 188.598 221.054 188.598 220.164C188.598 219.273 187.877 218.551 186.986 218.551C186.096 218.551 185.374 219.273 185.374 220.164C185.374 221.054 186.096 221.776 186.986 221.776Z" fill="#FB7C26"/>
<path d="M364.771 205.873C365.824 205.873 366.677 205.02 366.677 203.968C366.677 202.916 365.824 202.062 364.771 202.062C363.719 202.062 362.866 202.916 362.866 203.968C362.866 205.02 363.719 205.873 364.771 205.873Z" fill="#FB7C26"/>
<path d="M348.576 205.654C349.507 205.654 350.262 204.899 350.262 203.968C350.262 203.037 349.507 202.283 348.576 202.283C347.645 202.283 346.891 203.037 346.891 203.968C346.891 204.899 347.645 205.654 348.576 205.654Z" fill="#FB7C26"/>
<path d="M332.452 205.507C333.302 205.507 333.991 204.818 333.991 203.968C333.991 203.118 333.302 202.429 332.452 202.429C331.602 202.429 330.913 203.118 330.913 203.968C330.913 204.818 331.602 205.507 332.452 205.507Z" fill="#FB7C26"/>
<path d="M300.136 206.386C301.472 206.386 302.555 205.303 302.555 203.968C302.555 202.632 301.472 201.549 300.136 201.549C298.801 201.549 297.718 202.632 297.718 203.968C297.718 205.303 298.801 206.386 300.136 206.386Z" fill="#FB7C26"/>
<path d="M283.939 205.434C284.749 205.434 285.405 204.777 285.405 203.968C285.405 203.158 284.749 202.502 283.939 202.502C283.13 202.502 282.474 203.158 282.474 203.968C282.474 204.777 283.13 205.434 283.939 205.434Z" fill="#FB7C26"/>
<path d="M267.818 206.24C269.072 206.24 270.09 205.223 270.09 203.968C270.09 202.713 269.072 201.696 267.818 201.696C266.563 201.696 265.546 202.713 265.546 203.968C265.546 205.223 266.563 206.24 267.818 206.24Z" fill="#FB7C26"/>
<path d="M251.621 205.8C252.633 205.8 253.453 204.98 253.453 203.968C253.453 202.956 252.633 202.136 251.621 202.136C250.609 202.136 249.789 202.956 249.789 203.968C249.789 204.98 250.609 205.8 251.621 205.8Z" fill="#FB7C26"/>
<path d="M235.426 205.287C236.155 205.287 236.746 204.697 236.746 203.968C236.746 203.24 236.155 202.649 235.426 202.649C234.698 202.649 234.107 203.24 234.107 203.968C234.107 204.697 234.698 205.287 235.426 205.287Z" fill="#FB7C26"/>
<path d="M219.304 206.313C220.599 206.313 221.649 205.264 221.649 203.968C221.649 202.673 220.599 201.623 219.304 201.623C218.009 201.623 216.959 202.673 216.959 203.968C216.959 205.264 218.009 206.313 219.304 206.313Z" fill="#FB7C26"/>
<path d="M203.108 205.8C204.12 205.8 204.941 204.98 204.941 203.968C204.941 202.956 204.12 202.136 203.108 202.136C202.097 202.136 201.276 202.956 201.276 203.968C201.276 204.98 202.097 205.8 203.108 205.8Z" fill="#FB7C26"/>
<path d="M186.986 205.58C187.877 205.58 188.598 204.858 188.598 203.968C188.598 203.077 187.877 202.356 186.986 202.356C186.096 202.356 185.374 203.077 185.374 203.968C185.374 204.858 186.096 205.58 186.986 205.58Z" fill="#FB7C26"/>
<path d="M364.772 189.604C365.744 189.604 366.531 188.817 366.531 187.846C366.531 186.874 365.744 186.087 364.772 186.087C363.801 186.087 363.014 186.874 363.014 187.846C363.014 188.817 363.801 189.604 364.772 189.604Z" fill="#FB7C26"/>
<path d="M348.576 189.898C349.709 189.898 350.627 188.979 350.627 187.846C350.627 186.713 349.709 185.794 348.576 185.794C347.442 185.794 346.523 186.713 346.523 187.846C346.523 188.979 347.442 189.898 348.576 189.898Z" fill="#FB7C26"/>
<path d="M332.454 189.898C333.587 189.898 334.505 188.979 334.505 187.846C334.505 186.713 333.587 185.794 332.454 185.794C331.32 185.794 330.401 186.713 330.401 187.846C330.401 188.979 331.32 189.898 332.454 189.898Z" fill="#FB7C26"/>
<path d="M316.259 189.604C317.23 189.604 318.017 188.817 318.017 187.846C318.017 186.874 317.23 186.087 316.259 186.087C315.287 186.087 314.5 186.874 314.5 187.846C314.5 188.817 315.287 189.604 316.259 189.604Z" fill="#FB7C26"/>
<path d="M300.136 189.604C301.107 189.604 301.894 188.817 301.894 187.846C301.894 186.874 301.107 186.087 300.136 186.087C299.164 186.087 298.377 186.874 298.377 187.846C298.377 188.817 299.164 189.604 300.136 189.604Z" fill="#FB7C26"/>
<path d="M283.941 189.458C284.831 189.458 285.553 188.736 285.553 187.845C285.553 186.955 284.831 186.233 283.941 186.233C283.05 186.233 282.328 186.955 282.328 187.845C282.328 188.736 283.05 189.458 283.941 189.458Z" fill="#FB7C26"/>
<path d="M267.818 190.117C269.072 190.117 270.09 189.1 270.09 187.845C270.09 186.591 269.072 185.574 267.818 185.574C266.563 185.574 265.546 186.591 265.546 187.845C265.546 189.1 266.563 190.117 267.818 190.117Z" fill="#FB7C26"/>
<path d="M251.622 189.458C252.512 189.458 253.234 188.736 253.234 187.845C253.234 186.955 252.512 186.233 251.622 186.233C250.731 186.233 250.01 186.955 250.01 187.845C250.01 188.736 250.731 189.458 251.622 189.458Z" fill="#FB7C26"/>
<path d="M235.425 189.458C236.316 189.458 237.038 188.736 237.038 187.845C237.038 186.955 236.316 186.233 235.425 186.233C234.535 186.233 233.813 186.955 233.813 187.845C233.813 188.736 234.535 189.458 235.425 189.458Z" fill="#FB7C26"/>
<path d="M219.302 189.165C220.031 189.165 220.622 188.575 220.622 187.846C220.622 187.118 220.031 186.527 219.302 186.527C218.574 186.527 217.983 187.118 217.983 187.846C217.983 188.575 218.574 189.165 219.302 189.165Z" fill="#FB7C26"/>
<path d="M203.109 189.825C204.201 189.825 205.087 188.939 205.087 187.846C205.087 186.753 204.201 185.867 203.109 185.867C202.016 185.867 201.13 186.753 201.13 187.846C201.13 188.939 202.016 189.825 203.109 189.825Z" fill="#FB7C26"/>
<path d="M186.986 189.458C187.877 189.458 188.598 188.736 188.598 187.845C188.598 186.955 187.877 186.233 186.986 186.233C186.096 186.233 185.374 186.955 185.374 187.845C185.374 188.736 186.096 189.458 186.986 189.458Z" fill="#FB7C26"/>
<path d="M364.772 173.409C365.744 173.409 366.531 172.621 366.531 171.65C366.531 170.679 365.744 169.891 364.772 169.891C363.801 169.891 363.014 170.679 363.014 171.65C363.014 172.621 363.801 173.409 364.772 173.409Z" fill="#FB7C26"/>
<path d="M348.575 173.263C349.466 173.263 350.187 172.541 350.187 171.651C350.187 170.76 349.466 170.039 348.575 170.039C347.685 170.039 346.963 170.76 346.963 171.651C346.963 172.541 347.685 173.263 348.575 173.263Z" fill="#FB7C26"/>
<path d="M332.454 173.409C333.426 173.409 334.213 172.621 334.213 171.65C334.213 170.679 333.426 169.891 332.454 169.891C331.483 169.891 330.695 170.679 330.695 171.65C330.695 172.621 331.483 173.409 332.454 173.409Z" fill="#FB7C26"/>
<path d="M316.259 173.409C317.23 173.409 318.017 172.621 318.017 171.65C318.017 170.679 317.23 169.891 316.259 169.891C315.287 169.891 314.5 170.679 314.5 171.65C314.5 172.621 315.287 173.409 316.259 173.409Z" fill="#FB7C26"/>
<path d="M300.137 173.263C301.027 173.263 301.749 172.541 301.749 171.651C301.749 170.76 301.027 170.039 300.137 170.039C299.246 170.039 298.524 170.76 298.524 171.651C298.524 172.541 299.246 173.263 300.137 173.263Z" fill="#FB7C26"/>
<path d="M283.94 173.995C285.235 173.995 286.285 172.945 286.285 171.65C286.285 170.355 285.235 169.305 283.94 169.305C282.645 169.305 281.595 170.355 281.595 171.65C281.595 172.945 282.645 173.995 283.94 173.995Z" fill="#FB7C26"/>
<path d="M267.817 173.042C268.586 173.042 269.209 172.419 269.209 171.65C269.209 170.881 268.586 170.258 267.817 170.258C267.048 170.258 266.425 170.881 266.425 171.65C266.425 172.419 267.048 173.042 267.817 173.042Z" fill="#FB7C26"/>
<path d="M251.621 173.482C252.633 173.482 253.453 172.661 253.453 171.65C253.453 170.638 252.633 169.818 251.621 169.818C250.609 169.818 249.789 170.638 249.789 171.65C249.789 172.661 250.609 173.482 251.621 173.482Z" fill="#FB7C26"/>
<path d="M235.428 173.482C236.44 173.482 237.26 172.661 237.26 171.65C237.26 170.638 236.44 169.818 235.428 169.818C234.416 169.818 233.596 170.638 233.596 171.65C233.596 172.661 234.416 173.482 235.428 173.482Z" fill="#FB7C26"/>
<path d="M219.304 173.629C220.396 173.629 221.282 172.743 221.282 171.65C221.282 170.557 220.396 169.672 219.304 169.672C218.211 169.672 217.325 170.557 217.325 171.65C217.325 172.743 218.211 173.629 219.304 173.629Z" fill="#FB7C26"/>
<path d="M203.109 173.629C204.201 173.629 205.087 172.743 205.087 171.65C205.087 170.557 204.201 169.672 203.109 169.672C202.016 169.672 201.13 170.557 201.13 171.65C201.13 172.743 202.016 173.629 203.109 173.629Z" fill="#FB7C26"/>
<path d="M186.987 173.629C188.079 173.629 188.965 172.743 188.965 171.65C188.965 170.557 188.079 169.672 186.987 169.672C185.894 169.672 185.008 170.557 185.008 171.65C185.008 172.743 185.894 173.629 186.987 173.629Z" fill="#FB7C26"/>
<path d="M364.771 158.239C366.268 158.239 367.482 157.025 367.482 155.527C367.482 154.03 366.268 152.816 364.771 152.816C363.273 152.816 362.06 154.03 362.06 155.527C362.06 157.025 363.273 158.239 364.771 158.239Z" fill="#FB7C26"/>
<path d="M348.577 157.873C349.872 157.873 350.922 156.823 350.922 155.528C350.922 154.233 349.872 153.183 348.577 153.183C347.282 153.183 346.231 154.233 346.231 155.528C346.231 156.823 347.282 157.873 348.577 157.873Z" fill="#FB7C26"/>
<path d="M332.454 158.605C334.154 158.605 335.532 157.227 335.532 155.527C335.532 153.827 334.154 152.449 332.454 152.449C330.754 152.449 329.376 153.827 329.376 155.527C329.376 157.227 330.754 158.605 332.454 158.605Z" fill="#FB7C26"/>
<path d="M316.259 158.239C317.756 158.239 318.97 157.025 318.97 155.527C318.97 154.03 317.756 152.816 316.259 152.816C314.761 152.816 313.547 154.03 313.547 155.527C313.547 157.025 314.761 158.239 316.259 158.239Z" fill="#FB7C26"/>
<path d="M300.136 158.239C301.634 158.239 302.848 157.025 302.848 155.527C302.848 154.03 301.634 152.816 300.136 152.816C298.639 152.816 297.425 154.03 297.425 155.527C297.425 157.025 298.639 158.239 300.136 158.239Z" fill="#FB7C26"/>
<path d="M283.94 157.873C285.235 157.873 286.285 156.823 286.285 155.528C286.285 154.233 285.235 153.183 283.94 153.183C282.645 153.183 281.595 154.233 281.595 155.528C281.595 156.823 282.645 157.873 283.94 157.873Z" fill="#FB7C26"/>
<path d="M267.819 158.166C269.276 158.166 270.457 156.985 270.457 155.528C270.457 154.071 269.276 152.89 267.819 152.89C266.362 152.89 265.181 154.071 265.181 155.528C265.181 156.985 266.362 158.166 267.819 158.166Z" fill="#FB7C26"/>
<path d="M251.621 158.019C252.998 158.019 254.113 156.903 254.113 155.527C254.113 154.151 252.998 153.035 251.621 153.035C250.245 153.035 249.13 154.151 249.13 155.527C249.13 156.903 250.245 158.019 251.621 158.019Z" fill="#FB7C26"/>
<path d="M235.428 157.36C236.44 157.36 237.26 156.539 237.26 155.528C237.26 154.516 236.44 153.696 235.428 153.696C234.416 153.696 233.596 154.516 233.596 155.528C233.596 156.539 234.416 157.36 235.428 157.36Z" fill="#FB7C26"/>
<path d="M219.304 157.873C220.599 157.873 221.649 156.823 221.649 155.528C221.649 154.233 220.599 153.183 219.304 153.183C218.009 153.183 216.959 154.233 216.959 155.528C216.959 156.823 218.009 157.873 219.304 157.873Z" fill="#FB7C26"/>
<path d="M203.108 158.532C204.768 158.532 206.113 157.187 206.113 155.528C206.113 153.868 204.768 152.523 203.108 152.523C201.449 152.523 200.104 153.868 200.104 155.528C200.104 157.187 201.449 158.532 203.108 158.532Z" fill="#FB7C26"/>
<path d="M186.987 157.653C188.161 157.653 189.112 156.701 189.112 155.527C189.112 154.354 188.161 153.402 186.987 153.402C185.813 153.402 184.861 154.354 184.861 155.527C184.861 156.701 185.813 157.653 186.987 157.653Z" fill="#FB7C26"/>
<path d="M364.772 142.264C366.391 142.264 367.703 140.951 367.703 139.332C367.703 137.713 366.391 136.401 364.772 136.401C363.153 136.401 361.841 137.713 361.841 139.332C361.841 140.951 363.153 142.264 364.772 142.264Z" fill="#FB7C26"/>
<path d="M348.575 141.311C349.668 141.311 350.554 140.425 350.554 139.333C350.554 138.24 349.668 137.354 348.575 137.354C347.483 137.354 346.597 138.24 346.597 139.333C346.597 140.425 347.483 141.311 348.575 141.311Z" fill="#FB7C26"/>
<path d="M332.454 142.264C334.073 142.264 335.385 140.951 335.385 139.332C335.385 137.713 334.073 136.401 332.454 136.401C330.835 136.401 329.522 137.713 329.522 139.332C329.522 140.951 330.835 142.264 332.454 142.264Z" fill="#FB7C26"/>
<path d="M316.258 141.751C317.594 141.751 318.677 140.668 318.677 139.332C318.677 137.997 317.594 136.914 316.258 136.914C314.923 136.914 313.84 137.997 313.84 139.332C313.84 140.668 314.923 141.751 316.258 141.751Z" fill="#FB7C26"/>
<path d="M300.136 141.677C301.431 141.677 302.481 140.627 302.481 139.332C302.481 138.037 301.431 136.987 300.136 136.987C298.841 136.987 297.791 138.037 297.791 139.332C297.791 140.627 298.841 141.677 300.136 141.677Z" fill="#FB7C26"/>
<path d="M283.941 141.751C285.276 141.751 286.359 140.668 286.359 139.332C286.359 137.997 285.276 136.914 283.941 136.914C282.605 136.914 281.522 137.997 281.522 139.332C281.522 140.668 282.605 141.751 283.941 141.751Z" fill="#FB7C26"/>
<path d="M267.818 141.751C269.153 141.751 270.236 140.668 270.236 139.332C270.236 137.997 269.153 136.914 267.818 136.914C266.482 136.914 265.399 137.997 265.399 139.332C265.399 140.668 266.482 141.751 267.818 141.751Z" fill="#FB7C26"/>
<path d="M251.621 141.53C252.836 141.53 253.82 140.546 253.82 139.332C253.82 138.118 252.836 137.133 251.621 137.133C250.407 137.133 249.423 138.118 249.423 139.332C249.423 140.546 250.407 141.53 251.621 141.53Z" fill="#FB7C26"/>
<path d="M235.427 142.337C237.087 142.337 238.432 140.991 238.432 139.332C238.432 137.673 237.087 136.327 235.427 136.327C233.768 136.327 232.423 137.673 232.423 139.332C232.423 140.991 233.768 142.337 235.427 142.337Z" fill="#FB7C26"/>
<path d="M219.304 141.238C220.357 141.238 221.21 140.385 221.21 139.333C221.21 138.28 220.357 137.427 219.304 137.427C218.252 137.427 217.399 138.28 217.399 139.333C217.399 140.385 218.252 141.238 219.304 141.238Z" fill="#FB7C26"/>
<path d="M203.109 141.53C204.323 141.53 205.307 140.546 205.307 139.332C205.307 138.118 204.323 137.133 203.109 137.133C201.894 137.133 200.91 138.118 200.91 139.332C200.91 140.546 201.894 141.53 203.109 141.53Z" fill="#FB7C26"/>
<path d="M186.985 142.337C188.645 142.337 189.989 140.991 189.989 139.332C189.989 137.673 188.645 136.327 186.985 136.327C185.326 136.327 183.98 137.673 183.98 139.332C183.98 140.991 185.326 142.337 186.985 142.337Z" fill="#FB7C26"/>
<path d="M364.772 125.701C366.148 125.701 367.264 124.586 367.264 123.21C367.264 121.834 366.148 120.718 364.772 120.718C363.396 120.718 362.28 121.834 362.28 123.21C362.28 124.586 363.396 125.701 364.772 125.701Z" fill="#FB7C26"/>
<path d="M348.576 125.701C349.952 125.701 351.067 124.586 351.067 123.21C351.067 121.834 349.952 120.718 348.576 120.718C347.2 120.718 346.084 121.834 346.084 123.21C346.084 124.586 347.2 125.701 348.576 125.701Z" fill="#FB7C26"/>
<path d="M332.454 126.141C334.073 126.141 335.385 124.829 335.385 123.21C335.385 121.591 334.073 120.279 332.454 120.279C330.835 120.279 329.522 121.591 329.522 123.21C329.522 124.829 330.835 126.141 332.454 126.141Z" fill="#FB7C26"/>
<path d="M316.259 124.968C317.23 124.968 318.017 124.181 318.017 123.209C318.017 122.238 317.23 121.451 316.259 121.451C315.287 121.451 314.5 122.238 314.5 123.209C314.5 124.181 315.287 124.968 316.259 124.968Z" fill="#FB7C26"/>
<path d="M300.136 125.921C301.634 125.921 302.848 124.707 302.848 123.21C302.848 121.712 301.634 120.498 300.136 120.498C298.639 120.498 297.425 121.712 297.425 123.21C297.425 124.707 298.639 125.921 300.136 125.921Z" fill="#FB7C26"/>
<path d="M283.941 125.921C285.439 125.921 286.653 124.707 286.653 123.21C286.653 121.712 285.439 120.498 283.941 120.498C282.444 120.498 281.229 121.712 281.229 123.21C281.229 124.707 282.444 125.921 283.941 125.921Z" fill="#FB7C26"/>
<path d="M267.818 125.921C269.316 125.921 270.53 124.707 270.53 123.21C270.53 121.712 269.316 120.498 267.818 120.498C266.321 120.498 265.106 121.712 265.106 123.21C265.106 124.707 266.321 125.921 267.818 125.921Z" fill="#FB7C26"/>
<path d="M251.621 125.701C252.998 125.701 254.113 124.586 254.113 123.21C254.113 121.834 252.998 120.718 251.621 120.718C250.245 120.718 249.13 121.834 249.13 123.21C249.13 124.586 250.245 125.701 251.621 125.701Z" fill="#FB7C26"/>
<path d="M235.425 125.189C236.518 125.189 237.404 124.303 237.404 123.21C237.404 122.117 236.518 121.231 235.425 121.231C234.332 121.231 233.446 122.117 233.446 123.21C233.446 124.303 234.332 125.189 235.425 125.189Z" fill="#FB7C26"/>
<path d="M219.303 126.654C221.206 126.654 222.748 125.112 222.748 123.21C222.748 121.308 221.206 119.766 219.303 119.766C217.401 119.766 215.859 121.308 215.859 123.21C215.859 125.112 217.401 126.654 219.303 126.654Z" fill="#FB7C26"/>
<path d="M203.108 126.215C204.768 126.215 206.113 124.869 206.113 123.21C206.113 121.551 204.768 120.205 203.108 120.205C201.449 120.205 200.104 121.551 200.104 123.21C200.104 124.869 201.449 126.215 203.108 126.215Z" fill="#FB7C26"/>
<path d="M186.987 125.775C188.403 125.775 189.552 124.627 189.552 123.21C189.552 121.793 188.403 120.645 186.987 120.645C185.57 120.645 184.422 121.793 184.422 123.21C184.422 124.627 185.57 125.775 186.987 125.775Z" fill="#FB7C26"/>
<path d="M364.771 108.92C365.824 108.92 366.677 108.066 366.677 107.014C366.677 105.962 365.824 105.109 364.771 105.109C363.719 105.109 362.866 105.962 362.866 107.014C362.866 108.066 363.719 108.92 364.771 108.92Z" fill="#FB7C26"/>
<path d="M348.576 108.92C349.629 108.92 350.481 108.066 350.481 107.014C350.481 105.962 349.629 105.109 348.576 105.109C347.524 105.109 346.671 105.962 346.671 107.014C346.671 108.066 347.524 108.92 348.576 108.92Z" fill="#FB7C26"/>
<path d="M332.454 109.213C333.669 109.213 334.653 108.228 334.653 107.014C334.653 105.8 333.669 104.816 332.454 104.816C331.24 104.816 330.256 105.8 330.256 107.014C330.256 108.228 331.24 109.213 332.454 109.213Z" fill="#FB7C26"/>
<path d="M316.258 109.432C317.594 109.432 318.677 108.35 318.677 107.014C318.677 105.678 317.594 104.596 316.258 104.596C314.923 104.596 313.84 105.678 313.84 107.014C313.84 108.35 314.923 109.432 316.258 109.432Z" fill="#FB7C26"/>
<path d="M300.135 109.946C301.754 109.946 303.067 108.633 303.067 107.014C303.067 105.395 301.754 104.083 300.135 104.083C298.517 104.083 297.204 105.395 297.204 107.014C297.204 108.633 298.517 109.946 300.135 109.946Z" fill="#FB7C26"/>
<path d="M283.94 109.946C285.559 109.946 286.871 108.633 286.871 107.014C286.871 105.395 285.559 104.083 283.94 104.083C282.321 104.083 281.009 105.395 281.009 107.014C281.009 108.633 282.321 109.946 283.94 109.946Z" fill="#FB7C26"/>
<path d="M267.818 110.018C269.478 110.018 270.823 108.673 270.823 107.014C270.823 105.354 269.478 104.009 267.818 104.009C266.159 104.009 264.813 105.354 264.813 107.014C264.813 108.673 266.159 110.018 267.818 110.018Z" fill="#FB7C26"/>
<path d="M251.621 109.213C252.836 109.213 253.82 108.228 253.82 107.014C253.82 105.8 252.836 104.816 251.621 104.816C250.407 104.816 249.423 105.8 249.423 107.014C249.423 108.228 250.407 109.213 251.621 109.213Z" fill="#FB7C26"/>
<path d="M235.428 108.846C236.44 108.846 237.26 108.026 237.26 107.014C237.26 106.002 236.44 105.182 235.428 105.182C234.416 105.182 233.596 106.002 233.596 107.014C233.596 108.026 234.416 108.846 235.428 108.846Z" fill="#FB7C26"/>
<path d="M219.303 110.458C221.206 110.458 222.748 108.916 222.748 107.014C222.748 105.112 221.206 103.57 219.303 103.57C217.401 103.57 215.859 105.112 215.859 107.014C215.859 108.916 217.401 110.458 219.303 110.458Z" fill="#FB7C26"/>
<path d="M203.109 109.213C204.323 109.213 205.307 108.228 205.307 107.014C205.307 105.8 204.323 104.816 203.109 104.816C201.894 104.816 200.91 105.8 200.91 107.014C200.91 108.228 201.894 109.213 203.109 109.213Z" fill="#FB7C26"/>
<path d="M186.985 110.018C188.645 110.018 189.989 108.673 189.989 107.014C189.989 105.354 188.645 104.009 186.985 104.009C185.326 104.009 183.98 105.354 183.98 107.014C183.98 108.673 185.326 110.018 186.985 110.018Z" fill="#FB7C26"/>
<path d="M364.772 93.3101C366.148 93.3101 367.264 92.1946 367.264 90.8185C367.264 89.4424 366.148 88.3268 364.772 88.3268C363.396 88.3268 362.28 89.4424 362.28 90.8185C362.28 92.1946 363.396 93.3101 364.772 93.3101Z" fill="#FB7C26"/>
<path d="M348.576 93.8968C350.276 93.8968 351.654 92.5188 351.654 90.8189C351.654 89.119 350.276 87.7408 348.576 87.7408C346.876 87.7408 345.498 89.119 345.498 90.8189C345.498 92.5188 346.876 93.8968 348.576 93.8968Z" fill="#FB7C26"/>
<path d="M332.454 93.7499C334.073 93.7499 335.385 92.4375 335.385 90.8185C335.385 89.1996 334.073 87.8872 332.454 87.8872C330.835 87.8872 329.522 89.1996 329.522 90.8185C329.522 92.4375 330.835 93.7499 332.454 93.7499Z" fill="#FB7C26"/>
<path d="M316.259 92.5772C317.23 92.5772 318.017 91.7898 318.017 90.8185C318.017 89.8471 317.23 89.0596 316.259 89.0596C315.287 89.0596 314.5 89.8471 314.5 90.8185C314.5 91.7898 315.287 92.5772 316.259 92.5772Z" fill="#FB7C26"/>
<path d="M300.135 93.7499C301.754 93.7499 303.067 92.4375 303.067 90.8185C303.067 89.1996 301.754 87.8872 300.135 87.8872C298.517 87.8872 297.204 89.1996 297.204 90.8185C297.204 92.4375 298.517 93.7499 300.135 93.7499Z" fill="#FB7C26"/>
<path d="M283.941 94.3364C285.884 94.3364 287.459 92.7616 287.459 90.8189C287.459 88.8762 285.884 87.3013 283.941 87.3013C281.999 87.3013 280.424 88.8762 280.424 90.8189C280.424 92.7616 281.999 94.3364 283.941 94.3364Z" fill="#FB7C26"/>
<path d="M267.818 93.8227C269.478 93.8227 270.823 92.4776 270.823 90.8182C270.823 89.1588 269.478 87.8135 267.818 87.8135C266.159 87.8135 264.813 89.1588 264.813 90.8182C264.813 92.4776 266.159 93.8227 267.818 93.8227Z" fill="#FB7C26"/>
<path d="M251.622 94.3364C253.565 94.3364 255.14 92.7616 255.14 90.8189C255.14 88.8762 253.565 87.3013 251.622 87.3013C249.679 87.3013 248.104 88.8762 248.104 90.8189C248.104 92.7616 249.679 94.3364 251.622 94.3364Z" fill="#FB7C26"/>
<path d="M235.427 94.3364C237.369 94.3364 238.944 92.7616 238.944 90.8189C238.944 88.8762 237.369 87.3013 235.427 87.3013C233.484 87.3013 231.909 88.8762 231.909 90.8189C231.909 92.7616 233.484 94.3364 235.427 94.3364Z" fill="#FB7C26"/>
<path d="M219.305 94.556C221.369 94.556 223.042 92.8828 223.042 90.8187C223.042 88.7546 221.369 87.0812 219.305 87.0812C217.24 87.0812 215.567 88.7546 215.567 90.8187C215.567 92.8828 217.24 94.556 219.305 94.556Z" fill="#FB7C26"/>
<path d="M203.108 93.3835C204.524 93.3835 205.673 92.2351 205.673 90.8186C205.673 89.402 204.524 88.2537 203.108 88.2537C201.691 88.2537 200.543 89.402 200.543 90.8186C200.543 92.2351 201.691 93.3835 203.108 93.3835Z" fill="#FB7C26"/>
<path d="M186.986 94.043C188.767 94.043 190.211 92.5994 190.211 90.8186C190.211 89.0377 188.767 87.594 186.986 87.594C185.206 87.594 183.762 89.0377 183.762 90.8186C183.762 92.5994 185.206 94.043 186.986 94.043Z" fill="#FB7C26"/>
<path d="M186.987 62.0178C188.929 62.0178 190.504 60.4429 190.504 58.5002C190.504 56.5575 188.929 54.9825 186.987 54.9825C185.044 54.9825 183.469 56.5575 183.469 58.5002C183.469 60.4429 185.044 62.0178 186.987 62.0178Z" fill="#FB7C26"/>
<path d="M203.109 62.0178C205.051 62.0178 206.626 60.4429 206.626 58.5002C206.626 56.5575 205.051 54.9825 203.109 54.9825C201.166 54.9825 199.591 56.5575 199.591 58.5002C199.591 60.4429 201.166 62.0178 203.109 62.0178Z" fill="#FB7C26"/>
<path d="M219.305 62.238C221.369 62.238 223.042 60.5646 223.042 58.5005C223.042 56.4363 221.369 54.7629 219.305 54.7629C217.24 54.7629 215.567 56.4363 215.567 58.5005C215.567 60.5646 217.24 62.238 219.305 62.238Z" fill="#FB7C26"/>
<path d="M235.427 61.0653C236.844 61.0653 237.992 59.9169 237.992 58.5003C237.992 57.0838 236.844 55.9354 235.427 55.9354C234.011 55.9354 232.862 57.0838 232.862 58.5003C232.862 59.9169 234.011 61.0653 235.427 61.0653Z" fill="#FB7C26"/>
<path d="M251.623 61.7245C253.404 61.7245 254.847 60.281 254.847 58.5002C254.847 56.7193 253.404 55.2758 251.623 55.2758C249.842 55.2758 248.398 56.7193 248.398 58.5002C248.398 60.281 249.842 61.7245 251.623 61.7245Z" fill="#FB7C26"/>
<path d="M267.818 60.919C269.153 60.919 270.236 59.8363 270.236 58.5007C270.236 57.165 269.153 56.0823 267.818 56.0823C266.482 56.0823 265.399 57.165 265.399 58.5007C265.399 59.8363 266.482 60.919 267.818 60.919Z" fill="#FB7C26"/>
<path d="M283.94 61.0653C285.356 61.0653 286.505 59.9169 286.505 58.5003C286.505 57.0838 285.356 55.9354 283.94 55.9354C282.523 55.9354 281.375 57.0838 281.375 58.5003C281.375 59.9169 282.523 61.0653 283.94 61.0653Z" fill="#FB7C26"/>
<path d="M300.136 62.3843C302.281 62.3843 304.02 60.6453 304.02 58.5003C304.02 56.3552 302.281 54.6162 300.136 54.6162C297.991 54.6162 296.252 56.3552 296.252 58.5003C296.252 60.6453 297.991 62.3843 300.136 62.3843Z" fill="#FB7C26"/>
<path d="M316.259 61.6523C317.999 61.6523 319.41 60.2414 319.41 58.5011C319.41 56.7607 317.999 55.3499 316.259 55.3499C314.518 55.3499 313.107 56.7607 313.107 58.5011C313.107 60.2414 314.518 61.6523 316.259 61.6523Z" fill="#FB7C26"/>
<path d="M332.454 62.165C334.478 62.165 336.118 60.5245 336.118 58.5008C336.118 56.4772 334.478 54.8367 332.454 54.8367C330.431 54.8367 328.79 56.4772 328.79 58.5008C328.79 60.5245 330.431 62.165 332.454 62.165Z" fill="#FB7C26"/>
<path d="M348.575 61.8716C350.437 61.8716 351.946 60.3623 351.946 58.5005C351.946 56.6387 350.437 55.1294 348.575 55.1294C346.713 55.1294 345.204 56.6387 345.204 58.5005C345.204 60.3623 346.713 61.8716 348.575 61.8716Z" fill="#FB7C26"/>
<path d="M364.77 61.6523C366.511 61.6523 367.922 60.2414 367.922 58.5011C367.922 56.7607 366.511 55.3499 364.77 55.3499C363.03 55.3499 361.619 56.7607 361.619 58.5011C361.619 60.2414 363.03 61.6523 364.77 61.6523Z" fill="#FB7C26"/>
<path d="M219.304 46.5556C221.611 46.5556 223.481 44.6855 223.481 42.3785C223.481 40.0716 221.611 38.2014 219.304 38.2014C216.997 38.2014 215.127 40.0716 215.127 42.3785C215.127 44.6855 216.997 46.5556 219.304 46.5556Z" fill="#FB7C26"/>
<path d="M235.427 46.2622C237.572 46.2622 239.311 44.5233 239.311 42.3782C239.311 40.2331 237.572 38.4941 235.427 38.4941C233.282 38.4941 231.543 40.2331 231.543 42.3782C231.543 44.5233 233.282 46.2622 235.427 46.2622Z" fill="#FB7C26"/>
<path d="M251.622 46.2622C253.767 46.2622 255.506 44.5233 255.506 42.3782C255.506 40.2331 253.767 38.4941 251.622 38.4941C249.477 38.4941 247.738 40.2331 247.738 42.3782C247.738 44.5233 249.477 46.2622 251.622 46.2622Z" fill="#FB7C26"/>
<path d="M267.817 46.0424C269.84 46.0424 271.481 44.4019 271.481 42.3783C271.481 40.3546 269.84 38.7141 267.817 38.7141C265.793 38.7141 264.152 40.3546 264.152 42.3783C264.152 44.4019 265.793 46.0424 267.817 46.0424Z" fill="#FB7C26"/>
<path d="M283.941 46.5556C286.248 46.5556 288.118 44.6855 288.118 42.3785C288.118 40.0716 286.248 38.2014 283.941 38.2014C281.634 38.2014 279.764 40.0716 279.764 42.3785C279.764 44.6855 281.634 46.5556 283.941 46.5556Z" fill="#FB7C26"/>
<path d="M300.136 46.2622C302.281 46.2622 304.02 44.5233 304.02 42.3782C304.02 40.2331 302.281 38.4941 300.136 38.4941C297.991 38.4941 296.252 40.2331 296.252 42.3782C296.252 44.5233 297.991 46.2622 300.136 46.2622Z" fill="#FB7C26"/>
<path d="M316.257 45.7495C318.119 45.7495 319.628 44.2402 319.628 42.3784C319.628 40.5167 318.119 39.0073 316.257 39.0073C314.395 39.0073 312.886 40.5167 312.886 42.3784C312.886 44.2402 314.395 45.7495 316.257 45.7495Z" fill="#FB7C26"/>
<path d="M332.454 46.0424C334.478 46.0424 336.118 44.4019 336.118 42.3783C336.118 40.3546 334.478 38.7141 332.454 38.7141C330.431 38.7141 328.79 40.3546 328.79 42.3783C328.79 44.4019 330.431 46.0424 332.454 46.0424Z" fill="#FB7C26"/>
<path d="M348.578 46.2622C350.723 46.2622 352.461 44.5233 352.461 42.3782C352.461 40.2331 350.723 38.4941 348.578 38.4941C346.433 38.4941 344.693 40.2331 344.693 42.3782C344.693 44.5233 346.433 46.2622 348.578 46.2622Z" fill="#FB7C26"/>
<path d="M364.77 46.2622C366.915 46.2622 368.654 44.5233 368.654 42.3782C368.654 40.2331 366.915 38.4941 364.77 38.4941C362.625 38.4941 360.886 40.2331 360.886 42.3782C360.886 44.5233 362.625 46.2622 364.77 46.2622Z" fill="#FB7C26"/>
<path d="M186.987 78.2143C188.929 78.2143 190.504 76.6396 190.504 74.6968C190.504 72.7541 188.929 71.1792 186.987 71.1792C185.044 71.1792 183.469 72.7541 183.469 74.6968C183.469 76.6396 185.044 78.2143 186.987 78.2143Z" fill="#FB7C26"/>
<path d="M203.109 78.2143C205.051 78.2143 206.626 76.6396 206.626 74.6968C206.626 72.7541 205.051 71.1792 203.109 71.1792C201.166 71.1792 199.591 72.7541 199.591 74.6968C199.591 76.6396 201.166 78.2143 203.109 78.2143Z" fill="#FB7C26"/>
<path d="M219.305 78.4336C221.369 78.4336 223.042 76.7604 223.042 74.6963C223.042 72.6321 221.369 70.9587 219.305 70.9587C217.24 70.9587 215.567 72.6321 215.567 74.6963C215.567 76.7604 217.24 78.4336 219.305 78.4336Z" fill="#FB7C26"/>
<path d="M235.427 77.2609C236.844 77.2609 237.992 76.1126 237.992 74.696C237.992 73.2795 236.844 72.1311 235.427 72.1311C234.011 72.1311 232.862 73.2795 232.862 74.696C232.862 76.1126 234.011 77.2609 235.427 77.2609Z" fill="#FB7C26"/>
<path d="M251.623 77.9204C253.404 77.9204 254.847 76.4768 254.847 74.696C254.847 72.9152 253.404 71.4714 251.623 71.4714C249.842 71.4714 248.398 72.9152 248.398 74.696C248.398 76.4768 249.842 77.9204 251.623 77.9204Z" fill="#FB7C26"/>
<path d="M267.818 77.1145C269.153 77.1145 270.236 76.032 270.236 74.6963C270.236 73.3607 269.153 72.278 267.818 72.278C266.482 72.278 265.399 73.3607 265.399 74.6963C265.399 76.032 266.482 77.1145 267.818 77.1145Z" fill="#FB7C26"/>
<path d="M283.94 77.2609C285.356 77.2609 286.505 76.1126 286.505 74.696C286.505 73.2795 285.356 72.1311 283.94 72.1311C282.523 72.1311 281.375 73.2795 281.375 74.696C281.375 76.1126 282.523 77.2609 283.94 77.2609Z" fill="#FB7C26"/>
<path d="M300.136 78.5807C302.281 78.5807 304.02 76.8419 304.02 74.6968C304.02 72.5517 302.281 70.8127 300.136 70.8127C297.991 70.8127 296.252 72.5517 296.252 74.6968C296.252 76.8419 297.991 78.5807 300.136 78.5807Z" fill="#FB7C26"/>
<path d="M316.259 77.8469C317.999 77.8469 319.41 76.4362 319.41 74.6959C319.41 72.9555 317.999 71.5447 316.259 71.5447C314.518 71.5447 313.107 72.9555 313.107 74.6959C313.107 76.4362 314.518 77.8469 316.259 77.8469Z" fill="#FB7C26"/>
<path d="M332.454 78.3602C334.478 78.3602 336.118 76.7197 336.118 74.696C336.118 72.6724 334.478 71.0319 332.454 71.0319C330.431 71.0319 328.79 72.6724 328.79 74.696C328.79 76.7197 330.431 78.3602 332.454 78.3602Z" fill="#FB7C26"/>
<path d="M348.575 78.0671C350.437 78.0671 351.946 76.558 351.946 74.6962C351.946 72.8344 350.437 71.3251 348.575 71.3251C346.713 71.3251 345.204 72.8344 345.204 74.6962C345.204 76.558 346.713 78.0671 348.575 78.0671Z" fill="#FB7C26"/>
<path d="M364.77 77.8469C366.511 77.8469 367.922 76.4362 367.922 74.6959C367.922 72.9555 366.511 71.5447 364.77 71.5447C363.03 71.5447 361.619 72.9555 361.619 74.6959C361.619 76.4362 363.03 77.8469 364.77 77.8469Z" fill="#FB7C26"/>
<path d="M219.305 29.9197C221.369 29.9197 223.042 28.2463 223.042 26.1822C223.042 24.118 221.369 22.4448 219.305 22.4448C217.24 22.4448 215.567 24.118 215.567 26.1822C215.567 28.2463 217.24 29.9197 219.305 29.9197Z" fill="#FB7C26"/>
<path d="M235.427 30.4328C237.774 30.4328 239.678 28.5297 239.678 26.1823C239.678 23.8348 237.774 21.932 235.427 21.932C233.08 21.932 231.177 23.8348 231.177 26.1823C231.177 28.5297 233.08 30.4328 235.427 30.4328Z" fill="#FB7C26"/>
<path d="M251.622 30.0669C253.767 30.0669 255.506 28.3279 255.506 26.1828C255.506 24.0377 253.767 22.299 251.622 22.299C249.477 22.299 247.738 24.0377 247.738 26.1828C247.738 28.3279 249.477 30.0669 251.622 30.0669Z" fill="#FB7C26"/>
<path d="M267.818 30.0669C269.964 30.0669 271.702 28.3279 271.702 26.1828C271.702 24.0377 269.964 22.299 267.818 22.299C265.673 22.299 263.935 24.0377 263.935 26.1828C263.935 28.3279 265.673 30.0669 267.818 30.0669Z" fill="#FB7C26"/>
<path d="M283.94 29.5538C285.802 29.5538 287.312 28.0445 287.312 26.1827C287.312 24.3209 285.802 22.8118 283.94 22.8118C282.079 22.8118 280.569 24.3209 280.569 26.1827C280.569 28.0445 282.079 29.5538 283.94 29.5538Z" fill="#FB7C26"/>
<path d="M300.136 30.0669C302.281 30.0669 304.02 28.3279 304.02 26.1828C304.02 24.0377 302.281 22.299 300.136 22.299C297.991 22.299 296.252 24.0377 296.252 26.1828C296.252 28.3279 297.991 30.0669 300.136 30.0669Z" fill="#FB7C26"/>
<path d="M316.258 30.1399C318.444 30.1399 320.215 28.368 320.215 26.1824C320.215 23.9969 318.444 22.2252 316.258 22.2252C314.072 22.2252 312.301 23.9969 312.301 26.1824C312.301 28.368 314.072 30.1399 316.258 30.1399Z" fill="#FB7C26"/>
<path d="M332.454 29.8468C334.478 29.8468 336.118 28.2063 336.118 26.1826C336.118 24.1589 334.478 22.5184 332.454 22.5184C330.431 22.5184 328.79 24.1589 328.79 26.1826C328.79 28.2063 330.431 29.8468 332.454 29.8468Z" fill="#FB7C26"/>
<path d="M348.575 29.5538C350.437 29.5538 351.946 28.0445 351.946 26.1827C351.946 24.3209 350.437 22.8118 348.575 22.8118C346.713 22.8118 345.204 24.3209 345.204 26.1827C345.204 28.0445 346.713 29.5538 348.575 29.5538Z" fill="#FB7C26"/>
<path d="M364.77 30.4328C367.117 30.4328 369.02 28.5297 369.02 26.1823C369.02 23.8348 367.117 21.932 364.77 21.932C362.422 21.932 360.52 23.8348 360.52 26.1823C360.52 28.5297 362.422 30.4328 364.77 30.4328Z" fill="#FB7C26"/>
<path d="M219.303 13.4314C221.206 13.4314 222.748 11.8894 222.748 9.98713C222.748 8.08488 221.206 6.54285 219.303 6.54285C217.401 6.54285 215.859 8.08488 215.859 9.98713C215.859 11.8894 217.401 13.4314 219.303 13.4314Z" fill="#FB7C26"/>
<path d="M235.427 13.5049C237.369 13.5049 238.944 11.93 238.944 9.98724C238.944 8.04452 237.369 6.4696 235.427 6.4696C233.484 6.4696 231.909 8.04452 231.909 9.98724C231.909 11.93 233.484 13.5049 235.427 13.5049Z" fill="#FB7C26"/>
<path d="M251.623 13.2119C253.404 13.2119 254.847 11.7683 254.847 9.98751C254.847 8.20669 253.404 6.76294 251.623 6.76294C249.842 6.76294 248.398 8.20669 248.398 9.98751C248.398 11.7683 249.842 13.2119 251.623 13.2119Z" fill="#FB7C26"/>
<path d="M267.818 14.1643C270.125 14.1643 271.995 12.2941 271.995 9.98717C271.995 7.6802 270.125 5.81006 267.818 5.81006C265.511 5.81006 263.641 7.6802 263.641 9.98717C263.641 12.2941 265.511 14.1643 267.818 14.1643Z" fill="#FB7C26"/>
<path d="M283.941 14.1643C286.248 14.1643 288.118 12.2941 288.118 9.98717C288.118 7.6802 286.248 5.81006 283.941 5.81006C281.634 5.81006 279.764 7.6802 279.764 9.98717C279.764 12.2941 281.634 14.1643 283.941 14.1643Z" fill="#FB7C26"/>
<path d="M300.136 13.8709C302.281 13.8709 304.02 12.1319 304.02 9.98684C304.02 7.84175 302.281 6.10278 300.136 6.10278C297.991 6.10278 296.252 7.84175 296.252 9.98684C296.252 12.1319 297.991 13.8709 300.136 13.8709Z" fill="#FB7C26"/>
<path d="M316.258 13.6506C318.282 13.6506 319.922 12.0101 319.922 9.98643C319.922 7.96277 318.282 6.32227 316.258 6.32227C314.234 6.32227 312.594 7.96277 312.594 9.98643C312.594 12.0101 314.234 13.6506 316.258 13.6506Z" fill="#FB7C26"/>
<path d="M332.454 13.6506C334.478 13.6506 336.118 12.0101 336.118 9.98643C336.118 7.96277 334.478 6.32227 332.454 6.32227C330.431 6.32227 328.79 7.96277 328.79 9.98643C328.79 12.0101 330.431 13.6506 332.454 13.6506Z" fill="#FB7C26"/>
<path d="M348.577 13.6506C350.601 13.6506 352.241 12.0101 352.241 9.98643C352.241 7.96277 350.601 6.32227 348.577 6.32227C346.554 6.32227 344.913 7.96277 344.913 9.98643C344.913 12.0101 346.554 13.6506 348.577 13.6506Z" fill="#FB7C26"/>
<path d="M364.77 13.138C366.511 13.138 367.922 11.7271 367.922 9.98679C367.922 8.24644 366.511 6.83557 364.77 6.83557C363.03 6.83557 361.619 8.24644 361.619 9.98679C361.619 11.7271 363.03 13.138 364.77 13.138Z" fill="#FB7C26"/>
<path d="M154.595 46.5556C156.902 46.5556 158.773 44.6855 158.773 42.3785C158.773 40.0716 156.902 38.2014 154.595 38.2014C152.288 38.2014 150.418 40.0716 150.418 42.3785C150.418 44.6855 152.288 46.5556 154.595 46.5556Z" fill="#FB7C26"/>
<path d="M170.79 46.2622C172.936 46.2622 174.674 44.5233 174.674 42.3782C174.674 40.2331 172.936 38.4941 170.79 38.4941C168.645 38.4941 166.906 40.2331 166.906 42.3782C166.906 44.5233 168.645 46.2622 170.79 46.2622Z" fill="#FB7C26"/>
<path d="M186.986 46.2622C189.131 46.2622 190.87 44.5233 190.87 42.3782C190.87 40.2331 189.131 38.4941 186.986 38.4941C184.841 38.4941 183.102 40.2331 183.102 42.3782C183.102 44.5233 184.841 46.2622 186.986 46.2622Z" fill="#FB7C26"/>
<path d="M203.109 46.0424C205.132 46.0424 206.773 44.4019 206.773 42.3783C206.773 40.3546 205.132 38.7141 203.109 38.7141C201.085 38.7141 199.444 40.3546 199.444 42.3783C199.444 44.4019 201.085 46.0424 203.109 46.0424Z" fill="#FB7C26"/>
<path d="M154.594 29.9197C156.658 29.9197 158.331 28.2463 158.331 26.1822C158.331 24.118 156.658 22.4448 154.594 22.4448C152.53 22.4448 150.856 24.118 150.856 26.1822C150.856 28.2463 152.53 29.9197 154.594 29.9197Z" fill="#FB7C26"/>
<path d="M170.791 30.1399C172.977 30.1399 174.748 28.368 174.748 26.1824C174.748 23.9969 172.977 22.2252 170.791 22.2252C168.606 22.2252 166.834 23.9969 166.834 26.1824C166.834 28.368 168.606 30.1399 170.791 30.1399Z" fill="#FB7C26"/>
<path d="M186.986 30.0669C189.131 30.0669 190.87 28.3279 190.87 26.1828C190.87 24.0377 189.131 22.299 186.986 22.299C184.841 22.299 183.102 24.0377 183.102 26.1828C183.102 28.3279 184.841 30.0669 186.986 30.0669Z" fill="#FB7C26"/>
<path d="M203.108 30.0669C205.253 30.0669 206.992 28.3279 206.992 26.1828C206.992 24.0377 205.253 22.299 203.108 22.299C200.963 22.299 199.224 24.0377 199.224 26.1828C199.224 28.3279 200.963 30.0669 203.108 30.0669Z" fill="#FB7C26"/>
<path d="M154.594 13.7245C156.658 13.7245 158.331 12.0513 158.331 9.98716C158.331 7.92302 156.658 6.24963 154.594 6.24963C152.53 6.24963 150.856 7.92302 150.856 9.98716C150.856 12.0513 152.53 13.7245 154.594 13.7245Z" fill="#FB7C26"/>
<path d="M170.79 13.5049C172.733 13.5049 174.308 11.93 174.308 9.98724C174.308 8.04452 172.733 6.4696 170.79 6.4696C168.848 6.4696 167.272 8.04452 167.272 9.98724C167.272 11.93 168.848 13.5049 170.79 13.5049Z" fill="#FB7C26"/>
<path d="M186.986 13.2119C188.767 13.2119 190.211 11.7683 190.211 9.98751C190.211 8.20669 188.767 6.76294 186.986 6.76294C185.206 6.76294 183.762 8.20669 183.762 9.98751C183.762 11.7683 185.206 13.2119 186.986 13.2119Z" fill="#FB7C26"/>
<path d="M203.109 14.1643C205.416 14.1643 207.286 12.2941 207.286 9.98717C207.286 7.6802 205.416 5.81006 203.109 5.81006C200.802 5.81006 198.932 7.6802 198.932 9.98717C198.932 12.2941 200.802 14.1643 203.109 14.1643Z" fill="#FB7C26"/>
<path d="M138.473 46.5556C140.78 46.5556 142.65 44.6855 142.65 42.3785C142.65 40.0716 140.78 38.2014 138.473 38.2014C136.166 38.2014 134.296 40.0716 134.296 42.3785C134.296 44.6855 136.166 46.5556 138.473 46.5556Z" fill="#FB7C26"/>
<path d="M122.275 46.2622C124.421 46.2622 126.16 44.5233 126.16 42.3782C126.16 40.2331 124.421 38.4941 122.275 38.4941C120.13 38.4941 118.392 40.2331 118.392 42.3782C118.392 44.5233 120.13 46.2622 122.275 46.2622Z" fill="#FB7C26"/>
<path d="M106.153 46.2622C108.298 46.2622 110.038 44.5233 110.038 42.3782C110.038 40.2331 108.298 38.4941 106.153 38.4941C104.008 38.4941 102.27 40.2331 102.27 42.3782C102.27 44.5233 104.008 46.2622 106.153 46.2622Z" fill="#FB7C26"/>
<path d="M89.9591 46.0424C91.9828 46.0424 93.6233 44.4019 93.6233 42.3783C93.6233 40.3546 91.9828 38.7141 89.9591 38.7141C87.9354 38.7141 86.2949 40.3546 86.2949 42.3783C86.2949 44.4019 87.9354 46.0424 89.9591 46.0424Z" fill="#FB7C26"/>
<path d="M73.8361 46.5556C76.1431 46.5556 78.0134 44.6855 78.0134 42.3785C78.0134 40.0716 76.1431 38.2014 73.8361 38.2014C71.5291 38.2014 69.6592 40.0716 69.6592 42.3785C69.6592 44.6855 71.5291 46.5556 73.8361 46.5556Z" fill="#FB7C26"/>
<path d="M57.6411 46.2622C59.7862 46.2622 61.5249 44.5233 61.5249 42.3782C61.5249 40.2331 59.7862 38.4941 57.6411 38.4941C55.496 38.4941 53.7568 40.2331 53.7568 42.3782C53.7568 44.5233 55.496 46.2622 57.6411 46.2622Z" fill="#FB7C26"/>
<path d="M41.4463 45.7495C43.3081 45.7495 44.8174 44.2402 44.8174 42.3784C44.8174 40.5167 43.3081 39.0073 41.4463 39.0073C39.5845 39.0073 38.0752 40.5167 38.0752 42.3784C38.0752 44.2402 39.5845 45.7495 41.4463 45.7495Z" fill="#FB7C26"/>
<path d="M25.3224 46.0424C27.346 46.0424 28.9865 44.4019 28.9865 42.3783C28.9865 40.3546 27.346 38.7141 25.3224 38.7141C23.2987 38.7141 21.6582 40.3546 21.6582 42.3783C21.6582 44.4019 23.2987 46.0424 25.3224 46.0424Z" fill="#FB7C26"/>
<path d="M9.12802 46.2622C11.2731 46.2622 13.0119 44.5233 13.0119 42.3782C13.0119 40.2331 11.2731 38.4941 9.12802 38.4941C6.98293 38.4941 5.24414 40.2331 5.24414 42.3782C5.24414 44.5233 6.98293 46.2622 9.12802 46.2622Z" fill="#FB7C26"/>
<path d="M138.472 29.9197C140.536 29.9197 142.209 28.2463 142.209 26.1822C142.209 24.118 140.536 22.4448 138.472 22.4448C136.408 22.4448 134.734 24.118 134.734 26.1822C134.734 28.2463 136.408 29.9197 138.472 29.9197Z" fill="#FB7C26"/>
<path d="M122.277 30.2866C124.543 30.2866 126.381 28.4491 126.381 26.1826C126.381 23.9161 124.543 22.0789 122.277 22.0789C120.01 22.0789 118.173 23.9161 118.173 26.1826C118.173 28.4491 120.01 30.2866 122.277 30.2866Z" fill="#FB7C26"/>
<path d="M106.153 30.0669C108.298 30.0669 110.038 28.3279 110.038 26.1828C110.038 24.0377 108.298 22.299 106.153 22.299C104.008 22.299 102.27 24.0377 102.27 26.1828C102.27 28.3279 104.008 30.0669 106.153 30.0669Z" fill="#FB7C26"/>
<path d="M89.96 30.0669C92.1051 30.0669 93.8443 28.3279 93.8443 26.1828C93.8443 24.0377 92.1051 22.299 89.96 22.299C87.815 22.299 86.0762 24.0377 86.0762 26.1828C86.0762 28.3279 87.815 30.0669 89.96 30.0669Z" fill="#FB7C26"/>
<path d="M73.8375 29.5538C75.6993 29.5538 77.2087 28.0445 77.2087 26.1827C77.2087 24.3209 75.6993 22.8118 73.8375 22.8118C71.9758 22.8118 70.4668 24.3209 70.4668 26.1827C70.4668 28.0445 71.9758 29.5538 73.8375 29.5538Z" fill="#FB7C26"/>
<path d="M57.6411 30.0669C59.7862 30.0669 61.5249 28.3279 61.5249 26.1828C61.5249 24.0377 59.7862 22.299 57.6411 22.299C55.496 22.299 53.7568 24.0377 53.7568 26.1828C53.7568 28.3279 55.496 30.0669 57.6411 30.0669Z" fill="#FB7C26"/>
<path d="M41.4456 29.7004C43.3883 29.7004 44.963 28.1255 44.963 26.1827C44.963 24.24 43.3883 22.6653 41.4456 22.6653C39.5028 22.6653 37.9277 24.24 37.9277 26.1827C37.9277 28.1255 39.5028 29.7004 41.4456 29.7004Z" fill="#FB7C26"/>
<path d="M25.3224 29.8468C27.346 29.8468 28.9865 28.2063 28.9865 26.1826C28.9865 24.1589 27.346 22.5184 25.3224 22.5184C23.2987 22.5184 21.6582 24.1589 21.6582 26.1826C21.6582 28.2063 23.2987 29.8468 25.3224 29.8468Z" fill="#FB7C26"/>
<path d="M9.12697 29.5538C10.9887 29.5538 12.4981 28.0445 12.4981 26.1827C12.4981 24.3209 10.9887 22.8118 9.12697 22.8118C7.26519 22.8118 5.75586 24.3209 5.75586 26.1827C5.75586 28.0445 7.26519 29.5538 9.12697 29.5538Z" fill="#FB7C26"/>
<path d="M138.472 13.7245C140.536 13.7245 142.209 12.0513 142.209 9.98716C142.209 7.92302 140.536 6.24963 138.472 6.24963C136.408 6.24963 134.734 7.92302 134.734 9.98716C134.734 12.0513 136.408 13.7245 138.472 13.7245Z" fill="#FB7C26"/>
<path d="M122.276 13.5049C124.219 13.5049 125.794 11.93 125.794 9.98724C125.794 8.04452 124.219 6.4696 122.276 6.4696C120.334 6.4696 118.759 8.04452 118.759 9.98724C118.759 11.93 120.334 13.5049 122.276 13.5049Z" fill="#FB7C26"/>
<path d="M106.154 13.2119C107.935 13.2119 109.378 11.7683 109.378 9.98751C109.378 8.20669 107.935 6.76294 106.154 6.76294C104.373 6.76294 102.93 8.20669 102.93 9.98751C102.93 11.7683 104.373 13.2119 106.154 13.2119Z" fill="#FB7C26"/>
<path d="M89.9582 14.1643C92.2652 14.1643 94.1355 12.2941 94.1355 9.98717C94.1355 7.6802 92.2652 5.81006 89.9582 5.81006C87.6512 5.81006 85.7812 7.6802 85.7812 9.98717C85.7812 12.2941 87.6512 14.1643 89.9582 14.1643Z" fill="#FB7C26"/>
<path d="M73.8361 14.1643C76.1431 14.1643 78.0134 12.2941 78.0134 9.98717C78.0134 7.6802 76.1431 5.81006 73.8361 5.81006C71.5291 5.81006 69.6592 7.6802 69.6592 9.98717C69.6592 12.2941 71.5291 14.1643 73.8361 14.1643Z" fill="#FB7C26"/>
<path d="M57.6411 13.8709C59.7862 13.8709 61.5249 12.1319 61.5249 9.98684C61.5249 7.84175 59.7862 6.10278 57.6411 6.10278C55.496 6.10278 53.7568 7.84175 53.7568 9.98684C53.7568 12.1319 55.496 13.8709 57.6411 13.8709Z" fill="#FB7C26"/>
<path d="M41.4463 13.358C43.3081 13.358 44.8174 11.8488 44.8174 9.98707C44.8174 8.1253 43.3081 6.61597 41.4463 6.61597C39.5845 6.61597 38.0752 8.1253 38.0752 9.98707C38.0752 11.8488 39.5845 13.358 41.4463 13.358Z" fill="#FB7C26"/>
<path d="M25.3224 13.6506C27.346 13.6506 28.9865 12.0101 28.9865 9.98643C28.9865 7.96277 27.346 6.32227 25.3224 6.32227C23.2987 6.32227 21.6582 7.96277 21.6582 9.98643C21.6582 12.0101 23.2987 13.6506 25.3224 13.6506Z" fill="#FB7C26"/>
<path d="M9.12781 13.5049C11.0705 13.5049 12.6453 11.93 12.6453 9.98724C12.6453 8.04452 11.0705 6.4696 9.12781 6.4696C7.18509 6.4696 5.61035 8.04452 5.61035 9.98724C5.61035 11.93 7.18509 13.5049 9.12781 13.5049Z" fill="#FB7C26"/>
<path d="M9.12699 222.216C10.2602 222.216 11.1788 221.297 11.1788 220.164C11.1788 219.031 10.2602 218.112 9.12699 218.112C7.99373 218.112 7.0752 219.031 7.0752 220.164C7.0752 221.297 7.99373 222.216 9.12699 222.216Z" fill="#FB7C26"/>
<path d="M73.8377 222.068C74.89 222.068 75.7431 221.215 75.7431 220.163C75.7431 219.111 74.89 218.258 73.8377 218.258C72.7854 218.258 71.9326 219.111 71.9326 220.163C71.9326 221.215 72.7854 222.068 73.8377 222.068Z" fill="#FB7C26"/>
<path d="M122.278 221.776C123.168 221.776 123.89 221.054 123.89 220.164C123.89 219.273 123.168 218.551 122.278 218.551C121.388 218.551 120.666 219.273 120.666 220.164C120.666 221.054 121.388 221.776 122.278 221.776Z" fill="#FB7C26"/>
<path d="M138.474 221.996C139.486 221.996 140.306 221.175 140.306 220.164C140.306 219.152 139.486 218.331 138.474 218.331C137.462 218.331 136.642 219.152 136.642 220.164C136.642 221.175 137.462 221.996 138.474 221.996Z" fill="#FB7C26"/>
<path d="M154.595 221.996C155.607 221.996 156.427 221.175 156.427 220.164C156.427 219.152 155.607 218.331 154.595 218.331C153.583 218.331 152.763 219.152 152.763 220.164C152.763 221.175 153.583 221.996 154.595 221.996Z" fill="#FB7C26"/>
<path d="M170.791 221.776C171.682 221.776 172.403 221.054 172.403 220.164C172.403 219.273 171.682 218.551 170.791 218.551C169.901 218.551 169.179 219.273 169.179 220.164C169.179 221.054 169.901 221.776 170.791 221.776Z" fill="#FB7C26"/>
<path d="M9.12776 205.654C10.0586 205.654 10.8131 204.899 10.8131 203.968C10.8131 203.037 10.0586 202.283 9.12776 202.283C8.19687 202.283 7.44238 203.037 7.44238 203.968C7.44238 204.899 8.19687 205.654 9.12776 205.654Z" fill="#FB7C26"/>
<path d="M25.3232 205.507C26.1731 205.507 26.8622 204.818 26.8622 203.968C26.8622 203.118 26.1731 202.429 25.3232 202.429C24.4733 202.429 23.7842 203.118 23.7842 203.968C23.7842 204.818 24.4733 205.507 25.3232 205.507Z" fill="#FB7C26"/>
<path d="M57.6402 206.386C58.9759 206.386 60.0585 205.303 60.0585 203.968C60.0585 202.632 58.9759 201.549 57.6402 201.549C56.3046 201.549 55.2217 202.632 55.2217 203.968C55.2217 205.303 56.3046 206.386 57.6402 206.386Z" fill="#FB7C26"/>
<path d="M73.8368 205.434C74.6462 205.434 75.3024 204.777 75.3024 203.968C75.3024 203.158 74.6462 202.502 73.8368 202.502C73.0273 202.502 72.3711 203.158 72.3711 203.968C72.3711 204.777 73.0273 205.434 73.8368 205.434Z" fill="#FB7C26"/>
<path d="M89.96 206.24C91.2146 206.24 92.2318 205.223 92.2318 203.968C92.2318 202.713 91.2146 201.696 89.96 201.696C88.7053 201.696 87.6885 202.713 87.6885 203.968C87.6885 205.223 88.7053 206.24 89.96 206.24Z" fill="#FB7C26"/>
<path d="M106.154 205.8C107.166 205.8 107.986 204.98 107.986 203.968C107.986 202.956 107.166 202.136 106.154 202.136C105.143 202.136 104.322 202.956 104.322 203.968C104.322 204.98 105.143 205.8 106.154 205.8Z" fill="#FB7C26"/>
<path d="M122.276 205.287C123.005 205.287 123.595 204.697 123.595 203.968C123.595 203.24 123.005 202.649 122.276 202.649C121.547 202.649 120.957 203.24 120.957 203.968C120.957 204.697 121.547 205.287 122.276 205.287Z" fill="#FB7C26"/>
<path d="M138.474 206.313C139.769 206.313 140.819 205.264 140.819 203.968C140.819 202.673 139.769 201.623 138.474 201.623C137.179 201.623 136.129 202.673 136.129 203.968C136.129 205.264 137.179 206.313 138.474 206.313Z" fill="#FB7C26"/>
<path d="M154.595 205.8C155.607 205.8 156.427 204.98 156.427 203.968C156.427 202.956 155.607 202.136 154.595 202.136C153.583 202.136 152.763 202.956 152.763 203.968C152.763 204.98 153.583 205.8 154.595 205.8Z" fill="#FB7C26"/>
<path d="M170.791 205.58C171.682 205.58 172.403 204.858 172.403 203.968C172.403 203.077 171.682 202.356 170.791 202.356C169.901 202.356 169.179 203.077 169.179 203.968C169.179 204.858 169.901 205.58 170.791 205.58Z" fill="#FB7C26"/>
<path d="M9.12699 189.898C10.2602 189.898 11.1788 188.979 11.1788 187.846C11.1788 186.713 10.2602 185.794 9.12699 185.794C7.99373 185.794 7.0752 186.713 7.0752 187.846C7.0752 188.979 7.99373 189.898 9.12699 189.898Z" fill="#FB7C26"/>
<path d="M25.3236 189.898C26.4569 189.898 27.3754 188.979 27.3754 187.846C27.3754 186.713 26.4569 185.794 25.3236 185.794C24.1904 185.794 23.2715 186.713 23.2715 187.846C23.2715 188.979 24.1904 189.898 25.3236 189.898Z" fill="#FB7C26"/>
<path d="M41.4462 189.604C42.4176 189.604 43.205 188.817 43.205 187.846C43.205 186.874 42.4176 186.087 41.4462 186.087C40.4749 186.087 39.6875 186.874 39.6875 187.846C39.6875 188.817 40.4749 189.604 41.4462 189.604Z" fill="#FB7C26"/>
<path d="M57.6409 189.604C58.6123 189.604 59.3997 188.817 59.3997 187.846C59.3997 186.874 58.6123 186.087 57.6409 186.087C56.6696 186.087 55.8818 186.874 55.8818 187.846C55.8818 188.817 56.6696 189.604 57.6409 189.604Z" fill="#FB7C26"/>
<path d="M73.8357 189.458C74.7261 189.458 75.448 188.736 75.448 187.845C75.448 186.955 74.7261 186.233 73.8357 186.233C72.9452 186.233 72.2236 186.955 72.2236 187.845C72.2236 188.736 72.9452 189.458 73.8357 189.458Z" fill="#FB7C26"/>
<path d="M89.96 190.117C91.2146 190.117 92.2318 189.1 92.2318 187.845C92.2318 186.591 91.2146 185.574 89.96 185.574C88.7053 185.574 87.6885 186.591 87.6885 187.845C87.6885 189.1 88.7053 190.117 89.96 190.117Z" fill="#FB7C26"/>
<path d="M106.155 189.458C107.045 189.458 107.767 188.736 107.767 187.845C107.767 186.955 107.045 186.233 106.155 186.233C105.265 186.233 104.543 186.955 104.543 187.845C104.543 188.736 105.265 189.458 106.155 189.458Z" fill="#FB7C26"/>
<path d="M122.278 189.458C123.168 189.458 123.89 188.736 123.89 187.845C123.89 186.955 123.168 186.233 122.278 186.233C121.388 186.233 120.666 186.955 120.666 187.845C120.666 188.736 121.388 189.458 122.278 189.458Z" fill="#FB7C26"/>
<path d="M138.473 189.165C139.202 189.165 139.792 188.575 139.792 187.846C139.792 187.118 139.202 186.527 138.473 186.527C137.745 186.527 137.154 187.118 137.154 187.846C137.154 188.575 137.745 189.165 138.473 189.165Z" fill="#FB7C26"/>
<path d="M154.596 189.825C155.689 189.825 156.575 188.939 156.575 187.846C156.575 186.753 155.689 185.867 154.596 185.867C153.503 185.867 152.617 186.753 152.617 187.846C152.617 188.939 153.503 189.825 154.596 189.825Z" fill="#FB7C26"/>
<path d="M170.791 189.458C171.682 189.458 172.403 188.736 172.403 187.845C172.403 186.955 171.682 186.233 170.791 186.233C169.901 186.233 169.179 186.955 169.179 187.845C169.179 188.736 169.901 189.458 170.791 189.458Z" fill="#FB7C26"/>
<path d="M9.12703 173.263C10.0174 173.263 10.7394 172.541 10.7394 171.651C10.7394 170.76 10.0174 170.039 9.12703 170.039C8.23661 170.039 7.51465 170.76 7.51465 171.651C7.51465 172.541 8.23661 173.263 9.12703 173.263Z" fill="#FB7C26"/>
<path d="M25.3251 173.409C26.2965 173.409 27.0839 172.621 27.0839 171.65C27.0839 170.679 26.2965 169.891 25.3251 169.891C24.3538 169.891 23.5664 170.679 23.5664 171.65C23.5664 172.621 24.3538 173.409 25.3251 173.409Z" fill="#FB7C26"/>
<path d="M41.4462 173.409C42.4176 173.409 43.205 172.621 43.205 171.65C43.205 170.679 42.4176 169.891 41.4462 169.891C40.4749 169.891 39.6875 170.679 39.6875 171.65C39.6875 172.621 40.4749 173.409 41.4462 173.409Z" fill="#FB7C26"/>
<path d="M57.6407 173.263C58.5311 173.263 59.2527 172.541 59.2527 171.651C59.2527 170.76 58.5311 170.039 57.6407 170.039C56.7503 170.039 56.0283 170.76 56.0283 171.651C56.0283 172.541 56.7503 173.263 57.6407 173.263Z" fill="#FB7C26"/>
<path d="M73.8361 173.995C75.1312 173.995 76.1813 172.945 76.1813 171.65C76.1813 170.355 75.1312 169.305 73.8361 169.305C72.5409 169.305 71.4912 170.355 71.4912 171.65C71.4912 172.945 72.5409 173.995 73.8361 173.995Z" fill="#FB7C26"/>
<path d="M89.9587 173.042C90.7277 173.042 91.3514 172.419 91.3514 171.65C91.3514 170.881 90.7277 170.258 89.9587 170.258C89.1897 170.258 88.5664 170.881 88.5664 171.65C88.5664 172.419 89.1897 173.042 89.9587 173.042Z" fill="#FB7C26"/>
<path d="M106.154 173.482C107.166 173.482 107.986 172.661 107.986 171.65C107.986 170.638 107.166 169.818 106.154 169.818C105.143 169.818 104.322 170.638 104.322 171.65C104.322 172.661 105.143 173.482 106.154 173.482Z" fill="#FB7C26"/>
<path d="M122.277 173.482C123.289 173.482 124.109 172.661 124.109 171.65C124.109 170.638 123.289 169.818 122.277 169.818C121.266 169.818 120.445 170.638 120.445 171.65C120.445 172.661 121.266 173.482 122.277 173.482Z" fill="#FB7C26"/>
<path d="M138.473 173.629C139.566 173.629 140.452 172.743 140.452 171.65C140.452 170.557 139.566 169.672 138.473 169.672C137.38 169.672 136.494 170.557 136.494 171.65C136.494 172.743 137.38 173.629 138.473 173.629Z" fill="#FB7C26"/>
<path d="M154.596 173.629C155.689 173.629 156.575 172.743 156.575 171.65C156.575 170.557 155.689 169.672 154.596 169.672C153.503 169.672 152.617 170.557 152.617 171.65C152.617 172.743 153.503 173.629 154.596 173.629Z" fill="#FB7C26"/>
<path d="M170.791 173.629C171.884 173.629 172.77 172.743 172.77 171.65C172.77 170.557 171.884 169.672 170.791 169.672C169.699 169.672 168.812 170.557 168.812 171.65C168.812 172.743 169.699 173.629 170.791 173.629Z" fill="#FB7C26"/>
<path d="M9.12841 157.873C10.4236 157.873 11.4736 156.823 11.4736 155.528C11.4736 154.233 10.4236 153.183 9.12841 153.183C7.83327 153.183 6.7832 154.233 6.7832 155.528C6.7832 156.823 7.83327 157.873 9.12841 157.873Z" fill="#FB7C26"/>
<path d="M25.3241 158.605C27.024 158.605 28.4018 157.227 28.4018 155.527C28.4018 153.827 27.024 152.449 25.3241 152.449C23.6243 152.449 22.2461 153.827 22.2461 155.527C22.2461 157.227 23.6243 158.605 25.3241 158.605Z" fill="#FB7C26"/>
<path d="M41.445 158.239C42.9425 158.239 44.1563 157.025 44.1563 155.527C44.1563 154.03 42.9425 152.816 41.445 152.816C39.9475 152.816 38.7334 154.03 38.7334 155.527C38.7334 157.025 39.9475 158.239 41.445 158.239Z" fill="#FB7C26"/>
<path d="M57.6413 158.239C59.1388 158.239 60.3526 157.025 60.3526 155.527C60.3526 154.03 59.1388 152.816 57.6413 152.816C56.1438 152.816 54.9297 154.03 54.9297 155.527C54.9297 157.025 56.1438 158.239 57.6413 158.239Z" fill="#FB7C26"/>
<path d="M73.8361 157.873C75.1312 157.873 76.1813 156.823 76.1813 155.528C76.1813 154.233 75.1312 153.183 73.8361 153.183C72.5409 153.183 71.4912 154.233 71.4912 155.528C71.4912 156.823 72.5409 157.873 73.8361 157.873Z" fill="#FB7C26"/>
<path d="M89.9602 158.166C91.4172 158.166 92.5985 156.985 92.5985 155.528C92.5985 154.071 91.4172 152.89 89.9602 152.89C88.5031 152.89 87.3223 154.071 87.3223 155.528C87.3223 156.985 88.5031 158.166 89.9602 158.166Z" fill="#FB7C26"/>
<path d="M106.154 158.019C107.53 158.019 108.645 156.903 108.645 155.527C108.645 154.151 107.53 153.035 106.154 153.035C104.778 153.035 103.662 154.151 103.662 155.527C103.662 156.903 104.778 158.019 106.154 158.019Z" fill="#FB7C26"/>
<path d="M122.277 157.36C123.289 157.36 124.109 156.539 124.109 155.528C124.109 154.516 123.289 153.696 122.277 153.696C121.266 153.696 120.445 154.516 120.445 155.528C120.445 156.539 121.266 157.36 122.277 157.36Z" fill="#FB7C26"/>
<path d="M138.474 157.873C139.769 157.873 140.819 156.823 140.819 155.528C140.819 154.233 139.769 153.183 138.474 153.183C137.179 153.183 136.129 154.233 136.129 155.528C136.129 156.823 137.179 157.873 138.474 157.873Z" fill="#FB7C26"/>
<path d="M154.595 158.532C156.254 158.532 157.599 157.187 157.599 155.528C157.599 153.868 156.254 152.523 154.595 152.523C152.935 152.523 151.59 153.868 151.59 155.528C151.59 157.187 152.935 158.532 154.595 158.532Z" fill="#FB7C26"/>
<path d="M170.792 157.653C171.966 157.653 172.917 156.701 172.917 155.527C172.917 154.354 171.966 153.402 170.792 153.402C169.618 153.402 168.667 154.354 168.667 155.527C168.667 156.701 169.618 157.653 170.792 157.653Z" fill="#FB7C26"/>
<path d="M9.12821 141.311C10.221 141.311 11.107 140.425 11.107 139.333C11.107 138.24 10.221 137.354 9.12821 137.354C8.03543 137.354 7.14941 138.24 7.14941 139.333C7.14941 140.425 8.03543 141.311 9.12821 141.311Z" fill="#FB7C26"/>
<path d="M25.3229 142.264C26.9419 142.264 28.2543 140.951 28.2543 139.332C28.2543 137.713 26.9419 136.401 25.3229 136.401C23.704 136.401 22.3916 137.713 22.3916 139.332C22.3916 140.951 23.704 142.264 25.3229 142.264Z" fill="#FB7C26"/>
<path d="M41.4469 141.751C42.7825 141.751 43.8651 140.668 43.8651 139.332C43.8651 137.997 42.7825 136.914 41.4469 136.914C40.1113 136.914 39.0283 137.997 39.0283 139.332C39.0283 140.668 40.1113 141.751 41.4469 141.751Z" fill="#FB7C26"/>
<path d="M57.6411 141.677C58.9363 141.677 59.986 140.627 59.986 139.332C59.986 138.037 58.9363 136.987 57.6411 136.987C56.346 136.987 55.2959 138.037 55.2959 139.332C55.2959 140.627 56.346 141.677 57.6411 141.677Z" fill="#FB7C26"/>
<path d="M73.8362 141.751C75.1718 141.751 76.2547 140.668 76.2547 139.332C76.2547 137.997 75.1718 136.914 73.8362 136.914C72.5006 136.914 71.418 137.997 71.418 139.332C71.418 140.668 72.5006 141.751 73.8362 141.751Z" fill="#FB7C26"/>
<path d="M89.9592 141.751C91.2948 141.751 92.3778 140.668 92.3778 139.332C92.3778 137.997 91.2948 136.914 89.9592 136.914C88.6236 136.914 87.541 137.997 87.541 139.332C87.541 140.668 88.6236 141.751 89.9592 141.751Z" fill="#FB7C26"/>
<path d="M106.155 141.53C107.369 141.53 108.353 140.546 108.353 139.332C108.353 138.118 107.369 137.133 106.155 137.133C104.94 137.133 103.956 138.118 103.956 139.332C103.956 140.546 104.94 141.53 106.155 141.53Z" fill="#FB7C26"/>
<path d="M122.276 142.337C123.936 142.337 125.281 140.991 125.281 139.332C125.281 137.673 123.936 136.327 122.276 136.327C120.617 136.327 119.271 137.673 119.271 139.332C119.271 140.991 120.617 142.337 122.276 142.337Z" fill="#FB7C26"/>
<path d="M138.472 141.238C139.524 141.238 140.377 140.385 140.377 139.333C140.377 138.28 139.524 137.427 138.472 137.427C137.42 137.427 136.566 138.28 136.566 139.333C136.566 140.385 137.42 141.238 138.472 141.238Z" fill="#FB7C26"/>
<path d="M154.594 141.53C155.808 141.53 156.793 140.546 156.793 139.332C156.793 138.118 155.808 137.133 154.594 137.133C153.38 137.133 152.396 138.118 152.396 139.332C152.396 140.546 153.38 141.53 154.594 141.53Z" fill="#FB7C26"/>
<path d="M170.79 142.337C172.449 142.337 173.795 140.991 173.795 139.332C173.795 137.673 172.449 136.327 170.79 136.327C169.13 136.327 167.785 137.673 167.785 139.332C167.785 140.991 169.13 142.337 170.79 142.337Z" fill="#FB7C26"/>
<path d="M9.12633 125.701C10.5024 125.701 11.6179 124.586 11.6179 123.21C11.6179 121.834 10.5024 120.718 9.12633 120.718C7.75024 120.718 6.63477 121.834 6.63477 123.21C6.63477 124.586 7.75024 125.701 9.12633 125.701Z" fill="#FB7C26"/>
<path d="M25.3229 126.141C26.9419 126.141 28.2543 124.829 28.2543 123.21C28.2543 121.591 26.9419 120.279 25.3229 120.279C23.704 120.279 22.3916 121.591 22.3916 123.21C22.3916 124.829 23.704 126.141 25.3229 126.141Z" fill="#FB7C26"/>
<path d="M41.4462 124.968C42.4176 124.968 43.205 124.181 43.205 123.209C43.205 122.238 42.4176 121.451 41.4462 121.451C40.4749 121.451 39.6875 122.238 39.6875 123.209C39.6875 124.181 40.4749 124.968 41.4462 124.968Z" fill="#FB7C26"/>
<path d="M57.6413 125.921C59.1388 125.921 60.3526 124.707 60.3526 123.21C60.3526 121.712 59.1388 120.498 57.6413 120.498C56.1438 120.498 54.9297 121.712 54.9297 123.21C54.9297 124.707 56.1438 125.921 57.6413 125.921Z" fill="#FB7C26"/>
<path d="M73.8353 125.921C75.3328 125.921 76.5469 124.707 76.5469 123.21C76.5469 121.712 75.3328 120.498 73.8353 120.498C72.3378 120.498 71.124 121.712 71.124 123.21C71.124 124.707 72.3378 125.921 73.8353 125.921Z" fill="#FB7C26"/>
<path d="M89.9574 125.921C91.4549 125.921 92.669 124.707 92.669 123.21C92.669 121.712 91.4549 120.498 89.9574 120.498C88.4599 120.498 87.2461 121.712 87.2461 123.21C87.2461 124.707 88.4599 125.921 89.9574 125.921Z" fill="#FB7C26"/>
<path d="M106.154 125.701C107.53 125.701 108.645 124.586 108.645 123.21C108.645 121.834 107.53 120.718 106.154 120.718C104.778 120.718 103.662 121.834 103.662 123.21C103.662 124.586 104.778 125.701 106.154 125.701Z" fill="#FB7C26"/>
<path d="M122.278 125.189C123.371 125.189 124.257 124.303 124.257 123.21C124.257 122.117 123.371 121.231 122.278 121.231C121.185 121.231 120.3 122.117 120.3 123.21C120.3 124.303 121.185 125.189 122.278 125.189Z" fill="#FB7C26"/>
<path d="M138.474 126.654C140.376 126.654 141.918 125.112 141.918 123.21C141.918 121.308 140.376 119.766 138.474 119.766C136.572 119.766 135.029 121.308 135.029 123.21C135.029 125.112 136.572 126.654 138.474 126.654Z" fill="#FB7C26"/>
<path d="M154.595 126.215C156.254 126.215 157.599 124.869 157.599 123.21C157.599 121.551 156.254 120.205 154.595 120.205C152.935 120.205 151.59 121.551 151.59 123.21C151.59 124.869 152.935 126.215 154.595 126.215Z" fill="#FB7C26"/>
<path d="M170.791 125.775C172.207 125.775 173.355 124.627 173.355 123.21C173.355 121.793 172.207 120.645 170.791 120.645C169.374 120.645 168.226 121.793 168.226 123.21C168.226 124.627 169.374 125.775 170.791 125.775Z" fill="#FB7C26"/>
<path d="M9.12809 108.92C10.1804 108.92 11.0335 108.066 11.0335 107.014C11.0335 105.962 10.1804 105.109 9.12809 105.109C8.07579 105.109 7.22266 105.962 7.22266 107.014C7.22266 108.066 8.07579 108.92 9.12809 108.92Z" fill="#FB7C26"/>
<path d="M25.3225 109.213C26.5367 109.213 27.521 108.228 27.521 107.014C27.521 105.8 26.5367 104.816 25.3225 104.816C24.1083 104.816 23.124 105.8 23.124 107.014C23.124 108.228 24.1083 109.213 25.3225 109.213Z" fill="#FB7C26"/>
<path d="M41.4469 109.432C42.7825 109.432 43.8651 108.35 43.8651 107.014C43.8651 105.678 42.7825 104.596 41.4469 104.596C40.1113 104.596 39.0283 105.678 39.0283 107.014C39.0283 108.35 40.1113 109.432 41.4469 109.432Z" fill="#FB7C26"/>
<path d="M57.6413 109.946C59.2602 109.946 60.5726 108.633 60.5726 107.014C60.5726 105.395 59.2602 104.083 57.6413 104.083C56.0224 104.083 54.71 105.395 54.71 107.014C54.71 108.633 56.0224 109.946 57.6413 109.946Z" fill="#FB7C26"/>
<path d="M73.8366 109.946C75.4555 109.946 76.7679 108.633 76.7679 107.014C76.7679 105.395 75.4555 104.083 73.8366 104.083C72.2177 104.083 70.9053 105.395 70.9053 107.014C70.9053 108.633 72.2177 109.946 73.8366 109.946Z" fill="#FB7C26"/>
<path d="M89.9604 110.018C91.6198 110.018 92.9651 108.673 92.9651 107.014C92.9651 105.354 91.6198 104.009 89.9604 104.009C88.301 104.009 86.9561 105.354 86.9561 107.014C86.9561 108.673 88.301 110.018 89.9604 110.018Z" fill="#FB7C26"/>
<path d="M106.155 109.213C107.369 109.213 108.353 108.228 108.353 107.014C108.353 105.8 107.369 104.816 106.155 104.816C104.94 104.816 103.956 105.8 103.956 107.014C103.956 108.228 104.94 109.213 106.155 109.213Z" fill="#FB7C26"/>
<path d="M122.277 108.846C123.289 108.846 124.109 108.026 124.109 107.014C124.109 106.002 123.289 105.182 122.277 105.182C121.266 105.182 120.445 106.002 120.445 107.014C120.445 108.026 121.266 108.846 122.277 108.846Z" fill="#FB7C26"/>
<path d="M138.474 110.458C140.376 110.458 141.918 108.916 141.918 107.014C141.918 105.112 140.376 103.57 138.474 103.57C136.572 103.57 135.029 105.112 135.029 107.014C135.029 108.916 136.572 110.458 138.474 110.458Z" fill="#FB7C26"/>
<path d="M154.594 109.213C155.808 109.213 156.793 108.228 156.793 107.014C156.793 105.8 155.808 104.816 154.594 104.816C153.38 104.816 152.396 105.8 152.396 107.014C152.396 108.228 153.38 109.213 154.594 109.213Z" fill="#FB7C26"/>
<path d="M170.79 110.018C172.449 110.018 173.795 108.673 173.795 107.014C173.795 105.354 172.449 104.009 170.79 104.009C169.13 104.009 167.785 105.354 167.785 107.014C167.785 108.673 169.13 110.018 170.79 110.018Z" fill="#FB7C26"/>
<path d="M9.12785 93.8968C10.8277 93.8968 12.2059 92.5188 12.2059 90.8189C12.2059 89.119 10.8277 87.7408 9.12785 87.7408C7.42797 87.7408 6.0498 89.119 6.0498 90.8189C6.0498 92.5188 7.42797 93.8968 9.12785 93.8968Z" fill="#FB7C26"/>
<path d="M25.3229 93.7499C26.9419 93.7499 28.2543 92.4375 28.2543 90.8185C28.2543 89.1996 26.9419 87.8872 25.3229 87.8872C23.704 87.8872 22.3916 89.1996 22.3916 90.8185C22.3916 92.4375 23.704 93.7499 25.3229 93.7499Z" fill="#FB7C26"/>
<path d="M41.4462 92.5772C42.4176 92.5772 43.205 91.7898 43.205 90.8185C43.205 89.8471 42.4176 89.0596 41.4462 89.0596C40.4749 89.0596 39.6875 89.8471 39.6875 90.8185C39.6875 91.7898 40.4749 92.5772 41.4462 92.5772Z" fill="#FB7C26"/>
<path d="M57.6413 93.7499C59.2602 93.7499 60.5726 92.4375 60.5726 90.8185C60.5726 89.1996 59.2602 87.8872 57.6413 87.8872C56.0224 87.8872 54.71 89.1996 54.71 90.8185C54.71 92.4375 56.0224 93.7499 57.6413 93.7499Z" fill="#FB7C26"/>
<path d="M73.8358 94.3364C75.7785 94.3364 77.3536 92.7616 77.3536 90.8189C77.3536 88.8762 75.7785 87.3013 73.8358 87.3013C71.8931 87.3013 70.3184 88.8762 70.3184 90.8189C70.3184 92.7616 71.8931 94.3364 73.8358 94.3364Z" fill="#FB7C26"/>
<path d="M89.9604 93.8227C91.6198 93.8227 92.9651 92.4776 92.9651 90.8182C92.9651 89.1588 91.6198 87.8135 89.9604 87.8135C88.301 87.8135 86.9561 89.1588 86.9561 90.8182C86.9561 92.4776 88.301 93.8227 89.9604 93.8227Z" fill="#FB7C26"/>
<path d="M106.155 94.3364C108.098 94.3364 109.673 92.7616 109.673 90.8189C109.673 88.8762 108.098 87.3013 106.155 87.3013C104.212 87.3013 102.638 88.8762 102.638 90.8189C102.638 92.7616 104.212 94.3364 106.155 94.3364Z" fill="#FB7C26"/>
<path d="M122.276 94.3364C124.219 94.3364 125.794 92.7616 125.794 90.8189C125.794 88.8762 124.219 87.3013 122.276 87.3013C120.334 87.3013 118.759 88.8762 118.759 90.8189C118.759 92.7616 120.334 94.3364 122.276 94.3364Z" fill="#FB7C26"/>
<path d="M138.472 94.556C140.536 94.556 142.209 92.8828 142.209 90.8187C142.209 88.7546 140.536 87.0812 138.472 87.0812C136.408 87.0812 134.734 88.7546 134.734 90.8187C134.734 92.8828 136.408 94.556 138.472 94.556Z" fill="#FB7C26"/>
<path d="M154.594 93.3835C156.011 93.3835 157.159 92.2351 157.159 90.8186C157.159 89.402 156.011 88.2537 154.594 88.2537C153.178 88.2537 152.029 89.402 152.029 90.8186C152.029 92.2351 153.178 93.3835 154.594 93.3835Z" fill="#FB7C26"/>
<path d="M170.791 94.043C172.572 94.043 174.015 92.5994 174.015 90.8186C174.015 89.0377 172.572 87.594 170.791 87.594C169.01 87.594 167.566 89.0377 167.566 90.8186C167.566 92.5994 169.01 94.043 170.791 94.043Z" fill="#FB7C26"/>
<path d="M170.79 62.0178C172.733 62.0178 174.308 60.4429 174.308 58.5002C174.308 56.5575 172.733 54.9825 170.79 54.9825C168.848 54.9825 167.272 56.5575 167.272 58.5002C167.272 60.4429 168.848 62.0178 170.79 62.0178Z" fill="#FB7C26"/>
<path d="M154.595 62.0178C156.537 62.0178 158.112 60.4429 158.112 58.5002C158.112 56.5575 156.537 54.9825 154.595 54.9825C152.652 54.9825 151.077 56.5575 151.077 58.5002C151.077 60.4429 152.652 62.0178 154.595 62.0178Z" fill="#FB7C26"/>
<path d="M138.472 62.238C140.536 62.238 142.209 60.5646 142.209 58.5005C142.209 56.4363 140.536 54.7629 138.472 54.7629C136.408 54.7629 134.734 56.4363 134.734 58.5005C134.734 60.5646 136.408 62.238 138.472 62.238Z" fill="#FB7C26"/>
<path d="M122.278 61.0653C123.694 61.0653 124.843 59.9169 124.843 58.5003C124.843 57.0838 123.694 55.9354 122.278 55.9354C120.861 55.9354 119.713 57.0838 119.713 58.5003C119.713 59.9169 120.861 61.0653 122.278 61.0653Z" fill="#FB7C26"/>
<path d="M106.154 61.7245C107.935 61.7245 109.378 60.281 109.378 58.5002C109.378 56.7193 107.935 55.2758 106.154 55.2758C104.373 55.2758 102.93 56.7193 102.93 58.5002C102.93 60.281 104.373 61.7245 106.154 61.7245Z" fill="#FB7C26"/>
<path d="M89.9592 60.919C91.2948 60.919 92.3778 59.8363 92.3778 58.5007C92.3778 57.165 91.2948 56.0823 89.9592 56.0823C88.6236 56.0823 87.541 57.165 87.541 58.5007C87.541 59.8363 88.6236 60.919 89.9592 60.919Z" fill="#FB7C26"/>
<path d="M73.8374 61.0653C75.2539 61.0653 76.4023 59.9169 76.4023 58.5003C76.4023 57.0838 75.2539 55.9354 73.8374 55.9354C72.4208 55.9354 71.2725 57.0838 71.2725 58.5003C71.2725 59.9169 72.4208 61.0653 73.8374 61.0653Z" fill="#FB7C26"/>
<path d="M57.6411 62.3843C59.7862 62.3843 61.5249 60.6453 61.5249 58.5003C61.5249 56.3552 59.7862 54.6162 57.6411 54.6162C55.496 54.6162 53.7568 56.3552 53.7568 58.5003C53.7568 60.6453 55.496 62.3843 57.6411 62.3843Z" fill="#FB7C26"/>
<path d="M41.4453 61.6523C43.1857 61.6523 44.5964 60.2414 44.5964 58.5011C44.5964 56.7607 43.1857 55.3499 41.4453 55.3499C39.705 55.3499 38.2939 56.7607 38.2939 58.5011C38.2939 60.2414 39.705 61.6523 41.4453 61.6523Z" fill="#FB7C26"/>
<path d="M25.3224 62.165C27.346 62.165 28.9865 60.5245 28.9865 58.5008C28.9865 56.4772 27.346 54.8367 25.3224 54.8367C23.2987 54.8367 21.6582 56.4772 21.6582 58.5008C21.6582 60.5245 23.2987 62.165 25.3224 62.165Z" fill="#FB7C26"/>
<path d="M9.12697 61.8716C10.9887 61.8716 12.4981 60.3623 12.4981 58.5005C12.4981 56.6387 10.9887 55.1294 9.12697 55.1294C7.26519 55.1294 5.75586 56.6387 5.75586 58.5005C5.75586 60.3623 7.26519 61.8716 9.12697 61.8716Z" fill="#FB7C26"/>
<path d="M170.79 78.2143C172.733 78.2143 174.308 76.6396 174.308 74.6968C174.308 72.7541 172.733 71.1792 170.79 71.1792C168.848 71.1792 167.272 72.7541 167.272 74.6968C167.272 76.6396 168.848 78.2143 170.79 78.2143Z" fill="#FB7C26"/>
<path d="M154.595 78.2143C156.537 78.2143 158.112 76.6396 158.112 74.6968C158.112 72.7541 156.537 71.1792 154.595 71.1792C152.652 71.1792 151.077 72.7541 151.077 74.6968C151.077 76.6396 152.652 78.2143 154.595 78.2143Z" fill="#FB7C26"/>
<path d="M138.472 78.4336C140.536 78.4336 142.209 76.7604 142.209 74.6963C142.209 72.6321 140.536 70.9587 138.472 70.9587C136.408 70.9587 134.734 72.6321 134.734 74.6963C134.734 76.7604 136.408 78.4336 138.472 78.4336Z" fill="#FB7C26"/>
<path d="M122.278 77.2609C123.694 77.2609 124.843 76.1126 124.843 74.696C124.843 73.2795 123.694 72.1311 122.278 72.1311C120.861 72.1311 119.713 73.2795 119.713 74.696C119.713 76.1126 120.861 77.2609 122.278 77.2609Z" fill="#FB7C26"/>
<path d="M106.154 77.9204C107.935 77.9204 109.378 76.4768 109.378 74.696C109.378 72.9152 107.935 71.4714 106.154 71.4714C104.373 71.4714 102.93 72.9152 102.93 74.696C102.93 76.4768 104.373 77.9204 106.154 77.9204Z" fill="#FB7C26"/>
<path d="M89.9592 77.1145C91.2948 77.1145 92.3778 76.032 92.3778 74.6963C92.3778 73.3607 91.2948 72.278 89.9592 72.278C88.6236 72.278 87.541 73.3607 87.541 74.6963C87.541 76.032 88.6236 77.1145 89.9592 77.1145Z" fill="#FB7C26"/>
<path d="M73.8374 77.2609C75.2539 77.2609 76.4023 76.1126 76.4023 74.696C76.4023 73.2795 75.2539 72.1311 73.8374 72.1311C72.4208 72.1311 71.2725 73.2795 71.2725 74.696C71.2725 76.1126 72.4208 77.2609 73.8374 77.2609Z" fill="#FB7C26"/>
<path d="M57.6411 78.5807C59.7862 78.5807 61.5249 76.8419 61.5249 74.6968C61.5249 72.5517 59.7862 70.8127 57.6411 70.8127C55.496 70.8127 53.7568 72.5517 53.7568 74.6968C53.7568 76.8419 55.496 78.5807 57.6411 78.5807Z" fill="#FB7C26"/>
<path d="M41.4453 77.8469C43.1857 77.8469 44.5964 76.4362 44.5964 74.6959C44.5964 72.9555 43.1857 71.5447 41.4453 71.5447C39.705 71.5447 38.2939 72.9555 38.2939 74.6959C38.2939 76.4362 39.705 77.8469 41.4453 77.8469Z" fill="#FB7C26"/>
<path d="M25.3224 78.3602C27.346 78.3602 28.9865 76.7197 28.9865 74.696C28.9865 72.6724 27.346 71.0319 25.3224 71.0319C23.2987 71.0319 21.6582 72.6724 21.6582 74.696C21.6582 76.7197 23.2987 78.3602 25.3224 78.3602Z" fill="#FB7C26"/>
<path d="M9.12697 78.0671C10.9887 78.0671 12.4981 76.558 12.4981 74.6962C12.4981 72.8344 10.9887 71.3251 9.12697 71.3251C7.26519 71.3251 5.75586 72.8344 5.75586 74.6962C5.75586 76.558 7.26519 78.0671 9.12697 78.0671Z" fill="#FB7C26"/>
</svg>
