<svg width="181" height="145" viewBox="0 0 181 145" fill="none" xmlns="http://www.w3.org/2000/svg">
<path d="M39.1637 3.95767C40.0744 3.95767 40.8127 3.21939 40.8127 2.30867C40.8127 1.39795 40.0744 0.659668 39.1637 0.659668C38.2529 0.659668 37.5146 1.39795 37.5146 2.30867C37.5146 3.21939 38.2529 3.95767 39.1637 3.95767Z" fill="#4C8BAA"/>
<path d="M75.5242 4.61729C76.7992 4.61729 77.8326 3.58365 77.8326 2.30864C77.8326 1.03364 76.7992 0 75.5242 0C74.2492 0 73.2158 1.03364 73.2158 2.30864C73.2158 3.58365 74.2492 4.61729 75.5242 4.61729Z" fill="#4C8BAA"/>
<path d="M148.329 4.45216C149.512 4.45216 150.473 3.49251 150.473 2.30858C150.473 1.12464 149.512 0.164795 148.329 0.164795C147.145 0.164795 146.185 1.12464 146.185 2.30858C146.185 3.49251 147.145 4.45216 148.329 4.45216Z" fill="#4C8BAA"/>
<path d="M2.80299 22.3441C3.85032 22.3441 4.69918 21.495 4.69918 20.4477C4.69918 19.4003 3.85032 18.5513 2.80299 18.5513C1.75566 18.5513 0.906799 19.4003 0.906799 20.4477C0.906799 21.495 1.75566 22.3441 2.80299 22.3441Z" fill="#4C8BAA"/>
<path d="M20.9427 22.5913C22.1266 22.5913 23.0869 21.6317 23.0869 20.4477C23.0869 19.2638 22.1266 18.304 20.9427 18.304C19.7588 18.304 18.7993 19.2638 18.7993 20.4477C18.7993 21.6317 19.7588 22.5913 20.9427 22.5913Z" fill="#4C8BAA"/>
<path d="M39.1635 22.5913C40.3474 22.5913 41.3069 21.6317 41.3069 20.4477C41.3069 19.2638 40.3474 18.304 39.1635 18.304C37.9795 18.304 37.0193 19.2638 37.0193 20.4477C37.0193 21.6317 37.9795 22.5913 39.1635 22.5913Z" fill="#4C8BAA"/>
<path d="M57.3843 22.5913C58.5682 22.5913 59.5277 21.6317 59.5277 20.4477C59.5277 19.2638 58.5682 18.304 57.3843 18.304C56.2004 18.304 55.2409 19.2638 55.2409 20.4477C55.2409 21.6317 56.2004 22.5913 57.3843 22.5913Z" fill="#4C8BAA"/>
<path d="M75.5243 22.3441C76.5716 22.3441 77.4205 21.495 77.4205 20.4477C77.4205 19.4003 76.5716 18.5513 75.5243 18.5513C74.477 18.5513 73.6281 19.4003 73.6281 20.4477C73.6281 21.495 74.477 22.3441 75.5243 22.3441Z" fill="#4C8BAA"/>
<path d="M93.7452 22.1789C94.7015 22.1789 95.4772 21.4039 95.4772 20.4476C95.4772 19.4913 94.7015 18.7161 93.7452 18.7161C92.789 18.7161 92.0141 19.4913 92.0141 20.4476C92.0141 21.4039 92.789 22.1789 93.7452 22.1789Z" fill="#4C8BAA"/>
<path d="M130.105 23.1686C131.608 23.1686 132.826 21.9504 132.826 20.4477C132.826 18.945 131.608 17.7268 130.105 17.7268C128.603 17.7268 127.385 18.945 127.385 20.4477C127.385 21.9504 128.603 23.1686 130.105 23.1686Z" fill="#4C8BAA"/>
<path d="M148.326 22.0966C149.237 22.0966 149.975 21.3583 149.975 20.4476C149.975 19.5369 149.237 18.7986 148.326 18.7986C147.416 18.7986 146.677 19.5369 146.677 20.4476C146.677 21.3583 147.416 22.0966 148.326 22.0966Z" fill="#4C8BAA"/>
<path d="M166.468 23.0035C167.88 23.0035 169.024 21.8593 169.024 20.4476C169.024 19.036 167.88 17.8916 166.468 17.8916C165.056 17.8916 163.912 19.036 163.912 20.4476C163.912 21.8593 165.056 23.0035 166.468 23.0035Z" fill="#4C8BAA"/>
<path d="M20.9428 40.4006C21.8991 40.4006 22.6747 39.6253 22.6747 38.6691C22.6747 37.7128 21.8991 36.9377 20.9428 36.9377C19.9865 36.9377 19.2117 37.7128 19.2117 38.6691C19.2117 39.6253 19.9865 40.4006 20.9428 40.4006Z" fill="#4C8BAA"/>
<path d="M2.80321 94.9826C3.75947 94.9826 4.53515 94.2076 4.53515 93.2513C4.53515 92.2951 3.75947 91.5198 2.80321 91.5198C1.84696 91.5198 1.07208 92.2951 1.07208 93.2513C1.07208 94.2076 1.84696 94.9826 2.80321 94.9826Z" fill="#4C8BAA"/>
<path d="M39.1637 40.318C40.0744 40.318 40.8127 39.5797 40.8127 38.669C40.8127 37.7583 40.0744 37.02 39.1637 37.02C38.2529 37.02 37.5146 37.7583 37.5146 38.669C37.5146 39.5797 38.2529 40.318 39.1637 40.318Z" fill="#4C8BAA"/>
<path d="M57.3853 40.6481C58.4782 40.6481 59.3644 39.762 59.3644 38.6692C59.3644 37.5763 58.4782 36.6904 57.3853 36.6904C56.2925 36.6904 55.4062 37.5763 55.4062 38.6692C55.4062 39.762 56.2925 40.6481 57.3853 40.6481Z" fill="#4C8BAA"/>
<path d="M75.5242 40.9774C76.7992 40.9774 77.8326 39.9438 77.8326 38.6688C77.8326 37.3938 76.7992 36.3604 75.5242 36.3604C74.2492 36.3604 73.2158 37.3938 73.2158 38.6688C73.2158 39.9438 74.2492 40.9774 75.5242 40.9774Z" fill="#4C8BAA"/>
<path d="M93.7448 40.9774C95.0199 40.9774 96.0541 39.9438 96.0541 38.6688C96.0541 37.3938 95.0199 36.3604 93.7448 36.3604C92.4698 36.3604 91.4364 37.3938 91.4364 38.6688C91.4364 39.9438 92.4698 40.9774 93.7448 40.9774Z" fill="#4C8BAA"/>
<path d="M111.885 40.6481C112.978 40.6481 113.864 39.762 113.864 38.6692C113.864 37.5763 112.978 36.6904 111.885 36.6904C110.792 36.6904 109.907 37.5763 109.907 38.6692C109.907 39.762 110.792 40.6481 111.885 40.6481Z" fill="#4C8BAA"/>
<path d="M130.105 40.6481C131.198 40.6481 132.084 39.762 132.084 38.6692C132.084 37.5763 131.198 36.6904 130.105 36.6904C129.013 36.6904 128.126 37.5763 128.126 38.6692C128.126 39.762 129.013 40.6481 130.105 40.6481Z" fill="#4C8BAA"/>
<path d="M148.327 40.4829C149.329 40.4829 150.141 39.6706 150.141 38.6688C150.141 37.6671 149.329 36.855 148.327 36.855C147.326 36.855 146.513 37.6671 146.513 38.6688C146.513 39.6706 147.326 40.4829 148.327 40.4829Z" fill="#4C8BAA"/>
<path d="M166.468 41.2251C167.88 41.2251 169.024 40.0807 169.024 38.6691C169.024 37.2575 167.88 36.1133 166.468 36.1133C165.056 36.1133 163.912 37.2575 163.912 38.6691C163.912 40.0807 165.056 41.2251 166.468 41.2251Z" fill="#4C8BAA"/>
<path d="M20.9427 58.9519C22.1266 58.9519 23.0869 57.9921 23.0869 56.8081C23.0869 55.6242 22.1266 54.6646 20.9427 54.6646C19.7588 54.6646 18.7993 55.6242 18.7993 56.8081C18.7993 57.9921 19.7588 58.9519 20.9427 58.9519Z" fill="#4C8BAA"/>
<path d="M39.1654 59.4466C40.6225 59.4466 41.8031 58.2652 41.8031 56.808C41.8031 55.3509 40.6225 54.1697 39.1654 54.1697C37.7082 54.1697 36.5268 55.3509 36.5268 56.808C36.5268 58.2652 37.7082 59.4466 39.1654 59.4466Z" fill="#4C8BAA"/>
<path d="M57.3853 58.787C58.4782 58.787 59.3644 57.9009 59.3644 56.8081C59.3644 55.7152 58.4782 54.8293 57.3853 54.8293C56.2925 54.8293 55.4062 55.7152 55.4062 56.8081C55.4062 57.9009 56.2925 58.787 57.3853 58.787Z" fill="#4C8BAA"/>
<path d="M75.523 58.6221C76.5248 58.6221 77.3371 57.8098 77.3371 56.808C77.3371 55.8062 76.5248 54.9941 75.523 54.9941C74.5212 54.9941 73.7089 55.8062 73.7089 56.808C73.7089 57.8098 74.5212 58.6221 75.523 58.6221Z" fill="#4C8BAA"/>
<path d="M93.747 58.787C94.8399 58.787 95.7261 57.9009 95.7261 56.8081C95.7261 55.7152 94.8399 54.8293 93.747 54.8293C92.6541 54.8293 91.7687 55.7152 91.7687 56.8081C91.7687 57.9009 92.6541 58.787 93.747 58.787Z" fill="#4C8BAA"/>
<path d="M111.885 58.787C112.978 58.787 113.864 57.9009 113.864 56.8081C113.864 55.7152 112.978 54.8293 111.885 54.8293C110.792 54.8293 109.907 55.7152 109.907 56.8081C109.907 57.9009 110.792 58.787 111.885 58.787Z" fill="#4C8BAA"/>
<path d="M130.105 58.6221C131.107 58.6221 131.92 57.8098 131.92 56.808C131.92 55.8062 131.107 54.9941 130.105 54.9941C129.104 54.9941 128.291 55.8062 128.291 56.808C128.291 57.8098 129.104 58.6221 130.105 58.6221Z" fill="#4C8BAA"/>
<path d="M148.327 59.4466C149.784 59.4466 150.966 58.2652 150.966 56.808C150.966 55.3509 149.784 54.1697 148.327 54.1697C146.87 54.1697 145.689 55.3509 145.689 56.808C145.689 58.2652 146.87 59.4466 148.327 59.4466Z" fill="#4C8BAA"/>
<path d="M166.466 58.3748C167.331 58.3748 168.033 57.6734 168.033 56.8082C168.033 55.943 167.331 55.2417 166.466 55.2417C165.601 55.2417 164.9 55.943 164.9 56.8082C164.9 57.6734 165.601 58.3748 166.466 58.3748Z" fill="#4C8BAA"/>
<path d="M20.9427 77.1733C22.1266 77.1733 23.0869 76.2135 23.0869 75.0295C23.0869 73.8456 22.1266 72.8857 20.9427 72.8857C19.7588 72.8857 18.7993 73.8456 18.7993 75.0295C18.7993 76.2135 19.7588 77.1733 20.9427 77.1733Z" fill="#4C8BAA"/>
<path d="M39.1654 77.6681C40.6225 77.6681 41.8031 76.4869 41.8031 75.0297C41.8031 73.5726 40.6225 72.3914 39.1654 72.3914C37.7082 72.3914 36.5268 73.5726 36.5268 75.0297C36.5268 76.4869 37.7082 77.6681 39.1654 77.6681Z" fill="#4C8BAA"/>
<path d="M57.384 78.0802C59.0688 78.0802 60.4348 76.7144 60.4348 75.0296C60.4348 73.3448 59.0688 71.979 57.384 71.979C55.6992 71.979 54.3332 73.3448 54.3332 75.0296C54.3332 76.7144 55.6992 78.0802 57.384 78.0802Z" fill="#4C8BAA"/>
<path d="M75.5239 77.6681C76.9811 77.6681 78.1625 76.4869 78.1625 75.0297C78.1625 73.5726 76.9811 72.3914 75.5239 72.3914C74.0668 72.3914 72.8854 73.5726 72.8854 75.0297C72.8854 76.4869 74.0668 77.6681 75.5239 77.6681Z" fill="#4C8BAA"/>
<path d="M93.7456 78.4924C95.6581 78.4924 97.2087 76.942 97.2087 75.0295C97.2087 73.117 95.6581 71.5667 93.7456 71.5667C91.8331 71.5667 90.2833 73.117 90.2833 75.0295C90.2833 76.942 91.8331 78.4924 93.7456 78.4924Z" fill="#4C8BAA"/>
<path d="M111.884 78.0802C113.568 78.0802 114.934 76.7144 114.934 75.0296C114.934 73.3448 113.568 71.979 111.884 71.979C110.199 71.979 108.834 73.3448 108.834 75.0296C108.834 76.7144 110.199 78.0802 111.884 78.0802Z" fill="#4C8BAA"/>
<path d="M130.106 78.0802C131.791 78.0802 133.157 76.7144 133.157 75.0296C133.157 73.3448 131.791 71.979 130.106 71.979C128.421 71.979 127.055 73.3448 127.055 75.0296C127.055 76.7144 128.421 78.0802 130.106 78.0802Z" fill="#4C8BAA"/>
<path d="M148.327 77.6681C149.784 77.6681 150.966 76.4869 150.966 75.0297C150.966 73.5726 149.784 72.3914 148.327 72.3914C146.87 72.3914 145.689 73.5726 145.689 75.0297C145.689 76.4869 146.87 77.6681 148.327 77.6681Z" fill="#4C8BAA"/>
<path d="M166.468 77.9979C168.107 77.9979 169.437 76.6689 169.437 75.0296C169.437 73.3903 168.107 72.0613 166.468 72.0613C164.829 72.0613 163.5 73.3903 163.5 75.0296C163.5 76.6689 164.829 77.9979 166.468 77.9979Z" fill="#4C8BAA"/>
<path d="M20.9404 95.4773C22.1699 95.4773 23.1667 94.4807 23.1667 93.2512C23.1667 92.0217 22.1699 91.0249 20.9404 91.0249C19.711 91.0249 18.7141 92.0217 18.7141 93.2512C18.7141 94.4807 19.711 95.4773 20.9404 95.4773Z" fill="#4C8BAA"/>
<path d="M39.1654 95.8897C40.6225 95.8897 41.8031 94.7085 41.8031 93.2514C41.8031 91.7942 40.6225 90.6128 39.1654 90.6128C37.7082 90.6128 36.5268 91.7942 36.5268 93.2514C36.5268 94.7085 37.7082 95.8897 39.1654 95.8897Z" fill="#4C8BAA"/>
<path d="M57.386 96.5491C59.2075 96.5491 60.684 95.0726 60.684 93.2511C60.684 91.4297 59.2075 89.9531 57.386 89.9531C55.5646 89.9531 54.088 91.4297 54.088 93.2511C54.088 95.0726 55.5646 96.5491 57.386 96.5491Z" fill="#4C8BAA"/>
<path d="M75.5229 95.4773C76.7524 95.4773 77.7492 94.4807 77.7492 93.2512C77.7492 92.0217 76.7524 91.0249 75.5229 91.0249C74.2934 91.0249 73.2966 92.0217 73.2966 93.2512C73.2966 94.4807 74.2934 95.4773 75.5229 95.4773Z" fill="#4C8BAA"/>
<path d="M93.7456 96.5491C95.5671 96.5491 97.0436 95.0726 97.0436 93.2511C97.0436 91.4297 95.5671 89.9531 93.7456 89.9531C91.9242 89.9531 90.4476 91.4297 90.4476 93.2511C90.4476 95.0726 91.9242 96.5491 93.7456 96.5491Z" fill="#4C8BAA"/>
<path d="M111.883 95.9719C113.386 95.9719 114.605 94.7539 114.605 93.2512C114.605 91.7485 113.386 90.5303 111.883 90.5303C110.381 90.5303 109.163 91.7485 109.163 93.2512C109.163 94.7539 110.381 95.9719 111.883 95.9719Z" fill="#4C8BAA"/>
<path d="M130.106 95.8897C131.564 95.8897 132.745 94.7085 132.745 93.2514C132.745 91.7942 131.564 90.6128 130.106 90.6128C128.649 90.6128 127.468 91.7942 127.468 93.2514C127.468 94.7085 128.649 95.8897 130.106 95.8897Z" fill="#4C8BAA"/>
<path d="M148.327 95.9719C149.83 95.9719 151.048 94.7539 151.048 93.2512C151.048 91.7485 149.83 90.5303 148.327 90.5303C146.825 90.5303 145.607 91.7485 145.607 93.2512C145.607 94.7539 146.825 95.9719 148.327 95.9719Z" fill="#4C8BAA"/>
<path d="M166.467 95.9719C167.97 95.9719 169.188 94.7539 169.188 93.2512C169.188 91.7485 167.97 90.5303 166.467 90.5303C164.964 90.5303 163.746 91.7485 163.746 93.2512C163.746 94.7539 164.964 95.9719 166.467 95.9719Z" fill="#4C8BAA"/>
<path d="M39.1642 114.194C40.7124 114.194 41.967 112.939 41.967 111.39C41.967 109.842 40.7124 108.587 39.1642 108.587C37.6159 108.587 36.3605 109.842 36.3605 111.39C36.3605 112.939 37.6159 114.194 39.1642 114.194Z" fill="#4C8BAA"/>
<path d="M57.3851 114.194C58.9333 114.194 60.1887 112.939 60.1887 111.39C60.1887 109.842 58.9333 108.587 57.3851 108.587C55.8369 108.587 54.5815 109.842 54.5815 111.39C54.5815 112.939 55.8369 114.194 57.3851 114.194Z" fill="#4C8BAA"/>
<path d="M75.5228 114.194C77.071 114.194 78.3264 112.939 78.3264 111.39C78.3264 109.842 77.071 108.587 75.5228 108.587C73.9746 108.587 72.7192 109.842 72.7192 111.39C72.7192 112.939 73.9746 114.194 75.5228 114.194Z" fill="#4C8BAA"/>
<path d="M93.7456 114.688C95.5671 114.688 97.0436 113.212 97.0436 111.39C97.0436 109.569 95.5671 108.092 93.7456 108.092C91.9242 108.092 90.4476 109.569 90.4476 111.39C90.4476 113.212 91.9242 114.688 93.7456 114.688Z" fill="#4C8BAA"/>
<path d="M111.885 113.369C112.978 113.369 113.864 112.483 113.864 111.39C113.864 110.297 112.978 109.411 111.885 109.411C110.792 109.411 109.907 110.297 109.907 111.39C109.907 112.483 110.792 113.369 111.885 113.369Z" fill="#4C8BAA"/>
<path d="M130.106 114.441C131.791 114.441 133.157 113.075 133.157 111.39C133.157 109.705 131.791 108.339 130.106 108.339C128.421 108.339 127.055 109.705 127.055 111.39C127.055 113.075 128.421 114.441 130.106 114.441Z" fill="#4C8BAA"/>
<path d="M148.327 114.441C150.012 114.441 151.378 113.075 151.378 111.39C151.378 109.705 150.012 108.339 148.327 108.339C146.642 108.339 145.276 109.705 145.276 111.39C145.276 113.075 146.642 114.441 148.327 114.441Z" fill="#4C8BAA"/>
<path d="M166.466 114.441C168.15 114.441 169.516 113.075 169.516 111.39C169.516 109.705 168.15 108.339 166.466 108.339C164.781 108.339 163.415 109.705 163.415 111.39C163.415 113.075 164.781 114.441 166.466 114.441Z" fill="#4C8BAA"/>
<path d="M39.1635 131.755C40.3474 131.755 41.3069 130.796 41.3069 129.612C41.3069 128.428 40.3474 127.468 39.1635 127.468C37.9795 127.468 37.0193 128.428 37.0193 129.612C37.0193 130.796 37.9795 131.755 39.1635 131.755Z" fill="#4C8BAA"/>
<path d="M57.3843 131.755C58.5682 131.755 59.5277 130.796 59.5277 129.612C59.5277 128.428 58.5682 127.468 57.3843 127.468C56.2004 127.468 55.2409 128.428 55.2409 129.612C55.2409 130.796 56.2004 131.755 57.3843 131.755Z" fill="#4C8BAA"/>
<path d="M75.5242 131.755C76.7081 131.755 77.6676 130.796 77.6676 129.612C77.6676 128.428 76.7081 127.468 75.5242 127.468C74.3402 127.468 73.3808 128.428 73.3808 129.612C73.3808 130.796 74.3402 131.755 75.5242 131.755Z" fill="#4C8BAA"/>
<path d="M93.7449 132.085C95.1109 132.085 96.2184 130.978 96.2184 129.611C96.2184 128.245 95.1109 127.138 93.7449 127.138C92.3788 127.138 91.2714 128.245 91.2714 129.611C91.2714 130.978 92.3788 132.085 93.7449 132.085Z" fill="#4C8BAA"/>
<path d="M111.883 132.332C113.386 132.332 114.605 131.114 114.605 129.612C114.605 128.109 113.386 126.891 111.883 126.891C110.381 126.891 109.163 128.109 109.163 129.612C109.163 131.114 110.381 132.332 111.883 132.332Z" fill="#4C8BAA"/>
<path d="M130.106 132.91C131.928 132.91 133.404 131.433 133.404 129.612C133.404 127.79 131.928 126.314 130.106 126.314C128.285 126.314 126.808 127.79 126.808 129.612C126.808 131.433 128.285 132.91 130.106 132.91Z" fill="#4C8BAA"/>
<path d="M148.327 132.91C150.148 132.91 151.625 131.433 151.625 129.612C151.625 127.79 150.148 126.314 148.327 126.314C146.505 126.314 145.029 127.79 145.029 129.612C145.029 131.433 146.505 132.91 148.327 132.91Z" fill="#4C8BAA"/>
<path d="M166.468 132.992C168.335 132.992 169.849 131.479 169.849 129.612C169.849 127.745 168.335 126.231 166.468 126.231C164.601 126.231 163.088 127.745 163.088 129.612C163.088 131.479 164.601 132.992 166.468 132.992Z" fill="#4C8BAA"/>
<path d="M39.1642 150.554C40.7124 150.554 41.967 149.299 41.967 147.75C41.967 146.202 40.7124 144.947 39.1642 144.947C37.6159 144.947 36.3605 146.202 36.3605 147.75C36.3605 149.299 37.6159 150.554 39.1642 150.554Z" fill="#4C8BAA"/>
<path d="M57.3851 150.554C58.9333 150.554 60.1887 149.299 60.1887 147.75C60.1887 146.202 58.9333 144.947 57.3851 144.947C55.8369 144.947 54.5815 146.202 54.5815 147.75C54.5815 149.299 55.8369 150.554 57.3851 150.554Z" fill="#4C8BAA"/>
<path d="M75.5235 151.214C77.436 151.214 78.9866 149.663 78.9866 147.751C78.9866 145.838 77.436 144.288 75.5235 144.288C73.611 144.288 72.0604 145.838 72.0604 147.751C72.0604 149.663 73.611 151.214 75.5235 151.214Z" fill="#4C8BAA"/>
<path d="M93.7456 151.049C95.5671 151.049 97.0436 149.572 97.0436 147.751C97.0436 145.929 95.5671 144.453 93.7456 144.453C91.9242 144.453 90.4476 145.929 90.4476 147.751C90.4476 149.572 91.9242 151.049 93.7456 151.049Z" fill="#4C8BAA"/>
<path d="M130.106 151.049C131.928 151.049 133.404 149.572 133.404 147.751C133.404 145.929 131.928 144.453 130.106 144.453C128.285 144.453 126.808 145.929 126.808 147.751C126.808 149.572 128.285 151.049 130.106 151.049Z" fill="#4C8BAA"/>
<path d="M148.327 151.708C150.513 151.708 152.284 149.936 152.284 147.751C152.284 145.565 150.513 143.793 148.327 143.793C146.141 143.793 144.369 145.565 144.369 147.751C144.369 149.936 146.141 151.708 148.327 151.708Z" fill="#4C8BAA"/>
<path d="M166.468 151.131C168.335 151.131 169.849 149.618 169.849 147.751C169.849 145.884 168.335 144.37 166.468 144.37C164.601 144.37 163.088 145.884 163.088 147.751C163.088 149.618 164.601 151.131 166.468 151.131Z" fill="#4C8BAA"/>
<path d="M184.689 151.708C186.875 151.708 188.647 149.936 188.647 147.751C188.647 145.565 186.875 143.793 184.689 143.793C182.503 143.793 180.731 145.565 180.731 147.751C180.731 149.936 182.503 151.708 184.689 151.708Z" fill="#4C8BAA"/>
</svg>
