<svg width="362" height="241" viewBox="0 0 362 241" fill="none" xmlns="http://www.w3.org/2000/svg">
<path d="M336.968 239.63C337.777 239.63 338.433 238.973 338.433 238.164C338.433 237.354 337.777 236.698 336.968 236.698C336.158 236.698 335.502 237.354 335.502 238.164C335.502 238.973 336.158 239.63 336.968 239.63Z" fill="#6FA467"/>
<path d="M304.576 240.216C305.709 240.216 306.628 239.297 306.628 238.164C306.628 237.031 305.709 236.112 304.576 236.112C303.443 236.112 302.524 237.031 302.524 238.164C302.524 239.297 303.443 240.216 304.576 240.216Z" fill="#6FA467"/>
<path d="M239.94 240.069C240.992 240.069 241.845 239.216 241.845 238.163C241.845 237.111 240.992 236.258 239.94 236.258C238.888 236.258 238.035 237.111 238.035 238.163C238.035 239.216 238.888 240.069 239.94 240.069Z" fill="#6FA467"/>
<path d="M191.425 239.776C192.316 239.776 193.038 239.054 193.038 238.164C193.038 237.273 192.316 236.552 191.425 236.552C190.535 236.552 189.813 237.273 189.813 238.164C189.813 239.054 190.535 239.776 191.425 239.776Z" fill="#6FA467"/>
<path d="M175.303 239.995C176.315 239.995 177.136 239.175 177.136 238.163C177.136 237.152 176.315 236.331 175.303 236.331C174.292 236.331 173.471 237.152 173.471 238.163C173.471 239.175 174.292 239.995 175.303 239.995Z" fill="#6FA467"/>
<path d="M159.108 239.995C160.12 239.995 160.941 239.175 160.941 238.163C160.941 237.152 160.12 236.331 159.108 236.331C158.097 236.331 157.276 237.152 157.276 238.163C157.276 239.175 158.097 239.995 159.108 239.995Z" fill="#6FA467"/>
<path d="M142.986 239.776C143.877 239.776 144.598 239.054 144.598 238.164C144.598 237.273 143.877 236.552 142.986 236.552C142.096 236.552 141.374 237.273 141.374 238.164C141.374 239.054 142.096 239.776 142.986 239.776Z" fill="#6FA467"/>
<path d="M353.09 223.873C354.142 223.873 354.995 223.02 354.995 221.968C354.995 220.916 354.142 220.062 353.09 220.062C352.038 220.062 351.185 220.916 351.185 221.968C351.185 223.02 352.038 223.873 353.09 223.873Z" fill="#6FA467"/>
<path d="M336.969 223.873C338.021 223.873 338.874 223.02 338.874 221.968C338.874 220.916 338.021 220.062 336.969 220.062C335.917 220.062 335.063 220.916 335.063 221.968C335.063 223.02 335.917 223.873 336.969 223.873Z" fill="#6FA467"/>
<path d="M320.772 223.873C321.824 223.873 322.677 223.02 322.677 221.968C322.677 220.916 321.824 220.062 320.772 220.062C319.719 220.062 318.866 220.916 318.866 221.968C318.866 223.02 319.719 223.873 320.772 223.873Z" fill="#6FA467"/>
<path d="M304.576 223.654C305.507 223.654 306.261 222.899 306.261 221.968C306.261 221.037 305.507 220.282 304.576 220.282C303.645 220.282 302.89 221.037 302.89 221.968C302.89 222.899 303.645 223.654 304.576 223.654Z" fill="#6FA467"/>
<path d="M288.452 223.507C289.302 223.507 289.991 222.818 289.991 221.968C289.991 221.118 289.302 220.429 288.452 220.429C287.602 220.429 286.913 221.118 286.913 221.968C286.913 222.818 287.602 223.507 288.452 223.507Z" fill="#6FA467"/>
<path d="M256.137 224.386C257.472 224.386 258.555 223.303 258.555 221.968C258.555 220.632 257.472 219.549 256.137 219.549C254.801 219.549 253.718 220.632 253.718 221.968C253.718 223.303 254.801 224.386 256.137 224.386Z" fill="#6FA467"/>
<path d="M239.94 223.434C240.749 223.434 241.405 222.777 241.405 221.968C241.405 221.158 240.749 220.502 239.94 220.502C239.13 220.502 238.474 221.158 238.474 221.968C238.474 222.777 239.13 223.434 239.94 223.434Z" fill="#6FA467"/>
<path d="M223.818 224.24C225.073 224.24 226.09 223.223 226.09 221.968C226.09 220.713 225.073 219.696 223.818 219.696C222.563 219.696 221.546 220.713 221.546 221.968C221.546 223.223 222.563 224.24 223.818 224.24Z" fill="#6FA467"/>
<path d="M207.622 223.8C208.633 223.8 209.454 222.98 209.454 221.968C209.454 220.956 208.633 220.136 207.622 220.136C206.61 220.136 205.789 220.956 205.789 221.968C205.789 222.98 206.61 223.8 207.622 223.8Z" fill="#6FA467"/>
<path d="M191.427 223.287C192.155 223.287 192.746 222.697 192.746 221.968C192.746 221.24 192.155 220.649 191.427 220.649C190.698 220.649 190.108 221.24 190.108 221.968C190.108 222.697 190.698 223.287 191.427 223.287Z" fill="#6FA467"/>
<path d="M175.304 224.313C176.599 224.313 177.649 223.263 177.649 221.968C177.649 220.673 176.599 219.623 175.304 219.623C174.009 219.623 172.959 220.673 172.959 221.968C172.959 223.263 174.009 224.313 175.304 224.313Z" fill="#6FA467"/>
<path d="M159.108 223.8C160.12 223.8 160.941 222.98 160.941 221.968C160.941 220.956 160.12 220.136 159.108 220.136C158.097 220.136 157.276 220.956 157.276 221.968C157.276 222.98 158.097 223.8 159.108 223.8Z" fill="#6FA467"/>
<path d="M142.986 223.58C143.877 223.58 144.598 222.858 144.598 221.968C144.598 221.077 143.877 220.356 142.986 220.356C142.096 220.356 141.374 221.077 141.374 221.968C141.374 222.858 142.096 223.58 142.986 223.58Z" fill="#6FA467"/>
<path d="M353.09 207.385C353.94 207.385 354.629 206.696 354.629 205.846C354.629 204.996 353.94 204.307 353.09 204.307C352.24 204.307 351.551 204.996 351.551 205.846C351.551 206.696 352.24 207.385 353.09 207.385Z" fill="#6FA467"/>
<path d="M336.968 207.312C337.777 207.312 338.433 206.656 338.433 205.846C338.433 205.037 337.777 204.381 336.968 204.381C336.158 204.381 335.502 205.037 335.502 205.846C335.502 206.656 336.158 207.312 336.968 207.312Z" fill="#6FA467"/>
<path d="M320.772 207.604C321.744 207.604 322.531 206.817 322.531 205.846C322.531 204.874 321.744 204.087 320.772 204.087C319.801 204.087 319.013 204.874 319.013 205.846C319.013 206.817 319.801 207.604 320.772 207.604Z" fill="#6FA467"/>
<path d="M304.576 207.898C305.709 207.898 306.628 206.979 306.628 205.846C306.628 204.713 305.709 203.794 304.576 203.794C303.443 203.794 302.524 204.713 302.524 205.846C302.524 206.979 303.443 207.898 304.576 207.898Z" fill="#6FA467"/>
<path d="M288.454 207.898C289.587 207.898 290.506 206.979 290.506 205.846C290.506 204.713 289.587 203.794 288.454 203.794C287.321 203.794 286.402 204.713 286.402 205.846C286.402 206.979 287.321 207.898 288.454 207.898Z" fill="#6FA467"/>
<path d="M272.259 207.604C273.23 207.604 274.018 206.817 274.018 205.846C274.018 204.874 273.23 204.087 272.259 204.087C271.288 204.087 270.5 204.874 270.5 205.846C270.5 206.817 271.288 207.604 272.259 207.604Z" fill="#6FA467"/>
<path d="M256.136 207.604C257.107 207.604 257.895 206.817 257.895 205.846C257.895 204.874 257.107 204.087 256.136 204.087C255.164 204.087 254.377 204.874 254.377 205.846C254.377 206.817 255.164 207.604 256.136 207.604Z" fill="#6FA467"/>
<path d="M239.941 207.458C240.831 207.458 241.553 206.736 241.553 205.845C241.553 204.955 240.831 204.233 239.941 204.233C239.05 204.233 238.328 204.955 238.328 205.845C238.328 206.736 239.05 207.458 239.941 207.458Z" fill="#6FA467"/>
<path d="M223.818 208.117C225.073 208.117 226.09 207.1 226.09 205.846C226.09 204.591 225.073 203.574 223.818 203.574C222.563 203.574 221.546 204.591 221.546 205.846C221.546 207.1 222.563 208.117 223.818 208.117Z" fill="#6FA467"/>
<path d="M207.622 207.458C208.513 207.458 209.235 206.736 209.235 205.845C209.235 204.955 208.513 204.233 207.622 204.233C206.732 204.233 206.01 204.955 206.01 205.845C206.01 206.736 206.732 207.458 207.622 207.458Z" fill="#6FA467"/>
<path d="M191.425 207.458C192.316 207.458 193.038 206.736 193.038 205.845C193.038 204.955 192.316 204.233 191.425 204.233C190.535 204.233 189.813 204.955 189.813 205.845C189.813 206.736 190.535 207.458 191.425 207.458Z" fill="#6FA467"/>
<path d="M175.303 207.165C176.031 207.165 176.622 206.575 176.622 205.846C176.622 205.117 176.031 204.527 175.303 204.527C174.574 204.527 173.984 205.117 173.984 205.846C173.984 206.575 174.574 207.165 175.303 207.165Z" fill="#6FA467"/>
<path d="M159.108 207.824C160.201 207.824 161.087 206.939 161.087 205.846C161.087 204.753 160.201 203.867 159.108 203.867C158.016 203.867 157.13 204.753 157.13 205.846C157.13 206.939 158.016 207.824 159.108 207.824Z" fill="#6FA467"/>
<path d="M142.986 207.458C143.877 207.458 144.598 206.736 144.598 205.845C144.598 204.955 143.877 204.233 142.986 204.233C142.096 204.233 141.374 204.955 141.374 205.845C141.374 206.736 142.096 207.458 142.986 207.458Z" fill="#6FA467"/>
<path d="M353.09 191.556C354.142 191.556 354.995 190.702 354.995 189.65C354.995 188.598 354.142 187.745 353.09 187.745C352.038 187.745 351.185 188.598 351.185 189.65C351.185 190.702 352.038 191.556 353.09 191.556Z" fill="#6FA467"/>
<path d="M336.968 191.995C338.263 191.995 339.313 190.945 339.313 189.65C339.313 188.355 338.263 187.305 336.968 187.305C335.673 187.305 334.623 188.355 334.623 189.65C334.623 190.945 335.673 191.995 336.968 191.995Z" fill="#6FA467"/>
<path d="M320.772 191.409C321.744 191.409 322.531 190.621 322.531 189.65C322.531 188.678 321.744 187.891 320.772 187.891C319.801 187.891 319.013 188.678 319.013 189.65C319.013 190.621 319.801 191.409 320.772 191.409Z" fill="#6FA467"/>
<path d="M304.576 191.263C305.466 191.263 306.188 190.541 306.188 189.651C306.188 188.76 305.466 188.039 304.576 188.039C303.685 188.039 302.963 188.76 302.963 189.651C302.963 190.541 303.685 191.263 304.576 191.263Z" fill="#6FA467"/>
<path d="M288.454 191.409C289.426 191.409 290.213 190.621 290.213 189.65C290.213 188.678 289.426 187.891 288.454 187.891C287.483 187.891 286.695 188.678 286.695 189.65C286.695 190.621 287.483 191.409 288.454 191.409Z" fill="#6FA467"/>
<path d="M272.259 191.409C273.23 191.409 274.018 190.621 274.018 189.65C274.018 188.678 273.23 187.891 272.259 187.891C271.288 187.891 270.5 188.678 270.5 189.65C270.5 190.621 271.288 191.409 272.259 191.409Z" fill="#6FA467"/>
<path d="M256.136 191.263C257.027 191.263 257.748 190.541 257.748 189.651C257.748 188.76 257.027 188.039 256.136 188.039C255.246 188.039 254.524 188.76 254.524 189.651C254.524 190.541 255.246 191.263 256.136 191.263Z" fill="#6FA467"/>
<path d="M239.94 191.995C241.235 191.995 242.286 190.945 242.286 189.65C242.286 188.355 241.235 187.305 239.94 187.305C238.645 187.305 237.595 188.355 237.595 189.65C237.595 190.945 238.645 191.995 239.94 191.995Z" fill="#6FA467"/>
<path d="M223.817 191.042C224.586 191.042 225.209 190.419 225.209 189.65C225.209 188.881 224.586 188.258 223.817 188.258C223.048 188.258 222.425 188.881 222.425 189.65C222.425 190.419 223.048 191.042 223.817 191.042Z" fill="#6FA467"/>
<path d="M207.622 191.482C208.633 191.482 209.454 190.662 209.454 189.65C209.454 188.638 208.633 187.818 207.622 187.818C206.61 187.818 205.789 188.638 205.789 189.65C205.789 190.662 206.61 191.482 207.622 191.482Z" fill="#6FA467"/>
<path d="M191.428 191.482C192.439 191.482 193.26 190.662 193.26 189.65C193.26 188.638 192.439 187.818 191.428 187.818C190.416 187.818 189.595 188.638 189.595 189.65C189.595 190.662 190.416 191.482 191.428 191.482Z" fill="#6FA467"/>
<path d="M175.304 191.629C176.397 191.629 177.283 190.743 177.283 189.65C177.283 188.557 176.397 187.672 175.304 187.672C174.211 187.672 173.326 188.557 173.326 189.65C173.326 190.743 174.211 191.629 175.304 191.629Z" fill="#6FA467"/>
<path d="M159.108 191.629C160.201 191.629 161.087 190.743 161.087 189.65C161.087 188.557 160.201 187.672 159.108 187.672C158.016 187.672 157.13 188.557 157.13 189.65C157.13 190.743 158.016 191.629 159.108 191.629Z" fill="#6FA467"/>
<path d="M142.986 191.629C144.079 191.629 144.965 190.743 144.965 189.65C144.965 188.557 144.079 187.672 142.986 187.672C141.893 187.672 141.007 188.557 141.007 189.65C141.007 190.743 141.893 191.629 142.986 191.629Z" fill="#6FA467"/>
<path d="M353.09 175.433C354.142 175.433 354.995 174.58 354.995 173.528C354.995 172.475 354.142 171.622 353.09 171.622C352.038 171.622 351.185 172.475 351.185 173.528C351.185 174.58 352.038 175.433 353.09 175.433Z" fill="#6FA467"/>
<path d="M336.968 175.873C338.263 175.873 339.313 174.823 339.313 173.528C339.313 172.233 338.263 171.183 336.968 171.183C335.673 171.183 334.623 172.233 334.623 173.528C334.623 174.823 335.673 175.873 336.968 175.873Z" fill="#6FA467"/>
<path d="M320.771 176.239C322.268 176.239 323.483 175.025 323.483 173.527C323.483 172.03 322.268 170.816 320.771 170.816C319.273 170.816 318.06 172.03 318.06 173.527C318.06 175.025 319.273 176.239 320.771 176.239Z" fill="#6FA467"/>
<path d="M304.576 175.873C305.871 175.873 306.921 174.823 306.921 173.528C306.921 172.233 305.871 171.183 304.576 171.183C303.281 171.183 302.231 172.233 302.231 173.528C302.231 174.823 303.281 175.873 304.576 175.873Z" fill="#6FA467"/>
<path d="M288.454 176.605C290.154 176.605 291.532 175.227 291.532 173.527C291.532 171.827 290.154 170.449 288.454 170.449C286.754 170.449 285.376 171.827 285.376 173.527C285.376 175.227 286.754 176.605 288.454 176.605Z" fill="#6FA467"/>
<path d="M272.258 176.239C273.756 176.239 274.969 175.025 274.969 173.527C274.969 172.03 273.756 170.816 272.258 170.816C270.761 170.816 269.547 172.03 269.547 173.527C269.547 175.025 270.761 176.239 272.258 176.239Z" fill="#6FA467"/>
<path d="M256.136 176.239C257.634 176.239 258.847 175.025 258.847 173.527C258.847 172.03 257.634 170.816 256.136 170.816C254.639 170.816 253.425 172.03 253.425 173.527C253.425 175.025 254.639 176.239 256.136 176.239Z" fill="#6FA467"/>
<path d="M239.94 175.873C241.235 175.873 242.286 174.823 242.286 173.528C242.286 172.233 241.235 171.183 239.94 171.183C238.645 171.183 237.595 172.233 237.595 173.528C237.595 174.823 238.645 175.873 239.94 175.873Z" fill="#6FA467"/>
<path d="M223.819 176.166C225.276 176.166 226.457 174.985 226.457 173.527C226.457 172.07 225.276 170.889 223.819 170.889C222.362 170.889 221.18 172.07 221.18 173.527C221.18 174.985 222.362 176.166 223.819 176.166Z" fill="#6FA467"/>
<path d="M207.622 176.019C208.998 176.019 210.113 174.903 210.113 173.527C210.113 172.151 208.998 171.035 207.622 171.035C206.246 171.035 205.13 172.151 205.13 173.527C205.13 174.903 206.246 176.019 207.622 176.019Z" fill="#6FA467"/>
<path d="M191.428 175.36C192.439 175.36 193.26 174.539 193.26 173.528C193.26 172.516 192.439 171.696 191.428 171.696C190.416 171.696 189.595 172.516 189.595 173.528C189.595 174.539 190.416 175.36 191.428 175.36Z" fill="#6FA467"/>
<path d="M175.304 175.873C176.599 175.873 177.649 174.823 177.649 173.528C177.649 172.233 176.599 171.183 175.304 171.183C174.009 171.183 172.959 172.233 172.959 173.528C172.959 174.823 174.009 175.873 175.304 175.873Z" fill="#6FA467"/>
<path d="M159.109 176.532C160.768 176.532 162.113 175.187 162.113 173.527C162.113 171.868 160.768 170.523 159.109 170.523C157.449 170.523 156.104 171.868 156.104 173.527C156.104 175.187 157.449 176.532 159.109 176.532Z" fill="#6FA467"/>
<path d="M142.987 175.653C144.161 175.653 145.112 174.701 145.112 173.527C145.112 172.354 144.161 171.402 142.987 171.402C141.813 171.402 140.862 172.354 140.862 173.527C140.862 174.701 141.813 175.653 142.987 175.653Z" fill="#6FA467"/>
<path d="M353.09 159.311C354.183 159.311 355.069 158.425 355.069 157.333C355.069 156.24 354.183 155.354 353.09 155.354C351.997 155.354 351.111 156.24 351.111 157.333C351.111 158.425 351.997 159.311 353.09 159.311Z" fill="#6FA467"/>
<path d="M336.968 159.677C338.263 159.677 339.313 158.627 339.313 157.332C339.313 156.037 338.263 154.987 336.968 154.987C335.673 154.987 334.623 156.037 334.623 157.332C334.623 158.627 335.673 159.677 336.968 159.677Z" fill="#6FA467"/>
<path d="M320.772 160.264C322.391 160.264 323.703 158.951 323.703 157.332C323.703 155.714 322.391 154.401 320.772 154.401C319.153 154.401 317.841 155.714 317.841 157.332C317.841 158.951 319.153 160.264 320.772 160.264Z" fill="#6FA467"/>
<path d="M304.576 159.311C305.668 159.311 306.554 158.425 306.554 157.333C306.554 156.24 305.668 155.354 304.576 155.354C303.483 155.354 302.597 156.24 302.597 157.333C302.597 158.425 303.483 159.311 304.576 159.311Z" fill="#6FA467"/>
<path d="M288.454 160.264C290.073 160.264 291.385 158.951 291.385 157.332C291.385 155.714 290.073 154.401 288.454 154.401C286.835 154.401 285.523 155.714 285.523 157.332C285.523 158.951 286.835 160.264 288.454 160.264Z" fill="#6FA467"/>
<path d="M272.259 159.751C273.594 159.751 274.677 158.668 274.677 157.332C274.677 155.997 273.594 154.914 272.259 154.914C270.923 154.914 269.84 155.997 269.84 157.332C269.84 158.668 270.923 159.751 272.259 159.751Z" fill="#6FA467"/>
<path d="M256.136 159.677C257.431 159.677 258.481 158.627 258.481 157.332C258.481 156.037 257.431 154.987 256.136 154.987C254.841 154.987 253.791 156.037 253.791 157.332C253.791 158.627 254.841 159.677 256.136 159.677Z" fill="#6FA467"/>
<path d="M239.94 159.751C241.276 159.751 242.359 158.668 242.359 157.332C242.359 155.997 241.276 154.914 239.94 154.914C238.605 154.914 237.522 155.997 237.522 157.332C237.522 158.668 238.605 159.751 239.94 159.751Z" fill="#6FA467"/>
<path d="M223.818 159.751C225.154 159.751 226.236 158.668 226.236 157.332C226.236 155.997 225.154 154.914 223.818 154.914C222.482 154.914 221.4 155.997 221.4 157.332C221.4 158.668 222.482 159.751 223.818 159.751Z" fill="#6FA467"/>
<path d="M207.621 159.53C208.836 159.53 209.82 158.546 209.82 157.332C209.82 156.118 208.836 155.133 207.621 155.133C206.407 155.133 205.423 156.118 205.423 157.332C205.423 158.546 206.407 159.53 207.621 159.53Z" fill="#6FA467"/>
<path d="M191.427 160.337C193.086 160.337 194.432 158.991 194.432 157.332C194.432 155.673 193.086 154.327 191.427 154.327C189.768 154.327 188.423 155.673 188.423 157.332C188.423 158.991 189.768 160.337 191.427 160.337Z" fill="#6FA467"/>
<path d="M175.304 159.238C176.357 159.238 177.21 158.385 177.21 157.333C177.21 156.28 176.357 155.427 175.304 155.427C174.252 155.427 173.399 156.28 173.399 157.333C173.399 158.385 174.252 159.238 175.304 159.238Z" fill="#6FA467"/>
<path d="M159.108 159.53C160.323 159.53 161.307 158.546 161.307 157.332C161.307 156.118 160.323 155.133 159.108 155.133C157.894 155.133 156.91 156.118 156.91 157.332C156.91 158.546 157.894 159.53 159.108 159.53Z" fill="#6FA467"/>
<path d="M142.985 160.337C144.645 160.337 145.99 158.991 145.99 157.332C145.99 155.673 144.645 154.327 142.985 154.327C141.326 154.327 139.981 155.673 139.981 157.332C139.981 158.991 141.326 160.337 142.985 160.337Z" fill="#6FA467"/>
<path d="M336.967 143.702C338.343 143.702 339.458 142.586 339.458 141.21C339.458 139.834 338.343 138.718 336.967 138.718C335.591 138.718 334.475 139.834 334.475 141.21C334.475 142.586 335.591 143.702 336.967 143.702Z" fill="#6FA467"/>
<path d="M320.772 143.702C322.148 143.702 323.264 142.586 323.264 141.21C323.264 139.834 322.148 138.718 320.772 138.718C319.396 138.718 318.28 139.834 318.28 141.21C318.28 142.586 319.396 143.702 320.772 143.702Z" fill="#6FA467"/>
<path d="M304.576 143.702C305.952 143.702 307.068 142.586 307.068 141.21C307.068 139.834 305.952 138.718 304.576 138.718C303.2 138.718 302.084 139.834 302.084 141.21C302.084 142.586 303.2 143.702 304.576 143.702Z" fill="#6FA467"/>
<path d="M288.454 144.141C290.073 144.141 291.385 142.829 291.385 141.21C291.385 139.591 290.073 138.279 288.454 138.279C286.835 138.279 285.523 139.591 285.523 141.21C285.523 142.829 286.835 144.141 288.454 144.141Z" fill="#6FA467"/>
<path d="M272.259 142.968C273.23 142.968 274.018 142.181 274.018 141.209C274.018 140.238 273.23 139.45 272.259 139.45C271.288 139.45 270.5 140.238 270.5 141.209C270.5 142.181 271.288 142.968 272.259 142.968Z" fill="#6FA467"/>
<path d="M256.136 143.921C257.634 143.921 258.847 142.707 258.847 141.209C258.847 139.712 257.634 138.498 256.136 138.498C254.639 138.498 253.425 139.712 253.425 141.209C253.425 142.707 254.639 143.921 256.136 143.921Z" fill="#6FA467"/>
<path d="M239.941 143.921C241.439 143.921 242.653 142.707 242.653 141.209C242.653 139.712 241.439 138.498 239.941 138.498C238.443 138.498 237.229 139.712 237.229 141.209C237.229 142.707 238.443 143.921 239.941 143.921Z" fill="#6FA467"/>
<path d="M223.818 143.921C225.315 143.921 226.53 142.707 226.53 141.209C226.53 139.712 225.315 138.498 223.818 138.498C222.32 138.498 221.106 139.712 221.106 141.209C221.106 142.707 222.32 143.921 223.818 143.921Z" fill="#6FA467"/>
<path d="M207.622 143.702C208.998 143.702 210.113 142.586 210.113 141.21C210.113 139.834 208.998 138.718 207.622 138.718C206.246 138.718 205.13 139.834 205.13 141.21C205.13 142.586 206.246 143.702 207.622 143.702Z" fill="#6FA467"/>
<path d="M191.425 143.189C192.518 143.189 193.404 142.303 193.404 141.21C193.404 140.117 192.518 139.231 191.425 139.231C190.332 139.231 189.447 140.117 189.447 141.21C189.447 142.303 190.332 143.189 191.425 143.189Z" fill="#6FA467"/>
<path d="M175.303 144.654C177.206 144.654 178.748 143.112 178.748 141.21C178.748 139.308 177.206 137.766 175.303 137.766C173.401 137.766 171.859 139.308 171.859 141.21C171.859 143.112 173.401 144.654 175.303 144.654Z" fill="#6FA467"/>
<path d="M159.109 144.215C160.768 144.215 162.113 142.869 162.113 141.21C162.113 139.551 160.768 138.205 159.109 138.205C157.449 138.205 156.104 139.551 156.104 141.21C156.104 142.869 157.449 144.215 159.109 144.215Z" fill="#6FA467"/>
<path d="M142.987 143.775C144.404 143.775 145.552 142.627 145.552 141.21C145.552 139.793 144.404 138.645 142.987 138.645C141.571 138.645 140.422 139.793 140.422 141.21C140.422 142.627 141.571 143.775 142.987 143.775Z" fill="#6FA467"/>
<path d="M336.969 126.92C338.021 126.92 338.874 126.066 338.874 125.014C338.874 123.962 338.021 123.109 336.969 123.109C335.917 123.109 335.063 123.962 335.063 125.014C335.063 126.066 335.917 126.92 336.969 126.92Z" fill="#6FA467"/>
<path d="M320.772 126.92C321.824 126.92 322.677 126.066 322.677 125.014C322.677 123.962 321.824 123.109 320.772 123.109C319.719 123.109 318.866 123.962 318.866 125.014C318.866 126.066 319.719 126.92 320.772 126.92Z" fill="#6FA467"/>
<path d="M304.576 126.92C305.628 126.92 306.481 126.066 306.481 125.014C306.481 123.962 305.628 123.109 304.576 123.109C303.524 123.109 302.671 123.962 302.671 125.014C302.671 126.066 303.524 126.92 304.576 126.92Z" fill="#6FA467"/>
<path d="M288.454 127.213C289.668 127.213 290.653 126.228 290.653 125.014C290.653 123.8 289.668 122.816 288.454 122.816C287.24 122.816 286.256 123.8 286.256 125.014C286.256 126.228 287.24 127.213 288.454 127.213Z" fill="#6FA467"/>
<path d="M272.259 127.432C273.594 127.432 274.677 126.35 274.677 125.014C274.677 123.678 273.594 122.596 272.259 122.596C270.923 122.596 269.84 123.678 269.84 125.014C269.84 126.35 270.923 127.432 272.259 127.432Z" fill="#6FA467"/>
<path d="M256.135 127.946C257.754 127.946 259.066 126.633 259.066 125.014C259.066 123.395 257.754 122.083 256.135 122.083C254.516 122.083 253.204 123.395 253.204 125.014C253.204 126.633 254.516 127.946 256.135 127.946Z" fill="#6FA467"/>
<path d="M239.94 127.946C241.559 127.946 242.871 126.633 242.871 125.014C242.871 123.395 241.559 122.083 239.94 122.083C238.321 122.083 237.009 123.395 237.009 125.014C237.009 126.633 238.321 127.946 239.94 127.946Z" fill="#6FA467"/>
<path d="M223.819 128.018C225.478 128.018 226.823 126.673 226.823 125.014C226.823 123.354 225.478 122.009 223.819 122.009C222.159 122.009 220.814 123.354 220.814 125.014C220.814 126.673 222.159 128.018 223.819 128.018Z" fill="#6FA467"/>
<path d="M207.621 127.213C208.836 127.213 209.82 126.228 209.82 125.014C209.82 123.8 208.836 122.816 207.621 122.816C206.407 122.816 205.423 123.8 205.423 125.014C205.423 126.228 206.407 127.213 207.621 127.213Z" fill="#6FA467"/>
<path d="M191.428 126.846C192.439 126.846 193.26 126.026 193.26 125.014C193.26 124.002 192.439 123.182 191.428 123.182C190.416 123.182 189.595 124.002 189.595 125.014C189.595 126.026 190.416 126.846 191.428 126.846Z" fill="#6FA467"/>
<path d="M175.303 128.458C177.206 128.458 178.748 126.916 178.748 125.014C178.748 123.112 177.206 121.57 175.303 121.57C173.401 121.57 171.859 123.112 171.859 125.014C171.859 126.916 173.401 128.458 175.303 128.458Z" fill="#6FA467"/>
<path d="M159.108 127.213C160.323 127.213 161.307 126.228 161.307 125.014C161.307 123.8 160.323 122.816 159.108 122.816C157.894 122.816 156.91 123.8 156.91 125.014C156.91 126.228 157.894 127.213 159.108 127.213Z" fill="#6FA467"/>
<path d="M142.985 128.018C144.645 128.018 145.99 126.673 145.99 125.014C145.99 123.354 144.645 122.009 142.985 122.009C141.326 122.009 139.981 123.354 139.981 125.014C139.981 126.673 141.326 128.018 142.985 128.018Z" fill="#6FA467"/>
<path d="M353.09 110.724C354.142 110.724 354.995 109.871 354.995 108.818C354.995 107.766 354.142 106.913 353.09 106.913C352.038 106.913 351.185 107.766 351.185 108.818C351.185 109.871 352.038 110.724 353.09 110.724Z" fill="#6FA467"/>
<path d="M336.967 111.31C338.343 111.31 339.458 110.195 339.458 108.819C339.458 107.443 338.343 106.327 336.967 106.327C335.591 106.327 334.475 107.443 334.475 108.819C334.475 110.195 335.591 111.31 336.967 111.31Z" fill="#6FA467"/>
<path d="M320.772 111.31C322.148 111.31 323.264 110.195 323.264 108.819C323.264 107.443 322.148 106.327 320.772 106.327C319.396 106.327 318.28 107.443 318.28 108.819C318.28 110.195 319.396 111.31 320.772 111.31Z" fill="#6FA467"/>
<path d="M304.576 111.897C306.276 111.897 307.654 110.519 307.654 108.819C307.654 107.119 306.276 105.741 304.576 105.741C302.876 105.741 301.498 107.119 301.498 108.819C301.498 110.519 302.876 111.897 304.576 111.897Z" fill="#6FA467"/>
<path d="M288.454 111.75C290.073 111.75 291.385 110.437 291.385 108.819C291.385 107.2 290.073 105.887 288.454 105.887C286.835 105.887 285.523 107.2 285.523 108.819C285.523 110.437 286.835 111.75 288.454 111.75Z" fill="#6FA467"/>
<path d="M272.259 110.577C273.23 110.577 274.018 109.79 274.018 108.818C274.018 107.847 273.23 107.06 272.259 107.06C271.288 107.06 270.5 107.847 270.5 108.818C270.5 109.79 271.288 110.577 272.259 110.577Z" fill="#6FA467"/>
<path d="M256.135 111.75C257.754 111.75 259.066 110.437 259.066 108.819C259.066 107.2 257.754 105.887 256.135 105.887C254.516 105.887 253.204 107.2 253.204 108.819C253.204 110.437 254.516 111.75 256.135 111.75Z" fill="#6FA467"/>
<path d="M239.941 112.336C241.884 112.336 243.458 110.762 243.458 108.819C243.458 106.876 241.884 105.301 239.941 105.301C237.998 105.301 236.423 106.876 236.423 108.819C236.423 110.762 237.998 112.336 239.941 112.336Z" fill="#6FA467"/>
<path d="M223.819 111.823C225.478 111.823 226.823 110.478 226.823 108.818C226.823 107.159 225.478 105.813 223.819 105.813C222.159 105.813 220.814 107.159 220.814 108.818C220.814 110.478 222.159 111.823 223.819 111.823Z" fill="#6FA467"/>
<path d="M207.622 112.336C209.565 112.336 211.14 110.762 211.14 108.819C211.14 106.876 209.565 105.301 207.622 105.301C205.679 105.301 204.104 106.876 204.104 108.819C204.104 110.762 205.679 112.336 207.622 112.336Z" fill="#6FA467"/>
<path d="M191.427 112.336C193.37 112.336 194.945 110.762 194.945 108.819C194.945 106.876 193.37 105.301 191.427 105.301C189.484 105.301 187.909 106.876 187.909 108.819C187.909 110.762 189.484 112.336 191.427 112.336Z" fill="#6FA467"/>
<path d="M175.305 112.556C177.369 112.556 179.042 110.883 179.042 108.819C179.042 106.754 177.369 105.081 175.305 105.081C173.241 105.081 171.568 106.754 171.568 108.819C171.568 110.883 173.241 112.556 175.305 112.556Z" fill="#6FA467"/>
<path d="M159.108 111.383C160.525 111.383 161.673 110.235 161.673 108.819C161.673 107.402 160.525 106.254 159.108 106.254C157.692 106.254 156.543 107.402 156.543 108.819C156.543 110.235 157.692 111.383 159.108 111.383Z" fill="#6FA467"/>
<path d="M142.987 112.043C144.768 112.043 146.211 110.599 146.211 108.819C146.211 107.038 144.768 105.594 142.987 105.594C141.206 105.594 139.762 107.038 139.762 108.819C139.762 110.599 141.206 112.043 142.987 112.043Z" fill="#6FA467"/>
<path d="M142.986 80.0177C144.929 80.0177 146.504 78.4428 146.504 76.5001C146.504 74.5573 144.929 72.9824 142.986 72.9824C141.044 72.9824 139.468 74.5573 139.468 76.5001C139.468 78.4428 141.044 80.0177 142.986 80.0177Z" fill="#6FA467"/>
<path d="M159.108 80.0177C161.051 80.0177 162.626 78.4428 162.626 76.5001C162.626 74.5573 161.051 72.9824 159.108 72.9824C157.165 72.9824 155.59 74.5573 155.59 76.5001C155.59 78.4428 157.165 80.0177 159.108 80.0177Z" fill="#6FA467"/>
<path d="M175.305 80.238C177.369 80.238 179.042 78.5646 179.042 76.5005C179.042 74.4363 177.369 72.7629 175.305 72.7629C173.241 72.7629 171.568 74.4363 171.568 76.5005C171.568 78.5646 173.241 80.238 175.305 80.238Z" fill="#6FA467"/>
<path d="M191.427 79.0654C192.844 79.0654 193.992 77.917 193.992 76.5005C193.992 75.0839 192.844 73.9355 191.427 73.9355C190.011 73.9355 188.862 75.0839 188.862 76.5005C188.862 77.917 190.011 79.0654 191.427 79.0654Z" fill="#6FA467"/>
<path d="M207.622 79.7247C209.403 79.7247 210.847 78.2811 210.847 76.5003C210.847 74.7195 209.403 73.2759 207.622 73.2759C205.842 73.2759 204.398 74.7195 204.398 76.5003C204.398 78.2811 205.842 79.7247 207.622 79.7247Z" fill="#6FA467"/>
<path d="M223.818 78.919C225.154 78.919 226.236 77.8363 226.236 76.5007C226.236 75.165 225.154 74.0823 223.818 74.0823C222.482 74.0823 221.4 75.165 221.4 76.5007C221.4 77.8363 222.482 78.919 223.818 78.919Z" fill="#6FA467"/>
<path d="M239.94 79.0654C241.357 79.0654 242.505 77.917 242.505 76.5005C242.505 75.0839 241.357 73.9355 239.94 73.9355C238.524 73.9355 237.375 75.0839 237.375 76.5005C237.375 77.917 238.524 79.0654 239.94 79.0654Z" fill="#6FA467"/>
<path d="M256.136 80.3843C258.281 80.3843 260.02 78.6453 260.02 76.5003C260.02 74.3552 258.281 72.6162 256.136 72.6162C253.991 72.6162 252.252 74.3552 252.252 76.5003C252.252 78.6453 253.991 80.3843 256.136 80.3843Z" fill="#6FA467"/>
<path d="M272.259 79.6523C273.999 79.6523 275.41 78.2414 275.41 76.5011C275.41 74.7607 273.999 73.3499 272.259 73.3499C270.518 73.3499 269.107 74.7607 269.107 76.5011C269.107 78.2414 270.518 79.6523 272.259 79.6523Z" fill="#6FA467"/>
<path d="M288.454 80.165C290.477 80.165 292.118 78.5245 292.118 76.5008C292.118 74.4772 290.477 72.8367 288.454 72.8367C286.43 72.8367 284.79 74.4772 284.79 76.5008C284.79 78.5245 286.43 80.165 288.454 80.165Z" fill="#6FA467"/>
<path d="M304.576 79.8716C306.437 79.8716 307.946 78.3623 307.946 76.5005C307.946 74.6387 306.437 73.1294 304.576 73.1294C302.714 73.1294 301.204 74.6387 301.204 76.5005C301.204 78.3623 302.714 79.8716 304.576 79.8716Z" fill="#6FA467"/>
<path d="M320.77 79.6523C322.511 79.6523 323.922 78.2414 323.922 76.5011C323.922 74.7607 322.511 73.3499 320.77 73.3499C319.03 73.3499 317.619 74.7607 317.619 76.5011C317.619 78.2414 319.03 79.6523 320.77 79.6523Z" fill="#6FA467"/>
<path d="M336.968 79.8716C338.83 79.8716 340.339 78.3623 340.339 76.5005C340.339 74.6387 338.83 73.1294 336.968 73.1294C335.107 73.1294 333.597 74.6387 333.597 76.5005C333.597 78.3623 335.107 79.8716 336.968 79.8716Z" fill="#6FA467"/>
<path d="M353.089 78.1131C353.98 78.1131 354.702 77.3913 354.702 76.5009C354.702 75.6105 353.98 74.8887 353.089 74.8887C352.199 74.8887 351.477 75.6105 351.477 76.5009C351.477 77.3913 352.199 78.1131 353.089 78.1131Z" fill="#6FA467"/>
<path d="M175.304 64.5556C177.611 64.5556 179.481 62.6855 179.481 60.3785C179.481 58.0716 177.611 56.2014 175.304 56.2014C172.997 56.2014 171.127 58.0716 171.127 60.3785C171.127 62.6855 172.997 64.5556 175.304 64.5556Z" fill="#6FA467"/>
<path d="M191.427 64.2622C193.572 64.2622 195.311 62.5233 195.311 60.3782C195.311 58.2331 193.572 56.4941 191.427 56.4941C189.282 56.4941 187.543 58.2331 187.543 60.3782C187.543 62.5233 189.282 64.2622 191.427 64.2622Z" fill="#6FA467"/>
<path d="M207.622 64.2622C209.767 64.2622 211.506 62.5233 211.506 60.3782C211.506 58.2331 209.767 56.4941 207.622 56.4941C205.477 56.4941 203.738 58.2331 203.738 60.3782C203.738 62.5233 205.477 64.2622 207.622 64.2622Z" fill="#6FA467"/>
<path d="M223.817 64.0424C225.84 64.0424 227.481 62.4019 227.481 60.3783C227.481 58.3546 225.84 56.7141 223.817 56.7141C221.793 56.7141 220.153 58.3546 220.153 60.3783C220.153 62.4019 221.793 64.0424 223.817 64.0424Z" fill="#6FA467"/>
<path d="M239.941 64.5556C242.248 64.5556 244.118 62.6855 244.118 60.3785C244.118 58.0716 242.248 56.2014 239.941 56.2014C237.634 56.2014 235.763 58.0716 235.763 60.3785C235.763 62.6855 237.634 64.5556 239.941 64.5556Z" fill="#6FA467"/>
<path d="M256.136 64.2622C258.281 64.2622 260.02 62.5233 260.02 60.3782C260.02 58.2331 258.281 56.4941 256.136 56.4941C253.991 56.4941 252.252 58.2331 252.252 60.3782C252.252 62.5233 253.991 64.2622 256.136 64.2622Z" fill="#6FA467"/>
<path d="M272.257 63.7495C274.118 63.7495 275.628 62.2402 275.628 60.3784C275.628 58.5167 274.118 57.0073 272.257 57.0073C270.395 57.0073 268.886 58.5167 268.886 60.3784C268.886 62.2402 270.395 63.7495 272.257 63.7495Z" fill="#6FA467"/>
<path d="M288.454 64.0424C290.477 64.0424 292.118 62.4019 292.118 60.3783C292.118 58.3546 290.477 56.7141 288.454 56.7141C286.43 56.7141 284.79 58.3546 284.79 60.3783C284.79 62.4019 286.43 64.0424 288.454 64.0424Z" fill="#6FA467"/>
<path d="M304.577 64.2622C306.722 64.2622 308.461 62.5233 308.461 60.3782C308.461 58.2331 306.722 56.4941 304.577 56.4941C302.432 56.4941 300.693 58.2331 300.693 60.3782C300.693 62.5233 302.432 64.2622 304.577 64.2622Z" fill="#6FA467"/>
<path d="M320.77 64.2622C322.915 64.2622 324.654 62.5233 324.654 60.3782C324.654 58.2331 322.915 56.4941 320.77 56.4941C318.625 56.4941 316.886 58.2331 316.886 60.3782C316.886 62.5233 318.625 64.2622 320.77 64.2622Z" fill="#6FA467"/>
<path d="M336.968 63.7495C338.83 63.7495 340.339 62.2402 340.339 60.3784C340.339 58.5167 338.83 57.0073 336.968 57.0073C335.107 57.0073 333.597 58.5167 333.597 60.3784C333.597 62.2402 335.107 63.7495 336.968 63.7495Z" fill="#6FA467"/>
<path d="M353.089 61.9903C353.98 61.9903 354.702 61.2685 354.702 60.3781C354.702 59.4877 353.98 58.7659 353.089 58.7659C352.199 58.7659 351.477 59.4877 351.477 60.3781C351.477 61.2685 352.199 61.9903 353.089 61.9903Z" fill="#6FA467"/>
<path d="M142.986 96.2143C144.929 96.2143 146.504 94.6396 146.504 92.6968C146.504 90.7541 144.929 89.1792 142.986 89.1792C141.044 89.1792 139.468 90.7541 139.468 92.6968C139.468 94.6396 141.044 96.2143 142.986 96.2143Z" fill="#6FA467"/>
<path d="M159.108 96.2143C161.051 96.2143 162.626 94.6396 162.626 92.6968C162.626 90.7541 161.051 89.1792 159.108 89.1792C157.165 89.1792 155.59 90.7541 155.59 92.6968C155.59 94.6396 157.165 96.2143 159.108 96.2143Z" fill="#6FA467"/>
<path d="M175.305 96.4336C177.369 96.4336 179.042 94.7604 179.042 92.6963C179.042 90.6321 177.369 88.9587 175.305 88.9587C173.241 88.9587 171.568 90.6321 171.568 92.6963C171.568 94.7604 173.241 96.4336 175.305 96.4336Z" fill="#6FA467"/>
<path d="M191.427 95.2609C192.844 95.2609 193.992 94.1126 193.992 92.696C193.992 91.2795 192.844 90.1311 191.427 90.1311C190.011 90.1311 188.862 91.2795 188.862 92.696C188.862 94.1126 190.011 95.2609 191.427 95.2609Z" fill="#6FA467"/>
<path d="M207.622 95.9204C209.403 95.9204 210.847 94.4768 210.847 92.696C210.847 90.9152 209.403 89.4714 207.622 89.4714C205.842 89.4714 204.398 90.9152 204.398 92.696C204.398 94.4768 205.842 95.9204 207.622 95.9204Z" fill="#6FA467"/>
<path d="M223.818 95.1147C225.154 95.1147 226.236 94.0321 226.236 92.6965C226.236 91.3608 225.154 90.2781 223.818 90.2781C222.482 90.2781 221.4 91.3608 221.4 92.6965C221.4 94.0321 222.482 95.1147 223.818 95.1147Z" fill="#6FA467"/>
<path d="M239.94 95.2609C241.357 95.2609 242.505 94.1126 242.505 92.696C242.505 91.2795 241.357 90.1311 239.94 90.1311C238.524 90.1311 237.375 91.2795 237.375 92.696C237.375 94.1126 238.524 95.2609 239.94 95.2609Z" fill="#6FA467"/>
<path d="M256.136 96.5807C258.281 96.5807 260.02 94.8419 260.02 92.6968C260.02 90.5517 258.281 88.8127 256.136 88.8127C253.991 88.8127 252.252 90.5517 252.252 92.6968C252.252 94.8419 253.991 96.5807 256.136 96.5807Z" fill="#6FA467"/>
<path d="M272.259 95.8469C273.999 95.8469 275.41 94.4362 275.41 92.6959C275.41 90.9555 273.999 89.5447 272.259 89.5447C270.518 89.5447 269.107 90.9555 269.107 92.6959C269.107 94.4362 270.518 95.8469 272.259 95.8469Z" fill="#6FA467"/>
<path d="M288.454 96.3601C290.477 96.3601 292.118 94.7196 292.118 92.6959C292.118 90.6722 290.477 89.0317 288.454 89.0317C286.43 89.0317 284.79 90.6722 284.79 92.6959C284.79 94.7196 286.43 96.3601 288.454 96.3601Z" fill="#6FA467"/>
<path d="M304.576 96.0672C306.437 96.0672 307.946 94.5581 307.946 92.6963C307.946 90.8345 306.437 89.3252 304.576 89.3252C302.714 89.3252 301.204 90.8345 301.204 92.6963C301.204 94.5581 302.714 96.0672 304.576 96.0672Z" fill="#6FA467"/>
<path d="M320.77 95.8469C322.511 95.8469 323.922 94.4362 323.922 92.6959C323.922 90.9555 322.511 89.5447 320.77 89.5447C319.03 89.5447 317.619 90.9555 317.619 92.6959C317.619 94.4362 319.03 95.8469 320.77 95.8469Z" fill="#6FA467"/>
<path d="M336.968 96.0672C338.83 96.0672 340.339 94.5581 340.339 92.6963C340.339 90.8345 338.83 89.3252 336.968 89.3252C335.107 89.3252 333.597 90.8345 333.597 92.6963C333.597 94.5581 335.107 96.0672 336.968 96.0672Z" fill="#6FA467"/>
<path d="M353.089 94.3086C353.98 94.3086 354.702 93.5868 354.702 92.6964C354.702 91.8059 353.98 91.084 353.089 91.084C352.199 91.084 351.477 91.8059 351.477 92.6964C351.477 93.5868 352.199 94.3086 353.089 94.3086Z" fill="#6FA467"/>
<path d="M175.305 47.9197C177.369 47.9197 179.042 46.2463 179.042 44.1822C179.042 42.118 177.369 40.4448 175.305 40.4448C173.241 40.4448 171.568 42.118 171.568 44.1822C171.568 46.2463 173.241 47.9197 175.305 47.9197Z" fill="#6FA467"/>
<path d="M191.427 48.4329C193.774 48.4329 195.677 46.5299 195.677 44.1824C195.677 41.835 193.774 39.9321 191.427 39.9321C189.079 39.9321 187.176 41.835 187.176 44.1824C187.176 46.5299 189.079 48.4329 191.427 48.4329Z" fill="#6FA467"/>
<path d="M207.622 48.0668C209.767 48.0668 211.506 46.3278 211.506 44.1827C211.506 42.0376 209.767 40.2988 207.622 40.2988C205.477 40.2988 203.738 42.0376 203.738 44.1827C203.738 46.3278 205.477 48.0668 207.622 48.0668Z" fill="#6FA467"/>
<path d="M223.819 48.0668C225.964 48.0668 227.702 46.3278 227.702 44.1827C227.702 42.0376 225.964 40.2988 223.819 40.2988C221.673 40.2988 219.935 42.0376 219.935 44.1827C219.935 46.3278 221.673 48.0668 223.819 48.0668Z" fill="#6FA467"/>
<path d="M239.94 47.5538C241.802 47.5538 243.311 46.0445 243.311 44.1827C243.311 42.3209 241.802 40.8118 239.94 40.8118C238.079 40.8118 236.569 42.3209 236.569 44.1827C236.569 46.0445 238.079 47.5538 239.94 47.5538Z" fill="#6FA467"/>
<path d="M256.136 48.0668C258.281 48.0668 260.02 46.3278 260.02 44.1827C260.02 42.0376 258.281 40.2988 256.136 40.2988C253.991 40.2988 252.252 42.0376 252.252 44.1827C252.252 46.3278 253.991 48.0668 256.136 48.0668Z" fill="#6FA467"/>
<path d="M272.258 48.14C274.444 48.14 276.215 46.3681 276.215 44.1826C276.215 41.997 274.444 40.2253 272.258 40.2253C270.073 40.2253 268.301 41.997 268.301 44.1826C268.301 46.3681 270.073 48.14 272.258 48.14Z" fill="#6FA467"/>
<path d="M288.454 47.8469C290.477 47.8469 292.118 46.2064 292.118 44.1827C292.118 42.1591 290.477 40.5186 288.454 40.5186C286.43 40.5186 284.79 42.1591 284.79 44.1827C284.79 46.2064 286.43 47.8469 288.454 47.8469Z" fill="#6FA467"/>
<path d="M304.576 47.5538C306.437 47.5538 307.946 46.0445 307.946 44.1827C307.946 42.3209 306.437 40.8118 304.576 40.8118C302.714 40.8118 301.204 42.3209 301.204 44.1827C301.204 46.0445 302.714 47.5538 304.576 47.5538Z" fill="#6FA467"/>
<path d="M320.77 48.4329C323.117 48.4329 325.021 46.5299 325.021 44.1824C325.021 41.835 323.117 39.9321 320.77 39.9321C318.422 39.9321 316.52 41.835 316.52 44.1824C316.52 46.5299 318.422 48.4329 320.77 48.4329Z" fill="#6FA467"/>
<path d="M336.968 47.5538C338.83 47.5538 340.339 46.0445 340.339 44.1827C340.339 42.3209 338.83 40.8118 336.968 40.8118C335.107 40.8118 333.597 42.3209 333.597 44.1827C333.597 46.0445 335.107 47.5538 336.968 47.5538Z" fill="#6FA467"/>
<path d="M353.089 45.7946C353.98 45.7946 354.702 45.0727 354.702 44.1823C354.702 43.2919 353.98 42.5701 353.089 42.5701C352.199 42.5701 351.477 43.2919 351.477 44.1823C351.477 45.0727 352.199 45.7946 353.089 45.7946Z" fill="#6FA467"/>
<path d="M175.303 31.4315C177.206 31.4315 178.748 29.8895 178.748 27.9873C178.748 26.085 177.206 24.543 175.303 24.543C173.401 24.543 171.859 26.085 171.859 27.9873C171.859 29.8895 173.401 31.4315 175.303 31.4315Z" fill="#6FA467"/>
<path d="M191.427 31.505C193.37 31.505 194.945 29.9301 194.945 27.9874C194.945 26.0446 193.37 24.4697 191.427 24.4697C189.484 24.4697 187.909 26.0446 187.909 27.9874C187.909 29.9301 189.484 31.505 191.427 31.505Z" fill="#6FA467"/>
<path d="M207.622 31.2119C209.403 31.2119 210.847 29.7683 210.847 27.9875C210.847 26.2067 209.403 24.7629 207.622 24.7629C205.842 24.7629 204.398 26.2067 204.398 27.9875C204.398 29.7683 205.842 31.2119 207.622 31.2119Z" fill="#6FA467"/>
<path d="M223.818 32.1643C226.125 32.1643 227.996 30.2941 227.996 27.9872C227.996 25.6802 226.125 23.8101 223.818 23.8101C221.511 23.8101 219.641 25.6802 219.641 27.9872C219.641 30.2941 221.511 32.1643 223.818 32.1643Z" fill="#6FA467"/>
<path d="M239.941 32.1643C242.248 32.1643 244.118 30.2941 244.118 27.9872C244.118 25.6802 242.248 23.8101 239.941 23.8101C237.634 23.8101 235.763 25.6802 235.763 27.9872C235.763 30.2941 237.634 32.1643 239.941 32.1643Z" fill="#6FA467"/>
<path d="M256.136 31.8709C258.281 31.8709 260.02 30.1319 260.02 27.9868C260.02 25.8418 258.281 24.1028 256.136 24.1028C253.991 24.1028 252.252 25.8418 252.252 27.9868C252.252 30.1319 253.991 31.8709 256.136 31.8709Z" fill="#6FA467"/>
<path d="M272.258 31.6506C274.281 31.6506 275.922 30.0101 275.922 27.9864C275.922 25.9628 274.281 24.3223 272.258 24.3223C270.234 24.3223 268.594 25.9628 268.594 27.9864C268.594 30.0101 270.234 31.6506 272.258 31.6506Z" fill="#6FA467"/>
<path d="M288.454 31.6506C290.477 31.6506 292.118 30.0101 292.118 27.9864C292.118 25.9628 290.477 24.3223 288.454 24.3223C286.43 24.3223 284.79 25.9628 284.79 27.9864C284.79 30.0101 286.43 31.6506 288.454 31.6506Z" fill="#6FA467"/>
<path d="M304.577 31.6506C306.601 31.6506 308.241 30.0101 308.241 27.9864C308.241 25.9628 306.601 24.3223 304.577 24.3223C302.553 24.3223 300.913 25.9628 300.913 27.9864C300.913 30.0101 302.553 31.6506 304.577 31.6506Z" fill="#6FA467"/>
<path d="M320.77 31.1381C322.511 31.1381 323.922 29.7273 323.922 27.9869C323.922 26.2466 322.511 24.8357 320.77 24.8357C319.03 24.8357 317.619 26.2466 317.619 27.9869C317.619 29.7273 319.03 31.1381 320.77 31.1381Z" fill="#6FA467"/>
<path d="M336.968 31.358C338.83 31.358 340.339 29.8488 340.339 27.9871C340.339 26.1253 338.83 24.616 336.968 24.616C335.107 24.616 333.597 26.1253 333.597 27.9871C333.597 29.8488 335.107 31.358 336.968 31.358Z" fill="#6FA467"/>
<path d="M353.089 29.5994C353.98 29.5994 354.702 28.8776 354.702 27.9872C354.702 27.0968 353.98 26.375 353.089 26.375C352.199 26.375 351.477 27.0968 351.477 27.9872C351.477 28.8776 352.199 29.5994 353.089 29.5994Z" fill="#6FA467"/>
<path d="M175.304 16.0422C177.611 16.0422 179.481 14.1721 179.481 11.8651C179.481 9.55813 177.611 7.68799 175.304 7.68799C172.997 7.68799 171.127 9.55813 171.127 11.8651C171.127 14.1721 172.997 16.0422 175.304 16.0422Z" fill="#6FA467"/>
<path d="M191.427 15.7483C193.572 15.7483 195.311 14.0094 195.311 11.8643C195.311 9.71919 193.572 7.98022 191.427 7.98022C189.282 7.98022 187.543 9.71919 187.543 11.8643C187.543 14.0094 189.282 15.7483 191.427 15.7483Z" fill="#6FA467"/>
<path d="M207.622 15.7483C209.767 15.7483 211.506 14.0094 211.506 11.8643C211.506 9.71919 209.767 7.98022 207.622 7.98022C205.477 7.98022 203.738 9.71919 203.738 11.8643C203.738 14.0094 205.477 15.7483 207.622 15.7483Z" fill="#6FA467"/>
<path d="M223.817 15.5285C225.84 15.5285 227.481 13.888 227.481 11.8644C227.481 9.8407 225.84 8.2002 223.817 8.2002C221.793 8.2002 220.153 9.8407 220.153 11.8644C220.153 13.888 221.793 15.5285 223.817 15.5285Z" fill="#6FA467"/>
<path d="M239.941 15.7483C242.086 15.7483 243.825 14.0094 243.825 11.8643C243.825 9.71919 242.086 7.98022 239.941 7.98022C237.796 7.98022 236.057 9.71919 236.057 11.8643C236.057 14.0094 237.796 15.7483 239.941 15.7483Z" fill="#6FA467"/>
<path d="M256.136 15.7483C258.281 15.7483 260.02 14.0094 260.02 11.8643C260.02 9.71919 258.281 7.98022 256.136 7.98022C253.991 7.98022 252.252 9.71919 252.252 11.8643C252.252 14.0094 253.991 15.7483 256.136 15.7483Z" fill="#6FA467"/>
<path d="M272.257 15.2357C274.118 15.2357 275.628 13.7265 275.628 11.8648C275.628 10.003 274.118 8.49365 272.257 8.49365C270.395 8.49365 268.886 10.003 268.886 11.8648C268.886 13.7265 270.395 15.2357 272.257 15.2357Z" fill="#6FA467"/>
<path d="M288.454 15.5285C290.477 15.5285 292.118 13.888 292.118 11.8644C292.118 9.8407 290.477 8.2002 288.454 8.2002C286.43 8.2002 284.79 9.8407 284.79 11.8644C284.79 13.888 286.43 15.5285 288.454 15.5285Z" fill="#6FA467"/>
<path d="M304.577 15.7483C306.722 15.7483 308.461 14.0094 308.461 11.8643C308.461 9.71919 306.722 7.98022 304.577 7.98022C302.432 7.98022 300.693 9.71919 300.693 11.8643C300.693 14.0094 302.432 15.7483 304.577 15.7483Z" fill="#6FA467"/>
<path d="M320.77 15.7483C322.915 15.7483 324.654 14.0094 324.654 11.8643C324.654 9.71919 322.915 7.98022 320.77 7.98022C318.625 7.98022 316.886 9.71919 316.886 11.8643C316.886 14.0094 318.625 15.7483 320.77 15.7483Z" fill="#6FA467"/>
<path d="M336.968 15.2357C338.83 15.2357 340.339 13.7265 340.339 11.8648C340.339 10.003 338.83 8.49365 336.968 8.49365C335.107 8.49365 333.597 10.003 333.597 11.8648C333.597 13.7265 335.107 15.2357 336.968 15.2357Z" fill="#6FA467"/>
<path d="M353.089 13.4768C353.98 13.4768 354.702 12.7551 354.702 11.8646C354.702 10.9742 353.98 10.2524 353.089 10.2524C352.199 10.2524 351.477 10.9742 351.477 11.8646C351.477 12.7551 352.199 13.4768 353.089 13.4768Z" fill="#6FA467"/>
<path d="M110.596 64.5556C112.903 64.5556 114.773 62.6855 114.773 60.3785C114.773 58.0716 112.903 56.2014 110.596 56.2014C108.289 56.2014 106.418 58.0716 106.418 60.3785C106.418 62.6855 108.289 64.5556 110.596 64.5556Z" fill="#6FA467"/>
<path d="M126.79 64.2622C128.935 64.2622 130.674 62.5233 130.674 60.3782C130.674 58.2331 128.935 56.4941 126.79 56.4941C124.645 56.4941 122.906 58.2331 122.906 60.3782C122.906 62.5233 124.645 64.2622 126.79 64.2622Z" fill="#6FA467"/>
<path d="M142.986 64.2622C145.131 64.2622 146.87 62.5233 146.87 60.3782C146.87 58.2331 145.131 56.4941 142.986 56.4941C140.841 56.4941 139.102 58.2331 139.102 60.3782C139.102 62.5233 140.841 64.2622 142.986 64.2622Z" fill="#6FA467"/>
<path d="M159.109 64.0424C161.132 64.0424 162.773 62.4019 162.773 60.3783C162.773 58.3546 161.132 56.7141 159.109 56.7141C157.085 56.7141 155.445 58.3546 155.445 60.3783C155.445 62.4019 157.085 64.0424 159.109 64.0424Z" fill="#6FA467"/>
<path d="M110.594 47.9197C112.658 47.9197 114.332 46.2463 114.332 44.1822C114.332 42.118 112.658 40.4448 110.594 40.4448C108.53 40.4448 106.857 42.118 106.857 44.1822C106.857 46.2463 108.53 47.9197 110.594 47.9197Z" fill="#6FA467"/>
<path d="M126.791 48.14C128.977 48.14 130.748 46.3681 130.748 44.1826C130.748 41.997 128.977 40.2253 126.791 40.2253C124.606 40.2253 122.834 41.997 122.834 44.1826C122.834 46.3681 124.606 48.14 126.791 48.14Z" fill="#6FA467"/>
<path d="M142.986 48.0668C145.131 48.0668 146.87 46.3278 146.87 44.1827C146.87 42.0376 145.131 40.2988 142.986 40.2988C140.841 40.2988 139.102 42.0376 139.102 44.1827C139.102 46.3278 140.841 48.0668 142.986 48.0668Z" fill="#6FA467"/>
<path d="M159.108 48.0668C161.253 48.0668 162.992 46.3278 162.992 44.1827C162.992 42.0376 161.253 40.2988 159.108 40.2988C156.963 40.2988 155.224 42.0376 155.224 44.1827C155.224 46.3278 156.963 48.0668 159.108 48.0668Z" fill="#6FA467"/>
<path d="M110.594 31.7244C112.658 31.7244 114.332 30.0512 114.332 27.987C114.332 25.9229 112.658 24.2495 110.594 24.2495C108.53 24.2495 106.857 25.9229 106.857 27.987C106.857 30.0512 108.53 31.7244 110.594 31.7244Z" fill="#6FA467"/>
<path d="M126.79 31.505C128.733 31.505 130.308 29.9301 130.308 27.9874C130.308 26.0446 128.733 24.4697 126.79 24.4697C124.847 24.4697 123.272 26.0446 123.272 27.9874C123.272 29.9301 124.847 31.505 126.79 31.505Z" fill="#6FA467"/>
<path d="M142.987 31.2119C144.768 31.2119 146.211 29.7683 146.211 27.9875C146.211 26.2067 144.768 24.7629 142.987 24.7629C141.206 24.7629 139.762 26.2067 139.762 27.9875C139.762 29.7683 141.206 31.2119 142.987 31.2119Z" fill="#6FA467"/>
<path d="M159.109 32.1643C161.416 32.1643 163.286 30.2941 163.286 27.9872C163.286 25.6802 161.416 23.8101 159.109 23.8101C156.802 23.8101 154.931 25.6802 154.931 27.9872C154.931 30.2941 156.802 32.1643 159.109 32.1643Z" fill="#6FA467"/>
<path d="M110.595 15.3824C112.538 15.3824 114.112 13.8075 114.112 11.8648C114.112 9.92209 112.538 8.34717 110.595 8.34717C108.652 8.34717 107.077 9.92209 107.077 11.8648C107.077 13.8075 108.652 15.3824 110.595 15.3824Z" fill="#6FA467"/>
<path d="M126.79 15.7483C128.935 15.7483 130.674 14.0094 130.674 11.8643C130.674 9.71919 128.935 7.98022 126.79 7.98022C124.645 7.98022 122.906 9.71919 122.906 11.8643C122.906 14.0094 124.645 15.7483 126.79 15.7483Z" fill="#6FA467"/>
<path d="M142.986 15.7483C145.131 15.7483 146.87 14.0094 146.87 11.8643C146.87 9.71919 145.131 7.98022 142.986 7.98022C140.841 7.98022 139.102 9.71919 139.102 11.8643C139.102 14.0094 140.841 15.7483 142.986 15.7483Z" fill="#6FA467"/>
<path d="M159.109 15.5285C161.132 15.5285 162.773 13.888 162.773 11.8644C162.773 9.8407 161.132 8.2002 159.109 8.2002C157.085 8.2002 155.445 9.8407 155.445 11.8644C155.445 13.888 157.085 15.5285 159.109 15.5285Z" fill="#6FA467"/>
<path d="M94.4736 64.5556C96.7806 64.5556 98.6509 62.6855 98.6509 60.3785C98.6509 58.0716 96.7806 56.2014 94.4736 56.2014C92.1666 56.2014 90.2963 58.0716 90.2963 60.3785C90.2963 62.6855 92.1666 64.5556 94.4736 64.5556Z" fill="#6FA467"/>
<path d="M78.2758 64.2622C80.4209 64.2622 82.16 62.5233 82.16 60.3782C82.16 58.2331 80.4209 56.4941 78.2758 56.4941C76.1307 56.4941 74.3919 58.2331 74.3919 60.3782C74.3919 62.5233 76.1307 64.2622 78.2758 64.2622Z" fill="#6FA467"/>
<path d="M62.1538 64.2622C64.2989 64.2622 66.038 62.5233 66.038 60.3782C66.038 58.2331 64.2989 56.4941 62.1538 56.4941C60.0087 56.4941 58.2699 58.2331 58.2699 60.3782C58.2699 62.5233 60.0087 64.2622 62.1538 64.2622Z" fill="#6FA467"/>
<path d="M45.9589 64.0424C47.9825 64.0424 49.623 62.4019 49.623 60.3783C49.623 58.3546 47.9825 56.7141 45.9589 56.7141C43.9352 56.7141 42.2947 58.3546 42.2947 60.3783C42.2947 62.4019 43.9352 64.0424 45.9589 64.0424Z" fill="#6FA467"/>
<path d="M29.8361 64.5556C32.1431 64.5556 34.0134 62.6855 34.0134 60.3785C34.0134 58.0716 32.1431 56.2014 29.8361 56.2014C27.5292 56.2014 25.6592 58.0716 25.6592 60.3785C25.6592 62.6855 27.5292 64.5556 29.8361 64.5556Z" fill="#6FA467"/>
<path d="M13.641 64.2622C15.7861 64.2622 17.5249 62.5233 17.5249 60.3782C17.5249 58.2331 15.7861 56.4941 13.641 56.4941C11.4959 56.4941 9.75676 58.2331 9.75676 60.3782C9.75676 62.5233 11.4959 64.2622 13.641 64.2622Z" fill="#6FA467"/>
<path d="M-2.55378 63.7495C-0.692005 63.7495 0.81733 62.2402 0.81733 60.3784C0.81733 58.5167 -0.692005 57.0073 -2.55378 57.0073C-4.41555 57.0073 -5.92488 58.5167 -5.92488 60.3784C-5.92488 62.2402 -4.41555 63.7495 -2.55378 63.7495Z" fill="#6FA467"/>
<path d="M94.4723 47.9197C96.5365 47.9197 98.2099 46.2463 98.2099 44.1822C98.2099 42.118 96.5365 40.4448 94.4723 40.4448C92.4082 40.4448 90.7348 42.118 90.7348 44.1822C90.7348 46.2463 92.4082 47.9197 94.4723 47.9197Z" fill="#6FA467"/>
<path d="M78.2771 48.2866C80.5436 48.2866 82.3811 46.4491 82.3811 44.1826C82.3811 41.9161 80.5436 40.0789 78.2771 40.0789C76.0106 40.0789 74.1732 41.9161 74.1732 44.1826C74.1732 46.4491 76.0106 48.2866 78.2771 48.2866Z" fill="#6FA467"/>
<path d="M62.1538 48.0668C64.2989 48.0668 66.038 46.3278 66.038 44.1827C66.038 42.0376 64.2989 40.2988 62.1538 40.2988C60.0087 40.2988 58.2699 42.0376 58.2699 44.1827C58.2699 46.3278 60.0087 48.0668 62.1538 48.0668Z" fill="#6FA467"/>
<path d="M45.9598 48.0668C48.1048 48.0668 49.844 46.3278 49.844 44.1827C49.844 42.0376 48.1048 40.2988 45.9598 40.2988C43.8147 40.2988 42.0759 42.0376 42.0759 44.1827C42.0759 46.3278 43.8147 48.0668 45.9598 48.0668Z" fill="#6FA467"/>
<path d="M29.8378 47.5538C31.6996 47.5538 33.2089 46.0445 33.2089 44.1827C33.2089 42.3209 31.6996 40.8118 29.8378 40.8118C27.9761 40.8118 26.4671 42.3209 26.4671 44.1827C26.4671 46.0445 27.9761 47.5538 29.8378 47.5538Z" fill="#6FA467"/>
<path d="M13.641 48.0668C15.7861 48.0668 17.5249 46.3278 17.5249 44.1827C17.5249 42.0376 15.7861 40.2988 13.641 40.2988C11.4959 40.2988 9.75676 42.0376 9.75676 44.1827C9.75676 46.3278 11.4959 48.0668 13.641 48.0668Z" fill="#6FA467"/>
<path d="M-2.55486 47.7004C-0.612144 47.7004 0.962596 46.1255 0.962596 44.1827C0.962596 42.24 -0.612144 40.6653 -2.55486 40.6653C-4.49758 40.6653 -6.07268 42.24 -6.07268 44.1827C-6.07268 46.1255 -4.49758 47.7004 -2.55486 47.7004Z" fill="#6FA467"/>
<path d="M94.4723 31.7244C96.5365 31.7244 98.2099 30.0512 98.2099 27.987C98.2099 25.9229 96.5365 24.2495 94.4723 24.2495C92.4082 24.2495 90.7348 25.9229 90.7348 27.987C90.7348 30.0512 92.4082 31.7244 94.4723 31.7244Z" fill="#6FA467"/>
<path d="M78.2759 31.505C80.2186 31.505 81.7937 29.9301 81.7937 27.9874C81.7937 26.0446 80.2186 24.4697 78.2759 24.4697C76.3332 24.4697 74.7585 26.0446 74.7585 27.9874C74.7585 29.9301 76.3332 31.505 78.2759 31.505Z" fill="#6FA467"/>
<path d="M62.1545 31.2119C63.9353 31.2119 65.3789 29.7683 65.3789 27.9875C65.3789 26.2067 63.9353 24.7629 62.1545 24.7629C60.3737 24.7629 58.9301 26.2067 58.9301 27.9875C58.9301 29.7683 60.3737 31.2119 62.1545 31.2119Z" fill="#6FA467"/>
<path d="M45.9582 32.1643C48.2651 32.1643 50.1355 30.2941 50.1355 27.9872C50.1355 25.6802 48.2651 23.8101 45.9582 23.8101C43.6512 23.8101 41.7812 25.6802 41.7812 27.9872C41.7812 30.2941 43.6512 32.1643 45.9582 32.1643Z" fill="#6FA467"/>
<path d="M29.8361 32.1643C32.1431 32.1643 34.0134 30.2941 34.0134 27.9872C34.0134 25.6802 32.1431 23.8101 29.8361 23.8101C27.5292 23.8101 25.6592 25.6802 25.6592 27.9872C25.6592 30.2941 27.5292 32.1643 29.8361 32.1643Z" fill="#6FA467"/>
<path d="M13.641 31.8709C15.7861 31.8709 17.5249 30.1319 17.5249 27.9868C17.5249 25.8418 15.7861 24.1028 13.641 24.1028C11.4959 24.1028 9.75676 25.8418 9.75676 27.9868C9.75676 30.1319 11.4959 31.8709 13.641 31.8709Z" fill="#6FA467"/>
<path d="M-2.55378 31.358C-0.692005 31.358 0.81733 29.8488 0.81733 27.9871C0.81733 26.1253 -0.692005 24.616 -2.55378 24.616C-4.41555 24.616 -5.92488 26.1253 -5.92488 27.9871C-5.92488 29.8488 -4.41555 31.358 -2.55378 31.358Z" fill="#6FA467"/>
<path d="M94.4736 16.0422C96.7806 16.0422 98.6509 14.1721 98.6509 11.8651C98.6509 9.55813 96.7806 7.68799 94.4736 7.68799C92.1666 7.68799 90.2963 9.55813 90.2963 11.8651C90.2963 14.1721 92.1666 16.0422 94.4736 16.0422Z" fill="#6FA467"/>
<path d="M78.2758 15.7483C80.4209 15.7483 82.16 14.0094 82.16 11.8643C82.16 9.71919 80.4209 7.98022 78.2758 7.98022C76.1307 7.98022 74.3919 9.71919 74.3919 11.8643C74.3919 14.0094 76.1307 15.7483 78.2758 15.7483Z" fill="#6FA467"/>
<path d="M62.1538 15.7483C64.2989 15.7483 66.038 14.0094 66.038 11.8643C66.038 9.71919 64.2989 7.98022 62.1538 7.98022C60.0087 7.98022 58.2699 9.71919 58.2699 11.8643C58.2699 14.0094 60.0087 15.7483 62.1538 15.7483Z" fill="#6FA467"/>
<path d="M45.9589 15.5285C47.9825 15.5285 49.623 13.888 49.623 11.8644C49.623 9.8407 47.9825 8.2002 45.9589 8.2002C43.9352 8.2002 42.2947 9.8407 42.2947 11.8644C42.2947 13.888 43.9352 15.5285 45.9589 15.5285Z" fill="#6FA467"/>
<path d="M29.8358 15.7483C31.9809 15.7483 33.7201 14.0094 33.7201 11.8643C33.7201 9.71919 31.9809 7.98022 29.8358 7.98022C27.6908 7.98022 25.952 9.71919 25.952 11.8643C25.952 14.0094 27.6908 15.7483 29.8358 15.7483Z" fill="#6FA467"/>
<path d="M13.641 15.7483C15.7861 15.7483 17.5249 14.0094 17.5249 11.8643C17.5249 9.71919 15.7861 7.98022 13.641 7.98022C11.4959 7.98022 9.75676 9.71919 9.75676 11.8643C9.75676 14.0094 11.4959 15.7483 13.641 15.7483Z" fill="#6FA467"/>
<path d="M-2.55378 15.2357C-0.692005 15.2357 0.81733 13.7265 0.81733 11.8648C0.81733 10.003 -0.692005 8.49365 -2.55378 8.49365C-4.41555 8.49365 -5.92488 10.003 -5.92488 11.8648C-5.92488 13.7265 -4.41555 15.2357 -2.55378 15.2357Z" fill="#6FA467"/>
<path d="M29.8374 240.069C30.8897 240.069 31.7428 239.216 31.7428 238.163C31.7428 237.111 30.8897 236.258 29.8374 236.258C28.7851 236.258 27.9323 237.111 27.9323 238.163C27.9323 239.216 28.7851 240.069 29.8374 240.069Z" fill="#6FA467"/>
<path d="M78.2779 239.776C79.1683 239.776 79.8903 239.054 79.8903 238.164C79.8903 237.273 79.1683 236.552 78.2779 236.552C77.3875 236.552 76.6659 237.273 76.6659 238.164C76.6659 239.054 77.3875 239.776 78.2779 239.776Z" fill="#6FA467"/>
<path d="M94.4733 239.995C95.4851 239.995 96.3053 239.175 96.3053 238.163C96.3053 237.152 95.4851 236.331 94.4733 236.331C93.4614 236.331 92.6412 237.152 92.6412 238.163C92.6412 239.175 93.4614 239.995 94.4733 239.995Z" fill="#6FA467"/>
<path d="M110.594 239.995C111.606 239.995 112.427 239.175 112.427 238.163C112.427 237.152 111.606 236.331 110.594 236.331C109.583 236.331 108.762 237.152 108.762 238.163C108.762 239.175 109.583 239.995 110.594 239.995Z" fill="#6FA467"/>
<path d="M126.791 239.776C127.682 239.776 128.403 239.054 128.403 238.164C128.403 237.273 127.682 236.552 126.791 236.552C125.901 236.552 125.179 237.273 125.179 238.164C125.179 239.054 125.901 239.776 126.791 239.776Z" fill="#6FA467"/>
<path d="M13.6406 224.386C14.9762 224.386 16.0588 223.303 16.0588 221.968C16.0588 220.632 14.9762 219.549 13.6406 219.549C12.305 219.549 11.222 220.632 11.222 221.968C11.222 223.303 12.305 224.386 13.6406 224.386Z" fill="#6FA467"/>
<path d="M29.8366 223.434C30.646 223.434 31.3022 222.777 31.3022 221.968C31.3022 221.158 30.646 220.502 29.8366 220.502C29.0271 220.502 28.3709 221.158 28.3709 221.968C28.3709 222.777 29.0271 223.434 29.8366 223.434Z" fill="#6FA467"/>
<path d="M45.9602 224.24C47.2148 224.24 48.232 223.223 48.232 221.968C48.232 220.713 47.2148 219.696 45.9602 219.696C44.7055 219.696 43.6887 220.713 43.6887 221.968C43.6887 223.223 44.7055 224.24 45.9602 224.24Z" fill="#6FA467"/>
<path d="M62.1544 223.8C63.1662 223.8 63.9865 222.98 63.9865 221.968C63.9865 220.956 63.1662 220.136 62.1544 220.136C61.1425 220.136 60.3223 220.956 60.3223 221.968C60.3223 222.98 61.1425 223.8 62.1544 223.8Z" fill="#6FA467"/>
<path d="M78.2757 223.287C79.0042 223.287 79.595 222.697 79.595 221.968C79.595 221.24 79.0042 220.649 78.2757 220.649C77.5471 220.649 76.9567 221.24 76.9567 221.968C76.9567 222.697 77.5471 223.287 78.2757 223.287Z" fill="#6FA467"/>
<path d="M94.4741 224.313C95.7692 224.313 96.8193 223.263 96.8193 221.968C96.8193 220.673 95.7692 219.623 94.4741 219.623C93.1789 219.623 92.1288 220.673 92.1288 221.968C92.1288 223.263 93.1789 224.313 94.4741 224.313Z" fill="#6FA467"/>
<path d="M110.594 223.8C111.606 223.8 112.427 222.98 112.427 221.968C112.427 220.956 111.606 220.136 110.594 220.136C109.583 220.136 108.762 220.956 108.762 221.968C108.762 222.98 109.583 223.8 110.594 223.8Z" fill="#6FA467"/>
<path d="M126.791 223.58C127.682 223.58 128.403 222.858 128.403 221.968C128.403 221.077 127.682 220.356 126.791 220.356C125.901 220.356 125.179 221.077 125.179 221.968C125.179 222.858 125.901 223.58 126.791 223.58Z" fill="#6FA467"/>
<path d="M13.6412 207.604C14.6126 207.604 15.4 206.817 15.4 205.846C15.4 204.874 14.6126 204.087 13.6412 204.087C12.6699 204.087 11.8822 204.874 11.8822 205.846C11.8822 206.817 12.6699 207.604 13.6412 207.604Z" fill="#6FA467"/>
<path d="M29.8359 207.458C30.7264 207.458 31.4483 206.736 31.4483 205.845C31.4483 204.955 30.7264 204.233 29.8359 204.233C28.9455 204.233 28.2239 204.955 28.2239 205.845C28.2239 206.736 28.9455 207.458 29.8359 207.458Z" fill="#6FA467"/>
<path d="M45.9602 208.117C47.2148 208.117 48.232 207.1 48.232 205.846C48.232 204.591 47.2148 203.574 45.9602 203.574C44.7055 203.574 43.6887 204.591 43.6887 205.846C43.6887 207.1 44.7055 208.117 45.9602 208.117Z" fill="#6FA467"/>
<path d="M62.1551 207.458C63.0455 207.458 63.7675 206.736 63.7675 205.845C63.7675 204.955 63.0455 204.233 62.1551 204.233C61.2647 204.233 60.5431 204.955 60.5431 205.845C60.5431 206.736 61.2647 207.458 62.1551 207.458Z" fill="#6FA467"/>
<path d="M78.2779 207.458C79.1683 207.458 79.8903 206.736 79.8903 205.845C79.8903 204.955 79.1683 204.233 78.2779 204.233C77.3875 204.233 76.6659 204.955 76.6659 205.845C76.6659 206.736 77.3875 207.458 78.2779 207.458Z" fill="#6FA467"/>
<path d="M94.4735 207.165C95.202 207.165 95.7925 206.575 95.7925 205.846C95.7925 205.117 95.202 204.527 94.4735 204.527C93.745 204.527 93.1546 205.117 93.1546 205.846C93.1546 206.575 93.745 207.165 94.4735 207.165Z" fill="#6FA467"/>
<path d="M110.596 207.824C111.689 207.824 112.575 206.939 112.575 205.846C112.575 204.753 111.689 203.867 110.596 203.867C109.503 203.867 108.617 204.753 108.617 205.846C108.617 206.939 109.503 207.824 110.596 207.824Z" fill="#6FA467"/>
<path d="M126.791 207.458C127.682 207.458 128.403 206.736 128.403 205.845C128.403 204.955 127.682 204.233 126.791 204.233C125.901 204.233 125.179 204.955 125.179 205.845C125.179 206.736 125.901 207.458 126.791 207.458Z" fill="#6FA467"/>
<path d="M13.6403 191.263C14.5307 191.263 15.2523 190.541 15.2523 189.651C15.2523 188.76 14.5307 188.039 13.6403 188.039C12.7499 188.039 12.0279 188.76 12.0279 189.651C12.0279 190.541 12.7499 191.263 13.6403 191.263Z" fill="#6FA467"/>
<path d="M29.8358 191.995C31.1309 191.995 32.181 190.945 32.181 189.65C32.181 188.355 31.1309 187.305 29.8358 187.305C28.5406 187.305 27.4909 188.355 27.4909 189.65C27.4909 190.945 28.5406 191.995 29.8358 191.995Z" fill="#6FA467"/>
<path d="M45.959 191.042C46.728 191.042 47.3517 190.419 47.3517 189.65C47.3517 188.881 46.728 188.258 45.959 188.258C45.19 188.258 44.5667 188.881 44.5667 189.65C44.5667 190.419 45.19 191.042 45.959 191.042Z" fill="#6FA467"/>
<path d="M62.1544 191.482C63.1662 191.482 63.9865 190.662 63.9865 189.65C63.9865 188.638 63.1662 187.818 62.1544 187.818C61.1425 187.818 60.3223 188.638 60.3223 189.65C60.3223 190.662 61.1425 191.482 62.1544 191.482Z" fill="#6FA467"/>
<path d="M78.2773 191.482C79.2891 191.482 80.1094 190.662 80.1094 189.65C80.1094 188.638 79.2891 187.818 78.2773 187.818C77.2655 187.818 76.4452 188.638 76.4452 189.65C76.4452 190.662 77.2655 191.482 78.2773 191.482Z" fill="#6FA467"/>
<path d="M94.4733 191.629C95.5661 191.629 96.4521 190.743 96.4521 189.65C96.4521 188.557 95.5661 187.672 94.4733 187.672C93.3805 187.672 92.4945 188.557 92.4945 189.65C92.4945 190.743 93.3805 191.629 94.4733 191.629Z" fill="#6FA467"/>
<path d="M110.596 191.629C111.689 191.629 112.575 190.743 112.575 189.65C112.575 188.557 111.689 187.672 110.596 187.672C109.503 187.672 108.617 188.557 108.617 189.65C108.617 190.743 109.503 191.629 110.596 191.629Z" fill="#6FA467"/>
<path d="M126.791 191.629C127.884 191.629 128.77 190.743 128.77 189.65C128.77 188.557 127.884 187.672 126.791 187.672C125.699 187.672 124.813 188.557 124.813 189.65C124.813 190.743 125.699 191.629 126.791 191.629Z" fill="#6FA467"/>
<path d="M-2.55484 176.239C-1.05733 176.239 0.156425 175.025 0.156425 173.527C0.156425 172.03 -1.05733 170.816 -2.55484 170.816C-4.05236 170.816 -5.26647 172.03 -5.26647 173.527C-5.26647 175.025 -4.05236 176.239 -2.55484 176.239Z" fill="#6FA467"/>
<path d="M13.6409 176.239C15.1384 176.239 16.3522 175.025 16.3522 173.527C16.3522 172.03 15.1384 170.816 13.6409 170.816C12.1434 170.816 10.9293 172.03 10.9293 173.527C10.9293 175.025 12.1434 176.239 13.6409 176.239Z" fill="#6FA467"/>
<path d="M29.8358 175.873C31.1309 175.873 32.181 174.823 32.181 173.528C32.181 172.233 31.1309 171.183 29.8358 171.183C28.5406 171.183 27.4909 172.233 27.4909 173.528C27.4909 174.823 28.5406 175.873 29.8358 175.873Z" fill="#6FA467"/>
<path d="M45.96 176.166C47.4171 176.166 48.5983 174.985 48.5983 173.527C48.5983 172.07 47.4171 170.889 45.96 170.889C44.503 170.889 43.3221 172.07 43.3221 173.527C43.3221 174.985 44.503 176.166 45.96 176.166Z" fill="#6FA467"/>
<path d="M62.1538 176.019C63.5299 176.019 64.6454 174.903 64.6454 173.527C64.6454 172.151 63.5299 171.035 62.1538 171.035C60.7777 171.035 59.6622 172.151 59.6622 173.527C59.6622 174.903 60.7777 176.019 62.1538 176.019Z" fill="#6FA467"/>
<path d="M78.2773 175.36C79.2891 175.36 80.1094 174.539 80.1094 173.528C80.1094 172.516 79.2891 171.696 78.2773 171.696C77.2655 171.696 76.4452 172.516 76.4452 173.528C76.4452 174.539 77.2655 175.36 78.2773 175.36Z" fill="#6FA467"/>
<path d="M94.4741 175.873C95.7692 175.873 96.8193 174.823 96.8193 173.528C96.8193 172.233 95.7692 171.183 94.4741 171.183C93.1789 171.183 92.1288 172.233 92.1288 173.528C92.1288 174.823 93.1789 175.873 94.4741 175.873Z" fill="#6FA467"/>
<path d="M110.595 176.532C112.254 176.532 113.599 175.187 113.599 173.527C113.599 171.868 112.254 170.523 110.595 170.523C108.935 170.523 107.59 171.868 107.59 173.527C107.59 175.187 108.935 176.532 110.595 176.532Z" fill="#6FA467"/>
<path d="M126.792 175.653C127.966 175.653 128.917 174.701 128.917 173.527C128.917 172.354 127.966 171.402 126.792 171.402C125.618 171.402 124.667 172.354 124.667 173.527C124.667 174.701 125.618 175.653 126.792 175.653Z" fill="#6FA467"/>
<path d="M13.6413 159.677C14.9364 159.677 15.9861 158.627 15.9861 157.332C15.9861 156.037 14.9364 154.987 13.6413 154.987C12.3461 154.987 11.296 156.037 11.296 157.332C11.296 158.627 12.3461 159.677 13.6413 159.677Z" fill="#6FA467"/>
<path d="M29.8362 159.751C31.1718 159.751 32.2548 158.668 32.2548 157.332C32.2548 155.997 31.1718 154.914 29.8362 154.914C28.5006 154.914 27.418 155.997 27.418 157.332C27.418 158.668 28.5006 159.751 29.8362 159.751Z" fill="#6FA467"/>
<path d="M45.9593 159.751C47.2949 159.751 48.3779 158.668 48.3779 157.332C48.3779 155.997 47.2949 154.914 45.9593 154.914C44.6237 154.914 43.5411 155.997 43.5411 157.332C43.5411 158.668 44.6237 159.751 45.9593 159.751Z" fill="#6FA467"/>
<path d="M62.1544 159.53C63.3686 159.53 64.3529 158.546 64.3529 157.332C64.3529 156.118 63.3686 155.133 62.1544 155.133C60.9402 155.133 59.9559 156.118 59.9559 157.332C59.9559 158.546 60.9402 159.53 62.1544 159.53Z" fill="#6FA467"/>
<path d="M78.2766 160.337C79.936 160.337 81.2813 158.991 81.2813 157.332C81.2813 155.673 79.936 154.327 78.2766 154.327C76.6172 154.327 75.2719 155.673 75.2719 157.332C75.2719 158.991 76.6172 160.337 78.2766 160.337Z" fill="#6FA467"/>
<path d="M94.472 159.238C95.5243 159.238 96.3774 158.385 96.3774 157.333C96.3774 156.28 95.5243 155.427 94.472 155.427C93.4196 155.427 92.5665 156.28 92.5665 157.333C92.5665 158.385 93.4196 159.238 94.472 159.238Z" fill="#6FA467"/>
<path d="M110.594 159.53C111.809 159.53 112.793 158.546 112.793 157.332C112.793 156.118 111.809 155.133 110.594 155.133C109.38 155.133 108.396 156.118 108.396 157.332C108.396 158.546 109.38 159.53 110.594 159.53Z" fill="#6FA467"/>
<path d="M126.789 160.337C128.449 160.337 129.794 158.991 129.794 157.332C129.794 155.673 128.449 154.327 126.789 154.327C125.13 154.327 123.785 155.673 123.785 157.332C123.785 158.991 125.13 160.337 126.789 160.337Z" fill="#6FA467"/>
<path d="M13.6409 143.921C15.1384 143.921 16.3522 142.707 16.3522 141.209C16.3522 139.712 15.1384 138.498 13.6409 138.498C12.1434 138.498 10.9293 139.712 10.9293 141.209C10.9293 142.707 12.1434 143.921 13.6409 143.921Z" fill="#6FA467"/>
<path d="M29.8357 143.921C31.3332 143.921 32.5473 142.707 32.5473 141.209C32.5473 139.712 31.3332 138.498 29.8357 138.498C28.3382 138.498 27.1244 139.712 27.1244 141.209C27.1244 142.707 28.3382 143.921 29.8357 143.921Z" fill="#6FA467"/>
<path d="M45.9577 143.921C47.4552 143.921 48.6693 142.707 48.6693 141.209C48.6693 139.712 47.4552 138.498 45.9577 138.498C44.4602 138.498 43.2464 139.712 43.2464 141.209C43.2464 142.707 44.4602 143.921 45.9577 143.921Z" fill="#6FA467"/>
<path d="M62.1538 143.702C63.5299 143.702 64.6454 142.586 64.6454 141.21C64.6454 139.834 63.5299 138.718 62.1538 138.718C60.7777 138.718 59.6622 139.834 59.6622 141.21C59.6622 142.586 60.7777 143.702 62.1538 143.702Z" fill="#6FA467"/>
<path d="M78.2778 143.189C79.3706 143.189 80.2566 142.303 80.2566 141.21C80.2566 140.117 79.3706 139.231 78.2778 139.231C77.185 139.231 76.2993 140.117 76.2993 141.21C76.2993 142.303 77.185 143.189 78.2778 143.189Z" fill="#6FA467"/>
<path d="M94.4737 144.654C96.3759 144.654 97.9182 143.112 97.9182 141.21C97.9182 139.308 96.3759 137.766 94.4737 137.766C92.5715 137.766 91.0292 139.308 91.0292 141.21C91.0292 143.112 92.5715 144.654 94.4737 144.654Z" fill="#6FA467"/>
<path d="M110.595 144.215C112.254 144.215 113.599 142.869 113.599 141.21C113.599 139.551 112.254 138.205 110.595 138.205C108.935 138.205 107.59 139.551 107.59 141.21C107.59 142.869 108.935 144.215 110.595 144.215Z" fill="#6FA467"/>
<path d="M126.79 143.775C128.207 143.775 129.355 142.627 129.355 141.21C129.355 139.793 128.207 138.645 126.79 138.645C125.374 138.645 124.225 139.793 124.225 141.21C124.225 142.627 125.374 143.775 126.79 143.775Z" fill="#6FA467"/>
<path d="M13.641 127.946C15.2599 127.946 16.5723 126.633 16.5723 125.014C16.5723 123.395 15.2599 122.083 13.641 122.083C12.022 122.083 10.7096 123.395 10.7096 125.014C10.7096 126.633 12.022 127.946 13.641 127.946Z" fill="#6FA467"/>
<path d="M29.837 127.946C31.456 127.946 32.7684 126.633 32.7684 125.014C32.7684 123.395 31.456 122.083 29.837 122.083C28.2181 122.083 26.9057 123.395 26.9057 125.014C26.9057 126.633 28.2181 127.946 29.837 127.946Z" fill="#6FA467"/>
<path d="M45.9599 128.018C47.6193 128.018 48.9646 126.673 48.9646 125.014C48.9646 123.354 47.6193 122.009 45.9599 122.009C44.3005 122.009 42.9556 123.354 42.9556 125.014C42.9556 126.673 44.3005 128.018 45.9599 128.018Z" fill="#6FA467"/>
<path d="M62.1544 127.213C63.3686 127.213 64.3529 126.228 64.3529 125.014C64.3529 123.8 63.3686 122.816 62.1544 122.816C60.9402 122.816 59.9559 123.8 59.9559 125.014C59.9559 126.228 60.9402 127.213 62.1544 127.213Z" fill="#6FA467"/>
<path d="M78.2773 126.846C79.2891 126.846 80.1094 126.026 80.1094 125.014C80.1094 124.002 79.2891 123.182 78.2773 123.182C77.2655 123.182 76.4452 124.002 76.4452 125.014C76.4452 126.026 77.2655 126.846 78.2773 126.846Z" fill="#6FA467"/>
<path d="M94.4737 128.458C96.3759 128.458 97.9182 126.916 97.9182 125.014C97.9182 123.112 96.3759 121.57 94.4737 121.57C92.5715 121.57 91.0292 123.112 91.0292 125.014C91.0292 126.916 92.5715 128.458 94.4737 128.458Z" fill="#6FA467"/>
<path d="M110.594 127.213C111.809 127.213 112.793 126.228 112.793 125.014C112.793 123.8 111.809 122.816 110.594 122.816C109.38 122.816 108.396 123.8 108.396 125.014C108.396 126.228 109.38 127.213 110.594 127.213Z" fill="#6FA467"/>
<path d="M126.789 128.018C128.449 128.018 129.794 126.673 129.794 125.014C129.794 123.354 128.449 122.009 126.789 122.009C125.13 122.009 123.785 123.354 123.785 125.014C123.785 126.673 125.13 128.018 126.789 128.018Z" fill="#6FA467"/>
<path d="M13.641 111.75C15.2599 111.75 16.5723 110.437 16.5723 108.819C16.5723 107.2 15.2599 105.887 13.641 105.887C12.022 105.887 10.7096 107.2 10.7096 108.819C10.7096 110.437 12.022 111.75 13.641 111.75Z" fill="#6FA467"/>
<path d="M29.8359 112.336C31.7786 112.336 33.3537 110.762 33.3537 108.819C33.3537 106.876 31.7786 105.301 29.8359 105.301C27.8932 105.301 26.3185 106.876 26.3185 108.819C26.3185 110.762 27.8932 112.336 29.8359 112.336Z" fill="#6FA467"/>
<path d="M45.9599 111.823C47.6193 111.823 48.9646 110.478 48.9646 108.818C48.9646 107.159 47.6193 105.813 45.9599 105.813C44.3005 105.813 42.9556 107.159 42.9556 108.818C42.9556 110.478 44.3005 111.823 45.9599 111.823Z" fill="#6FA467"/>
<path d="M62.1547 112.336C64.0975 112.336 65.6726 110.762 65.6726 108.819C65.6726 106.876 64.0975 105.301 62.1547 105.301C60.212 105.301 58.6373 106.876 58.6373 108.819C58.6373 110.762 60.212 112.336 62.1547 112.336Z" fill="#6FA467"/>
<path d="M78.2759 112.336C80.2186 112.336 81.7937 110.762 81.7937 108.819C81.7937 106.876 80.2186 105.301 78.2759 105.301C76.3332 105.301 74.7585 106.876 74.7585 108.819C74.7585 110.762 76.3332 112.336 78.2759 112.336Z" fill="#6FA467"/>
<path d="M94.4723 112.556C96.5365 112.556 98.2099 110.883 98.2099 108.819C98.2099 106.754 96.5365 105.081 94.4723 105.081C92.4082 105.081 90.7348 106.754 90.7348 108.819C90.7348 110.883 92.4082 112.556 94.4723 112.556Z" fill="#6FA467"/>
<path d="M110.594 111.383C112.011 111.383 113.159 110.235 113.159 108.819C113.159 107.402 112.011 106.254 110.594 106.254C109.178 106.254 108.029 107.402 108.029 108.819C108.029 110.235 109.178 111.383 110.594 111.383Z" fill="#6FA467"/>
<path d="M126.791 112.043C128.572 112.043 130.016 110.599 130.016 108.819C130.016 107.038 128.572 105.594 126.791 105.594C125.01 105.594 123.567 107.038 123.567 108.819C123.567 110.599 125.01 112.043 126.791 112.043Z" fill="#6FA467"/>
<path d="M126.79 80.0177C128.733 80.0177 130.308 78.4428 130.308 76.5001C130.308 74.5573 128.733 72.9824 126.79 72.9824C124.847 72.9824 123.272 74.5573 123.272 76.5001C123.272 78.4428 124.847 80.0177 126.79 80.0177Z" fill="#6FA467"/>
<path d="M110.595 80.0177C112.538 80.0177 114.112 78.4428 114.112 76.5001C114.112 74.5573 112.538 72.9824 110.595 72.9824C108.652 72.9824 107.077 74.5573 107.077 76.5001C107.077 78.4428 108.652 80.0177 110.595 80.0177Z" fill="#6FA467"/>
<path d="M94.4723 80.238C96.5365 80.238 98.2099 78.5646 98.2099 76.5005C98.2099 74.4363 96.5365 72.7629 94.4723 72.7629C92.4082 72.7629 90.7348 74.4363 90.7348 76.5005C90.7348 78.5646 92.4082 80.238 94.4723 80.238Z" fill="#6FA467"/>
<path d="M78.2782 79.0654C79.6947 79.0654 80.8431 77.917 80.8431 76.5005C80.8431 75.0839 79.6947 73.9355 78.2782 73.9355C76.8616 73.9355 75.7132 75.0839 75.7132 76.5005C75.7132 77.917 76.8616 79.0654 78.2782 79.0654Z" fill="#6FA467"/>
<path d="M62.1545 79.7247C63.9353 79.7247 65.3789 78.2811 65.3789 76.5003C65.3789 74.7195 63.9353 73.2759 62.1545 73.2759C60.3737 73.2759 58.9301 74.7195 58.9301 76.5003C58.9301 78.2811 60.3737 79.7247 62.1545 79.7247Z" fill="#6FA467"/>
<path d="M45.9593 78.919C47.2949 78.919 48.3779 77.8363 48.3779 76.5007C48.3779 75.165 47.2949 74.0823 45.9593 74.0823C44.6237 74.0823 43.5411 75.165 43.5411 76.5007C43.5411 77.8363 44.6237 78.919 45.9593 78.919Z" fill="#6FA467"/>
<path d="M29.8371 79.0654C31.2537 79.0654 32.402 77.917 32.402 76.5005C32.402 75.0839 31.2537 73.9355 29.8371 73.9355C28.4205 73.9355 27.2722 75.0839 27.2722 76.5005C27.2722 77.917 28.4205 79.0654 29.8371 79.0654Z" fill="#6FA467"/>
<path d="M13.641 80.3843C15.7861 80.3843 17.5249 78.6453 17.5249 76.5003C17.5249 74.3552 15.7861 72.6162 13.641 72.6162C11.4959 72.6162 9.75676 74.3552 9.75676 76.5003C9.75676 78.6453 11.4959 80.3843 13.641 80.3843Z" fill="#6FA467"/>
<path d="M-2.5545 79.6523C-0.814152 79.6523 0.596538 78.2414 0.596538 76.5011C0.596538 74.7607 -0.814152 73.3499 -2.5545 73.3499C-4.29485 73.3499 -5.7059 74.7607 -5.7059 76.5011C-5.7059 78.2414 -4.29485 79.6523 -2.5545 79.6523Z" fill="#6FA467"/>
<path d="M126.79 96.2143C128.733 96.2143 130.308 94.6396 130.308 92.6968C130.308 90.7541 128.733 89.1792 126.79 89.1792C124.847 89.1792 123.272 90.7541 123.272 92.6968C123.272 94.6396 124.847 96.2143 126.79 96.2143Z" fill="#6FA467"/>
<path d="M110.595 96.2143C112.538 96.2143 114.112 94.6396 114.112 92.6968C114.112 90.7541 112.538 89.1792 110.595 89.1792C108.652 89.1792 107.077 90.7541 107.077 92.6968C107.077 94.6396 108.652 96.2143 110.595 96.2143Z" fill="#6FA467"/>
<path d="M94.4723 96.4336C96.5365 96.4336 98.2099 94.7604 98.2099 92.6963C98.2099 90.6321 96.5365 88.9587 94.4723 88.9587C92.4082 88.9587 90.7348 90.6321 90.7348 92.6963C90.7348 94.7604 92.4082 96.4336 94.4723 96.4336Z" fill="#6FA467"/>
<path d="M78.2782 95.2609C79.6947 95.2609 80.8431 94.1126 80.8431 92.696C80.8431 91.2795 79.6947 90.1311 78.2782 90.1311C76.8616 90.1311 75.7132 91.2795 75.7132 92.696C75.7132 94.1126 76.8616 95.2609 78.2782 95.2609Z" fill="#6FA467"/>
<path d="M62.1545 95.9204C63.9353 95.9204 65.3789 94.4768 65.3789 92.696C65.3789 90.9152 63.9353 89.4714 62.1545 89.4714C60.3737 89.4714 58.9301 90.9152 58.9301 92.696C58.9301 94.4768 60.3737 95.9204 62.1545 95.9204Z" fill="#6FA467"/>
<path d="M45.9593 95.1147C47.2949 95.1147 48.3779 94.0321 48.3779 92.6965C48.3779 91.3608 47.2949 90.2781 45.9593 90.2781C44.6237 90.2781 43.5411 91.3608 43.5411 92.6965C43.5411 94.0321 44.6237 95.1147 45.9593 95.1147Z" fill="#6FA467"/>
<path d="M29.8371 95.2609C31.2537 95.2609 32.402 94.1126 32.402 92.696C32.402 91.2795 31.2537 90.1311 29.8371 90.1311C28.4205 90.1311 27.2722 91.2795 27.2722 92.696C27.2722 94.1126 28.4205 95.2609 29.8371 95.2609Z" fill="#6FA467"/>
<path d="M13.641 96.5807C15.7861 96.5807 17.5249 94.8419 17.5249 92.6968C17.5249 90.5517 15.7861 88.8127 13.641 88.8127C11.4959 88.8127 9.75676 90.5517 9.75676 92.6968C9.75676 94.8419 11.4959 96.5807 13.641 96.5807Z" fill="#6FA467"/>
<path d="M-2.5545 95.8469C-0.814152 95.8469 0.596538 94.4362 0.596538 92.6959C0.596538 90.9555 -0.814152 89.5447 -2.5545 89.5447C-4.29485 89.5447 -5.7059 90.9555 -5.7059 92.6959C-5.7059 94.4362 -4.29485 95.8469 -2.5545 95.8469Z" fill="#6FA467"/>
</svg>
