<svg width="381" height="194" viewBox="0 0 381 194" fill="none" xmlns="http://www.w3.org/2000/svg">
<path d="M354.963 194C355.952 194 356.754 193.198 356.754 192.209C356.754 191.22 355.952 190.418 354.963 190.418C353.974 190.418 353.172 191.22 353.172 192.209C353.172 193.198 353.974 194 354.963 194Z" fill="#4C8BAA"/>
<path d="M298.543 193.872C299.461 193.872 300.206 193.127 300.206 192.209C300.206 191.29 299.461 190.546 298.543 190.546C297.624 190.546 296.88 191.29 296.88 192.209C296.88 193.127 297.624 193.872 298.543 193.872Z" fill="#4C8BAA"/>
<path d="M256.194 193.616C256.972 193.616 257.602 192.986 257.602 192.209C257.602 191.432 256.972 190.802 256.194 190.802C255.417 190.802 254.787 191.432 254.787 192.209C254.787 192.986 255.417 193.616 256.194 193.616Z" fill="#4C8BAA"/>
<path d="M242.057 193.808C242.94 193.808 243.656 193.092 243.656 192.209C243.656 191.326 242.94 190.61 242.057 190.61C241.174 190.61 240.458 191.326 240.458 192.209C240.458 193.092 241.174 193.808 242.057 193.808Z" fill="#4C8BAA"/>
<path d="M227.985 193.808C228.868 193.808 229.584 193.092 229.584 192.209C229.584 191.326 228.868 190.61 227.985 190.61C227.102 190.61 226.386 191.326 226.386 192.209C226.386 193.092 227.102 193.808 227.985 193.808Z" fill="#4C8BAA"/>
<path d="M213.848 193.616C214.625 193.616 215.255 192.986 215.255 192.209C215.255 191.432 214.625 190.802 213.848 190.802C213.071 190.802 212.441 191.432 212.441 192.209C212.441 192.986 213.071 193.616 213.848 193.616Z" fill="#4C8BAA"/>
<path d="M369.035 179.735C369.954 179.735 370.698 178.99 370.698 178.072C370.698 177.153 369.954 176.409 369.035 176.409C368.117 176.409 367.372 177.153 367.372 178.072C367.372 178.99 368.117 179.735 369.035 179.735Z" fill="#4C8BAA"/>
<path d="M354.963 179.543C355.776 179.543 356.434 178.884 356.434 178.072C356.434 177.259 355.776 176.601 354.963 176.601C354.15 176.601 353.492 177.259 353.492 178.072C353.492 178.884 354.15 179.543 354.963 179.543Z" fill="#4C8BAA"/>
<path d="M340.824 179.415C341.566 179.415 342.167 178.814 342.167 178.072C342.167 177.33 341.566 176.729 340.824 176.729C340.082 176.729 339.48 177.33 339.48 178.072C339.48 178.814 340.082 179.415 340.824 179.415Z" fill="#4C8BAA"/>
<path d="M312.615 180.183C313.781 180.183 314.726 179.238 314.726 178.072C314.726 176.906 313.781 175.961 312.615 175.961C311.45 175.961 310.505 176.906 310.505 178.072C310.505 179.238 311.45 180.183 312.615 180.183Z" fill="#4C8BAA"/>
<path d="M298.54 179.351C299.247 179.351 299.82 178.778 299.82 178.072C299.82 177.365 299.247 176.792 298.54 176.792C297.834 176.792 297.261 177.365 297.261 178.072C297.261 178.778 297.834 179.351 298.54 179.351Z" fill="#4C8BAA"/>
<path d="M284.405 180.055C285.5 180.055 286.388 179.167 286.388 178.072C286.388 176.977 285.5 176.089 284.405 176.089C283.31 176.089 282.422 176.977 282.422 178.072C282.422 179.167 283.31 180.055 284.405 180.055Z" fill="#4C8BAA"/>
<path d="M270.268 179.671C271.151 179.671 271.867 178.955 271.867 178.072C271.867 177.189 271.151 176.473 270.268 176.473C269.385 176.473 268.669 177.189 268.669 178.072C268.669 178.955 269.385 179.671 270.268 179.671Z" fill="#4C8BAA"/>
<path d="M256.194 179.223C256.829 179.223 257.345 178.708 257.345 178.072C257.345 177.436 256.829 176.92 256.194 176.92C255.558 176.92 255.042 177.436 255.042 178.072C255.042 178.708 255.558 179.223 256.194 179.223Z" fill="#4C8BAA"/>
<path d="M242.057 180.119C243.188 180.119 244.105 179.202 244.105 178.072C244.105 176.941 243.188 176.025 242.057 176.025C240.927 176.025 240.01 176.941 240.01 178.072C240.01 179.202 240.927 180.119 242.057 180.119Z" fill="#4C8BAA"/>
<path d="M227.985 179.671C228.868 179.671 229.584 178.955 229.584 178.072C229.584 177.189 228.868 176.473 227.985 176.473C227.102 176.473 226.386 177.189 226.386 178.072C226.386 178.955 227.102 179.671 227.985 179.671Z" fill="#4C8BAA"/>
<path d="M213.848 179.479C214.625 179.479 215.255 178.849 215.255 178.072C215.255 177.295 214.625 176.665 213.848 176.665C213.071 176.665 212.441 177.295 212.441 178.072C212.441 178.849 213.071 179.479 213.848 179.479Z" fill="#4C8BAA"/>
<path d="M369.035 165.534C369.883 165.534 370.571 164.846 370.571 163.999C370.571 163.151 369.883 162.463 369.035 162.463C368.187 162.463 367.5 163.151 367.5 163.999C367.5 164.846 368.187 165.534 369.035 165.534Z" fill="#4C8BAA"/>
<path d="M354.963 165.79C355.952 165.79 356.754 164.988 356.754 163.999C356.754 163.009 355.952 162.208 354.963 162.208C353.974 162.208 353.172 163.009 353.172 163.999C353.172 164.988 353.974 165.79 354.963 165.79Z" fill="#4C8BAA"/>
<path d="M340.826 165.79C341.815 165.79 342.617 164.988 342.617 163.999C342.617 163.009 341.815 162.208 340.826 162.208C339.836 162.208 339.034 163.009 339.034 163.999C339.034 164.988 339.836 165.79 340.826 165.79Z" fill="#4C8BAA"/>
<path d="M326.753 165.534C327.601 165.534 328.288 164.846 328.288 163.999C328.288 163.151 327.601 162.463 326.753 162.463C325.905 162.463 325.217 163.151 325.217 163.999C325.217 164.846 325.905 165.534 326.753 165.534Z" fill="#4C8BAA"/>
<path d="M312.615 165.534C313.463 165.534 314.15 164.846 314.15 163.999C314.15 163.151 313.463 162.463 312.615 162.463C311.767 162.463 311.08 163.151 311.08 163.999C311.08 164.846 311.767 165.534 312.615 165.534Z" fill="#4C8BAA"/>
<path d="M298.542 165.406C299.319 165.406 299.949 164.776 299.949 163.999C299.949 163.222 299.319 162.592 298.542 162.592C297.765 162.592 297.134 163.222 297.134 163.999C297.134 164.776 297.765 165.406 298.542 165.406Z" fill="#4C8BAA"/>
<path d="M284.405 165.982C285.5 165.982 286.388 165.094 286.388 163.998C286.388 162.903 285.5 162.015 284.405 162.015C283.31 162.015 282.422 162.903 282.422 163.998C282.422 165.094 283.31 165.982 284.405 165.982Z" fill="#4C8BAA"/>
<path d="M270.266 165.406C271.044 165.406 271.674 164.776 271.674 163.999C271.674 163.222 271.044 162.592 270.266 162.592C269.489 162.592 268.86 163.222 268.86 163.999C268.86 164.776 269.489 165.406 270.266 165.406Z" fill="#4C8BAA"/>
<path d="M256.194 165.406C256.972 165.406 257.602 164.776 257.602 163.999C257.602 163.222 256.972 162.592 256.194 162.592C255.417 162.592 254.787 163.222 254.787 163.999C254.787 164.776 255.417 165.406 256.194 165.406Z" fill="#4C8BAA"/>
<path d="M242.059 165.15C242.695 165.15 243.21 164.635 243.21 163.999C243.21 163.363 242.695 162.847 242.059 162.847C241.423 162.847 240.907 163.363 240.907 163.999C240.907 164.635 241.423 165.15 242.059 165.15Z" fill="#4C8BAA"/>
<path d="M227.985 165.726C228.938 165.726 229.712 164.952 229.712 163.999C229.712 163.045 228.938 162.271 227.985 162.271C227.031 162.271 226.257 163.045 226.257 163.999C226.257 164.952 227.031 165.726 227.985 165.726Z" fill="#4C8BAA"/>
<path d="M213.848 165.406C214.625 165.406 215.255 164.776 215.255 163.999C215.255 163.222 214.625 162.592 213.848 162.592C213.071 162.592 212.441 163.222 212.441 163.999C212.441 164.776 213.071 165.406 213.848 165.406Z" fill="#4C8BAA"/>
<path d="M369.035 151.397C369.883 151.397 370.571 150.709 370.571 149.862C370.571 149.014 369.883 148.326 369.035 148.326C368.187 148.326 367.5 149.014 367.5 149.862C367.5 150.709 368.187 151.397 369.035 151.397Z" fill="#4C8BAA"/>
<path d="M354.962 151.269C355.739 151.269 356.37 150.639 356.37 149.861C356.37 149.084 355.739 148.454 354.962 148.454C354.185 148.454 353.555 149.084 353.555 149.861C353.555 150.639 354.185 151.269 354.962 151.269Z" fill="#4C8BAA"/>
<path d="M340.826 151.397C341.673 151.397 342.36 150.709 342.36 149.862C342.36 149.014 341.673 148.326 340.826 148.326C339.978 148.326 339.29 149.014 339.29 149.862C339.29 150.709 339.978 151.397 340.826 151.397Z" fill="#4C8BAA"/>
<path d="M326.753 151.397C327.601 151.397 328.288 150.709 328.288 149.862C328.288 149.014 327.601 148.326 326.753 148.326C325.905 148.326 325.217 149.014 325.217 149.862C325.217 150.709 325.905 151.397 326.753 151.397Z" fill="#4C8BAA"/>
<path d="M312.616 151.269C313.393 151.269 314.023 150.639 314.023 149.861C314.023 149.084 313.393 148.454 312.616 148.454C311.838 148.454 311.208 149.084 311.208 149.861C311.208 150.639 311.838 151.269 312.616 151.269Z" fill="#4C8BAA"/>
<path d="M298.542 151.909C299.673 151.909 300.589 150.992 300.589 149.861C300.589 148.731 299.673 147.814 298.542 147.814C297.412 147.814 296.495 148.731 296.495 149.861C296.495 150.992 297.412 151.909 298.542 151.909Z" fill="#4C8BAA"/>
<path d="M284.404 151.077C285.076 151.077 285.62 150.533 285.62 149.862C285.62 149.19 285.076 148.646 284.404 148.646C283.733 148.646 283.189 149.19 283.189 149.862C283.189 150.533 283.733 151.077 284.404 151.077Z" fill="#4C8BAA"/>
<path d="M270.268 151.461C271.151 151.461 271.867 150.745 271.867 149.862C271.867 148.978 271.151 148.262 270.268 148.262C269.385 148.262 268.669 148.978 268.669 149.862C268.669 150.745 269.385 151.461 270.268 151.461Z" fill="#4C8BAA"/>
<path d="M256.195 151.461C257.078 151.461 257.794 150.745 257.794 149.862C257.794 148.978 257.078 148.262 256.195 148.262C255.312 148.262 254.596 148.978 254.596 149.862C254.596 150.745 255.312 151.461 256.195 151.461Z" fill="#4C8BAA"/>
<path d="M242.057 151.589C243.011 151.589 243.785 150.816 243.785 149.862C243.785 148.908 243.011 148.135 242.057 148.135C241.104 148.135 240.33 148.908 240.33 149.862C240.33 150.816 241.104 151.589 242.057 151.589Z" fill="#4C8BAA"/>
<path d="M227.985 151.589C228.938 151.589 229.712 150.816 229.712 149.862C229.712 148.908 228.938 148.135 227.985 148.135C227.031 148.135 226.257 148.908 226.257 149.862C226.257 150.816 227.031 151.589 227.985 151.589Z" fill="#4C8BAA"/>
<path d="M213.849 151.589C214.803 151.589 215.576 150.816 215.576 149.862C215.576 148.908 214.803 148.135 213.849 148.135C212.895 148.135 212.122 148.908 212.122 149.862C212.122 150.816 212.895 151.589 213.849 151.589Z" fill="#4C8BAA"/>
<path d="M369.035 138.155C370.342 138.155 371.402 137.095 371.402 135.788C371.402 134.481 370.342 133.421 369.035 133.421C367.728 133.421 366.668 134.481 366.668 135.788C366.668 137.095 367.728 138.155 369.035 138.155Z" fill="#4C8BAA"/>
<path d="M354.962 137.836C356.093 137.836 357.009 136.919 357.009 135.789C357.009 134.658 356.093 133.742 354.962 133.742C353.832 133.742 352.915 134.658 352.915 135.789C352.915 136.919 353.832 137.836 354.962 137.836Z" fill="#4C8BAA"/>
<path d="M340.826 138.475C342.31 138.475 343.512 137.272 343.512 135.788C343.512 134.305 342.31 133.102 340.826 133.102C339.342 133.102 338.139 134.305 338.139 135.788C338.139 137.272 339.342 138.475 340.826 138.475Z" fill="#4C8BAA"/>
<path d="M326.754 138.155C328.061 138.155 329.121 137.095 329.121 135.788C329.121 134.481 328.061 133.421 326.754 133.421C325.447 133.421 324.387 134.481 324.387 135.788C324.387 137.095 325.447 138.155 326.754 138.155Z" fill="#4C8BAA"/>
<path d="M312.615 138.155C313.922 138.155 314.982 137.095 314.982 135.788C314.982 134.481 313.922 133.421 312.615 133.421C311.308 133.421 310.248 134.481 310.248 135.788C310.248 137.095 311.308 138.155 312.615 138.155Z" fill="#4C8BAA"/>
<path d="M298.542 137.836C299.673 137.836 300.589 136.919 300.589 135.789C300.589 134.658 299.673 133.742 298.542 133.742C297.412 133.742 296.495 134.658 296.495 135.789C296.495 136.919 297.412 137.836 298.542 137.836Z" fill="#4C8BAA"/>
<path d="M284.405 138.091C285.677 138.091 286.708 137.06 286.708 135.788C286.708 134.517 285.677 133.486 284.405 133.486C283.133 133.486 282.102 134.517 282.102 135.788C282.102 137.06 283.133 138.091 284.405 138.091Z" fill="#4C8BAA"/>
<path d="M270.269 137.964C271.47 137.964 272.444 136.99 272.444 135.789C272.444 134.587 271.47 133.614 270.269 133.614C269.067 133.614 268.094 134.587 268.094 135.789C268.094 136.99 269.067 137.964 270.269 137.964Z" fill="#4C8BAA"/>
<path d="M256.195 137.388C257.078 137.388 257.794 136.672 257.794 135.788C257.794 134.905 257.078 134.189 256.195 134.189C255.312 134.189 254.596 134.905 254.596 135.788C254.596 136.672 255.312 137.388 256.195 137.388Z" fill="#4C8BAA"/>
<path d="M242.057 137.836C243.188 137.836 244.105 136.919 244.105 135.789C244.105 134.658 243.188 133.742 242.057 133.742C240.927 133.742 240.01 134.658 240.01 135.789C240.01 136.919 240.927 137.836 242.057 137.836Z" fill="#4C8BAA"/>
<path d="M227.984 138.411C229.432 138.411 230.606 137.237 230.606 135.788C230.606 134.34 229.432 133.166 227.984 133.166C226.535 133.166 225.361 134.34 225.361 135.788C225.361 137.237 226.535 138.411 227.984 138.411Z" fill="#4C8BAA"/>
<path d="M213.848 137.644C214.872 137.644 215.703 136.813 215.703 135.789C215.703 134.764 214.872 133.934 213.848 133.934C212.823 133.934 211.993 134.764 211.993 135.789C211.993 136.813 212.823 137.644 213.848 137.644Z" fill="#4C8BAA"/>
<path d="M369.036 124.21C370.449 124.21 371.594 123.065 371.594 121.652C371.594 120.238 370.449 119.093 369.036 119.093C367.622 119.093 366.477 120.238 366.477 121.652C366.477 123.065 367.622 124.21 369.036 124.21Z" fill="#4C8BAA"/>
<path d="M354.962 123.379C355.916 123.379 356.689 122.605 356.689 121.651C356.689 120.698 355.916 119.924 354.962 119.924C354.008 119.924 353.235 120.698 353.235 121.651C353.235 122.605 354.008 123.379 354.962 123.379Z" fill="#4C8BAA"/>
<path d="M340.825 124.21C342.239 124.21 343.384 123.065 343.384 121.652C343.384 120.238 342.239 119.093 340.825 119.093C339.412 119.093 338.267 120.238 338.267 121.652C338.267 123.065 339.412 124.21 340.825 124.21Z" fill="#4C8BAA"/>
<path d="M326.752 123.763C327.918 123.763 328.863 122.817 328.863 121.652C328.863 120.486 327.918 119.541 326.752 119.541C325.587 119.541 324.641 120.486 324.641 121.652C324.641 122.817 325.587 123.763 326.752 123.763Z" fill="#4C8BAA"/>
<path d="M312.615 123.698C313.746 123.698 314.662 122.782 314.662 121.651C314.662 120.521 313.746 119.604 312.615 119.604C311.485 119.604 310.568 120.521 310.568 121.651C310.568 122.782 311.485 123.698 312.615 123.698Z" fill="#4C8BAA"/>
<path d="M298.542 123.763C299.708 123.763 300.653 122.817 300.653 121.652C300.653 120.486 299.708 119.541 298.542 119.541C297.377 119.541 296.432 120.486 296.432 121.652C296.432 122.817 297.377 123.763 298.542 123.763Z" fill="#4C8BAA"/>
<path d="M284.405 123.763C285.571 123.763 286.516 122.817 286.516 121.652C286.516 120.486 285.571 119.541 284.405 119.541C283.239 119.541 282.294 120.486 282.294 121.652C282.294 122.817 283.239 123.763 284.405 123.763Z" fill="#4C8BAA"/>
<path d="M270.268 123.571C271.328 123.571 272.187 122.711 272.187 121.651C272.187 120.592 271.328 119.732 270.268 119.732C269.208 119.732 268.349 120.592 268.349 121.651C268.349 122.711 269.208 123.571 270.268 123.571Z" fill="#4C8BAA"/>
<path d="M256.195 124.274C257.643 124.274 258.818 123.1 258.818 121.652C258.818 120.203 257.643 119.029 256.195 119.029C254.746 119.029 253.572 120.203 253.572 121.652C253.572 123.1 254.746 124.274 256.195 124.274Z" fill="#4C8BAA"/>
<path d="M242.058 123.315C242.976 123.315 243.721 122.57 243.721 121.652C243.721 120.733 242.976 119.988 242.058 119.988C241.139 119.988 240.395 120.733 240.395 121.652C240.395 122.57 241.139 123.315 242.058 123.315Z" fill="#4C8BAA"/>
<path d="M227.984 123.571C229.044 123.571 229.904 122.711 229.904 121.651C229.904 120.592 229.044 119.732 227.984 119.732C226.925 119.732 226.065 120.592 226.065 121.651C226.065 122.711 226.925 123.571 227.984 123.571Z" fill="#4C8BAA"/>
<path d="M213.847 124.274C215.295 124.274 216.469 123.1 216.469 121.652C216.469 120.203 215.295 119.029 213.847 119.029C212.398 119.029 211.224 120.203 211.224 121.652C211.224 123.1 212.398 124.274 213.847 124.274Z" fill="#4C8BAA"/>
<path d="M383.172 109.753C384.374 109.753 385.348 108.78 385.348 107.578C385.348 106.377 384.374 105.403 383.172 105.403C381.971 105.403 380.998 106.377 380.998 107.578C380.998 108.78 381.971 109.753 383.172 109.753Z" fill="#4C8BAA"/>
<path d="M369.036 109.753C370.237 109.753 371.211 108.78 371.211 107.578C371.211 106.377 370.237 105.403 369.036 105.403C367.835 105.403 366.861 106.377 366.861 107.578C366.861 108.78 367.835 109.753 369.036 109.753Z" fill="#4C8BAA"/>
<path d="M354.964 109.753C356.165 109.753 357.139 108.78 357.139 107.578C357.139 106.377 356.165 105.403 354.964 105.403C353.762 105.403 352.788 106.377 352.788 107.578C352.788 108.78 353.762 109.753 354.964 109.753Z" fill="#4C8BAA"/>
<path d="M340.825 110.137C342.239 110.137 343.384 108.992 343.384 107.579C343.384 106.165 342.239 105.02 340.825 105.02C339.412 105.02 338.267 106.165 338.267 107.579C338.267 108.992 339.412 110.137 340.825 110.137Z" fill="#4C8BAA"/>
<path d="M326.753 109.113C327.601 109.113 328.288 108.426 328.288 107.578C328.288 106.73 327.601 106.043 326.753 106.043C325.905 106.043 325.217 106.73 325.217 107.578C325.217 108.426 325.905 109.113 326.753 109.113Z" fill="#4C8BAA"/>
<path d="M312.615 109.945C313.922 109.945 314.982 108.885 314.982 107.578C314.982 106.271 313.922 105.211 312.615 105.211C311.308 105.211 310.248 106.271 310.248 107.578C310.248 108.885 311.308 109.945 312.615 109.945Z" fill="#4C8BAA"/>
<path d="M298.542 109.945C299.849 109.945 300.909 108.885 300.909 107.578C300.909 106.271 299.849 105.211 298.542 105.211C297.235 105.211 296.175 106.271 296.175 107.578C296.175 108.885 297.235 109.945 298.542 109.945Z" fill="#4C8BAA"/>
<path d="M284.405 109.945C285.712 109.945 286.772 108.885 286.772 107.578C286.772 106.271 285.712 105.211 284.405 105.211C283.098 105.211 282.038 106.271 282.038 107.578C282.038 108.885 283.098 109.945 284.405 109.945Z" fill="#4C8BAA"/>
<path d="M270.269 109.753C271.47 109.753 272.444 108.78 272.444 107.578C272.444 106.377 271.47 105.403 270.269 105.403C269.067 105.403 268.094 106.377 268.094 107.578C268.094 108.78 269.067 109.753 270.269 109.753Z" fill="#4C8BAA"/>
<path d="M256.194 109.306C257.148 109.306 257.921 108.533 257.921 107.579C257.921 106.625 257.148 105.852 256.194 105.852C255.24 105.852 254.468 106.625 254.468 107.579C254.468 108.533 255.24 109.306 256.194 109.306Z" fill="#4C8BAA"/>
<path d="M242.057 110.585C243.718 110.585 245.064 109.239 245.064 107.578C245.064 105.918 243.718 104.572 242.057 104.572C240.397 104.572 239.05 105.918 239.05 107.578C239.05 109.239 240.397 110.585 242.057 110.585Z" fill="#4C8BAA"/>
<path d="M227.984 110.201C229.432 110.201 230.606 109.027 230.606 107.578C230.606 106.13 229.432 104.956 227.984 104.956C226.535 104.956 225.361 106.13 225.361 107.578C225.361 109.027 226.535 110.201 227.984 110.201Z" fill="#4C8BAA"/>
<path d="M213.848 109.817C215.084 109.817 216.087 108.815 216.087 107.578C216.087 106.342 215.084 105.339 213.848 105.339C212.611 105.339 211.609 106.342 211.609 107.578C211.609 108.815 212.611 109.817 213.848 109.817Z" fill="#4C8BAA"/>
<path d="M369.035 95.1047C369.954 95.1047 370.698 94.36 370.698 93.4414C370.698 92.5229 369.954 91.7783 369.035 91.7783C368.117 91.7783 367.372 92.5229 367.372 93.4414C367.372 94.36 368.117 95.1047 369.035 95.1047Z" fill="#4C8BAA"/>
<path d="M354.962 95.1047C355.881 95.1047 356.625 94.36 356.625 93.4414C356.625 92.5229 355.881 91.7783 354.962 91.7783C354.044 91.7783 353.299 92.5229 353.299 93.4414C353.299 94.36 354.044 95.1047 354.962 95.1047Z" fill="#4C8BAA"/>
<path d="M340.826 95.3601C341.885 95.3601 342.745 94.5009 342.745 93.441C342.745 92.3812 341.885 91.522 340.826 91.522C339.766 91.522 338.906 92.3812 338.906 93.441C338.906 94.5009 339.766 95.3601 340.826 95.3601Z" fill="#4C8BAA"/>
<path d="M326.752 95.5523C327.918 95.5523 328.863 94.6072 328.863 93.4413C328.863 92.2755 327.918 91.3303 326.752 91.3303C325.587 91.3303 324.641 92.2755 324.641 93.4413C324.641 94.6072 325.587 95.5523 326.752 95.5523Z" fill="#4C8BAA"/>
<path d="M312.614 95.9998C314.028 95.9998 315.173 94.8542 315.173 93.4411C315.173 92.0279 314.028 90.8823 312.614 90.8823C311.201 90.8823 310.056 92.0279 310.056 93.4411C310.056 94.8542 311.201 95.9998 312.614 95.9998Z" fill="#4C8BAA"/>
<path d="M298.541 95.9998C299.954 95.9998 301.099 94.8542 301.099 93.4411C301.099 92.0279 299.954 90.8823 298.541 90.8823C297.128 90.8823 295.982 92.0279 295.982 93.4411C295.982 94.8542 297.128 95.9998 298.541 95.9998Z" fill="#4C8BAA"/>
<path d="M284.406 96.064C285.854 96.064 287.028 94.8897 287.028 93.4412C287.028 91.9927 285.854 90.8186 284.406 90.8186C282.957 90.8186 281.783 91.9927 281.783 93.4412C281.783 94.8897 282.957 96.064 284.406 96.064Z" fill="#4C8BAA"/>
<path d="M270.268 95.3601C271.328 95.3601 272.187 94.5009 272.187 93.441C272.187 92.3812 271.328 91.522 270.268 91.522C269.208 91.522 268.349 92.3812 268.349 93.441C268.349 94.5009 269.208 95.3601 270.268 95.3601Z" fill="#4C8BAA"/>
<path d="M256.195 95.0405C257.078 95.0405 257.794 94.3245 257.794 93.4413C257.794 92.558 257.078 91.842 256.195 91.842C255.312 91.842 254.596 92.558 254.596 93.4413C254.596 94.3245 255.312 95.0405 256.195 95.0405Z" fill="#4C8BAA"/>
<path d="M242.057 96.4476C243.718 96.4476 245.064 95.1015 245.064 93.4411C245.064 91.7806 243.718 90.4346 242.057 90.4346C240.397 90.4346 239.05 91.7806 239.05 93.4411C239.05 95.1015 240.397 96.4476 242.057 96.4476Z" fill="#4C8BAA"/>
<path d="M227.984 95.3601C229.044 95.3601 229.904 94.5009 229.904 93.441C229.904 92.3812 229.044 91.522 227.984 91.522C226.925 91.522 226.065 92.3812 226.065 93.441C226.065 94.5009 226.925 95.3601 227.984 95.3601Z" fill="#4C8BAA"/>
<path d="M213.847 96.064C215.295 96.064 216.469 94.8897 216.469 93.4412C216.469 91.9927 215.295 90.8186 213.847 90.8186C212.398 90.8186 211.224 91.9927 211.224 93.4412C211.224 94.8897 212.398 96.064 213.847 96.064Z" fill="#4C8BAA"/>
<path d="M383.172 81.4793C384.374 81.4793 385.348 80.5056 385.348 79.3044C385.348 78.1032 384.374 77.1294 383.172 77.1294C381.971 77.1294 380.998 78.1032 380.998 79.3044C380.998 80.5056 381.971 81.4793 383.172 81.4793Z" fill="#4C8BAA"/>
<path d="M369.036 81.4793C370.237 81.4793 371.211 80.5056 371.211 79.3044C371.211 78.1032 370.237 77.1294 369.036 77.1294C367.835 77.1294 366.861 78.1032 366.861 79.3044C366.861 80.5056 367.835 81.4793 369.036 81.4793Z" fill="#4C8BAA"/>
<path d="M354.962 81.9909C356.446 81.9909 357.649 80.7881 357.649 79.3042C357.649 77.8204 356.446 76.6174 354.962 76.6174C353.478 76.6174 352.275 77.8204 352.275 79.3042C352.275 80.7881 353.478 81.9909 354.962 81.9909Z" fill="#4C8BAA"/>
<path d="M340.825 81.8631C342.239 81.8631 343.384 80.7175 343.384 79.3044C343.384 77.8912 342.239 76.7456 340.825 76.7456C339.412 76.7456 338.267 77.8912 338.267 79.3044C338.267 80.7175 339.412 81.8631 340.825 81.8631Z" fill="#4C8BAA"/>
<path d="M326.753 80.8396C327.601 80.8396 328.288 80.1523 328.288 79.3044C328.288 78.4565 327.601 77.769 326.753 77.769C325.905 77.769 325.217 78.4565 325.217 79.3044C325.217 80.1523 325.905 80.8396 326.753 80.8396Z" fill="#4C8BAA"/>
<path d="M312.614 81.8631C314.028 81.8631 315.173 80.7175 315.173 79.3044C315.173 77.8912 314.028 76.7456 312.614 76.7456C311.201 76.7456 310.056 77.8912 310.056 79.3044C310.056 80.7175 311.201 81.8631 312.614 81.8631Z" fill="#4C8BAA"/>
<path d="M298.542 82.3748C300.238 82.3748 301.613 81.0002 301.613 79.3044C301.613 77.6086 300.238 76.2339 298.542 76.2339C296.846 76.2339 295.472 77.6086 295.472 79.3044C295.472 81.0002 296.846 82.3748 298.542 82.3748Z" fill="#4C8BAA"/>
<path d="M284.406 81.9268C285.854 81.9268 287.028 80.7527 287.028 79.3042C287.028 77.8557 285.854 76.6814 284.406 76.6814C282.957 76.6814 281.783 77.8557 281.783 79.3042C281.783 80.7527 282.957 81.9268 284.406 81.9268Z" fill="#4C8BAA"/>
<path d="M270.267 82.3748C271.963 82.3748 273.338 81.0002 273.338 79.3044C273.338 77.6086 271.963 76.2339 270.267 76.2339C268.572 76.2339 267.197 77.6086 267.197 79.3044C267.197 81.0002 268.572 82.3748 270.267 82.3748Z" fill="#4C8BAA"/>
<path d="M256.194 82.3748C257.89 82.3748 259.265 81.0002 259.265 79.3044C259.265 77.6086 257.89 76.2339 256.194 76.2339C254.498 76.2339 253.123 77.6086 253.123 79.3044C253.123 81.0002 254.498 82.3748 256.194 82.3748Z" fill="#4C8BAA"/>
<path d="M242.058 82.5665C243.86 82.5665 245.32 81.106 245.32 79.3042C245.32 77.5024 243.86 76.0417 242.058 76.0417C240.256 76.0417 238.796 77.5024 238.796 79.3042C238.796 81.106 240.256 82.5665 242.058 82.5665Z" fill="#4C8BAA"/>
<path d="M227.985 81.5432C229.221 81.5432 230.224 80.5408 230.224 79.3043C230.224 78.0678 229.221 77.0654 227.985 77.0654C226.748 77.0654 225.746 78.0678 225.746 79.3043C225.746 80.5408 226.748 81.5432 227.985 81.5432Z" fill="#4C8BAA"/>
<path d="M213.848 82.1188C215.403 82.1188 216.663 80.8587 216.663 79.3042C216.663 77.7497 215.403 76.4895 213.848 76.4895C212.294 76.4895 211.034 77.7497 211.034 79.3042C211.034 80.8587 212.294 82.1188 213.848 82.1188Z" fill="#4C8BAA"/>
<path d="M213.848 54.1645C215.543 54.1645 216.918 52.7898 216.918 51.094C216.918 49.3982 215.543 48.0234 213.848 48.0234C212.152 48.0234 210.777 49.3982 210.777 51.094C210.777 52.7898 212.152 54.1645 213.848 54.1645Z" fill="#4C8BAA"/>
<path d="M227.985 54.1645C229.681 54.1645 231.055 52.7898 231.055 51.094C231.055 49.3982 229.681 48.0234 227.985 48.0234C226.289 48.0234 224.915 49.3982 224.915 51.094C224.915 52.7898 226.289 54.1645 227.985 54.1645Z" fill="#4C8BAA"/>
<path d="M242.058 54.3565C243.86 54.3565 245.32 52.8958 245.32 51.094C245.32 49.2922 243.86 47.8315 242.058 47.8315C240.256 47.8315 238.796 49.2922 238.796 51.094C238.796 52.8958 240.256 54.3565 242.058 54.3565Z" fill="#4C8BAA"/>
<path d="M256.195 53.3328C257.431 53.3328 258.434 52.3304 258.434 51.0939C258.434 49.8574 257.431 48.855 256.195 48.855C254.958 48.855 253.956 49.8574 253.956 51.0939C253.956 52.3304 254.958 53.3328 256.195 53.3328Z" fill="#4C8BAA"/>
<path d="M270.268 53.9084C271.823 53.9084 273.083 52.6483 273.083 51.0939C273.083 49.5394 271.823 48.2793 270.268 48.2793C268.714 48.2793 267.454 49.5394 267.454 51.0939C267.454 52.6483 268.714 53.9084 270.268 53.9084Z" fill="#4C8BAA"/>
<path d="M284.405 53.2049C285.571 53.2049 286.516 52.2598 286.516 51.0939C286.516 49.9281 285.571 48.9829 284.405 48.9829C283.239 48.9829 282.294 49.9281 282.294 51.0939C282.294 52.2598 283.239 53.2049 284.405 53.2049Z" fill="#4C8BAA"/>
<path d="M298.541 53.3328C299.777 53.3328 300.78 52.3304 300.78 51.0939C300.78 49.8574 299.777 48.855 298.541 48.855C297.304 48.855 296.302 49.8574 296.302 51.0939C296.302 52.3304 297.304 53.3328 298.541 53.3328Z" fill="#4C8BAA"/>
<path d="M312.615 54.4844C314.487 54.4844 316.005 52.9664 316.005 51.094C316.005 49.2216 314.487 47.7036 312.615 47.7036C310.742 47.7036 309.225 49.2216 309.225 51.094C309.225 52.9664 310.742 54.4844 312.615 54.4844Z" fill="#4C8BAA"/>
<path d="M326.752 53.8449C328.271 53.8449 329.503 52.6133 329.503 51.0942C329.503 49.575 328.271 48.3435 326.752 48.3435C325.233 48.3435 324.001 49.575 324.001 51.0942C324.001 52.6133 325.233 53.8449 326.752 53.8449Z" fill="#4C8BAA"/>
<path d="M340.825 54.2924C342.592 54.2924 344.024 52.8604 344.024 51.0939C344.024 49.3275 342.592 47.8955 340.825 47.8955C339.059 47.8955 337.627 49.3275 337.627 51.0939C337.627 52.8604 339.059 54.2924 340.825 54.2924Z" fill="#4C8BAA"/>
<path d="M354.962 54.0366C356.587 54.0366 357.904 52.7191 357.904 51.094C357.904 49.4689 356.587 48.1514 354.962 48.1514C353.337 48.1514 352.02 49.4689 352.02 51.094C352.02 52.7191 353.337 54.0366 354.962 54.0366Z" fill="#4C8BAA"/>
<path d="M369.036 53.8449C370.556 53.8449 371.787 52.6133 371.787 51.0942C371.787 49.575 370.556 48.3435 369.036 48.3435C367.517 48.3435 366.286 49.575 366.286 51.0942C366.286 52.6133 367.517 53.8449 369.036 53.8449Z" fill="#4C8BAA"/>
<path d="M383.173 54.0366C384.798 54.0366 386.116 52.7191 386.116 51.094C386.116 49.4689 384.798 48.1514 383.173 48.1514C381.548 48.1514 380.231 49.4689 380.231 51.094C380.231 52.7191 381.548 54.0366 383.173 54.0366Z" fill="#4C8BAA"/>
<path d="M242.058 40.6671C244.071 40.6671 245.704 39.0347 245.704 37.0209C245.704 35.0072 244.071 33.3748 242.058 33.3748C240.044 33.3748 238.411 35.0072 238.411 37.0209C238.411 39.0347 240.044 40.6671 242.058 40.6671Z" fill="#4C8BAA"/>
<path d="M256.194 40.4111C258.066 40.4111 259.585 38.8932 259.585 37.0207C259.585 35.1483 258.066 33.6304 256.194 33.6304C254.321 33.6304 252.803 35.1483 252.803 37.0207C252.803 38.8932 254.321 40.4111 256.194 40.4111Z" fill="#4C8BAA"/>
<path d="M270.267 40.4111C272.14 40.4111 273.658 38.8932 273.658 37.0207C273.658 35.1483 272.14 33.6304 270.267 33.6304C268.395 33.6304 266.877 35.1483 266.877 37.0207C266.877 38.8932 268.395 40.4111 270.267 40.4111Z" fill="#4C8BAA"/>
<path d="M284.405 40.2194C286.172 40.2194 287.604 38.7874 287.604 37.0209C287.604 35.2545 286.172 33.8225 284.405 33.8225C282.639 33.8225 281.207 35.2545 281.207 37.0209C281.207 38.7874 282.639 40.2194 284.405 40.2194Z" fill="#4C8BAA"/>
<path d="M298.542 40.6671C300.556 40.6671 302.188 39.0347 302.188 37.0209C302.188 35.0072 300.556 33.3748 298.542 33.3748C296.528 33.3748 294.896 35.0072 294.896 37.0209C294.896 39.0347 296.528 40.6671 298.542 40.6671Z" fill="#4C8BAA"/>
<path d="M312.615 40.4111C314.487 40.4111 316.005 38.8932 316.005 37.0207C316.005 35.1483 314.487 33.6304 312.615 33.6304C310.742 33.6304 309.225 35.1483 309.225 37.0207C309.225 38.8932 310.742 40.4111 312.615 40.4111Z" fill="#4C8BAA"/>
<path d="M326.752 39.9634C328.377 39.9634 329.695 38.6459 329.695 37.0207C329.695 35.3956 328.377 34.0781 326.752 34.0781C325.127 34.0781 323.809 35.3956 323.809 37.0207C323.809 38.6459 325.127 39.9634 326.752 39.9634Z" fill="#4C8BAA"/>
<path d="M340.825 40.2194C342.592 40.2194 344.024 38.7874 344.024 37.0209C344.024 35.2545 342.592 33.8225 340.825 33.8225C339.059 33.8225 337.627 35.2545 337.627 37.0209C337.627 38.7874 339.059 40.2194 340.825 40.2194Z" fill="#4C8BAA"/>
<path d="M354.962 40.4111C356.835 40.4111 358.353 38.8932 358.353 37.0207C358.353 35.1483 356.835 33.6304 354.962 33.6304C353.09 33.6304 351.572 35.1483 351.572 37.0207C351.572 38.8932 353.09 40.4111 354.962 40.4111Z" fill="#4C8BAA"/>
<path d="M369.037 40.4111C370.909 40.4111 372.427 38.8932 372.427 37.0207C372.427 35.1483 370.909 33.6304 369.037 33.6304C367.165 33.6304 365.647 35.1483 365.647 37.0207C365.647 38.8932 367.165 40.4111 369.037 40.4111Z" fill="#4C8BAA"/>
<path d="M383.173 39.9634C384.798 39.9634 386.116 38.6459 386.116 37.0207C386.116 35.3956 384.798 34.0781 383.173 34.0781C381.548 34.0781 380.231 35.3956 380.231 37.0207C380.231 38.6459 381.548 39.9634 383.173 39.9634Z" fill="#4C8BAA"/>
<path d="M213.848 68.3015C215.543 68.3015 216.918 66.927 216.918 65.2312C216.918 63.5354 215.543 62.1606 213.848 62.1606C212.152 62.1606 210.777 63.5354 210.777 65.2312C210.777 66.927 212.152 68.3015 213.848 68.3015Z" fill="#4C8BAA"/>
<path d="M227.985 68.3015C229.681 68.3015 231.055 66.927 231.055 65.2312C231.055 63.5354 229.681 62.1606 227.985 62.1606C226.289 62.1606 224.915 63.5354 224.915 65.2312C224.915 66.927 226.289 68.3015 227.985 68.3015Z" fill="#4C8BAA"/>
<path d="M242.058 68.4935C243.86 68.4935 245.32 67.033 245.32 65.2312C245.32 63.4294 243.86 61.9688 242.058 61.9688C240.256 61.9688 238.796 63.4294 238.796 65.2312C238.796 67.033 240.256 68.4935 242.058 68.4935Z" fill="#4C8BAA"/>
<path d="M256.195 67.47C257.431 67.47 258.434 66.4676 258.434 65.2311C258.434 63.9946 257.431 62.9922 256.195 62.9922C254.958 62.9922 253.956 63.9946 253.956 65.2311C253.956 66.4676 254.958 67.47 256.195 67.47Z" fill="#4C8BAA"/>
<path d="M270.268 68.0455C271.823 68.0455 273.083 66.7854 273.083 65.231C273.083 63.6765 271.823 62.4163 270.268 62.4163C268.714 62.4163 267.454 63.6765 267.454 65.231C267.454 66.7854 268.714 68.0455 270.268 68.0455Z" fill="#4C8BAA"/>
<path d="M284.405 67.342C285.571 67.342 286.516 66.397 286.516 65.2311C286.516 64.0653 285.571 63.1201 284.405 63.1201C283.239 63.1201 282.294 64.0653 282.294 65.2311C282.294 66.397 283.239 67.342 284.405 67.342Z" fill="#4C8BAA"/>
<path d="M298.541 67.47C299.777 67.47 300.78 66.4676 300.78 65.2311C300.78 63.9946 299.777 62.9922 298.541 62.9922C297.304 62.9922 296.302 63.9946 296.302 65.2311C296.302 66.4676 297.304 67.47 298.541 67.47Z" fill="#4C8BAA"/>
<path d="M312.615 68.6214C314.487 68.6214 316.005 67.1036 316.005 65.2312C316.005 63.3588 314.487 61.8408 312.615 61.8408C310.742 61.8408 309.225 63.3588 309.225 65.2312C309.225 67.1036 310.742 68.6214 312.615 68.6214Z" fill="#4C8BAA"/>
<path d="M326.752 67.9817C328.271 67.9817 329.503 66.7503 329.503 65.2312C329.503 63.712 328.271 62.4805 326.752 62.4805C325.233 62.4805 324.001 63.712 324.001 65.2312C324.001 66.7503 325.233 67.9817 326.752 67.9817Z" fill="#4C8BAA"/>
<path d="M340.825 68.4296C342.592 68.4296 344.024 66.9976 344.024 65.2311C344.024 63.4647 342.592 62.0327 340.825 62.0327C339.059 62.0327 337.627 63.4647 337.627 65.2311C337.627 66.9976 339.059 68.4296 340.825 68.4296Z" fill="#4C8BAA"/>
<path d="M354.962 68.1737C356.587 68.1737 357.904 66.8563 357.904 65.2312C357.904 63.6061 356.587 62.2886 354.962 62.2886C353.337 62.2886 352.02 63.6061 352.02 65.2312C352.02 66.8563 353.337 68.1737 354.962 68.1737Z" fill="#4C8BAA"/>
<path d="M369.036 67.9817C370.556 67.9817 371.787 66.7503 371.787 65.2312C371.787 63.712 370.556 62.4805 369.036 62.4805C367.517 62.4805 366.286 63.712 366.286 65.2312C366.286 66.7503 367.517 67.9817 369.036 67.9817Z" fill="#4C8BAA"/>
<path d="M383.173 68.1737C384.798 68.1737 386.116 66.8563 386.116 65.2312C386.116 63.6061 384.798 62.2886 383.173 62.2886C381.548 62.2886 380.231 63.6061 380.231 65.2312C380.231 66.8563 381.548 68.1737 383.173 68.1737Z" fill="#4C8BAA"/>
<path d="M242.058 26.1461C243.86 26.1461 245.32 24.6854 245.32 22.8836C245.32 21.0819 243.86 19.6213 242.058 19.6213C240.256 19.6213 238.796 21.0819 238.796 22.8836C238.796 24.6854 240.256 26.1461 242.058 26.1461Z" fill="#4C8BAA"/>
<path d="M256.194 26.5939C258.243 26.5939 259.904 24.9327 259.904 22.8836C259.904 20.8346 258.243 19.1736 256.194 19.1736C254.145 19.1736 252.484 20.8346 252.484 22.8836C252.484 24.9327 254.145 26.5939 256.194 26.5939Z" fill="#4C8BAA"/>
<path d="M270.267 26.2742C272.14 26.2742 273.658 24.7563 273.658 22.8839C273.658 21.0114 272.14 19.4937 270.267 19.4937C268.395 19.4937 266.877 21.0114 266.877 22.8839C266.877 24.7563 268.395 26.2742 270.267 26.2742Z" fill="#4C8BAA"/>
<path d="M284.405 26.2742C286.278 26.2742 287.796 24.7563 287.796 22.8839C287.796 21.0114 286.278 19.4937 284.405 19.4937C282.533 19.4937 281.015 21.0114 281.015 22.8839C281.015 24.7563 282.533 26.2742 284.405 26.2742Z" fill="#4C8BAA"/>
<path d="M298.542 25.8265C300.167 25.8265 301.485 24.509 301.485 22.8839C301.485 21.2587 300.167 19.9414 298.542 19.9414C296.917 19.9414 295.6 21.2587 295.6 22.8839C295.6 24.509 296.917 25.8265 298.542 25.8265Z" fill="#4C8BAA"/>
<path d="M312.615 26.2742C314.487 26.2742 316.005 24.7563 316.005 22.8839C316.005 21.0114 314.487 19.4937 312.615 19.4937C310.742 19.4937 309.225 21.0114 309.225 22.8839C309.225 24.7563 310.742 26.2742 312.615 26.2742Z" fill="#4C8BAA"/>
<path d="M326.752 26.3383C328.66 26.3383 330.206 24.7917 330.206 22.8839C330.206 20.9762 328.66 19.4297 326.752 19.4297C324.844 19.4297 323.298 20.9762 323.298 22.8839C323.298 24.7917 324.844 26.3383 326.752 26.3383Z" fill="#4C8BAA"/>
<path d="M340.825 26.0824C342.592 26.0824 344.024 24.6504 344.024 22.884C344.024 21.1175 342.592 19.6855 340.825 19.6855C339.059 19.6855 337.627 21.1175 337.627 22.884C337.627 24.6504 339.059 26.0824 340.825 26.0824Z" fill="#4C8BAA"/>
<path d="M354.962 25.8265C356.587 25.8265 357.904 24.509 357.904 22.8839C357.904 21.2587 356.587 19.9414 354.962 19.9414C353.337 19.9414 352.02 21.2587 352.02 22.8839C352.02 24.509 353.337 25.8265 354.962 25.8265Z" fill="#4C8BAA"/>
<path d="M369.037 26.5939C371.086 26.5939 372.747 24.9327 372.747 22.8836C372.747 20.8346 371.086 19.1736 369.037 19.1736C366.988 19.1736 365.327 20.8346 365.327 22.8836C365.327 24.9327 366.988 26.5939 369.037 26.5939Z" fill="#4C8BAA"/>
<path d="M383.173 25.8265C384.798 25.8265 386.116 24.509 386.116 22.8839C386.116 21.2587 384.798 19.9414 383.173 19.9414C381.548 19.9414 380.231 21.2587 380.231 22.8839C380.231 24.509 381.548 25.8265 383.173 25.8265Z" fill="#4C8BAA"/>
<path d="M2.17482 122.995C2.91673 122.995 3.51791 122.393 3.51791 121.652C3.51791 120.91 2.91673 120.308 2.17482 120.308C1.43291 120.308 0.831726 120.91 0.831726 121.652C0.831726 122.393 1.43291 122.995 2.17482 122.995Z" fill="#4C8BAA"/>
<path d="M2.17512 53.2689C3.37631 53.2689 4.35031 52.2952 4.35031 51.0941C4.35031 49.8929 3.37631 48.9192 2.17512 48.9192C0.97394 48.9192 -6.10352e-05 49.8929 -6.10352e-05 51.0941C-6.10352e-05 52.2952 0.97394 53.2689 2.17512 53.2689Z" fill="#4C8BAA"/>
<path d="M2.17453 66.6384C2.95176 66.6384 3.58196 66.0084 3.58196 65.2312C3.58196 64.4539 2.95176 63.8237 2.17453 63.8237C1.39729 63.8237 0.76709 64.4539 0.76709 65.2312C0.76709 66.0084 1.39729 66.6384 2.17453 66.6384Z" fill="#4C8BAA"/>
<path d="M2.17453 10.1542C2.95176 10.1542 3.58196 9.52412 3.58196 8.74688C3.58196 7.96964 2.95176 7.3396 2.17453 7.3396C1.39729 7.3396 0.76709 7.96964 0.76709 8.74688C0.76709 9.52412 1.39729 10.1542 2.17453 10.1542Z" fill="#4C8BAA"/>
<path d="M242.057 11.7532C243.718 11.7532 245.064 10.4072 245.064 8.74673C245.064 7.08627 243.718 5.74023 242.057 5.74023C240.397 5.74023 239.05 7.08627 239.05 8.74673C239.05 10.4072 240.397 11.7532 242.057 11.7532Z" fill="#4C8BAA"/>
<path d="M256.194 11.8173C257.89 11.8173 259.265 10.4426 259.265 8.7468C259.265 7.05101 257.89 5.67627 256.194 5.67627C254.498 5.67627 253.123 7.05101 253.123 8.7468C253.123 10.4426 254.498 11.8173 256.194 11.8173Z" fill="#4C8BAA"/>
<path d="M270.268 11.5614C271.823 11.5614 273.083 10.3013 273.083 8.74684C273.083 7.19237 271.823 5.93213 270.268 5.93213C268.714 5.93213 267.454 7.19237 267.454 8.74684C267.454 10.3013 268.714 11.5614 270.268 11.5614Z" fill="#4C8BAA"/>
<path d="M284.405 12.393C286.419 12.393 288.052 10.7605 288.052 8.74677C288.052 6.73302 286.419 5.10059 284.405 5.10059C282.392 5.10059 280.759 6.73302 280.759 8.74677C280.759 10.7605 282.392 12.393 284.405 12.393Z" fill="#4C8BAA"/>
<path d="M298.542 12.393C300.556 12.393 302.188 10.7605 302.188 8.74677C302.188 6.73302 300.556 5.10059 298.542 5.10059C296.528 5.10059 294.896 6.73302 294.896 8.74677C294.896 10.7605 296.528 12.393 298.542 12.393Z" fill="#4C8BAA"/>
<path d="M312.615 12.1372C314.487 12.1372 316.005 10.6193 316.005 8.74682C316.005 6.87438 314.487 5.35645 312.615 5.35645C310.742 5.35645 309.225 6.87438 309.225 8.74682C309.225 10.6193 310.742 12.1372 312.615 12.1372Z" fill="#4C8BAA"/>
<path d="M326.752 11.945C328.519 11.945 329.951 10.513 329.951 8.74653C329.951 6.98008 328.519 5.5481 326.752 5.5481C324.986 5.5481 323.554 6.98008 323.554 8.74653C323.554 10.513 324.986 11.945 326.752 11.945Z" fill="#4C8BAA"/>
<path d="M340.825 11.945C342.592 11.945 344.024 10.513 344.024 8.74653C344.024 6.98008 342.592 5.5481 340.825 5.5481C339.059 5.5481 337.627 6.98008 337.627 8.74653C337.627 10.513 339.059 11.945 340.825 11.945Z" fill="#4C8BAA"/>
<path d="M354.963 11.945C356.729 11.945 358.161 10.513 358.161 8.74653C358.161 6.98008 356.729 5.5481 354.963 5.5481C353.196 5.5481 351.764 6.98008 351.764 8.74653C351.764 10.513 353.196 11.945 354.963 11.945Z" fill="#4C8BAA"/>
<path d="M369.036 11.4975C370.556 11.4975 371.787 10.2659 371.787 8.74678C371.787 7.22763 370.556 5.99609 369.036 5.99609C367.517 5.99609 366.286 7.22763 366.286 8.74678C366.286 10.2659 367.517 11.4975 369.036 11.4975Z" fill="#4C8BAA"/>
<path d="M383.173 11.6893C384.798 11.6893 386.116 10.372 386.116 8.74682C386.116 7.12169 384.798 5.8042 383.173 5.8042C381.548 5.8042 380.231 7.12169 380.231 8.74682C380.231 10.372 381.548 11.6893 383.173 11.6893Z" fill="#4C8BAA"/>
<path d="M185.636 40.6671C187.65 40.6671 189.283 39.0347 189.283 37.0209C189.283 35.0072 187.65 33.3748 185.636 33.3748C183.623 33.3748 181.99 35.0072 181.99 37.0209C181.99 39.0347 183.623 40.6671 185.636 40.6671Z" fill="#4C8BAA"/>
<path d="M199.709 40.4111C201.582 40.4111 203.1 38.8932 203.1 37.0207C203.1 35.1483 201.582 33.6304 199.709 33.6304C197.837 33.6304 196.319 35.1483 196.319 37.0207C196.319 38.8932 197.837 40.4111 199.709 40.4111Z" fill="#4C8BAA"/>
<path d="M213.847 40.4111C215.72 40.4111 217.238 38.8932 217.238 37.0207C217.238 35.1483 215.72 33.6304 213.847 33.6304C211.975 33.6304 210.457 35.1483 210.457 37.0207C210.457 38.8932 211.975 40.4111 213.847 40.4111Z" fill="#4C8BAA"/>
<path d="M227.985 40.2194C229.751 40.2194 231.183 38.7874 231.183 37.0209C231.183 35.2545 229.751 33.8225 227.985 33.8225C226.218 33.8225 224.786 35.2545 224.786 37.0209C224.786 38.7874 226.218 40.2194 227.985 40.2194Z" fill="#4C8BAA"/>
<path d="M185.638 26.1461C187.44 26.1461 188.901 24.6854 188.901 22.8836C188.901 21.0819 187.44 19.6213 185.638 19.6213C183.836 19.6213 182.376 21.0819 182.376 22.8836C182.376 24.6854 183.836 26.1461 185.638 26.1461Z" fill="#4C8BAA"/>
<path d="M199.71 26.3383C201.618 26.3383 203.165 24.7917 203.165 22.8839C203.165 20.9762 201.618 19.4297 199.71 19.4297C197.802 19.4297 196.256 20.9762 196.256 22.8839C196.256 24.7917 197.802 26.3383 199.71 26.3383Z" fill="#4C8BAA"/>
<path d="M213.847 26.2742C215.72 26.2742 217.238 24.7563 217.238 22.8839C217.238 21.0114 215.72 19.4937 213.847 19.4937C211.975 19.4937 210.457 21.0114 210.457 22.8839C210.457 24.7563 211.975 26.2742 213.847 26.2742Z" fill="#4C8BAA"/>
<path d="M227.985 26.2742C229.857 26.2742 231.375 24.7563 231.375 22.8839C231.375 21.0114 229.857 19.4937 227.985 19.4937C226.113 19.4937 224.595 21.0114 224.595 22.8839C224.595 24.7563 226.113 26.2742 227.985 26.2742Z" fill="#4C8BAA"/>
<path d="M185.638 12.0091C187.44 12.0091 188.901 10.5486 188.901 8.74684C188.901 6.94506 187.44 5.48438 185.638 5.48438C183.836 5.48438 182.376 6.94506 182.376 8.74684C182.376 10.5486 183.836 12.0091 185.638 12.0091Z" fill="#4C8BAA"/>
<path d="M199.71 11.8173C201.405 11.8173 202.78 10.4426 202.78 8.7468C202.78 7.05101 201.405 5.67627 199.71 5.67627C198.014 5.67627 196.639 7.05101 196.639 8.7468C196.639 10.4426 198.014 11.8173 199.71 11.8173Z" fill="#4C8BAA"/>
<path d="M213.848 11.5614C215.403 11.5614 216.663 10.3013 216.663 8.74684C216.663 7.19237 215.403 5.93213 213.848 5.93213C212.294 5.93213 211.034 7.19237 211.034 8.74684C211.034 10.3013 212.294 11.5614 213.848 11.5614Z" fill="#4C8BAA"/>
<path d="M227.985 12.393C229.999 12.393 231.631 10.7605 231.631 8.74677C231.631 6.73302 229.999 5.10059 227.985 5.10059C225.971 5.10059 224.338 6.73302 224.338 8.74677C224.338 10.7605 225.971 12.393 227.985 12.393Z" fill="#4C8BAA"/>
<path d="M171.501 40.6671C173.514 40.6671 175.147 39.0347 175.147 37.0209C175.147 35.0072 173.514 33.3748 171.501 33.3748C169.487 33.3748 167.854 35.0072 167.854 37.0209C167.854 39.0347 169.487 40.6671 171.501 40.6671Z" fill="#4C8BAA"/>
<path d="M157.428 40.4111C159.3 40.4111 160.818 38.8932 160.818 37.0207C160.818 35.1483 159.3 33.6304 157.428 33.6304C155.555 33.6304 154.038 35.1483 154.038 37.0207C154.038 38.8932 155.555 40.4111 157.428 40.4111Z" fill="#4C8BAA"/>
<path d="M143.289 40.4111C145.161 40.4111 146.68 38.8932 146.68 37.0207C146.68 35.1483 145.161 33.6304 143.289 33.6304C141.417 33.6304 139.899 35.1483 139.899 37.0207C139.899 38.8932 141.417 40.4111 143.289 40.4111Z" fill="#4C8BAA"/>
<path d="M129.216 40.2194C130.983 40.2194 132.415 38.7874 132.415 37.0209C132.415 35.2545 130.983 33.8225 129.216 33.8225C127.45 33.8225 126.018 35.2545 126.018 37.0209C126.018 38.7874 127.45 40.2194 129.216 40.2194Z" fill="#4C8BAA"/>
<path d="M115.079 40.6671C117.093 40.6671 118.726 39.0347 118.726 37.0209C118.726 35.0072 117.093 33.3748 115.079 33.3748C113.066 33.3748 111.433 35.0072 111.433 37.0209C111.433 39.0347 113.066 40.6671 115.079 40.6671Z" fill="#4C8BAA"/>
<path d="M100.943 40.4111C102.815 40.4111 104.333 38.8932 104.333 37.0207C104.333 35.1483 102.815 33.6304 100.943 33.6304C99.0703 33.6304 97.5519 35.1483 97.5519 37.0207C97.5519 38.8932 99.0703 40.4111 100.943 40.4111Z" fill="#4C8BAA"/>
<path d="M86.8693 39.9634C88.4944 39.9634 89.8116 38.6459 89.8116 37.0207C89.8116 35.3956 88.4944 34.0781 86.8693 34.0781C85.2441 34.0781 83.9263 35.3956 83.9263 37.0207C83.9263 38.6459 85.2441 39.9634 86.8693 39.9634Z" fill="#4C8BAA"/>
<path d="M72.732 40.2194C74.4985 40.2194 75.9304 38.7874 75.9304 37.0209C75.9304 35.2545 74.4985 33.8225 72.732 33.8225C70.9656 33.8225 69.5336 35.2545 69.5336 37.0209C69.5336 38.7874 70.9656 40.2194 72.732 40.2194Z" fill="#4C8BAA"/>
<path d="M58.6591 40.4111C60.5315 40.4111 62.0493 38.8932 62.0493 37.0207C62.0493 35.1483 60.5315 33.6304 58.6591 33.6304C56.7866 33.6304 55.2689 35.1483 55.2689 37.0207C55.2689 38.8932 56.7866 40.4111 58.6591 40.4111Z" fill="#4C8BAA"/>
<path d="M44.5225 39.6438C45.971 39.6438 47.145 38.4695 47.145 37.021C47.145 35.5725 45.971 34.3982 44.5225 34.3982C43.074 34.3982 41.8994 35.5725 41.8994 37.021C41.8994 38.4695 43.074 39.6438 44.5225 39.6438Z" fill="#4C8BAA"/>
<path d="M30.3853 39.9634C32.0104 39.9634 33.3282 38.6459 33.3282 37.0207C33.3282 35.3956 32.0104 34.0781 30.3853 34.0781C28.7602 34.0781 27.443 35.3956 27.443 37.0207C27.443 38.6459 28.7602 39.9634 30.3853 39.9634Z" fill="#4C8BAA"/>
<path d="M16.3121 38.4281C17.0893 38.4281 17.7195 37.798 17.7195 37.0208C17.7195 36.2436 17.0893 35.6135 16.3121 35.6135C15.5348 35.6135 14.9053 36.2436 14.9053 37.0208C14.9053 37.798 15.5348 38.4281 16.3121 38.4281Z" fill="#4C8BAA"/>
<path d="M171.5 26.1461C173.302 26.1461 174.762 24.6854 174.762 22.8836C174.762 21.0819 173.302 19.6213 171.5 19.6213C169.698 19.6213 168.237 21.0819 168.237 22.8836C168.237 24.6854 169.698 26.1461 171.5 26.1461Z" fill="#4C8BAA"/>
<path d="M157.428 26.466C159.406 26.466 161.01 24.8621 161.01 22.8837C161.01 20.9052 159.406 19.3015 157.428 19.3015C155.449 19.3015 153.845 20.9052 153.845 22.8837C153.845 24.8621 155.449 26.466 157.428 26.466Z" fill="#4C8BAA"/>
<path d="M143.289 26.2742C145.161 26.2742 146.68 24.7563 146.68 22.8839C146.68 21.0114 145.161 19.4937 143.289 19.4937C141.417 19.4937 139.899 21.0114 139.899 22.8839C139.899 24.7563 141.417 26.2742 143.289 26.2742Z" fill="#4C8BAA"/>
<path d="M129.216 26.2742C131.088 26.2742 132.607 24.7563 132.607 22.8839C132.607 21.0114 131.088 19.4937 129.216 19.4937C127.344 19.4937 125.826 21.0114 125.826 22.8839C125.826 24.7563 127.344 26.2742 129.216 26.2742Z" fill="#4C8BAA"/>
<path d="M115.081 25.8265C116.706 25.8265 118.023 24.509 118.023 22.8839C118.023 21.2587 116.706 19.9414 115.081 19.9414C113.455 19.9414 112.138 21.2587 112.138 22.8839C112.138 24.509 113.455 25.8265 115.081 25.8265Z" fill="#4C8BAA"/>
<path d="M100.943 26.2742C102.815 26.2742 104.333 24.7563 104.333 22.8839C104.333 21.0114 102.815 19.4937 100.943 19.4937C99.0703 19.4937 97.5519 21.0114 97.5519 22.8839C97.5519 24.7563 99.0703 26.2742 100.943 26.2742Z" fill="#4C8BAA"/>
<path d="M86.87 25.9544C88.5658 25.9544 89.9404 24.5796 89.9404 22.8838C89.9404 21.1881 88.5658 19.8135 86.87 19.8135C85.1742 19.8135 83.799 21.1881 83.799 22.8838C83.799 24.5796 85.1742 25.9544 86.87 25.9544Z" fill="#4C8BAA"/>
<path d="M72.732 26.0824C74.4985 26.0824 75.9304 24.6504 75.9304 22.884C75.9304 21.1175 74.4985 19.6855 72.732 19.6855C70.9656 19.6855 69.5336 21.1175 69.5336 22.884C69.5336 24.6504 70.9656 26.0824 72.732 26.0824Z" fill="#4C8BAA"/>
<path d="M58.6599 25.8265C60.285 25.8265 61.6028 24.509 61.6028 22.8839C61.6028 21.2587 60.285 19.9414 58.6599 19.9414C57.0348 19.9414 55.7176 21.2587 55.7176 22.8839C55.7176 24.509 57.0348 25.8265 58.6599 25.8265Z" fill="#4C8BAA"/>
<path d="M44.5225 25.5066C45.971 25.5066 47.145 24.3323 47.145 22.8839C47.145 21.4354 45.971 20.2612 44.5225 20.2612C43.074 20.2612 41.8994 21.4354 41.8994 22.8839C41.8994 24.3323 43.074 25.5066 44.5225 25.5066Z" fill="#4C8BAA"/>
<path d="M30.3853 25.8265C32.0104 25.8265 33.3282 24.509 33.3282 22.8839C33.3282 21.2587 32.0104 19.9414 30.3853 19.9414C28.7602 19.9414 27.443 21.2587 27.443 22.8839C27.443 24.509 28.7602 25.8265 30.3853 25.8265Z" fill="#4C8BAA"/>
<path d="M16.3121 24.291C17.0893 24.291 17.7195 23.6608 17.7195 22.8836C17.7195 22.1064 17.0893 21.4763 16.3121 21.4763C15.5348 21.4763 14.9053 22.1064 14.9053 22.8836C14.9053 23.6608 15.5348 24.291 16.3121 24.291Z" fill="#4C8BAA"/>
<path d="M171.5 12.0091C173.302 12.0091 174.762 10.5486 174.762 8.74684C174.762 6.94506 173.302 5.48438 171.5 5.48438C169.698 5.48438 168.237 6.94506 168.237 8.74684C168.237 10.5486 169.698 12.0091 171.5 12.0091Z" fill="#4C8BAA"/>
<path d="M157.428 11.8173C159.124 11.8173 160.498 10.4426 160.498 8.7468C160.498 7.05101 159.124 5.67627 157.428 5.67627C155.732 5.67627 154.358 7.05101 154.358 8.7468C154.358 10.4426 155.732 11.8173 157.428 11.8173Z" fill="#4C8BAA"/>
<path d="M143.29 11.5614C144.844 11.5614 146.105 10.3013 146.105 8.74684C146.105 7.19237 144.844 5.93213 143.29 5.93213C141.735 5.93213 140.476 7.19237 140.476 8.74684C140.476 10.3013 141.735 11.5614 143.29 11.5614Z" fill="#4C8BAA"/>
<path d="M129.217 12.393C131.231 12.393 132.863 10.7605 132.863 8.74677C132.863 6.73302 131.231 5.10059 129.217 5.10059C127.203 5.10059 125.571 6.73302 125.571 8.74677C125.571 10.7605 127.203 12.393 129.217 12.393Z" fill="#4C8BAA"/>
<path d="M115.079 12.393C117.093 12.393 118.726 10.7605 118.726 8.74677C118.726 6.73302 117.093 5.10059 115.079 5.10059C113.066 5.10059 111.433 6.73302 111.433 8.74677C111.433 10.7605 113.066 12.393 115.079 12.393Z" fill="#4C8BAA"/>
<path d="M100.943 12.1372C102.815 12.1372 104.333 10.6193 104.333 8.74682C104.333 6.87438 102.815 5.35645 100.943 5.35645C99.0703 5.35645 97.5519 6.87438 97.5519 8.74682C97.5519 10.6193 99.0703 12.1372 100.943 12.1372Z" fill="#4C8BAA"/>
<path d="M86.8693 11.6893C88.4944 11.6893 89.8116 10.372 89.8116 8.74682C89.8116 7.12169 88.4944 5.8042 86.8693 5.8042C85.2441 5.8042 83.9263 7.12169 83.9263 8.74682C83.9263 10.372 85.2441 11.6893 86.8693 11.6893Z" fill="#4C8BAA"/>
<path d="M72.732 11.945C74.4985 11.945 75.9304 10.513 75.9304 8.74653C75.9304 6.98008 74.4985 5.5481 72.732 5.5481C70.9656 5.5481 69.5336 6.98008 69.5336 8.74653C69.5336 10.513 70.9656 11.945 72.732 11.945Z" fill="#4C8BAA"/>
<path d="M58.6592 11.8173C60.355 11.8173 61.7295 10.4426 61.7295 8.7468C61.7295 7.05101 60.355 5.67627 58.6592 5.67627C56.9634 5.67627 55.5888 7.05101 55.5888 8.7468C55.5888 10.4426 56.9634 11.8173 58.6592 11.8173Z" fill="#4C8BAA"/>
<path d="M44.5226 11.4975C46.0418 11.4975 47.2732 10.2659 47.2732 8.74678C47.2732 7.22763 46.0418 5.99609 44.5226 5.99609C43.0035 5.99609 41.7721 7.22763 41.7721 8.74678C41.7721 10.2659 43.0035 11.4975 44.5226 11.4975Z" fill="#4C8BAA"/>
<path d="M30.3853 11.6893C32.0104 11.6893 33.3282 10.372 33.3282 8.74682C33.3282 7.12169 32.0104 5.8042 30.3853 5.8042C28.7602 5.8042 27.443 7.12169 27.443 8.74682C27.443 10.372 28.7602 11.6893 30.3853 11.6893Z" fill="#4C8BAA"/>
<path d="M16.3121 10.1542C17.0893 10.1542 17.7195 9.52412 17.7195 8.74688C17.7195 7.96964 17.0893 7.3396 16.3121 7.3396C15.5348 7.3396 14.9053 7.96964 14.9053 8.74688C14.9053 9.52412 15.5348 10.1542 16.3121 10.1542Z" fill="#4C8BAA"/>
<path d="M30.385 193.488C31.0915 193.488 31.6643 192.916 31.6643 192.209C31.6643 191.502 31.0915 190.93 30.385 190.93C29.6784 190.93 29.1056 191.502 29.1056 192.209C29.1056 192.916 29.6784 193.488 30.385 193.488Z" fill="#4C8BAA"/>
<path d="M58.6595 194C59.6487 194 60.4505 193.198 60.4505 192.209C60.4505 191.22 59.6487 190.418 58.6595 190.418C57.6703 190.418 56.8685 191.22 56.8685 192.209C56.8685 193.198 57.6703 194 58.6595 194Z" fill="#4C8BAA"/>
<path d="M115.08 193.872C115.999 193.872 116.743 193.127 116.743 192.209C116.743 191.29 115.999 190.546 115.08 190.546C114.162 190.546 113.417 191.29 113.417 192.209C113.417 193.127 114.162 193.872 115.08 193.872Z" fill="#4C8BAA"/>
<path d="M157.427 193.616C158.204 193.616 158.834 192.986 158.834 192.209C158.834 191.432 158.204 190.802 157.427 190.802C156.65 190.802 156.019 191.432 156.019 192.209C156.019 192.986 156.65 193.616 157.427 193.616Z" fill="#4C8BAA"/>
<path d="M171.501 193.808C172.384 193.808 173.1 193.092 173.1 192.209C173.1 191.326 172.384 190.61 171.501 190.61C170.618 190.61 169.902 191.326 169.902 192.209C169.902 193.092 170.618 193.808 171.501 193.808Z" fill="#4C8BAA"/>
<path d="M185.637 193.808C186.52 193.808 187.236 193.092 187.236 192.209C187.236 191.326 186.52 190.61 185.637 190.61C184.754 190.61 184.038 191.326 184.038 192.209C184.038 193.092 184.754 193.808 185.637 193.808Z" fill="#4C8BAA"/>
<path d="M199.711 193.616C200.488 193.616 201.118 192.986 201.118 192.209C201.118 191.432 200.488 190.802 199.711 190.802C198.934 190.802 198.303 191.432 198.303 192.209C198.303 192.986 198.934 193.616 199.711 193.616Z" fill="#4C8BAA"/>
<path d="M2.17538 179.543C2.98794 179.543 3.64653 178.884 3.64653 178.072C3.64653 177.259 2.98794 176.601 2.17538 176.601C1.36281 176.601 0.704224 177.259 0.704224 178.072C0.704224 178.884 1.36281 179.543 2.17538 179.543Z" fill="#4C8BAA"/>
<path d="M16.3119 179.735C17.2305 179.735 17.9755 178.99 17.9755 178.072C17.9755 177.153 17.2305 176.409 16.3119 176.409C15.3934 176.409 14.649 177.153 14.649 178.072C14.649 178.99 15.3934 179.735 16.3119 179.735Z" fill="#4C8BAA"/>
<path d="M30.3849 179.735C31.3035 179.735 32.0485 178.99 32.0485 178.072C32.0485 177.153 31.3035 176.409 30.3849 176.409C29.4664 176.409 28.722 177.153 28.722 178.072C28.722 178.99 29.4664 179.735 30.3849 179.735Z" fill="#4C8BAA"/>
<path d="M44.522 179.735C45.4406 179.735 46.185 178.99 46.185 178.072C46.185 177.153 45.4406 176.409 44.522 176.409C43.6035 176.409 42.8585 177.153 42.8585 178.072C42.8585 178.99 43.6035 179.735 44.522 179.735Z" fill="#4C8BAA"/>
<path d="M58.6589 179.543C59.4715 179.543 60.1301 178.884 60.1301 178.072C60.1301 177.259 59.4715 176.601 58.6589 176.601C57.8463 176.601 57.1877 177.259 57.1877 178.072C57.1877 178.884 57.8463 179.543 58.6589 179.543Z" fill="#4C8BAA"/>
<path d="M72.7334 179.415C73.4753 179.415 74.0771 178.814 74.0771 178.072C74.0771 177.33 73.4753 176.729 72.7334 176.729C71.9914 176.729 71.3903 177.33 71.3903 178.072C71.3903 178.814 71.9914 179.415 72.7334 179.415Z" fill="#4C8BAA"/>
<path d="M100.942 180.183C102.108 180.183 103.053 179.238 103.053 178.072C103.053 176.906 102.108 175.961 100.942 175.961C99.7765 175.961 98.8309 176.906 98.8309 178.072C98.8309 179.238 99.7765 180.183 100.942 180.183Z" fill="#4C8BAA"/>
<path d="M115.079 179.351C115.786 179.351 116.359 178.778 116.359 178.072C116.359 177.365 115.786 176.792 115.079 176.792C114.373 176.792 113.8 177.365 113.8 178.072C113.8 178.778 114.373 179.351 115.079 179.351Z" fill="#4C8BAA"/>
<path d="M129.217 180.055C130.312 180.055 131.201 179.167 131.201 178.072C131.201 176.977 130.312 176.089 129.217 176.089C128.122 176.089 127.234 176.977 127.234 178.072C127.234 179.167 128.122 180.055 129.217 180.055Z" fill="#4C8BAA"/>
<path d="M143.29 179.671C144.173 179.671 144.889 178.955 144.889 178.072C144.889 177.189 144.173 176.473 143.29 176.473C142.406 176.473 141.69 177.189 141.69 178.072C141.69 178.955 142.406 179.671 143.29 179.671Z" fill="#4C8BAA"/>
<path d="M157.428 179.223C158.064 179.223 158.579 178.708 158.579 178.072C158.579 177.436 158.064 176.92 157.428 176.92C156.792 176.92 156.276 177.436 156.276 178.072C156.276 178.708 156.792 179.223 157.428 179.223Z" fill="#4C8BAA"/>
<path d="M171.501 180.119C172.632 180.119 173.548 179.202 173.548 178.072C173.548 176.941 172.632 176.025 171.501 176.025C170.371 176.025 169.454 176.941 169.454 178.072C169.454 179.202 170.371 180.119 171.501 180.119Z" fill="#4C8BAA"/>
<path d="M185.637 179.671C186.52 179.671 187.236 178.955 187.236 178.072C187.236 177.189 186.52 176.473 185.637 176.473C184.754 176.473 184.038 177.189 184.038 178.072C184.038 178.955 184.754 179.671 185.637 179.671Z" fill="#4C8BAA"/>
<path d="M199.711 179.479C200.488 179.479 201.118 178.849 201.118 178.072C201.118 177.295 200.488 176.665 199.711 176.665C198.934 176.665 198.303 177.295 198.303 178.072C198.303 178.849 198.934 179.479 199.711 179.479Z" fill="#4C8BAA"/>
<path d="M16.312 165.342C17.0539 165.342 17.6557 164.741 17.6557 163.999C17.6557 163.257 17.0539 162.656 16.312 162.656C15.5701 162.656 14.9689 163.257 14.9689 163.999C14.9689 164.741 15.5701 165.342 16.312 165.342Z" fill="#4C8BAA"/>
<path d="M30.385 165.278C31.0915 165.278 31.6643 164.705 31.6643 163.999C31.6643 163.292 31.0915 162.719 30.385 162.719C29.6784 162.719 29.1056 163.292 29.1056 163.999C29.1056 164.705 29.6784 165.278 30.385 165.278Z" fill="#4C8BAA"/>
<path d="M44.5222 165.534C45.3701 165.534 46.0571 164.846 46.0571 163.999C46.0571 163.151 45.3701 162.463 44.5222 162.463C43.6743 162.463 42.9867 163.151 42.9867 163.999C42.9867 164.846 43.6743 165.534 44.5222 165.534Z" fill="#4C8BAA"/>
<path d="M58.6595 165.79C59.6487 165.79 60.4505 164.988 60.4505 163.999C60.4505 163.009 59.6487 162.208 58.6595 162.208C57.6703 162.208 56.8685 163.009 56.8685 163.999C56.8685 164.988 57.6703 165.79 58.6595 165.79Z" fill="#4C8BAA"/>
<path d="M72.7323 165.79C73.7216 165.79 74.5233 164.988 74.5233 163.999C74.5233 163.009 73.7216 162.208 72.7323 162.208C71.7431 162.208 70.9413 163.009 70.9413 163.999C70.9413 164.988 71.7431 165.79 72.7323 165.79Z" fill="#4C8BAA"/>
<path d="M86.8705 165.534C87.7184 165.534 88.4054 164.846 88.4054 163.999C88.4054 163.151 87.7184 162.463 86.8705 162.463C86.0226 162.463 85.335 163.151 85.335 163.999C85.335 164.846 86.0226 165.534 86.8705 165.534Z" fill="#4C8BAA"/>
<path d="M100.943 165.534C101.79 165.534 102.477 164.846 102.477 163.999C102.477 163.151 101.79 162.463 100.943 162.463C100.095 162.463 99.4071 163.151 99.4071 163.999C99.4071 164.846 100.095 165.534 100.943 165.534Z" fill="#4C8BAA"/>
<path d="M115.079 165.406C115.856 165.406 116.487 164.776 116.487 163.999C116.487 163.222 115.856 162.592 115.079 162.592C114.302 162.592 113.672 163.222 113.672 163.999C113.672 164.776 114.302 165.406 115.079 165.406Z" fill="#4C8BAA"/>
<path d="M129.217 165.982C130.312 165.982 131.201 165.094 131.201 163.998C131.201 162.903 130.312 162.015 129.217 162.015C128.122 162.015 127.234 162.903 127.234 163.998C127.234 165.094 128.122 165.982 129.217 165.982Z" fill="#4C8BAA"/>
<path d="M143.29 165.406C144.067 165.406 144.697 164.776 144.697 163.999C144.697 163.222 144.067 162.592 143.29 162.592C142.513 162.592 141.883 163.222 141.883 163.999C141.883 164.776 142.513 165.406 143.29 165.406Z" fill="#4C8BAA"/>
<path d="M157.427 165.406C158.204 165.406 158.834 164.776 158.834 163.999C158.834 163.222 158.204 162.592 157.427 162.592C156.65 162.592 156.019 163.222 156.019 163.999C156.019 164.776 156.65 165.406 157.427 165.406Z" fill="#4C8BAA"/>
<path d="M171.501 165.15C172.137 165.15 172.652 164.635 172.652 163.999C172.652 163.363 172.137 162.847 171.501 162.847C170.865 162.847 170.349 163.363 170.349 163.999C170.349 164.635 170.865 165.15 171.501 165.15Z" fill="#4C8BAA"/>
<path d="M185.637 165.726C186.591 165.726 187.364 164.952 187.364 163.999C187.364 163.045 186.591 162.271 185.637 162.271C184.683 162.271 183.91 163.045 183.91 163.999C183.91 164.952 184.683 165.726 185.637 165.726Z" fill="#4C8BAA"/>
<path d="M199.711 165.406C200.488 165.406 201.118 164.776 201.118 163.999C201.118 163.222 200.488 162.592 199.711 162.592C198.934 162.592 198.303 163.222 198.303 163.999C198.303 164.776 198.934 165.406 199.711 165.406Z" fill="#4C8BAA"/>
<path d="M16.3119 151.525C17.2305 151.525 17.9755 150.78 17.9755 149.862C17.9755 148.943 17.2305 148.198 16.3119 148.198C15.3934 148.198 14.649 148.943 14.649 149.862C14.649 150.78 15.3934 151.525 16.3119 151.525Z" fill="#4C8BAA"/>
<path d="M30.3856 151.909C31.5161 151.909 32.4327 150.992 32.4327 149.861C32.4327 148.731 31.5161 147.814 30.3856 147.814C29.2551 147.814 28.3391 148.731 28.3391 149.861C28.3391 150.992 29.2551 151.909 30.3856 151.909Z" fill="#4C8BAA"/>
<path d="M44.5222 151.397C45.3701 151.397 46.0571 150.709 46.0571 149.862C46.0571 149.014 45.3701 148.326 44.5222 148.326C43.6743 148.326 42.9867 149.014 42.9867 149.862C42.9867 150.709 43.6743 151.397 44.5222 151.397Z" fill="#4C8BAA"/>
<path d="M58.6588 151.269C59.4361 151.269 60.0663 150.639 60.0663 149.861C60.0663 149.084 59.4361 148.454 58.6588 148.454C57.8816 148.454 57.2514 149.084 57.2514 149.861C57.2514 150.639 57.8816 151.269 58.6588 151.269Z" fill="#4C8BAA"/>
<path d="M72.7332 151.397C73.5811 151.397 74.2687 150.709 74.2687 149.862C74.2687 149.014 73.5811 148.326 72.7332 148.326C71.8853 148.326 71.1984 149.014 71.1984 149.862C71.1984 150.709 71.8853 151.397 72.7332 151.397Z" fill="#4C8BAA"/>
<path d="M86.8705 151.397C87.7184 151.397 88.4054 150.709 88.4054 149.862C88.4054 149.014 87.7184 148.326 86.8705 148.326C86.0226 148.326 85.335 149.014 85.335 149.862C85.335 150.709 86.0226 151.397 86.8705 151.397Z" fill="#4C8BAA"/>
<path d="M100.944 151.269C101.721 151.269 102.35 150.639 102.35 149.861C102.35 149.084 101.721 148.454 100.944 148.454C100.166 148.454 99.5361 149.084 99.5361 149.861C99.5361 150.639 100.166 151.269 100.944 151.269Z" fill="#4C8BAA"/>
<path d="M115.079 151.909C116.21 151.909 117.126 150.992 117.126 149.861C117.126 148.731 116.21 147.814 115.079 147.814C113.949 147.814 113.032 148.731 113.032 149.861C113.032 150.992 113.949 151.909 115.079 151.909Z" fill="#4C8BAA"/>
<path d="M129.218 151.077C129.889 151.077 130.433 150.533 130.433 149.862C130.433 149.19 129.889 148.646 129.218 148.646C128.546 148.646 128.003 149.19 128.003 149.862C128.003 150.533 128.546 151.077 129.218 151.077Z" fill="#4C8BAA"/>
<path d="M143.29 151.461C144.173 151.461 144.889 150.745 144.889 149.862C144.889 148.978 144.173 148.262 143.29 148.262C142.406 148.262 141.69 148.978 141.69 149.862C141.69 150.745 142.406 151.461 143.29 151.461Z" fill="#4C8BAA"/>
<path d="M157.428 151.461C158.312 151.461 159.028 150.745 159.028 149.862C159.028 148.978 158.312 148.262 157.428 148.262C156.545 148.262 155.829 148.978 155.829 149.862C155.829 150.745 156.545 151.461 157.428 151.461Z" fill="#4C8BAA"/>
<path d="M171.501 151.589C172.454 151.589 173.228 150.816 173.228 149.862C173.228 148.908 172.454 148.135 171.501 148.135C170.547 148.135 169.773 148.908 169.773 149.862C169.773 150.816 170.547 151.589 171.501 151.589Z" fill="#4C8BAA"/>
<path d="M185.637 151.589C186.591 151.589 187.364 150.816 187.364 149.862C187.364 148.908 186.591 148.135 185.637 148.135C184.683 148.135 183.91 148.908 183.91 149.862C183.91 150.816 184.683 151.589 185.637 151.589Z" fill="#4C8BAA"/>
<path d="M199.711 151.589C200.665 151.589 201.438 150.816 201.438 149.862C201.438 148.908 200.665 148.135 199.711 148.135C198.757 148.135 197.983 148.908 197.983 149.862C197.983 150.816 198.757 151.589 199.711 151.589Z" fill="#4C8BAA"/>
<path d="M16.3119 137.452C17.2305 137.452 17.9755 136.707 17.9755 135.788C17.9755 134.87 17.2305 134.125 16.3119 134.125C15.3934 134.125 14.649 134.87 14.649 135.788C14.649 136.707 15.3934 137.452 16.3119 137.452Z" fill="#4C8BAA"/>
<path d="M30.3856 137.836C31.5161 137.836 32.4327 136.919 32.4327 135.789C32.4327 134.658 31.5161 133.742 30.3856 133.742C29.2551 133.742 28.3391 134.658 28.3391 135.789C28.3391 136.919 29.2551 137.836 30.3856 137.836Z" fill="#4C8BAA"/>
<path d="M44.5219 138.155C45.829 138.155 46.8888 137.095 46.8888 135.788C46.8888 134.481 45.829 133.421 44.5219 133.421C43.2147 133.421 42.1549 134.481 42.1549 135.788C42.1549 137.095 43.2147 138.155 44.5219 138.155Z" fill="#4C8BAA"/>
<path d="M58.6594 137.836C59.7899 137.836 60.7065 136.919 60.7065 135.789C60.7065 134.658 59.7899 133.742 58.6594 133.742C57.5288 133.742 56.6122 134.658 56.6122 135.789C56.6122 136.919 57.5288 137.836 58.6594 137.836Z" fill="#4C8BAA"/>
<path d="M72.7328 138.475C74.2166 138.475 75.4196 137.272 75.4196 135.788C75.4196 134.305 74.2166 133.102 72.7328 133.102C71.249 133.102 70.046 134.305 70.046 135.788C70.046 137.272 71.249 138.475 72.7328 138.475Z" fill="#4C8BAA"/>
<path d="M86.8712 138.155C88.1783 138.155 89.2375 137.095 89.2375 135.788C89.2375 134.481 88.1783 133.421 86.8712 133.421C85.564 133.421 84.5042 134.481 84.5042 135.788C84.5042 137.095 85.564 138.155 86.8712 138.155Z" fill="#4C8BAA"/>
<path d="M100.943 138.155C102.25 138.155 103.31 137.095 103.31 135.788C103.31 134.481 102.25 133.421 100.943 133.421C99.6361 133.421 98.5763 134.481 98.5763 135.788C98.5763 137.095 99.6361 138.155 100.943 138.155Z" fill="#4C8BAA"/>
<path d="M115.079 137.836C116.21 137.836 117.126 136.919 117.126 135.789C117.126 134.658 116.21 133.742 115.079 133.742C113.949 133.742 113.032 134.658 113.032 135.789C113.032 136.919 113.949 137.836 115.079 137.836Z" fill="#4C8BAA"/>
<path d="M129.217 138.091C130.489 138.091 131.52 137.06 131.52 135.788C131.52 134.517 130.489 133.486 129.217 133.486C127.945 133.486 126.915 134.517 126.915 135.788C126.915 137.06 127.945 138.091 129.217 138.091Z" fill="#4C8BAA"/>
<path d="M143.29 137.964C144.491 137.964 145.465 136.99 145.465 135.789C145.465 134.587 144.491 133.614 143.29 133.614C142.089 133.614 141.116 134.587 141.116 135.789C141.116 136.99 142.089 137.964 143.29 137.964Z" fill="#4C8BAA"/>
<path d="M157.428 137.388C158.312 137.388 159.028 136.672 159.028 135.788C159.028 134.905 158.312 134.189 157.428 134.189C156.545 134.189 155.829 134.905 155.829 135.788C155.829 136.672 156.545 137.388 157.428 137.388Z" fill="#4C8BAA"/>
<path d="M171.501 137.836C172.632 137.836 173.548 136.919 173.548 135.789C173.548 134.658 172.632 133.742 171.501 133.742C170.371 133.742 169.454 134.658 169.454 135.789C169.454 136.919 170.371 137.836 171.501 137.836Z" fill="#4C8BAA"/>
<path d="M185.638 138.411C187.086 138.411 188.261 137.237 188.261 135.788C188.261 134.34 187.086 133.166 185.638 133.166C184.189 133.166 183.015 134.34 183.015 135.788C183.015 137.237 184.189 138.411 185.638 138.411Z" fill="#4C8BAA"/>
<path d="M199.711 137.644C200.735 137.644 201.566 136.813 201.566 135.789C201.566 134.764 200.735 133.934 199.711 133.934C198.686 133.934 197.856 134.764 197.856 135.789C197.856 136.813 198.686 137.644 199.711 137.644Z" fill="#4C8BAA"/>
<path d="M16.312 123.379C17.2659 123.379 18.0393 122.605 18.0393 121.651C18.0393 120.698 17.2659 119.924 16.312 119.924C15.3581 119.924 14.5853 120.698 14.5853 121.651C14.5853 122.605 15.3581 123.379 16.312 123.379Z" fill="#4C8BAA"/>
<path d="M30.3856 123.698C31.5161 123.698 32.4327 122.782 32.4327 121.651C32.4327 120.521 31.5161 119.604 30.3856 119.604C29.2551 119.604 28.3391 120.521 28.3391 121.651C28.3391 122.782 29.2551 123.698 30.3856 123.698Z" fill="#4C8BAA"/>
<path d="M44.5235 124.21C45.9366 124.21 47.0822 123.065 47.0822 121.652C47.0822 120.238 45.9366 119.093 44.5235 119.093C43.1103 119.093 41.9647 120.238 41.9647 121.652C41.9647 123.065 43.1103 124.21 44.5235 124.21Z" fill="#4C8BAA"/>
<path d="M58.6595 123.379C59.6134 123.379 60.3867 122.605 60.3867 121.651C60.3867 120.698 59.6134 119.924 58.6595 119.924C57.7056 119.924 56.9322 120.698 56.9322 121.651C56.9322 122.605 57.7056 123.379 58.6595 123.379Z" fill="#4C8BAA"/>
<path d="M72.7322 124.21C74.1454 124.21 75.291 123.065 75.291 121.652C75.291 120.238 74.1454 119.093 72.7322 119.093C71.3191 119.093 70.1735 120.238 70.1735 121.652C70.1735 123.065 71.3191 124.21 72.7322 124.21Z" fill="#4C8BAA"/>
<path d="M86.8695 123.763C88.0354 123.763 88.9804 122.817 88.9804 121.652C88.9804 120.486 88.0354 119.541 86.8695 119.541C85.7037 119.541 84.7581 120.486 84.7581 121.652C84.7581 122.817 85.7037 123.763 86.8695 123.763Z" fill="#4C8BAA"/>
<path d="M100.943 123.698C102.074 123.698 102.99 122.782 102.99 121.651C102.99 120.521 102.074 119.604 100.943 119.604C99.8128 119.604 98.8962 120.521 98.8962 121.651C98.8962 122.782 99.8128 123.698 100.943 123.698Z" fill="#4C8BAA"/>
<path d="M115.081 123.763C116.246 123.763 117.191 122.817 117.191 121.652C117.191 120.486 116.246 119.541 115.081 119.541C113.915 119.541 112.97 120.486 112.97 121.652C112.97 122.817 113.915 123.763 115.081 123.763Z" fill="#4C8BAA"/>
<path d="M129.216 123.763C130.381 123.763 131.327 122.817 131.327 121.652C131.327 120.486 130.381 119.541 129.216 119.541C128.05 119.541 127.105 120.486 127.105 121.652C127.105 122.817 128.05 123.763 129.216 123.763Z" fill="#4C8BAA"/>
<path d="M143.289 123.571C144.349 123.571 145.208 122.711 145.208 121.651C145.208 120.592 144.349 119.732 143.289 119.732C142.23 119.732 141.37 120.592 141.37 121.651C141.37 122.711 142.23 123.571 143.289 123.571Z" fill="#4C8BAA"/>
<path d="M157.428 124.274C158.876 124.274 160.05 123.1 160.05 121.652C160.05 120.203 158.876 119.029 157.428 119.029C155.979 119.029 154.805 120.203 154.805 121.652C154.805 123.1 155.979 124.274 157.428 124.274Z" fill="#4C8BAA"/>
<path d="M171.5 123.315C172.418 123.315 173.163 122.57 173.163 121.652C173.163 120.733 172.418 119.988 171.5 119.988C170.581 119.988 169.836 120.733 169.836 121.652C169.836 122.57 170.581 123.315 171.5 123.315Z" fill="#4C8BAA"/>
<path d="M185.637 123.571C186.697 123.571 187.556 122.711 187.556 121.651C187.556 120.592 186.697 119.732 185.637 119.732C184.577 119.732 183.718 120.592 183.718 121.651C183.718 122.711 184.577 123.571 185.637 123.571Z" fill="#4C8BAA"/>
<path d="M199.711 124.274C201.16 124.274 202.334 123.1 202.334 121.652C202.334 120.203 201.16 119.029 199.711 119.029C198.263 119.029 197.089 120.203 197.089 121.652C197.089 123.1 198.263 124.274 199.711 124.274Z" fill="#4C8BAA"/>
<path d="M30.3854 109.753C31.5866 109.753 32.5606 108.78 32.5606 107.578C32.5606 106.377 31.5866 105.403 30.3854 105.403C29.1843 105.403 28.2109 106.377 28.2109 107.578C28.2109 108.78 29.1843 109.753 30.3854 109.753Z" fill="#4C8BAA"/>
<path d="M44.522 109.753C45.7232 109.753 46.6965 108.78 46.6965 107.578C46.6965 106.377 45.7232 105.403 44.522 105.403C43.3208 105.403 42.3468 106.377 42.3468 107.578C42.3468 108.78 43.3208 109.753 44.522 109.753Z" fill="#4C8BAA"/>
<path d="M58.6595 109.753C59.8607 109.753 60.8347 108.78 60.8347 107.578C60.8347 106.377 59.8607 105.403 58.6595 105.403C57.4584 105.403 56.485 106.377 56.485 107.578C56.485 108.78 57.4584 109.753 58.6595 109.753Z" fill="#4C8BAA"/>
<path d="M72.7322 110.137C74.1454 110.137 75.291 108.992 75.291 107.579C75.291 106.165 74.1454 105.02 72.7322 105.02C71.3191 105.02 70.1735 106.165 70.1735 107.579C70.1735 108.992 71.3191 110.137 72.7322 110.137Z" fill="#4C8BAA"/>
<path d="M86.8705 109.113C87.7184 109.113 88.4054 108.426 88.4054 107.578C88.4054 106.73 87.7184 106.043 86.8705 106.043C86.0226 106.043 85.335 106.73 85.335 107.578C85.335 108.426 86.0226 109.113 86.8705 109.113Z" fill="#4C8BAA"/>
<path d="M100.943 109.945C102.25 109.945 103.31 108.885 103.31 107.578C103.31 106.271 102.25 105.211 100.943 105.211C99.6361 105.211 98.5763 106.271 98.5763 107.578C98.5763 108.885 99.6361 109.945 100.943 109.945Z" fill="#4C8BAA"/>
<path d="M115.079 109.945C116.386 109.945 117.446 108.885 117.446 107.578C117.446 106.271 116.386 105.211 115.079 105.211C113.772 105.211 112.712 106.271 112.712 107.578C112.712 108.885 113.772 109.945 115.079 109.945Z" fill="#4C8BAA"/>
<path d="M129.217 109.945C130.524 109.945 131.584 108.885 131.584 107.578C131.584 106.271 130.524 105.211 129.217 105.211C127.91 105.211 126.851 106.271 126.851 107.578C126.851 108.885 127.91 109.945 129.217 109.945Z" fill="#4C8BAA"/>
<path d="M143.29 109.753C144.491 109.753 145.465 108.78 145.465 107.578C145.465 106.377 144.491 105.403 143.29 105.403C142.089 105.403 141.116 106.377 141.116 107.578C141.116 108.78 142.089 109.753 143.29 109.753Z" fill="#4C8BAA"/>
<path d="M157.427 109.306C158.381 109.306 159.154 108.533 159.154 107.579C159.154 106.625 158.381 105.852 157.427 105.852C156.473 105.852 155.699 106.625 155.699 107.579C155.699 108.533 156.473 109.306 157.427 109.306Z" fill="#4C8BAA"/>
<path d="M171.501 110.585C173.161 110.585 174.508 109.239 174.508 107.578C174.508 105.918 173.161 104.572 171.501 104.572C169.84 104.572 168.494 105.918 168.494 107.578C168.494 109.239 169.84 110.585 171.501 110.585Z" fill="#4C8BAA"/>
<path d="M185.638 110.201C187.086 110.201 188.261 109.027 188.261 107.578C188.261 106.13 187.086 104.956 185.638 104.956C184.189 104.956 183.015 106.13 183.015 107.578C183.015 109.027 184.189 110.201 185.638 110.201Z" fill="#4C8BAA"/>
<path d="M199.71 109.817C200.946 109.817 201.949 108.815 201.949 107.578C201.949 106.342 200.946 105.339 199.71 105.339C198.473 105.339 197.471 106.342 197.471 107.578C197.471 108.815 198.473 109.817 199.71 109.817Z" fill="#4C8BAA"/>
<path d="M30.3849 95.1047C31.3035 95.1047 32.0485 94.36 32.0485 93.4414C32.0485 92.5229 31.3035 91.7783 30.3849 91.7783C29.4664 91.7783 28.722 92.5229 28.722 93.4414C28.722 94.36 29.4664 95.1047 30.3849 95.1047Z" fill="#4C8BAA"/>
<path d="M44.522 95.1047C45.4406 95.1047 46.185 94.36 46.185 93.4414C46.185 92.5229 45.4406 91.7783 44.522 91.7783C43.6035 91.7783 42.8585 92.5229 42.8585 93.4414C42.8585 94.36 43.6035 95.1047 44.522 95.1047Z" fill="#4C8BAA"/>
<path d="M58.6595 95.1047C59.5781 95.1047 60.3231 94.36 60.3231 93.4414C60.3231 92.5229 59.5781 91.7783 58.6595 91.7783C57.741 91.7783 56.9966 92.5229 56.9966 93.4414C56.9966 94.36 57.741 95.1047 58.6595 95.1047Z" fill="#4C8BAA"/>
<path d="M72.7316 95.3601C73.7915 95.3601 74.6507 94.5009 74.6507 93.441C74.6507 92.3812 73.7915 91.522 72.7316 91.522C71.6718 91.522 70.8126 92.3812 70.8126 93.441C70.8126 94.5009 71.6718 95.3601 72.7316 95.3601Z" fill="#4C8BAA"/>
<path d="M86.8695 95.5523C88.0354 95.5523 88.9804 94.6072 88.9804 93.4413C88.9804 92.2755 88.0354 91.3303 86.8695 91.3303C85.7037 91.3303 84.7581 92.2755 84.7581 93.4413C84.7581 94.6072 85.7037 95.5523 86.8695 95.5523Z" fill="#4C8BAA"/>
<path d="M100.942 95.9998C102.356 95.9998 103.501 94.8542 103.501 93.4411C103.501 92.0279 102.356 90.8823 100.942 90.8823C99.5293 90.8823 98.3837 92.0279 98.3837 93.4411C98.3837 94.8542 99.5293 95.9998 100.942 95.9998Z" fill="#4C8BAA"/>
<path d="M115.08 95.9998C116.493 95.9998 117.639 94.8542 117.639 93.4411C117.639 92.0279 116.493 90.8823 115.08 90.8823C113.667 90.8823 112.521 92.0279 112.521 93.4411C112.521 94.8542 113.667 95.9998 115.08 95.9998Z" fill="#4C8BAA"/>
<path d="M129.217 96.064C130.666 96.064 131.84 94.8897 131.84 93.4412C131.84 91.9927 130.666 90.8186 129.217 90.8186C127.769 90.8186 126.595 91.9927 126.595 93.4412C126.595 94.8897 127.769 96.064 129.217 96.064Z" fill="#4C8BAA"/>
<path d="M143.289 95.3601C144.349 95.3601 145.208 94.5009 145.208 93.441C145.208 92.3812 144.349 91.522 143.289 91.522C142.23 91.522 141.37 92.3812 141.37 93.441C141.37 94.5009 142.23 95.3601 143.289 95.3601Z" fill="#4C8BAA"/>
<path d="M157.428 95.0405C158.312 95.0405 159.028 94.3245 159.028 93.4413C159.028 92.558 158.312 91.842 157.428 91.842C156.545 91.842 155.829 92.558 155.829 93.4413C155.829 94.3245 156.545 95.0405 157.428 95.0405Z" fill="#4C8BAA"/>
<path d="M171.501 96.4476C173.161 96.4476 174.508 95.1015 174.508 93.4411C174.508 91.7806 173.161 90.4346 171.501 90.4346C169.84 90.4346 168.494 91.7806 168.494 93.4411C168.494 95.1015 169.84 96.4476 171.501 96.4476Z" fill="#4C8BAA"/>
<path d="M185.637 95.3601C186.697 95.3601 187.556 94.5009 187.556 93.441C187.556 92.3812 186.697 91.522 185.637 91.522C184.577 91.522 183.718 92.3812 183.718 93.441C183.718 94.5009 184.577 95.3601 185.637 95.3601Z" fill="#4C8BAA"/>
<path d="M199.711 96.064C201.16 96.064 202.334 94.8897 202.334 93.4412C202.334 91.9927 201.16 90.8186 199.711 90.8186C198.263 90.8186 197.089 91.9927 197.089 93.4412C197.089 94.8897 198.263 96.064 199.711 96.064Z" fill="#4C8BAA"/>
<path d="M16.3119 80.9675C17.2305 80.9675 17.9755 80.2229 17.9755 79.3044C17.9755 78.3858 17.2305 77.6411 16.3119 77.6411C15.3934 77.6411 14.649 78.3858 14.649 79.3044C14.649 80.2229 15.3934 80.9675 16.3119 80.9675Z" fill="#4C8BAA"/>
<path d="M30.3854 81.4793C31.5866 81.4793 32.5606 80.5056 32.5606 79.3044C32.5606 78.1032 31.5866 77.1294 30.3854 77.1294C29.1843 77.1294 28.2109 78.1032 28.2109 79.3044C28.2109 80.5056 29.1843 81.4793 30.3854 81.4793Z" fill="#4C8BAA"/>
<path d="M44.522 81.4793C45.7232 81.4793 46.6965 80.5056 46.6965 79.3044C46.6965 78.1032 45.7232 77.1294 44.522 77.1294C43.3208 77.1294 42.3468 78.1032 42.3468 79.3044C42.3468 80.5056 43.3208 81.4793 44.522 81.4793Z" fill="#4C8BAA"/>
<path d="M58.6592 81.9909C60.143 81.9909 61.346 80.7881 61.346 79.3042C61.346 77.8204 60.143 76.6174 58.6592 76.6174C57.1754 76.6174 55.9724 77.8204 55.9724 79.3042C55.9724 80.7881 57.1754 81.9909 58.6592 81.9909Z" fill="#4C8BAA"/>
<path d="M72.7322 81.8631C74.1454 81.8631 75.291 80.7175 75.291 79.3044C75.291 77.8912 74.1454 76.7456 72.7322 76.7456C71.3191 76.7456 70.1735 77.8912 70.1735 79.3044C70.1735 80.7175 71.3191 81.8631 72.7322 81.8631Z" fill="#4C8BAA"/>
<path d="M86.8705 80.8396C87.7184 80.8396 88.4054 80.1523 88.4054 79.3044C88.4054 78.4565 87.7184 77.769 86.8705 77.769C86.0226 77.769 85.335 78.4565 85.335 79.3044C85.335 80.1523 86.0226 80.8396 86.8705 80.8396Z" fill="#4C8BAA"/>
<path d="M100.942 81.8631C102.356 81.8631 103.501 80.7175 103.501 79.3044C103.501 77.8912 102.356 76.7456 100.942 76.7456C99.5293 76.7456 98.3837 77.8912 98.3837 79.3044C98.3837 80.7175 99.5293 81.8631 100.942 81.8631Z" fill="#4C8BAA"/>
<path d="M115.08 82.3748C116.775 82.3748 118.15 81.0002 118.15 79.3044C118.15 77.6086 116.775 76.2339 115.08 76.2339C113.384 76.2339 112.009 77.6086 112.009 79.3044C112.009 81.0002 113.384 82.3748 115.08 82.3748Z" fill="#4C8BAA"/>
<path d="M129.217 81.9268C130.666 81.9268 131.84 80.7527 131.84 79.3042C131.84 77.8557 130.666 76.6814 129.217 76.6814C127.769 76.6814 126.595 77.8557 126.595 79.3042C126.595 80.7527 127.769 81.9268 129.217 81.9268Z" fill="#4C8BAA"/>
<path d="M143.289 82.3748C144.985 82.3748 146.36 81.0002 146.36 79.3044C146.36 77.6086 144.985 76.2339 143.289 76.2339C141.593 76.2339 140.219 77.6086 140.219 79.3044C140.219 81.0002 141.593 82.3748 143.289 82.3748Z" fill="#4C8BAA"/>
<path d="M157.428 82.3748C159.124 82.3748 160.498 81.0002 160.498 79.3044C160.498 77.6086 159.124 76.2339 157.428 76.2339C155.732 76.2339 154.358 77.6086 154.358 79.3044C154.358 81.0002 155.732 82.3748 157.428 82.3748Z" fill="#4C8BAA"/>
<path d="M171.5 82.5665C173.302 82.5665 174.762 81.106 174.762 79.3042C174.762 77.5024 173.302 76.0417 171.5 76.0417C169.698 76.0417 168.237 77.5024 168.237 79.3042C168.237 81.106 169.698 82.5665 171.5 82.5665Z" fill="#4C8BAA"/>
<path d="M185.637 81.5432C186.873 81.5432 187.876 80.5408 187.876 79.3043C187.876 78.0678 186.873 77.0654 185.637 77.0654C184.4 77.0654 183.398 78.0678 183.398 79.3043C183.398 80.5408 184.4 81.5432 185.637 81.5432Z" fill="#4C8BAA"/>
<path d="M199.71 82.1188C201.265 82.1188 202.525 80.8587 202.525 79.3042C202.525 77.7497 201.265 76.4895 199.71 76.4895C198.156 76.4895 196.896 77.7497 196.896 79.3042C196.896 80.8587 198.156 82.1188 199.71 82.1188Z" fill="#4C8BAA"/>
<path d="M199.71 54.1645C201.405 54.1645 202.78 52.7898 202.78 51.094C202.78 49.3982 201.405 48.0234 199.71 48.0234C198.014 48.0234 196.639 49.3982 196.639 51.094C196.639 52.7898 198.014 54.1645 199.71 54.1645Z" fill="#4C8BAA"/>
<path d="M185.637 54.1645C187.333 54.1645 188.708 52.7898 188.708 51.094C188.708 49.3982 187.333 48.0234 185.637 48.0234C183.942 48.0234 182.567 49.3982 182.567 51.094C182.567 52.7898 183.942 54.1645 185.637 54.1645Z" fill="#4C8BAA"/>
<path d="M171.5 54.3565C173.302 54.3565 174.762 52.8958 174.762 51.094C174.762 49.2922 173.302 47.8315 171.5 47.8315C169.698 47.8315 168.237 49.2922 168.237 51.094C168.237 52.8958 169.698 54.3565 171.5 54.3565Z" fill="#4C8BAA"/>
<path d="M157.428 53.3328C158.665 53.3328 159.667 52.3304 159.667 51.0939C159.667 49.8574 158.665 48.855 157.428 48.855C156.192 48.855 155.189 49.8574 155.189 51.0939C155.189 52.3304 156.192 53.3328 157.428 53.3328Z" fill="#4C8BAA"/>
<path d="M143.29 53.9084C144.844 53.9084 146.105 52.6483 146.105 51.0939C146.105 49.5394 144.844 48.2793 143.29 48.2793C141.735 48.2793 140.476 49.5394 140.476 51.0939C140.476 52.6483 141.735 53.9084 143.29 53.9084Z" fill="#4C8BAA"/>
<path d="M129.216 53.2049C130.381 53.2049 131.327 52.2598 131.327 51.0939C131.327 49.9281 130.381 48.9829 129.216 48.9829C128.05 48.9829 127.105 49.9281 127.105 51.0939C127.105 52.2598 128.05 53.2049 129.216 53.2049Z" fill="#4C8BAA"/>
<path d="M115.08 53.3328C116.316 53.3328 117.319 52.3304 117.319 51.0939C117.319 49.8574 116.316 48.855 115.08 48.855C113.843 48.855 112.841 49.8574 112.841 51.0939C112.841 52.3304 113.843 53.3328 115.08 53.3328Z" fill="#4C8BAA"/>
<path d="M100.943 54.4844C102.815 54.4844 104.333 52.9664 104.333 51.094C104.333 49.2216 102.815 47.7036 100.943 47.7036C99.0703 47.7036 97.5519 49.2216 97.5519 51.094C97.5519 52.9664 99.0703 54.4844 100.943 54.4844Z" fill="#4C8BAA"/>
<path d="M86.8701 53.8449C88.3893 53.8449 89.6206 52.6133 89.6206 51.0942C89.6206 49.575 88.3893 48.3435 86.8701 48.3435C85.351 48.3435 84.119 49.575 84.119 51.0942C84.119 52.6133 85.351 53.8449 86.8701 53.8449Z" fill="#4C8BAA"/>
<path d="M72.732 54.2924C74.4985 54.2924 75.9304 52.8604 75.9304 51.0939C75.9304 49.3275 74.4985 47.8955 72.732 47.8955C70.9656 47.8955 69.5336 49.3275 69.5336 51.0939C69.5336 52.8604 70.9656 54.2924 72.732 54.2924Z" fill="#4C8BAA"/>
<path d="M58.6599 54.0366C60.285 54.0366 61.6028 52.7191 61.6028 51.094C61.6028 49.4689 60.285 48.1514 58.6599 48.1514C57.0348 48.1514 55.7176 49.4689 55.7176 51.094C55.7176 52.7191 57.0348 54.0366 58.6599 54.0366Z" fill="#4C8BAA"/>
<path d="M44.5226 53.8449C46.0418 53.8449 47.2732 52.6133 47.2732 51.0942C47.2732 49.575 46.0418 48.3435 44.5226 48.3435C43.0035 48.3435 41.7721 49.575 41.7721 51.0942C41.7721 52.6133 43.0035 53.8449 44.5226 53.8449Z" fill="#4C8BAA"/>
<path d="M30.3853 54.0366C32.0104 54.0366 33.3282 52.7191 33.3282 51.094C33.3282 49.4689 32.0104 48.1514 30.3853 48.1514C28.7602 48.1514 27.443 49.4689 27.443 51.094C27.443 52.7191 28.7602 54.0366 30.3853 54.0366Z" fill="#4C8BAA"/>
<path d="M16.3121 52.5013C17.0893 52.5013 17.7195 51.8713 17.7195 51.094C17.7195 50.3168 17.0893 49.6868 16.3121 49.6868C15.5348 49.6868 14.9053 50.3168 14.9053 51.094C14.9053 51.8713 15.5348 52.5013 16.3121 52.5013Z" fill="#4C8BAA"/>
<path d="M199.71 68.3015C201.405 68.3015 202.78 66.927 202.78 65.2312C202.78 63.5354 201.405 62.1606 199.71 62.1606C198.014 62.1606 196.639 63.5354 196.639 65.2312C196.639 66.927 198.014 68.3015 199.71 68.3015Z" fill="#4C8BAA"/>
<path d="M185.637 68.3015C187.333 68.3015 188.708 66.927 188.708 65.2312C188.708 63.5354 187.333 62.1606 185.637 62.1606C183.942 62.1606 182.567 63.5354 182.567 65.2312C182.567 66.927 183.942 68.3015 185.637 68.3015Z" fill="#4C8BAA"/>
<path d="M171.5 68.4935C173.302 68.4935 174.762 67.033 174.762 65.2312C174.762 63.4294 173.302 61.9688 171.5 61.9688C169.698 61.9688 168.237 63.4294 168.237 65.2312C168.237 67.033 169.698 68.4935 171.5 68.4935Z" fill="#4C8BAA"/>
<path d="M157.428 67.47C158.665 67.47 159.667 66.4676 159.667 65.2311C159.667 63.9946 158.665 62.9922 157.428 62.9922C156.192 62.9922 155.189 63.9946 155.189 65.2311C155.189 66.4676 156.192 67.47 157.428 67.47Z" fill="#4C8BAA"/>
<path d="M143.29 68.0455C144.844 68.0455 146.105 66.7854 146.105 65.231C146.105 63.6765 144.844 62.4163 143.29 62.4163C141.735 62.4163 140.476 63.6765 140.476 65.231C140.476 66.7854 141.735 68.0455 143.29 68.0455Z" fill="#4C8BAA"/>
<path d="M129.216 67.342C130.381 67.342 131.327 66.397 131.327 65.2311C131.327 64.0653 130.381 63.1201 129.216 63.1201C128.05 63.1201 127.105 64.0653 127.105 65.2311C127.105 66.397 128.05 67.342 129.216 67.342Z" fill="#4C8BAA"/>
<path d="M115.08 67.47C116.316 67.47 117.319 66.4676 117.319 65.2311C117.319 63.9946 116.316 62.9922 115.08 62.9922C113.843 62.9922 112.841 63.9946 112.841 65.2311C112.841 66.4676 113.843 67.47 115.08 67.47Z" fill="#4C8BAA"/>
<path d="M100.943 68.6214C102.815 68.6214 104.333 67.1036 104.333 65.2312C104.333 63.3588 102.815 61.8408 100.943 61.8408C99.0703 61.8408 97.5519 63.3588 97.5519 65.2312C97.5519 67.1036 99.0703 68.6214 100.943 68.6214Z" fill="#4C8BAA"/>
<path d="M86.8701 67.9817C88.3893 67.9817 89.6206 66.7503 89.6206 65.2312C89.6206 63.712 88.3893 62.4805 86.8701 62.4805C85.351 62.4805 84.119 63.712 84.119 65.2312C84.119 66.7503 85.351 67.9817 86.8701 67.9817Z" fill="#4C8BAA"/>
<path d="M72.732 68.4296C74.4985 68.4296 75.9304 66.9976 75.9304 65.2311C75.9304 63.4647 74.4985 62.0327 72.732 62.0327C70.9656 62.0327 69.5336 63.4647 69.5336 65.2311C69.5336 66.9976 70.9656 68.4296 72.732 68.4296Z" fill="#4C8BAA"/>
<path d="M58.6599 68.1737C60.285 68.1737 61.6028 66.8563 61.6028 65.2312C61.6028 63.6061 60.285 62.2886 58.6599 62.2886C57.0348 62.2886 55.7176 63.6061 55.7176 65.2312C55.7176 66.8563 57.0348 68.1737 58.6599 68.1737Z" fill="#4C8BAA"/>
<path d="M44.5226 67.9817C46.0418 67.9817 47.2732 66.7503 47.2732 65.2312C47.2732 63.712 46.0418 62.4805 44.5226 62.4805C43.0035 62.4805 41.7721 63.712 41.7721 65.2312C41.7721 66.7503 43.0035 67.9817 44.5226 67.9817Z" fill="#4C8BAA"/>
<path d="M30.3853 68.1737C32.0104 68.1737 33.3282 66.8563 33.3282 65.2312C33.3282 63.6061 32.0104 62.2886 30.3853 62.2886C28.7602 62.2886 27.443 63.6061 27.443 65.2312C27.443 66.8563 28.7602 68.1737 30.3853 68.1737Z" fill="#4C8BAA"/>
<path d="M16.3121 66.6384C17.0893 66.6384 17.7195 66.0084 17.7195 65.2312C17.7195 64.4539 17.0893 63.8237 16.3121 63.8237C15.5348 63.8237 14.9053 64.4539 14.9053 65.2312C14.9053 66.0084 15.5348 66.6384 16.3121 66.6384Z" fill="#4C8BAA"/>
</svg>
