<svg width="92" height="569" viewBox="0 0 92 569" fill="none" xmlns="http://www.w3.org/2000/svg">
<path d="M88.2364 94.9825C89.1926 94.9825 89.9675 94.2075 89.9675 93.2512C89.9675 92.2949 89.1926 91.5197 88.2364 91.5197C87.2801 91.5197 86.5052 92.2949 86.5052 93.2512C86.5052 94.2075 87.2801 94.9825 88.2364 94.9825Z" fill="#141414"/>
<path d="M88.2368 186.914C89.785 186.914 91.0404 185.659 91.0404 184.111C91.0404 182.563 89.785 181.308 88.2368 181.308C86.6886 181.308 85.4332 182.563 85.4332 184.111C85.4332 185.659 86.6886 186.914 88.2368 186.914Z" fill="#141414"/>
<path d="M88.2368 277.857C89.785 277.857 91.0404 276.602 91.0404 275.054C91.0404 273.506 89.785 272.25 88.2368 272.25C86.6886 272.25 85.4332 273.506 85.4332 275.054C85.4332 276.602 86.6886 277.857 88.2368 277.857Z" fill="#141414"/>
<path d="M88.2361 167.786C89.2379 167.786 90.0501 166.974 90.0501 165.972C90.0501 164.97 89.2379 164.158 88.2361 164.158C87.2343 164.158 86.422 164.97 86.422 165.972C86.422 166.974 87.2343 167.786 88.2361 167.786Z" fill="#141414"/>
<path d="M88.2361 240.507C89.2379 240.507 90.0501 239.695 90.0501 238.693C90.0501 237.691 89.2379 236.879 88.2361 236.879C87.2343 236.879 86.422 237.691 86.422 238.693C86.422 239.695 87.2343 240.507 88.2361 240.507Z" fill="#141414"/>
<path d="M-2.70547 206.455C-0.428668 206.455 1.41704 204.61 1.41704 202.333C1.41704 200.056 -0.428668 198.21 -2.70547 198.21C-4.98226 198.21 -6.82797 200.056 -6.82797 202.333C-6.82797 204.61 -4.98226 206.455 -2.70547 206.455Z" fill="#141414"/>
<path d="M15.4342 206.703C17.8476 206.703 19.8039 204.746 19.8039 202.333C19.8039 199.919 17.8476 197.963 15.4342 197.963C13.0208 197.963 11.0645 199.919 11.0645 202.333C11.0645 204.746 13.0208 206.703 15.4342 206.703Z" fill="#141414"/>
<path d="M33.6554 205.713C35.5224 205.713 37.0363 204.199 37.0363 202.332C37.0363 200.466 35.5224 198.952 33.6554 198.952C31.7884 198.952 30.2753 200.466 30.2753 202.332C30.2753 204.199 31.7884 205.713 33.6554 205.713Z" fill="#141414"/>
<path d="M51.8749 206.125C53.9695 206.125 55.6672 204.427 55.6672 202.332C55.6672 200.238 53.9695 198.54 51.8749 198.54C49.7802 198.54 48.0817 200.238 48.0817 202.332C48.0817 204.427 49.7802 206.125 51.8749 206.125Z" fill="#141414"/>
<path d="M70.0163 204.147C71.0181 204.147 71.8296 203.334 71.8296 202.333C71.8296 201.331 71.0181 200.519 70.0163 200.519C69.0145 200.519 68.2023 201.331 68.2023 202.333C68.2023 203.334 69.0145 204.147 70.0163 204.147Z" fill="#141414"/>
<path d="M-2.70547 224.677C-0.428668 224.677 1.41704 222.831 1.41704 220.554C1.41704 218.277 -0.428668 216.432 -2.70547 216.432C-4.98226 216.432 -6.82797 218.277 -6.82797 220.554C-6.82797 222.831 -4.98226 224.677 -2.70547 224.677Z" fill="#141414"/>
<path d="M15.4332 224.347C17.5279 224.347 19.2256 222.649 19.2256 220.554C19.2256 218.459 17.5279 216.761 15.4332 216.761C13.3386 216.761 11.64 218.459 11.64 220.554C11.64 222.649 13.3386 224.347 15.4332 224.347Z" fill="#141414"/>
<path d="M33.6554 223.935C35.5224 223.935 37.0363 222.421 37.0363 220.554C37.0363 218.687 35.5224 217.174 33.6554 217.174C31.7884 217.174 30.2753 218.687 30.2753 220.554C30.2753 222.421 31.7884 223.935 33.6554 223.935Z" fill="#141414"/>
<path d="M51.8749 224.347C53.9695 224.347 55.6672 222.649 55.6672 220.554C55.6672 218.459 53.9695 216.761 51.8749 216.761C49.7802 216.761 48.0817 218.459 48.0817 220.554C48.0817 222.649 49.7802 224.347 51.8749 224.347Z" fill="#141414"/>
<path d="M70.0163 222.368C71.0181 222.368 71.8296 221.556 71.8296 220.554C71.8296 219.552 71.0181 218.74 70.0163 218.74C69.0145 218.74 68.2023 219.552 68.2023 220.554C68.2023 221.556 69.0145 222.368 70.0163 222.368Z" fill="#141414"/>
<path d="M-2.70547 242.816C-0.428668 242.816 1.41704 240.97 1.41704 238.693C1.41704 236.416 -0.428668 234.571 -2.70547 234.571C-4.98226 234.571 -6.82797 236.416 -6.82797 238.693C-6.82797 240.97 -4.98226 242.816 -2.70547 242.816Z" fill="#141414"/>
<path d="M15.4344 242.651C17.6201 242.651 19.3918 240.879 19.3918 238.693C19.3918 236.507 17.6201 234.735 15.4344 234.735C13.2486 234.735 11.4769 236.507 11.4769 238.693C11.4769 240.879 13.2486 242.651 15.4344 242.651Z" fill="#141414"/>
<path d="M33.6532 242.238C35.6113 242.238 37.1984 240.651 37.1984 238.693C37.1984 236.735 35.6113 235.148 33.6532 235.148C31.6952 235.148 30.108 236.735 30.108 238.693C30.108 240.651 31.6952 242.238 33.6532 242.238Z" fill="#141414"/>
<path d="M51.8749 242.486C53.9695 242.486 55.6672 240.788 55.6672 238.693C55.6672 236.598 53.9695 234.9 51.8749 234.9C49.7802 234.9 48.0817 236.598 48.0817 238.693C48.0817 240.788 49.7802 242.486 51.8749 242.486Z" fill="#141414"/>
<path d="M70.0163 240.507C71.0181 240.507 71.8296 239.695 71.8296 238.693C71.8296 237.691 71.0181 236.879 70.0163 236.879C69.0145 236.879 68.2023 237.691 68.2023 238.693C68.2023 239.695 69.0145 240.507 70.0163 240.507Z" fill="#141414"/>
<path d="M-2.70547 261.037C-0.428668 261.037 1.41704 259.192 1.41704 256.915C1.41704 254.638 -0.428668 252.792 -2.70547 252.792C-4.98226 252.792 -6.82797 254.638 -6.82797 256.915C-6.82797 259.192 -4.98226 261.037 -2.70547 261.037Z" fill="#141414"/>
<path d="M15.4342 261.284C17.8476 261.284 19.8039 259.328 19.8039 256.915C19.8039 254.501 17.8476 252.545 15.4342 252.545C13.0208 252.545 11.0645 254.501 11.0645 256.915C11.0645 259.328 13.0208 261.284 15.4342 261.284Z" fill="#141414"/>
<path d="M33.653 261.284C36.0664 261.284 38.0227 259.328 38.0227 256.915C38.0227 254.501 36.0664 252.545 33.653 252.545C31.2396 252.545 29.2833 254.501 29.2833 256.915C29.2833 259.328 31.2396 261.284 33.653 261.284Z" fill="#141414"/>
<path d="M51.8749 260.707C53.9695 260.707 55.6672 259.009 55.6672 256.915C55.6672 254.82 53.9695 253.122 51.8749 253.122C49.7802 253.122 48.0817 254.82 48.0817 256.915C48.0817 259.009 49.7802 260.707 51.8749 260.707Z" fill="#141414"/>
<path d="M70.0163 258.729C71.0181 258.729 71.8296 257.917 71.8296 256.915C71.8296 255.913 71.0181 255.101 70.0163 255.101C69.0145 255.101 68.2023 255.913 68.2023 256.915C68.2023 257.917 69.0145 258.729 70.0163 258.729Z" fill="#141414"/>
<path d="M-2.70547 279.176C-0.428668 279.176 1.41704 277.331 1.41704 275.054C1.41704 272.777 -0.428668 270.931 -2.70547 270.931C-4.98226 270.931 -6.82797 272.777 -6.82797 275.054C-6.82797 277.331 -4.98226 279.176 -2.70547 279.176Z" fill="#141414"/>
<path d="M15.433 279.671C17.983 279.671 20.0499 277.604 20.0499 275.054C20.0499 272.504 17.983 270.437 15.433 270.437C12.883 270.437 10.8153 272.504 10.8153 275.054C10.8153 277.604 12.883 279.671 15.433 279.671Z" fill="#141414"/>
<path d="M33.6541 279.176C35.9309 279.176 37.7766 277.331 37.7766 275.054C37.7766 272.777 35.9309 270.931 33.6541 270.931C31.3773 270.931 29.5316 272.777 29.5316 275.054C29.5316 277.331 31.3773 279.176 33.6541 279.176Z" fill="#141414"/>
<path d="M51.8749 278.846C53.9695 278.846 55.6672 277.148 55.6672 275.054C55.6672 272.959 53.9695 271.261 51.8749 271.261C49.7802 271.261 48.0817 272.959 48.0817 275.054C48.0817 277.148 49.7802 278.846 51.8749 278.846Z" fill="#141414"/>
<path d="M70.0163 276.868C71.0181 276.868 71.8296 276.055 71.8296 275.054C71.8296 274.052 71.0181 273.24 70.0163 273.24C69.0145 273.24 68.2023 274.052 68.2023 275.054C68.2023 276.055 69.0145 276.868 70.0163 276.868Z" fill="#141414"/>
<path d="M51.8767 3.95773C52.7874 3.95773 53.5257 3.21945 53.5257 2.30873C53.5257 1.39801 52.7874 0.659729 51.8767 0.659729C50.966 0.659729 50.2277 1.39801 50.2277 2.30873C50.2277 3.21945 50.966 3.95773 51.8767 3.95773Z" fill="#141414"/>
<path d="M15.4329 4.61729C16.7079 4.61729 17.7413 3.58365 17.7413 2.30864C17.7413 1.03364 16.7079 0 15.4329 0C14.1579 0 13.1245 1.03364 13.1245 2.30864C13.1245 3.58365 14.1579 4.61729 15.4329 4.61729Z" fill="#141414"/>
<path d="M88.2383 22.3442C89.2856 22.3442 90.1345 21.4951 90.1345 20.4478C90.1345 19.4004 89.2856 18.5514 88.2383 18.5514C87.191 18.5514 86.3421 19.4004 86.3421 20.4478C86.3421 21.4951 87.191 22.3442 88.2383 22.3442Z" fill="#141414"/>
<path d="M70.0152 22.5913C71.1991 22.5913 72.1585 21.6316 72.1585 20.4477C72.1585 19.2637 71.1991 18.3039 70.0152 18.3039C68.8312 18.3039 67.871 19.2637 67.871 20.4477C67.871 21.6316 68.8312 22.5913 70.0152 22.5913Z" fill="#141414"/>
<path d="M51.8744 22.5913C53.0583 22.5913 54.0177 21.6316 54.0177 20.4477C54.0177 19.2637 53.0583 18.3039 51.8744 18.3039C50.6904 18.3039 49.7302 19.2637 49.7302 20.4477C49.7302 21.6316 50.6904 22.5913 51.8744 22.5913Z" fill="#141414"/>
<path d="M33.6548 22.5913C34.8387 22.5913 35.799 21.6316 35.799 20.4477C35.799 19.2637 34.8387 18.3039 33.6548 18.3039C32.4709 18.3039 31.5114 19.2637 31.5114 20.4477C31.5114 21.6316 32.4709 22.5913 33.6548 22.5913Z" fill="#141414"/>
<path d="M15.433 22.3442C16.4804 22.3442 17.3292 21.4951 17.3292 20.4478C17.3292 19.4004 16.4804 18.5514 15.433 18.5514C14.3857 18.5514 13.5368 19.4004 13.5368 20.4478C13.5368 21.4951 14.3857 22.3442 15.433 22.3442Z" fill="#141414"/>
<path d="M70.0153 40.4006C70.9715 40.4006 71.7464 39.6253 71.7464 38.6691C71.7464 37.7128 70.9715 36.9377 70.0153 36.9377C69.059 36.9377 68.2834 37.7128 68.2834 38.6691C68.2834 39.6253 69.059 40.4006 70.0153 40.4006Z" fill="#141414"/>
<path d="M51.8767 40.3181C52.7874 40.3181 53.5257 39.5798 53.5257 38.6691C53.5257 37.7583 52.7874 37.0201 51.8767 37.0201C50.966 37.0201 50.2277 37.7583 50.2277 38.6691C50.2277 39.5798 50.966 40.3181 51.8767 40.3181Z" fill="#141414"/>
<path d="M33.655 40.648C34.7479 40.648 35.6341 39.762 35.6341 38.6691C35.6341 37.5762 34.7479 36.6904 33.655 36.6904C32.5622 36.6904 31.6767 37.5762 31.6767 38.6691C31.6767 39.762 32.5622 40.648 33.655 40.648Z" fill="#141414"/>
<path d="M15.4329 40.9775C16.7079 40.9775 17.7413 39.9439 17.7413 38.6689C17.7413 37.3939 16.7079 36.3605 15.4329 36.3605C14.1579 36.3605 13.1245 37.3939 13.1245 38.6689C13.1245 39.9439 14.1579 40.9775 15.4329 40.9775Z" fill="#141414"/>
<path d="M70.0152 58.9519C71.1991 58.9519 72.1585 57.992 72.1585 56.8081C72.1585 55.6241 71.1991 54.6645 70.0152 54.6645C68.8312 54.6645 67.871 55.6241 67.871 56.8081C67.871 57.992 68.8312 58.9519 70.0152 58.9519Z" fill="#141414"/>
<path d="M51.8775 59.4466C53.3346 59.4466 54.5152 58.2652 54.5152 56.808C54.5152 55.3509 53.3346 54.1697 51.8775 54.1697C50.4203 54.1697 49.2389 55.3509 49.2389 56.808C49.2389 58.2652 50.4203 59.4466 51.8775 59.4466Z" fill="#141414"/>
<path d="M33.655 58.787C34.7479 58.787 35.6341 57.901 35.6341 56.8081C35.6341 55.7153 34.7479 54.8294 33.655 54.8294C32.5622 54.8294 31.6767 55.7153 31.6767 56.8081C31.6767 57.901 32.5622 58.787 33.655 58.787Z" fill="#141414"/>
<path d="M15.4329 58.6221C16.4347 58.6221 17.247 57.8098 17.247 56.808C17.247 55.8062 16.4347 54.9942 15.4329 54.9942C14.4311 54.9942 13.6189 55.8062 13.6189 56.808C13.6189 57.8098 14.4311 58.6221 15.4329 58.6221Z" fill="#141414"/>
<path d="M70.0152 77.1734C71.1991 77.1734 72.1585 76.2135 72.1585 75.0296C72.1585 73.8457 71.1991 72.8858 70.0152 72.8858C68.8312 72.8858 67.871 73.8457 67.871 75.0296C67.871 76.2135 68.8312 77.1734 70.0152 77.1734Z" fill="#141414"/>
<path d="M51.8775 77.668C53.3346 77.668 54.5152 76.4867 54.5152 75.0296C54.5152 73.5724 53.3346 72.3912 51.8775 72.3912C50.4203 72.3912 49.2389 73.5724 49.2389 75.0296C49.2389 76.4867 50.4203 77.668 51.8775 77.668Z" fill="#141414"/>
<path d="M33.6545 78.0802C35.3393 78.0802 36.7053 76.7144 36.7053 75.0296C36.7053 73.3448 35.3393 71.979 33.6545 71.979C31.9697 71.979 30.6037 73.3448 30.6037 75.0296C30.6037 76.7144 31.9697 78.0802 33.6545 78.0802Z" fill="#141414"/>
<path d="M15.4337 77.668C16.8908 77.668 18.0722 76.4867 18.0722 75.0296C18.0722 73.5724 16.8908 72.3912 15.4337 72.3912C13.9765 72.3912 12.7951 73.5724 12.7951 75.0296C12.7951 76.4867 13.9765 77.668 15.4337 77.668Z" fill="#141414"/>
<path d="M-2.70524 78.4925C-0.792727 78.4925 0.757829 76.9421 0.757829 75.0296C0.757829 73.1171 -0.792727 71.5667 -2.70524 71.5667C-4.61775 71.5667 -6.1683 73.1171 -6.1683 75.0296C-6.1683 76.9421 -4.61775 78.4925 -2.70524 78.4925Z" fill="#141414"/>
<path d="M70.0162 95.4774C71.2457 95.4774 72.2417 94.4807 72.2417 93.2513C72.2417 92.0218 71.2457 91.0249 70.0162 91.0249C68.7868 91.0249 67.7899 92.0218 67.7899 93.2513C67.7899 94.4807 68.7868 95.4774 70.0162 95.4774Z" fill="#141414"/>
<path d="M51.8775 95.8896C53.3346 95.8896 54.5152 94.7084 54.5152 93.2513C54.5152 91.7941 53.3346 90.6127 51.8775 90.6127C50.4203 90.6127 49.2389 91.7941 49.2389 93.2513C49.2389 94.7084 50.4203 95.8896 51.8775 95.8896Z" fill="#141414"/>
<path d="M33.6534 96.5491C35.4748 96.5491 36.9514 95.0725 36.9514 93.2511C36.9514 91.4296 35.4748 89.9531 33.6534 89.9531C31.8319 89.9531 30.3554 91.4296 30.3554 93.2511C30.3554 95.0725 31.8319 96.5491 33.6534 96.5491Z" fill="#141414"/>
<path d="M15.4328 95.4774C16.6623 95.4774 17.6591 94.4807 17.6591 93.2513C17.6591 92.0218 16.6623 91.0249 15.4328 91.0249C14.2034 91.0249 13.2065 92.0218 13.2065 93.2513C13.2065 94.4807 14.2034 95.4774 15.4328 95.4774Z" fill="#141414"/>
<path d="M-2.70523 96.5491C-0.883791 96.5491 0.592776 95.0725 0.592776 93.2511C0.592776 91.4296 -0.883791 89.9531 -2.70523 89.9531C-4.52667 89.9531 -6.00323 91.4296 -6.00323 93.2511C-6.00323 95.0725 -4.52667 96.5491 -2.70523 96.5491Z" fill="#141414"/>
<path d="M51.8763 114.193C53.4245 114.193 54.6791 112.938 54.6791 111.39C54.6791 109.842 53.4245 108.587 51.8763 108.587C50.328 108.587 49.0726 109.842 49.0726 111.39C49.0726 112.938 50.328 114.193 51.8763 114.193Z" fill="#141414"/>
<path d="M33.6548 114.193C35.203 114.193 36.4584 112.938 36.4584 111.39C36.4584 109.842 35.203 108.587 33.6548 108.587C32.1066 108.587 30.852 109.842 30.852 111.39C30.852 112.938 32.1066 114.193 33.6548 114.193Z" fill="#141414"/>
<path d="M15.4327 114.193C16.9809 114.193 18.2355 112.938 18.2355 111.39C18.2355 109.842 16.9809 108.587 15.4327 108.587C13.8845 108.587 12.6291 109.842 12.6291 111.39C12.6291 112.938 13.8845 114.193 15.4327 114.193Z" fill="#141414"/>
<path d="M-2.70523 114.688C-0.883791 114.688 0.592776 113.212 0.592776 111.39C0.592776 109.569 -0.883791 108.092 -2.70523 108.092C-4.52667 108.092 -6.00323 109.569 -6.00323 111.39C-6.00323 113.212 -4.52667 114.688 -2.70523 114.688Z" fill="#141414"/>
<path d="M51.8744 131.755C53.0583 131.755 54.0177 130.796 54.0177 129.612C54.0177 128.428 53.0583 127.468 51.8744 127.468C50.6904 127.468 49.7302 128.428 49.7302 129.612C49.7302 130.796 50.6904 131.755 51.8744 131.755Z" fill="#141414"/>
<path d="M33.6548 131.755C34.8387 131.755 35.799 130.796 35.799 129.612C35.799 128.428 34.8387 127.468 33.6548 127.468C32.4709 127.468 31.5114 128.428 31.5114 129.612C31.5114 130.796 32.4709 131.755 33.6548 131.755Z" fill="#141414"/>
<path d="M15.4337 131.755C16.6176 131.755 17.5771 130.796 17.5771 129.612C17.5771 128.428 16.6176 127.468 15.4337 127.468C14.2497 127.468 13.2895 128.428 13.2895 129.612C13.2895 130.796 14.2497 131.755 15.4337 131.755Z" fill="#141414"/>
<path d="M70.0152 149.894C71.1991 149.894 72.1585 148.935 72.1585 147.751C72.1585 146.567 71.1991 145.607 70.0152 145.607C68.8312 145.607 67.871 146.567 67.871 147.751C67.871 148.935 68.8312 149.894 70.0152 149.894Z" fill="#141414"/>
<path d="M51.8763 150.554C53.4245 150.554 54.6791 149.299 54.6791 147.75C54.6791 146.202 53.4245 144.947 51.8763 144.947C50.328 144.947 49.0726 146.202 49.0726 147.75C49.0726 149.299 50.328 150.554 51.8763 150.554Z" fill="#141414"/>
<path d="M33.6548 150.554C35.203 150.554 36.4584 149.299 36.4584 147.75C36.4584 146.202 35.203 144.947 33.6548 144.947C32.1066 144.947 30.852 146.202 30.852 147.75C30.852 149.299 32.1066 150.554 33.6548 150.554Z" fill="#141414"/>
<path d="M15.4334 151.214C17.3459 151.214 18.8965 149.663 18.8965 147.751C18.8965 145.838 17.3459 144.288 15.4334 144.288C13.5209 144.288 11.9704 145.838 11.9704 147.751C11.9704 149.663 13.5209 151.214 15.4334 151.214Z" fill="#141414"/>
<path d="M-2.70523 151.049C-0.883791 151.049 0.592776 149.572 0.592776 147.751C0.592776 145.929 -0.883791 144.453 -2.70523 144.453C-4.52667 144.453 -6.00323 145.929 -6.00323 147.751C-6.00323 149.572 -4.52667 151.049 -2.70523 151.049Z" fill="#141414"/>
<path d="M-2.70547 188.234C-0.428668 188.234 1.41704 186.388 1.41704 184.111C1.41704 181.834 -0.428668 179.989 -2.70547 179.989C-4.98226 179.989 -6.82797 181.834 -6.82797 184.111C-6.82797 186.388 -4.98226 188.234 -2.70547 188.234Z" fill="#141414"/>
<path d="M15.4332 187.904C17.5279 187.904 19.2256 186.206 19.2256 184.111C19.2256 182.017 17.5279 180.318 15.4332 180.318C13.3386 180.318 11.64 182.017 11.64 184.111C11.64 186.206 13.3386 187.904 15.4332 187.904Z" fill="#141414"/>
<path d="M33.6532 187.657C35.6113 187.657 37.1984 186.069 37.1984 184.111C37.1984 182.153 35.6113 180.566 33.6532 180.566C31.6952 180.566 30.108 182.153 30.108 184.111C30.108 186.069 31.6952 187.657 33.6532 187.657Z" fill="#141414"/>
<path d="M51.8749 187.904C53.9695 187.904 55.6672 186.206 55.6672 184.111C55.6672 182.017 53.9695 180.318 51.8749 180.318C49.7802 180.318 48.0817 182.017 48.0817 184.111C48.0817 186.206 49.7802 187.904 51.8749 187.904Z" fill="#141414"/>
<path d="M70.0163 185.925C71.0181 185.925 71.8296 185.113 71.8296 184.111C71.8296 183.109 71.0181 182.297 70.0163 182.297C69.0145 182.297 68.2023 183.109 68.2023 184.111C68.2023 185.113 69.0145 185.925 70.0163 185.925Z" fill="#141414"/>
<path d="M-2.70547 170.095C-0.428668 170.095 1.41704 168.249 1.41704 165.972C1.41704 163.695 -0.428668 161.85 -2.70547 161.85C-4.98226 161.85 -6.82797 163.695 -6.82797 165.972C-6.82797 168.249 -4.98226 170.095 -2.70547 170.095Z" fill="#141414"/>
<path d="M15.4332 169.765C17.5279 169.765 19.2256 168.067 19.2256 165.972C19.2256 163.878 17.5279 162.179 15.4332 162.179C13.3386 162.179 11.64 163.878 11.64 165.972C11.64 168.067 13.3386 169.765 15.4332 169.765Z" fill="#141414"/>
<path d="M33.6532 169.517C35.6113 169.517 37.1984 167.93 37.1984 165.972C37.1984 164.014 35.6113 162.427 33.6532 162.427C31.6952 162.427 30.108 164.014 30.108 165.972C30.108 167.93 31.6952 169.517 33.6532 169.517Z" fill="#141414"/>
<path d="M51.8749 169.765C53.9695 169.765 55.6672 168.067 55.6672 165.972C55.6672 163.878 53.9695 162.179 51.8749 162.179C49.7802 162.179 48.0817 163.878 48.0817 165.972C48.0817 168.067 49.7802 169.765 51.8749 169.765Z" fill="#141414"/>
<path d="M70.0163 167.786C71.0181 167.786 71.8296 166.974 71.8296 165.972C71.8296 164.97 71.0181 164.158 70.0163 164.158C69.0145 164.158 68.2023 164.97 68.2023 165.972C68.2023 166.974 69.0145 167.786 70.0163 167.786Z" fill="#141414"/>
<path d="M51.8767 567.752C52.7874 567.752 53.5257 567.014 53.5257 566.103C53.5257 565.192 52.7874 564.454 51.8767 564.454C50.966 564.454 50.2277 565.192 50.2277 566.103C50.2277 567.014 50.966 567.752 51.8767 567.752Z" fill="#141414"/>
<path d="M15.4329 568.411C16.7079 568.411 17.7413 567.378 17.7413 566.103C17.7413 564.828 16.7079 563.794 15.4329 563.794C14.1579 563.794 13.1245 564.828 13.1245 566.103C13.1245 567.378 14.1579 568.411 15.4329 568.411Z" fill="#141414"/>
<path d="M88.2383 549.778C89.2856 549.778 90.1345 548.929 90.1345 547.881C90.1345 546.834 89.2856 545.985 88.2383 545.985C87.191 545.985 86.3421 546.834 86.3421 547.881C86.3421 548.929 87.191 549.778 88.2383 549.778Z" fill="#141414"/>
<path d="M70.0152 550.025C71.1991 550.025 72.1585 549.065 72.1585 547.881C72.1585 546.697 71.1991 545.737 70.0152 545.737C68.8312 545.737 67.871 546.697 67.871 547.881C67.871 549.065 68.8312 550.025 70.0152 550.025Z" fill="#141414"/>
<path d="M51.8744 550.025C53.0583 550.025 54.0177 549.065 54.0177 547.881C54.0177 546.697 53.0583 545.737 51.8744 545.737C50.6904 545.737 49.7302 546.697 49.7302 547.881C49.7302 549.065 50.6904 550.025 51.8744 550.025Z" fill="#141414"/>
<path d="M33.6548 550.025C34.8387 550.025 35.799 549.065 35.799 547.881C35.799 546.697 34.8387 545.737 33.6548 545.737C32.4709 545.737 31.5114 546.697 31.5114 547.881C31.5114 549.065 32.4709 550.025 33.6548 550.025Z" fill="#141414"/>
<path d="M15.433 549.778C16.4804 549.778 17.3292 548.929 17.3292 547.881C17.3292 546.834 16.4804 545.985 15.433 545.985C14.3857 545.985 13.5368 546.834 13.5368 547.881C13.5368 548.929 14.3857 549.778 15.433 549.778Z" fill="#141414"/>
<path d="M70.0153 531.474C70.9715 531.474 71.7464 530.698 71.7464 529.742C71.7464 528.786 70.9715 528.01 70.0153 528.01C69.059 528.01 68.2834 528.786 68.2834 529.742C68.2834 530.698 69.059 531.474 70.0153 531.474Z" fill="#141414"/>
<path d="M88.2364 476.892C89.1926 476.892 89.9675 476.116 89.9675 475.16C89.9675 474.204 89.1926 473.429 88.2364 473.429C87.2801 473.429 86.5052 474.204 86.5052 475.16C86.5052 476.116 87.2801 476.892 88.2364 476.892Z" fill="#141414"/>
<path d="M51.8767 531.391C52.7874 531.391 53.5257 530.653 53.5257 529.742C53.5257 528.832 52.7874 528.093 51.8767 528.093C50.966 528.093 50.2277 528.832 50.2277 529.742C50.2277 530.653 50.966 531.391 51.8767 531.391Z" fill="#141414"/>
<path d="M33.655 531.721C34.7479 531.721 35.6341 530.835 35.6341 529.742C35.6341 528.649 34.7479 527.763 33.655 527.763C32.5622 527.763 31.6767 528.649 31.6767 529.742C31.6767 530.835 32.5622 531.721 33.655 531.721Z" fill="#141414"/>
<path d="M15.4329 532.051C16.7079 532.051 17.7413 531.017 17.7413 529.742C17.7413 528.467 16.7079 527.433 15.4329 527.433C14.1579 527.433 13.1245 528.467 13.1245 529.742C13.1245 531.017 14.1579 532.051 15.4329 532.051Z" fill="#141414"/>
<path d="M70.0152 513.664C71.1991 513.664 72.1585 512.705 72.1585 511.521C72.1585 510.337 71.1991 509.377 70.0152 509.377C68.8312 509.377 67.871 510.337 67.871 511.521C67.871 512.705 68.8312 513.664 70.0152 513.664Z" fill="#141414"/>
<path d="M51.8775 514.159C53.3346 514.159 54.5152 512.978 54.5152 511.521C54.5152 510.063 53.3346 508.882 51.8775 508.882C50.4203 508.882 49.2389 510.063 49.2389 511.521C49.2389 512.978 50.4203 514.159 51.8775 514.159Z" fill="#141414"/>
<path d="M33.655 513.5C34.7479 513.5 35.6341 512.614 35.6341 511.521C35.6341 510.428 34.7479 509.542 33.655 509.542C32.5622 509.542 31.6767 510.428 31.6767 511.521C31.6767 512.614 32.5622 513.5 33.655 513.5Z" fill="#141414"/>
<path d="M15.4329 513.335C16.4347 513.335 17.247 512.522 17.247 511.52C17.247 510.519 16.4347 509.707 15.4329 509.707C14.4311 509.707 13.6189 510.519 13.6189 511.52C13.6189 512.522 14.4311 513.335 15.4329 513.335Z" fill="#141414"/>
<path d="M70.0152 495.525C71.1991 495.525 72.1585 494.565 72.1585 493.381C72.1585 492.198 71.1991 491.238 70.0152 491.238C68.8312 491.238 67.871 492.198 67.871 493.381C67.871 494.565 68.8312 495.525 70.0152 495.525Z" fill="#141414"/>
<path d="M51.8775 496.02C53.3346 496.02 54.5152 494.839 54.5152 493.381C54.5152 491.924 53.3346 490.743 51.8775 490.743C50.4203 490.743 49.2389 491.924 49.2389 493.381C49.2389 494.839 50.4203 496.02 51.8775 496.02Z" fill="#141414"/>
<path d="M33.6545 496.432C35.3393 496.432 36.7053 495.066 36.7053 493.381C36.7053 491.697 35.3393 490.331 33.6545 490.331C31.9697 490.331 30.6037 491.697 30.6037 493.381C30.6037 495.066 31.9697 496.432 33.6545 496.432Z" fill="#141414"/>
<path d="M15.4337 496.02C16.8908 496.02 18.0722 494.839 18.0722 493.381C18.0722 491.924 16.8908 490.743 15.4337 490.743C13.9765 490.743 12.7951 491.924 12.7951 493.381C12.7951 494.839 13.9765 496.02 15.4337 496.02Z" fill="#141414"/>
<path d="M-2.70524 496.845C-0.792727 496.845 0.757829 495.294 0.757829 493.382C0.757829 491.469 -0.792727 489.919 -2.70524 489.919C-4.61775 489.919 -6.1683 491.469 -6.1683 493.382C-6.1683 495.294 -4.61775 496.845 -2.70524 496.845Z" fill="#141414"/>
<path d="M70.0162 477.386C71.2457 477.386 72.2417 476.39 72.2417 475.16C72.2417 473.931 71.2457 472.934 70.0162 472.934C68.7868 472.934 67.7899 473.931 67.7899 475.16C67.7899 476.39 68.7868 477.386 70.0162 477.386Z" fill="#141414"/>
<path d="M51.8775 477.798C53.3346 477.798 54.5152 476.617 54.5152 475.16C54.5152 473.703 53.3346 472.522 51.8775 472.522C50.4203 472.522 49.2389 473.703 49.2389 475.16C49.2389 476.617 50.4203 477.798 51.8775 477.798Z" fill="#141414"/>
<path d="M33.6534 478.458C35.4748 478.458 36.9514 476.982 36.9514 475.16C36.9514 473.339 35.4748 471.862 33.6534 471.862C31.8319 471.862 30.3554 473.339 30.3554 475.16C30.3554 476.982 31.8319 478.458 33.6534 478.458Z" fill="#141414"/>
<path d="M15.4328 477.386C16.6623 477.386 17.6591 476.39 17.6591 475.16C17.6591 473.931 16.6623 472.934 15.4328 472.934C14.2034 472.934 13.2065 473.931 13.2065 475.16C13.2065 476.39 14.2034 477.386 15.4328 477.386Z" fill="#141414"/>
<path d="M-2.70523 478.458C-0.883791 478.458 0.592776 476.982 0.592776 475.16C0.592776 473.339 -0.883791 471.862 -2.70523 471.862C-4.52667 471.862 -6.00323 473.339 -6.00323 475.16C-6.00323 476.982 -4.52667 478.458 -2.70523 478.458Z" fill="#141414"/>
<path d="M51.8763 459.824C53.4245 459.824 54.6791 458.569 54.6791 457.021C54.6791 455.473 53.4245 454.218 51.8763 454.218C50.328 454.218 49.0726 455.473 49.0726 457.021C49.0726 458.569 50.328 459.824 51.8763 459.824Z" fill="#141414"/>
<path d="M33.6548 459.824C35.203 459.824 36.4584 458.569 36.4584 457.021C36.4584 455.473 35.203 454.218 33.6548 454.218C32.1066 454.218 30.852 455.473 30.852 457.021C30.852 458.569 32.1066 459.824 33.6548 459.824Z" fill="#141414"/>
<path d="M15.4327 459.824C16.9809 459.824 18.2355 458.569 18.2355 457.021C18.2355 455.473 16.9809 454.218 15.4327 454.218C13.8845 454.218 12.6291 455.473 12.6291 457.021C12.6291 458.569 13.8845 459.824 15.4327 459.824Z" fill="#141414"/>
<path d="M-2.70523 460.319C-0.883791 460.319 0.592776 458.843 0.592776 457.021C0.592776 455.2 -0.883791 453.723 -2.70523 453.723C-4.52667 453.723 -6.00323 455.2 -6.00323 457.021C-6.00323 458.843 -4.52667 460.319 -2.70523 460.319Z" fill="#141414"/>
<path d="M51.8744 440.943C53.0583 440.943 54.0177 439.983 54.0177 438.8C54.0177 437.616 53.0583 436.656 51.8744 436.656C50.6904 436.656 49.7302 437.616 49.7302 438.8C49.7302 439.983 50.6904 440.943 51.8744 440.943Z" fill="#141414"/>
<path d="M33.6548 440.943C34.8387 440.943 35.799 439.983 35.799 438.8C35.799 437.616 34.8387 436.656 33.6548 436.656C32.4709 436.656 31.5114 437.616 31.5114 438.8C31.5114 439.983 32.4709 440.943 33.6548 440.943Z" fill="#141414"/>
<path d="M15.4337 440.943C16.6176 440.943 17.5771 439.983 17.5771 438.8C17.5771 437.616 16.6176 436.656 15.4337 436.656C14.2497 436.656 13.2895 437.616 13.2895 438.8C13.2895 439.983 14.2497 440.943 15.4337 440.943Z" fill="#141414"/>
<path d="M70.0152 422.722C71.1991 422.722 72.1585 421.762 72.1585 420.578C72.1585 419.394 71.1991 418.434 70.0152 418.434C68.8312 418.434 67.871 419.394 67.871 420.578C67.871 421.762 68.8312 422.722 70.0152 422.722Z" fill="#141414"/>
<path d="M51.8763 423.381C53.4245 423.381 54.6791 422.126 54.6791 420.578C54.6791 419.03 53.4245 417.775 51.8763 417.775C50.328 417.775 49.0726 419.03 49.0726 420.578C49.0726 422.126 50.328 423.381 51.8763 423.381Z" fill="#141414"/>
<path d="M88.2368 387.021C89.785 387.021 91.0404 385.766 91.0404 384.218C91.0404 382.669 89.785 381.414 88.2368 381.414C86.6886 381.414 85.4332 382.669 85.4332 384.218C85.4332 385.766 86.6886 387.021 88.2368 387.021Z" fill="#141414"/>
<path d="M88.2368 296.078C89.785 296.078 91.0404 294.823 91.0404 293.275C91.0404 291.727 89.785 290.472 88.2368 290.472C86.6886 290.472 85.4332 291.727 85.4332 293.275C85.4332 294.823 86.6886 296.078 88.2368 296.078Z" fill="#141414"/>
<path d="M33.6548 423.381C35.203 423.381 36.4584 422.126 36.4584 420.578C36.4584 419.03 35.203 417.775 33.6548 417.775C32.1066 417.775 30.852 419.03 30.852 420.578C30.852 422.126 32.1066 423.381 33.6548 423.381Z" fill="#141414"/>
<path d="M15.4334 424.041C17.3459 424.041 18.8965 422.491 18.8965 420.578C18.8965 418.666 17.3459 417.115 15.4334 417.115C13.5209 417.115 11.9704 418.666 11.9704 420.578C11.9704 422.491 13.5209 424.041 15.4334 424.041Z" fill="#141414"/>
<path d="M-2.70523 423.876C-0.883791 423.876 0.592776 422.4 0.592776 420.578C0.592776 418.757 -0.883791 417.28 -2.70523 417.28C-4.52667 417.28 -6.00323 418.757 -6.00323 420.578C-6.00323 422.4 -4.52667 423.876 -2.70523 423.876Z" fill="#141414"/>
<path d="M-2.70547 388.34C-0.428668 388.34 1.41704 386.494 1.41704 384.217C1.41704 381.941 -0.428668 380.095 -2.70547 380.095C-4.98226 380.095 -6.82797 381.941 -6.82797 384.217C-6.82797 386.494 -4.98226 388.34 -2.70547 388.34Z" fill="#141414"/>
<path d="M15.4332 388.01C17.5279 388.01 19.2256 386.312 19.2256 384.218C19.2256 382.123 17.5279 380.425 15.4332 380.425C13.3386 380.425 11.64 382.123 11.64 384.218C11.64 386.312 13.3386 388.01 15.4332 388.01Z" fill="#141414"/>
<path d="M33.6532 387.763C35.6113 387.763 37.1984 386.176 37.1984 384.218C37.1984 382.26 35.6113 380.672 33.6532 380.672C31.6952 380.672 30.108 382.26 30.108 384.218C30.108 386.176 31.6952 387.763 33.6532 387.763Z" fill="#141414"/>
<path d="M51.8749 388.01C53.9695 388.01 55.6672 386.312 55.6672 384.218C55.6672 382.123 53.9695 380.425 51.8749 380.425C49.7802 380.425 48.0817 382.123 48.0817 384.218C48.0817 386.312 49.7802 388.01 51.8749 388.01Z" fill="#141414"/>
<path d="M70.0163 386.032C71.0181 386.032 71.8296 385.22 71.8296 384.218C71.8296 383.216 71.0181 382.404 70.0163 382.404C69.0145 382.404 68.2023 383.216 68.2023 384.218C68.2023 385.22 69.0145 386.032 70.0163 386.032Z" fill="#141414"/>
<path d="M-2.70547 370.201C-0.428668 370.201 1.41704 368.355 1.41704 366.079C1.41704 363.802 -0.428668 361.956 -2.70547 361.956C-4.98226 361.956 -6.82797 363.802 -6.82797 366.079C-6.82797 368.355 -4.98226 370.201 -2.70547 370.201Z" fill="#141414"/>
<path d="M15.4342 370.448C17.8476 370.448 19.8039 368.492 19.8039 366.079C19.8039 363.665 17.8476 361.709 15.4342 361.709C13.0208 361.709 11.0645 363.665 11.0645 366.079C11.0645 368.492 13.0208 370.448 15.4342 370.448Z" fill="#141414"/>
<path d="M33.653 370.448C36.0664 370.448 38.0227 368.492 38.0227 366.079C38.0227 363.665 36.0664 361.709 33.653 361.709C31.2396 361.709 29.2833 363.665 29.2833 366.079C29.2833 368.492 31.2396 370.448 33.653 370.448Z" fill="#141414"/>
<path d="M51.8749 369.871C53.9695 369.871 55.6672 368.173 55.6672 366.079C55.6672 363.984 53.9695 362.286 51.8749 362.286C49.7802 362.286 48.0817 363.984 48.0817 366.079C48.0817 368.173 49.7802 369.871 51.8749 369.871Z" fill="#141414"/>
<path d="M70.0163 367.892C71.0181 367.892 71.8296 367.08 71.8296 366.079C71.8296 365.077 71.0181 364.265 70.0163 364.265C69.0145 364.265 68.2023 365.077 68.2023 366.079C68.2023 367.08 69.0145 367.892 70.0163 367.892Z" fill="#141414"/>
<path d="M-2.70547 406.562C-0.428668 406.562 1.41704 404.716 1.41704 402.439C1.41704 400.162 -0.428668 398.317 -2.70547 398.317C-4.98226 398.317 -6.82797 400.162 -6.82797 402.439C-6.82797 404.716 -4.98226 406.562 -2.70547 406.562Z" fill="#141414"/>
<path d="M15.4332 406.232C17.5279 406.232 19.2256 404.534 19.2256 402.439C19.2256 400.344 17.5279 398.646 15.4332 398.646C13.3386 398.646 11.64 400.344 11.64 402.439C11.64 404.534 13.3386 406.232 15.4332 406.232Z" fill="#141414"/>
<path d="M33.6532 405.984C35.6113 405.984 37.1984 404.397 37.1984 402.439C37.1984 400.481 35.6113 398.894 33.6532 398.894C31.6952 398.894 30.108 400.481 30.108 402.439C30.108 404.397 31.6952 405.984 33.6532 405.984Z" fill="#141414"/>
<path d="M51.8749 406.232C53.9695 406.232 55.6672 404.534 55.6672 402.439C55.6672 400.344 53.9695 398.646 51.8749 398.646C49.7802 398.646 48.0817 400.344 48.0817 402.439C48.0817 404.534 49.7802 406.232 51.8749 406.232Z" fill="#141414"/>
<path d="M70.0163 404.253C71.0181 404.253 71.8296 403.441 71.8296 402.439C71.8296 401.437 71.0181 400.625 70.0163 400.625C69.0145 400.625 68.2023 401.437 68.2023 402.439C68.2023 403.441 69.0145 404.253 70.0163 404.253Z" fill="#141414"/>
<path d="M88.2361 404.253C89.2379 404.253 90.0501 403.441 90.0501 402.439C90.0501 401.437 89.2379 400.625 88.2361 400.625C87.2343 400.625 86.422 401.437 86.422 402.439C86.422 403.441 87.2343 404.253 88.2361 404.253Z" fill="#141414"/>
<path d="M-2.70547 351.98C-0.428668 351.98 1.41704 350.134 1.41704 347.857C1.41704 345.58 -0.428668 343.735 -2.70547 343.735C-4.98226 343.735 -6.82797 345.58 -6.82797 347.857C-6.82797 350.134 -4.98226 351.98 -2.70547 351.98Z" fill="#141414"/>
<path d="M15.4332 351.65C17.5279 351.65 19.2256 349.952 19.2256 347.857C19.2256 345.762 17.5279 344.064 15.4332 344.064C13.3386 344.064 11.64 345.762 11.64 347.857C11.64 349.952 13.3386 351.65 15.4332 351.65Z" fill="#141414"/>
<path d="M33.6529 352.639C36.294 352.639 38.4348 350.498 38.4348 347.857C38.4348 345.216 36.294 343.075 33.6529 343.075C31.0118 343.075 28.8709 345.216 28.8709 347.857C28.8709 350.498 31.0118 352.639 33.6529 352.639Z" fill="#141414"/>
<path d="M51.8749 351.65C53.9695 351.65 55.6672 349.952 55.6672 347.857C55.6672 345.762 53.9695 344.064 51.8749 344.064C49.7802 344.064 48.0817 345.762 48.0817 347.857C48.0817 349.952 49.7802 351.65 51.8749 351.65Z" fill="#141414"/>
<path d="M70.0163 349.671C71.0181 349.671 71.8296 348.859 71.8296 347.857C71.8296 346.855 71.0181 346.043 70.0163 346.043C69.0145 346.043 68.2023 346.855 68.2023 347.857C68.2023 348.859 69.0145 349.671 70.0163 349.671Z" fill="#141414"/>
<path d="M88.2361 331.449C89.2379 331.449 90.0501 330.637 90.0501 329.636C90.0501 328.634 89.2379 327.822 88.2361 327.822C87.2343 327.822 86.422 328.634 86.422 329.636C86.422 330.637 87.2343 331.449 88.2361 331.449Z" fill="#141414"/>
<path d="M-2.70547 333.758C-0.428668 333.758 1.41704 331.912 1.41704 329.636C1.41704 327.359 -0.428668 325.513 -2.70547 325.513C-4.98226 325.513 -6.82797 327.359 -6.82797 329.636C-6.82797 331.912 -4.98226 333.758 -2.70547 333.758Z" fill="#141414"/>
<path d="M15.4344 333.758C17.7112 333.758 19.5569 331.912 19.5569 329.636C19.5569 327.359 17.7112 325.513 15.4344 325.513C13.1576 325.513 11.3119 327.359 11.3119 329.636C11.3119 331.912 13.1576 333.758 15.4344 333.758Z" fill="#141414"/>
<path d="M33.6532 333.181C35.6113 333.181 37.1984 331.594 37.1984 329.636C37.1984 327.678 35.6113 326.09 33.6532 326.09C31.6952 326.09 30.108 327.678 30.108 329.636C30.108 331.594 31.6952 333.181 33.6532 333.181Z" fill="#141414"/>
<path d="M51.8749 333.428C53.9695 333.428 55.6672 331.73 55.6672 329.636C55.6672 327.541 53.9695 325.843 51.8749 325.843C49.7802 325.843 48.0817 327.541 48.0817 329.636C48.0817 331.73 49.7802 333.428 51.8749 333.428Z" fill="#141414"/>
<path d="M70.0163 331.449C71.0181 331.449 71.8296 330.637 71.8296 329.636C71.8296 328.634 71.0181 327.822 70.0163 327.822C69.0145 327.822 68.2023 328.634 68.2023 329.636C68.2023 330.637 69.0145 331.449 70.0163 331.449Z" fill="#141414"/>
<path d="M-2.70547 315.619C-0.428668 315.619 1.41704 313.774 1.41704 311.497C1.41704 309.22 -0.428668 307.374 -2.70547 307.374C-4.98226 307.374 -6.82797 309.22 -6.82797 311.497C-6.82797 313.774 -4.98226 315.619 -2.70547 315.619Z" fill="#141414"/>
<path d="M15.4342 315.867C17.8476 315.867 19.8039 313.91 19.8039 311.497C19.8039 309.083 17.8476 307.127 15.4342 307.127C13.0208 307.127 11.0645 309.083 11.0645 311.497C11.0645 313.91 13.0208 315.867 15.4342 315.867Z" fill="#141414"/>
<path d="M33.653 315.867C36.0664 315.867 38.0227 313.91 38.0227 311.497C38.0227 309.083 36.0664 307.127 33.653 307.127C31.2396 307.127 29.2833 309.083 29.2833 311.497C29.2833 313.91 31.2396 315.867 33.653 315.867Z" fill="#141414"/>
<path d="M51.8749 315.289C53.9695 315.289 55.6672 313.591 55.6672 311.497C55.6672 309.402 53.9695 307.704 51.8749 307.704C49.7802 307.704 48.0817 309.402 48.0817 311.497C48.0817 313.591 49.7802 315.289 51.8749 315.289Z" fill="#141414"/>
<path d="M70.0163 313.311C71.0181 313.311 71.8296 312.498 71.8296 311.497C71.8296 310.495 71.0181 309.683 70.0163 309.683C69.0145 309.683 68.2023 310.495 68.2023 311.497C68.2023 312.498 69.0145 313.311 70.0163 313.311Z" fill="#141414"/>
<path d="M-2.70547 297.398C-0.428668 297.398 1.41704 295.552 1.41704 293.275C1.41704 290.998 -0.428668 289.153 -2.70547 289.153C-4.98226 289.153 -6.82797 290.998 -6.82797 293.275C-6.82797 295.552 -4.98226 297.398 -2.70547 297.398Z" fill="#141414"/>
<path d="M15.433 297.892C17.983 297.892 20.0499 295.825 20.0499 293.275C20.0499 290.725 17.983 288.658 15.433 288.658C12.883 288.658 10.8153 290.725 10.8153 293.275C10.8153 295.825 12.883 297.892 15.433 297.892Z" fill="#141414"/>
<path d="M33.6541 297.398C35.9309 297.398 37.7766 295.552 37.7766 293.275C37.7766 290.998 35.9309 289.153 33.6541 289.153C31.3773 289.153 29.5316 290.998 29.5316 293.275C29.5316 295.552 31.3773 297.398 33.6541 297.398Z" fill="#141414"/>
<path d="M51.8749 297.068C53.9695 297.068 55.6672 295.37 55.6672 293.275C55.6672 291.18 53.9695 289.483 51.8749 289.483C49.7802 289.483 48.0817 291.18 48.0817 293.275C48.0817 295.37 49.7802 297.068 51.8749 297.068Z" fill="#141414"/>
<path d="M70.0163 295.089C71.0181 295.089 71.8296 294.277 71.8296 293.275C71.8296 292.273 71.0181 291.461 70.0163 291.461C69.0145 291.461 68.2023 292.273 68.2023 293.275C68.2023 294.277 69.0145 295.089 70.0163 295.089Z" fill="#141414"/>
</svg>
