<svg width="256" height="224" viewBox="0 0 256 224" fill="none" xmlns="http://www.w3.org/2000/svg">
<path d="M220.968 222.63C221.777 222.63 222.433 221.973 222.433 221.164C222.433 220.354 221.777 219.698 220.968 219.698C220.158 219.698 219.502 220.354 219.502 221.164C219.502 221.973 220.158 222.63 220.968 222.63Z" fill="#6FA467"/>
<path d="M188.576 223.216C189.709 223.216 190.628 222.297 190.628 221.164C190.628 220.031 189.709 219.112 188.576 219.112C187.443 219.112 186.524 220.031 186.524 221.164C186.524 222.297 187.443 223.216 188.576 223.216Z" fill="#6FA467"/>
<path d="M123.94 223.069C124.992 223.069 125.845 222.216 125.845 221.163C125.845 220.111 124.992 219.258 123.94 219.258C122.888 219.258 122.035 220.111 122.035 221.163C122.035 222.216 122.888 223.069 123.94 223.069Z" fill="#6FA467"/>
<path d="M75.4253 222.776C76.3157 222.776 77.0376 222.054 77.0376 221.164C77.0376 220.273 76.3157 219.552 75.4253 219.552C74.5348 219.552 73.8132 220.273 73.8132 221.164C73.8132 222.054 74.5348 222.776 75.4253 222.776Z" fill="#6FA467"/>
<path d="M59.3035 222.995C60.3154 222.995 61.1356 222.175 61.1356 221.163C61.1356 220.152 60.3154 219.331 59.3035 219.331C58.2917 219.331 57.4714 220.152 57.4714 221.163C57.4714 222.175 58.2917 222.995 59.3035 222.995Z" fill="#6FA467"/>
<path d="M43.1085 222.995C44.1203 222.995 44.9405 222.175 44.9405 221.163C44.9405 220.152 44.1203 219.331 43.1085 219.331C42.0966 219.331 41.2764 220.152 41.2764 221.163C41.2764 222.175 42.0966 222.995 43.1085 222.995Z" fill="#6FA467"/>
<path d="M26.9863 222.776C27.8767 222.776 28.5983 222.054 28.5983 221.164C28.5983 220.273 27.8767 219.552 26.9863 219.552C26.0959 219.552 25.3739 220.273 25.3739 221.164C25.3739 222.054 26.0959 222.776 26.9863 222.776Z" fill="#6FA467"/>
<path d="M253.286 206.654C254.217 206.654 254.971 205.899 254.971 204.968C254.971 204.037 254.217 203.282 253.286 203.282C252.355 203.282 251.6 204.037 251.6 204.968C251.6 205.899 252.355 206.654 253.286 206.654Z" fill="#6FA467"/>
<path d="M237.09 206.873C238.142 206.873 238.995 206.02 238.995 204.968C238.995 203.916 238.142 203.062 237.09 203.062C236.038 203.062 235.185 203.916 235.185 204.968C235.185 206.02 236.038 206.873 237.09 206.873Z" fill="#6FA467"/>
<path d="M220.969 206.873C222.021 206.873 222.874 206.02 222.874 204.968C222.874 203.916 222.021 203.062 220.969 203.062C219.917 203.062 219.063 203.916 219.063 204.968C219.063 206.02 219.917 206.873 220.969 206.873Z" fill="#6FA467"/>
<path d="M204.772 206.873C205.824 206.873 206.677 206.02 206.677 204.968C206.677 203.916 205.824 203.062 204.772 203.062C203.719 203.062 202.866 203.916 202.866 204.968C202.866 206.02 203.719 206.873 204.772 206.873Z" fill="#6FA467"/>
<path d="M188.576 206.654C189.507 206.654 190.261 205.899 190.261 204.968C190.261 204.037 189.507 203.282 188.576 203.282C187.645 203.282 186.89 204.037 186.89 204.968C186.89 205.899 187.645 206.654 188.576 206.654Z" fill="#6FA467"/>
<path d="M172.452 206.507C173.302 206.507 173.991 205.818 173.991 204.968C173.991 204.118 173.302 203.429 172.452 203.429C171.602 203.429 170.913 204.118 170.913 204.968C170.913 205.818 171.602 206.507 172.452 206.507Z" fill="#6FA467"/>
<path d="M140.137 207.386C141.472 207.386 142.555 206.303 142.555 204.968C142.555 203.632 141.472 202.549 140.137 202.549C138.801 202.549 137.718 203.632 137.718 204.968C137.718 206.303 138.801 207.386 140.137 207.386Z" fill="#6FA467"/>
<path d="M123.94 206.434C124.749 206.434 125.405 205.777 125.405 204.968C125.405 204.158 124.749 203.502 123.94 203.502C123.13 203.502 122.474 204.158 122.474 204.968C122.474 205.777 123.13 206.434 123.94 206.434Z" fill="#6FA467"/>
<path d="M107.818 207.24C109.073 207.24 110.09 206.223 110.09 204.968C110.09 203.713 109.073 202.696 107.818 202.696C106.563 202.696 105.546 203.713 105.546 204.968C105.546 206.223 106.563 207.24 107.818 207.24Z" fill="#6FA467"/>
<path d="M91.6215 206.8C92.6333 206.8 93.4536 205.98 93.4536 204.968C93.4536 203.956 92.6333 203.136 91.6215 203.136C90.6097 203.136 89.7894 203.956 89.7894 204.968C89.7894 205.98 90.6097 206.8 91.6215 206.8Z" fill="#6FA467"/>
<path d="M75.4267 206.287C76.1553 206.287 76.7461 205.697 76.7461 204.968C76.7461 204.24 76.1553 203.649 75.4267 203.649C74.6982 203.649 74.1078 204.24 74.1078 204.968C74.1078 205.697 74.6982 206.287 75.4267 206.287Z" fill="#6FA467"/>
<path d="M59.304 207.313C60.5991 207.313 61.6492 206.263 61.6492 204.968C61.6492 203.673 60.5991 202.623 59.304 202.623C58.0088 202.623 56.9591 203.673 56.9591 204.968C56.9591 206.263 58.0088 207.313 59.304 207.313Z" fill="#6FA467"/>
<path d="M43.1085 206.8C44.1203 206.8 44.9405 205.98 44.9405 204.968C44.9405 203.956 44.1203 203.136 43.1085 203.136C42.0966 203.136 41.2764 203.956 41.2764 204.968C41.2764 205.98 42.0966 206.8 43.1085 206.8Z" fill="#6FA467"/>
<path d="M26.9863 206.58C27.8767 206.58 28.5983 205.858 28.5983 204.968C28.5983 204.077 27.8767 203.356 26.9863 203.356C26.0959 203.356 25.3739 204.077 25.3739 204.968C25.3739 205.858 26.0959 206.58 26.9863 206.58Z" fill="#6FA467"/>
<path d="M237.09 190.385C237.94 190.385 238.629 189.696 238.629 188.846C238.629 187.996 237.94 187.307 237.09 187.307C236.24 187.307 235.551 187.996 235.551 188.846C235.551 189.696 236.24 190.385 237.09 190.385Z" fill="#6FA467"/>
<path d="M253.285 141.871C254.135 141.871 254.824 141.182 254.824 140.332C254.824 139.482 254.135 138.793 253.285 138.793C252.435 138.793 251.746 139.482 251.746 140.332C251.746 141.182 252.435 141.871 253.285 141.871Z" fill="#6FA467"/>
<path d="M220.968 190.312C221.777 190.312 222.433 189.656 222.433 188.846C222.433 188.037 221.777 187.381 220.968 187.381C220.158 187.381 219.502 188.037 219.502 188.846C219.502 189.656 220.158 190.312 220.968 190.312Z" fill="#6FA467"/>
<path d="M204.772 190.604C205.744 190.604 206.531 189.817 206.531 188.846C206.531 187.874 205.744 187.087 204.772 187.087C203.801 187.087 203.013 187.874 203.013 188.846C203.013 189.817 203.801 190.604 204.772 190.604Z" fill="#6FA467"/>
<path d="M188.576 190.898C189.709 190.898 190.628 189.979 190.628 188.846C190.628 187.713 189.709 186.794 188.576 186.794C187.443 186.794 186.524 187.713 186.524 188.846C186.524 189.979 187.443 190.898 188.576 190.898Z" fill="#6FA467"/>
<path d="M172.454 190.898C173.587 190.898 174.506 189.979 174.506 188.846C174.506 187.713 173.587 186.794 172.454 186.794C171.321 186.794 170.402 187.713 170.402 188.846C170.402 189.979 171.321 190.898 172.454 190.898Z" fill="#6FA467"/>
<path d="M156.259 190.604C157.23 190.604 158.018 189.817 158.018 188.846C158.018 187.874 157.23 187.087 156.259 187.087C155.288 187.087 154.5 187.874 154.5 188.846C154.5 189.817 155.288 190.604 156.259 190.604Z" fill="#6FA467"/>
<path d="M140.136 190.604C141.107 190.604 141.895 189.817 141.895 188.846C141.895 187.874 141.107 187.087 140.136 187.087C139.164 187.087 138.377 187.874 138.377 188.846C138.377 189.817 139.164 190.604 140.136 190.604Z" fill="#6FA467"/>
<path d="M123.941 190.458C124.831 190.458 125.553 189.736 125.553 188.845C125.553 187.955 124.831 187.233 123.941 187.233C123.05 187.233 122.328 187.955 122.328 188.845C122.328 189.736 123.05 190.458 123.941 190.458Z" fill="#6FA467"/>
<path d="M107.818 191.117C109.073 191.117 110.09 190.1 110.09 188.846C110.09 187.591 109.073 186.574 107.818 186.574C106.563 186.574 105.546 187.591 105.546 188.846C105.546 190.1 106.563 191.117 107.818 191.117Z" fill="#6FA467"/>
<path d="M91.6223 190.458C92.5127 190.458 93.2347 189.736 93.2347 188.845C93.2347 187.955 92.5127 187.233 91.6223 187.233C90.7319 187.233 90.0103 187.955 90.0103 188.845C90.0103 189.736 90.7319 190.458 91.6223 190.458Z" fill="#6FA467"/>
<path d="M75.4253 190.458C76.3157 190.458 77.0376 189.736 77.0376 188.845C77.0376 187.955 76.3157 187.233 75.4253 187.233C74.5348 187.233 73.8132 187.955 73.8132 188.845C73.8132 189.736 74.5348 190.458 75.4253 190.458Z" fill="#6FA467"/>
<path d="M59.3027 190.165C60.0312 190.165 60.622 189.575 60.622 188.846C60.622 188.117 60.0312 187.527 59.3027 187.527C58.5742 187.527 57.9838 188.117 57.9838 188.846C57.9838 189.575 58.5742 190.165 59.3027 190.165Z" fill="#6FA467"/>
<path d="M43.1084 190.824C44.2011 190.824 45.0868 189.939 45.0868 188.846C45.0868 187.753 44.2011 186.867 43.1084 186.867C42.0156 186.867 41.1296 187.753 41.1296 188.846C41.1296 189.939 42.0156 190.824 43.1084 190.824Z" fill="#6FA467"/>
<path d="M26.9863 190.458C27.8767 190.458 28.5983 189.736 28.5983 188.845C28.5983 187.955 27.8767 187.233 26.9863 187.233C26.0959 187.233 25.3739 187.955 25.3739 188.845C25.3739 189.736 26.0959 190.458 26.9863 190.458Z" fill="#6FA467"/>
<path d="M237.09 174.556C238.142 174.556 238.995 173.702 238.995 172.65C238.995 171.598 238.142 170.745 237.09 170.745C236.038 170.745 235.185 171.598 235.185 172.65C235.185 173.702 236.038 174.556 237.09 174.556Z" fill="#6FA467"/>
<path d="M220.968 174.995C222.263 174.995 223.313 173.945 223.313 172.65C223.313 171.355 222.263 170.305 220.968 170.305C219.673 170.305 218.623 171.355 218.623 172.65C218.623 173.945 219.673 174.995 220.968 174.995Z" fill="#6FA467"/>
<path d="M204.772 174.409C205.744 174.409 206.531 173.621 206.531 172.65C206.531 171.678 205.744 170.891 204.772 170.891C203.801 170.891 203.013 171.678 203.013 172.65C203.013 173.621 203.801 174.409 204.772 174.409Z" fill="#6FA467"/>
<path d="M188.576 174.263C189.466 174.263 190.188 173.541 190.188 172.651C190.188 171.76 189.466 171.039 188.576 171.039C187.685 171.039 186.963 171.76 186.963 172.651C186.963 173.541 187.685 174.263 188.576 174.263Z" fill="#6FA467"/>
<path d="M172.454 174.409C173.426 174.409 174.213 173.621 174.213 172.65C174.213 171.678 173.426 170.891 172.454 170.891C171.483 170.891 170.695 171.678 170.695 172.65C170.695 173.621 171.483 174.409 172.454 174.409Z" fill="#6FA467"/>
<path d="M156.259 174.409C157.23 174.409 158.018 173.621 158.018 172.65C158.018 171.678 157.23 170.891 156.259 170.891C155.288 170.891 154.5 171.678 154.5 172.65C154.5 173.621 155.288 174.409 156.259 174.409Z" fill="#6FA467"/>
<path d="M140.136 174.263C141.027 174.263 141.748 173.541 141.748 172.651C141.748 171.76 141.027 171.039 140.136 171.039C139.246 171.039 138.524 171.76 138.524 172.651C138.524 173.541 139.246 174.263 140.136 174.263Z" fill="#6FA467"/>
<path d="M123.94 174.995C125.235 174.995 126.286 173.945 126.286 172.65C126.286 171.355 125.235 170.305 123.94 170.305C122.645 170.305 121.595 171.355 121.595 172.65C121.595 173.945 122.645 174.995 123.94 174.995Z" fill="#6FA467"/>
<path d="M107.817 174.042C108.586 174.042 109.209 173.419 109.209 172.65C109.209 171.881 108.586 171.258 107.817 171.258C107.048 171.258 106.425 171.881 106.425 172.65C106.425 173.419 107.048 174.042 107.817 174.042Z" fill="#6FA467"/>
<path d="M91.6215 174.482C92.6333 174.482 93.4536 173.662 93.4536 172.65C93.4536 171.638 92.6333 170.818 91.6215 170.818C90.6097 170.818 89.7894 171.638 89.7894 172.65C89.7894 173.662 90.6097 174.482 91.6215 174.482Z" fill="#6FA467"/>
<path d="M75.4275 174.482C76.4394 174.482 77.2596 173.662 77.2596 172.65C77.2596 171.638 76.4394 170.818 75.4275 170.818C74.4157 170.818 73.5955 171.638 73.5955 172.65C73.5955 173.662 74.4157 174.482 75.4275 174.482Z" fill="#6FA467"/>
<path d="M59.3039 174.629C60.3967 174.629 61.2827 173.743 61.2827 172.65C61.2827 171.557 60.3967 170.672 59.3039 170.672C58.2112 170.672 57.3255 171.557 57.3255 172.65C57.3255 173.743 58.2112 174.629 59.3039 174.629Z" fill="#6FA467"/>
<path d="M43.1084 174.629C44.2011 174.629 45.0868 173.743 45.0868 172.65C45.0868 171.557 44.2011 170.672 43.1084 170.672C42.0156 170.672 41.1296 171.557 41.1296 172.65C41.1296 173.743 42.0156 174.629 43.1084 174.629Z" fill="#6FA467"/>
<path d="M26.9862 174.629C28.079 174.629 28.9647 173.743 28.9647 172.65C28.9647 171.557 28.079 170.672 26.9862 170.672C25.8935 170.672 25.0074 171.557 25.0074 172.65C25.0074 173.743 25.8935 174.629 26.9862 174.629Z" fill="#6FA467"/>
<path d="M237.09 158.433C238.142 158.433 238.995 157.58 238.995 156.528C238.995 155.475 238.142 154.622 237.09 154.622C236.038 154.622 235.185 155.475 235.185 156.528C235.185 157.58 236.038 158.433 237.09 158.433Z" fill="#6FA467"/>
<path d="M220.968 158.873C222.263 158.873 223.313 157.823 223.313 156.528C223.313 155.233 222.263 154.183 220.968 154.183C219.673 154.183 218.623 155.233 218.623 156.528C218.623 157.823 219.673 158.873 220.968 158.873Z" fill="#6FA467"/>
<path d="M204.771 159.239C206.268 159.239 207.483 158.025 207.483 156.527C207.483 155.03 206.268 153.816 204.771 153.816C203.273 153.816 202.06 155.03 202.06 156.527C202.06 158.025 203.273 159.239 204.771 159.239Z" fill="#6FA467"/>
<path d="M188.576 158.873C189.871 158.873 190.921 157.823 190.921 156.528C190.921 155.233 189.871 154.183 188.576 154.183C187.281 154.183 186.231 155.233 186.231 156.528C186.231 157.823 187.281 158.873 188.576 158.873Z" fill="#6FA467"/>
<path d="M172.454 159.605C174.154 159.605 175.532 158.227 175.532 156.527C175.532 154.827 174.154 153.449 172.454 153.449C170.754 153.449 169.376 154.827 169.376 156.527C169.376 158.227 170.754 159.605 172.454 159.605Z" fill="#6FA467"/>
<path d="M156.258 159.239C157.756 159.239 158.969 158.025 158.969 156.527C158.969 155.03 157.756 153.816 156.258 153.816C154.761 153.816 153.547 155.03 153.547 156.527C153.547 158.025 154.761 159.239 156.258 159.239Z" fill="#6FA467"/>
<path d="M140.136 159.239C141.634 159.239 142.847 158.025 142.847 156.527C142.847 155.03 141.634 153.816 140.136 153.816C138.639 153.816 137.425 155.03 137.425 156.527C137.425 158.025 138.639 159.239 140.136 159.239Z" fill="#6FA467"/>
<path d="M123.94 158.873C125.235 158.873 126.286 157.823 126.286 156.528C126.286 155.233 125.235 154.183 123.94 154.183C122.645 154.183 121.595 155.233 121.595 156.528C121.595 157.823 122.645 158.873 123.94 158.873Z" fill="#6FA467"/>
<path d="M107.819 159.166C109.276 159.166 110.457 157.985 110.457 156.527C110.457 155.07 109.276 153.889 107.819 153.889C106.362 153.889 105.18 155.07 105.18 156.527C105.18 157.985 106.362 159.166 107.819 159.166Z" fill="#6FA467"/>
<path d="M91.6218 159.019C92.9978 159.019 94.1133 157.903 94.1133 156.527C94.1133 155.151 92.9978 154.035 91.6218 154.035C90.2457 154.035 89.1302 155.151 89.1302 156.527C89.1302 157.903 90.2457 159.019 91.6218 159.019Z" fill="#6FA467"/>
<path d="M75.4275 158.36C76.4394 158.36 77.2596 157.539 77.2596 156.528C77.2596 155.516 76.4394 154.696 75.4275 154.696C74.4157 154.696 73.5955 155.516 73.5955 156.528C73.5955 157.539 74.4157 158.36 75.4275 158.36Z" fill="#6FA467"/>
<path d="M59.304 158.873C60.5991 158.873 61.6492 157.823 61.6492 156.528C61.6492 155.233 60.5991 154.183 59.304 154.183C58.0088 154.183 56.9591 155.233 56.9591 156.528C56.9591 157.823 58.0088 158.873 59.304 158.873Z" fill="#6FA467"/>
<path d="M43.1086 159.532C44.768 159.532 46.1129 158.187 46.1129 156.527C46.1129 154.868 44.768 153.523 43.1086 153.523C41.4492 153.523 40.1039 154.868 40.1039 156.527C40.1039 158.187 41.4492 159.532 43.1086 159.532Z" fill="#6FA467"/>
<path d="M26.9871 158.653C28.1608 158.653 29.1122 157.701 29.1122 156.527C29.1122 155.354 28.1608 154.402 26.9871 154.402C25.8134 154.402 24.8616 155.354 24.8616 156.527C24.8616 157.701 25.8134 158.653 26.9871 158.653Z" fill="#6FA467"/>
<path d="M237.09 142.311C238.183 142.311 239.069 141.425 239.069 140.333C239.069 139.24 238.183 138.354 237.09 138.354C235.997 138.354 235.111 139.24 235.111 140.333C235.111 141.425 235.997 142.311 237.09 142.311Z" fill="#6FA467"/>
<path d="M220.968 142.677C222.263 142.677 223.313 141.627 223.313 140.332C223.313 139.037 222.263 137.987 220.968 137.987C219.673 137.987 218.623 139.037 218.623 140.332C218.623 141.627 219.673 142.677 220.968 142.677Z" fill="#6FA467"/>
<path d="M204.772 143.264C206.391 143.264 207.703 141.951 207.703 140.332C207.703 138.714 206.391 137.401 204.772 137.401C203.153 137.401 201.841 138.714 201.841 140.332C201.841 141.951 203.153 143.264 204.772 143.264Z" fill="#6FA467"/>
<path d="M188.576 142.311C189.668 142.311 190.554 141.425 190.554 140.333C190.554 139.24 189.668 138.354 188.576 138.354C187.483 138.354 186.597 139.24 186.597 140.333C186.597 141.425 187.483 142.311 188.576 142.311Z" fill="#6FA467"/>
<path d="M172.454 143.264C174.073 143.264 175.385 141.951 175.385 140.332C175.385 138.714 174.073 137.401 172.454 137.401C170.835 137.401 169.523 138.714 169.523 140.332C169.523 141.951 170.835 143.264 172.454 143.264Z" fill="#6FA467"/>
<path d="M156.259 142.751C157.594 142.751 158.677 141.668 158.677 140.332C158.677 138.997 157.594 137.914 156.259 137.914C154.923 137.914 153.84 138.997 153.84 140.332C153.84 141.668 154.923 142.751 156.259 142.751Z" fill="#6FA467"/>
<path d="M140.136 142.677C141.431 142.677 142.481 141.627 142.481 140.332C142.481 139.037 141.431 137.987 140.136 137.987C138.841 137.987 137.791 139.037 137.791 140.332C137.791 141.627 138.841 142.677 140.136 142.677Z" fill="#6FA467"/>
<path d="M123.94 142.751C125.276 142.751 126.359 141.668 126.359 140.332C126.359 138.997 125.276 137.914 123.94 137.914C122.605 137.914 121.522 138.997 121.522 140.332C121.522 141.668 122.605 142.751 123.94 142.751Z" fill="#6FA467"/>
<path d="M107.818 142.751C109.154 142.751 110.236 141.668 110.236 140.332C110.236 138.997 109.154 137.914 107.818 137.914C106.482 137.914 105.4 138.997 105.4 140.332C105.4 141.668 106.482 142.751 107.818 142.751Z" fill="#6FA467"/>
<path d="M91.6215 142.53C92.8357 142.53 93.82 141.546 93.82 140.332C93.82 139.118 92.8357 138.133 91.6215 138.133C90.4073 138.133 89.423 139.118 89.423 140.332C89.423 141.546 90.4073 142.53 91.6215 142.53Z" fill="#6FA467"/>
<path d="M75.4271 143.337C77.0865 143.337 78.4318 141.991 78.4318 140.332C78.4318 138.673 77.0865 137.327 75.4271 137.327C73.7677 137.327 72.4227 138.673 72.4227 140.332C72.4227 141.991 73.7677 143.337 75.4271 143.337Z" fill="#6FA467"/>
<path d="M59.3045 142.238C60.3568 142.238 61.2099 141.385 61.2099 140.333C61.2099 139.28 60.3568 138.427 59.3045 138.427C58.2522 138.427 57.3994 139.28 57.3994 140.333C57.3994 141.385 58.2522 142.238 59.3045 142.238Z" fill="#6FA467"/>
<path d="M43.1084 142.53C44.3226 142.53 45.3069 141.546 45.3069 140.332C45.3069 139.118 44.3226 138.133 43.1084 138.133C41.8942 138.133 40.9099 139.118 40.9099 140.332C40.9099 141.546 41.8942 142.53 43.1084 142.53Z" fill="#6FA467"/>
<path d="M26.9854 143.337C28.6448 143.337 29.9897 141.991 29.9897 140.332C29.9897 138.673 28.6448 137.327 26.9854 137.327C25.326 137.327 23.9807 138.673 23.9807 140.332C23.9807 141.991 25.326 143.337 26.9854 143.337Z" fill="#6FA467"/>
<path d="M220.967 126.702C222.343 126.702 223.458 125.586 223.458 124.21C223.458 122.834 222.343 121.718 220.967 121.718C219.591 121.718 218.475 122.834 218.475 124.21C218.475 125.586 219.591 126.702 220.967 126.702Z" fill="#6FA467"/>
<path d="M204.772 126.702C206.148 126.702 207.264 125.586 207.264 124.21C207.264 122.834 206.148 121.718 204.772 121.718C203.396 121.718 202.28 122.834 202.28 124.21C202.28 125.586 203.396 126.702 204.772 126.702Z" fill="#6FA467"/>
<path d="M188.576 126.702C189.952 126.702 191.068 125.586 191.068 124.21C191.068 122.834 189.952 121.718 188.576 121.718C187.2 121.718 186.084 122.834 186.084 124.21C186.084 125.586 187.2 126.702 188.576 126.702Z" fill="#6FA467"/>
<path d="M172.454 127.141C174.073 127.141 175.385 125.829 175.385 124.21C175.385 122.591 174.073 121.279 172.454 121.279C170.835 121.279 169.523 122.591 169.523 124.21C169.523 125.829 170.835 127.141 172.454 127.141Z" fill="#6FA467"/>
<path d="M156.259 125.968C157.23 125.968 158.018 125.181 158.018 124.209C158.018 123.238 157.23 122.45 156.259 122.45C155.288 122.45 154.5 123.238 154.5 124.209C154.5 125.181 155.288 125.968 156.259 125.968Z" fill="#6FA467"/>
<path d="M140.136 126.921C141.634 126.921 142.847 125.707 142.847 124.209C142.847 122.712 141.634 121.498 140.136 121.498C138.639 121.498 137.425 122.712 137.425 124.209C137.425 125.707 138.639 126.921 140.136 126.921Z" fill="#6FA467"/>
<path d="M123.941 126.921C125.439 126.921 126.653 125.707 126.653 124.209C126.653 122.712 125.439 121.498 123.941 121.498C122.443 121.498 121.229 122.712 121.229 124.209C121.229 125.707 122.443 126.921 123.941 126.921Z" fill="#6FA467"/>
<path d="M107.818 126.921C109.315 126.921 110.53 125.707 110.53 124.209C110.53 122.712 109.315 121.498 107.818 121.498C106.32 121.498 105.106 122.712 105.106 124.209C105.106 125.707 106.32 126.921 107.818 126.921Z" fill="#6FA467"/>
<path d="M91.6218 126.702C92.9978 126.702 94.1133 125.586 94.1133 124.21C94.1133 122.834 92.9978 121.718 91.6218 121.718C90.2457 121.718 89.1302 122.834 89.1302 124.21C89.1302 125.586 90.2457 126.702 91.6218 126.702Z" fill="#6FA467"/>
<path d="M75.4252 126.189C76.5179 126.189 77.4039 125.303 77.4039 124.21C77.4039 123.117 76.5179 122.231 75.4252 122.231C74.3324 122.231 73.4467 123.117 73.4467 124.21C73.4467 125.303 74.3324 126.189 75.4252 126.189Z" fill="#6FA467"/>
<path d="M59.3034 127.654C61.2056 127.654 62.7478 126.112 62.7478 124.21C62.7478 122.308 61.2056 120.766 59.3034 120.766C57.4011 120.766 55.8593 122.308 55.8593 124.21C55.8593 126.112 57.4011 127.654 59.3034 127.654Z" fill="#6FA467"/>
<path d="M43.1086 127.215C44.768 127.215 46.1129 125.869 46.1129 124.21C46.1129 122.551 44.768 121.205 43.1086 121.205C41.4492 121.205 40.1039 122.551 40.1039 124.21C40.1039 125.869 41.4492 127.215 43.1086 127.215Z" fill="#6FA467"/>
<path d="M26.9871 126.775C28.4037 126.775 29.552 125.627 29.552 124.21C29.552 122.793 28.4037 121.645 26.9871 121.645C25.5705 121.645 24.4222 122.793 24.4222 124.21C24.4222 125.627 25.5705 126.775 26.9871 126.775Z" fill="#6FA467"/>
<path d="M220.969 109.92C222.021 109.92 222.874 109.066 222.874 108.014C222.874 106.962 222.021 106.109 220.969 106.109C219.917 106.109 219.063 106.962 219.063 108.014C219.063 109.066 219.917 109.92 220.969 109.92Z" fill="#6FA467"/>
<path d="M204.772 109.92C205.824 109.92 206.677 109.066 206.677 108.014C206.677 106.962 205.824 106.109 204.772 106.109C203.719 106.109 202.866 106.962 202.866 108.014C202.866 109.066 203.719 109.92 204.772 109.92Z" fill="#6FA467"/>
<path d="M188.576 109.92C189.628 109.92 190.481 109.066 190.481 108.014C190.481 106.962 189.628 106.109 188.576 106.109C187.524 106.109 186.671 106.962 186.671 108.014C186.671 109.066 187.524 109.92 188.576 109.92Z" fill="#6FA467"/>
<path d="M172.454 110.213C173.668 110.213 174.653 109.228 174.653 108.014C174.653 106.8 173.668 105.816 172.454 105.816C171.24 105.816 170.256 106.8 170.256 108.014C170.256 109.228 171.24 110.213 172.454 110.213Z" fill="#6FA467"/>
<path d="M156.259 110.432C157.594 110.432 158.677 109.35 158.677 108.014C158.677 106.678 157.594 105.596 156.259 105.596C154.923 105.596 153.84 106.678 153.84 108.014C153.84 109.35 154.923 110.432 156.259 110.432Z" fill="#6FA467"/>
<path d="M140.135 110.946C141.754 110.946 143.067 109.633 143.067 108.014C143.067 106.395 141.754 105.083 140.135 105.083C138.516 105.083 137.204 106.395 137.204 108.014C137.204 109.633 138.516 110.946 140.135 110.946Z" fill="#6FA467"/>
<path d="M123.94 110.946C125.559 110.946 126.871 109.633 126.871 108.014C126.871 106.395 125.559 105.083 123.94 105.083C122.321 105.083 121.009 106.395 121.009 108.014C121.009 109.633 122.321 110.946 123.94 110.946Z" fill="#6FA467"/>
<path d="M107.819 111.018C109.478 111.018 110.823 109.673 110.823 108.014C110.823 106.354 109.478 105.009 107.819 105.009C106.159 105.009 104.814 106.354 104.814 108.014C104.814 109.673 106.159 111.018 107.819 111.018Z" fill="#6FA467"/>
<path d="M91.6215 110.213C92.8357 110.213 93.82 109.228 93.82 108.014C93.82 106.8 92.8357 105.816 91.6215 105.816C90.4073 105.816 89.423 106.8 89.423 108.014C89.423 109.228 90.4073 110.213 91.6215 110.213Z" fill="#6FA467"/>
<path d="M75.4275 109.846C76.4394 109.846 77.2596 109.026 77.2596 108.014C77.2596 107.002 76.4394 106.182 75.4275 106.182C74.4157 106.182 73.5955 107.002 73.5955 108.014C73.5955 109.026 74.4157 109.846 75.4275 109.846Z" fill="#6FA467"/>
<path d="M59.3034 111.458C61.2056 111.458 62.7478 109.916 62.7478 108.014C62.7478 106.112 61.2056 104.57 59.3034 104.57C57.4011 104.57 55.8593 106.112 55.8593 108.014C55.8593 109.916 57.4011 111.458 59.3034 111.458Z" fill="#6FA467"/>
<path d="M43.1084 110.213C44.3226 110.213 45.3069 109.228 45.3069 108.014C45.3069 106.8 44.3226 105.816 43.1084 105.816C41.8942 105.816 40.9099 106.8 40.9099 108.014C40.9099 109.228 41.8942 110.213 43.1084 110.213Z" fill="#6FA467"/>
<path d="M26.9854 111.018C28.6448 111.018 29.9897 109.673 29.9897 108.014C29.9897 106.354 28.6448 105.009 26.9854 105.009C25.326 105.009 23.9807 106.354 23.9807 108.014C23.9807 109.673 25.326 111.018 26.9854 111.018Z" fill="#6FA467"/>
<path d="M237.09 93.7235C238.142 93.7235 238.995 92.8706 238.995 91.8183C238.995 90.766 238.142 89.9128 237.09 89.9128C236.038 89.9128 235.185 90.766 235.185 91.8183C235.185 92.8706 236.038 93.7235 237.09 93.7235Z" fill="#6FA467"/>
<path d="M220.967 94.3102C222.343 94.3102 223.458 93.1947 223.458 91.8186C223.458 90.4426 222.343 89.3269 220.967 89.3269C219.591 89.3269 218.475 90.4426 218.475 91.8186C218.475 93.1947 219.591 94.3102 220.967 94.3102Z" fill="#6FA467"/>
<path d="M253.285 61.9917C254.661 61.9917 255.776 60.8762 255.776 59.5001C255.776 58.124 254.661 57.0085 253.285 57.0085C251.909 57.0085 250.793 58.124 250.793 59.5001C250.793 60.8762 251.909 61.9917 253.285 61.9917Z" fill="#6FA467"/>
<path d="M204.772 94.3102C206.148 94.3102 207.264 93.1947 207.264 91.8186C207.264 90.4426 206.148 89.3269 204.772 89.3269C203.396 89.3269 202.28 90.4426 202.28 91.8186C202.28 93.1947 203.396 94.3102 204.772 94.3102Z" fill="#6FA467"/>
<path d="M188.576 94.8966C190.276 94.8966 191.654 93.5186 191.654 91.8188C191.654 90.1189 190.276 88.7407 188.576 88.7407C186.876 88.7407 185.498 90.1189 185.498 91.8188C185.498 93.5186 186.876 94.8966 188.576 94.8966Z" fill="#6FA467"/>
<path d="M172.454 94.7499C174.073 94.7499 175.385 93.4375 175.385 91.8185C175.385 90.1996 174.073 88.8872 172.454 88.8872C170.835 88.8872 169.523 90.1996 169.523 91.8185C169.523 93.4375 170.835 94.7499 172.454 94.7499Z" fill="#6FA467"/>
<path d="M156.259 93.5772C157.23 93.5772 158.018 92.7898 158.018 91.8185C158.018 90.8471 157.23 90.0596 156.259 90.0596C155.288 90.0596 154.5 90.8471 154.5 91.8185C154.5 92.7898 155.288 93.5772 156.259 93.5772Z" fill="#6FA467"/>
<path d="M140.135 94.7499C141.754 94.7499 143.067 93.4375 143.067 91.8185C143.067 90.1996 141.754 88.8872 140.135 88.8872C138.516 88.8872 137.204 90.1996 137.204 91.8185C137.204 93.4375 138.516 94.7499 140.135 94.7499Z" fill="#6FA467"/>
<path d="M123.941 95.3364C125.884 95.3364 127.458 93.7616 127.458 91.8189C127.458 89.8762 125.884 88.3013 123.941 88.3013C121.998 88.3013 120.423 89.8762 120.423 91.8189C120.423 93.7616 121.998 95.3364 123.941 95.3364Z" fill="#6FA467"/>
<path d="M107.819 94.8227C109.478 94.8227 110.823 93.4776 110.823 91.8182C110.823 90.1588 109.478 88.8135 107.819 88.8135C106.159 88.8135 104.814 90.1588 104.814 91.8182C104.814 93.4776 106.159 94.8227 107.819 94.8227Z" fill="#6FA467"/>
<path d="M91.6218 95.3364C93.5645 95.3364 95.1396 93.7616 95.1396 91.8189C95.1396 89.8762 93.5645 88.3013 91.6218 88.3013C89.6791 88.3013 88.1044 89.8762 88.1044 91.8189C88.1044 93.7616 89.6791 95.3364 91.6218 95.3364Z" fill="#6FA467"/>
<path d="M75.4269 95.3364C77.3697 95.3364 78.9448 93.7616 78.9448 91.8189C78.9448 89.8762 77.3697 88.3013 75.4269 88.3013C73.4842 88.3013 71.9095 89.8762 71.9095 91.8189C71.9095 93.7616 73.4842 95.3364 75.4269 95.3364Z" fill="#6FA467"/>
<path d="M59.3048 95.5559C61.3689 95.5559 63.0423 93.8827 63.0423 91.8186C63.0423 89.7544 61.3689 88.0811 59.3048 88.0811C57.2407 88.0811 55.5676 89.7544 55.5676 91.8186C55.5676 93.8827 57.2407 95.5559 59.3048 95.5559Z" fill="#6FA467"/>
<path d="M43.1083 94.3835C44.5248 94.3835 45.6732 93.2351 45.6732 91.8186C45.6732 90.402 44.5248 89.2537 43.1083 89.2537C41.6917 89.2537 40.5433 90.402 40.5433 91.8186C40.5433 93.2351 41.6917 94.3835 43.1083 94.3835Z" fill="#6FA467"/>
<path d="M26.9868 95.043C28.7676 95.043 30.2112 93.5994 30.2112 91.8186C30.2112 90.0377 28.7676 88.594 26.9868 88.594C25.206 88.594 23.762 90.0377 23.762 91.8186C23.762 93.5994 25.206 95.043 26.9868 95.043Z" fill="#6FA467"/>
<path d="M26.9862 63.0177C28.9289 63.0177 30.5037 61.4428 30.5037 59.5001C30.5037 57.5573 28.9289 55.9824 26.9862 55.9824C25.0435 55.9824 23.4684 57.5573 23.4684 59.5001C23.4684 61.4428 25.0435 63.0177 26.9862 63.0177Z" fill="#6FA467"/>
<path d="M43.1081 63.0177C45.0509 63.0177 46.6256 61.4428 46.6256 59.5001C46.6256 57.5573 45.0509 55.9824 43.1081 55.9824C41.1654 55.9824 39.5903 57.5573 39.5903 59.5001C39.5903 61.4428 41.1654 63.0177 43.1081 63.0177Z" fill="#6FA467"/>
<path d="M59.3048 63.238C61.3689 63.238 63.0423 61.5646 63.0423 59.5005C63.0423 57.4363 61.3689 55.7629 59.3048 55.7629C57.2407 55.7629 55.5676 57.4363 55.5676 59.5005C55.5676 61.5646 57.2407 63.238 59.3048 63.238Z" fill="#6FA467"/>
<path d="M75.4273 62.0654C76.8438 62.0654 77.9922 60.917 77.9922 59.5005C77.9922 58.0839 76.8438 56.9355 75.4273 56.9355C74.0107 56.9355 72.8624 58.0839 72.8624 59.5005C72.8624 60.917 74.0107 62.0654 75.4273 62.0654Z" fill="#6FA467"/>
<path d="M91.6225 62.7247C93.4033 62.7247 94.8469 61.2811 94.8469 59.5003C94.8469 57.7195 93.4033 56.2759 91.6225 56.2759C89.8416 56.2759 88.3981 57.7195 88.3981 59.5003C88.3981 61.2811 89.8416 62.7247 91.6225 62.7247Z" fill="#6FA467"/>
<path d="M107.818 61.919C109.154 61.919 110.236 60.8363 110.236 59.5007C110.236 58.165 109.154 57.0823 107.818 57.0823C106.482 57.0823 105.4 58.165 105.4 59.5007C105.4 60.8363 106.482 61.919 107.818 61.919Z" fill="#6FA467"/>
<path d="M123.94 62.0654C125.357 62.0654 126.505 60.917 126.505 59.5005C126.505 58.0839 125.357 56.9355 123.94 56.9355C122.524 56.9355 121.375 58.0839 121.375 59.5005C121.375 60.917 122.524 62.0654 123.94 62.0654Z" fill="#6FA467"/>
<path d="M140.136 63.3843C142.281 63.3843 144.02 61.6453 144.02 59.5003C144.02 57.3552 142.281 55.6162 140.136 55.6162C137.991 55.6162 136.252 57.3552 136.252 59.5003C136.252 61.6453 137.991 63.3843 140.136 63.3843Z" fill="#6FA467"/>
<path d="M156.259 62.6523C157.999 62.6523 159.41 61.2414 159.41 59.5011C159.41 57.7607 157.999 56.3499 156.259 56.3499C154.518 56.3499 153.107 57.7607 153.107 59.5011C153.107 61.2414 154.518 62.6523 156.259 62.6523Z" fill="#6FA467"/>
<path d="M172.454 63.165C174.478 63.165 176.118 61.5245 176.118 59.5008C176.118 57.4772 174.478 55.8367 172.454 55.8367C170.43 55.8367 168.79 57.4772 168.79 59.5008C168.79 61.5245 170.43 63.165 172.454 63.165Z" fill="#6FA467"/>
<path d="M188.576 62.8716C190.437 62.8716 191.946 61.3623 191.946 59.5005C191.946 57.6387 190.437 56.1294 188.576 56.1294C186.714 56.1294 185.204 57.6387 185.204 59.5005C185.204 61.3623 186.714 62.8716 188.576 62.8716Z" fill="#6FA467"/>
<path d="M204.77 62.6523C206.511 62.6523 207.922 61.2414 207.922 59.5011C207.922 57.7607 206.511 56.3499 204.77 56.3499C203.03 56.3499 201.619 57.7607 201.619 59.5011C201.619 61.2414 203.03 62.6523 204.77 62.6523Z" fill="#6FA467"/>
<path d="M220.968 62.8716C222.83 62.8716 224.339 61.3623 224.339 59.5005C224.339 57.6387 222.83 56.1294 220.968 56.1294C219.107 56.1294 217.597 57.6387 217.597 59.5005C217.597 61.3623 219.107 62.8716 220.968 62.8716Z" fill="#6FA467"/>
<path d="M237.089 61.1131C237.98 61.1131 238.702 60.3913 238.702 59.5009C238.702 58.6105 237.98 57.8887 237.089 57.8887C236.199 57.8887 235.477 58.6105 235.477 59.5009C235.477 60.3913 236.199 61.1131 237.089 61.1131Z" fill="#6FA467"/>
<path d="M59.3041 47.5556C61.6111 47.5556 63.4814 45.6855 63.4814 43.3785C63.4814 41.0716 61.6111 39.2014 59.3041 39.2014C56.9972 39.2014 55.1272 41.0716 55.1272 43.3785C55.1272 45.6855 56.9972 47.5556 59.3041 47.5556Z" fill="#6FA467"/>
<path d="M75.4268 47.2622C77.5719 47.2622 79.3111 45.5233 79.3111 43.3782C79.3111 41.2331 77.5719 39.4941 75.4268 39.4941C73.2818 39.4941 71.543 41.2331 71.543 43.3782C71.543 45.5233 73.2818 47.2622 75.4268 47.2622Z" fill="#6FA467"/>
<path d="M91.6217 47.2622C93.7668 47.2622 95.506 45.5233 95.506 43.3782C95.506 41.2331 93.7668 39.4941 91.6217 39.4941C89.4766 39.4941 87.7379 41.2331 87.7379 43.3782C87.7379 45.5233 89.4766 47.2622 91.6217 47.2622Z" fill="#6FA467"/>
<path d="M107.817 47.0424C109.84 47.0424 111.481 45.4019 111.481 43.3783C111.481 41.3546 109.84 39.7141 107.817 39.7141C105.793 39.7141 104.153 41.3546 104.153 43.3783C104.153 45.4019 105.793 47.0424 107.817 47.0424Z" fill="#6FA467"/>
<path d="M123.941 47.5556C126.248 47.5556 128.118 45.6855 128.118 43.3785C128.118 41.0716 126.248 39.2014 123.941 39.2014C121.634 39.2014 119.763 41.0716 119.763 43.3785C119.763 45.6855 121.634 47.5556 123.941 47.5556Z" fill="#6FA467"/>
<path d="M140.136 47.2622C142.281 47.2622 144.02 45.5233 144.02 43.3782C144.02 41.2331 142.281 39.4941 140.136 39.4941C137.991 39.4941 136.252 41.2331 136.252 43.3782C136.252 45.5233 137.991 47.2622 140.136 47.2622Z" fill="#6FA467"/>
<path d="M156.257 46.7495C158.118 46.7495 159.628 45.2402 159.628 43.3784C159.628 41.5167 158.118 40.0073 156.257 40.0073C154.395 40.0073 152.885 41.5167 152.885 43.3784C152.885 45.2402 154.395 46.7495 156.257 46.7495Z" fill="#6FA467"/>
<path d="M172.454 47.0424C174.478 47.0424 176.118 45.4019 176.118 43.3783C176.118 41.3546 174.478 39.7141 172.454 39.7141C170.43 39.7141 168.79 41.3546 168.79 43.3783C168.79 45.4019 170.43 47.0424 172.454 47.0424Z" fill="#6FA467"/>
<path d="M188.577 47.2622C190.722 47.2622 192.461 45.5233 192.461 43.3782C192.461 41.2331 190.722 39.4941 188.577 39.4941C186.432 39.4941 184.693 41.2331 184.693 43.3782C184.693 45.5233 186.432 47.2622 188.577 47.2622Z" fill="#6FA467"/>
<path d="M204.77 47.2622C206.915 47.2622 208.654 45.5233 208.654 43.3782C208.654 41.2331 206.915 39.4941 204.77 39.4941C202.625 39.4941 200.886 41.2331 200.886 43.3782C200.886 45.5233 202.625 47.2622 204.77 47.2622Z" fill="#6FA467"/>
<path d="M220.968 46.7495C222.83 46.7495 224.339 45.2402 224.339 43.3784C224.339 41.5167 222.83 40.0073 220.968 40.0073C219.107 40.0073 217.597 41.5167 217.597 43.3784C217.597 45.2402 219.107 46.7495 220.968 46.7495Z" fill="#6FA467"/>
<path d="M237.089 44.9903C237.98 44.9903 238.702 44.2685 238.702 43.3781C238.702 42.4877 237.98 41.7659 237.089 41.7659C236.199 41.7659 235.477 42.4877 235.477 43.3781C235.477 44.2685 236.199 44.9903 237.089 44.9903Z" fill="#6FA467"/>
<path d="M26.9862 79.2143C28.9289 79.2143 30.5037 77.6396 30.5037 75.6968C30.5037 73.7541 28.9289 72.1792 26.9862 72.1792C25.0435 72.1792 23.4684 73.7541 23.4684 75.6968C23.4684 77.6396 25.0435 79.2143 26.9862 79.2143Z" fill="#6FA467"/>
<path d="M43.1081 79.2143C45.0509 79.2143 46.6256 77.6396 46.6256 75.6968C46.6256 73.7541 45.0509 72.1792 43.1081 72.1792C41.1654 72.1792 39.5903 73.7541 39.5903 75.6968C39.5903 77.6396 41.1654 79.2143 43.1081 79.2143Z" fill="#6FA467"/>
<path d="M59.3048 79.4336C61.3689 79.4336 63.0423 77.7604 63.0423 75.6963C63.0423 73.6321 61.3689 71.9587 59.3048 71.9587C57.2407 71.9587 55.5676 73.6321 55.5676 75.6963C55.5676 77.7604 57.2407 79.4336 59.3048 79.4336Z" fill="#6FA467"/>
<path d="M75.4273 78.2609C76.8438 78.2609 77.9922 77.1126 77.9922 75.696C77.9922 74.2795 76.8438 73.1311 75.4273 73.1311C74.0107 73.1311 72.8624 74.2795 72.8624 75.696C72.8624 77.1126 74.0107 78.2609 75.4273 78.2609Z" fill="#6FA467"/>
<path d="M91.6225 78.9204C93.4033 78.9204 94.8469 77.4768 94.8469 75.696C94.8469 73.9152 93.4033 72.4714 91.6225 72.4714C89.8416 72.4714 88.3981 73.9152 88.3981 75.696C88.3981 77.4768 89.8416 78.9204 91.6225 78.9204Z" fill="#6FA467"/>
<path d="M107.818 78.1147C109.154 78.1147 110.236 77.0321 110.236 75.6965C110.236 74.3608 109.154 73.2781 107.818 73.2781C106.482 73.2781 105.4 74.3608 105.4 75.6965C105.4 77.0321 106.482 78.1147 107.818 78.1147Z" fill="#6FA467"/>
<path d="M123.94 78.2609C125.357 78.2609 126.505 77.1126 126.505 75.696C126.505 74.2795 125.357 73.1311 123.94 73.1311C122.524 73.1311 121.375 74.2795 121.375 75.696C121.375 77.1126 122.524 78.2609 123.94 78.2609Z" fill="#6FA467"/>
<path d="M140.136 79.5807C142.281 79.5807 144.02 77.8419 144.02 75.6968C144.02 73.5517 142.281 71.8127 140.136 71.8127C137.991 71.8127 136.252 73.5517 136.252 75.6968C136.252 77.8419 137.991 79.5807 140.136 79.5807Z" fill="#6FA467"/>
<path d="M156.259 78.8469C157.999 78.8469 159.41 77.4362 159.41 75.6959C159.41 73.9555 157.999 72.5447 156.259 72.5447C154.518 72.5447 153.107 73.9555 153.107 75.6959C153.107 77.4362 154.518 78.8469 156.259 78.8469Z" fill="#6FA467"/>
<path d="M172.454 79.3601C174.478 79.3601 176.118 77.7196 176.118 75.6959C176.118 73.6722 174.478 72.0317 172.454 72.0317C170.43 72.0317 168.79 73.6722 168.79 75.6959C168.79 77.7196 170.43 79.3601 172.454 79.3601Z" fill="#6FA467"/>
<path d="M188.576 79.0672C190.437 79.0672 191.946 77.5581 191.946 75.6963C191.946 73.8345 190.437 72.3252 188.576 72.3252C186.714 72.3252 185.204 73.8345 185.204 75.6963C185.204 77.5581 186.714 79.0672 188.576 79.0672Z" fill="#6FA467"/>
<path d="M204.77 78.8469C206.511 78.8469 207.922 77.4362 207.922 75.6959C207.922 73.9555 206.511 72.5447 204.77 72.5447C203.03 72.5447 201.619 73.9555 201.619 75.6959C201.619 77.4362 203.03 78.8469 204.77 78.8469Z" fill="#6FA467"/>
<path d="M220.968 79.0672C222.83 79.0672 224.339 77.5581 224.339 75.6963C224.339 73.8345 222.83 72.3252 220.968 72.3252C219.107 72.3252 217.597 73.8345 217.597 75.6963C217.597 77.5581 219.107 79.0672 220.968 79.0672Z" fill="#6FA467"/>
<path d="M237.089 77.3086C237.98 77.3086 238.702 76.5868 238.702 75.6964C238.702 74.8059 237.98 74.084 237.089 74.084C236.199 74.084 235.477 74.8059 235.477 75.6964C235.477 76.5868 236.199 77.3086 237.089 77.3086Z" fill="#6FA467"/>
<path d="M253.286 77.3086C254.176 77.3086 254.898 76.5868 254.898 75.6964C254.898 74.8059 254.176 74.084 253.286 74.084C252.395 74.084 251.673 74.8059 251.673 75.6964C251.673 76.5868 252.395 77.3086 253.286 77.3086Z" fill="#6FA467"/>
<path d="M59.3048 30.9197C61.3689 30.9197 63.0423 29.2463 63.0423 27.1822C63.0423 25.118 61.3689 23.4448 59.3048 23.4448C57.2407 23.4448 55.5676 25.118 55.5676 27.1822C55.5676 29.2463 57.2407 30.9197 59.3048 30.9197Z" fill="#6FA467"/>
<path d="M75.4267 31.4329C77.7741 31.4329 79.6773 29.5299 79.6773 27.1824C79.6773 24.835 77.7741 22.9321 75.4267 22.9321C73.0792 22.9321 71.1764 24.835 71.1764 27.1824C71.1764 29.5299 73.0792 31.4329 75.4267 31.4329Z" fill="#6FA467"/>
<path d="M91.6217 31.0668C93.7668 31.0668 95.506 29.3278 95.506 27.1827C95.506 25.0376 93.7668 23.2988 91.6217 23.2988C89.4766 23.2988 87.7379 25.0376 87.7379 27.1827C87.7379 29.3278 89.4766 31.0668 91.6217 31.0668Z" fill="#6FA467"/>
<path d="M107.819 31.0668C109.964 31.0668 111.702 29.3278 111.702 27.1827C111.702 25.0376 109.964 23.2988 107.819 23.2988C105.673 23.2988 103.935 25.0376 103.935 27.1827C103.935 29.3278 105.673 31.0668 107.819 31.0668Z" fill="#6FA467"/>
<path d="M123.94 30.5538C125.802 30.5538 127.311 29.0445 127.311 27.1827C127.311 25.3209 125.802 23.8118 123.94 23.8118C122.079 23.8118 120.569 25.3209 120.569 27.1827C120.569 29.0445 122.079 30.5538 123.94 30.5538Z" fill="#6FA467"/>
<path d="M140.136 31.0668C142.281 31.0668 144.02 29.3278 144.02 27.1827C144.02 25.0376 142.281 23.2988 140.136 23.2988C137.991 23.2988 136.252 25.0376 136.252 27.1827C136.252 29.3278 137.991 31.0668 140.136 31.0668Z" fill="#6FA467"/>
<path d="M156.258 31.14C158.444 31.14 160.215 29.3681 160.215 27.1826C160.215 24.997 158.444 23.2253 156.258 23.2253C154.073 23.2253 152.301 24.997 152.301 27.1826C152.301 29.3681 154.073 31.14 156.258 31.14Z" fill="#6FA467"/>
<path d="M172.454 30.8469C174.478 30.8469 176.118 29.2064 176.118 27.1827C176.118 25.1591 174.478 23.5186 172.454 23.5186C170.43 23.5186 168.79 25.1591 168.79 27.1827C168.79 29.2064 170.43 30.8469 172.454 30.8469Z" fill="#6FA467"/>
<path d="M188.576 30.5538C190.437 30.5538 191.946 29.0445 191.946 27.1827C191.946 25.3209 190.437 23.8118 188.576 23.8118C186.714 23.8118 185.204 25.3209 185.204 27.1827C185.204 29.0445 186.714 30.5538 188.576 30.5538Z" fill="#6FA467"/>
<path d="M204.77 31.4329C207.117 31.4329 209.021 29.5299 209.021 27.1824C209.021 24.835 207.117 22.9321 204.77 22.9321C202.422 22.9321 200.52 24.835 200.52 27.1824C200.52 29.5299 202.422 31.4329 204.77 31.4329Z" fill="#6FA467"/>
<path d="M220.968 30.5538C222.83 30.5538 224.339 29.0445 224.339 27.1827C224.339 25.3209 222.83 23.8118 220.968 23.8118C219.107 23.8118 217.597 25.3209 217.597 27.1827C217.597 29.0445 219.107 30.5538 220.968 30.5538Z" fill="#6FA467"/>
<path d="M237.089 28.7946C237.98 28.7946 238.702 28.0727 238.702 27.1823C238.702 26.2919 237.98 25.5701 237.089 25.5701C236.199 25.5701 235.477 26.2919 235.477 27.1823C235.477 28.0727 236.199 28.7946 237.089 28.7946Z" fill="#6FA467"/>
<path d="M253.286 12.5994C254.176 12.5994 254.898 11.8776 254.898 10.9872C254.898 10.0968 254.176 9.375 253.286 9.375C252.395 9.375 251.673 10.0968 251.673 10.9872C251.673 11.8776 252.395 12.5994 253.286 12.5994Z" fill="#6FA467"/>
<path d="M59.3034 14.4315C61.2056 14.4315 62.7478 12.8895 62.7478 10.9873C62.7478 9.08501 61.2056 7.54297 59.3034 7.54297C57.4011 7.54297 55.8593 9.08501 55.8593 10.9873C55.8593 12.8895 57.4011 14.4315 59.3034 14.4315Z" fill="#6FA467"/>
<path d="M75.4269 14.505C77.3697 14.505 78.9448 12.9301 78.9448 10.9874C78.9448 9.04465 77.3697 7.46973 75.4269 7.46973C73.4842 7.46973 71.9095 9.04465 71.9095 10.9874C71.9095 12.9301 73.4842 14.505 75.4269 14.505Z" fill="#6FA467"/>
<path d="M91.6225 14.2119C93.4033 14.2119 94.8469 12.7683 94.8469 10.9875C94.8469 9.20669 93.4033 7.76294 91.6225 7.76294C89.8416 7.76294 88.3981 9.20669 88.3981 10.9875C88.3981 12.7683 89.8416 14.2119 91.6225 14.2119Z" fill="#6FA467"/>
<path d="M107.818 15.1643C110.125 15.1643 111.996 13.2941 111.996 10.9872C111.996 8.6802 110.125 6.81006 107.818 6.81006C105.511 6.81006 103.641 8.6802 103.641 10.9872C103.641 13.2941 105.511 15.1643 107.818 15.1643Z" fill="#6FA467"/>
<path d="M123.941 15.1643C126.248 15.1643 128.118 13.2941 128.118 10.9872C128.118 8.6802 126.248 6.81006 123.941 6.81006C121.634 6.81006 119.763 8.6802 119.763 10.9872C119.763 13.2941 121.634 15.1643 123.941 15.1643Z" fill="#6FA467"/>
<path d="M140.136 14.8709C142.281 14.8709 144.02 13.1319 144.02 10.9868C144.02 8.84175 142.281 7.10278 140.136 7.10278C137.991 7.10278 136.252 8.84175 136.252 10.9868C136.252 13.1319 137.991 14.8709 140.136 14.8709Z" fill="#6FA467"/>
<path d="M156.258 14.6506C158.281 14.6506 159.922 13.0101 159.922 10.9864C159.922 8.96277 158.281 7.32227 156.258 7.32227C154.234 7.32227 152.594 8.96277 152.594 10.9864C152.594 13.0101 154.234 14.6506 156.258 14.6506Z" fill="#6FA467"/>
<path d="M172.454 14.6506C174.478 14.6506 176.118 13.0101 176.118 10.9864C176.118 8.96277 174.478 7.32227 172.454 7.32227C170.43 7.32227 168.79 8.96277 168.79 10.9864C168.79 13.0101 170.43 14.6506 172.454 14.6506Z" fill="#6FA467"/>
<path d="M188.577 14.6506C190.601 14.6506 192.241 13.0101 192.241 10.9864C192.241 8.96277 190.601 7.32227 188.577 7.32227C186.553 7.32227 184.913 8.96277 184.913 10.9864C184.913 13.0101 186.553 14.6506 188.577 14.6506Z" fill="#6FA467"/>
<path d="M204.77 14.1381C206.511 14.1381 207.922 12.7273 207.922 10.9869C207.922 9.24656 206.511 7.83569 204.77 7.83569C203.03 7.83569 201.619 9.24656 201.619 10.9869C201.619 12.7273 203.03 14.1381 204.77 14.1381Z" fill="#6FA467"/>
<path d="M220.968 14.358C222.83 14.358 224.339 12.8488 224.339 10.9871C224.339 9.1253 222.83 7.61597 220.968 7.61597C219.107 7.61597 217.597 9.1253 217.597 10.9871C217.597 12.8488 219.107 14.358 220.968 14.358Z" fill="#6FA467"/>
<path d="M237.089 12.5994C237.98 12.5994 238.702 11.8776 238.702 10.9872C238.702 10.0968 237.98 9.375 237.089 9.375C236.199 9.375 235.477 10.0968 235.477 10.9872C235.477 11.8776 236.199 12.5994 237.089 12.5994Z" fill="#6FA467"/>
<path d="M10.7901 47.2622C12.9352 47.2622 14.674 45.5233 14.674 43.3782C14.674 41.2331 12.9352 39.4941 10.7901 39.4941C8.64506 39.4941 6.90591 41.2331 6.90591 43.3782C6.90591 45.5233 8.64506 47.2622 10.7901 47.2622Z" fill="#6FA467"/>
<path d="M26.9861 47.2622C29.1312 47.2622 30.87 45.5233 30.87 43.3782C30.87 41.2331 29.1312 39.4941 26.9861 39.4941C24.841 39.4941 23.1019 41.2331 23.1019 43.3782C23.1019 45.5233 24.841 47.2622 26.9861 47.2622Z" fill="#6FA467"/>
<path d="M43.1088 47.0424C45.1325 47.0424 46.773 45.4019 46.773 43.3783C46.773 41.3546 45.1325 39.7141 43.1088 39.7141C41.0851 39.7141 39.4446 41.3546 39.4446 43.3783C39.4446 45.4019 41.0851 47.0424 43.1088 47.0424Z" fill="#6FA467"/>
<path d="M10.7911 31.14C12.9767 31.14 14.7484 29.3681 14.7484 27.1826C14.7484 24.997 12.9767 23.2253 10.7911 23.2253C8.60557 23.2253 6.83389 24.997 6.83389 27.1826C6.83389 29.3681 8.60557 31.14 10.7911 31.14Z" fill="#6FA467"/>
<path d="M26.9861 31.0668C29.1312 31.0668 30.87 29.3278 30.87 27.1827C30.87 25.0376 29.1312 23.2988 26.9861 23.2988C24.841 23.2988 23.1019 25.0376 23.1019 27.1827C23.1019 29.3278 24.841 31.0668 26.9861 31.0668Z" fill="#6FA467"/>
<path d="M43.1081 31.0668C45.2532 31.0668 46.992 29.3278 46.992 27.1827C46.992 25.0376 45.2532 23.2988 43.1081 23.2988C40.963 23.2988 39.2239 25.0376 39.2239 27.1827C39.2239 29.3278 40.963 31.0668 43.1081 31.0668Z" fill="#6FA467"/>
<path d="M10.7902 14.505C12.7329 14.505 14.3077 12.9301 14.3077 10.9874C14.3077 9.04465 12.7329 7.46973 10.7902 7.46973C8.8475 7.46973 7.2724 9.04465 7.2724 10.9874C7.2724 12.9301 8.8475 14.505 10.7902 14.505Z" fill="#6FA467"/>
<path d="M26.9868 14.2119C28.7676 14.2119 30.2112 12.7683 30.2112 10.9875C30.2112 9.20669 28.7676 7.76294 26.9868 7.76294C25.206 7.76294 23.762 9.20669 23.762 10.9875C23.762 12.7683 25.206 14.2119 26.9868 14.2119Z" fill="#6FA467"/>
<path d="M43.1087 15.1643C45.4157 15.1643 47.2856 13.2941 47.2856 10.9872C47.2856 8.6802 45.4157 6.81006 43.1087 6.81006C40.8017 6.81006 38.9314 8.6802 38.9314 10.9872C38.9314 13.2941 40.8017 15.1643 43.1087 15.1643Z" fill="#6FA467"/>
<path d="M10.7914 222.776C11.6818 222.776 12.4034 222.054 12.4034 221.164C12.4034 220.273 11.6818 219.552 10.7914 219.552C9.90098 219.552 9.17902 220.273 9.17902 221.164C9.17902 222.054 9.90098 222.776 10.7914 222.776Z" fill="#6FA467"/>
<path d="M10.7914 206.58C11.6818 206.58 12.4034 205.858 12.4034 204.968C12.4034 204.077 11.6818 203.356 10.7914 203.356C9.90098 203.356 9.17902 204.077 9.17902 204.968C9.17902 205.858 9.90098 206.58 10.7914 206.58Z" fill="#6FA467"/>
<path d="M10.7914 190.458C11.6818 190.458 12.4034 189.736 12.4034 188.845C12.4034 187.955 11.6818 187.233 10.7914 187.233C9.90098 187.233 9.17902 187.955 9.17902 188.845C9.17902 189.736 9.90098 190.458 10.7914 190.458Z" fill="#6FA467"/>
<path d="M10.7914 174.629C11.8841 174.629 12.7698 173.743 12.7698 172.65C12.7698 171.557 11.8841 170.672 10.7914 170.672C9.69858 170.672 8.81256 171.557 8.81256 172.65C8.81256 173.743 9.69858 174.629 10.7914 174.629Z" fill="#6FA467"/>
<path d="M10.7918 158.653C11.9656 158.653 12.917 157.701 12.917 156.527C12.917 155.354 11.9656 154.402 10.7918 154.402C9.61811 154.402 8.66669 155.354 8.66669 156.527C8.66669 157.701 9.61811 158.653 10.7918 158.653Z" fill="#6FA467"/>
<path d="M10.7895 143.337C12.4489 143.337 13.7942 141.991 13.7942 140.332C13.7942 138.673 12.4489 137.327 10.7895 137.327C9.13007 137.327 7.78479 138.673 7.78479 140.332C7.78479 141.991 9.13007 143.337 10.7895 143.337Z" fill="#6FA467"/>
<path d="M10.7903 126.775C12.2068 126.775 13.3552 125.627 13.3552 124.21C13.3552 122.793 12.2068 121.645 10.7903 121.645C9.37369 121.645 8.22534 122.793 8.22534 124.21C8.22534 125.627 9.37369 126.775 10.7903 126.775Z" fill="#6FA467"/>
<path d="M10.7895 111.018C12.4489 111.018 13.7942 109.673 13.7942 108.014C13.7942 106.354 12.4489 105.009 10.7895 105.009C9.13007 105.009 7.78479 106.354 7.78479 108.014C7.78479 109.673 9.13007 111.018 10.7895 111.018Z" fill="#6FA467"/>
<path d="M10.7913 95.043C12.5721 95.043 14.0157 93.5994 14.0157 91.8186C14.0157 90.0377 12.5721 88.594 10.7913 88.594C9.01044 88.594 7.56686 90.0377 7.56686 91.8186C7.56686 93.5994 9.01044 95.043 10.7913 95.043Z" fill="#6FA467"/>
<path d="M10.7902 63.0177C12.7329 63.0177 14.3077 61.4428 14.3077 59.5001C14.3077 57.5573 12.7329 55.9824 10.7902 55.9824C8.8475 55.9824 7.2724 57.5573 7.2724 59.5001C7.2724 61.4428 8.8475 63.0177 10.7902 63.0177Z" fill="#6FA467"/>
<path d="M10.7902 79.2143C12.7329 79.2143 14.3077 77.6396 14.3077 75.6968C14.3077 73.7541 12.7329 72.1792 10.7902 72.1792C8.8475 72.1792 7.2724 73.7541 7.2724 75.6968C7.2724 77.6396 8.8475 79.2143 10.7902 79.2143Z" fill="#6FA467"/>
</svg>
