<svg width="101" height="569" viewBox="0 0 101 569" fill="none" xmlns="http://www.w3.org/2000/svg">
<path d="M39.1637 3.95773C40.0744 3.95773 40.8127 3.21945 40.8127 2.30873C40.8127 1.39801 40.0744 0.659729 39.1637 0.659729C38.2529 0.659729 37.5146 1.39801 37.5146 2.30873C37.5146 3.21945 38.2529 3.95773 39.1637 3.95773Z" fill="#141414"/>
<path d="M75.5242 4.61729C76.7992 4.61729 77.8326 3.58365 77.8326 2.30864C77.8326 1.03364 76.7992 0 75.5242 0C74.2492 0 73.2158 1.03364 73.2158 2.30864C73.2158 3.58365 74.2492 4.61729 75.5242 4.61729Z" fill="#141414"/>
<path d="M2.80299 22.3442C3.85032 22.3442 4.69918 21.4951 4.69918 20.4478C4.69918 19.4005 3.85032 18.5514 2.80299 18.5514C1.75566 18.5514 0.906799 19.4005 0.906799 20.4478C0.906799 21.4951 1.75566 22.3442 2.80299 22.3442Z" fill="#141414"/>
<path d="M20.9427 22.5913C22.1266 22.5913 23.0869 21.6316 23.0869 20.4477C23.0869 19.2637 22.1266 18.3039 20.9427 18.3039C19.7588 18.3039 18.7993 19.2637 18.7993 20.4477C18.7993 21.6316 19.7588 22.5913 20.9427 22.5913Z" fill="#141414"/>
<path d="M39.1635 22.5913C40.3474 22.5913 41.3069 21.6316 41.3069 20.4477C41.3069 19.2637 40.3474 18.3039 39.1635 18.3039C37.9795 18.3039 37.0193 19.2637 37.0193 20.4477C37.0193 21.6316 37.9795 22.5913 39.1635 22.5913Z" fill="#141414"/>
<path d="M57.3843 22.5913C58.5682 22.5913 59.5277 21.6316 59.5277 20.4477C59.5277 19.2637 58.5682 18.3039 57.3843 18.3039C56.2004 18.3039 55.2409 19.2637 55.2409 20.4477C55.2409 21.6316 56.2004 22.5913 57.3843 22.5913Z" fill="#141414"/>
<path d="M75.5243 22.3442C76.5716 22.3442 77.4205 21.4951 77.4205 20.4478C77.4205 19.4005 76.5716 18.5514 75.5243 18.5514C74.477 18.5514 73.6281 19.4005 73.6281 20.4478C73.6281 21.4951 74.477 22.3442 75.5243 22.3442Z" fill="#141414"/>
<path d="M93.7452 22.1789C94.7015 22.1789 95.4772 21.4039 95.4772 20.4476C95.4772 19.4913 94.7015 18.7161 93.7452 18.7161C92.789 18.7161 92.0141 19.4913 92.0141 20.4476C92.0141 21.4039 92.789 22.1789 93.7452 22.1789Z" fill="#141414"/>
<path d="M20.9428 40.4006C21.8991 40.4006 22.6747 39.6253 22.6747 38.6691C22.6747 37.7128 21.8991 36.9377 20.9428 36.9377C19.9865 36.9377 19.2117 37.7128 19.2117 38.6691C19.2117 39.6253 19.9865 40.4006 20.9428 40.4006Z" fill="#141414"/>
<path d="M2.80321 94.9825C3.75947 94.9825 4.53515 94.2074 4.53515 93.2512C4.53515 92.2949 3.75947 91.5197 2.80321 91.5197C1.84696 91.5197 1.07208 92.2949 1.07208 93.2512C1.07208 94.2074 1.84696 94.9825 2.80321 94.9825Z" fill="#141414"/>
<path d="M39.1637 40.3181C40.0744 40.3181 40.8127 39.5798 40.8127 38.6691C40.8127 37.7584 40.0744 37.0201 39.1637 37.0201C38.2529 37.0201 37.5146 37.7584 37.5146 38.6691C37.5146 39.5798 38.2529 40.3181 39.1637 40.3181Z" fill="#141414"/>
<path d="M57.3853 40.648C58.4782 40.648 59.3644 39.762 59.3644 38.6691C59.3644 37.5762 58.4782 36.6904 57.3853 36.6904C56.2925 36.6904 55.4062 37.5762 55.4062 38.6691C55.4062 39.762 56.2925 40.648 57.3853 40.648Z" fill="#141414"/>
<path d="M75.5242 40.9776C76.7992 40.9776 77.8326 39.9439 77.8326 38.6689C77.8326 37.3939 76.7992 36.3605 75.5242 36.3605C74.2492 36.3605 73.2158 37.3939 73.2158 38.6689C73.2158 39.9439 74.2492 40.9776 75.5242 40.9776Z" fill="#141414"/>
<path d="M93.7448 40.9776C95.0199 40.9776 96.0541 39.9439 96.0541 38.6689C96.0541 37.3939 95.0199 36.3605 93.7448 36.3605C92.4698 36.3605 91.4364 37.3939 91.4364 38.6689C91.4364 39.9439 92.4698 40.9776 93.7448 40.9776Z" fill="#141414"/>
<path d="M20.9427 58.9519C22.1266 58.9519 23.0869 57.992 23.0869 56.8081C23.0869 55.6241 22.1266 54.6645 20.9427 54.6645C19.7588 54.6645 18.7993 55.6241 18.7993 56.8081C18.7993 57.992 19.7588 58.9519 20.9427 58.9519Z" fill="#141414"/>
<path d="M39.1654 59.4466C40.6225 59.4466 41.8031 58.2652 41.8031 56.808C41.8031 55.3509 40.6225 54.1697 39.1654 54.1697C37.7082 54.1697 36.5268 55.3509 36.5268 56.808C36.5268 58.2652 37.7082 59.4466 39.1654 59.4466Z" fill="#141414"/>
<path d="M57.3853 58.7871C58.4782 58.7871 59.3644 57.901 59.3644 56.8081C59.3644 55.7153 58.4782 54.8294 57.3853 54.8294C56.2925 54.8294 55.4062 55.7153 55.4062 56.8081C55.4062 57.901 56.2925 58.7871 57.3853 58.7871Z" fill="#141414"/>
<path d="M75.523 58.6221C76.5248 58.6221 77.3371 57.8098 77.3371 56.808C77.3371 55.8062 76.5248 54.9941 75.523 54.9941C74.5212 54.9941 73.7089 55.8062 73.7089 56.808C73.7089 57.8098 74.5212 58.6221 75.523 58.6221Z" fill="#141414"/>
<path d="M93.747 58.7871C94.8399 58.7871 95.7261 57.901 95.7261 56.8081C95.7261 55.7153 94.8399 54.8294 93.747 54.8294C92.6541 54.8294 91.7687 55.7153 91.7687 56.8081C91.7687 57.901 92.6541 58.7871 93.747 58.7871Z" fill="#141414"/>
<path d="M20.9427 77.1734C22.1266 77.1734 23.0869 76.2135 23.0869 75.0296C23.0869 73.8457 22.1266 72.8858 20.9427 72.8858C19.7588 72.8858 18.7993 73.8457 18.7993 75.0296C18.7993 76.2135 19.7588 77.1734 20.9427 77.1734Z" fill="#141414"/>
<path d="M39.1654 77.668C40.6225 77.668 41.8031 76.4867 41.8031 75.0296C41.8031 73.5724 40.6225 72.3912 39.1654 72.3912C37.7082 72.3912 36.5268 73.5724 36.5268 75.0296C36.5268 76.4867 37.7082 77.668 39.1654 77.668Z" fill="#141414"/>
<path d="M57.384 78.0802C59.0688 78.0802 60.4348 76.7144 60.4348 75.0296C60.4348 73.3448 59.0688 71.979 57.384 71.979C55.6992 71.979 54.3332 73.3448 54.3332 75.0296C54.3332 76.7144 55.6992 78.0802 57.384 78.0802Z" fill="#141414"/>
<path d="M75.5239 77.668C76.9811 77.668 78.1625 76.4867 78.1625 75.0296C78.1625 73.5724 76.9811 72.3912 75.5239 72.3912C74.0668 72.3912 72.8854 73.5724 72.8854 75.0296C72.8854 76.4867 74.0668 77.668 75.5239 77.668Z" fill="#141414"/>
<path d="M93.7456 78.4924C95.6581 78.4924 97.2087 76.9421 97.2087 75.0296C97.2087 73.1171 95.6581 71.5667 93.7456 71.5667C91.8331 71.5667 90.2833 73.1171 90.2833 75.0296C90.2833 76.9421 91.8331 78.4924 93.7456 78.4924Z" fill="#141414"/>
<path d="M20.9404 95.4774C22.1699 95.4774 23.1667 94.4807 23.1667 93.2513C23.1667 92.0218 22.1699 91.025 20.9404 91.025C19.711 91.025 18.7141 92.0218 18.7141 93.2513C18.7141 94.4807 19.711 95.4774 20.9404 95.4774Z" fill="#141414"/>
<path d="M39.1654 95.8896C40.6225 95.8896 41.8031 94.7084 41.8031 93.2512C41.8031 91.7941 40.6225 90.6127 39.1654 90.6127C37.7082 90.6127 36.5268 91.7941 36.5268 93.2512C36.5268 94.7084 37.7082 95.8896 39.1654 95.8896Z" fill="#141414"/>
<path d="M57.386 96.5491C59.2075 96.5491 60.684 95.0725 60.684 93.2511C60.684 91.4296 59.2075 89.9531 57.386 89.9531C55.5646 89.9531 54.088 91.4296 54.088 93.2511C54.088 95.0725 55.5646 96.5491 57.386 96.5491Z" fill="#141414"/>
<path d="M75.5229 95.4774C76.7524 95.4774 77.7492 94.4807 77.7492 93.2513C77.7492 92.0218 76.7524 91.025 75.5229 91.025C74.2934 91.025 73.2966 92.0218 73.2966 93.2513C73.2966 94.4807 74.2934 95.4774 75.5229 95.4774Z" fill="#141414"/>
<path d="M93.7456 96.5491C95.5671 96.5491 97.0436 95.0725 97.0436 93.2511C97.0436 91.4296 95.5671 89.9531 93.7456 89.9531C91.9242 89.9531 90.4476 91.4296 90.4476 93.2511C90.4476 95.0725 91.9242 96.5491 93.7456 96.5491Z" fill="#141414"/>
<path d="M39.1642 114.193C40.7124 114.193 41.967 112.938 41.967 111.39C41.967 109.842 40.7124 108.587 39.1642 108.587C37.6159 108.587 36.3605 109.842 36.3605 111.39C36.3605 112.938 37.6159 114.193 39.1642 114.193Z" fill="#141414"/>
<path d="M57.3851 114.193C58.9333 114.193 60.1887 112.938 60.1887 111.39C60.1887 109.842 58.9333 108.587 57.3851 108.587C55.8369 108.587 54.5815 109.842 54.5815 111.39C54.5815 112.938 55.8369 114.193 57.3851 114.193Z" fill="#141414"/>
<path d="M75.5228 114.193C77.071 114.193 78.3264 112.938 78.3264 111.39C78.3264 109.842 77.071 108.587 75.5228 108.587C73.9746 108.587 72.7192 109.842 72.7192 111.39C72.7192 112.938 73.9746 114.193 75.5228 114.193Z" fill="#141414"/>
<path d="M93.7456 114.688C95.5671 114.688 97.0436 113.212 97.0436 111.39C97.0436 109.569 95.5671 108.092 93.7456 108.092C91.9242 108.092 90.4476 109.569 90.4476 111.39C90.4476 113.212 91.9242 114.688 93.7456 114.688Z" fill="#141414"/>
<path d="M39.1635 131.755C40.3474 131.755 41.3069 130.796 41.3069 129.612C41.3069 128.428 40.3474 127.468 39.1635 127.468C37.9795 127.468 37.0193 128.428 37.0193 129.612C37.0193 130.796 37.9795 131.755 39.1635 131.755Z" fill="#141414"/>
<path d="M57.3843 131.755C58.5682 131.755 59.5277 130.796 59.5277 129.612C59.5277 128.428 58.5682 127.468 57.3843 127.468C56.2004 127.468 55.2409 128.428 55.2409 129.612C55.2409 130.796 56.2004 131.755 57.3843 131.755Z" fill="#141414"/>
<path d="M75.5242 131.755C76.7081 131.755 77.6676 130.796 77.6676 129.612C77.6676 128.428 76.7081 127.468 75.5242 127.468C74.3402 127.468 73.3808 128.428 73.3808 129.612C73.3808 130.796 74.3402 131.755 75.5242 131.755Z" fill="#141414"/>
<path d="M93.7449 132.085C95.1109 132.085 96.2184 130.978 96.2184 129.612C96.2184 128.245 95.1109 127.138 93.7449 127.138C92.3788 127.138 91.2714 128.245 91.2714 129.612C91.2714 130.978 92.3788 132.085 93.7449 132.085Z" fill="#141414"/>
<path d="M20.9427 149.894C22.1266 149.894 23.0869 148.935 23.0869 147.751C23.0869 146.567 22.1266 145.607 20.9427 145.607C19.7588 145.607 18.7993 146.567 18.7993 147.751C18.7993 148.935 19.7588 149.894 20.9427 149.894Z" fill="#141414"/>
<path d="M39.1642 150.554C40.7124 150.554 41.967 149.299 41.967 147.75C41.967 146.202 40.7124 144.947 39.1642 144.947C37.6159 144.947 36.3605 146.202 36.3605 147.75C36.3605 149.299 37.6159 150.554 39.1642 150.554Z" fill="#141414"/>
<path d="M2.80282 186.914C4.35104 186.914 5.60645 185.659 5.60645 184.111C5.60645 182.563 4.35104 181.308 2.80282 181.308C1.2546 181.308 0 182.563 0 184.111C0 185.659 1.2546 186.914 2.80282 186.914Z" fill="#141414"/>
<path d="M2.80282 277.857C4.35104 277.857 5.60645 276.602 5.60645 275.054C5.60645 273.506 4.35104 272.25 2.80282 272.25C1.2546 272.25 0 273.506 0 275.054C0 276.602 1.2546 277.857 2.80282 277.857Z" fill="#141414"/>
<path d="M57.3851 150.554C58.9333 150.554 60.1887 149.299 60.1887 147.75C60.1887 146.202 58.9333 144.947 57.3851 144.947C55.8369 144.947 54.5815 146.202 54.5815 147.75C54.5815 149.299 55.8369 150.554 57.3851 150.554Z" fill="#141414"/>
<path d="M75.5235 151.214C77.436 151.214 78.9866 149.663 78.9866 147.751C78.9866 145.838 77.436 144.288 75.5235 144.288C73.611 144.288 72.0604 145.838 72.0604 147.751C72.0604 149.663 73.611 151.214 75.5235 151.214Z" fill="#141414"/>
<path d="M93.7456 151.049C95.5671 151.049 97.0436 149.572 97.0436 147.751C97.0436 145.929 95.5671 144.453 93.7456 144.453C91.9242 144.453 90.4476 145.929 90.4476 147.751C90.4476 149.572 91.9242 151.049 93.7456 151.049Z" fill="#141414"/>
<path d="M93.7454 188.234C96.0222 188.234 97.8679 186.388 97.8679 184.111C97.8679 181.834 96.0222 179.989 93.7454 179.989C91.4686 179.989 89.6229 181.834 89.6229 184.111C89.6229 186.388 91.4686 188.234 93.7454 188.234Z" fill="#141414"/>
<path d="M75.5237 187.904C77.6184 187.904 79.3161 186.206 79.3161 184.111C79.3161 182.017 77.6184 180.318 75.5237 180.318C73.4291 180.318 71.7313 182.017 71.7313 184.111C71.7313 186.206 73.4291 187.904 75.5237 187.904Z" fill="#141414"/>
<path d="M57.3859 187.657C59.3439 187.657 60.9311 186.069 60.9311 184.111C60.9311 182.153 59.3439 180.566 57.3859 180.566C55.4278 180.566 53.8407 182.153 53.8407 184.111C53.8407 186.069 55.4278 187.657 57.3859 187.657Z" fill="#141414"/>
<path d="M39.1628 187.904C41.2574 187.904 42.9551 186.206 42.9551 184.111C42.9551 182.017 41.2574 180.318 39.1628 180.318C37.0681 180.318 35.3696 182.017 35.3696 184.111C35.3696 186.206 37.0681 187.904 39.1628 187.904Z" fill="#141414"/>
<path d="M20.9408 185.925C21.9426 185.925 22.7549 185.113 22.7549 184.111C22.7549 183.109 21.9426 182.297 20.9408 182.297C19.939 182.297 19.1268 183.109 19.1268 184.111C19.1268 185.113 19.939 185.925 20.9408 185.925Z" fill="#141414"/>
<path d="M93.7454 206.455C96.0222 206.455 97.8679 204.61 97.8679 202.333C97.8679 200.056 96.0222 198.21 93.7454 198.21C91.4686 198.21 89.6229 200.056 89.6229 202.333C89.6229 204.61 91.4686 206.455 93.7454 206.455Z" fill="#141414"/>
<path d="M75.5243 206.703C77.9377 206.703 79.894 204.746 79.894 202.333C79.894 199.919 77.9377 197.963 75.5243 197.963C73.1109 197.963 71.1546 199.919 71.1546 202.333C71.1546 204.746 73.1109 206.703 75.5243 206.703Z" fill="#141414"/>
<path d="M57.3857 206.703C59.7991 206.703 61.7554 204.746 61.7554 202.333C61.7554 199.919 59.7991 197.963 57.3857 197.963C54.9723 197.963 53.016 199.919 53.016 202.333C53.016 204.746 54.9723 206.703 57.3857 206.703Z" fill="#141414"/>
<path d="M39.1628 206.125C41.2574 206.125 42.9551 204.427 42.9551 202.332C42.9551 200.238 41.2574 198.54 39.1628 198.54C37.0681 198.54 35.3696 200.238 35.3696 202.332C35.3696 204.427 37.0681 206.125 39.1628 206.125Z" fill="#141414"/>
<path d="M20.9408 204.147C21.9426 204.147 22.7549 203.334 22.7549 202.333C22.7549 201.331 21.9426 200.519 20.9408 200.519C19.939 200.519 19.1268 201.331 19.1268 202.333C19.1268 203.334 19.939 204.147 20.9408 204.147Z" fill="#141414"/>
<path d="M93.7454 170.095C96.0222 170.095 97.8679 168.249 97.8679 165.972C97.8679 163.695 96.0222 161.85 93.7454 161.85C91.4686 161.85 89.6229 163.695 89.6229 165.972C89.6229 168.249 91.4686 170.095 93.7454 170.095Z" fill="#141414"/>
<path d="M75.5237 169.765C77.6184 169.765 79.3161 168.067 79.3161 165.972C79.3161 163.878 77.6184 162.179 75.5237 162.179C73.4291 162.179 71.7313 163.878 71.7313 165.972C71.7313 168.067 73.4291 169.765 75.5237 169.765Z" fill="#141414"/>
<path d="M57.3859 169.517C59.3439 169.517 60.9311 167.93 60.9311 165.972C60.9311 164.014 59.3439 162.427 57.3859 162.427C55.4278 162.427 53.8407 164.014 53.8407 165.972C53.8407 167.93 55.4278 169.517 57.3859 169.517Z" fill="#141414"/>
<path d="M39.1628 169.765C41.2574 169.765 42.9551 168.067 42.9551 165.972C42.9551 163.878 41.2574 162.179 39.1628 162.179C37.0681 162.179 35.3696 163.878 35.3696 165.972C35.3696 168.067 37.0681 169.765 39.1628 169.765Z" fill="#141414"/>
<path d="M20.9408 167.786C21.9426 167.786 22.7549 166.974 22.7549 165.972C22.7549 164.97 21.9426 164.158 20.9408 164.158C19.939 164.158 19.1268 164.97 19.1268 165.972C19.1268 166.974 19.939 167.786 20.9408 167.786Z" fill="#141414"/>
<path d="M2.80289 167.786C3.80469 167.786 4.61696 166.974 4.61696 165.972C4.61696 164.97 3.80469 164.158 2.80289 164.158C1.8011 164.158 0.988831 164.97 0.988831 165.972C0.988831 166.974 1.8011 167.786 2.80289 167.786Z" fill="#141414"/>
<path d="M93.7454 224.677C96.0222 224.677 97.8679 222.831 97.8679 220.554C97.8679 218.277 96.0222 216.432 93.7454 216.432C91.4686 216.432 89.6229 218.277 89.6229 220.554C89.6229 222.831 91.4686 224.677 93.7454 224.677Z" fill="#141414"/>
<path d="M75.5237 224.347C77.6184 224.347 79.3161 222.649 79.3161 220.554C79.3161 218.459 77.6184 216.761 75.5237 216.761C73.4291 216.761 71.7313 218.459 71.7313 220.554C71.7313 222.649 73.4291 224.347 75.5237 224.347Z" fill="#141414"/>
<path d="M57.3856 225.336C60.0267 225.336 62.1675 223.195 62.1675 220.554C62.1675 217.913 60.0267 215.772 57.3856 215.772C54.7445 215.772 52.6036 217.913 52.6036 220.554C52.6036 223.195 54.7445 225.336 57.3856 225.336Z" fill="#141414"/>
<path d="M39.1628 224.347C41.2574 224.347 42.9551 222.649 42.9551 220.554C42.9551 218.459 41.2574 216.761 39.1628 216.761C37.0681 216.761 35.3696 218.459 35.3696 220.554C35.3696 222.649 37.0681 224.347 39.1628 224.347Z" fill="#141414"/>
<path d="M20.9408 222.368C21.9426 222.368 22.7549 221.556 22.7549 220.554C22.7549 219.552 21.9426 218.74 20.9408 218.74C19.939 218.74 19.1268 219.552 19.1268 220.554C19.1268 221.556 19.939 222.368 20.9408 222.368Z" fill="#141414"/>
<path d="M2.80289 240.507C3.80469 240.507 4.61696 239.695 4.61696 238.693C4.61696 237.691 3.80469 236.879 2.80289 236.879C1.8011 236.879 0.988831 237.691 0.988831 238.693C0.988831 239.695 1.8011 240.507 2.80289 240.507Z" fill="#141414"/>
<path d="M93.7454 242.816C96.0222 242.816 97.8679 240.97 97.8679 238.693C97.8679 236.416 96.0222 234.571 93.7454 234.571C91.4686 234.571 89.6229 236.416 89.6229 238.693C89.6229 240.97 91.4686 242.816 93.7454 242.816Z" fill="#141414"/>
<path d="M75.5235 242.816C77.8003 242.816 79.646 240.97 79.646 238.693C79.646 236.416 77.8003 234.571 75.5235 234.571C73.2467 234.571 71.401 236.416 71.401 238.693C71.401 240.97 73.2467 242.816 75.5235 242.816Z" fill="#141414"/>
<path d="M57.3859 242.238C59.3439 242.238 60.9311 240.651 60.9311 238.693C60.9311 236.735 59.3439 235.148 57.3859 235.148C55.4278 235.148 53.8407 236.735 53.8407 238.693C53.8407 240.651 55.4278 242.238 57.3859 242.238Z" fill="#141414"/>
<path d="M39.1628 242.486C41.2574 242.486 42.9551 240.788 42.9551 238.693C42.9551 236.599 41.2574 234.9 39.1628 234.9C37.0681 234.9 35.3696 236.599 35.3696 238.693C35.3696 240.788 37.0681 242.486 39.1628 242.486Z" fill="#141414"/>
<path d="M20.9408 240.507C21.9426 240.507 22.7549 239.695 22.7549 238.693C22.7549 237.691 21.9426 236.879 20.9408 236.879C19.939 236.879 19.1268 237.691 19.1268 238.693C19.1268 239.695 19.939 240.507 20.9408 240.507Z" fill="#141414"/>
<path d="M93.7454 261.037C96.0222 261.037 97.8679 259.192 97.8679 256.915C97.8679 254.638 96.0222 252.792 93.7454 252.792C91.4686 252.792 89.6229 254.638 89.6229 256.915C89.6229 259.192 91.4686 261.037 93.7454 261.037Z" fill="#141414"/>
<path d="M75.5243 261.285C77.9377 261.285 79.894 259.328 79.894 256.915C79.894 254.501 77.9377 252.545 75.5243 252.545C73.1109 252.545 71.1546 254.501 71.1546 256.915C71.1546 259.328 73.1109 261.285 75.5243 261.285Z" fill="#141414"/>
<path d="M57.3857 261.285C59.7991 261.285 61.7554 259.328 61.7554 256.915C61.7554 254.501 59.7991 252.545 57.3857 252.545C54.9723 252.545 53.016 254.501 53.016 256.915C53.016 259.328 54.9723 261.285 57.3857 261.285Z" fill="#141414"/>
<path d="M39.1628 260.707C41.2574 260.707 42.9551 259.009 42.9551 256.915C42.9551 254.82 41.2574 253.122 39.1628 253.122C37.0681 253.122 35.3696 254.82 35.3696 256.915C35.3696 259.009 37.0681 260.707 39.1628 260.707Z" fill="#141414"/>
<path d="M20.9408 258.729C21.9426 258.729 22.7549 257.917 22.7549 256.915C22.7549 255.913 21.9426 255.101 20.9408 255.101C19.939 255.101 19.1268 255.913 19.1268 256.915C19.1268 257.917 19.939 258.729 20.9408 258.729Z" fill="#141414"/>
<path d="M93.7454 279.176C96.0222 279.176 97.8679 277.331 97.8679 275.054C97.8679 272.777 96.0222 270.931 93.7454 270.931C91.4686 270.931 89.6229 272.777 89.6229 275.054C89.6229 277.331 91.4686 279.176 93.7454 279.176Z" fill="#141414"/>
<path d="M75.5234 279.671C78.0735 279.671 80.1403 277.604 80.1403 275.054C80.1403 272.504 78.0735 270.437 75.5234 270.437C72.9734 270.437 70.9066 272.504 70.9066 275.054C70.9066 277.604 72.9734 279.671 75.5234 279.671Z" fill="#141414"/>
<path d="M57.3858 279.176C59.6626 279.176 61.5083 277.331 61.5083 275.054C61.5083 272.777 59.6626 270.931 57.3858 270.931C55.109 270.931 53.2633 272.777 53.2633 275.054C53.2633 277.331 55.109 279.176 57.3858 279.176Z" fill="#141414"/>
<path d="M39.1628 278.846C41.2574 278.846 42.9551 277.148 42.9551 275.054C42.9551 272.959 41.2574 271.261 39.1628 271.261C37.0681 271.261 35.3696 272.959 35.3696 275.054C35.3696 277.148 37.0681 278.846 39.1628 278.846Z" fill="#141414"/>
<path d="M20.9408 276.868C21.9426 276.868 22.7549 276.055 22.7549 275.054C22.7549 274.052 21.9426 273.24 20.9408 273.24C19.939 273.24 19.1268 274.052 19.1268 275.054C19.1268 276.055 19.939 276.868 20.9408 276.868Z" fill="#141414"/>
<path d="M2.80321 476.892C3.75947 476.892 4.53515 476.116 4.53515 475.16C4.53515 474.204 3.75947 473.429 2.80321 473.429C1.84696 473.429 1.07208 474.204 1.07208 475.16C1.07208 476.116 1.84696 476.892 2.80321 476.892Z" fill="#141414"/>
<path d="M2.80282 387.021C4.35104 387.021 5.60645 385.766 5.60645 384.218C5.60645 382.669 4.35104 381.414 2.80282 381.414C1.2546 381.414 0 382.669 0 384.218C0 385.766 1.2546 387.021 2.80282 387.021Z" fill="#141414"/>
<path d="M2.80282 296.078C4.35104 296.078 5.60645 294.823 5.60645 293.275C5.60645 291.727 4.35104 290.472 2.80282 290.472C1.2546 290.472 0 291.727 0 293.275C0 294.823 1.2546 296.078 2.80282 296.078Z" fill="#141414"/>
<path d="M2.80289 404.253C3.80469 404.253 4.61696 403.441 4.61696 402.439C4.61696 401.438 3.80469 400.625 2.80289 400.625C1.8011 400.625 0.988831 401.438 0.988831 402.439C0.988831 403.441 1.8011 404.253 2.80289 404.253Z" fill="#141414"/>
<path d="M2.80289 331.45C3.80469 331.45 4.61696 330.637 4.61696 329.636C4.61696 328.634 3.80469 327.822 2.80289 327.822C1.8011 327.822 0.988831 328.634 0.988831 329.636C0.988831 330.637 1.8011 331.45 2.80289 331.45Z" fill="#141414"/>
<path d="M93.7454 370.201C96.0222 370.201 97.8679 368.355 97.8679 366.079C97.8679 363.802 96.0222 361.956 93.7454 361.956C91.4686 361.956 89.6229 363.802 89.6229 366.079C89.6229 368.355 91.4686 370.201 93.7454 370.201Z" fill="#141414"/>
<path d="M75.5243 370.448C77.9377 370.448 79.894 368.492 79.894 366.079C79.894 363.665 77.9377 361.709 75.5243 361.709C73.1109 361.709 71.1546 363.665 71.1546 366.079C71.1546 368.492 73.1109 370.448 75.5243 370.448Z" fill="#141414"/>
<path d="M57.3849 369.459C59.2519 369.459 60.765 367.946 60.765 366.079C60.765 364.212 59.2519 362.698 57.3849 362.698C55.5179 362.698 54.0048 364.212 54.0048 366.079C54.0048 367.946 55.5179 369.459 57.3849 369.459Z" fill="#141414"/>
<path d="M39.1628 369.871C41.2574 369.871 42.9551 368.173 42.9551 366.079C42.9551 363.984 41.2574 362.286 39.1628 362.286C37.0681 362.286 35.3696 363.984 35.3696 366.079C35.3696 368.173 37.0681 369.871 39.1628 369.871Z" fill="#141414"/>
<path d="M20.9408 367.892C21.9426 367.892 22.7549 367.08 22.7549 366.079C22.7549 365.077 21.9426 364.265 20.9408 364.265C19.939 364.265 19.1268 365.077 19.1268 366.079C19.1268 367.08 19.939 367.892 20.9408 367.892Z" fill="#141414"/>
<path d="M93.7454 351.98C96.0222 351.98 97.8679 350.134 97.8679 347.857C97.8679 345.58 96.0222 343.735 93.7454 343.735C91.4686 343.735 89.6229 345.58 89.6229 347.857C89.6229 350.134 91.4686 351.98 93.7454 351.98Z" fill="#141414"/>
<path d="M75.5237 351.65C77.6184 351.65 79.3161 349.952 79.3161 347.857C79.3161 345.762 77.6184 344.064 75.5237 344.064C73.4291 344.064 71.7313 345.762 71.7313 347.857C71.7313 349.952 73.4291 351.65 75.5237 351.65Z" fill="#141414"/>
<path d="M57.3849 351.238C59.2519 351.238 60.765 349.724 60.765 347.857C60.765 345.99 59.2519 344.477 57.3849 344.477C55.5179 344.477 54.0048 345.99 54.0048 347.857C54.0048 349.724 55.5179 351.238 57.3849 351.238Z" fill="#141414"/>
<path d="M39.1628 351.65C41.2574 351.65 42.9551 349.952 42.9551 347.857C42.9551 345.762 41.2574 344.064 39.1628 344.064C37.0681 344.064 35.3696 345.762 35.3696 347.857C35.3696 349.952 37.0681 351.65 39.1628 351.65Z" fill="#141414"/>
<path d="M20.9408 349.671C21.9426 349.671 22.7549 348.859 22.7549 347.857C22.7549 346.855 21.9426 346.043 20.9408 346.043C19.939 346.043 19.1268 346.855 19.1268 347.857C19.1268 348.859 19.939 349.671 20.9408 349.671Z" fill="#141414"/>
<path d="M93.7454 333.758C96.0222 333.758 97.8679 331.912 97.8679 329.636C97.8679 327.359 96.0222 325.513 93.7454 325.513C91.4686 325.513 89.6229 327.359 89.6229 329.636C89.6229 331.912 91.4686 333.758 93.7454 333.758Z" fill="#141414"/>
<path d="M75.5247 333.593C77.7104 333.593 79.4822 331.821 79.4822 329.636C79.4822 327.45 77.7104 325.678 75.5247 325.678C73.339 325.678 71.5673 327.45 71.5673 329.636C71.5673 331.821 73.339 333.593 75.5247 333.593Z" fill="#141414"/>
<path d="M57.3859 333.181C59.3439 333.181 60.9311 331.594 60.9311 329.636C60.9311 327.678 59.3439 326.09 57.3859 326.09C55.4278 326.09 53.8407 327.678 53.8407 329.636C53.8407 331.594 55.4278 333.181 57.3859 333.181Z" fill="#141414"/>
<path d="M39.1628 333.428C41.2574 333.428 42.9551 331.73 42.9551 329.636C42.9551 327.541 41.2574 325.843 39.1628 325.843C37.0681 325.843 35.3696 327.541 35.3696 329.636C35.3696 331.73 37.0681 333.428 39.1628 333.428Z" fill="#141414"/>
<path d="M20.9408 331.45C21.9426 331.45 22.7549 330.637 22.7549 329.636C22.7549 328.634 21.9426 327.822 20.9408 327.822C19.939 327.822 19.1268 328.634 19.1268 329.636C19.1268 330.637 19.939 331.45 20.9408 331.45Z" fill="#141414"/>
<path d="M93.7454 315.619C96.0222 315.619 97.8679 313.774 97.8679 311.497C97.8679 309.22 96.0222 307.374 93.7454 307.374C91.4686 307.374 89.6229 309.22 89.6229 311.497C89.6229 313.774 91.4686 315.619 93.7454 315.619Z" fill="#141414"/>
<path d="M75.5243 315.867C77.9377 315.867 79.894 313.91 79.894 311.497C79.894 309.083 77.9377 307.127 75.5243 307.127C73.1109 307.127 71.1546 309.083 71.1546 311.497C71.1546 313.91 73.1109 315.867 75.5243 315.867Z" fill="#141414"/>
<path d="M57.3857 315.867C59.7991 315.867 61.7554 313.91 61.7554 311.497C61.7554 309.083 59.7991 307.127 57.3857 307.127C54.9723 307.127 53.016 309.083 53.016 311.497C53.016 313.91 54.9723 315.867 57.3857 315.867Z" fill="#141414"/>
<path d="M39.1628 315.289C41.2574 315.289 42.9551 313.591 42.9551 311.497C42.9551 309.402 41.2574 307.704 39.1628 307.704C37.0681 307.704 35.3696 309.402 35.3696 311.497C35.3696 313.591 37.0681 315.289 39.1628 315.289Z" fill="#141414"/>
<path d="M20.9408 313.311C21.9426 313.311 22.7549 312.499 22.7549 311.497C22.7549 310.495 21.9426 309.683 20.9408 309.683C19.939 309.683 19.1268 310.495 19.1268 311.497C19.1268 312.499 19.939 313.311 20.9408 313.311Z" fill="#141414"/>
<path d="M93.7454 297.398C96.0222 297.398 97.8679 295.552 97.8679 293.275C97.8679 290.998 96.0222 289.153 93.7454 289.153C91.4686 289.153 89.6229 290.998 89.6229 293.275C89.6229 295.552 91.4686 297.398 93.7454 297.398Z" fill="#141414"/>
<path d="M75.5234 297.892C78.0735 297.892 80.1403 295.825 80.1403 293.275C80.1403 290.725 78.0735 288.658 75.5234 288.658C72.9734 288.658 70.9066 290.725 70.9066 293.275C70.9066 295.825 72.9734 297.892 75.5234 297.892Z" fill="#141414"/>
<path d="M57.3858 297.398C59.6626 297.398 61.5083 295.552 61.5083 293.275C61.5083 290.998 59.6626 289.153 57.3858 289.153C55.109 289.153 53.2633 290.998 53.2633 293.275C53.2633 295.552 55.109 297.398 57.3858 297.398Z" fill="#141414"/>
<path d="M39.1628 297.068C41.2574 297.068 42.9551 295.37 42.9551 293.275C42.9551 291.18 41.2574 289.483 39.1628 289.483C37.0681 289.483 35.3696 291.18 35.3696 293.275C35.3696 295.37 37.0681 297.068 39.1628 297.068Z" fill="#141414"/>
<path d="M20.9408 295.089C21.9426 295.089 22.7549 294.277 22.7549 293.275C22.7549 292.273 21.9426 291.461 20.9408 291.461C19.939 291.461 19.1268 292.273 19.1268 293.275C19.1268 294.277 19.939 295.089 20.9408 295.089Z" fill="#141414"/>
<path d="M39.1637 567.752C40.0744 567.752 40.8127 567.014 40.8127 566.103C40.8127 565.192 40.0744 564.454 39.1637 564.454C38.2529 564.454 37.5146 565.192 37.5146 566.103C37.5146 567.014 38.2529 567.752 39.1637 567.752Z" fill="#141414"/>
<path d="M75.5242 568.411C76.7992 568.411 77.8326 567.378 77.8326 566.103C77.8326 564.828 76.7992 563.794 75.5242 563.794C74.2492 563.794 73.2158 564.828 73.2158 566.103C73.2158 567.378 74.2492 568.411 75.5242 568.411Z" fill="#141414"/>
<path d="M2.80299 549.778C3.85032 549.778 4.69918 548.929 4.69918 547.881C4.69918 546.834 3.85032 545.985 2.80299 545.985C1.75566 545.985 0.906799 546.834 0.906799 547.881C0.906799 548.929 1.75566 549.778 2.80299 549.778Z" fill="#141414"/>
<path d="M20.9427 550.025C22.1266 550.025 23.0869 549.065 23.0869 547.881C23.0869 546.697 22.1266 545.737 20.9427 545.737C19.7588 545.737 18.7993 546.697 18.7993 547.881C18.7993 549.065 19.7588 550.025 20.9427 550.025Z" fill="#141414"/>
<path d="M39.1635 550.025C40.3474 550.025 41.3069 549.065 41.3069 547.881C41.3069 546.697 40.3474 545.737 39.1635 545.737C37.9795 545.737 37.0193 546.697 37.0193 547.881C37.0193 549.065 37.9795 550.025 39.1635 550.025Z" fill="#141414"/>
<path d="M57.3843 550.025C58.5682 550.025 59.5277 549.065 59.5277 547.881C59.5277 546.697 58.5682 545.737 57.3843 545.737C56.2004 545.737 55.2409 546.697 55.2409 547.881C55.2409 549.065 56.2004 550.025 57.3843 550.025Z" fill="#141414"/>
<path d="M75.5243 549.778C76.5716 549.778 77.4205 548.929 77.4205 547.881C77.4205 546.834 76.5716 545.985 75.5243 545.985C74.477 545.985 73.6281 546.834 73.6281 547.881C73.6281 548.929 74.477 549.778 75.5243 549.778Z" fill="#141414"/>
<path d="M93.7452 549.613C94.7015 549.613 95.4772 548.837 95.4772 547.881C95.4772 546.925 94.7015 546.15 93.7452 546.15C92.789 546.15 92.0141 546.925 92.0141 547.881C92.0141 548.837 92.789 549.613 93.7452 549.613Z" fill="#141414"/>
<path d="M20.9428 531.474C21.8991 531.474 22.6747 530.698 22.6747 529.742C22.6747 528.786 21.8991 528.01 20.9428 528.01C19.9865 528.01 19.2117 528.786 19.2117 529.742C19.2117 530.698 19.9865 531.474 20.9428 531.474Z" fill="#141414"/>
<path d="M39.1637 531.391C40.0744 531.391 40.8127 530.653 40.8127 529.742C40.8127 528.832 40.0744 528.093 39.1637 528.093C38.2529 528.093 37.5146 528.832 37.5146 529.742C37.5146 530.653 38.2529 531.391 39.1637 531.391Z" fill="#141414"/>
<path d="M57.3853 531.721C58.4782 531.721 59.3644 530.835 59.3644 529.742C59.3644 528.649 58.4782 527.763 57.3853 527.763C56.2925 527.763 55.4062 528.649 55.4062 529.742C55.4062 530.835 56.2925 531.721 57.3853 531.721Z" fill="#141414"/>
<path d="M75.5242 532.051C76.7992 532.051 77.8326 531.017 77.8326 529.742C77.8326 528.467 76.7992 527.433 75.5242 527.433C74.2492 527.433 73.2158 528.467 73.2158 529.742C73.2158 531.017 74.2492 532.051 75.5242 532.051Z" fill="#141414"/>
<path d="M93.7448 532.051C95.0199 532.051 96.0541 531.017 96.0541 529.742C96.0541 528.467 95.0199 527.433 93.7448 527.433C92.4698 527.433 91.4364 528.467 91.4364 529.742C91.4364 531.017 92.4698 532.051 93.7448 532.051Z" fill="#141414"/>
<path d="M20.9427 513.664C22.1266 513.664 23.0869 512.704 23.0869 511.521C23.0869 510.337 22.1266 509.377 20.9427 509.377C19.7588 509.377 18.7993 510.337 18.7993 511.521C18.7993 512.704 19.7588 513.664 20.9427 513.664Z" fill="#141414"/>
<path d="M39.1654 514.159C40.6225 514.159 41.8031 512.978 41.8031 511.52C41.8031 510.063 40.6225 508.882 39.1654 508.882C37.7082 508.882 36.5268 510.063 36.5268 511.52C36.5268 512.978 37.7082 514.159 39.1654 514.159Z" fill="#141414"/>
<path d="M57.3853 513.5C58.4782 513.5 59.3644 512.614 59.3644 511.521C59.3644 510.428 58.4782 509.542 57.3853 509.542C56.2925 509.542 55.4062 510.428 55.4062 511.521C55.4062 512.614 56.2925 513.5 57.3853 513.5Z" fill="#141414"/>
<path d="M75.523 513.334C76.5248 513.334 77.3371 512.522 77.3371 511.52C77.3371 510.519 76.5248 509.707 75.523 509.707C74.5212 509.707 73.7089 510.519 73.7089 511.52C73.7089 512.522 74.5212 513.334 75.523 513.334Z" fill="#141414"/>
<path d="M93.747 513.5C94.8399 513.5 95.7261 512.614 95.7261 511.521C95.7261 510.428 94.8399 509.542 93.747 509.542C92.6541 509.542 91.7687 510.428 91.7687 511.521C91.7687 512.614 92.6541 513.5 93.747 513.5Z" fill="#141414"/>
<path d="M20.9427 495.525C22.1266 495.525 23.0869 494.565 23.0869 493.381C23.0869 492.197 22.1266 491.238 20.9427 491.238C19.7588 491.238 18.7993 492.197 18.7993 493.381C18.7993 494.565 19.7588 495.525 20.9427 495.525Z" fill="#141414"/>
<path d="M39.1654 496.02C40.6225 496.02 41.8031 494.839 41.8031 493.382C41.8031 491.924 40.6225 490.743 39.1654 490.743C37.7082 490.743 36.5268 491.924 36.5268 493.382C36.5268 494.839 37.7082 496.02 39.1654 496.02Z" fill="#141414"/>
<path d="M57.384 496.432C59.0688 496.432 60.4348 495.066 60.4348 493.381C60.4348 491.697 59.0688 490.331 57.384 490.331C55.6992 490.331 54.3332 491.697 54.3332 493.381C54.3332 495.066 55.6992 496.432 57.384 496.432Z" fill="#141414"/>
<path d="M75.5239 496.02C76.9811 496.02 78.1625 494.839 78.1625 493.382C78.1625 491.924 76.9811 490.743 75.5239 490.743C74.0668 490.743 72.8854 491.924 72.8854 493.382C72.8854 494.839 74.0668 496.02 75.5239 496.02Z" fill="#141414"/>
<path d="M93.7456 496.845C95.6581 496.845 97.2087 495.294 97.2087 493.382C97.2087 491.469 95.6581 489.919 93.7456 489.919C91.8331 489.919 90.2833 491.469 90.2833 493.382C90.2833 495.294 91.8331 496.845 93.7456 496.845Z" fill="#141414"/>
<path d="M20.9404 477.386C22.1699 477.386 23.1667 476.39 23.1667 475.16C23.1667 473.931 22.1699 472.934 20.9404 472.934C19.711 472.934 18.7141 473.931 18.7141 475.16C18.7141 476.39 19.711 477.386 20.9404 477.386Z" fill="#141414"/>
<path d="M39.1654 477.798C40.6225 477.798 41.8031 476.617 41.8031 475.16C41.8031 473.703 40.6225 472.522 39.1654 472.522C37.7082 472.522 36.5268 473.703 36.5268 475.16C36.5268 476.617 37.7082 477.798 39.1654 477.798Z" fill="#141414"/>
<path d="M57.386 478.458C59.2075 478.458 60.684 476.982 60.684 475.16C60.684 473.339 59.2075 471.862 57.386 471.862C55.5646 471.862 54.088 473.339 54.088 475.16C54.088 476.982 55.5646 478.458 57.386 478.458Z" fill="#141414"/>
<path d="M75.5229 477.386C76.7524 477.386 77.7492 476.39 77.7492 475.16C77.7492 473.931 76.7524 472.934 75.5229 472.934C74.2934 472.934 73.2966 473.931 73.2966 475.16C73.2966 476.39 74.2934 477.386 75.5229 477.386Z" fill="#141414"/>
<path d="M93.7456 478.458C95.5671 478.458 97.0436 476.982 97.0436 475.16C97.0436 473.339 95.5671 471.862 93.7456 471.862C91.9242 471.862 90.4476 473.339 90.4476 475.16C90.4476 476.982 91.9242 478.458 93.7456 478.458Z" fill="#141414"/>
<path d="M39.1642 459.824C40.7124 459.824 41.967 458.569 41.967 457.021C41.967 455.473 40.7124 454.218 39.1642 454.218C37.6159 454.218 36.3605 455.473 36.3605 457.021C36.3605 458.569 37.6159 459.824 39.1642 459.824Z" fill="#141414"/>
<path d="M57.3851 459.824C58.9333 459.824 60.1887 458.569 60.1887 457.021C60.1887 455.473 58.9333 454.218 57.3851 454.218C55.8369 454.218 54.5815 455.473 54.5815 457.021C54.5815 458.569 55.8369 459.824 57.3851 459.824Z" fill="#141414"/>
<path d="M75.5228 459.824C77.071 459.824 78.3264 458.569 78.3264 457.021C78.3264 455.473 77.071 454.218 75.5228 454.218C73.9746 454.218 72.7192 455.473 72.7192 457.021C72.7192 458.569 73.9746 459.824 75.5228 459.824Z" fill="#141414"/>
<path d="M93.7456 460.319C95.5671 460.319 97.0436 458.843 97.0436 457.021C97.0436 455.2 95.5671 453.723 93.7456 453.723C91.9242 453.723 90.4476 455.2 90.4476 457.021C90.4476 458.843 91.9242 460.319 93.7456 460.319Z" fill="#141414"/>
<path d="M39.1635 440.943C40.3474 440.943 41.3069 439.984 41.3069 438.8C41.3069 437.616 40.3474 436.656 39.1635 436.656C37.9795 436.656 37.0193 437.616 37.0193 438.8C37.0193 439.984 37.9795 440.943 39.1635 440.943Z" fill="#141414"/>
<path d="M57.3843 440.943C58.5682 440.943 59.5277 439.984 59.5277 438.8C59.5277 437.616 58.5682 436.656 57.3843 436.656C56.2004 436.656 55.2409 437.616 55.2409 438.8C55.2409 439.984 56.2004 440.943 57.3843 440.943Z" fill="#141414"/>
<path d="M75.5242 440.943C76.7081 440.943 77.6676 439.984 77.6676 438.8C77.6676 437.616 76.7081 436.656 75.5242 436.656C74.3402 436.656 73.3808 437.616 73.3808 438.8C73.3808 439.984 74.3402 440.943 75.5242 440.943Z" fill="#141414"/>
<path d="M93.7449 441.273C95.1109 441.273 96.2184 440.166 96.2184 438.799C96.2184 437.433 95.1109 436.326 93.7449 436.326C92.3788 436.326 91.2714 437.433 91.2714 438.799C91.2714 440.166 92.3788 441.273 93.7449 441.273Z" fill="#141414"/>
<path d="M20.9427 422.722C22.1266 422.722 23.0869 421.762 23.0869 420.578C23.0869 419.394 22.1266 418.434 20.9427 418.434C19.7588 418.434 18.7993 419.394 18.7993 420.578C18.7993 421.762 19.7588 422.722 20.9427 422.722Z" fill="#141414"/>
<path d="M39.1642 423.382C40.7124 423.382 41.967 422.127 41.967 420.578C41.967 419.03 40.7124 417.775 39.1642 417.775C37.6159 417.775 36.3605 419.03 36.3605 420.578C36.3605 422.127 37.6159 423.382 39.1642 423.382Z" fill="#141414"/>
<path d="M57.3851 423.382C58.9333 423.382 60.1887 422.127 60.1887 420.578C60.1887 419.03 58.9333 417.775 57.3851 417.775C55.8369 417.775 54.5815 419.03 54.5815 420.578C54.5815 422.127 55.8369 423.382 57.3851 423.382Z" fill="#141414"/>
<path d="M75.5235 424.041C77.436 424.041 78.9866 422.491 78.9866 420.578C78.9866 418.666 77.436 417.115 75.5235 417.115C73.611 417.115 72.0604 418.666 72.0604 420.578C72.0604 422.491 73.611 424.041 75.5235 424.041Z" fill="#141414"/>
<path d="M93.7456 423.876C95.5671 423.876 97.0436 422.4 97.0436 420.578C97.0436 418.757 95.5671 417.28 93.7456 417.28C91.9242 417.28 90.4476 418.757 90.4476 420.578C90.4476 422.4 91.9242 423.876 93.7456 423.876Z" fill="#141414"/>
<path d="M93.7454 388.34C96.0222 388.34 97.8679 386.494 97.8679 384.217C97.8679 381.941 96.0222 380.095 93.7454 380.095C91.4686 380.095 89.6229 381.941 89.6229 384.217C89.6229 386.494 91.4686 388.34 93.7454 388.34Z" fill="#141414"/>
<path d="M75.5237 388.01C77.6184 388.01 79.3161 386.312 79.3161 384.218C79.3161 382.123 77.6184 380.425 75.5237 380.425C73.4291 380.425 71.7313 382.123 71.7313 384.218C71.7313 386.312 73.4291 388.01 75.5237 388.01Z" fill="#141414"/>
<path d="M57.3859 387.763C59.3439 387.763 60.9311 386.176 60.9311 384.218C60.9311 382.26 59.3439 380.672 57.3859 380.672C55.4278 380.672 53.8407 382.26 53.8407 384.218C53.8407 386.176 55.4278 387.763 57.3859 387.763Z" fill="#141414"/>
<path d="M39.1628 388.01C41.2574 388.01 42.9551 386.312 42.9551 384.218C42.9551 382.123 41.2574 380.425 39.1628 380.425C37.0681 380.425 35.3696 382.123 35.3696 384.218C35.3696 386.312 37.0681 388.01 39.1628 388.01Z" fill="#141414"/>
<path d="M20.9408 386.032C21.9426 386.032 22.7549 385.219 22.7549 384.218C22.7549 383.216 21.9426 382.404 20.9408 382.404C19.939 382.404 19.1268 383.216 19.1268 384.218C19.1268 385.219 19.939 386.032 20.9408 386.032Z" fill="#141414"/>
<path d="M93.7454 406.562C96.0222 406.562 97.8679 404.716 97.8679 402.439C97.8679 400.162 96.0222 398.317 93.7454 398.317C91.4686 398.317 89.6229 400.162 89.6229 402.439C89.6229 404.716 91.4686 406.562 93.7454 406.562Z" fill="#141414"/>
<path d="M75.5237 406.232C77.6184 406.232 79.3161 404.534 79.3161 402.439C79.3161 400.344 77.6184 398.646 75.5237 398.646C73.4291 398.646 71.7313 400.344 71.7313 402.439C71.7313 404.534 73.4291 406.232 75.5237 406.232Z" fill="#141414"/>
<path d="M57.3859 405.984C59.3439 405.984 60.9311 404.397 60.9311 402.439C60.9311 400.481 59.3439 398.894 57.3859 398.894C55.4278 398.894 53.8407 400.481 53.8407 402.439C53.8407 404.397 55.4278 405.984 57.3859 405.984Z" fill="#141414"/>
<path d="M39.1628 406.232C41.2574 406.232 42.9551 404.534 42.9551 402.439C42.9551 400.344 41.2574 398.646 39.1628 398.646C37.0681 398.646 35.3696 400.344 35.3696 402.439C35.3696 404.534 37.0681 406.232 39.1628 406.232Z" fill="#141414"/>
<path d="M20.9408 404.253C21.9426 404.253 22.7549 403.441 22.7549 402.439C22.7549 401.438 21.9426 400.625 20.9408 400.625C19.939 400.625 19.1268 401.438 19.1268 402.439C19.1268 403.441 19.939 404.253 20.9408 404.253Z" fill="#141414"/>
</svg>
