<svg width="233" height="364" viewBox="0 0 233 364" fill="none" xmlns="http://www.w3.org/2000/svg">
<path d="M39.1636 3.95767C40.0743 3.95767 40.8126 3.21939 40.8126 2.30867C40.8126 1.39795 40.0743 0.659668 39.1636 0.659668C38.2529 0.659668 37.5146 1.39795 37.5146 2.30867C37.5146 3.21939 38.2529 3.95767 39.1636 3.95767Z" fill="#FFB700"/>
<path d="M75.524 4.61723C76.799 4.61723 77.8324 3.58359 77.8324 2.30858C77.8324 1.03358 76.799 -6.10352e-05 75.524 -6.10352e-05C74.249 -6.10352e-05 73.2156 1.03358 73.2156 2.30858C73.2156 3.58359 74.249 4.61723 75.524 4.61723Z" fill="#FFB700"/>
<path d="M148.328 4.45222C149.512 4.45222 150.473 3.49257 150.473 2.30864C150.473 1.12471 149.512 0.164856 148.328 0.164856C147.145 0.164856 146.185 1.12471 146.185 2.30864C146.185 3.49257 147.145 4.45222 148.328 4.45222Z" fill="#FFB700"/>
<path d="M202.829 4.12235C203.83 4.12235 204.643 3.31028 204.643 2.30849C204.643 1.3067 203.83 0.494629 202.829 0.494629C201.827 0.494629 201.015 1.3067 201.015 2.30849C201.015 3.31028 201.827 4.12235 202.829 4.12235Z" fill="#FFB700"/>
<path d="M221.049 4.36982C222.188 4.36982 223.111 3.44697 223.111 2.30857C223.111 1.17017 222.188 0.247314 221.049 0.247314C219.911 0.247314 218.988 1.17017 218.988 2.30857C218.988 3.44697 219.911 4.36982 221.049 4.36982Z" fill="#FFB700"/>
<path d="M2.80291 22.3441C3.85023 22.3441 4.6999 21.4951 4.6999 20.4477C4.6999 19.4004 3.85023 18.5513 2.80291 18.5513C1.75558 18.5513 0.906715 19.4004 0.906715 20.4477C0.906715 21.4951 1.75558 22.3441 2.80291 22.3441Z" fill="#FFB700"/>
<path d="M20.9428 22.5912C22.1267 22.5912 23.0869 21.6316 23.0869 20.4476C23.0869 19.2637 22.1267 18.3038 20.9428 18.3038C19.7588 18.3038 18.7994 19.2637 18.7994 20.4476C18.7994 21.6316 19.7588 22.5912 20.9428 22.5912Z" fill="#FFB700"/>
<path d="M39.1633 22.5912C40.3472 22.5912 41.3067 21.6316 41.3067 20.4476C41.3067 19.2637 40.3472 18.3038 39.1633 18.3038C37.9793 18.3038 37.0191 19.2637 37.0191 20.4476C37.0191 21.6316 37.9793 22.5912 39.1633 22.5912Z" fill="#FFB700"/>
<path d="M57.3844 22.5912C58.5683 22.5912 59.5286 21.6316 59.5286 20.4476C59.5286 19.2637 58.5683 18.3038 57.3844 18.3038C56.2004 18.3038 55.241 19.2637 55.241 20.4476C55.241 21.6316 56.2004 22.5912 57.3844 22.5912Z" fill="#FFB700"/>
<path d="M75.5241 22.3441C76.5714 22.3441 77.4203 21.4951 77.4203 20.4477C77.4203 19.4004 76.5714 18.5513 75.5241 18.5513C74.4768 18.5513 73.6279 19.4004 73.6279 20.4477C73.6279 21.4951 74.4768 22.3441 75.5241 22.3441Z" fill="#FFB700"/>
<path d="M93.746 22.1788C94.7022 22.1788 95.4771 21.4037 95.4771 20.4475C95.4771 19.4912 94.7022 18.7159 93.746 18.7159C92.7897 18.7159 92.014 19.4912 92.014 20.4475C92.014 21.4037 92.7897 22.1788 93.746 22.1788Z" fill="#FFB700"/>
<path d="M130.105 23.1686C131.608 23.1686 132.826 21.9504 132.826 20.4477C132.826 18.945 131.608 17.7268 130.105 17.7268C128.603 17.7268 127.385 18.945 127.385 20.4477C127.385 21.9504 128.603 23.1686 130.105 23.1686Z" fill="#FFB700"/>
<path d="M148.326 22.0966C149.237 22.0966 149.975 21.3583 149.975 20.4476C149.975 19.5369 149.237 18.7986 148.326 18.7986C147.416 18.7986 146.677 19.5369 146.677 20.4476C146.677 21.3583 147.416 22.0966 148.326 22.0966Z" fill="#FFB700"/>
<path d="M166.468 23.0035C167.88 23.0035 169.024 21.8593 169.024 20.4476C169.024 19.036 167.88 17.8916 166.468 17.8916C165.056 17.8916 163.912 19.036 163.912 20.4476C163.912 21.8593 165.056 23.0035 166.468 23.0035Z" fill="#FFB700"/>
<path d="M184.688 22.5088C185.826 22.5088 186.749 21.5859 186.749 20.4475C186.749 19.3091 185.826 18.3863 184.688 18.3863C183.55 18.3863 182.627 19.3091 182.627 20.4475C182.627 21.5859 183.55 22.5088 184.688 22.5088Z" fill="#FFB700"/>
<path d="M202.826 21.9318C203.645 21.9318 204.31 21.2674 204.31 20.4477C204.31 19.6281 203.645 18.9636 202.826 18.9636C202.006 18.9636 201.342 19.6281 201.342 20.4477C201.342 21.2674 202.006 21.9318 202.826 21.9318Z" fill="#FFB700"/>
<path d="M221.047 23.086C222.504 23.086 223.686 21.9048 223.686 20.4476C223.686 18.9905 222.504 17.8093 221.047 17.8093C219.59 17.8093 218.409 18.9905 218.409 20.4476C218.409 21.9048 219.59 23.086 221.047 23.086Z" fill="#FFB700"/>
<path d="M20.9429 40.4005C21.8991 40.4005 22.6748 39.6253 22.6748 38.669C22.6748 37.7128 21.8991 36.9377 20.9429 36.9377C19.9866 36.9377 19.2117 37.7128 19.2117 38.669C19.2117 39.6253 19.9866 40.4005 20.9429 40.4005Z" fill="#FFB700"/>
<path d="M2.80301 94.9825C3.75927 94.9825 4.53495 94.2074 4.53495 93.2511C4.53495 92.2949 3.75927 91.5196 2.80301 91.5196C1.84676 91.5196 1.07188 92.2949 1.07188 93.2511C1.07188 94.2074 1.84676 94.9825 2.80301 94.9825Z" fill="#FFB700"/>
<path d="M39.1636 40.318C40.0743 40.318 40.8126 39.5797 40.8126 38.669C40.8126 37.7583 40.0743 37.02 39.1636 37.02C38.2529 37.02 37.5146 37.7583 37.5146 38.669C37.5146 39.5797 38.2529 40.318 39.1636 40.318Z" fill="#FFB700"/>
<path d="M57.3845 40.648C58.4773 40.648 59.3636 39.7619 59.3636 38.669C59.3636 37.5762 58.4773 36.6903 57.3845 36.6903C56.2916 36.6903 55.4062 37.5762 55.4062 38.669C55.4062 39.7619 56.2916 40.648 57.3845 40.648Z" fill="#FFB700"/>
<path d="M75.524 40.9775C76.799 40.9775 77.8324 39.9439 77.8324 38.6689C77.8324 37.3938 76.799 36.3604 75.524 36.3604C74.249 36.3604 73.2156 37.3938 73.2156 38.6689C73.2156 39.9439 74.249 40.9775 75.524 40.9775Z" fill="#FFB700"/>
<path d="M93.7456 40.9775C95.0206 40.9775 96.0541 39.9439 96.0541 38.6689C96.0541 37.3938 95.0206 36.3604 93.7456 36.3604C92.4706 36.3604 91.4364 37.3938 91.4364 38.6689C91.4364 39.9439 92.4706 40.9775 93.7456 40.9775Z" fill="#FFB700"/>
<path d="M111.886 40.648C112.979 40.648 113.864 39.7619 113.864 38.669C113.864 37.5762 112.979 36.6903 111.886 36.6903C110.793 36.6903 109.907 37.5762 109.907 38.669C109.907 39.7619 110.793 40.648 111.886 40.648Z" fill="#FFB700"/>
<path d="M130.105 40.648C131.198 40.648 132.085 39.7619 132.085 38.669C132.085 37.5762 131.198 36.6903 130.105 36.6903C129.013 36.6903 128.126 37.5762 128.126 38.669C128.126 39.7619 129.013 40.648 130.105 40.648Z" fill="#FFB700"/>
<path d="M148.326 40.4829C149.328 40.4829 150.141 39.6706 150.141 38.6688C150.141 37.6671 149.328 36.855 148.326 36.855C147.325 36.855 146.513 37.6671 146.513 38.6688C146.513 39.6706 147.325 40.4829 148.326 40.4829Z" fill="#FFB700"/>
<path d="M166.468 41.225C167.88 41.225 169.024 40.0806 169.024 38.669C169.024 37.2574 167.88 36.1132 166.468 36.1132C165.056 36.1132 163.912 37.2574 163.912 38.669C163.912 40.0806 165.056 41.225 166.468 41.225Z" fill="#FFB700"/>
<path d="M184.689 40.4829C185.691 40.4829 186.503 39.6706 186.503 38.6688C186.503 37.6671 185.691 36.855 184.689 36.855C183.687 36.855 182.875 37.6671 182.875 38.6688C182.875 39.6706 183.687 40.4829 184.689 40.4829Z" fill="#FFB700"/>
<path d="M202.829 40.4829C203.83 40.4829 204.643 39.6706 204.643 38.6688C204.643 37.6671 203.83 36.855 202.829 36.855C201.827 36.855 201.015 37.6671 201.015 38.6688C201.015 39.6706 201.827 40.4829 202.829 40.4829Z" fill="#FFB700"/>
<path d="M221.05 40.153C221.869 40.153 222.534 39.4885 222.534 38.6689C222.534 37.8492 221.869 37.1849 221.05 37.1849C220.23 37.1849 219.566 37.8492 219.566 38.6689C219.566 39.4885 220.23 40.153 221.05 40.153Z" fill="#FFB700"/>
<path d="M20.9428 58.9518C22.1267 58.9518 23.0869 57.9919 23.0869 56.808C23.0869 55.6241 22.1267 54.6644 20.9428 54.6644C19.7588 54.6644 18.7994 55.6241 18.7994 56.808C18.7994 57.9919 19.7588 58.9518 20.9428 58.9518Z" fill="#FFB700"/>
<path d="M39.1653 59.4465C40.6224 59.4465 41.8039 58.2651 41.8039 56.808C41.8039 55.3508 40.6224 54.1696 39.1653 54.1696C37.7081 54.1696 36.5267 55.3508 36.5267 56.808C36.5267 58.2651 37.7081 59.4465 39.1653 59.4465Z" fill="#FFB700"/>
<path d="M57.3845 58.787C58.4773 58.787 59.3636 57.9009 59.3636 56.8081C59.3636 55.7152 58.4773 54.8293 57.3845 54.8293C56.2916 54.8293 55.4062 55.7152 55.4062 56.8081C55.4062 57.9009 56.2916 58.787 57.3845 58.787Z" fill="#FFB700"/>
<path d="M75.5231 58.6221C76.5249 58.6221 77.3371 57.8098 77.3371 56.808C77.3371 55.8062 76.5249 54.9941 75.5231 54.9941C74.5213 54.9941 73.709 55.8062 73.709 56.808C73.709 57.8098 74.5213 58.6221 75.5231 58.6221Z" fill="#FFB700"/>
<path d="M93.7478 58.787C94.8406 58.787 95.7261 57.9009 95.7261 56.8081C95.7261 55.7152 94.8406 54.8293 93.7478 54.8293C92.6549 54.8293 91.7686 55.7152 91.7686 56.8081C91.7686 57.9009 92.6549 58.787 93.7478 58.787Z" fill="#FFB700"/>
<path d="M111.886 58.787C112.979 58.787 113.864 57.9009 113.864 56.8081C113.864 55.7152 112.979 54.8293 111.886 54.8293C110.793 54.8293 109.907 55.7152 109.907 56.8081C109.907 57.9009 110.793 58.787 111.886 58.787Z" fill="#FFB700"/>
<path d="M130.105 58.6221C131.107 58.6221 131.919 57.8098 131.919 56.808C131.919 55.8062 131.107 54.9941 130.105 54.9941C129.104 54.9941 128.291 55.8062 128.291 56.808C128.291 57.8098 129.104 58.6221 130.105 58.6221Z" fill="#FFB700"/>
<path d="M148.326 59.4465C149.783 59.4465 150.965 58.2651 150.965 56.808C150.965 55.3508 149.783 54.1696 148.326 54.1696C146.869 54.1696 145.688 55.3508 145.688 56.808C145.688 58.2651 146.869 59.4465 148.326 59.4465Z" fill="#FFB700"/>
<path d="M166.466 58.3747C167.331 58.3747 168.033 57.6732 168.033 56.808C168.033 55.9429 167.331 55.2416 166.466 55.2416C165.601 55.2416 164.9 55.9429 164.9 56.808C164.9 57.6732 165.601 58.3747 166.466 58.3747Z" fill="#FFB700"/>
<path d="M184.688 58.8692C185.826 58.8692 186.749 57.9463 186.749 56.8079C186.749 55.6695 185.826 54.7466 184.688 54.7466C183.55 54.7466 182.627 55.6695 182.627 56.8079C182.627 57.9463 183.55 58.8692 184.688 58.8692Z" fill="#FFB700"/>
<path d="M202.828 58.8692C203.966 58.8692 204.889 57.9463 204.889 56.8079C204.889 55.6695 203.966 54.7466 202.828 54.7466C201.689 54.7466 200.766 55.6695 200.766 56.8079C200.766 57.9463 201.689 58.8692 202.828 58.8692Z" fill="#FFB700"/>
<path d="M221.047 59.0343C222.277 59.0343 223.274 58.0374 223.274 56.808C223.274 55.5785 222.277 54.5818 221.047 54.5818C219.818 54.5818 218.821 55.5785 218.821 56.808C218.821 58.0374 219.818 59.0343 221.047 59.0343Z" fill="#FFB700"/>
<path d="M20.9428 77.1733C22.1267 77.1733 23.0869 76.2135 23.0869 75.0295C23.0869 73.8456 22.1267 72.8857 20.9428 72.8857C19.7588 72.8857 18.7994 73.8456 18.7994 75.0295C18.7994 76.2135 19.7588 77.1733 20.9428 77.1733Z" fill="#FFB700"/>
<path d="M39.1653 77.6679C40.6224 77.6679 41.8039 76.4867 41.8039 75.0295C41.8039 73.5724 40.6224 72.3912 39.1653 72.3912C37.7081 72.3912 36.5267 73.5724 36.5267 75.0295C36.5267 76.4867 37.7081 77.6679 39.1653 77.6679Z" fill="#FFB700"/>
<path d="M57.3839 78.0801C59.0688 78.0801 60.4348 76.7143 60.4348 75.0295C60.4348 73.3447 59.0688 71.9789 57.3839 71.9789C55.6991 71.9789 54.3331 73.3447 54.3331 75.0295C54.3331 76.7143 55.6991 78.0801 57.3839 78.0801Z" fill="#FFB700"/>
<path d="M75.5238 77.6679C76.9809 77.6679 78.1624 76.4867 78.1624 75.0295C78.1624 73.5724 76.9809 72.3912 75.5238 72.3912C74.0666 72.3912 72.8852 73.5724 72.8852 75.0295C72.8852 76.4867 74.0666 77.6679 75.5238 77.6679Z" fill="#FFB700"/>
<path d="M93.7463 78.4924C95.6588 78.4924 97.2086 76.942 97.2086 75.0295C97.2086 73.117 95.6588 71.5667 93.7463 71.5667C91.8338 71.5667 90.2832 73.117 90.2832 75.0295C90.2832 76.942 91.8338 78.4924 93.7463 78.4924Z" fill="#FFB700"/>
<path d="M111.884 78.0801C113.569 78.0801 114.934 76.7143 114.934 75.0295C114.934 73.3447 113.569 71.9789 111.884 71.9789C110.2 71.9789 108.834 73.3447 108.834 75.0295C108.834 76.7143 110.2 78.0801 111.884 78.0801Z" fill="#FFB700"/>
<path d="M130.106 78.0801C131.791 78.0801 133.157 76.7143 133.157 75.0295C133.157 73.3447 131.791 71.9789 130.106 71.9789C128.421 71.9789 127.055 73.3447 127.055 75.0295C127.055 76.7143 128.421 78.0801 130.106 78.0801Z" fill="#FFB700"/>
<path d="M148.326 77.6679C149.783 77.6679 150.965 76.4867 150.965 75.0295C150.965 73.5724 149.783 72.3912 148.326 72.3912C146.869 72.3912 145.688 73.5724 145.688 75.0295C145.688 76.4867 146.869 77.6679 148.326 77.6679Z" fill="#FFB700"/>
<path d="M166.468 77.9979C168.107 77.9979 169.437 76.6689 169.437 75.0296C169.437 73.3903 168.107 72.0613 166.468 72.0613C164.829 72.0613 163.5 73.3903 163.5 75.0296C163.5 76.6689 164.829 77.9979 166.468 77.9979Z" fill="#FFB700"/>
<path d="M184.688 77.8329C186.236 77.8329 187.49 76.5779 187.49 75.0297C187.49 73.4814 186.236 72.2264 184.688 72.2264C183.139 72.2264 181.884 73.4814 181.884 75.0297C181.884 76.5779 183.139 77.8329 184.688 77.8329Z" fill="#FFB700"/>
<path d="M202.828 77.0908C203.966 77.0908 204.889 76.168 204.889 75.0296C204.889 73.8912 203.966 72.9683 202.828 72.9683C201.689 72.9683 200.766 73.8912 200.766 75.0296C200.766 76.168 201.689 77.0908 202.828 77.0908Z" fill="#FFB700"/>
<path d="M221.047 77.6679C222.504 77.6679 223.686 76.4867 223.686 75.0295C223.686 73.5724 222.504 72.3912 221.047 72.3912C219.59 72.3912 218.409 73.5724 218.409 75.0295C218.409 76.4867 219.59 77.6679 221.047 77.6679Z" fill="#FFB700"/>
<path d="M20.9397 95.4773C22.1692 95.4773 23.166 94.4807 23.166 93.2512C23.166 92.0217 22.1692 91.0249 20.9397 91.0249C19.7102 91.0249 18.7142 92.0217 18.7142 93.2512C18.7142 94.4807 19.7102 95.4773 20.9397 95.4773Z" fill="#FFB700"/>
<path d="M39.1653 95.8896C40.6224 95.8896 41.8039 94.7084 41.8039 93.2512C41.8039 91.7941 40.6224 90.6127 39.1653 90.6127C37.7081 90.6127 36.5267 91.7941 36.5267 93.2512C36.5267 94.7084 37.7081 95.8896 39.1653 95.8896Z" fill="#FFB700"/>
<path d="M57.386 96.549C59.2074 96.549 60.684 95.0724 60.684 93.251C60.684 91.4296 59.2074 89.953 57.386 89.953C55.5645 89.953 54.088 91.4296 54.088 93.251C54.088 95.0724 55.5645 96.549 57.386 96.549Z" fill="#FFB700"/>
<path d="M75.5229 95.4773C76.7524 95.4773 77.7493 94.4807 77.7493 93.2512C77.7493 92.0217 76.7524 91.0249 75.5229 91.0249C74.2935 91.0249 73.2966 92.0217 73.2966 93.2512C73.2966 94.4807 74.2935 95.4773 75.5229 95.4773Z" fill="#FFB700"/>
<path d="M93.7456 96.549C95.567 96.549 97.0436 95.0724 97.0436 93.251C97.0436 91.4296 95.567 89.953 93.7456 89.953C91.9241 89.953 90.4476 91.4296 90.4476 93.251C90.4476 95.0724 91.9241 96.549 93.7456 96.549Z" fill="#FFB700"/>
<path d="M111.884 95.9719C113.387 95.9719 114.605 94.7539 114.605 93.2512C114.605 91.7485 113.387 90.5303 111.884 90.5303C110.381 90.5303 109.163 91.7485 109.163 93.2512C109.163 94.7539 110.381 95.9719 111.884 95.9719Z" fill="#FFB700"/>
<path d="M130.106 95.8896C131.564 95.8896 132.745 94.7084 132.745 93.2512C132.745 91.7941 131.564 90.6127 130.106 90.6127C128.649 90.6127 127.468 91.7941 127.468 93.2512C127.468 94.7084 128.649 95.8896 130.106 95.8896Z" fill="#FFB700"/>
<path d="M148.327 95.9719C149.83 95.9719 151.049 94.7539 151.049 93.2512C151.049 91.7485 149.83 90.5303 148.327 90.5303C146.824 90.5303 145.606 91.7485 145.606 93.2512C145.606 94.7539 146.824 95.9719 148.327 95.9719Z" fill="#FFB700"/>
<path d="M166.467 95.9719C167.97 95.9719 169.188 94.7539 169.188 93.2512C169.188 91.7485 167.97 90.5303 166.467 90.5303C164.964 90.5303 163.746 91.7485 163.746 93.2512C163.746 94.7539 164.964 95.9719 166.467 95.9719Z" fill="#FFB700"/>
<path d="M184.688 95.7247C186.054 95.7247 187.161 94.6172 187.161 93.2512C187.161 91.8851 186.054 90.7776 184.688 90.7776C183.322 90.7776 182.214 91.8851 182.214 93.2512C182.214 94.6172 183.322 95.7247 184.688 95.7247Z" fill="#FFB700"/>
<path d="M202.826 96.6316C204.693 96.6316 206.206 95.1182 206.206 93.2513C206.206 91.3843 204.693 89.8707 202.826 89.8707C200.959 89.8707 199.445 91.3843 199.445 93.2513C199.445 95.1182 200.959 96.6316 202.826 96.6316Z" fill="#FFB700"/>
<path d="M221.048 95.3947C222.232 95.3947 223.192 94.4351 223.192 93.2511C223.192 92.0672 222.232 91.1074 221.048 91.1074C219.864 91.1074 218.904 92.0672 218.904 93.2511C218.904 94.4351 219.864 95.3947 221.048 95.3947Z" fill="#FFB700"/>
<path d="M39.1641 114.193C40.7123 114.193 41.9669 112.938 41.9669 111.39C41.9669 109.842 40.7123 108.587 39.1641 108.587C37.6159 108.587 36.3605 109.842 36.3605 111.39C36.3605 112.938 37.6159 114.193 39.1641 114.193Z" fill="#FFB700"/>
<path d="M57.3841 114.193C58.9323 114.193 60.1877 112.938 60.1877 111.39C60.1877 109.842 58.9323 108.587 57.3841 108.587C55.8359 108.587 54.5813 109.842 54.5813 111.39C54.5813 112.938 55.8359 114.193 57.3841 114.193Z" fill="#FFB700"/>
<path d="M75.5219 114.193C77.0701 114.193 78.3255 112.938 78.3255 111.39C78.3255 109.842 77.0701 108.587 75.5219 108.587C73.9737 108.587 72.7191 109.842 72.7191 111.39C72.7191 112.938 73.9737 114.193 75.5219 114.193Z" fill="#FFB700"/>
<path d="M93.7456 114.688C95.567 114.688 97.0436 113.212 97.0436 111.39C97.0436 109.569 95.567 108.092 93.7456 108.092C91.9241 108.092 90.4476 109.569 90.4476 111.39C90.4476 113.212 91.9241 114.688 93.7456 114.688Z" fill="#FFB700"/>
<path d="M111.886 113.369C112.979 113.369 113.864 112.483 113.864 111.39C113.864 110.297 112.979 109.411 111.886 109.411C110.793 109.411 109.907 110.297 109.907 111.39C109.907 112.483 110.793 113.369 111.886 113.369Z" fill="#FFB700"/>
<path d="M130.106 114.441C131.791 114.441 133.157 113.075 133.157 111.39C133.157 109.705 131.791 108.339 130.106 108.339C128.421 108.339 127.055 109.705 127.055 111.39C127.055 113.075 128.421 114.441 130.106 114.441Z" fill="#FFB700"/>
<path d="M148.326 114.441C150.011 114.441 151.377 113.075 151.377 111.39C151.377 109.705 150.011 108.339 148.326 108.339C146.641 108.339 145.276 109.705 145.276 111.39C145.276 113.075 146.641 114.441 148.326 114.441Z" fill="#FFB700"/>
<path d="M166.465 114.441C168.15 114.441 169.516 113.075 169.516 111.39C169.516 109.705 168.15 108.339 166.465 108.339C164.78 108.339 163.415 109.705 163.415 111.39C163.415 113.075 164.78 114.441 166.465 114.441Z" fill="#FFB700"/>
<path d="M184.688 114.193C186.236 114.193 187.49 112.938 187.49 111.39C187.49 109.842 186.236 108.587 184.688 108.587C183.139 108.587 181.884 109.842 181.884 111.39C181.884 112.938 183.139 114.193 184.688 114.193Z" fill="#FFB700"/>
<path d="M202.829 113.616C204.058 113.616 205.055 112.62 205.055 111.39C205.055 110.161 204.058 109.164 202.829 109.164C201.599 109.164 200.602 110.161 200.602 111.39C200.602 112.62 201.599 113.616 202.829 113.616Z" fill="#FFB700"/>
<path d="M221.048 115.265C223.188 115.265 224.923 113.53 224.923 111.39C224.923 109.25 223.188 107.515 221.048 107.515C218.908 107.515 217.172 109.25 217.172 111.39C217.172 113.53 218.908 115.265 221.048 115.265Z" fill="#FFB700"/>
<path d="M39.1633 131.755C40.3472 131.755 41.3067 130.795 41.3067 129.611C41.3067 128.428 40.3472 127.468 39.1633 127.468C37.9793 127.468 37.0191 128.428 37.0191 129.611C37.0191 130.795 37.9793 131.755 39.1633 131.755Z" fill="#FFB700"/>
<path d="M57.3844 131.755C58.5683 131.755 59.5286 130.795 59.5286 129.611C59.5286 128.428 58.5683 127.468 57.3844 127.468C56.2004 127.468 55.241 128.428 55.241 129.611C55.241 130.795 56.2004 131.755 57.3844 131.755Z" fill="#FFB700"/>
<path d="M75.5241 131.755C76.708 131.755 77.6683 130.795 77.6683 129.611C77.6683 128.428 76.708 127.468 75.5241 127.468C74.3402 127.468 73.3807 128.428 73.3807 129.611C73.3807 130.795 74.3402 131.755 75.5241 131.755Z" fill="#FFB700"/>
<path d="M93.7448 132.085C95.1109 132.085 96.2183 130.978 96.2183 129.612C96.2183 128.245 95.1109 127.138 93.7448 127.138C92.3787 127.138 91.2713 128.245 91.2713 129.612C91.2713 130.978 92.3787 132.085 93.7448 132.085Z" fill="#FFB700"/>
<path d="M111.884 132.332C113.387 132.332 114.605 131.114 114.605 129.612C114.605 128.109 113.387 126.891 111.884 126.891C110.381 126.891 109.163 128.109 109.163 129.612C109.163 131.114 110.381 132.332 111.884 132.332Z" fill="#FFB700"/>
<path d="M130.106 132.91C131.928 132.91 133.404 131.433 133.404 129.612C133.404 127.79 131.928 126.314 130.106 126.314C128.285 126.314 126.808 127.79 126.808 129.612C126.808 131.433 128.285 132.91 130.106 132.91Z" fill="#FFB700"/>
<path d="M148.327 132.91C150.148 132.91 151.625 131.433 151.625 129.612C151.625 127.79 150.148 126.314 148.327 126.314C146.505 126.314 145.029 127.79 145.029 129.612C145.029 131.433 146.505 132.91 148.327 132.91Z" fill="#FFB700"/>
<path d="M166.468 132.992C168.335 132.992 169.849 131.479 169.849 129.612C169.849 127.745 168.335 126.231 166.468 126.231C164.601 126.231 163.088 127.745 163.088 129.612C163.088 131.479 164.601 132.992 166.468 132.992Z" fill="#FFB700"/>
<path d="M184.688 132.085C186.054 132.085 187.161 130.978 187.161 129.612C187.161 128.245 186.054 127.138 184.688 127.138C183.322 127.138 182.214 128.245 182.214 129.612C182.214 130.978 183.322 132.085 184.688 132.085Z" fill="#FFB700"/>
<path d="M202.828 131.673C203.966 131.673 204.889 130.75 204.889 129.612C204.889 128.473 203.966 127.55 202.828 127.55C201.689 127.55 200.766 128.473 200.766 129.612C200.766 130.75 201.689 131.673 202.828 131.673Z" fill="#FFB700"/>
<path d="M221.048 133.487C223.188 133.487 224.923 131.752 224.923 129.611C224.923 127.471 223.188 125.736 221.048 125.736C218.908 125.736 217.172 127.471 217.172 129.611C217.172 131.752 218.908 133.487 221.048 133.487Z" fill="#FFB700"/>
<path d="M20.9428 149.894C22.1267 149.894 23.0869 148.935 23.0869 147.751C23.0869 146.567 22.1267 145.607 20.9428 145.607C19.7588 145.607 18.7994 146.567 18.7994 147.751C18.7994 148.935 19.7588 149.894 20.9428 149.894Z" fill="#FFB700"/>
<path d="M39.1641 150.554C40.7123 150.554 41.9669 149.299 41.9669 147.75C41.9669 146.202 40.7123 144.947 39.1641 144.947C37.6159 144.947 36.3605 146.202 36.3605 147.75C36.3605 149.299 37.6159 150.554 39.1641 150.554Z" fill="#FFB700"/>
<path d="M2.80276 186.914C4.35098 186.914 5.60639 185.659 5.60639 184.111C5.60639 182.563 4.35098 181.308 2.80276 181.308C1.25454 181.308 -6.10352e-05 182.563 -6.10352e-05 184.111C-6.10352e-05 185.659 1.25454 186.914 2.80276 186.914Z" fill="#FFB700"/>
<path d="M2.80276 277.857C4.35098 277.857 5.60639 276.602 5.60639 275.054C5.60639 273.505 4.35098 272.25 2.80276 272.25C1.25454 272.25 -6.10352e-05 273.505 -6.10352e-05 275.054C-6.10352e-05 276.602 1.25454 277.857 2.80276 277.857Z" fill="#FFB700"/>
<path d="M57.3841 150.554C58.9323 150.554 60.1877 149.299 60.1877 147.75C60.1877 146.202 58.9323 144.947 57.3841 144.947C55.8359 144.947 54.5813 146.202 54.5813 147.75C54.5813 149.299 55.8359 150.554 57.3841 150.554Z" fill="#FFB700"/>
<path d="M75.5236 151.213C77.4361 151.213 78.9866 149.663 78.9866 147.751C78.9866 145.838 77.4361 144.288 75.5236 144.288C73.6111 144.288 72.0605 145.838 72.0605 147.751C72.0605 149.663 73.6111 151.213 75.5236 151.213Z" fill="#FFB700"/>
<path d="M93.7456 151.049C95.567 151.049 97.0436 149.572 97.0436 147.751C97.0436 145.929 95.567 144.453 93.7456 144.453C91.9241 144.453 90.4476 145.929 90.4476 147.751C90.4476 149.572 91.9241 151.049 93.7456 151.049Z" fill="#FFB700"/>
<path d="M111.886 149.729C112.979 149.729 113.864 148.843 113.864 147.75C113.864 146.658 112.979 145.772 111.886 145.772C110.793 145.772 109.907 146.658 109.907 147.75C109.907 148.843 110.793 149.729 111.886 149.729Z" fill="#FFB700"/>
<path d="M130.106 151.049C131.928 151.049 133.404 149.572 133.404 147.751C133.404 145.929 131.928 144.453 130.106 144.453C128.285 144.453 126.808 145.929 126.808 147.751C126.808 149.572 128.285 151.049 130.106 151.049Z" fill="#FFB700"/>
<path d="M148.327 151.708C150.513 151.708 152.285 149.936 152.285 147.751C152.285 145.565 150.513 143.793 148.327 143.793C146.141 143.793 144.369 145.565 144.369 147.751C144.369 149.936 146.141 151.708 148.327 151.708Z" fill="#FFB700"/>
<path d="M166.468 151.131C168.335 151.131 169.849 149.618 169.849 147.751C169.849 145.884 168.335 144.37 166.468 144.37C164.601 144.37 163.088 145.884 163.088 147.751C163.088 149.618 164.601 151.131 166.468 151.131Z" fill="#FFB700"/>
<path d="M184.688 151.708C186.874 151.708 188.646 149.936 188.646 147.751C188.646 145.565 186.874 143.793 184.688 143.793C182.503 143.793 180.731 145.565 180.731 147.751C180.731 149.936 182.503 151.708 184.688 151.708Z" fill="#FFB700"/>
<path d="M202.826 151.708C205.012 151.708 206.783 149.936 206.783 147.751C206.783 145.565 205.012 143.793 202.826 143.793C200.64 143.793 198.869 145.565 198.869 147.751C198.869 149.936 200.64 151.708 202.826 151.708Z" fill="#FFB700"/>
<path d="M221.048 151.956C223.37 151.956 225.253 150.073 225.253 147.75C225.253 145.428 223.37 143.546 221.048 143.546C218.726 143.546 216.843 145.428 216.843 147.75C216.843 150.073 218.726 151.956 221.048 151.956Z" fill="#FFB700"/>
<path d="M221.048 188.316C223.37 188.316 225.253 186.434 225.253 184.111C225.253 181.789 223.37 179.906 221.048 179.906C218.726 179.906 216.843 181.789 216.843 184.111C216.843 186.434 218.726 188.316 221.048 188.316Z" fill="#FFB700"/>
<path d="M202.829 186.997C204.422 186.997 205.714 185.705 205.714 184.111C205.714 182.517 204.422 181.225 202.829 181.225C201.235 181.225 199.943 182.517 199.943 184.111C199.943 185.705 201.235 186.997 202.829 186.997Z" fill="#FFB700"/>
<path d="M184.688 187.739C186.692 187.739 188.316 186.115 188.316 184.111C188.316 182.108 186.692 180.483 184.688 180.483C182.685 180.483 181.06 182.108 181.06 184.111C181.06 186.115 182.685 187.739 184.688 187.739Z" fill="#FFB700"/>
<path d="M166.467 186.832C167.97 186.832 169.188 185.614 169.188 184.111C169.188 182.608 167.97 181.39 166.467 181.39C164.964 181.39 163.746 182.608 163.746 184.111C163.746 185.614 164.964 186.832 166.467 186.832Z" fill="#FFB700"/>
<path d="M148.326 186.997C149.92 186.997 151.212 185.705 151.212 184.111C151.212 182.517 149.92 181.225 148.326 181.225C146.732 181.225 145.44 182.517 145.44 184.111C145.44 185.705 146.732 186.997 148.326 186.997Z" fill="#FFB700"/>
<path d="M130.106 188.481C132.519 188.481 134.475 186.525 134.475 184.111C134.475 181.698 132.519 179.741 130.106 179.741C127.692 179.741 125.736 181.698 125.736 184.111C125.736 186.525 127.692 188.481 130.106 188.481Z" fill="#FFB700"/>
<path d="M111.884 187.657C113.842 187.657 115.429 186.069 115.429 184.111C115.429 182.153 113.842 180.566 111.884 180.566C109.926 180.566 108.338 182.153 108.338 184.111C108.338 186.069 109.926 187.657 111.884 187.657Z" fill="#FFB700"/>
<path d="M93.7453 188.234C96.0221 188.234 97.8678 186.388 97.8678 184.111C97.8678 181.834 96.0221 179.989 93.7453 179.989C91.4685 179.989 89.6228 181.834 89.6228 184.111C89.6228 186.388 91.4685 188.234 93.7453 188.234Z" fill="#FFB700"/>
<path d="M75.5236 187.904C77.6183 187.904 79.3168 186.206 79.3168 184.111C79.3168 182.016 77.6183 180.318 75.5236 180.318C73.429 180.318 71.7313 182.016 71.7313 184.111C71.7313 186.206 73.429 187.904 75.5236 187.904Z" fill="#FFB700"/>
<path d="M57.3858 187.657C59.3439 187.657 60.931 186.069 60.931 184.111C60.931 182.153 59.3439 180.566 57.3858 180.566C55.4278 180.566 53.8407 182.153 53.8407 184.111C53.8407 186.069 55.4278 187.657 57.3858 187.657Z" fill="#FFB700"/>
<path d="M39.1628 187.904C41.2575 187.904 42.9552 186.206 42.9552 184.111C42.9552 182.016 41.2575 180.318 39.1628 180.318C37.0682 180.318 35.3696 182.016 35.3696 184.111C35.3696 186.206 37.0682 187.904 39.1628 187.904Z" fill="#FFB700"/>
<path d="M20.9398 185.925C21.9416 185.925 22.7539 185.113 22.7539 184.111C22.7539 183.109 21.9416 182.297 20.9398 182.297C19.938 182.297 19.1266 183.109 19.1266 184.111C19.1266 185.113 19.938 185.925 20.9398 185.925Z" fill="#FFB700"/>
<path d="M221.048 207.032C223.643 207.032 225.747 204.928 225.747 202.332C225.747 199.737 223.643 197.633 221.048 197.633C218.452 197.633 216.348 199.737 216.348 202.332C216.348 204.928 218.452 207.032 221.048 207.032Z" fill="#FFB700"/>
<path d="M202.826 206.702C205.239 206.702 207.196 204.746 207.196 202.333C207.196 199.919 205.239 197.963 202.826 197.963C200.412 197.963 198.456 199.919 198.456 202.333C198.456 204.746 200.412 206.702 202.826 206.702Z" fill="#FFB700"/>
<path d="M184.687 206.702C187.101 206.702 189.057 204.746 189.057 202.333C189.057 199.919 187.101 197.963 184.687 197.963C182.274 197.963 180.318 199.919 180.318 202.333C180.318 204.746 182.274 206.702 184.687 206.702Z" fill="#FFB700"/>
<path d="M166.465 206.455C168.742 206.455 170.588 204.61 170.588 202.333C170.588 200.056 168.742 198.21 166.465 198.21C164.189 198.21 162.343 200.056 162.343 202.333C162.343 204.61 164.189 206.455 166.465 206.455Z" fill="#FFB700"/>
<path d="M148.327 207.032C150.922 207.032 153.026 204.928 153.026 202.332C153.026 199.737 150.922 197.633 148.327 197.633C145.731 197.633 143.628 199.737 143.628 202.332C143.628 204.928 145.731 207.032 148.327 207.032Z" fill="#FFB700"/>
<path d="M130.106 206.702C132.519 206.702 134.475 204.746 134.475 202.333C134.475 199.919 132.519 197.963 130.106 197.963C127.692 197.963 125.736 199.919 125.736 202.333C125.736 204.746 127.692 206.702 130.106 206.702Z" fill="#FFB700"/>
<path d="M111.886 206.125C113.981 206.125 115.678 204.427 115.678 202.332C115.678 200.238 113.981 198.54 111.886 198.54C109.791 198.54 108.093 200.238 108.093 202.332C108.093 204.427 109.791 206.125 111.886 206.125Z" fill="#FFB700"/>
<path d="M93.7453 206.455C96.0221 206.455 97.8678 204.61 97.8678 202.333C97.8678 200.056 96.0221 198.21 93.7453 198.21C91.4685 198.21 89.6228 200.056 89.6228 202.333C89.6228 204.61 91.4685 206.455 93.7453 206.455Z" fill="#FFB700"/>
<path d="M75.5244 206.702C77.9378 206.702 79.8941 204.746 79.8941 202.333C79.8941 199.919 77.9378 197.963 75.5244 197.963C73.111 197.963 71.1547 199.919 71.1547 202.333C71.1547 204.746 73.111 206.702 75.5244 206.702Z" fill="#FFB700"/>
<path d="M57.3856 206.702C59.799 206.702 61.7553 204.746 61.7553 202.333C61.7553 199.919 59.799 197.963 57.3856 197.963C54.9722 197.963 53.0159 199.919 53.0159 202.333C53.0159 204.746 54.9722 206.702 57.3856 206.702Z" fill="#FFB700"/>
<path d="M39.1628 206.125C41.2575 206.125 42.9552 204.427 42.9552 202.332C42.9552 200.238 41.2575 198.54 39.1628 198.54C37.0682 198.54 35.3696 200.238 35.3696 202.332C35.3696 204.427 37.0682 206.125 39.1628 206.125Z" fill="#FFB700"/>
<path d="M20.9398 204.147C21.9416 204.147 22.7539 203.334 22.7539 202.333C22.7539 201.331 21.9416 200.519 20.9398 200.519C19.938 200.519 19.1266 201.331 19.1266 202.333C19.1266 203.334 19.938 204.147 20.9398 204.147Z" fill="#FFB700"/>
<path d="M221.048 170.177C223.37 170.177 225.253 168.294 225.253 165.972C225.253 163.65 223.37 161.767 221.048 161.767C218.726 161.767 216.843 163.65 216.843 165.972C216.843 168.294 218.726 170.177 221.048 170.177Z" fill="#FFB700"/>
<path d="M202.829 168.858C204.422 168.858 205.714 167.566 205.714 165.972C205.714 164.378 204.422 163.086 202.829 163.086C201.235 163.086 199.943 164.378 199.943 165.972C199.943 167.566 201.235 168.858 202.829 168.858Z" fill="#FFB700"/>
<path d="M184.688 169.6C186.692 169.6 188.316 167.976 188.316 165.972C188.316 163.969 186.692 162.344 184.688 162.344C182.685 162.344 181.06 163.969 181.06 165.972C181.06 167.976 182.685 169.6 184.688 169.6Z" fill="#FFB700"/>
<path d="M166.467 168.693C167.97 168.693 169.188 167.475 169.188 165.972C169.188 164.469 167.97 163.251 166.467 163.251C164.964 163.251 163.746 164.469 163.746 165.972C163.746 167.475 164.964 168.693 166.467 168.693Z" fill="#FFB700"/>
<path d="M148.326 168.858C149.92 168.858 151.212 167.566 151.212 165.972C151.212 164.378 149.92 163.086 148.326 163.086C146.732 163.086 145.44 164.378 145.44 165.972C145.44 167.566 146.732 168.858 148.326 168.858Z" fill="#FFB700"/>
<path d="M130.106 170.342C132.519 170.342 134.475 168.385 134.475 165.972C134.475 163.559 132.519 161.602 130.106 161.602C127.692 161.602 125.736 163.559 125.736 165.972C125.736 168.385 127.692 170.342 130.106 170.342Z" fill="#FFB700"/>
<path d="M111.884 169.517C113.842 169.517 115.429 167.93 115.429 165.972C115.429 164.014 113.842 162.427 111.884 162.427C109.926 162.427 108.338 164.014 108.338 165.972C108.338 167.93 109.926 169.517 111.884 169.517Z" fill="#FFB700"/>
<path d="M93.7453 170.095C96.0221 170.095 97.8678 168.249 97.8678 165.972C97.8678 163.695 96.0221 161.85 93.7453 161.85C91.4685 161.85 89.6228 163.695 89.6228 165.972C89.6228 168.249 91.4685 170.095 93.7453 170.095Z" fill="#FFB700"/>
<path d="M75.5236 169.765C77.6183 169.765 79.3168 168.067 79.3168 165.972C79.3168 163.878 77.6183 162.179 75.5236 162.179C73.429 162.179 71.7313 163.878 71.7313 165.972C71.7313 168.067 73.429 169.765 75.5236 169.765Z" fill="#FFB700"/>
<path d="M57.3858 169.517C59.3439 169.517 60.931 167.93 60.931 165.972C60.931 164.014 59.3439 162.427 57.3858 162.427C55.4278 162.427 53.8407 164.014 53.8407 165.972C53.8407 167.93 55.4278 169.517 57.3858 169.517Z" fill="#FFB700"/>
<path d="M39.1628 169.765C41.2575 169.765 42.9552 168.067 42.9552 165.972C42.9552 163.878 41.2575 162.179 39.1628 162.179C37.0682 162.179 35.3696 163.878 35.3696 165.972C35.3696 168.067 37.0682 169.765 39.1628 169.765Z" fill="#FFB700"/>
<path d="M20.9398 167.786C21.9416 167.786 22.7539 166.974 22.7539 165.972C22.7539 164.97 21.9416 164.158 20.9398 164.158C19.938 164.158 19.1266 164.97 19.1266 165.972C19.1266 166.974 19.938 167.786 20.9398 167.786Z" fill="#FFB700"/>
<path d="M2.80214 167.786C3.80393 167.786 4.6162 166.974 4.6162 165.972C4.6162 164.97 3.80393 164.158 2.80214 164.158C1.80034 164.158 0.988876 164.97 0.988876 165.972C0.988876 166.974 1.80034 167.786 2.80214 167.786Z" fill="#FFB700"/>
<path d="M221.048 224.759C223.37 224.759 225.253 222.876 225.253 220.554C225.253 218.232 223.37 216.349 221.048 216.349C218.726 216.349 216.843 218.232 216.843 220.554C216.843 222.876 218.726 224.759 221.048 224.759Z" fill="#FFB700"/>
<path d="M202.826 225.336C205.467 225.336 207.608 223.195 207.608 220.554C207.608 217.913 205.467 215.772 202.826 215.772C200.185 215.772 198.044 217.913 198.044 220.554C198.044 223.195 200.185 225.336 202.826 225.336Z" fill="#FFB700"/>
<path d="M184.687 224.924C187.101 224.924 189.057 222.968 189.057 220.554C189.057 218.141 187.101 216.184 184.687 216.184C182.274 216.184 180.318 218.141 180.318 220.554C180.318 222.968 182.274 224.924 184.687 224.924Z" fill="#FFB700"/>
<path d="M166.467 224.924C168.881 224.924 170.838 222.968 170.838 220.554C170.838 218.141 168.881 216.184 166.467 216.184C164.054 216.184 162.098 218.141 162.098 220.554C162.098 222.968 164.054 224.924 166.467 224.924Z" fill="#FFB700"/>
<path d="M148.329 224.347C150.424 224.347 152.122 222.649 152.122 220.554C152.122 218.459 150.424 216.761 148.329 216.761C146.234 216.761 144.537 218.459 144.537 220.554C144.537 222.649 146.234 224.347 148.329 224.347Z" fill="#FFB700"/>
<path d="M130.106 224.924C132.519 224.924 134.475 222.968 134.475 220.554C134.475 218.141 132.519 216.184 130.106 216.184C127.692 216.184 125.736 218.141 125.736 220.554C125.736 222.968 127.692 224.924 130.106 224.924Z" fill="#FFB700"/>
<path d="M111.886 225.006C114.345 225.006 116.338 223.013 116.338 220.554C116.338 218.095 114.345 216.102 111.886 216.102C109.427 216.102 107.433 218.095 107.433 220.554C107.433 223.013 109.427 225.006 111.886 225.006Z" fill="#FFB700"/>
<path d="M93.7453 224.677C96.0221 224.677 97.8678 222.831 97.8678 220.554C97.8678 218.277 96.0221 216.432 93.7453 216.432C91.4685 216.432 89.6228 218.277 89.6228 220.554C89.6228 222.831 91.4685 224.677 93.7453 224.677Z" fill="#FFB700"/>
<path d="M75.5236 224.347C77.6183 224.347 79.3168 222.649 79.3168 220.554C79.3168 218.459 77.6183 216.761 75.5236 216.761C73.429 216.761 71.7313 218.459 71.7313 220.554C71.7313 222.649 73.429 224.347 75.5236 224.347Z" fill="#FFB700"/>
<path d="M57.3855 225.336C60.0266 225.336 62.1674 223.195 62.1674 220.554C62.1674 217.913 60.0266 215.772 57.3855 215.772C54.7444 215.772 52.6035 217.913 52.6035 220.554C52.6035 223.195 54.7444 225.336 57.3855 225.336Z" fill="#FFB700"/>
<path d="M39.1628 224.347C41.2575 224.347 42.9552 222.649 42.9552 220.554C42.9552 218.459 41.2575 216.761 39.1628 216.761C37.0682 216.761 35.3696 218.459 35.3696 220.554C35.3696 222.649 37.0682 224.347 39.1628 224.347Z" fill="#FFB700"/>
<path d="M20.9398 222.368C21.9416 222.368 22.7539 221.556 22.7539 220.554C22.7539 219.552 21.9416 218.74 20.9398 218.74C19.938 218.74 19.1266 219.552 19.1266 220.554C19.1266 221.556 19.938 222.368 20.9398 222.368Z" fill="#FFB700"/>
<path d="M2.80214 240.507C3.80393 240.507 4.6162 239.695 4.6162 238.693C4.6162 237.691 3.80393 236.879 2.80214 236.879C1.80034 236.879 0.988876 237.691 0.988876 238.693C0.988876 239.695 1.80034 240.507 2.80214 240.507Z" fill="#FFB700"/>
<path d="M221.048 242.568C223.188 242.568 224.923 240.833 224.923 238.693C224.923 236.553 223.188 234.818 221.048 234.818C218.908 234.818 217.172 236.553 217.172 238.693C217.172 240.833 218.908 242.568 221.048 242.568Z" fill="#FFB700"/>
<path d="M202.826 242.651C205.012 242.651 206.783 240.879 206.783 238.693C206.783 236.507 205.012 234.735 202.826 234.735C200.64 234.735 198.869 236.507 198.869 238.693C198.869 240.879 200.64 242.651 202.826 242.651Z" fill="#FFB700"/>
<path d="M184.688 242.321C186.692 242.321 188.316 240.697 188.316 238.693C188.316 236.689 186.692 235.065 184.688 235.065C182.685 235.065 181.06 236.689 181.06 238.693C181.06 240.697 182.685 242.321 184.688 242.321Z" fill="#FFB700"/>
<path d="M166.465 243.393C169.061 243.393 171.165 241.289 171.165 238.693C171.165 236.097 169.061 233.993 166.465 233.993C163.87 233.993 161.766 236.097 161.766 238.693C161.766 241.289 163.87 243.393 166.465 243.393Z" fill="#FFB700"/>
<path d="M148.327 243.393C150.922 243.393 153.026 241.289 153.026 238.693C153.026 236.097 150.922 233.993 148.327 233.993C145.731 233.993 143.628 236.097 143.628 238.693C143.628 241.289 145.731 243.393 148.327 243.393Z" fill="#FFB700"/>
<path d="M130.106 243.063C132.519 243.063 134.475 241.107 134.475 238.693C134.475 236.28 132.519 234.323 130.106 234.323C127.692 234.323 125.736 236.28 125.736 238.693C125.736 241.107 127.692 243.063 130.106 243.063Z" fill="#FFB700"/>
<path d="M111.884 242.816C114.161 242.816 116.006 240.97 116.006 238.693C116.006 236.416 114.161 234.571 111.884 234.571C109.607 234.571 107.761 236.416 107.761 238.693C107.761 240.97 109.607 242.816 111.884 242.816Z" fill="#FFB700"/>
<path d="M93.7453 242.816C96.0221 242.816 97.8678 240.97 97.8678 238.693C97.8678 236.416 96.0221 234.571 93.7453 234.571C91.4685 234.571 89.6228 236.416 89.6228 238.693C89.6228 240.97 91.4685 242.816 93.7453 242.816Z" fill="#FFB700"/>
<path d="M75.5234 242.816C77.8002 242.816 79.6459 240.97 79.6459 238.693C79.6459 236.416 77.8002 234.571 75.5234 234.571C73.2466 234.571 71.4009 236.416 71.4009 238.693C71.4009 240.97 73.2466 242.816 75.5234 242.816Z" fill="#FFB700"/>
<path d="M57.3858 242.238C59.3439 242.238 60.931 240.651 60.931 238.693C60.931 236.735 59.3439 235.148 57.3858 235.148C55.4278 235.148 53.8407 236.735 53.8407 238.693C53.8407 240.651 55.4278 242.238 57.3858 242.238Z" fill="#FFB700"/>
<path d="M39.1628 242.486C41.2575 242.486 42.9552 240.788 42.9552 238.693C42.9552 236.598 41.2575 234.9 39.1628 234.9C37.0682 234.9 35.3696 236.598 35.3696 238.693C35.3696 240.788 37.0682 242.486 39.1628 242.486Z" fill="#FFB700"/>
<path d="M20.9398 240.507C21.9416 240.507 22.7539 239.695 22.7539 238.693C22.7539 237.691 21.9416 236.879 20.9398 236.879C19.938 236.879 19.1266 237.691 19.1266 238.693C19.1266 239.695 19.938 240.507 20.9398 240.507Z" fill="#FFB700"/>
<path d="M221.048 261.614C223.643 261.614 225.747 259.51 225.747 256.915C225.747 254.319 223.643 252.215 221.048 252.215C218.452 252.215 216.348 254.319 216.348 256.915C216.348 259.51 218.452 261.614 221.048 261.614Z" fill="#FFB700"/>
<path d="M202.826 261.284C205.239 261.284 207.196 259.328 207.196 256.915C207.196 254.501 205.239 252.545 202.826 252.545C200.412 252.545 198.456 254.501 198.456 256.915C198.456 259.328 200.412 261.284 202.826 261.284Z" fill="#FFB700"/>
<path d="M184.687 261.284C187.101 261.284 189.057 259.328 189.057 256.915C189.057 254.501 187.101 252.545 184.687 252.545C182.274 252.545 180.318 254.501 180.318 256.915C180.318 259.328 182.274 261.284 184.687 261.284Z" fill="#FFB700"/>
<path d="M166.465 261.037C168.742 261.037 170.588 259.192 170.588 256.915C170.588 254.638 168.742 252.792 166.465 252.792C164.189 252.792 162.343 254.638 162.343 256.915C162.343 259.192 164.189 261.037 166.465 261.037Z" fill="#FFB700"/>
<path d="M148.327 261.284C150.74 261.284 152.697 259.328 152.697 256.915C152.697 254.501 150.74 252.545 148.327 252.545C145.913 252.545 143.957 254.501 143.957 256.915C143.957 259.328 145.913 261.284 148.327 261.284Z" fill="#FFB700"/>
<path d="M130.106 261.284C132.519 261.284 134.475 259.328 134.475 256.915C134.475 254.501 132.519 252.545 130.106 252.545C127.692 252.545 125.736 254.501 125.736 256.915C125.736 259.328 127.692 261.284 130.106 261.284Z" fill="#FFB700"/>
<path d="M111.886 260.707C113.981 260.707 115.678 259.009 115.678 256.915C115.678 254.82 113.981 253.122 111.886 253.122C109.791 253.122 108.093 254.82 108.093 256.915C108.093 259.009 109.791 260.707 111.886 260.707Z" fill="#FFB700"/>
<path d="M93.7453 261.037C96.0221 261.037 97.8678 259.192 97.8678 256.915C97.8678 254.638 96.0221 252.792 93.7453 252.792C91.4685 252.792 89.6228 254.638 89.6228 256.915C89.6228 259.192 91.4685 261.037 93.7453 261.037Z" fill="#FFB700"/>
<path d="M75.5244 261.284C77.9378 261.284 79.8941 259.328 79.8941 256.915C79.8941 254.501 77.9378 252.545 75.5244 252.545C73.111 252.545 71.1547 254.501 71.1547 256.915C71.1547 259.328 73.111 261.284 75.5244 261.284Z" fill="#FFB700"/>
<path d="M57.3856 261.284C59.799 261.284 61.7553 259.328 61.7553 256.915C61.7553 254.501 59.799 252.545 57.3856 252.545C54.9722 252.545 53.0159 254.501 53.0159 256.915C53.0159 259.328 54.9722 261.284 57.3856 261.284Z" fill="#FFB700"/>
<path d="M39.1628 260.707C41.2575 260.707 42.9552 259.009 42.9552 256.915C42.9552 254.82 41.2575 253.122 39.1628 253.122C37.0682 253.122 35.3696 254.82 35.3696 256.915C35.3696 259.009 37.0682 260.707 39.1628 260.707Z" fill="#FFB700"/>
<path d="M20.9398 258.729C21.9416 258.729 22.7539 257.917 22.7539 256.915C22.7539 255.913 21.9416 255.101 20.9398 255.101C19.938 255.101 19.1266 255.913 19.1266 256.915C19.1266 257.917 19.938 258.729 20.9398 258.729Z" fill="#FFB700"/>
<path d="M221.05 279.423C223.463 279.423 225.42 277.467 225.42 275.054C225.42 272.64 223.463 270.684 221.05 270.684C218.637 270.684 216.68 272.64 216.68 275.054C216.68 277.467 218.637 279.423 221.05 279.423Z" fill="#FFB700"/>
<path d="M202.829 277.939C204.422 277.939 205.714 276.647 205.714 275.054C205.714 273.46 204.422 272.168 202.829 272.168C201.235 272.168 199.943 273.46 199.943 275.054C199.943 276.647 201.235 277.939 202.829 277.939Z" fill="#FFB700"/>
<path d="M184.688 278.681C186.692 278.681 188.316 277.057 188.316 275.054C188.316 273.05 186.692 271.426 184.688 271.426C182.685 271.426 181.06 273.05 181.06 275.054C181.06 277.057 182.685 278.681 184.688 278.681Z" fill="#FFB700"/>
<path d="M166.468 278.846C168.562 278.846 170.261 277.148 170.261 275.054C170.261 272.959 168.562 271.261 166.468 271.261C164.373 271.261 162.675 272.959 162.675 275.054C162.675 277.148 164.373 278.846 166.468 278.846Z" fill="#FFB700"/>
<path d="M148.327 279.423C150.74 279.423 152.697 277.467 152.697 275.054C152.697 272.64 150.74 270.684 148.327 270.684C145.913 270.684 143.957 272.64 143.957 275.054C143.957 277.467 145.913 279.423 148.327 279.423Z" fill="#FFB700"/>
<path d="M130.106 279.423C132.519 279.423 134.475 277.467 134.475 275.054C134.475 272.64 132.519 270.684 130.106 270.684C127.692 270.684 125.736 272.64 125.736 275.054C125.736 277.467 127.692 279.423 130.106 279.423Z" fill="#FFB700"/>
<path d="M111.884 279.423C114.297 279.423 116.253 277.467 116.253 275.054C116.253 272.64 114.297 270.684 111.884 270.684C109.47 270.684 107.513 272.64 107.513 275.054C107.513 277.467 109.47 279.423 111.884 279.423Z" fill="#FFB700"/>
<path d="M93.7453 279.176C96.0221 279.176 97.8678 277.33 97.8678 275.054C97.8678 272.777 96.0221 270.931 93.7453 270.931C91.4685 270.931 89.6228 272.777 89.6228 275.054C89.6228 277.33 91.4685 279.176 93.7453 279.176Z" fill="#FFB700"/>
<path d="M75.5233 279.671C78.0733 279.671 80.141 277.604 80.141 275.054C80.141 272.504 78.0733 270.437 75.5233 270.437C72.9733 270.437 70.9064 272.504 70.9064 275.054C70.9064 277.604 72.9733 279.671 75.5233 279.671Z" fill="#FFB700"/>
<path d="M57.3856 279.176C59.6624 279.176 61.5081 277.33 61.5081 275.054C61.5081 272.777 59.6624 270.931 57.3856 270.931C55.1088 270.931 53.2631 272.777 53.2631 275.054C53.2631 277.33 55.1088 279.176 57.3856 279.176Z" fill="#FFB700"/>
<path d="M39.1628 278.846C41.2575 278.846 42.9552 277.148 42.9552 275.054C42.9552 272.959 41.2575 271.261 39.1628 271.261C37.0682 271.261 35.3696 272.959 35.3696 275.054C35.3696 277.148 37.0682 278.846 39.1628 278.846Z" fill="#FFB700"/>
<path d="M20.9398 276.868C21.9416 276.868 22.7539 276.055 22.7539 275.054C22.7539 274.052 21.9416 273.24 20.9398 273.24C19.938 273.24 19.1266 274.052 19.1266 275.054C19.1266 276.055 19.938 276.868 20.9398 276.868Z" fill="#FFB700"/>
<path d="M2.80276 296.078C4.35098 296.078 5.60639 294.823 5.60639 293.275C5.60639 291.727 4.35098 290.472 2.80276 290.472C1.25454 290.472 -6.10352e-05 291.727 -6.10352e-05 293.275C-6.10352e-05 294.823 1.25454 296.078 2.80276 296.078Z" fill="#FFB700"/>
<path d="M2.80214 331.449C3.80393 331.449 4.6162 330.637 4.6162 329.636C4.6162 328.634 3.80393 327.822 2.80214 327.822C1.80034 327.822 0.988876 328.634 0.988876 329.636C0.988876 330.637 1.80034 331.449 2.80214 331.449Z" fill="#FFB700"/>
<path d="M221.048 370.778C223.643 370.778 225.747 368.674 225.747 366.079C225.747 363.483 223.643 361.379 221.048 361.379C218.452 361.379 216.348 363.483 216.348 366.079C216.348 368.674 218.452 370.778 221.048 370.778Z" fill="#FFB700"/>
<path d="M202.826 370.448C205.239 370.448 207.196 368.492 207.196 366.078C207.196 363.665 205.239 361.708 202.826 361.708C200.412 361.708 198.456 363.665 198.456 366.078C198.456 368.492 200.412 370.448 202.826 370.448Z" fill="#FFB700"/>
<path d="M184.687 370.448C187.101 370.448 189.057 368.492 189.057 366.078C189.057 363.665 187.101 361.708 184.687 361.708C182.274 361.708 180.318 363.665 180.318 366.078C180.318 368.492 182.274 370.448 184.687 370.448Z" fill="#FFB700"/>
<path d="M166.465 370.201C168.742 370.201 170.588 368.355 170.588 366.079C170.588 363.802 168.742 361.956 166.465 361.956C164.189 361.956 162.343 363.802 162.343 366.079C162.343 368.355 164.189 370.201 166.465 370.201Z" fill="#FFB700"/>
<path d="M148.327 370.778C150.922 370.778 153.026 368.674 153.026 366.079C153.026 363.483 150.922 361.379 148.327 361.379C145.731 361.379 143.628 363.483 143.628 366.079C143.628 368.674 145.731 370.778 148.327 370.778Z" fill="#FFB700"/>
<path d="M130.106 370.448C132.519 370.448 134.475 368.492 134.475 366.078C134.475 363.665 132.519 361.708 130.106 361.708C127.692 361.708 125.736 363.665 125.736 366.078C125.736 368.492 127.692 370.448 130.106 370.448Z" fill="#FFB700"/>
<path d="M111.886 369.871C113.981 369.871 115.678 368.173 115.678 366.079C115.678 363.984 113.981 362.286 111.886 362.286C109.791 362.286 108.093 363.984 108.093 366.079C108.093 368.173 109.791 369.871 111.886 369.871Z" fill="#FFB700"/>
<path d="M93.7453 370.201C96.0221 370.201 97.8678 368.355 97.8678 366.079C97.8678 363.802 96.0221 361.956 93.7453 361.956C91.4685 361.956 89.6228 363.802 89.6228 366.079C89.6228 368.355 91.4685 370.201 93.7453 370.201Z" fill="#FFB700"/>
<path d="M75.5244 370.448C77.9378 370.448 79.8941 368.492 79.8941 366.078C79.8941 363.665 77.9378 361.708 75.5244 361.708C73.111 361.708 71.1547 363.665 71.1547 366.078C71.1547 368.492 73.111 370.448 75.5244 370.448Z" fill="#FFB700"/>
<path d="M57.385 369.459C59.252 369.459 60.7659 367.946 60.7659 366.079C60.7659 364.212 59.252 362.698 57.385 362.698C55.518 362.698 54.0049 364.212 54.0049 366.079C54.0049 367.946 55.518 369.459 57.385 369.459Z" fill="#FFB700"/>
<path d="M39.1628 369.871C41.2575 369.871 42.9552 368.173 42.9552 366.079C42.9552 363.984 41.2575 362.286 39.1628 362.286C37.0682 362.286 35.3696 363.984 35.3696 366.079C35.3696 368.173 37.0682 369.871 39.1628 369.871Z" fill="#FFB700"/>
<path d="M221.048 352.062C223.37 352.062 225.253 350.179 225.253 347.857C225.253 345.535 223.37 343.652 221.048 343.652C218.726 343.652 216.843 345.535 216.843 347.857C216.843 350.179 218.726 352.062 221.048 352.062Z" fill="#FFB700"/>
<path d="M202.827 352.474C205.377 352.474 207.444 350.407 207.444 347.857C207.444 345.307 205.377 343.24 202.827 343.24C200.277 343.24 198.209 345.307 198.209 347.857C198.209 350.407 200.277 352.474 202.827 352.474Z" fill="#FFB700"/>
<path d="M184.687 352.227C187.101 352.227 189.057 350.27 189.057 347.857C189.057 345.444 187.101 343.487 184.687 343.487C182.274 343.487 180.318 345.444 180.318 347.857C180.318 350.27 182.274 352.227 184.687 352.227Z" fill="#FFB700"/>
<path d="M166.467 352.227C168.881 352.227 170.838 350.27 170.838 347.857C170.838 345.444 168.881 343.487 166.467 343.487C164.054 343.487 162.098 345.444 162.098 347.857C162.098 350.27 164.054 352.227 166.467 352.227Z" fill="#FFB700"/>
<path d="M148.329 351.65C150.424 351.65 152.122 349.952 152.122 347.857C152.122 345.762 150.424 344.064 148.329 344.064C146.234 344.064 144.537 345.762 144.537 347.857C144.537 349.952 146.234 351.65 148.329 351.65Z" fill="#FFB700"/>
<path d="M130.106 352.227C132.519 352.227 134.475 350.27 134.475 347.857C134.475 345.444 132.519 343.487 130.106 343.487C127.692 343.487 125.736 345.444 125.736 347.857C125.736 350.27 127.692 352.227 130.106 352.227Z" fill="#FFB700"/>
<path d="M111.884 351.815C114.07 351.815 115.841 350.043 115.841 347.857C115.841 345.671 114.07 343.899 111.884 343.899C109.698 343.899 107.926 345.671 107.926 347.857C107.926 350.043 109.698 351.815 111.884 351.815Z" fill="#FFB700"/>
<path d="M93.7453 351.98C96.0221 351.98 97.8678 350.134 97.8678 347.857C97.8678 345.58 96.0221 343.735 93.7453 343.735C91.4685 343.735 89.6228 345.58 89.6228 347.857C89.6228 350.134 91.4685 351.98 93.7453 351.98Z" fill="#FFB700"/>
<path d="M75.5236 351.65C77.6183 351.65 79.3168 349.952 79.3168 347.857C79.3168 345.762 77.6183 344.064 75.5236 344.064C73.429 344.064 71.7313 345.762 71.7313 347.857C71.7313 349.952 73.429 351.65 75.5236 351.65Z" fill="#FFB700"/>
<path d="M57.385 351.238C59.252 351.238 60.7659 349.724 60.7659 347.857C60.7659 345.99 59.252 344.477 57.385 344.477C55.518 344.477 54.0049 345.99 54.0049 347.857C54.0049 349.724 55.518 351.238 57.385 351.238Z" fill="#FFB700"/>
<path d="M39.1628 351.65C41.2575 351.65 42.9552 349.952 42.9552 347.857C42.9552 345.762 41.2575 344.064 39.1628 344.064C37.0682 344.064 35.3696 345.762 35.3696 347.857C35.3696 349.952 37.0682 351.65 39.1628 351.65Z" fill="#FFB700"/>
<path d="M20.9398 349.671C21.9416 349.671 22.7539 348.859 22.7539 347.857C22.7539 346.855 21.9416 346.043 20.9398 346.043C19.938 346.043 19.1266 346.855 19.1266 347.857C19.1266 348.859 19.938 349.671 20.9398 349.671Z" fill="#FFB700"/>
<path d="M221.048 333.841C223.37 333.841 225.253 331.958 225.253 329.636C225.253 327.313 223.37 325.431 221.048 325.431C218.726 325.431 216.843 327.313 216.843 329.636C216.843 331.958 218.726 333.841 221.048 333.841Z" fill="#FFB700"/>
<path d="M202.826 333.593C205.012 333.593 206.783 331.821 206.783 329.636C206.783 327.45 205.012 325.678 202.826 325.678C200.64 325.678 198.869 327.45 198.869 329.636C198.869 331.821 200.64 333.593 202.826 333.593Z" fill="#FFB700"/>
<path d="M184.688 333.263C186.692 333.263 188.316 331.639 188.316 329.636C188.316 327.632 186.692 326.008 184.688 326.008C182.685 326.008 181.06 327.632 181.06 329.636C181.06 331.639 182.685 333.263 184.688 333.263Z" fill="#FFB700"/>
<path d="M166.465 334.335C169.061 334.335 171.165 332.231 171.165 329.636C171.165 327.04 169.061 324.936 166.465 324.936C163.87 324.936 161.766 327.04 161.766 329.636C161.766 332.231 163.87 334.335 166.465 334.335Z" fill="#FFB700"/>
<path d="M148.327 334.335C150.922 334.335 153.026 332.231 153.026 329.636C153.026 327.04 150.922 324.936 148.327 324.936C145.731 324.936 143.628 327.04 143.628 329.636C143.628 332.231 145.731 334.335 148.327 334.335Z" fill="#FFB700"/>
<path d="M130.106 334.006C132.519 334.006 134.475 332.049 134.475 329.636C134.475 327.222 132.519 325.266 130.106 325.266C127.692 325.266 125.736 327.222 125.736 329.636C125.736 332.049 127.692 334.006 130.106 334.006Z" fill="#FFB700"/>
<path d="M111.886 333.428C113.981 333.428 115.678 331.73 115.678 329.636C115.678 327.541 113.981 325.843 111.886 325.843C109.791 325.843 108.093 327.541 108.093 329.636C108.093 331.73 109.791 333.428 111.886 333.428Z" fill="#FFB700"/>
<path d="M93.7453 333.758C96.0221 333.758 97.8678 331.912 97.8678 329.635C97.8678 327.359 96.0221 325.513 93.7453 325.513C91.4685 325.513 89.6228 327.359 89.6228 329.635C89.6228 331.912 91.4685 333.758 93.7453 333.758Z" fill="#FFB700"/>
<path d="M75.5245 333.593C77.7102 333.593 79.4819 331.821 79.4819 329.636C79.4819 327.45 77.7102 325.678 75.5245 325.678C73.3388 325.678 71.5671 327.45 71.5671 329.636C71.5671 331.821 73.3388 333.593 75.5245 333.593Z" fill="#FFB700"/>
<path d="M57.3858 333.181C59.3439 333.181 60.931 331.594 60.931 329.636C60.931 327.678 59.3439 326.09 57.3858 326.09C55.4278 326.09 53.8407 327.678 53.8407 329.636C53.8407 331.594 55.4278 333.181 57.3858 333.181Z" fill="#FFB700"/>
<path d="M39.1628 333.428C41.2575 333.428 42.9552 331.73 42.9552 329.636C42.9552 327.541 41.2575 325.843 39.1628 325.843C37.0682 325.843 35.3696 327.541 35.3696 329.636C35.3696 331.73 37.0682 333.428 39.1628 333.428Z" fill="#FFB700"/>
<path d="M20.9398 331.449C21.9416 331.449 22.7539 330.637 22.7539 329.636C22.7539 328.634 21.9416 327.822 20.9398 327.822C19.938 327.822 19.1266 328.634 19.1266 329.636C19.1266 330.637 19.938 331.449 20.9398 331.449Z" fill="#FFB700"/>
<path d="M221.048 316.196C223.643 316.196 225.747 314.092 225.747 311.497C225.747 308.901 223.643 306.797 221.048 306.797C218.452 306.797 216.348 308.901 216.348 311.497C216.348 314.092 218.452 316.196 221.048 316.196Z" fill="#FFB700"/>
<path d="M202.826 315.866C205.239 315.866 207.196 313.91 207.196 311.496C207.196 309.083 205.239 307.127 202.826 307.127C200.412 307.127 198.456 309.083 198.456 311.496C198.456 313.91 200.412 315.866 202.826 315.866Z" fill="#FFB700"/>
<path d="M184.687 315.866C187.101 315.866 189.057 313.91 189.057 311.496C189.057 309.083 187.101 307.127 184.687 307.127C182.274 307.127 180.318 309.083 180.318 311.496C180.318 313.91 182.274 315.866 184.687 315.866Z" fill="#FFB700"/>
<path d="M166.465 315.619C168.742 315.619 170.588 313.774 170.588 311.497C170.588 309.22 168.742 307.374 166.465 307.374C164.189 307.374 162.343 309.22 162.343 311.497C162.343 313.774 164.189 315.619 166.465 315.619Z" fill="#FFB700"/>
<path d="M148.327 315.866C150.74 315.866 152.697 313.91 152.697 311.496C152.697 309.083 150.74 307.127 148.327 307.127C145.913 307.127 143.957 309.083 143.957 311.496C143.957 313.91 145.913 315.866 148.327 315.866Z" fill="#FFB700"/>
<path d="M130.106 315.866C132.519 315.866 134.475 313.91 134.475 311.496C134.475 309.083 132.519 307.127 130.106 307.127C127.692 307.127 125.736 309.083 125.736 311.496C125.736 313.91 127.692 315.866 130.106 315.866Z" fill="#FFB700"/>
<path d="M111.886 315.289C113.981 315.289 115.678 313.591 115.678 311.497C115.678 309.402 113.981 307.704 111.886 307.704C109.791 307.704 108.093 309.402 108.093 311.497C108.093 313.591 109.791 315.289 111.886 315.289Z" fill="#FFB700"/>
<path d="M93.7453 315.619C96.0221 315.619 97.8678 313.774 97.8678 311.497C97.8678 309.22 96.0221 307.374 93.7453 307.374C91.4685 307.374 89.6228 309.22 89.6228 311.497C89.6228 313.774 91.4685 315.619 93.7453 315.619Z" fill="#FFB700"/>
<path d="M75.5244 315.866C77.9378 315.866 79.8941 313.91 79.8941 311.496C79.8941 309.083 77.9378 307.127 75.5244 307.127C73.111 307.127 71.1547 309.083 71.1547 311.496C71.1547 313.91 73.111 315.866 75.5244 315.866Z" fill="#FFB700"/>
<path d="M57.3856 315.866C59.799 315.866 61.7553 313.91 61.7553 311.496C61.7553 309.083 59.799 307.127 57.3856 307.127C54.9722 307.127 53.0159 309.083 53.0159 311.496C53.0159 313.91 54.9722 315.866 57.3856 315.866Z" fill="#FFB700"/>
<path d="M39.1628 315.289C41.2575 315.289 42.9552 313.591 42.9552 311.497C42.9552 309.402 41.2575 307.704 39.1628 307.704C37.0682 307.704 35.3696 309.402 35.3696 311.497C35.3696 313.591 37.0682 315.289 39.1628 315.289Z" fill="#FFB700"/>
<path d="M20.9398 313.31C21.9416 313.31 22.7539 312.498 22.7539 311.497C22.7539 310.495 21.9416 309.683 20.9398 309.683C19.938 309.683 19.1266 310.495 19.1266 311.497C19.1266 312.498 19.938 313.31 20.9398 313.31Z" fill="#FFB700"/>
<path d="M221.05 297.645C223.463 297.645 225.42 295.688 225.42 293.275C225.42 290.862 223.463 288.905 221.05 288.905C218.637 288.905 216.68 290.862 216.68 293.275C216.68 295.688 218.637 297.645 221.05 297.645Z" fill="#FFB700"/>
<path d="M202.829 296.161C204.422 296.161 205.714 294.869 205.714 293.275C205.714 291.681 204.422 290.389 202.829 290.389C201.235 290.389 199.943 291.681 199.943 293.275C199.943 294.869 201.235 296.161 202.829 296.161Z" fill="#FFB700"/>
<path d="M184.688 296.903C186.692 296.903 188.316 295.279 188.316 293.275C188.316 291.271 186.692 289.647 184.688 289.647C182.685 289.647 181.06 291.271 181.06 293.275C181.06 295.279 182.685 296.903 184.688 296.903Z" fill="#FFB700"/>
<path d="M166.468 297.068C168.562 297.068 170.261 295.37 170.261 293.275C170.261 291.18 168.562 289.482 166.468 289.482C164.373 289.482 162.675 291.18 162.675 293.275C162.675 295.37 164.373 297.068 166.468 297.068Z" fill="#FFB700"/>
<path d="M148.327 297.645C150.74 297.645 152.697 295.688 152.697 293.275C152.697 290.862 150.74 288.905 148.327 288.905C145.913 288.905 143.957 290.862 143.957 293.275C143.957 295.688 145.913 297.645 148.327 297.645Z" fill="#FFB700"/>
<path d="M130.106 297.645C132.519 297.645 134.475 295.688 134.475 293.275C134.475 290.862 132.519 288.905 130.106 288.905C127.692 288.905 125.736 290.862 125.736 293.275C125.736 295.688 127.692 297.645 130.106 297.645Z" fill="#FFB700"/>
<path d="M111.884 297.645C114.297 297.645 116.253 295.688 116.253 293.275C116.253 290.862 114.297 288.905 111.884 288.905C109.47 288.905 107.513 290.862 107.513 293.275C107.513 295.688 109.47 297.645 111.884 297.645Z" fill="#FFB700"/>
<path d="M93.7453 297.397C96.0221 297.397 97.8678 295.552 97.8678 293.275C97.8678 290.998 96.0221 289.152 93.7453 289.152C91.4685 289.152 89.6228 290.998 89.6228 293.275C89.6228 295.552 91.4685 297.397 93.7453 297.397Z" fill="#FFB700"/>
<path d="M75.5233 297.892C78.0733 297.892 80.141 295.825 80.141 293.275C80.141 290.725 78.0733 288.658 75.5233 288.658C72.9733 288.658 70.9064 290.725 70.9064 293.275C70.9064 295.825 72.9733 297.892 75.5233 297.892Z" fill="#FFB700"/>
<path d="M57.3856 297.397C59.6624 297.397 61.5081 295.552 61.5081 293.275C61.5081 290.998 59.6624 289.152 57.3856 289.152C55.1088 289.152 53.2631 290.998 53.2631 293.275C53.2631 295.552 55.1088 297.397 57.3856 297.397Z" fill="#FFB700"/>
<path d="M39.1628 297.068C41.2575 297.068 42.9552 295.37 42.9552 293.275C42.9552 291.18 41.2575 289.482 39.1628 289.482C37.0682 289.482 35.3696 291.18 35.3696 293.275C35.3696 295.37 37.0682 297.068 39.1628 297.068Z" fill="#FFB700"/>
<path d="M20.9398 295.089C21.9416 295.089 22.7539 294.277 22.7539 293.275C22.7539 292.273 21.9416 291.461 20.9398 291.461C19.938 291.461 19.1266 292.273 19.1266 293.275C19.1266 294.277 19.938 295.089 20.9398 295.089Z" fill="#FFB700"/>
</svg>
