<svg width="373" height="216" viewBox="0 0 373 216" fill="none" xmlns="http://www.w3.org/2000/svg">
<path d="M359.432 215.411C360.707 215.411 361.741 214.378 361.741 213.103C361.741 211.828 360.707 210.794 359.432 210.794C358.157 210.794 357.124 211.828 357.124 213.103C357.124 214.378 358.157 215.411 359.432 215.411Z" fill="#FFB700"/>
<path d="M286.712 215.246C287.896 215.246 288.856 214.287 288.856 213.103C288.856 211.919 287.896 210.959 286.712 210.959C285.528 210.959 284.568 211.919 284.568 213.103C284.568 214.287 285.528 215.246 286.712 215.246Z" fill="#FFB700"/>
<path d="M232.129 214.917C233.13 214.917 233.943 214.105 233.943 213.103C233.943 212.101 233.13 211.289 232.129 211.289C231.127 211.289 230.315 212.101 230.315 213.103C230.315 214.105 231.127 214.917 232.129 214.917Z" fill="#FFB700"/>
<path d="M213.989 215.164C215.127 215.164 216.05 214.241 216.05 213.103C216.05 211.964 215.127 211.042 213.989 211.042C212.851 211.042 211.928 211.964 211.928 213.103C211.928 214.241 212.851 215.164 213.989 215.164Z" fill="#FFB700"/>
<path d="M195.769 215.164C196.908 215.164 197.831 214.241 197.831 213.103C197.831 211.964 196.908 211.042 195.769 211.042C194.631 211.042 193.708 211.964 193.708 213.103C193.708 214.241 194.631 215.164 195.769 215.164Z" fill="#FFB700"/>
<path d="M177.63 214.917C178.632 214.917 179.445 214.105 179.445 213.103C179.445 212.101 178.632 211.289 177.63 211.289C176.629 211.289 175.816 212.101 175.816 213.103C175.816 214.105 176.629 214.917 177.63 214.917Z" fill="#FFB700"/>
<path d="M359.433 196.778C360.481 196.778 361.329 195.929 361.329 194.881C361.329 193.834 360.481 192.985 359.433 192.985C358.386 192.985 357.537 193.834 357.537 194.881C357.537 195.929 358.386 196.778 359.433 196.778Z" fill="#FFB700"/>
<path d="M341.292 196.613C342.248 196.613 343.023 195.838 343.023 194.881C343.023 193.925 342.248 193.15 341.292 193.15C340.335 193.15 339.561 193.925 339.561 194.881C339.561 195.838 340.335 196.613 341.292 196.613Z" fill="#FFB700"/>
<path d="M304.933 197.602C306.436 197.602 307.654 196.384 307.654 194.881C307.654 193.378 306.436 192.16 304.933 192.16C303.431 192.16 302.212 193.378 302.212 194.881C302.212 196.384 303.431 197.602 304.933 197.602Z" fill="#FFB700"/>
<path d="M286.712 196.53C287.622 196.53 288.361 195.792 288.361 194.881C288.361 193.97 287.622 193.232 286.712 193.232C285.801 193.232 285.062 193.97 285.062 194.881C285.062 195.792 285.801 196.53 286.712 196.53Z" fill="#FFB700"/>
<path d="M268.573 197.437C269.985 197.437 271.13 196.293 271.13 194.881C271.13 193.47 269.985 192.325 268.573 192.325C267.162 192.325 266.018 193.47 266.018 194.881C266.018 196.293 267.162 197.437 268.573 197.437Z" fill="#FFB700"/>
<path d="M250.352 196.942C251.491 196.942 252.414 196.019 252.414 194.881C252.414 193.743 251.491 192.82 250.352 192.82C249.214 192.82 248.291 193.743 248.291 194.881C248.291 196.019 249.214 196.942 250.352 196.942Z" fill="#FFB700"/>
<path d="M232.13 196.365C232.95 196.365 233.615 195.701 233.615 194.881C233.615 194.061 232.95 193.397 232.13 193.397C231.311 193.397 230.646 194.061 230.646 194.881C230.646 195.701 231.311 196.365 232.13 196.365Z" fill="#FFB700"/>
<path d="M213.99 197.52C215.447 197.52 216.629 196.338 216.629 194.881C216.629 193.424 215.447 192.243 213.99 192.243C212.533 192.243 211.353 193.424 211.353 194.881C211.353 196.338 212.533 197.52 213.99 197.52Z" fill="#FFB700"/>
<path d="M195.769 196.942C196.908 196.942 197.831 196.019 197.831 194.881C197.831 193.743 196.908 192.82 195.769 192.82C194.631 192.82 193.708 193.743 193.708 194.881C193.708 196.019 194.631 196.942 195.769 196.942Z" fill="#FFB700"/>
<path d="M177.63 196.695C178.632 196.695 179.445 195.883 179.445 194.881C179.445 193.879 178.632 193.067 177.63 193.067C176.629 193.067 175.816 193.879 175.816 194.881C175.816 195.883 176.629 196.695 177.63 196.695Z" fill="#FFB700"/>
<path d="M359.432 179.051C360.707 179.051 361.741 178.017 361.741 176.742C361.741 175.467 360.707 174.434 359.432 174.434C358.157 174.434 357.124 175.467 357.124 176.742C357.124 178.017 358.157 179.051 359.432 179.051Z" fill="#FFB700"/>
<path d="M341.294 179.051C342.569 179.051 343.602 178.017 343.602 176.742C343.602 175.467 342.569 174.434 341.294 174.434C340.019 174.434 338.985 175.467 338.985 176.742C338.985 178.017 340.019 179.051 341.294 179.051Z" fill="#FFB700"/>
<path d="M323.074 178.721C324.167 178.721 325.052 177.835 325.052 176.742C325.052 175.649 324.167 174.763 323.074 174.763C321.981 174.763 321.095 175.649 321.095 176.742C321.095 177.835 321.981 178.721 323.074 178.721Z" fill="#FFB700"/>
<path d="M304.934 178.721C306.027 178.721 306.913 177.835 306.913 176.742C306.913 175.649 306.027 174.763 304.934 174.763C303.841 174.763 302.955 175.649 302.955 176.742C302.955 177.835 303.841 178.721 304.934 178.721Z" fill="#FFB700"/>
<path d="M286.711 178.556C287.712 178.556 288.525 177.744 288.525 176.742C288.525 175.74 287.712 174.928 286.711 174.928C285.709 174.928 284.896 175.74 284.896 176.742C284.896 177.744 285.709 178.556 286.711 178.556Z" fill="#FFB700"/>
<path d="M268.573 179.298C269.985 179.298 271.13 178.154 271.13 176.742C271.13 175.33 269.985 174.186 268.573 174.186C267.162 174.186 266.018 175.33 266.018 176.742C266.018 178.154 267.162 179.298 268.573 179.298Z" fill="#FFB700"/>
<path d="M250.352 178.556C251.354 178.556 252.166 177.744 252.166 176.742C252.166 175.74 251.354 174.928 250.352 174.928C249.35 174.928 248.538 175.74 248.538 176.742C248.538 177.744 249.35 178.556 250.352 178.556Z" fill="#FFB700"/>
<path d="M232.129 178.556C233.13 178.556 233.943 177.744 233.943 176.742C233.943 175.74 233.13 174.928 232.129 174.928C231.127 174.928 230.315 175.74 230.315 176.742C230.315 177.744 231.127 178.556 232.129 178.556Z" fill="#FFB700"/>
<path d="M213.99 178.226C214.809 178.226 215.475 177.562 215.475 176.742C215.475 175.922 214.809 175.258 213.99 175.258C213.17 175.258 212.506 175.922 212.506 176.742C212.506 177.562 213.17 178.226 213.99 178.226Z" fill="#FFB700"/>
<path d="M195.769 178.968C196.999 178.968 197.996 177.972 197.996 176.742C197.996 175.513 196.999 174.516 195.769 174.516C194.54 174.516 193.543 175.513 193.543 176.742C193.543 177.972 194.54 178.968 195.769 178.968Z" fill="#FFB700"/>
<path d="M177.63 178.556C178.632 178.556 179.445 177.744 179.445 176.742C179.445 175.74 178.632 174.928 177.63 174.928C176.629 174.928 175.816 175.74 175.816 176.742C175.816 177.744 176.629 178.556 177.63 178.556Z" fill="#FFB700"/>
<path d="M359.433 160.335C360.435 160.335 361.247 159.522 361.247 158.521C361.247 157.519 360.435 156.707 359.433 156.707C358.431 156.707 357.619 157.519 357.619 158.521C357.619 159.522 358.431 160.335 359.433 160.335Z" fill="#FFB700"/>
<path d="M341.293 160.5C342.385 160.5 343.272 159.614 343.272 158.521C343.272 157.428 342.385 156.542 341.293 156.542C340.2 156.542 339.313 157.428 339.313 158.521C339.313 159.614 340.2 160.5 341.293 160.5Z" fill="#FFB700"/>
<path d="M323.074 160.5C324.167 160.5 325.052 159.614 325.052 158.521C325.052 157.428 324.167 156.542 323.074 156.542C321.981 156.542 321.095 157.428 321.095 158.521C321.095 159.614 321.981 160.5 323.074 160.5Z" fill="#FFB700"/>
<path d="M304.934 160.335C305.936 160.335 306.747 159.522 306.747 158.521C306.747 157.519 305.936 156.707 304.934 156.707C303.932 156.707 303.12 157.519 303.12 158.521C303.12 159.522 303.932 160.335 304.934 160.335Z" fill="#FFB700"/>
<path d="M286.711 161.159C288.168 161.159 289.349 159.978 289.349 158.52C289.349 157.063 288.168 155.882 286.711 155.882C285.254 155.882 284.072 157.063 284.072 158.52C284.072 159.978 285.254 161.159 286.711 161.159Z" fill="#FFB700"/>
<path d="M268.572 160.087C269.437 160.087 270.139 159.386 270.139 158.521C270.139 157.655 269.437 156.954 268.572 156.954C267.707 156.954 267.006 157.655 267.006 158.521C267.006 159.386 267.707 160.087 268.572 160.087Z" fill="#FFB700"/>
<path d="M250.352 160.582C251.491 160.582 252.414 159.659 252.414 158.52C252.414 157.382 251.491 156.459 250.352 156.459C249.214 156.459 248.291 157.382 248.291 158.52C248.291 159.659 249.214 160.582 250.352 160.582Z" fill="#FFB700"/>
<path d="M232.129 160.582C233.267 160.582 234.19 159.659 234.19 158.52C234.19 157.382 233.267 156.459 232.129 156.459C230.99 156.459 230.067 157.382 230.067 158.52C230.067 159.659 230.99 160.582 232.129 160.582Z" fill="#FFB700"/>
<path d="M213.991 160.747C215.221 160.747 216.217 159.75 216.217 158.521C216.217 157.291 215.221 156.294 213.991 156.294C212.762 156.294 211.766 157.291 211.766 158.521C211.766 159.75 212.762 160.747 213.991 160.747Z" fill="#FFB700"/>
<path d="M195.769 160.747C196.999 160.747 197.996 159.75 197.996 158.521C197.996 157.291 196.999 156.294 195.769 156.294C194.54 156.294 193.543 157.291 193.543 158.521C193.543 159.75 194.54 160.747 195.769 160.747Z" fill="#FFB700"/>
<path d="M177.631 160.747C178.86 160.747 179.857 159.75 179.857 158.521C179.857 157.291 178.86 156.294 177.631 156.294C176.401 156.294 175.404 157.291 175.404 158.521C175.404 159.75 176.401 160.747 177.631 160.747Z" fill="#FFB700"/>
<path d="M359.433 143.02C360.891 143.02 362.072 141.839 362.072 140.382C362.072 138.924 360.891 137.743 359.433 137.743C357.976 137.743 356.795 138.924 356.795 140.382C356.795 141.839 357.976 143.02 359.433 143.02Z" fill="#FFB700"/>
<path d="M341.295 143.845C343.208 143.845 344.758 142.294 344.758 140.382C344.758 138.469 343.208 136.919 341.295 136.919C339.383 136.919 337.832 138.469 337.832 140.382C337.832 142.294 339.383 143.845 341.295 143.845Z" fill="#FFB700"/>
<path d="M323.073 143.432C324.758 143.432 326.123 142.066 326.123 140.381C326.123 138.697 324.758 137.331 323.073 137.331C321.388 137.331 320.022 138.697 320.022 140.381C320.022 142.066 321.388 143.432 323.073 143.432Z" fill="#FFB700"/>
<path d="M304.935 143.432C306.619 143.432 307.985 142.066 307.985 140.381C307.985 138.697 306.619 137.331 304.935 137.331C303.25 137.331 301.884 138.697 301.884 140.381C301.884 142.066 303.25 143.432 304.935 143.432Z" fill="#FFB700"/>
<path d="M286.711 143.02C288.168 143.02 289.349 141.839 289.349 140.382C289.349 138.924 288.168 137.743 286.711 137.743C285.254 137.743 284.072 138.924 284.072 140.382C284.072 141.839 285.254 143.02 286.711 143.02Z" fill="#FFB700"/>
<path d="M268.573 143.35C270.213 143.35 271.542 142.021 271.542 140.381C271.542 138.742 270.213 137.413 268.573 137.413C266.934 137.413 265.605 138.742 265.605 140.381C265.605 142.021 266.934 143.35 268.573 143.35Z" fill="#FFB700"/>
<path d="M250.351 143.185C251.9 143.185 253.154 141.93 253.154 140.382C253.154 138.833 251.9 137.578 250.351 137.578C248.803 137.578 247.548 138.833 247.548 140.382C247.548 141.93 248.803 143.185 250.351 143.185Z" fill="#FFB700"/>
<path d="M232.129 142.443C233.267 142.443 234.19 141.52 234.19 140.382C234.19 139.243 233.267 138.32 232.129 138.32C230.99 138.32 230.067 139.243 230.067 140.382C230.067 141.52 230.99 142.443 232.129 142.443Z" fill="#FFB700"/>
<path d="M213.99 143.02C215.447 143.02 216.629 141.839 216.629 140.382C216.629 138.924 215.447 137.743 213.99 137.743C212.533 137.743 211.353 138.924 211.353 140.382C211.353 141.839 212.533 143.02 213.99 143.02Z" fill="#FFB700"/>
<path d="M195.77 143.762C197.637 143.762 199.15 142.248 199.15 140.381C199.15 138.514 197.637 137.001 195.77 137.001C193.903 137.001 192.39 138.514 192.39 140.381C192.39 142.248 193.903 143.762 195.77 143.762Z" fill="#FFB700"/>
<path d="M177.63 142.773C178.95 142.773 180.021 141.702 180.021 140.382C180.021 139.061 178.95 137.991 177.63 137.991C176.309 137.991 175.238 139.061 175.238 140.382C175.238 141.702 176.309 142.773 177.63 142.773Z" fill="#FFB700"/>
<path d="M359.432 124.386C360.662 124.386 361.659 123.39 361.659 122.16C361.659 120.931 360.662 119.934 359.432 119.934C358.203 119.934 357.206 120.931 357.206 122.16C357.206 123.39 358.203 124.386 359.432 124.386Z" fill="#FFB700"/>
<path d="M341.295 125.458C343.117 125.458 344.593 123.982 344.593 122.16C344.593 120.339 343.117 118.862 341.295 118.862C339.474 118.862 337.997 120.339 337.997 122.16C337.997 123.982 339.474 125.458 341.295 125.458Z" fill="#FFB700"/>
<path d="M323.073 124.881C324.576 124.881 325.794 123.663 325.794 122.16C325.794 120.657 324.576 119.439 323.073 119.439C321.57 119.439 320.352 120.657 320.352 122.16C320.352 123.663 321.57 124.881 323.073 124.881Z" fill="#FFB700"/>
<path d="M304.934 124.798C306.392 124.798 307.572 123.617 307.572 122.16C307.572 120.703 306.392 119.522 304.934 119.522C303.477 119.522 302.296 120.703 302.296 122.16C302.296 123.617 303.477 124.798 304.934 124.798Z" fill="#FFB700"/>
<path d="M286.713 124.881C288.216 124.881 289.434 123.663 289.434 122.16C289.434 120.657 288.216 119.439 286.713 119.439C285.21 119.439 283.992 120.657 283.992 122.16C283.992 123.663 285.21 124.881 286.713 124.881Z" fill="#FFB700"/>
<path d="M268.574 124.881C270.077 124.881 271.295 123.663 271.295 122.16C271.295 120.657 270.077 119.439 268.574 119.439C267.072 119.439 265.854 120.657 265.854 122.16C265.854 123.663 267.072 124.881 268.574 124.881Z" fill="#FFB700"/>
<path d="M250.351 124.634C251.718 124.634 252.825 123.526 252.825 122.16C252.825 120.794 251.718 119.687 250.351 119.687C248.985 119.687 247.878 120.794 247.878 122.16C247.878 123.526 248.985 124.634 250.351 124.634Z" fill="#FFB700"/>
<path d="M232.131 125.54C233.998 125.54 235.512 124.027 235.512 122.16C235.512 120.293 233.998 118.78 232.131 118.78C230.264 118.78 228.751 120.293 228.751 122.16C228.751 124.027 230.264 125.54 232.131 125.54Z" fill="#FFB700"/>
<path d="M213.992 124.304C215.176 124.304 216.136 123.344 216.136 122.16C216.136 120.976 215.176 120.016 213.992 120.016C212.808 120.016 211.849 120.976 211.849 122.16C211.849 123.344 212.808 124.304 213.992 124.304Z" fill="#FFB700"/>
<path d="M195.769 124.634C197.135 124.634 198.243 123.526 198.243 122.16C198.243 120.794 197.135 119.687 195.769 119.687C194.403 119.687 193.296 120.794 193.296 122.16C193.296 123.526 194.403 124.634 195.769 124.634Z" fill="#FFB700"/>
<path d="M177.629 125.54C179.496 125.54 181.009 124.027 181.009 122.16C181.009 120.293 179.496 118.78 177.629 118.78C175.762 118.78 174.249 120.293 174.249 122.16C174.249 124.027 175.762 125.54 177.629 125.54Z" fill="#FFB700"/>
<path d="M359.433 106.824C360.981 106.824 362.236 105.569 362.236 104.021C362.236 102.473 360.981 101.218 359.433 101.218C357.884 101.218 356.629 102.473 356.629 104.021C356.629 105.569 357.884 106.824 359.433 106.824Z" fill="#FFB700"/>
<path d="M341.295 107.319C343.117 107.319 344.593 105.843 344.593 104.021C344.593 102.2 343.117 100.723 341.295 100.723C339.474 100.723 337.997 102.2 337.997 104.021C337.997 105.843 339.474 107.319 341.295 107.319Z" fill="#FFB700"/>
<path d="M323.074 106C324.167 106 325.052 105.114 325.052 104.021C325.052 102.928 324.167 102.042 323.074 102.042C321.981 102.042 321.095 102.928 321.095 104.021C321.095 105.114 321.981 106 323.074 106Z" fill="#FFB700"/>
<path d="M304.935 107.072C306.619 107.072 307.985 105.706 307.985 104.021C307.985 102.336 306.619 100.97 304.935 100.97C303.25 100.97 301.884 102.336 301.884 104.021C301.884 105.706 303.25 107.072 304.935 107.072Z" fill="#FFB700"/>
<path d="M286.71 107.072C288.395 107.072 289.761 105.706 289.761 104.021C289.761 102.336 288.395 100.97 286.71 100.97C285.025 100.97 283.659 102.336 283.659 104.021C283.659 105.706 285.025 107.072 286.71 107.072Z" fill="#FFB700"/>
<path d="M268.571 107.072C270.256 107.072 271.622 105.706 271.622 104.021C271.622 102.336 270.256 100.97 268.571 100.97C266.886 100.97 265.521 102.336 265.521 104.021C265.521 105.706 266.886 107.072 268.571 107.072Z" fill="#FFB700"/>
<path d="M250.351 106.824C251.9 106.824 253.154 105.569 253.154 104.021C253.154 102.473 251.9 101.218 250.351 101.218C248.803 101.218 247.548 102.473 247.548 104.021C247.548 105.569 248.803 106.824 250.351 106.824Z" fill="#FFB700"/>
<path d="M232.129 106.247C233.358 106.247 234.355 105.251 234.355 104.021C234.355 102.792 233.358 101.795 232.129 101.795C230.899 101.795 229.903 102.792 229.903 104.021C229.903 105.251 230.899 106.247 232.129 106.247Z" fill="#FFB700"/>
<path d="M213.99 107.896C216.13 107.896 217.865 106.161 217.865 104.021C217.865 101.881 216.13 100.146 213.99 100.146C211.85 100.146 210.115 101.881 210.115 104.021C210.115 106.161 211.85 107.896 213.99 107.896Z" fill="#FFB700"/>
<path d="M195.77 107.401C197.637 107.401 199.15 105.888 199.15 104.021C199.15 102.154 197.637 100.641 195.77 100.641C193.903 100.641 192.39 102.154 192.39 104.021C192.39 105.888 193.903 107.401 195.77 107.401Z" fill="#FFB700"/>
<path d="M177.632 106.907C179.226 106.907 180.518 105.615 180.518 104.021C180.518 102.427 179.226 101.135 177.632 101.135C176.038 101.135 174.746 102.427 174.746 104.021C174.746 105.615 176.038 106.907 177.632 106.907Z" fill="#FFB700"/>
<path d="M359.432 87.9434C360.616 87.9434 361.576 86.9835 361.576 85.7996C361.576 84.6157 360.616 83.656 359.432 83.656C358.249 83.656 357.289 84.6157 357.289 85.7996C357.289 86.9835 358.249 87.9434 359.432 87.9434Z" fill="#FFB700"/>
<path d="M341.295 88.2729C342.661 88.2729 343.768 87.1655 343.768 85.7994C343.768 84.4334 342.661 83.3259 341.295 83.3259C339.929 83.3259 338.821 84.4334 338.821 85.7994C338.821 87.1655 339.929 88.2729 341.295 88.2729Z" fill="#FFB700"/>
<path d="M323.073 88.5206C324.576 88.5206 325.794 87.3024 325.794 85.7998C325.794 84.2971 324.576 83.0789 323.073 83.0789C321.57 83.0789 320.352 84.2971 320.352 85.7998C320.352 87.3024 321.57 88.5206 323.073 88.5206Z" fill="#FFB700"/>
<path d="M304.933 89.0975C306.754 89.0975 308.231 87.6209 308.231 85.7995C308.231 83.978 306.754 82.5015 304.933 82.5015C303.111 82.5015 301.635 83.978 301.635 85.7995C301.635 87.6209 303.111 89.0975 304.933 89.0975Z" fill="#FFB700"/>
<path d="M286.712 89.0975C288.534 89.0975 290.01 87.6209 290.01 85.7995C290.01 83.978 288.534 82.5015 286.712 82.5015C284.891 82.5015 283.414 83.978 283.414 85.7995C283.414 87.6209 284.891 89.0975 286.712 89.0975Z" fill="#FFB700"/>
<path d="M268.573 89.1801C270.44 89.1801 271.954 87.6665 271.954 85.7995C271.954 83.9326 270.44 82.4192 268.573 82.4192C266.707 82.4192 265.193 83.9326 265.193 85.7995C265.193 87.6665 266.707 89.1801 268.573 89.1801Z" fill="#FFB700"/>
<path d="M250.351 88.2729C251.718 88.2729 252.825 87.1655 252.825 85.7994C252.825 84.4334 251.718 83.3259 250.351 83.3259C248.985 83.3259 247.878 84.4334 247.878 85.7994C247.878 87.1655 248.985 88.2729 250.351 88.2729Z" fill="#FFB700"/>
<path d="M232.129 87.8608C233.267 87.8608 234.19 86.9379 234.19 85.7995C234.19 84.6611 233.267 83.7383 232.129 83.7383C230.99 83.7383 230.067 84.6611 230.067 85.7995C230.067 86.9379 230.99 87.8608 232.129 87.8608Z" fill="#FFB700"/>
<path d="M213.99 89.6748C216.13 89.6748 217.865 87.9399 217.865 85.7997C217.865 83.6595 216.13 81.9246 213.99 81.9246C211.85 81.9246 210.115 83.6595 210.115 85.7997C210.115 87.9399 211.85 89.6748 213.99 89.6748Z" fill="#FFB700"/>
<path d="M195.769 88.2729C197.135 88.2729 198.243 87.1655 198.243 85.7994C198.243 84.4334 197.135 83.3259 195.769 83.3259C194.403 83.3259 193.296 84.4334 193.296 85.7994C193.296 87.1655 194.403 88.2729 195.769 88.2729Z" fill="#FFB700"/>
<path d="M177.629 89.1801C179.496 89.1801 181.009 87.6665 181.009 85.7995C181.009 83.9326 179.496 82.4192 177.629 82.4192C175.762 82.4192 174.249 83.9326 174.249 85.7995C174.249 87.6665 175.762 89.1801 177.629 89.1801Z" fill="#FFB700"/>
<path d="M359.434 71.0412C361.346 71.0412 362.897 69.4908 362.897 67.5783C362.897 65.6658 361.346 64.1152 359.434 64.1152C357.521 64.1152 355.971 65.6658 355.971 67.5783C355.971 69.4908 357.521 71.0412 359.434 71.0412Z" fill="#FFB700"/>
<path d="M341.295 70.8763C343.117 70.8763 344.593 69.3997 344.593 67.5783C344.593 65.7568 343.117 64.2803 341.295 64.2803C339.474 64.2803 337.997 65.7568 337.997 67.5783C337.997 69.3997 339.474 70.8763 341.295 70.8763Z" fill="#FFB700"/>
<path d="M323.074 69.557C324.167 69.557 325.052 68.6712 325.052 67.5783C325.052 66.4854 324.167 65.5994 323.074 65.5994C321.981 65.5994 321.095 66.4854 321.095 67.5783C321.095 68.6712 321.981 69.557 323.074 69.557Z" fill="#FFB700"/>
<path d="M304.933 70.8763C306.754 70.8763 308.231 69.3997 308.231 67.5783C308.231 65.7568 306.754 64.2803 304.933 64.2803C303.111 64.2803 301.635 65.7568 301.635 67.5783C301.635 69.3997 303.111 70.8763 304.933 70.8763Z" fill="#FFB700"/>
<path d="M286.713 71.5357C288.899 71.5357 290.671 69.764 290.671 67.5783C290.671 65.3925 288.899 63.6206 286.713 63.6206C284.528 63.6206 282.756 65.3925 282.756 67.5783C282.756 69.764 284.528 71.5357 286.713 71.5357Z" fill="#FFB700"/>
<path d="M268.573 70.9584C270.44 70.9584 271.954 69.445 271.954 67.578C271.954 65.7111 270.44 64.1975 268.573 64.1975C266.707 64.1975 265.193 65.7111 265.193 67.578C265.193 69.445 266.707 70.9584 268.573 70.9584Z" fill="#FFB700"/>
<path d="M250.351 71.5357C252.537 71.5357 254.308 69.764 254.308 67.5783C254.308 65.3925 252.537 63.6206 250.351 63.6206C248.165 63.6206 246.394 65.3925 246.394 67.5783C246.394 69.764 248.165 71.5357 250.351 71.5357Z" fill="#FFB700"/>
<path d="M232.131 71.5357C234.317 71.5357 236.09 69.764 236.09 67.5783C236.09 65.3925 234.317 63.6206 232.131 63.6206C229.946 63.6206 228.174 65.3925 228.174 67.5783C228.174 69.764 229.946 71.5357 232.131 71.5357Z" fill="#FFB700"/>
<path d="M213.992 71.7832C216.314 71.7832 218.197 69.9007 218.197 67.5783C218.197 65.256 216.314 63.3733 213.992 63.3733C211.669 63.3733 209.787 65.256 209.787 67.5783C209.787 69.9007 211.669 71.7832 213.992 71.7832Z" fill="#FFB700"/>
<path d="M195.77 70.4639C197.363 70.4639 198.655 69.1719 198.655 67.5781C198.655 65.9844 197.363 64.6924 195.77 64.6924C194.176 64.6924 192.884 65.9844 192.884 67.5781C192.884 69.1719 194.176 70.4639 195.77 70.4639Z" fill="#FFB700"/>
<path d="M177.629 71.2061C179.633 71.2061 181.257 69.5819 181.257 67.5784C181.257 65.5748 179.633 63.9504 177.629 63.9504C175.626 63.9504 174.001 65.5748 174.001 67.5784C174.001 69.5819 175.626 71.2061 177.629 71.2061Z" fill="#FFB700"/>
<path d="M177.63 35.1753C179.816 35.1753 181.588 33.4034 181.588 31.2177C181.588 29.0319 179.816 27.26 177.63 27.26C175.445 27.26 173.673 29.0319 173.673 31.2177C173.673 33.4034 175.445 35.1753 177.63 35.1753Z" fill="#FFB700"/>
<path d="M195.769 35.1753C197.955 35.1753 199.726 33.4034 199.726 31.2177C199.726 29.0319 197.955 27.26 195.769 27.26C193.583 27.26 191.812 29.0319 191.812 31.2177C191.812 33.4034 193.583 35.1753 195.769 35.1753Z" fill="#FFB700"/>
<path d="M213.992 35.4225C216.314 35.4225 218.197 33.5398 218.197 31.2175C218.197 28.8952 216.314 27.0125 213.992 27.0125C211.669 27.0125 209.787 28.8952 209.787 31.2175C209.787 33.5398 211.669 35.4225 213.992 35.4225Z" fill="#FFB700"/>
<path d="M232.129 34.1033C233.723 34.1033 235.015 32.8113 235.015 31.2175C235.015 29.6238 233.723 28.3318 232.129 28.3318C230.535 28.3318 229.243 29.6238 229.243 31.2175C229.243 32.8113 230.535 34.1033 232.129 34.1033Z" fill="#FFB700"/>
<path d="M250.353 34.8453C252.356 34.8453 253.98 33.2212 253.98 31.2176C253.98 29.214 252.356 27.5898 250.353 27.5898C248.349 27.5898 246.725 29.214 246.725 31.2176C246.725 33.2212 248.349 34.8453 250.353 34.8453Z" fill="#FFB700"/>
<path d="M268.574 33.9386C270.077 33.9386 271.295 32.7204 271.295 31.2177C271.295 29.715 270.077 28.4968 268.574 28.4968C267.072 28.4968 265.854 29.715 265.854 31.2177C265.854 32.7204 267.072 33.9386 268.574 33.9386Z" fill="#FFB700"/>
<path d="M286.712 34.1033C288.306 34.1033 289.598 32.8113 289.598 31.2175C289.598 29.6238 288.306 28.3318 286.712 28.3318C285.118 28.3318 283.826 29.6238 283.826 31.2175C283.826 32.8113 285.118 34.1033 286.712 34.1033Z" fill="#FFB700"/>
<path d="M304.934 35.5877C307.347 35.5877 309.304 33.6312 309.304 31.2178C309.304 28.8044 307.347 26.8479 304.934 26.8479C302.521 26.8479 300.563 28.8044 300.563 31.2178C300.563 33.6312 302.521 35.5877 304.934 35.5877Z" fill="#FFB700"/>
<path d="M323.072 34.7632C325.03 34.7632 326.618 33.1758 326.618 31.2178C326.618 29.2597 325.03 27.6724 323.072 27.6724C321.114 27.6724 319.526 29.2597 319.526 31.2178C319.526 33.1758 321.114 34.7632 323.072 34.7632Z" fill="#FFB700"/>
<path d="M341.294 35.34C343.571 35.34 345.417 33.4943 345.417 31.2175C345.417 28.9407 343.571 27.095 341.294 27.095C339.018 27.095 337.172 28.9407 337.172 31.2175C337.172 33.4943 339.018 35.34 341.294 35.34Z" fill="#FFB700"/>
<path d="M359.432 35.0104C361.527 35.0104 363.224 33.3122 363.224 31.2176C363.224 29.1229 361.527 27.4248 359.432 27.4248C357.337 27.4248 355.64 29.1229 355.64 31.2176C355.64 33.3122 357.337 35.0104 359.432 35.0104Z" fill="#FFB700"/>
<path d="M213.991 17.7781C216.587 17.7781 218.691 15.6741 218.691 13.0785C218.691 10.483 216.587 8.37891 213.991 8.37891C211.395 8.37891 209.292 10.483 209.292 13.0785C209.292 15.6741 211.395 17.7781 213.991 17.7781Z" fill="#FFB700"/>
<path d="M232.13 17.4483C234.544 17.4483 236.501 15.4918 236.501 13.0784C236.501 10.665 234.544 8.7085 232.13 8.7085C229.717 8.7085 227.761 10.665 227.761 13.0784C227.761 15.4918 229.717 17.4483 232.13 17.4483Z" fill="#FFB700"/>
<path d="M250.351 17.4483C252.765 17.4483 254.721 15.4918 254.721 13.0784C254.721 10.665 252.765 8.7085 250.351 8.7085C247.938 8.7085 245.981 10.665 245.981 13.0784C245.981 15.4918 247.938 17.4483 250.351 17.4483Z" fill="#FFB700"/>
<path d="M268.572 17.2011C270.849 17.2011 272.694 15.3554 272.694 13.0786C272.694 10.8018 270.849 8.95605 268.572 8.95605C266.295 8.95605 264.449 10.8018 264.449 13.0786C264.449 15.3554 266.295 17.2011 268.572 17.2011Z" fill="#FFB700"/>
<path d="M286.711 17.7781C289.306 17.7781 291.41 15.6741 291.41 13.0785C291.41 10.483 289.306 8.37891 286.711 8.37891C284.115 8.37891 282.011 10.483 282.011 13.0785C282.011 15.6741 284.115 17.7781 286.711 17.7781Z" fill="#FFB700"/>
<path d="M304.934 17.4483C307.347 17.4483 309.304 15.4918 309.304 13.0784C309.304 10.665 307.347 8.7085 304.934 8.7085C302.521 8.7085 300.563 10.665 300.563 13.0784C300.563 15.4918 302.521 17.4483 304.934 17.4483Z" fill="#FFB700"/>
<path d="M323.072 16.8715C325.166 16.8715 326.864 15.1733 326.864 13.0787C326.864 10.984 325.166 9.28589 323.072 9.28589C320.977 9.28589 319.278 10.984 319.278 13.0787C319.278 15.1733 320.977 16.8715 323.072 16.8715Z" fill="#FFB700"/>
<path d="M341.294 17.2011C343.571 17.2011 345.417 15.3554 345.417 13.0786C345.417 10.8018 343.571 8.95605 341.294 8.95605C339.018 8.95605 337.172 10.8018 337.172 13.0786C337.172 15.3554 339.018 17.2011 341.294 17.2011Z" fill="#FFB700"/>
<path d="M359.434 17.4483C361.848 17.4483 363.804 15.4918 363.804 13.0784C363.804 10.665 361.848 8.7085 359.434 8.7085C357.021 8.7085 355.064 10.665 355.064 13.0784C355.064 15.4918 357.021 17.4483 359.434 17.4483Z" fill="#FFB700"/>
<path d="M177.63 53.3968C179.816 53.3968 181.588 51.6251 181.588 49.4393C181.588 47.2536 179.816 45.4817 177.63 45.4817C175.445 45.4817 173.673 47.2536 173.673 49.4393C173.673 51.6251 175.445 53.3968 177.63 53.3968Z" fill="#FFB700"/>
<path d="M195.769 53.3968C197.955 53.3968 199.726 51.6251 199.726 49.4393C199.726 47.2536 197.955 45.4817 195.769 45.4817C193.583 45.4817 191.812 47.2536 191.812 49.4393C191.812 51.6251 193.583 53.3968 195.769 53.3968Z" fill="#FFB700"/>
<path d="M213.992 53.644C216.314 53.644 218.197 51.7615 218.197 49.4392C218.197 47.1168 216.314 45.2341 213.992 45.2341C211.669 45.2341 209.787 47.1168 209.787 49.4392C209.787 51.7615 211.669 53.644 213.992 53.644Z" fill="#FFB700"/>
<path d="M232.129 52.325C233.723 52.325 235.015 51.033 235.015 49.4392C235.015 47.8455 233.723 46.5535 232.129 46.5535C230.535 46.5535 229.243 47.8455 229.243 49.4392C229.243 51.033 230.535 52.325 232.129 52.325Z" fill="#FFB700"/>
<path d="M250.353 53.0669C252.356 53.0669 253.98 51.4428 253.98 49.4392C253.98 47.4356 252.356 45.8113 250.353 45.8113C248.349 45.8113 246.725 47.4356 246.725 49.4392C246.725 51.4428 248.349 53.0669 250.353 53.0669Z" fill="#FFB700"/>
<path d="M268.574 52.1599C270.077 52.1599 271.295 50.9418 271.295 49.4392C271.295 47.9365 270.077 46.7183 268.574 46.7183C267.072 46.7183 265.854 47.9365 265.854 49.4392C265.854 50.9418 267.072 52.1599 268.574 52.1599Z" fill="#FFB700"/>
<path d="M286.712 52.325C288.306 52.325 289.598 51.033 289.598 49.4392C289.598 47.8455 288.306 46.5535 286.712 46.5535C285.118 46.5535 283.826 47.8455 283.826 49.4392C283.826 51.033 285.118 52.325 286.712 52.325Z" fill="#FFB700"/>
<path d="M304.934 53.8089C307.347 53.8089 309.304 51.8526 309.304 49.4392C309.304 47.0258 307.347 45.0693 304.934 45.0693C302.521 45.0693 300.563 47.0258 300.563 49.4392C300.563 51.8526 302.521 53.8089 304.934 53.8089Z" fill="#FFB700"/>
<path d="M323.072 52.9844C325.03 52.9844 326.618 51.3972 326.618 49.4392C326.618 47.4811 325.03 45.8938 323.072 45.8938C321.114 45.8938 319.526 47.4811 319.526 49.4392C319.526 51.3972 321.114 52.9844 323.072 52.9844Z" fill="#FFB700"/>
<path d="M341.294 53.5617C343.571 53.5617 345.417 51.716 345.417 49.4392C345.417 47.1624 343.571 45.3167 341.294 45.3167C339.018 45.3167 337.172 47.1624 337.172 49.4392C337.172 51.716 339.018 53.5617 341.294 53.5617Z" fill="#FFB700"/>
<path d="M359.432 53.2316C361.527 53.2316 363.224 51.5337 363.224 49.439C363.224 47.3444 361.527 45.6462 359.432 45.6462C357.337 45.6462 355.64 47.3444 355.64 49.439C355.64 51.5337 357.337 53.2316 359.432 53.2316Z" fill="#FFB700"/>
<path d="M141.187 17.7781C143.783 17.7781 145.887 15.6741 145.887 13.0785C145.887 10.483 143.783 8.37891 141.187 8.37891C138.592 8.37891 136.487 10.483 136.487 13.0785C136.487 15.6741 138.592 17.7781 141.187 17.7781Z" fill="#FFB700"/>
<path d="M159.409 17.4483C161.822 17.4483 163.778 15.4918 163.778 13.0784C163.778 10.665 161.822 8.7085 159.409 8.7085C156.995 8.7085 155.038 10.665 155.038 13.0784C155.038 15.4918 156.995 17.4483 159.409 17.4483Z" fill="#FFB700"/>
<path d="M177.63 17.4483C180.044 17.4483 182 15.4918 182 13.0784C182 10.665 180.044 8.7085 177.63 8.7085C175.217 8.7085 173.261 10.665 173.261 13.0784C173.261 15.4918 175.217 17.4483 177.63 17.4483Z" fill="#FFB700"/>
<path d="M195.77 17.2011C198.047 17.2011 199.892 15.3554 199.892 13.0786C199.892 10.8018 198.047 8.95605 195.77 8.95605C193.493 8.95605 191.647 10.8018 191.647 13.0786C191.647 15.3554 193.493 17.2011 195.77 17.2011Z" fill="#FFB700"/>
<path d="M123.047 17.7781C125.643 17.7781 127.747 15.6741 127.747 13.0785C127.747 10.483 125.643 8.37891 123.047 8.37891C120.452 8.37891 118.348 10.483 118.348 13.0785C118.348 15.6741 120.452 17.7781 123.047 17.7781Z" fill="#FFB700"/>
<path d="M104.826 17.4483C107.239 17.4483 109.195 15.4918 109.195 13.0784C109.195 10.665 107.239 8.7085 104.826 8.7085C102.412 8.7085 100.456 10.665 100.456 13.0784C100.456 15.4918 102.412 17.4483 104.826 17.4483Z" fill="#FFB700"/>
<path d="M86.6871 17.4483C89.1005 17.4483 91.0568 15.4918 91.0568 13.0784C91.0568 10.665 89.1005 8.7085 86.6871 8.7085C84.2737 8.7085 82.3174 10.665 82.3174 13.0784C82.3174 15.4918 84.2737 17.4483 86.6871 17.4483Z" fill="#FFB700"/>
<path d="M68.4653 17.2011C70.7421 17.2011 72.5878 15.3554 72.5878 13.0786C72.5878 10.8018 70.7421 8.95605 68.4653 8.95605C66.1885 8.95605 64.3428 10.8018 64.3428 13.0786C64.3428 15.3554 66.1885 17.2011 68.4653 17.2011Z" fill="#FFB700"/>
<path d="M50.3269 17.7781C52.9225 17.7781 55.0268 15.6741 55.0268 13.0785C55.0268 10.483 52.9225 8.37891 50.3269 8.37891C47.7314 8.37891 45.6279 10.483 45.6279 13.0785C45.6279 15.6741 47.7314 17.7781 50.3269 17.7781Z" fill="#FFB700"/>
<path d="M32.106 17.4483C34.5194 17.4483 36.4757 15.4918 36.4757 13.0784C36.4757 10.665 34.5194 8.7085 32.106 8.7085C29.6926 8.7085 27.7363 10.665 27.7363 13.0784C27.7363 15.4918 29.6926 17.4483 32.106 17.4483Z" fill="#FFB700"/>
<path d="M13.886 16.8715C15.9806 16.8715 17.6783 15.1733 17.6783 13.0787C17.6783 10.984 15.9806 9.28589 13.886 9.28589C11.7913 9.28589 10.0928 10.984 10.0928 13.0787C10.0928 15.1733 11.7913 16.8715 13.886 16.8715Z" fill="#FFB700"/>
<path d="M50.3289 215.246C51.5129 215.246 52.4731 214.287 52.4731 213.103C52.4731 211.919 51.5129 210.959 50.3289 210.959C49.145 210.959 48.1855 211.919 48.1855 213.103C48.1855 214.287 49.145 215.246 50.3289 215.246Z" fill="#FFB700"/>
<path d="M104.829 214.917C105.831 214.917 106.643 214.105 106.643 213.103C106.643 212.101 105.831 211.289 104.829 211.289C103.827 211.289 103.015 212.101 103.015 213.103C103.015 214.105 103.827 214.917 104.829 214.917Z" fill="#FFB700"/>
<path d="M123.05 215.164C124.188 215.164 125.111 214.241 125.111 213.103C125.111 211.964 124.188 211.042 123.05 211.042C121.911 211.042 120.988 211.964 120.988 213.103C120.988 214.241 121.911 215.164 123.05 215.164Z" fill="#FFB700"/>
<path d="M141.187 215.164C142.326 215.164 143.248 214.241 143.248 213.103C143.248 211.964 142.326 211.042 141.187 211.042C140.049 211.042 139.126 211.964 139.126 213.103C139.126 214.241 140.049 215.164 141.187 215.164Z" fill="#FFB700"/>
<path d="M159.41 214.917C160.412 214.917 161.223 214.105 161.223 213.103C161.223 212.101 160.412 211.289 159.41 211.289C158.408 211.289 157.596 212.101 157.596 213.103C157.596 214.105 158.408 214.917 159.41 214.917Z" fill="#FFB700"/>
<path d="M32.1055 197.602C33.6081 197.602 34.8262 196.384 34.8262 194.881C34.8262 193.378 33.6081 192.16 32.1055 192.16C30.6028 192.16 29.3848 193.378 29.3848 194.881C29.3848 196.384 30.6028 197.602 32.1055 197.602Z" fill="#FFB700"/>
<path d="M50.3267 196.53C51.2375 196.53 51.9757 195.792 51.9757 194.881C51.9757 193.97 51.2375 193.232 50.3267 193.232C49.416 193.232 48.6777 193.97 48.6777 194.881C48.6777 195.792 49.416 196.53 50.3267 196.53Z" fill="#FFB700"/>
<path d="M68.4677 197.437C69.8794 197.437 71.0242 196.293 71.0242 194.881C71.0242 193.47 69.8794 192.325 68.4677 192.325C67.0561 192.325 65.9121 193.47 65.9121 194.881C65.9121 196.293 67.0561 197.437 68.4677 197.437Z" fill="#FFB700"/>
<path d="M86.6882 196.942C87.8266 196.942 88.7495 196.019 88.7495 194.881C88.7495 193.743 87.8266 192.82 86.6882 192.82C85.5498 192.82 84.627 193.743 84.627 194.881C84.627 196.019 85.5498 196.942 86.6882 196.942Z" fill="#FFB700"/>
<path d="M104.826 196.365C105.645 196.365 106.31 195.701 106.31 194.881C106.31 194.061 105.645 193.397 104.826 193.397C104.006 193.397 103.342 194.061 103.342 194.881C103.342 195.701 104.006 196.365 104.826 196.365Z" fill="#FFB700"/>
<path d="M123.047 197.52C124.504 197.52 125.685 196.338 125.685 194.881C125.685 193.424 124.504 192.243 123.047 192.243C121.59 192.243 120.408 193.424 120.408 194.881C120.408 196.338 121.59 197.52 123.047 197.52Z" fill="#FFB700"/>
<path d="M141.187 196.942C142.326 196.942 143.248 196.019 143.248 194.881C143.248 193.743 142.326 192.82 141.187 192.82C140.049 192.82 139.126 193.743 139.126 194.881C139.126 196.019 140.049 196.942 141.187 196.942Z" fill="#FFB700"/>
<path d="M159.41 196.695C160.412 196.695 161.223 195.883 161.223 194.881C161.223 193.879 160.412 193.067 159.41 193.067C158.408 193.067 157.596 193.879 157.596 194.881C157.596 195.883 158.408 196.695 159.41 196.695Z" fill="#FFB700"/>
<path d="M13.8854 178.721C14.9782 178.721 15.8637 177.835 15.8637 176.742C15.8637 175.649 14.9782 174.763 13.8854 174.763C12.7925 174.763 11.9062 175.649 11.9062 176.742C11.9062 177.835 12.7925 178.721 13.8854 178.721Z" fill="#FFB700"/>
<path d="M32.1051 178.721C33.198 178.721 34.0842 177.835 34.0842 176.742C34.0842 175.649 33.198 174.763 32.1051 174.763C31.0122 174.763 30.126 175.649 30.126 176.742C30.126 177.835 31.0122 178.721 32.1051 178.721Z" fill="#FFB700"/>
<path d="M50.3269 178.556C51.3287 178.556 52.141 177.744 52.141 176.742C52.141 175.74 51.3287 174.928 50.3269 174.928C49.3251 174.928 48.5137 175.74 48.5137 176.742C48.5137 177.744 49.3251 178.556 50.3269 178.556Z" fill="#FFB700"/>
<path d="M68.4677 179.298C69.8794 179.298 71.0242 178.154 71.0242 176.742C71.0242 175.33 69.8794 174.186 68.4677 174.186C67.0561 174.186 65.9121 175.33 65.9121 176.742C65.9121 178.154 67.0561 179.298 68.4677 179.298Z" fill="#FFB700"/>
<path d="M86.6891 178.556C87.6909 178.556 88.5031 177.744 88.5031 176.742C88.5031 175.74 87.6909 174.928 86.6891 174.928C85.6873 174.928 84.875 175.74 84.875 176.742C84.875 177.744 85.6873 178.556 86.6891 178.556Z" fill="#FFB700"/>
<path d="M104.829 178.556C105.831 178.556 106.643 177.744 106.643 176.742C106.643 175.74 105.831 174.928 104.829 174.928C103.827 174.928 103.015 175.74 103.015 176.742C103.015 177.744 103.827 178.556 104.829 178.556Z" fill="#FFB700"/>
<path d="M123.049 178.226C123.869 178.226 124.533 177.562 124.533 176.742C124.533 175.922 123.869 175.258 123.049 175.258C122.23 175.258 121.565 175.922 121.565 176.742C121.565 177.562 122.23 178.226 123.049 178.226Z" fill="#FFB700"/>
<path d="M141.187 178.968C142.417 178.968 143.414 177.972 143.414 176.742C143.414 175.513 142.417 174.516 141.187 174.516C139.958 174.516 138.961 175.513 138.961 176.742C138.961 177.972 139.958 178.968 141.187 178.968Z" fill="#FFB700"/>
<path d="M159.41 178.556C160.412 178.556 161.223 177.744 161.223 176.742C161.223 175.74 160.412 174.928 159.41 174.928C158.408 174.928 157.596 175.74 157.596 176.742C157.596 177.744 158.408 178.556 159.41 178.556Z" fill="#FFB700"/>
<path d="M13.8854 160.5C14.9782 160.5 15.8637 159.614 15.8637 158.521C15.8637 157.428 14.9782 156.542 13.8854 156.542C12.7925 156.542 11.9062 157.428 11.9062 158.521C11.9062 159.614 12.7925 160.5 13.8854 160.5Z" fill="#FFB700"/>
<path d="M32.1051 160.335C33.1069 160.335 33.9191 159.522 33.9191 158.521C33.9191 157.519 33.1069 156.707 32.1051 156.707C31.1033 156.707 30.291 157.519 30.291 158.521C30.291 159.522 31.1033 160.335 32.1051 160.335Z" fill="#FFB700"/>
<path d="M50.3262 161.159C51.7834 161.159 52.9648 159.978 52.9648 158.52C52.9648 157.063 51.7834 155.882 50.3262 155.882C48.8691 155.882 47.6885 157.063 47.6885 158.52C47.6885 159.978 48.8691 161.159 50.3262 161.159Z" fill="#FFB700"/>
<path d="M68.4665 160.087C69.3316 160.087 70.0333 159.386 70.0333 158.521C70.0333 157.655 69.3316 156.954 68.4665 156.954C67.6013 156.954 66.9004 157.655 66.9004 158.521C66.9004 159.386 67.6013 160.087 68.4665 160.087Z" fill="#FFB700"/>
<path d="M86.6882 160.582C87.8266 160.582 88.7495 159.659 88.7495 158.52C88.7495 157.382 87.8266 156.459 86.6882 156.459C85.5498 156.459 84.627 157.382 84.627 158.52C84.627 159.659 85.5498 160.582 86.6882 160.582Z" fill="#FFB700"/>
<path d="M104.828 160.582C105.966 160.582 106.889 159.659 106.889 158.52C106.889 157.382 105.966 156.459 104.828 156.459C103.689 156.459 102.767 157.382 102.767 158.52C102.767 159.659 103.689 160.582 104.828 160.582Z" fill="#FFB700"/>
<path d="M123.048 160.747C124.277 160.747 125.274 159.75 125.274 158.521C125.274 157.291 124.277 156.294 123.048 156.294C121.818 156.294 120.821 157.291 120.821 158.521C120.821 159.75 121.818 160.747 123.048 160.747Z" fill="#FFB700"/>
<path d="M141.187 160.747C142.417 160.747 143.414 159.75 143.414 158.521C143.414 157.291 142.417 156.294 141.187 156.294C139.958 156.294 138.961 157.291 138.961 158.521C138.961 159.75 139.958 160.747 141.187 160.747Z" fill="#FFB700"/>
<path d="M159.41 160.747C160.639 160.747 161.635 159.75 161.635 158.521C161.635 157.291 160.639 156.294 159.41 156.294C158.18 156.294 157.184 157.291 157.184 158.521C157.184 159.75 158.18 160.747 159.41 160.747Z" fill="#FFB700"/>
<path d="M13.8848 143.432C15.5696 143.432 16.9348 142.066 16.9348 140.381C16.9348 138.697 15.5696 137.331 13.8848 137.331C12.2 137.331 10.834 138.697 10.834 140.381C10.834 142.066 12.2 143.432 13.8848 143.432Z" fill="#FFB700"/>
<path d="M32.1065 143.432C33.7913 143.432 35.1573 142.066 35.1573 140.381C35.1573 138.697 33.7913 137.331 32.1065 137.331C30.4216 137.331 29.0557 138.697 29.0557 140.381C29.0557 142.066 30.4216 143.432 32.1065 143.432Z" fill="#FFB700"/>
<path d="M50.3262 143.02C51.7834 143.02 52.9648 141.839 52.9648 140.382C52.9648 138.924 51.7834 137.743 50.3262 137.743C48.8691 137.743 47.6885 138.924 47.6885 140.382C47.6885 141.839 48.8691 143.02 50.3262 143.02Z" fill="#FFB700"/>
<path d="M68.4679 143.35C70.1072 143.35 71.4366 142.021 71.4366 140.381C71.4366 138.742 70.1072 137.413 68.4679 137.413C66.8286 137.413 65.5 138.742 65.5 140.381C65.5 142.021 66.8286 143.35 68.4679 143.35Z" fill="#FFB700"/>
<path d="M86.6874 143.185C88.2356 143.185 89.4902 141.93 89.4902 140.382C89.4902 138.833 88.2356 137.578 86.6874 137.578C85.1392 137.578 83.8838 138.833 83.8838 140.382C83.8838 141.93 85.1392 143.185 86.6874 143.185Z" fill="#FFB700"/>
<path d="M104.828 142.443C105.966 142.443 106.889 141.52 106.889 140.382C106.889 139.243 105.966 138.32 104.828 138.32C103.689 138.32 102.767 139.243 102.767 140.382C102.767 141.52 103.689 142.443 104.828 142.443Z" fill="#FFB700"/>
<path d="M123.047 143.02C124.504 143.02 125.685 141.839 125.685 140.382C125.685 138.924 124.504 137.743 123.047 137.743C121.59 137.743 120.408 138.924 120.408 140.382C120.408 141.839 121.59 143.02 123.047 143.02Z" fill="#FFB700"/>
<path d="M141.187 143.762C143.054 143.762 144.568 142.248 144.568 140.381C144.568 138.514 143.054 137.001 141.187 137.001C139.32 137.001 137.807 138.514 137.807 140.381C137.807 142.248 139.32 143.762 141.187 143.762Z" fill="#FFB700"/>
<path d="M159.411 142.773C160.731 142.773 161.801 141.702 161.801 140.382C161.801 139.061 160.731 137.991 159.411 137.991C158.09 137.991 157.02 139.061 157.02 140.382C157.02 141.702 158.09 142.773 159.411 142.773Z" fill="#FFB700"/>
<path d="M13.8846 124.881C15.3873 124.881 16.6053 123.663 16.6053 122.16C16.6053 120.657 15.3873 119.439 13.8846 119.439C12.3819 119.439 11.1631 120.657 11.1631 122.16C11.1631 123.663 12.3819 124.881 13.8846 124.881Z" fill="#FFB700"/>
<path d="M32.1063 124.798C33.5635 124.798 34.7449 123.617 34.7449 122.16C34.7449 120.703 33.5635 119.522 32.1063 119.522C30.6492 119.522 29.4678 120.703 29.4678 122.16C29.4678 123.617 30.6492 124.798 32.1063 124.798Z" fill="#FFB700"/>
<path d="M50.3271 124.881C51.8298 124.881 53.0486 123.663 53.0486 122.16C53.0486 120.657 51.8298 119.439 50.3271 119.439C48.8245 119.439 47.6064 120.657 47.6064 122.16C47.6064 123.663 48.8245 124.881 50.3271 124.881Z" fill="#FFB700"/>
<path d="M68.4668 124.881C69.9695 124.881 71.1883 123.663 71.1883 122.16C71.1883 120.657 69.9695 119.439 68.4668 119.439C66.9641 119.439 65.7461 120.657 65.7461 122.16C65.7461 123.663 66.9641 124.881 68.4668 124.881Z" fill="#FFB700"/>
<path d="M86.6883 124.634C88.0544 124.634 89.1619 123.526 89.1619 122.16C89.1619 120.794 88.0544 119.687 86.6883 119.687C85.3223 119.687 84.2148 120.794 84.2148 122.16C84.2148 123.526 85.3223 124.634 86.6883 124.634Z" fill="#FFB700"/>
<path d="M104.826 125.54C106.693 125.54 108.206 124.027 108.206 122.16C108.206 120.293 106.693 118.78 104.826 118.78C102.959 118.78 101.445 120.293 101.445 122.16C101.445 124.027 102.959 125.54 104.826 125.54Z" fill="#FFB700"/>
<path d="M123.048 124.304C124.232 124.304 125.192 123.344 125.192 122.16C125.192 120.976 124.232 120.016 123.048 120.016C121.864 120.016 120.904 120.976 120.904 122.16C120.904 123.344 121.864 124.304 123.048 124.304Z" fill="#FFB700"/>
<path d="M141.187 124.634C142.553 124.634 143.661 123.526 143.661 122.16C143.661 120.794 142.553 119.687 141.187 119.687C139.821 119.687 138.714 120.794 138.714 122.16C138.714 123.526 139.821 124.634 141.187 124.634Z" fill="#FFB700"/>
<path d="M159.408 125.54C161.275 125.54 162.788 124.027 162.788 122.16C162.788 120.293 161.275 118.78 159.408 118.78C157.541 118.78 156.027 120.293 156.027 122.16C156.027 124.027 157.541 125.54 159.408 125.54Z" fill="#FFB700"/>
<path d="M13.8854 106C14.9782 106 15.8637 105.114 15.8637 104.021C15.8637 102.928 14.9782 102.042 13.8854 102.042C12.7925 102.042 11.9062 102.928 11.9062 104.021C11.9062 105.114 12.7925 106 13.8854 106Z" fill="#FFB700"/>
<path d="M32.1065 107.072C33.7913 107.072 35.1573 105.706 35.1573 104.021C35.1573 102.336 33.7913 100.97 32.1065 100.97C30.4216 100.97 29.0557 102.336 29.0557 104.021C29.0557 105.706 30.4216 107.072 32.1065 107.072Z" fill="#FFB700"/>
<path d="M50.3264 107.072C52.0112 107.072 53.3772 105.706 53.3772 104.021C53.3772 102.336 52.0112 100.97 50.3264 100.97C48.6415 100.97 47.2764 102.336 47.2764 104.021C47.2764 105.706 48.6415 107.072 50.3264 107.072Z" fill="#FFB700"/>
<path d="M68.465 107.072C70.1499 107.072 71.5159 105.706 71.5159 104.021C71.5159 102.336 70.1499 100.97 68.465 100.97C66.7802 100.97 65.415 102.336 65.415 104.021C65.415 105.706 66.7802 107.072 68.465 107.072Z" fill="#FFB700"/>
<path d="M86.6874 106.824C88.2356 106.824 89.4902 105.569 89.4902 104.021C89.4902 102.473 88.2356 101.218 86.6874 101.218C85.1392 101.218 83.8838 102.473 83.8838 104.021C83.8838 105.569 85.1392 106.824 86.6874 106.824Z" fill="#FFB700"/>
<path d="M104.829 106.247C106.058 106.247 107.055 105.251 107.055 104.021C107.055 102.792 106.058 101.795 104.829 101.795C103.599 101.795 102.603 102.792 102.603 104.021C102.603 105.251 103.599 106.247 104.829 106.247Z" fill="#FFB700"/>
<path d="M123.048 107.896C125.188 107.896 126.923 106.161 126.923 104.021C126.923 101.881 125.188 100.146 123.048 100.146C120.908 100.146 119.173 101.881 119.173 104.021C119.173 106.161 120.908 107.896 123.048 107.896Z" fill="#FFB700"/>
<path d="M141.187 107.401C143.054 107.401 144.568 105.888 144.568 104.021C144.568 102.154 143.054 100.641 141.187 100.641C139.32 100.641 137.807 102.154 137.807 104.021C137.807 105.888 139.32 107.401 141.187 107.401Z" fill="#FFB700"/>
<path d="M159.409 106.907C161.003 106.907 162.295 105.615 162.295 104.021C162.295 102.427 161.003 101.135 159.409 101.135C157.815 101.135 156.523 102.427 156.523 104.021C156.523 105.615 157.815 106.907 159.409 106.907Z" fill="#FFB700"/>
<path d="M13.8846 88.5206C15.3873 88.5206 16.6053 87.3024 16.6053 85.7998C16.6053 84.2971 15.3873 83.0789 13.8846 83.0789C12.3819 83.0789 11.1631 84.2971 11.1631 85.7998C11.1631 87.3024 12.3819 88.5206 13.8846 88.5206Z" fill="#FFB700"/>
<path d="M32.1066 89.0975C33.928 89.0975 35.4046 87.6209 35.4046 85.7995C35.4046 83.978 33.928 82.5015 32.1066 82.5015C30.2852 82.5015 28.8086 83.978 28.8086 85.7995C28.8086 87.6209 30.2852 89.0975 32.1066 89.0975Z" fill="#FFB700"/>
<path d="M50.3273 89.0975C52.1487 89.0975 53.6253 87.6209 53.6253 85.7995C53.6253 83.978 52.1487 82.5015 50.3273 82.5015C48.5059 82.5015 47.0293 83.978 47.0293 85.7995C47.0293 87.6209 48.5059 89.0975 50.3273 89.0975Z" fill="#FFB700"/>
<path d="M68.468 89.1801C70.335 89.1801 71.849 87.6665 71.849 85.7995C71.849 83.9326 70.335 82.4192 68.468 82.4192C66.6011 82.4192 65.0879 83.9326 65.0879 85.7995C65.0879 87.6665 66.6011 89.1801 68.468 89.1801Z" fill="#FFB700"/>
<path d="M86.6883 88.2729C88.0544 88.2729 89.1619 87.1655 89.1619 85.7994C89.1619 84.4334 88.0544 83.3259 86.6883 83.3259C85.3223 83.3259 84.2148 84.4334 84.2148 85.7994C84.2148 87.1655 85.3223 88.2729 86.6883 88.2729Z" fill="#FFB700"/>
<path d="M104.828 87.8608C105.966 87.8608 106.889 86.9379 106.889 85.7995C106.889 84.6611 105.966 83.7383 104.828 83.7383C103.689 83.7383 102.767 84.6611 102.767 85.7995C102.767 86.9379 103.689 87.8608 104.828 87.8608Z" fill="#FFB700"/>
<path d="M123.048 89.6748C125.188 89.6748 126.923 87.9399 126.923 85.7997C126.923 83.6595 125.188 81.9246 123.048 81.9246C120.908 81.9246 119.173 83.6595 119.173 85.7997C119.173 87.9399 120.908 89.6748 123.048 89.6748Z" fill="#FFB700"/>
<path d="M141.187 88.2729C142.553 88.2729 143.661 87.1655 143.661 85.7994C143.661 84.4334 142.553 83.3259 141.187 83.3259C139.821 83.3259 138.714 84.4334 138.714 85.7994C138.714 87.1655 139.821 88.2729 141.187 88.2729Z" fill="#FFB700"/>
<path d="M159.408 89.1801C161.275 89.1801 162.788 87.6665 162.788 85.7995C162.788 83.9326 161.275 82.4192 159.408 82.4192C157.541 82.4192 156.027 83.9326 156.027 85.7995C156.027 87.6665 157.541 89.1801 159.408 89.1801Z" fill="#FFB700"/>
<path d="M13.8854 69.557C14.9782 69.557 15.8637 68.6712 15.8637 67.5783C15.8637 66.4854 14.9782 65.5994 13.8854 65.5994C12.7925 65.5994 11.9062 66.4854 11.9062 67.5783C11.9062 68.6712 12.7925 69.557 13.8854 69.557Z" fill="#FFB700"/>
<path d="M32.1066 70.8763C33.928 70.8763 35.4046 69.3997 35.4046 67.5783C35.4046 65.7568 33.928 64.2803 32.1066 64.2803C30.2852 64.2803 28.8086 65.7568 28.8086 67.5783C28.8086 69.3997 30.2852 70.8763 32.1066 70.8763Z" fill="#FFB700"/>
<path d="M50.3266 71.5357C52.5123 71.5357 54.2848 69.764 54.2848 67.5783C54.2848 65.3925 52.5123 63.6206 50.3266 63.6206C48.1409 63.6206 46.3691 65.3925 46.3691 67.5783C46.3691 69.764 48.1409 71.5357 50.3266 71.5357Z" fill="#FFB700"/>
<path d="M68.468 70.9584C70.335 70.9584 71.849 69.445 71.849 67.578C71.849 65.7111 70.335 64.1975 68.468 64.1975C66.6011 64.1975 65.0879 65.7111 65.0879 67.578C65.0879 69.445 66.6011 70.9584 68.468 70.9584Z" fill="#FFB700"/>
<path d="M86.6879 71.5357C88.8736 71.5357 90.6454 69.764 90.6454 67.5783C90.6454 65.3925 88.8736 63.6206 86.6879 63.6206C84.5022 63.6206 82.7305 65.3925 82.7305 67.5783C82.7305 69.764 84.5022 71.5357 86.6879 71.5357Z" fill="#FFB700"/>
<path d="M104.826 71.5357C107.011 71.5357 108.783 69.764 108.783 67.5783C108.783 65.3925 107.011 63.6206 104.826 63.6206C102.64 63.6206 100.868 65.3925 100.868 67.5783C100.868 69.764 102.64 71.5357 104.826 71.5357Z" fill="#FFB700"/>
<path d="M123.048 71.7832C125.371 71.7832 127.254 69.9007 127.254 67.5783C127.254 65.256 125.371 63.3733 123.048 63.3733C120.726 63.3733 118.844 65.256 118.844 67.5783C118.844 69.9007 120.726 71.7832 123.048 71.7832Z" fill="#FFB700"/>
<path d="M141.187 70.4639C142.78 70.4639 144.072 69.1719 144.072 67.5781C144.072 65.9844 142.78 64.6924 141.187 64.6924C139.593 64.6924 138.301 65.9844 138.301 67.5781C138.301 69.1719 139.593 70.4639 141.187 70.4639Z" fill="#FFB700"/>
<path d="M159.41 71.2061C161.414 71.2061 163.038 69.5819 163.038 67.5784C163.038 65.5748 161.414 63.9504 159.41 63.9504C157.407 63.9504 155.782 65.5748 155.782 67.5784C155.782 69.5819 157.407 71.2061 159.41 71.2061Z" fill="#FFB700"/>
<path d="M159.408 35.1753C161.594 35.1753 163.366 33.4034 163.366 31.2177C163.366 29.0319 161.594 27.26 159.408 27.26C157.223 27.26 155.45 29.0319 155.45 31.2177C155.45 33.4034 157.223 35.1753 159.408 35.1753Z" fill="#FFB700"/>
<path d="M141.188 35.1753C143.374 35.1753 145.145 33.4034 145.145 31.2177C145.145 29.0319 143.374 27.26 141.188 27.26C139.002 27.26 137.23 29.0319 137.23 31.2177C137.23 33.4034 139.002 35.1753 141.188 35.1753Z" fill="#FFB700"/>
<path d="M123.048 35.4225C125.371 35.4225 127.254 33.5398 127.254 31.2175C127.254 28.8952 125.371 27.0125 123.048 27.0125C120.726 27.0125 118.844 28.8952 118.844 31.2175C118.844 33.5398 120.726 35.4225 123.048 35.4225Z" fill="#FFB700"/>
<path d="M104.828 34.1033C106.422 34.1033 107.714 32.8113 107.714 31.2175C107.714 29.6238 106.422 28.3318 104.828 28.3318C103.234 28.3318 101.942 29.6238 101.942 31.2175C101.942 32.8113 103.234 34.1033 104.828 34.1033Z" fill="#FFB700"/>
<path d="M86.6887 34.8453C88.6923 34.8453 90.316 33.2212 90.316 31.2176C90.316 29.214 88.6923 27.5898 86.6887 27.5898C84.6851 27.5898 83.0605 29.214 83.0605 31.2176C83.0605 33.2212 84.6851 34.8453 86.6887 34.8453Z" fill="#FFB700"/>
<path d="M68.4668 33.9386C69.9695 33.9386 71.1883 32.7204 71.1883 31.2177C71.1883 29.715 69.9695 28.4968 68.4668 28.4968C66.9641 28.4968 65.7461 29.715 65.7461 31.2177C65.7461 32.7204 66.9641 33.9386 68.4668 33.9386Z" fill="#FFB700"/>
<path d="M50.3262 34.1033C51.9199 34.1033 53.2119 32.8113 53.2119 31.2175C53.2119 29.6238 51.9199 28.3318 50.3262 28.3318C48.7324 28.3318 47.4404 29.6238 47.4404 31.2175C47.4404 32.8113 48.7324 34.1033 50.3262 34.1033Z" fill="#FFB700"/>
<path d="M32.106 35.5877C34.5194 35.5877 36.4757 33.6312 36.4757 31.2178C36.4757 28.8044 34.5194 26.8479 32.106 26.8479C29.6926 26.8479 27.7363 28.8044 27.7363 31.2178C27.7363 33.6312 29.6926 35.5877 32.106 35.5877Z" fill="#FFB700"/>
<path d="M13.8839 34.7632C15.8419 34.7632 17.4291 33.1758 17.4291 31.2178C17.4291 29.2597 15.8419 27.6724 13.8839 27.6724C11.9258 27.6724 10.3379 29.2597 10.3379 31.2178C10.3379 33.1758 11.9258 34.7632 13.8839 34.7632Z" fill="#FFB700"/>
<path d="M159.408 53.3968C161.594 53.3968 163.366 51.6251 163.366 49.4393C163.366 47.2536 161.594 45.4817 159.408 45.4817C157.223 45.4817 155.45 47.2536 155.45 49.4393C155.45 51.6251 157.223 53.3968 159.408 53.3968Z" fill="#FFB700"/>
<path d="M141.188 53.3968C143.374 53.3968 145.145 51.6251 145.145 49.4393C145.145 47.2536 143.374 45.4817 141.188 45.4817C139.002 45.4817 137.23 47.2536 137.23 49.4393C137.23 51.6251 139.002 53.3968 141.188 53.3968Z" fill="#FFB700"/>
<path d="M123.048 53.644C125.371 53.644 127.254 51.7615 127.254 49.4392C127.254 47.1168 125.371 45.2341 123.048 45.2341C120.726 45.2341 118.844 47.1168 118.844 49.4392C118.844 51.7615 120.726 53.644 123.048 53.644Z" fill="#FFB700"/>
<path d="M104.828 52.325C106.422 52.325 107.714 51.033 107.714 49.4392C107.714 47.8455 106.422 46.5535 104.828 46.5535C103.234 46.5535 101.942 47.8455 101.942 49.4392C101.942 51.033 103.234 52.325 104.828 52.325Z" fill="#FFB700"/>
<path d="M86.6887 53.0669C88.6923 53.0669 90.316 51.4428 90.316 49.4392C90.316 47.4356 88.6923 45.8113 86.6887 45.8113C84.6851 45.8113 83.0605 47.4356 83.0605 49.4392C83.0605 51.4428 84.6851 53.0669 86.6887 53.0669Z" fill="#FFB700"/>
<path d="M68.4668 52.1599C69.9695 52.1599 71.1883 50.9418 71.1883 49.4392C71.1883 47.9365 69.9695 46.7183 68.4668 46.7183C66.9641 46.7183 65.7461 47.9365 65.7461 49.4392C65.7461 50.9418 66.9641 52.1599 68.4668 52.1599Z" fill="#FFB700"/>
<path d="M50.3262 52.325C51.9199 52.325 53.2119 51.033 53.2119 49.4392C53.2119 47.8455 51.9199 46.5535 50.3262 46.5535C48.7324 46.5535 47.4404 47.8455 47.4404 49.4392C47.4404 51.033 48.7324 52.325 50.3262 52.325Z" fill="#FFB700"/>
<path d="M32.106 53.8089C34.5194 53.8089 36.4757 51.8526 36.4757 49.4392C36.4757 47.0258 34.5194 45.0693 32.106 45.0693C29.6926 45.0693 27.7363 47.0258 27.7363 49.4392C27.7363 51.8526 29.6926 53.8089 32.106 53.8089Z" fill="#FFB700"/>
<path d="M13.8839 52.9844C15.8419 52.9844 17.4291 51.3972 17.4291 49.4392C17.4291 47.4811 15.8419 45.8938 13.8839 45.8938C11.9258 45.8938 10.3379 47.4811 10.3379 49.4392C10.3379 51.3972 11.9258 52.9844 13.8839 52.9844Z" fill="#FFB700"/>
</svg>
