<svg width="248" height="251" viewBox="0 0 248 251" fill="none" xmlns="http://www.w3.org/2000/svg">
<path d="M121.387 217.901C104.695 216.496 87.2228 205.151 85.0388 188.237L76.5628 180.535C73.3908 177.673 73.2348 172.52 76.9788 169.502C78.7988 167.993 81.0347 167.629 83.5307 168.357C84.0507 168.513 84.7267 168.669 84.7267 167.576L84.6228 142.128C84.6228 140.827 84.0508 139.63 83.0628 138.849L69.9588 128.18C67.3068 126.047 66.5268 122.3 68.0868 119.281C69.3348 116.887 71.7788 115.43 74.4828 115.378C76.2508 115.378 75.9908 114.025 73.8068 112.88C70.9988 111.475 67.8788 109.653 65.6428 107.624C55.9708 98.9325 50.7708 90.918 50.7708 80.4575C50.7708 68.8 62.0547 65.1571 73.3907 65.1571C84.9867 65.1571 96.8428 67.9153 104.123 70.2573C105.579 70.7256 107.191 69.9969 107.815 68.5918C109.635 64.4805 110.935 61.4621 111.663 59.6926C115.095 51.2097 123.259 42.6748 133.763 42.6748C135.011 42.6748 153.991 44.0279 155.551 67.3949C155.655 69.2684 155.967 73.744 156.487 80.4575C156.643 82.383 158.047 83.9964 159.971 84.3607C169.695 86.1821 194.447 91.3344 202.039 103.929C207.239 112.568 199.387 127.608 191.171 133.124C187.063 135.831 182.123 137.444 176.507 137.808C175.207 137.912 174.219 139.109 174.531 140.41C175.155 142.96 175.311 145.614 174.999 148.217C174.427 153.473 172.139 158.261 168.551 162.008C167.615 162.997 166.991 164.246 166.679 165.547C166.107 168.253 165.691 170.543 165.223 172.885C164.911 174.342 165.691 175.331 168.447 175.591C171.879 175.903 174.115 178.349 174.635 181.524C175.155 184.698 173.595 187.769 170.735 189.174L164.599 192.244C162.571 193.285 161.011 195.055 160.179 197.189C158.047 202.861 153.627 207.961 147.335 211.76C135.167 218.994 123.051 218.058 121.387 217.901Z" fill="#F3EAD4"/>
<path d="M122.012 210.772C108.7 209.679 92.0078 200.155 92.0078 184.751L91.7478 115.586C93.5678 98.3602 113.38 86.3905 130.488 88.212L132.672 88.4201C149.832 90.2416 169.696 106.479 167.876 123.705C167.876 123.705 156.176 179.963 154.096 191.984C151.964 204.058 135.272 211.865 122.012 210.772Z" fill="#6FA467"/>
<path d="M124.56 211.813C123.676 211.813 122.792 211.761 121.908 211.709C107.088 210.46 91.0198 199.843 91.0718 184.751L90.8118 115.586C90.8118 115.534 90.8118 115.534 90.8118 115.482C91.6958 107.104 96.6878 99.4533 104.852 93.9888C112.548 88.7846 121.96 86.3907 130.592 87.2754L132.776 87.4836C141.46 88.4203 150.924 92.948 158.048 99.6094C165.848 106.947 169.696 115.534 168.812 123.809C168.812 123.861 168.812 123.861 168.812 123.913C168.708 124.486 157.06 180.275 155.032 192.193C152.9 203.954 137.82 211.813 124.56 211.813ZM92.6318 115.639L92.8918 184.751C92.8918 200.207 110.26 208.846 122.012 209.835C122.792 209.887 123.624 209.939 124.404 209.939C136.728 209.939 151.184 202.601 153.056 191.881C155.084 180.119 166.472 125.475 166.836 123.601C168.552 107.312 149.364 91.1786 132.464 89.3571L130.28 89.1489C114.42 87.4315 94.5038 98.6207 92.6318 115.639Z" fill="#141414"/>
<path d="M94.0893 128.18L74.4854 122.664L95.8573 139.994" fill="#6FA467"/>
<path d="M95.8561 140.931C95.6481 140.931 95.4402 140.879 95.2842 140.723L73.9122 123.341C73.5482 123.081 73.4442 122.56 73.6522 122.196C73.8602 121.832 74.3282 121.624 74.7442 121.728L94.4002 127.244C94.9202 127.4 95.1802 127.921 95.0242 128.389C94.8682 128.91 94.3482 129.17 93.8802 129.014L78.5921 124.746L96.4802 139.266C96.8962 139.578 96.9481 140.203 96.6361 140.567C96.3761 140.827 96.1161 140.931 95.8561 140.931Z" fill="#141414"/>
<path d="M101.992 181.68L81.4004 175.227L97.3643 189.747" fill="#6FA467"/>
<path d="M97.3649 190.684C97.1569 190.684 96.897 190.58 96.741 190.424L80.7769 175.904C80.4649 175.592 80.3609 175.123 80.5689 174.759C80.7769 174.394 81.245 174.186 81.661 174.342L102.253 180.796C102.721 180.952 103.033 181.472 102.877 181.993C102.721 182.461 102.201 182.773 101.681 182.617L85.1449 177.465L97.9889 189.122C98.3529 189.487 98.405 190.059 98.041 190.424C97.885 190.58 97.6249 190.684 97.3649 190.684Z" fill="#141414"/>
<path d="M151.495 190.632L167.407 182.773L150.04 180.639" fill="#6FA467"/>
<path d="M151.495 191.568C151.131 191.568 150.819 191.36 150.663 191.048C150.455 190.579 150.611 190.007 151.079 189.799L164.183 183.293L149.935 181.524C149.415 181.472 149.051 181.003 149.103 180.483C149.155 179.963 149.623 179.598 150.143 179.65L167.459 181.784C167.875 181.836 168.187 182.148 168.291 182.565C168.395 182.981 168.135 183.398 167.771 183.554L151.859 191.412C151.807 191.568 151.651 191.568 151.495 191.568Z" fill="#141414"/>
<path d="M118.995 161.904C127.956 161.904 135.22 154.634 135.22 145.667C135.22 136.699 127.956 129.429 118.995 129.429C110.035 129.429 102.771 136.699 102.771 145.667C102.771 154.634 110.035 161.904 118.995 161.904Z" fill="#F3EAD4"/>
<path d="M118.995 162.841C118.371 162.841 117.799 162.789 117.175 162.737C112.599 162.268 108.543 160.03 105.631 156.439C102.771 152.849 101.419 148.373 101.939 143.845C102.927 134.426 111.403 127.608 120.815 128.597C125.391 129.065 129.447 131.303 132.359 134.894C135.271 138.485 136.571 142.96 136.051 147.488C135.115 156.283 127.679 162.841 118.995 162.841ZM118.995 130.366C111.299 130.366 104.643 136.195 103.811 144.001C103.395 148.061 104.539 152.068 107.087 155.242C109.635 158.417 113.275 160.395 117.331 160.863C125.703 161.748 133.243 155.659 134.127 147.28C134.543 143.221 133.399 139.213 130.851 136.039C128.303 132.864 124.663 130.887 120.607 130.418C120.087 130.418 119.515 130.366 118.995 130.366Z" fill="#141414"/>
<path d="M151.601 162.008C160.561 162.008 167.825 154.738 167.825 145.771C167.825 136.803 160.561 129.534 151.601 129.534C142.64 129.534 135.376 136.803 135.376 145.771C135.376 154.738 142.64 162.008 151.601 162.008Z" fill="#F3EAD4"/>
<path d="M151.652 162.945C151.028 162.945 150.404 162.893 149.78 162.841C140.368 161.852 133.556 153.369 134.544 143.95C135.012 139.37 137.248 135.311 140.836 132.396C144.424 129.534 148.896 128.181 153.42 128.701C162.832 129.69 169.644 138.173 168.656 147.593C168.188 152.172 165.952 156.232 162.364 159.146C159.296 161.592 155.552 162.945 151.652 162.945ZM151.548 130.471C148.064 130.471 144.736 131.668 141.98 133.853C138.808 136.404 136.832 140.046 136.364 144.106C135.48 152.485 141.564 160.031 149.936 160.916C153.992 161.332 157.996 160.187 161.168 157.637C164.34 155.087 166.316 151.444 166.784 147.384C167.668 139.006 161.584 131.46 153.212 130.575C152.692 130.523 152.12 130.471 151.548 130.471Z" fill="#141414"/>
<path d="M113.952 148.425C112.496 148.269 111.456 146.864 111.768 145.406C112.028 144.105 113.328 143.325 114.628 143.429L126.484 144.678C126.588 144.678 126.692 144.574 126.692 144.47C126.276 139.161 121.96 134.79 116.344 134.582C110.988 134.425 106.204 138.433 105.424 143.741C104.54 149.778 108.856 155.294 114.888 155.971C119.516 156.491 123.78 153.889 125.704 149.934C125.756 149.83 125.704 149.674 125.548 149.674L113.952 148.425Z" fill="#141414"/>
<path d="M146.347 148.633C144.891 148.477 143.851 147.072 144.163 145.615C144.423 144.314 145.723 143.533 147.023 143.637L159.295 144.938C159.399 144.938 159.503 144.886 159.451 144.782C159.087 139.422 154.771 134.998 149.155 134.79C143.799 134.582 139.015 138.641 138.235 143.949C137.351 149.986 141.667 155.503 147.699 156.179C152.327 156.7 156.591 154.15 158.463 150.194C158.515 150.09 158.463 149.986 158.307 149.986L146.347 148.633Z" fill="#141414"/>
<path d="M119.932 135.363C111.04 134.426 108.492 134.686 107.244 134.478C110.364 130.835 116.084 129.066 120.712 129.534C126.068 130.106 130.696 133.541 132.516 136.716C130.748 136.508 124.456 135.883 119.932 135.363Z" fill="#8BB4C8"/>
<path d="M132.515 137.653C132.463 137.653 132.411 137.653 132.411 137.653C131.111 137.496 127.419 137.08 123.831 136.716C122.427 136.56 121.075 136.404 119.827 136.299C113.639 135.623 110.519 135.571 108.803 135.519C108.023 135.519 107.503 135.467 107.087 135.415C106.723 135.363 106.463 135.154 106.359 134.842C106.255 134.53 106.307 134.166 106.515 133.905C109.635 130.262 115.511 128.077 120.815 128.649C126.795 129.274 131.527 133.073 133.347 136.299C133.503 136.612 133.503 136.976 133.295 137.288C133.139 137.496 132.827 137.653 132.515 137.653ZM109.479 133.645C111.299 133.697 114.419 133.801 120.035 134.426C121.283 134.582 122.687 134.686 124.039 134.842C126.379 135.102 128.823 135.363 130.539 135.519C128.459 133.125 124.767 130.887 120.607 130.419C116.759 130.054 112.391 131.355 109.479 133.645Z" fill="#141414"/>
<path d="M150.298 135.466C141.406 136.559 139.17 137.184 137.974 137.34C139.69 133.229 144.942 130.627 149.57 129.898C154.822 129.065 160.074 130.731 162.83 134.061C161.01 134.27 154.874 134.894 150.298 135.466Z" fill="#8BB4C8"/>
<path d="M137.974 138.277C137.662 138.277 137.402 138.121 137.246 137.913C137.038 137.653 136.986 137.289 137.142 136.976C139.014 132.501 144.682 129.69 149.466 128.962C155.03 128.077 160.594 129.847 163.558 133.49C163.766 133.75 163.818 134.114 163.714 134.426C163.61 134.738 163.298 134.947 162.934 134.999C161.114 135.207 154.978 135.831 150.454 136.404C144.37 137.184 141.406 137.705 139.794 138.017C139.014 138.173 138.546 138.225 138.078 138.277C138.026 138.277 138.026 138.277 137.974 138.277ZM152.17 130.627C151.338 130.627 150.506 130.679 149.674 130.835C146.034 131.408 141.874 133.229 139.742 136.144C141.458 135.831 144.422 135.311 150.194 134.582C153.626 134.166 158.046 133.646 160.75 133.385C158.566 131.616 155.446 130.627 152.17 130.627Z" fill="#141414"/>
<path d="M123.624 177.829C122.948 177.829 122.271 177.777 121.491 177.621C115.979 176.528 114.836 170.647 115.044 167.681C115.096 167.16 115.511 166.796 116.031 166.796C116.551 166.848 116.915 167.264 116.915 167.785C116.915 168.045 116.551 174.758 121.855 175.799C128.563 177.1 130.747 170.543 130.851 170.283C131.007 169.814 131.527 169.502 132.047 169.658C132.515 169.814 132.827 170.335 132.671 170.855C132.619 170.907 130.332 177.829 123.624 177.829Z" fill="#141414"/>
<path d="M94.816 100.963C94.816 100.963 108.076 100.807 121.388 107.052C130.852 111.475 135.272 115.222 137.456 118.553C131.788 115.795 125.028 111.944 116.396 109.862C98.508 105.49 91.748 113.505 91.748 113.505L94.816 100.963Z" fill="#141414"/>
<path d="M151.082 107.208C151.082 107.208 148.741 74.473 148.273 67.9677C147.805 61.4624 143.645 51.6785 135.897 50.1693C128.149 48.66 121.181 55.2694 118.217 62.5033C115.253 69.7372 104.75 92.844 104.75 92.844L151.082 107.208Z" fill="#8BB4C8"/>
<path d="M151.081 108.145C150.977 108.145 150.873 108.145 150.821 108.093L104.489 93.7811C104.229 93.677 104.021 93.5209 103.917 93.2607C103.813 93.0005 103.813 92.7402 103.917 92.48C104.021 92.2719 114.525 69.2171 117.385 62.1393C120.453 54.5411 127.889 47.6716 136.053 49.2849C144.373 50.8982 148.741 61.1506 149.209 67.9161C149.625 74.3693 151.965 106.844 152.017 107.156C152.017 107.468 151.913 107.78 151.653 107.937C151.497 108.041 151.289 108.145 151.081 108.145ZM106.049 92.2718L150.093 105.907C149.625 99.6619 147.753 73.6927 147.389 67.968C146.973 61.775 143.073 52.4594 135.741 51.0543C128.513 49.6491 121.909 55.8943 119.101 62.8159C116.553 69.113 108.077 87.8482 106.049 92.2718Z" fill="#141414"/>
<path d="M149.833 89.7214L150.249 103.617C150.249 103.617 159.089 111.683 174.429 114.754C183.009 116.471 187.272 115.951 189.092 115.378C190.912 114.858 199.232 113.401 195.696 107.624C192.94 103.044 185.869 98.3605 173.961 95.1859C163.717 92.4276 149.833 89.7214 149.833 89.7214Z" fill="#4C8BAA"/>
<path d="M184.465 116.887C182.021 116.887 178.693 116.575 174.273 115.69C158.881 112.568 149.989 104.657 149.625 104.293C149.417 104.137 149.313 103.877 149.313 103.616L148.897 89.7212C148.897 89.461 149.001 89.1488 149.209 88.9926C149.417 88.7845 149.729 88.7323 149.989 88.7844C150.145 88.8364 164.029 91.5427 174.221 94.3009C185.401 97.3194 193.357 101.899 196.529 107.155C197.569 108.821 197.777 110.382 197.205 111.787C196.061 114.597 191.953 115.638 189.977 116.159C189.717 116.211 189.509 116.263 189.353 116.315C188.469 116.575 186.909 116.887 184.465 116.887ZM151.185 103.2C152.797 104.553 161.273 111.163 174.637 113.869C183.477 115.638 187.533 114.91 188.833 114.545C188.989 114.493 189.249 114.441 189.509 114.337C191.069 113.921 194.657 113.036 195.489 111.111C195.801 110.278 195.645 109.341 194.917 108.144C193.201 105.334 188.157 99.9735 173.701 96.1224C165.277 93.8846 154.253 91.5947 150.769 90.8661L151.185 103.2Z" fill="#141414"/>
<path d="M91.5933 74.4732C74.3813 71.2465 63.9294 71.7669 59.2494 76.3987C56.5974 79.0529 56.8574 88.941 70.6894 102.628C72.8734 101.379 81.3493 99.7657 91.4373 101.795C127.005 108.925 145.465 125.735 164.601 129.742C174.949 131.928 192.161 132.292 196.113 112.152C196.113 112.152 192.057 116.888 176.925 115.274C153.733 112.776 126.589 81.0305 91.5933 74.4732Z" fill="#8BB4C8"/>
<path d="M173.545 131.667C170.217 131.667 167.045 131.199 164.341 130.627C156.229 128.909 148.273 124.954 139.121 120.426C126.277 114.025 111.769 106.791 91.2293 102.68C81.5054 100.754 73.2374 102.263 71.1054 103.408C70.7414 103.617 70.2733 103.564 70.0133 103.252C58.2613 91.5947 56.9614 83.4761 56.9614 80.5097C56.9614 78.428 57.5333 76.7106 58.5733 75.6698C63.4093 70.8819 73.9654 70.1533 91.7493 73.484C110.573 77.0229 127.161 87.7436 141.825 97.2673C154.981 105.75 166.317 113.14 176.925 114.233C191.225 115.742 195.281 111.475 195.333 111.423C195.593 111.111 196.061 111.007 196.425 111.215C196.789 111.423 196.997 111.787 196.945 112.203C195.541 119.333 192.421 124.59 187.533 127.816C183.321 130.731 178.329 131.667 173.545 131.667ZM81.8173 99.9215C84.7813 99.9215 88.0574 100.182 91.5414 100.91C112.341 105.074 126.953 112.36 139.901 118.813C148.949 123.34 156.801 127.244 164.705 128.857C170.997 130.158 179.889 130.835 186.493 126.411C190.393 123.809 193.097 119.75 194.553 114.285C191.953 115.638 186.597 117.252 176.717 116.211C165.693 115.014 154.149 107.572 140.837 98.9327C126.329 89.513 109.845 78.8964 91.3854 75.4095C74.2774 72.1829 64.2413 72.7554 59.8733 77.0749C59.1973 77.7514 58.8333 79.0004 58.8333 80.5617C58.8333 83.2679 60.0294 90.6059 70.8454 101.535C72.7694 100.702 76.7733 99.9215 81.8173 99.9215Z" fill="#141414"/>
<path d="M90.7608 112.984C76.8768 107.415 70.6367 102.628 70.6367 102.628C70.6367 102.628 81.7127 98.7764 95.2327 102.575C92.8927 105.594 91.4888 110.018 90.7608 112.984Z" fill="#4C8BAA"/>
<path d="M90.7616 113.921C90.6576 113.921 90.5535 113.921 90.3975 113.869C76.5136 108.353 70.2736 103.617 70.0136 103.409C69.7536 103.2 69.5976 102.836 69.6496 102.524C69.7016 102.212 69.9616 101.899 70.2736 101.795C70.7416 101.639 81.8176 97.8921 95.3896 101.743C95.7016 101.847 95.9096 102.055 96.0136 102.368C96.1176 102.68 96.0655 102.992 95.8575 103.252C93.5175 106.219 92.2176 110.799 91.5936 113.297C91.5416 113.557 91.3336 113.765 91.1256 113.921C91.0736 113.869 90.9176 113.921 90.7616 113.921ZM72.8217 102.992C75.3697 104.658 81.0376 107.988 90.1375 111.735C90.8655 109.029 91.9576 105.75 93.6736 103.148C84.3656 100.859 76.3057 102.16 72.8217 102.992Z" fill="#141414"/>
<path d="M21.7033 86.3903L22.0153 85.2974L26.4873 86.6505L23.2113 97.2671L18.7394 95.914L19.2594 94.3007L16.9713 94.0925L15.8273 97.7875L17.8553 98.8805L18.3753 97.2671L22.8473 98.6203L19.9873 107.884L15.5153 106.531L15.8273 105.438L0.591309 95.7058L3.60733 85.8178L21.7033 86.3903ZM13.1753 96.2784L13.9553 93.7803L8.23527 93.2078L8.1313 93.468L13.1753 96.2784Z" fill="#141414"/>
<path d="M28.0994 49.8563L27.3713 51.0533L38.1873 57.8188L38.9153 56.6218L42.8673 59.0679L37.1994 68.1753L33.2473 65.7292L33.9753 64.5843L25.5513 59.3281L35.3794 71.1417L33.1434 74.7325L18.2713 71.2978L26.5913 76.45L27.3194 75.3051L31.2713 77.751L26.3313 85.6614L22.3794 83.2155L23.1073 82.0185L12.2913 75.253L11.5634 76.45L7.61133 74.004L14.4753 62.9711L23.5234 65.1568L17.4913 58.079L24.0953 47.4624L28.0994 49.8563Z" fill="#141414"/>
<path d="M44.5314 58.7038L41.2034 55.4772L42.1914 54.4364L32.9874 45.5892L31.9995 46.63L28.6714 43.4034L36.1595 35.6492L39.4874 38.8758L38.4995 39.9166L47.7034 48.7638L48.6914 47.723L52.0194 50.9496L44.5314 58.7038Z" fill="#141414"/>
<path d="M65.7475 31.1731L64.6036 32.0058L67.9835 36.5855C67.6196 37.4702 66.8916 38.5111 65.7996 39.7601C64.7596 41.0091 63.4595 42.2061 61.9515 43.299C59.0915 45.3807 56.3355 46.3174 53.6315 46.0052C50.9275 45.6929 48.3795 43.9756 46.0915 40.853C43.6995 37.6264 42.7636 34.712 43.2836 32.0578C43.8036 29.4036 45.5715 26.9577 48.5355 24.7719C49.9915 23.679 51.4476 22.8464 52.9036 22.2218C54.4116 21.5973 55.6075 21.233 56.4915 21.1289L60.5475 26.5934L54.8275 30.8088L54.0475 29.7159C53.5795 29.0914 53.1116 28.7272 52.6436 28.6231C52.1756 28.519 51.6556 28.7272 51.0836 29.1435C50.5116 29.5598 50.1995 30.0281 50.1475 30.4965C50.0955 30.9649 50.3035 31.5374 50.7715 32.1619L55.7115 38.8233C56.1795 39.4478 56.6475 39.8122 57.1155 39.9162C57.5835 40.0203 58.1035 39.8122 58.6755 39.3958C59.2475 38.9795 59.5595 38.5111 59.6115 38.0427C59.6635 37.5743 59.4555 37.0019 58.9875 36.3773L58.8836 36.2212L57.6355 37.158L55.1396 33.7752L63.1996 27.7904L65.7475 31.1731Z" fill="#141414"/>
<path d="M72.3 33.2027C69.856 32.318 67.7759 30.0802 66.1119 26.4372C64.4479 22.7943 64.1359 19.7758 65.0719 17.3298C66.0599 14.8838 68.088 12.9583 71.26 11.5532C74.432 10.096 77.24 9.83573 79.684 10.7204C82.128 11.6052 84.2079 13.843 85.8719 17.486C87.5359 21.1289 87.8479 24.1474 86.9119 26.5934C85.9239 29.0394 83.896 30.965 80.724 32.3701C77.552 33.8273 74.744 34.0874 72.3 33.2027ZM79.7359 26.6974C79.8919 26.229 79.8399 25.7087 79.5279 25.0321L75.9919 17.2257C75.6799 16.5492 75.316 16.1329 74.9 15.9768C74.484 15.8207 73.9639 15.8207 73.3919 16.1329C72.8199 16.3931 72.456 16.7574 72.3 17.1738C72.144 17.6422 72.1959 18.1626 72.5079 18.8391L76.044 26.6455C76.356 27.322 76.7199 27.7383 77.1359 27.8944C77.5519 28.0506 78.072 27.9985 78.644 27.7383C79.216 27.5301 79.5799 27.1658 79.7359 26.6974Z" fill="#141414"/>
<path d="M95.0751 26.437C93.4111 26.4891 92.1631 26.4371 91.1751 26.2289L89.8751 20.7645L95.9592 19.3594C96.1152 19.9318 96.3231 20.2961 96.6351 20.5043C96.9471 20.7124 97.4671 20.7125 98.1431 20.5564C98.7151 20.4002 99.0791 20.2441 99.2871 19.9838C99.4951 19.7757 99.5471 19.4634 99.4951 19.0992C99.4431 18.7869 99.2351 18.5787 98.9751 18.4226C98.6631 18.2665 98.1951 18.1624 97.5711 18.0583L95.0231 17.7981C92.7871 17.4858 91.1232 16.9133 89.9792 16.0807C88.8352 15.248 88.0552 13.9469 87.6392 12.1254C87.1192 9.93962 87.4311 8.11814 88.6271 6.66095C89.7711 5.20377 92.0591 4.05884 95.3871 3.2782C96.9991 2.9139 98.5071 2.70581 100.015 2.70581C101.523 2.70581 102.719 2.86189 103.707 3.17414L104.851 8.11817L99.3392 9.41922C99.1312 8.48246 98.4551 8.17026 97.3111 8.43047C96.7391 8.53455 96.3751 8.74267 96.1671 8.8988C95.9591 9.10697 95.9071 9.36723 96.0111 9.73153C96.0631 10.0438 96.2711 10.252 96.5831 10.4081C96.8951 10.5122 97.3632 10.6163 98.0392 10.6683L100.639 10.9285C102.771 11.1367 104.383 11.6571 105.527 12.4898C106.671 13.3225 107.451 14.6235 107.815 16.3409C108.387 18.6828 107.971 20.6604 106.671 22.2217C105.371 23.783 103.187 24.9278 100.171 25.6564C98.4551 26.1248 96.7391 26.333 95.0751 26.437Z" fill="#141414"/>
<path d="M119.879 17.4342L121.283 17.4862L121.959 4.73578L120.555 4.63172L120.815 0L133.815 0.728542C136.155 0.832627 137.975 1.45708 139.275 2.49793C140.523 3.53878 141.147 4.94402 141.043 6.76551C140.991 7.8584 140.679 8.79506 140.107 9.52365C139.535 10.2522 138.911 10.8248 138.183 11.137C137.455 11.5013 136.779 11.7095 136.103 11.8136V12.0738C137.455 12.282 138.599 12.7504 139.639 13.531C140.679 14.3116 141.147 15.6126 141.043 17.4862C140.939 19.4638 140.107 20.869 138.547 21.7016C136.987 22.5343 135.063 22.8986 132.671 22.7425L119.671 22.0138L119.879 17.4342ZM130.903 18.0587C131.475 18.1107 131.891 17.9546 132.151 17.6944C132.411 17.4342 132.619 16.9658 132.619 16.3412L132.671 15.0923C132.723 14.4678 132.567 13.9993 132.359 13.687C132.099 13.3748 131.683 13.2187 131.163 13.1666L129.447 13.0626L129.187 17.9546L130.903 18.0587ZM131.163 9.94001C131.735 9.99206 132.151 9.83595 132.411 9.57574C132.723 9.31553 132.879 8.8471 132.879 8.22259L132.931 7.18174C132.983 6.55724 132.879 6.08888 132.619 5.77663C132.359 5.46437 131.943 5.30824 131.423 5.2562L129.915 5.15214L129.655 9.78386L131.163 9.94001Z" fill="#141414"/>
<path d="M162.987 24.4075L164.079 24.7198L162.831 29.1953L152.119 26.281L153.367 21.8053L155.031 22.2737L155.187 19.9839L151.443 18.943L150.403 21.0247L152.067 21.493L150.819 25.9687L141.459 23.4187L142.707 18.943L143.799 19.2553L153.003 3.69458L162.987 6.40076V24.4075ZM152.847 16.1328L155.343 16.8092L155.707 11.0326L155.447 10.9805L152.847 16.1328Z" fill="#141414"/>
<path d="M166.575 28.5711C165.639 26.0731 166.107 23.0546 167.875 19.4637C171.307 12.6462 176.299 10.8767 182.955 14.2074C184.567 14.988 185.971 15.9769 187.115 17.0178C188.311 18.1106 189.091 19.0474 189.559 19.8801L186.387 26.2292L180.303 23.1588L181.239 21.3373C181.551 20.7128 181.655 20.1403 181.499 19.7239C181.343 19.2556 181.031 18.8912 180.459 18.631C179.887 18.3187 179.367 18.2667 178.951 18.4229C178.535 18.579 178.119 18.9954 177.807 19.6199L173.959 27.2701C173.647 27.8946 173.543 28.4671 173.699 28.8834C173.855 29.3518 174.167 29.716 174.739 29.9763C175.311 30.2885 175.831 30.3406 176.247 30.1845C176.663 30.0284 177.079 29.612 177.391 28.9875L178.431 26.9058L184.515 29.9763L181.239 36.5336C180.303 36.6377 179.055 36.5857 177.495 36.2734C175.935 35.9612 174.375 35.4407 172.763 34.6601C169.539 33.0988 167.459 31.0692 166.575 28.5711Z" fill="#141414"/>
<path d="M201.051 48.2433L202.143 49.128L199.231 52.7709L193.199 47.931L195.383 38.4072L193.667 38.4593L191.743 40.8533L192.783 41.6859L189.871 45.3289L181.5 38.6154L184.411 34.9725L185.503 35.8572L193.459 25.8651L192.367 24.9804L195.279 21.3374L203.651 28.0508L200.739 31.6938L199.699 30.8611L197.359 33.7755L203.131 33.5674L201.727 32.4744L204.639 28.8315L212.907 35.4408L209.995 39.0838L208.903 38.1991L202.767 38.3031L201.051 48.2433Z" fill="#141414"/>
<path d="M199.854 54.072L203.339 51.0015L204.274 52.0424L213.843 43.5594L212.907 42.5186L216.391 39.448L223.514 47.5146L220.03 50.5851L219.094 49.5443L209.527 58.0272L210.463 59.0681L206.979 62.1385L199.854 54.072Z" fill="#141414"/>
<path d="M235.683 65.5212L240.467 73.4837L236.463 75.8775L235.735 74.6807L220.811 83.6319L216.703 76.8143L223.411 63.0752L216.443 67.2386L217.119 68.3835L213.115 70.7775L208.331 62.815L212.335 60.421L213.063 61.618L224.035 55.0606L223.307 53.8637L227.311 51.4697L232.563 60.2648L226.635 72.4948L232.407 69.0601L231.731 67.9152L235.683 65.5212Z" fill="#141414"/>
<path d="M235.059 104.293L234.643 102.94L229.235 104.657C228.507 104.033 227.779 102.992 226.895 101.587C226.063 100.182 225.335 98.5684 224.763 96.7989C223.671 93.4162 223.723 90.5017 224.867 88.0037C226.011 85.5057 228.455 83.6842 232.147 82.4873C235.943 81.2903 239.011 81.3423 241.351 82.6954C243.691 84.0485 245.407 86.4945 246.551 90.0334C247.123 91.7508 247.435 93.4161 247.539 95.0294C247.643 96.6427 247.591 97.8917 247.383 98.7764L240.935 100.858L238.751 94.0926L239.999 93.6764C240.779 93.4162 241.247 93.1038 241.507 92.6875C241.715 92.2712 241.767 91.6987 241.507 91.0222C241.299 90.3456 240.935 89.8772 240.519 89.669C240.103 89.4609 239.479 89.4609 238.751 89.7211L230.847 92.2711C230.067 92.5313 229.599 92.8437 229.391 93.26C229.183 93.6764 229.131 94.2488 229.391 94.9253C229.599 95.6019 229.963 96.0703 230.379 96.2785C230.795 96.4867 231.419 96.4866 232.147 96.2264L232.355 96.1743L231.887 94.7172L235.891 93.4162L238.959 102.992L235.059 104.293Z" fill="#141414"/>
<path d="M28.983 190.371C29.503 189.434 29.763 188.497 29.763 187.457C29.763 186.416 29.451 185.427 28.879 184.438C28.359 183.553 27.6829 182.877 26.9549 182.408C26.5389 182.2 26.1229 182.044 25.6549 181.94L26.8509 181.263L25.187 178.401L11.147 186.572L12.9149 189.59L17.7509 186.78C17.6469 187.196 17.543 187.613 17.543 187.977C17.543 188.862 17.803 189.746 18.323 190.579C18.895 191.568 19.623 192.297 20.507 192.817C21.391 193.337 22.379 193.598 23.419 193.598C24.459 193.598 25.551 193.285 26.643 192.609C27.631 192.036 28.463 191.308 28.983 190.371ZM26.123 188.393C25.863 188.862 25.3949 189.278 24.7709 189.642C24.1989 190.007 23.6269 190.163 23.0549 190.163C22.4829 190.163 21.9629 190.059 21.4949 189.798C21.0269 189.538 20.6629 189.174 20.3509 188.654C20.0389 188.133 19.9349 187.665 19.9349 187.092C19.9349 186.572 20.0909 186.051 20.3509 185.583C20.6109 185.115 21.0789 184.698 21.6509 184.334C22.2749 183.97 22.847 183.814 23.367 183.762C23.939 183.762 24.4069 183.866 24.8749 184.126C25.3429 184.386 25.707 184.75 26.019 185.271C26.331 185.791 26.4349 186.26 26.4349 186.78C26.5389 187.405 26.435 187.925 26.123 188.393Z" fill="#141414"/>
<path d="M39.6432 204.162C40.0072 203.121 40.0591 202.08 39.8511 200.987C39.6431 199.895 39.1232 198.854 38.3432 197.865C37.5112 196.876 36.6272 196.147 35.5872 195.731C34.5472 195.315 33.5071 195.159 32.4151 195.315C31.3231 195.471 30.3352 195.887 29.3992 196.668C28.4632 197.396 27.8391 198.333 27.4751 199.322C27.1111 200.363 27.0592 201.404 27.2672 202.497C27.4752 203.59 27.9951 204.63 28.7751 205.619C29.5551 206.608 30.4912 207.285 31.5312 207.701C32.5712 208.117 33.6112 208.273 34.7032 208.117C35.7952 207.961 36.7832 207.493 37.6672 206.764C38.6552 206.088 39.2792 205.203 39.6432 204.162ZM36.5751 202.705C36.3671 203.225 36.0031 203.694 35.4311 204.162C34.9111 204.578 34.3392 204.839 33.8192 204.995C33.2472 205.099 32.7272 205.047 32.2592 204.891C31.7392 204.682 31.3232 204.37 30.9592 203.954C30.5952 203.485 30.3872 203.017 30.2832 202.497C30.1792 201.976 30.2832 201.456 30.4912 200.935C30.6992 200.415 31.0632 199.947 31.5832 199.478C32.1032 199.062 32.6751 198.75 33.1951 198.646C33.7671 198.541 34.2871 198.594 34.7551 198.802C35.2751 199.01 35.6911 199.322 36.0551 199.738C36.4191 200.207 36.6271 200.675 36.7311 201.196C36.8871 201.664 36.7831 202.184 36.5751 202.705Z" fill="#141414"/>
<path d="M55.1393 214.987L52.0712 212.228L45.1033 212.437L51.3433 205.463L48.7433 203.173L37.7712 215.455L40.3712 217.745L42.3993 215.507L44.7393 215.403L44.4273 221.388L47.5473 224.198L48.0673 215.455L55.1393 214.987Z" fill="#141414"/>
<path d="M63.1468 220.243C62.1588 219.566 61.0667 219.202 59.9747 219.098C58.8827 218.994 57.8427 219.202 56.8547 219.67C55.8667 220.139 55.0868 220.867 54.4108 221.856C53.7348 222.845 53.4228 223.886 53.3708 224.979C53.3188 226.072 53.5788 227.112 54.1508 228.101C54.7228 229.09 55.5548 229.975 56.6988 230.755C57.5828 231.328 58.4668 231.744 59.3508 231.9C60.2348 232.057 61.0668 232.057 61.8468 231.848L61.3788 229.142C60.8588 229.246 60.2868 229.246 59.8188 229.142C59.2988 229.038 58.7788 228.83 58.2588 228.466C57.6868 228.049 57.2188 227.633 56.9068 227.113C56.5948 226.592 56.4908 226.072 56.4908 225.499C56.4908 225.187 56.5948 224.875 56.6988 224.562L64.2388 229.507C64.3428 229.402 64.4467 229.246 64.5507 229.142C64.6547 228.986 64.7587 228.882 64.8107 228.778C65.5387 227.685 65.9027 226.644 65.9547 225.551C66.0067 224.458 65.7988 223.47 65.2788 222.533C64.8628 221.648 64.0828 220.867 63.1468 220.243ZM58.7268 222.221C59.1948 221.96 59.6628 221.856 60.1828 221.908C60.7028 221.96 61.2227 222.116 61.6907 222.429C62.2107 222.741 62.5228 223.157 62.7828 223.626C62.9908 224.094 63.0948 224.562 63.0428 225.083C62.9908 225.447 62.9388 225.759 62.7828 226.124L57.8947 222.897C58.1547 222.585 58.4148 222.377 58.7268 222.221Z" fill="#141414"/>
<path d="M74.8471 228.934L75.5231 227.529L72.5591 226.072L67.3591 236.845L70.4791 238.354L72.9231 233.254C73.4431 232.213 74.067 231.588 74.795 231.38C75.575 231.172 76.3551 231.224 77.2391 231.64C77.3431 231.692 77.447 231.744 77.551 231.796C77.655 231.848 77.759 231.9 77.915 232.005L79.3191 229.142C78.3311 228.674 77.3431 228.414 76.4591 228.466C75.8871 228.466 75.3671 228.674 74.8471 228.934Z" fill="#141414"/>
<path d="M94.0876 238.874C94.4516 238.458 94.9197 238.198 95.4397 238.042C95.9597 237.886 96.5317 237.886 97.1037 238.042C97.6237 238.198 98.0916 238.406 98.4556 238.822C98.8196 239.187 99.1316 239.707 99.2876 240.332L102.252 239.603C102.044 238.562 101.576 237.625 100.796 236.897C100.016 236.168 99.0277 235.648 97.7797 235.336C96.5317 235.023 95.3357 234.971 94.2437 235.283C93.1517 235.544 92.2156 236.064 91.4356 236.793C90.6556 237.573 90.1357 238.51 89.8237 239.655C89.5117 240.8 89.5636 241.893 89.8756 242.934C90.1876 243.975 90.8117 244.859 91.6437 245.64C92.4757 246.421 93.5157 246.941 94.7637 247.253C95.9597 247.565 97.1037 247.566 98.1437 247.305C99.1837 247.045 100.016 246.473 100.692 245.64L98.4556 243.558C97.9876 244.027 97.5197 244.339 96.9997 244.495C96.4797 244.651 95.9597 244.651 95.4397 244.495C94.8677 244.339 94.3997 244.079 93.9837 243.714C93.5677 243.35 93.3076 242.882 93.1516 242.361C92.9956 241.841 92.9957 241.216 93.2037 240.54C93.4117 239.811 93.6716 239.291 94.0876 238.874Z" fill="#141414"/>
<path d="M116.24 239.03C115.304 238.406 114.212 238.042 112.964 237.886C111.716 237.781 110.572 237.886 109.532 238.354C108.492 238.77 107.66 239.447 106.984 240.28C106.308 241.164 105.944 242.153 105.788 243.35C105.684 244.547 105.84 245.588 106.308 246.577C106.776 247.565 107.504 248.346 108.388 248.971C109.324 249.595 110.416 249.959 111.664 250.115C112.912 250.22 114.056 250.116 115.096 249.647C116.136 249.231 116.968 248.554 117.644 247.722C118.32 246.837 118.684 245.848 118.788 244.651C118.892 243.454 118.736 242.361 118.268 241.372C117.852 240.436 117.176 239.655 116.24 239.03ZM115.356 244.339C115.304 245.015 115.096 245.588 114.784 246.056C114.472 246.525 114.056 246.889 113.588 247.097C113.12 247.305 112.6 247.409 112.028 247.357C111.456 247.305 110.936 247.097 110.52 246.785C110.104 246.473 109.74 246.056 109.532 245.536C109.324 245.015 109.22 244.391 109.324 243.714C109.376 243.038 109.584 242.465 109.896 241.997C110.208 241.529 110.624 241.216 111.092 240.956C111.56 240.748 112.08 240.644 112.652 240.696C113.224 240.748 113.744 240.956 114.16 241.268C114.576 241.581 114.888 241.997 115.148 242.517C115.356 243.038 115.408 243.662 115.356 244.339Z" fill="#141414"/>
<path d="M143.903 239.395C143.435 238.666 142.759 238.146 142.031 237.833C141.251 237.521 140.419 237.417 139.483 237.521C138.339 237.625 137.351 237.989 136.519 238.614C136.051 238.978 135.687 239.394 135.375 239.863C135.063 239.447 134.647 239.082 134.231 238.822C133.347 238.354 132.359 238.145 131.267 238.249C130.279 238.354 129.447 238.614 128.719 239.134C128.303 239.395 127.939 239.759 127.679 240.175L127.575 238.77L124.299 239.082L125.391 251L128.823 250.688L128.251 244.703C128.199 243.974 128.251 243.402 128.407 242.933C128.563 242.465 128.875 242.101 129.239 241.84C129.603 241.58 130.071 241.424 130.539 241.372C131.267 241.32 131.839 241.476 132.255 241.892C132.671 242.309 132.931 242.985 133.035 243.974L133.607 250.271L137.039 249.959L136.467 243.974C136.415 243.246 136.467 242.673 136.623 242.205C136.779 241.736 137.091 241.372 137.455 241.112C137.819 240.852 138.287 240.696 138.755 240.643C139.483 240.591 140.055 240.748 140.523 241.164C140.939 241.58 141.251 242.257 141.303 243.246L141.875 249.543L145.307 249.23L144.683 242.413C144.683 241.112 144.371 240.123 143.903 239.395Z" fill="#141414"/>
<path d="M168.967 231.848C168.343 231.224 167.563 230.86 166.783 230.756C165.951 230.651 165.119 230.703 164.235 231.016C163.143 231.38 162.311 231.952 161.635 232.785C161.271 233.253 161.011 233.722 160.803 234.242C160.387 233.878 159.919 233.67 159.451 233.514C158.515 233.254 157.475 233.306 156.487 233.618C155.551 233.93 154.823 234.398 154.199 235.075C153.835 235.439 153.627 235.856 153.419 236.324L152.951 235.023L149.831 236.064L153.627 247.409L156.903 246.316L154.979 240.644C154.771 239.967 154.667 239.395 154.719 238.874C154.771 238.354 154.979 237.937 155.291 237.573C155.603 237.209 155.967 237.001 156.487 236.792C157.163 236.584 157.787 236.584 158.307 236.897C158.827 237.209 159.243 237.833 159.555 238.718L161.583 244.703L164.859 243.61L162.935 237.937C162.727 237.261 162.623 236.688 162.675 236.168C162.727 235.647 162.935 235.231 163.247 234.867C163.559 234.503 163.923 234.294 164.443 234.086C165.119 233.878 165.743 233.878 166.263 234.19C166.783 234.503 167.199 235.127 167.511 236.012L169.539 241.997L172.815 240.904L170.631 234.398C170.111 233.306 169.591 232.421 168.967 231.848Z" fill="#141414"/>
<path d="M181.239 222.741L184.151 227.893C184.515 228.518 184.723 229.09 184.723 229.663C184.775 230.183 184.671 230.652 184.411 231.068C184.151 231.484 183.787 231.797 183.371 232.057C182.695 232.421 182.071 232.525 181.447 232.317C180.875 232.109 180.303 231.588 179.835 230.704L176.767 225.291L173.751 227.009L177.079 232.889C177.703 233.982 178.379 234.711 179.159 235.179C179.939 235.648 180.719 235.856 181.603 235.804C182.487 235.752 183.319 235.492 184.203 234.971C184.983 234.503 185.607 233.93 186.075 233.15C186.335 232.733 186.543 232.213 186.595 231.744L187.271 232.994L190.131 231.38L184.203 220.972L181.239 222.741Z" fill="#141414"/>
<path d="M199.334 212.177C198.502 211.865 197.67 211.761 196.89 211.917C196.058 212.073 195.278 212.489 194.55 213.062C193.77 213.686 193.198 214.467 192.834 215.299C192.626 215.82 192.522 216.288 192.47 216.809L191.587 215.716L189.039 217.798L196.527 227.113L199.23 224.927L195.539 220.348C195.071 219.775 194.81 219.203 194.654 218.682C194.55 218.162 194.602 217.693 194.81 217.225C195.018 216.757 195.331 216.392 195.747 216.028C196.371 215.56 196.943 215.352 197.567 215.456C198.191 215.56 198.815 215.976 199.387 216.705L203.339 221.597L206.043 219.411L201.727 214.102C200.947 213.166 200.166 212.489 199.334 212.177Z" fill="#141414"/>
<path d="M205.015 203.423L202.595 205.932L211.199 214.246L213.619 211.738L205.015 203.423Z" fill="#141414"/>
<path d="M201.103 204.37C201.623 204.318 202.143 204.11 202.559 203.642C203.027 203.173 203.235 202.653 203.235 202.132C203.235 201.612 203.027 201.092 202.611 200.727C202.195 200.363 201.779 200.155 201.207 200.207C200.687 200.259 200.219 200.519 199.751 200.988C199.335 201.456 199.075 201.924 199.075 202.497C199.075 203.017 199.231 203.485 199.647 203.902C200.115 204.214 200.583 204.37 201.103 204.37Z" fill="#141414"/>
<path d="M219.615 200.779C219.355 201.144 218.991 201.352 218.627 201.352C218.263 201.404 217.848 201.248 217.484 200.936L213.687 197.917L215.56 195.575L213.48 193.91L211.607 196.252L209.32 194.43L207.188 197.137L209.475 198.958L208.331 200.415L210.411 202.081L211.555 200.623L215.404 203.694C216.496 204.579 217.587 204.943 218.627 204.787C219.667 204.631 220.655 204.006 221.487 202.861C221.799 202.445 222.112 201.977 222.32 201.508C222.528 201.04 222.632 200.571 222.684 200.155L220.187 199.374C220.083 199.895 219.927 200.311 219.615 200.779Z" fill="#141414"/>
<path d="M231.627 192.921C231.419 192.192 231.003 191.463 230.379 190.631L222.319 179.442L220.603 182.304L225.803 189.382L217.119 188.029L215.247 191.099L228.247 192.921L228.299 193.025C228.611 193.493 228.819 193.909 228.871 194.274C228.923 194.638 228.819 195.054 228.559 195.471C228.403 195.783 228.143 196.043 227.831 196.251C227.519 196.46 227.207 196.668 226.895 196.772L228.351 199.114C228.819 198.958 229.339 198.697 229.807 198.281C230.275 197.865 230.691 197.396 231.003 196.876C231.367 196.251 231.627 195.627 231.731 195.002C231.887 194.274 231.835 193.649 231.627 192.921Z" fill="#141414"/>
</svg>
