<svg width="242" height="170" viewBox="0 0 242 170" fill="none" xmlns="http://www.w3.org/2000/svg">
<path d="M34.8094 3.51776C35.6189 3.51776 36.2751 2.86156 36.2751 2.05209C36.2751 1.24263 35.6189 0.586426 34.8094 0.586426C34 0.586426 33.3438 1.24263 33.3438 2.05209C33.3438 2.86156 34 3.51776 34.8094 3.51776Z" fill="#FB7C26"/>
<path d="M67.1273 4.10394C68.2605 4.10394 69.1791 3.18522 69.1791 2.05197C69.1791 0.918718 68.2605 0 67.1273 0C65.994 0 65.0755 0.918718 65.0755 2.05197C65.0755 3.18522 65.994 4.10394 67.1273 4.10394Z" fill="#FB7C26"/>
<path d="M131.837 3.95706C132.89 3.95706 133.743 3.10411 133.743 2.0518C133.743 0.999496 132.89 0.146362 131.837 0.146362C130.785 0.146362 129.932 0.999496 129.932 2.0518C129.932 3.10411 130.785 3.95706 131.837 3.95706Z" fill="#FB7C26"/>
<path d="M180.278 3.66446C181.168 3.66446 181.89 2.94267 181.89 2.05226C181.89 1.16185 181.168 0.440063 180.278 0.440063C179.388 0.440063 178.666 1.16185 178.666 2.05226C178.666 2.94267 179.388 3.66446 180.278 3.66446Z" fill="#FB7C26"/>
<path d="M196.473 3.88377C197.485 3.88377 198.305 3.06352 198.305 2.05169C198.305 1.03986 197.485 0.219604 196.473 0.219604C195.461 0.219604 194.641 1.03986 194.641 2.05169C194.641 3.06352 195.461 3.88377 196.473 3.88377Z" fill="#FB7C26"/>
<path d="M212.594 3.88377C213.606 3.88377 214.427 3.06352 214.427 2.05169C214.427 1.03986 213.606 0.219604 212.594 0.219604C211.583 0.219604 210.762 1.03986 210.762 2.05169C210.762 3.06352 211.583 3.88377 212.594 3.88377Z" fill="#FB7C26"/>
<path d="M228.791 3.66446C229.682 3.66446 230.403 2.94267 230.403 2.05226C230.403 1.16185 229.682 0.440063 228.791 0.440063C227.901 0.440063 227.179 1.16185 227.179 2.05226C227.179 2.94267 227.901 3.66446 228.791 3.66446Z" fill="#FB7C26"/>
<path d="M2.49134 19.86C3.42223 19.86 4.17707 19.1053 4.17707 18.1744C4.17707 17.2436 3.42223 16.4889 2.49134 16.4889C1.56046 16.4889 0.805969 17.2436 0.805969 18.1744C0.805969 19.1053 1.56046 19.86 2.49134 19.86Z" fill="#FB7C26"/>
<path d="M18.6144 20.0796C19.6667 20.0796 20.5198 19.2267 20.5198 18.1744C20.5198 17.1221 19.6667 16.2689 18.6144 16.2689C17.5621 16.2689 16.7093 17.1221 16.7093 18.1744C16.7093 19.2267 17.5621 20.0796 18.6144 20.0796Z" fill="#FB7C26"/>
<path d="M34.8098 20.0796C35.8621 20.0796 36.7152 19.2267 36.7152 18.1744C36.7152 17.1221 35.8621 16.2689 34.8098 16.2689C33.7575 16.2689 32.9043 17.1221 32.9043 18.1744C32.9043 19.2267 33.7575 20.0796 34.8098 20.0796Z" fill="#FB7C26"/>
<path d="M51.0048 20.0796C52.0571 20.0796 52.9103 19.2267 52.9103 18.1744C52.9103 17.1221 52.0571 16.2689 51.0048 16.2689C49.9525 16.2689 49.0994 17.1221 49.0994 18.1744C49.0994 19.2267 49.9525 20.0796 51.0048 20.0796Z" fill="#FB7C26"/>
<path d="M67.1274 19.86C68.0583 19.86 68.8128 19.1053 68.8128 18.1744C68.8128 17.2436 68.0583 16.4889 67.1274 16.4889C66.1965 16.4889 65.442 17.2436 65.442 18.1744C65.442 19.1053 66.1965 19.86 67.1274 19.86Z" fill="#FB7C26"/>
<path d="M83.323 19.7136C84.1729 19.7136 84.862 19.0247 84.862 18.1748C84.862 17.3248 84.1729 16.6357 83.323 16.6357C82.473 16.6357 81.784 17.3248 81.784 18.1748C81.784 19.0247 82.473 19.7136 83.323 19.7136Z" fill="#FB7C26"/>
<path d="M115.641 20.5929C116.976 20.5929 118.059 19.5101 118.059 18.1745C118.059 16.8389 116.976 15.7561 115.641 15.7561C114.305 15.7561 113.222 16.8389 113.222 18.1745C113.222 19.5101 114.305 20.5929 115.641 20.5929Z" fill="#FB7C26"/>
<path d="M131.837 19.6403C132.646 19.6403 133.302 18.9841 133.302 18.1747C133.302 17.3652 132.646 16.709 131.837 16.709C131.027 16.709 130.371 17.3652 130.371 18.1747C130.371 18.9841 131.027 19.6403 131.837 19.6403Z" fill="#FB7C26"/>
<path d="M147.96 20.446C149.215 20.446 150.232 19.429 150.232 18.1743C150.232 16.9196 149.215 15.9025 147.96 15.9025C146.705 15.9025 145.689 16.9196 145.689 18.1743C145.689 19.429 146.705 20.446 147.96 20.446Z" fill="#FB7C26"/>
<path d="M164.154 20.0062C165.166 20.0062 165.986 19.186 165.986 18.1741C165.986 17.1623 165.166 16.342 164.154 16.342C163.143 16.342 162.322 17.1623 162.322 18.1741C162.322 19.186 163.143 20.0062 164.154 20.0062Z" fill="#FB7C26"/>
<path d="M180.276 19.4936C181.004 19.4936 181.595 18.903 181.595 18.1745C181.595 17.446 181.004 16.8553 180.276 16.8553C179.547 16.8553 178.957 17.446 178.957 18.1745C178.957 18.903 179.547 19.4936 180.276 19.4936Z" fill="#FB7C26"/>
<path d="M196.474 20.5198C197.769 20.5198 198.819 19.4699 198.819 18.1747C198.819 16.8796 197.769 15.8297 196.474 15.8297C195.179 15.8297 194.129 16.8796 194.129 18.1747C194.129 19.4699 195.179 20.5198 196.474 20.5198Z" fill="#FB7C26"/>
<path d="M212.594 20.0062C213.606 20.0062 214.427 19.186 214.427 18.1741C214.427 17.1623 213.606 16.342 212.594 16.342C211.583 16.342 210.762 17.1623 210.762 18.1741C210.762 19.186 211.583 20.0062 212.594 20.0062Z" fill="#FB7C26"/>
<path d="M228.791 19.7865C229.682 19.7865 230.403 19.0647 230.403 18.1743C230.403 17.2839 229.682 16.5621 228.791 16.5621C227.901 16.5621 227.179 17.2839 227.179 18.1743C227.179 19.0647 227.901 19.7865 228.791 19.7865Z" fill="#FB7C26"/>
<path d="M18.6145 35.9083C19.4644 35.9083 20.1535 35.2192 20.1535 34.3693C20.1535 33.5193 19.4644 32.8304 18.6145 32.8304C17.7645 32.8304 17.0758 33.5193 17.0758 34.3693C17.0758 35.2192 17.7645 35.9083 18.6145 35.9083Z" fill="#FB7C26"/>
<path d="M2.49142 84.4227C3.34136 84.4227 4.03045 83.7338 4.03045 82.8839C4.03045 82.0339 3.34136 81.3448 2.49142 81.3448C1.64148 81.3448 0.952759 82.0339 0.952759 82.8839C0.952759 83.7338 1.64148 84.4227 2.49142 84.4227Z" fill="#FB7C26"/>
<path d="M34.8094 35.8355C35.6189 35.8355 36.2751 35.1793 36.2751 34.3698C36.2751 33.5604 35.6189 32.9042 34.8094 32.9042C34 32.9042 33.3438 33.5604 33.3438 34.3698C33.3438 35.1793 34 35.8355 34.8094 35.8355Z" fill="#FB7C26"/>
<path d="M51.0049 36.1291C51.9762 36.1291 52.7636 35.3415 52.7636 34.3702C52.7636 33.3988 51.9762 32.6115 51.0049 32.6115C50.0335 32.6115 49.2462 33.3988 49.2462 34.3702C49.2462 35.3415 50.0335 36.1291 51.0049 36.1291Z" fill="#FB7C26"/>
<path d="M67.1273 36.4219C68.2605 36.4219 69.1791 35.5032 69.1791 34.3699C69.1791 33.2367 68.2605 32.3181 67.1273 32.3181C65.994 32.3181 65.0755 33.2367 65.0755 34.3699C65.0755 35.5032 65.994 36.4219 67.1273 36.4219Z" fill="#FB7C26"/>
<path d="M83.3235 36.4219C84.4568 36.4219 85.3753 35.5032 85.3753 34.3699C85.3753 33.2367 84.4568 32.3181 83.3235 32.3181C82.1903 32.3181 81.2714 33.2367 81.2714 34.3699C81.2714 35.5032 82.1903 36.4219 83.3235 36.4219Z" fill="#FB7C26"/>
<path d="M99.446 36.1291C100.417 36.1291 101.205 35.3415 101.205 34.3702C101.205 33.3988 100.417 32.6115 99.446 32.6115C98.4746 32.6115 97.6873 33.3988 97.6873 34.3702C97.6873 35.3415 98.4746 36.1291 99.446 36.1291Z" fill="#FB7C26"/>
<path d="M115.641 36.1291C116.613 36.1291 117.4 35.3415 117.4 34.3702C117.4 33.3988 116.613 32.6115 115.641 32.6115C114.67 32.6115 113.882 33.3988 113.882 34.3702C113.882 35.3415 114.67 36.1291 115.641 36.1291Z" fill="#FB7C26"/>
<path d="M131.836 35.9824C132.726 35.9824 133.448 35.2604 133.448 34.37C133.448 33.4796 132.726 32.7578 131.836 32.7578C130.946 32.7578 130.224 33.4796 130.224 34.37C130.224 35.2604 130.946 35.9824 131.836 35.9824Z" fill="#FB7C26"/>
<path d="M147.96 36.6417C149.215 36.6417 150.232 35.6245 150.232 34.3698C150.232 33.1151 149.215 32.0981 147.96 32.0981C146.705 32.0981 145.689 33.1151 145.689 34.3698C145.689 35.6245 146.705 36.6417 147.96 36.6417Z" fill="#FB7C26"/>
<path d="M164.155 35.9824C165.046 35.9824 165.767 35.2604 165.767 34.37C165.767 33.4796 165.046 32.7578 164.155 32.7578C163.265 32.7578 162.543 33.4796 162.543 34.37C162.543 35.2604 163.265 35.9824 164.155 35.9824Z" fill="#FB7C26"/>
<path d="M180.278 35.9824C181.168 35.9824 181.89 35.2604 181.89 34.37C181.89 33.4796 181.168 32.7578 180.278 32.7578C179.388 32.7578 178.666 33.4796 178.666 34.37C178.666 35.2604 179.388 35.9824 180.278 35.9824Z" fill="#FB7C26"/>
<path d="M196.473 35.6891C197.202 35.6891 197.792 35.0985 197.792 34.37C197.792 33.6415 197.202 33.051 196.473 33.051C195.745 33.051 195.155 33.6415 195.155 34.37C195.155 35.0985 195.745 35.6891 196.473 35.6891Z" fill="#FB7C26"/>
<path d="M212.596 36.3488C213.689 36.3488 214.575 35.4628 214.575 34.37C214.575 33.2772 213.689 32.3914 212.596 32.3914C211.503 32.3914 210.617 33.2772 210.617 34.37C210.617 35.4628 211.503 36.3488 212.596 36.3488Z" fill="#FB7C26"/>
<path d="M228.791 35.9824C229.682 35.9824 230.403 35.2604 230.403 34.37C230.403 33.4796 229.682 32.7578 228.791 32.7578C227.901 32.7578 227.179 33.4796 227.179 34.37C227.179 35.2604 227.901 35.9824 228.791 35.9824Z" fill="#FB7C26"/>
<path d="M18.6144 52.3972C19.6667 52.3972 20.5198 51.5441 20.5198 50.4918C20.5198 49.4395 19.6667 48.5865 18.6144 48.5865C17.5621 48.5865 16.7093 49.4395 16.7093 50.4918C16.7093 51.5441 17.5621 52.3972 18.6144 52.3972Z" fill="#FB7C26"/>
<path d="M34.8106 52.8372C36.1057 52.8372 37.1558 51.7871 37.1558 50.492C37.1558 49.1969 36.1057 48.147 34.8106 48.147C33.5154 48.147 32.4657 49.1969 32.4657 50.492C32.4657 51.7871 33.5154 52.8372 34.8106 52.8372Z" fill="#FB7C26"/>
<path d="M51.0049 52.251C51.9762 52.251 52.7636 51.4635 52.7636 50.4921C52.7636 49.5208 51.9762 48.7334 51.0049 48.7334C50.0335 48.7334 49.2462 49.5208 49.2462 50.4921C49.2462 51.4635 50.0335 52.251 51.0049 52.251Z" fill="#FB7C26"/>
<path d="M67.1273 52.1048C68.0177 52.1048 68.7396 51.3829 68.7396 50.4924C68.7396 49.602 68.0177 48.8802 67.1273 48.8802C66.2369 48.8802 65.5149 49.602 65.5149 50.4924C65.5149 51.3829 66.2369 52.1048 67.1273 52.1048Z" fill="#FB7C26"/>
<path d="M83.3246 52.251C84.296 52.251 85.0834 51.4635 85.0834 50.4921C85.0834 49.5208 84.296 48.7334 83.3246 48.7334C82.3533 48.7334 81.5659 49.5208 81.5659 50.4921C81.5659 51.4635 82.3533 52.251 83.3246 52.251Z" fill="#FB7C26"/>
<path d="M99.446 52.251C100.417 52.251 101.205 51.4635 101.205 50.4921C101.205 49.5208 100.417 48.7334 99.446 48.7334C98.4746 48.7334 97.6873 49.5208 97.6873 50.4921C97.6873 51.4635 98.4746 52.251 99.446 52.251Z" fill="#FB7C26"/>
<path d="M115.64 52.1048C116.531 52.1048 117.252 51.3829 117.252 50.4924C117.252 49.602 116.531 48.8802 115.64 48.8802C114.75 48.8802 114.028 49.602 114.028 50.4924C114.028 51.3829 114.75 52.1048 115.64 52.1048Z" fill="#FB7C26"/>
<path d="M131.836 52.8372C133.131 52.8372 134.181 51.7871 134.181 50.492C134.181 49.1969 133.131 48.147 131.836 48.147C130.541 48.147 129.491 49.1969 129.491 50.492C129.491 51.7871 130.541 52.8372 131.836 52.8372Z" fill="#FB7C26"/>
<path d="M147.959 51.8847C148.728 51.8847 149.352 51.2612 149.352 50.4922C149.352 49.7232 148.728 49.0999 147.959 49.0999C147.19 49.0999 146.567 49.7232 146.567 50.4922C146.567 51.2612 147.19 51.8847 147.959 51.8847Z" fill="#FB7C26"/>
<path d="M164.154 52.324C165.166 52.324 165.986 51.5037 165.986 50.4919C165.986 49.48 165.166 48.6598 164.154 48.6598C163.143 48.6598 162.322 49.48 162.322 50.4919C162.322 51.5037 163.143 52.324 164.154 52.324Z" fill="#FB7C26"/>
<path d="M180.277 52.324C181.289 52.324 182.109 51.5037 182.109 50.4919C182.109 49.48 181.289 48.6598 180.277 48.6598C179.265 48.6598 178.445 49.48 178.445 50.4919C178.445 51.5037 179.265 52.324 180.277 52.324Z" fill="#FB7C26"/>
<path d="M196.473 52.4708C197.566 52.4708 198.452 51.5848 198.452 50.492C198.452 49.3993 197.566 48.5134 196.473 48.5134C195.381 48.5134 194.495 49.3993 194.495 50.492C194.495 51.5848 195.381 52.4708 196.473 52.4708Z" fill="#FB7C26"/>
<path d="M212.596 52.4708C213.689 52.4708 214.575 51.5848 214.575 50.492C214.575 49.3993 213.689 48.5134 212.596 48.5134C211.503 48.5134 210.617 49.3993 210.617 50.492C210.617 51.5848 211.503 52.4708 212.596 52.4708Z" fill="#FB7C26"/>
<path d="M228.791 52.4708C229.884 52.4708 230.77 51.5848 230.77 50.492C230.77 49.3993 229.884 48.5134 228.791 48.5134C227.699 48.5134 226.813 49.3993 226.813 50.492C226.813 51.5848 227.699 52.4708 228.791 52.4708Z" fill="#FB7C26"/>
<path d="M18.6144 68.5931C19.6667 68.5931 20.5198 67.74 20.5198 66.6877C20.5198 65.6354 19.6667 64.7822 18.6144 64.7822C17.5621 64.7822 16.7093 65.6354 16.7093 66.6877C16.7093 67.74 17.5621 68.5931 18.6144 68.5931Z" fill="#FB7C26"/>
<path d="M34.8106 69.0327C36.1057 69.0327 37.1558 67.9828 37.1558 66.6877C37.1558 65.3925 36.1057 64.3427 34.8106 64.3427C33.5154 64.3427 32.4657 65.3925 32.4657 66.6877C32.4657 67.9828 33.5154 69.0327 34.8106 69.0327Z" fill="#FB7C26"/>
<path d="M51.0049 69.3991C52.5024 69.3991 53.7166 68.1852 53.7166 66.6876C53.7166 65.1901 52.5024 63.9762 51.0049 63.9762C49.5074 63.9762 48.2933 65.1901 48.2933 66.6876C48.2933 68.1852 49.5074 69.3991 51.0049 69.3991Z" fill="#FB7C26"/>
<path d="M67.1281 69.0327C68.4232 69.0327 69.4733 67.9828 69.4733 66.6877C69.4733 65.3925 68.4232 64.3427 67.1281 64.3427C65.8329 64.3427 64.7829 65.3925 64.7829 66.6877C64.7829 67.9828 65.8329 69.0327 67.1281 69.0327Z" fill="#FB7C26"/>
<path d="M83.3236 69.7656C85.0235 69.7656 86.4013 68.3876 86.4013 66.6877C86.4013 64.9879 85.0235 63.6099 83.3236 63.6099C81.6238 63.6099 80.2456 64.9879 80.2456 66.6877C80.2456 68.3876 81.6238 69.7656 83.3236 69.7656Z" fill="#FB7C26"/>
<path d="M99.4451 69.3991C100.943 69.3991 102.156 68.1852 102.156 66.6876C102.156 65.1901 100.943 63.9762 99.4451 63.9762C97.9476 63.9762 96.7335 65.1901 96.7335 66.6876C96.7335 68.1852 97.9476 69.3991 99.4451 69.3991Z" fill="#FB7C26"/>
<path d="M115.641 69.3991C117.138 69.3991 118.352 68.1852 118.352 66.6876C118.352 65.1901 117.138 63.9762 115.641 63.9762C114.143 63.9762 112.929 65.1901 112.929 66.6876C112.929 68.1852 114.143 69.3991 115.641 69.3991Z" fill="#FB7C26"/>
<path d="M131.836 69.0327C133.131 69.0327 134.181 67.9828 134.181 66.6877C134.181 65.3925 133.131 64.3427 131.836 64.3427C130.541 64.3427 129.491 65.3925 129.491 66.6877C129.491 67.9828 130.541 69.0327 131.836 69.0327Z" fill="#FB7C26"/>
<path d="M147.96 69.3265C149.417 69.3265 150.598 68.1452 150.598 66.6882C150.598 65.2312 149.417 64.0499 147.96 64.0499C146.503 64.0499 145.322 65.2312 145.322 66.6882C145.322 68.1452 146.503 69.3265 147.96 69.3265Z" fill="#FB7C26"/>
<path d="M164.154 69.1799C165.53 69.1799 166.645 68.0644 166.645 66.6883C166.645 65.3122 165.53 64.1968 164.154 64.1968C162.778 64.1968 161.662 65.3122 161.662 66.6883C161.662 68.0644 162.778 69.1799 164.154 69.1799Z" fill="#FB7C26"/>
<path d="M180.277 68.5201C181.289 68.5201 182.109 67.6999 182.109 66.688C182.109 65.6762 181.289 64.856 180.277 64.856C179.265 64.856 178.445 65.6762 178.445 66.688C178.445 67.6999 179.265 68.5201 180.277 68.5201Z" fill="#FB7C26"/>
<path d="M196.474 69.0327C197.769 69.0327 198.819 67.9828 198.819 66.6877C198.819 65.3925 197.769 64.3427 196.474 64.3427C195.179 64.3427 194.129 65.3925 194.129 66.6877C194.129 67.9828 195.179 69.0327 196.474 69.0327Z" fill="#FB7C26"/>
<path d="M212.595 69.6924C214.254 69.6924 215.599 68.3471 215.599 66.6877C215.599 65.0283 214.254 63.683 212.595 63.683C210.935 63.683 209.59 65.0283 209.59 66.6877C209.59 68.3471 210.935 69.6924 212.595 69.6924Z" fill="#FB7C26"/>
<path d="M228.792 68.8134C229.966 68.8134 230.917 67.862 230.917 66.6883C230.917 65.5145 229.966 64.5631 228.792 64.5631C227.618 64.5631 226.667 65.5145 226.667 66.6883C226.667 67.862 227.618 68.8134 228.792 68.8134Z" fill="#FB7C26"/>
<path d="M18.612 84.8627C19.7048 84.8627 20.5908 83.9768 20.5908 82.8841C20.5908 81.7913 19.7048 80.9053 18.612 80.9053C17.5193 80.9053 16.6336 81.7913 16.6336 82.8841C16.6336 83.9768 17.5193 84.8627 18.612 84.8627Z" fill="#FB7C26"/>
<path d="M34.8106 85.2286C36.1057 85.2286 37.1558 84.1787 37.1558 82.8835C37.1558 81.5884 36.1057 80.5383 34.8106 80.5383C33.5154 80.5383 32.4657 81.5884 32.4657 82.8835C32.4657 84.1787 33.5154 85.2286 34.8106 85.2286Z" fill="#FB7C26"/>
<path d="M51.0059 85.8151C52.6249 85.8151 53.9373 84.5027 53.9373 82.8837C53.9373 81.2648 52.6249 79.9524 51.0059 79.9524C49.387 79.9524 48.0746 81.2648 48.0746 82.8837C48.0746 84.5027 49.387 85.8151 51.0059 85.8151Z" fill="#FB7C26"/>
<path d="M67.1282 84.8627C68.221 84.8627 69.107 83.9768 69.107 82.8841C69.107 81.7913 68.221 80.9053 67.1282 80.9053C66.0354 80.9053 65.1494 81.7913 65.1494 82.8841C65.1494 83.9768 66.0354 84.8627 67.1282 84.8627Z" fill="#FB7C26"/>
<path d="M83.3231 85.8151C84.942 85.8151 86.2544 84.5027 86.2544 82.8837C86.2544 81.2648 84.942 79.9524 83.3231 79.9524C81.7041 79.9524 80.3917 81.2648 80.3917 82.8837C80.3917 84.5027 81.7041 85.8151 83.3231 85.8151Z" fill="#FB7C26"/>
<path d="M99.4465 85.3022C100.782 85.3022 101.865 84.2196 101.865 82.884C101.865 81.5483 100.782 80.4656 99.4465 80.4656C98.1109 80.4656 97.028 81.5483 97.028 82.884C97.028 84.2196 98.1109 85.3022 99.4465 85.3022Z" fill="#FB7C26"/>
<path d="M115.641 85.2286C116.936 85.2286 117.986 84.1787 117.986 82.8835C117.986 81.5884 116.936 80.5383 115.641 80.5383C114.346 80.5383 113.296 81.5884 113.296 82.8835C113.296 84.1787 114.346 85.2286 115.641 85.2286Z" fill="#FB7C26"/>
<path d="M131.836 85.3022C133.172 85.3022 134.255 84.2196 134.255 82.884C134.255 81.5483 133.172 80.4656 131.836 80.4656C130.501 80.4656 129.418 81.5483 129.418 82.884C129.418 84.2196 130.501 85.3022 131.836 85.3022Z" fill="#FB7C26"/>
<path d="M147.959 85.3022C149.295 85.3022 150.378 84.2196 150.378 82.884C150.378 81.5483 149.295 80.4656 147.959 80.4656C146.624 80.4656 145.541 81.5483 145.541 82.884C145.541 84.2196 146.624 85.3022 147.959 85.3022Z" fill="#FB7C26"/>
<path d="M164.154 85.0822C165.369 85.0822 166.353 84.0979 166.353 82.8837C166.353 81.6695 165.369 80.6852 164.154 80.6852C162.94 80.6852 161.956 81.6695 161.956 82.8837C161.956 84.0979 162.94 85.0822 164.154 85.0822Z" fill="#FB7C26"/>
<path d="M180.277 85.8888C181.936 85.8888 183.281 84.5437 183.281 82.8843C183.281 81.2249 181.936 79.8796 180.277 79.8796C178.617 79.8796 177.272 81.2249 177.272 82.8843C177.272 84.5437 178.617 85.8888 180.277 85.8888Z" fill="#FB7C26"/>
<path d="M196.472 84.7886C197.524 84.7886 198.377 83.9356 198.377 82.8833C198.377 81.831 197.524 80.9779 196.472 80.9779C195.42 80.9779 194.567 81.831 194.567 82.8833C194.567 83.9356 195.42 84.7886 196.472 84.7886Z" fill="#FB7C26"/>
<path d="M212.594 85.0822C213.809 85.0822 214.793 84.0979 214.793 82.8837C214.793 81.6695 213.809 80.6852 212.594 80.6852C211.38 80.6852 210.396 81.6695 210.396 82.8837C210.396 84.0979 211.38 85.0822 212.594 85.0822Z" fill="#FB7C26"/>
<path d="M228.789 85.8888C230.449 85.8888 231.794 84.5437 231.794 82.8843C231.794 81.2249 230.449 79.8796 228.789 79.8796C227.13 79.8796 225.785 81.2249 225.785 82.8843C225.785 84.5437 227.13 85.8888 228.789 85.8888Z" fill="#FB7C26"/>
<path d="M34.8096 101.497C36.1856 101.497 37.3011 100.382 37.3011 99.0057C37.3011 97.6296 36.1856 96.5139 34.8096 96.5139C33.4335 96.5139 32.318 97.6296 32.318 99.0057C32.318 100.382 33.4335 101.497 34.8096 101.497Z" fill="#FB7C26"/>
<path d="M51.0046 101.497C52.3807 101.497 53.4961 100.382 53.4961 99.0057C53.4961 97.6296 52.3807 96.5139 51.0046 96.5139C49.6285 96.5139 48.513 97.6296 48.513 99.0057C48.513 100.382 49.6285 101.497 51.0046 101.497Z" fill="#FB7C26"/>
<path d="M67.1258 101.497C68.5019 101.497 69.6174 100.382 69.6174 99.0057C69.6174 97.6296 68.5019 96.5139 67.1258 96.5139C65.7497 96.5139 64.6343 97.6296 64.6343 99.0057C64.6343 100.382 65.7497 101.497 67.1258 101.497Z" fill="#FB7C26"/>
<path d="M83.3231 101.937C84.942 101.937 86.2544 100.625 86.2544 99.0057C86.2544 97.3867 84.942 96.0743 83.3231 96.0743C81.7041 96.0743 80.3917 97.3867 80.3917 99.0057C80.3917 100.625 81.7041 101.937 83.3231 101.937Z" fill="#FB7C26"/>
<path d="M99.446 100.764C100.417 100.764 101.205 99.9771 101.205 99.0057C101.205 98.0344 100.417 97.2468 99.446 97.2468C98.4746 97.2468 97.6873 98.0344 97.6873 99.0057C97.6873 99.9771 98.4746 100.764 99.446 100.764Z" fill="#FB7C26"/>
<path d="M115.641 101.717C117.138 101.717 118.352 100.503 118.352 99.0056C118.352 97.5081 117.138 96.2939 115.641 96.2939C114.143 96.2939 112.929 97.5081 112.929 99.0056C112.929 100.503 114.143 101.717 115.641 101.717Z" fill="#FB7C26"/>
<path d="M131.836 101.717C133.333 101.717 134.547 100.503 134.547 99.0056C134.547 97.5081 133.333 96.2939 131.836 96.2939C130.338 96.2939 129.124 97.5081 129.124 99.0056C129.124 100.503 130.338 101.717 131.836 101.717Z" fill="#FB7C26"/>
<path d="M147.958 101.717C149.455 101.717 150.669 100.503 150.669 99.0056C150.669 97.5081 149.455 96.2939 147.958 96.2939C146.46 96.2939 145.246 97.5081 145.246 99.0056C145.246 100.503 146.46 101.717 147.958 101.717Z" fill="#FB7C26"/>
<path d="M164.154 101.497C165.53 101.497 166.645 100.382 166.645 99.0057C166.645 97.6296 165.53 96.5139 164.154 96.5139C162.778 96.5139 161.662 97.6296 161.662 99.0057C161.662 100.382 162.778 101.497 164.154 101.497Z" fill="#FB7C26"/>
<path d="M180.278 100.985C181.371 100.985 182.257 100.099 182.257 99.006C182.257 97.9132 181.371 97.0272 180.278 97.0272C179.185 97.0272 178.299 97.9132 178.299 99.006C178.299 100.099 179.185 100.985 180.278 100.985Z" fill="#FB7C26"/>
<path d="M196.474 102.45C198.376 102.45 199.918 100.908 199.918 99.0055C199.918 97.1033 198.376 95.561 196.474 95.561C194.571 95.561 193.029 97.1033 193.029 99.0055C193.029 100.908 194.571 102.45 196.474 102.45Z" fill="#FB7C26"/>
<path d="M212.595 102.01C214.254 102.01 215.599 100.665 215.599 99.0059C215.599 97.3465 214.254 96.0012 212.595 96.0012C210.935 96.0012 209.59 97.3465 209.59 99.0059C209.59 100.665 210.935 102.01 212.595 102.01Z" fill="#FB7C26"/>
<path d="M228.79 101.571C230.207 101.571 231.355 100.423 231.355 99.0062C231.355 97.5896 230.207 96.4413 228.79 96.4413C227.374 96.4413 226.225 97.5896 226.225 99.0062C226.225 100.423 227.374 101.571 228.79 101.571Z" fill="#FB7C26"/>
<path d="M34.8098 117.107C35.8621 117.107 36.7152 116.254 36.7152 115.201C36.7152 114.149 35.8621 113.296 34.8098 113.296C33.7575 113.296 32.9043 114.149 32.9043 115.201C32.9043 116.254 33.7575 117.107 34.8098 117.107Z" fill="#FB7C26"/>
<path d="M51.0048 117.107C52.0571 117.107 52.9103 116.254 52.9103 115.201C52.9103 114.149 52.0571 113.296 51.0048 113.296C49.9525 113.296 49.0994 114.149 49.0994 115.201C49.0994 116.254 49.9525 117.107 51.0048 117.107Z" fill="#FB7C26"/>
<path d="M67.1277 117.107C68.18 117.107 69.0332 116.254 69.0332 115.201C69.0332 114.149 68.18 113.296 67.1277 113.296C66.0754 113.296 65.2223 114.149 65.2223 115.201C65.2223 116.254 66.0754 117.107 67.1277 117.107Z" fill="#FB7C26"/>
<path d="M83.3223 117.4C84.5365 117.4 85.5208 116.416 85.5208 115.201C85.5208 113.987 84.5365 113.003 83.3223 113.003C82.1081 113.003 81.1238 113.987 81.1238 115.201C81.1238 116.416 82.1081 117.4 83.3223 117.4Z" fill="#FB7C26"/>
<path d="M99.4465 117.62C100.782 117.62 101.865 116.537 101.865 115.201C101.865 113.866 100.782 112.783 99.4465 112.783C98.1109 112.783 97.028 113.866 97.028 115.201C97.028 116.537 98.1109 117.62 99.4465 117.62Z" fill="#FB7C26"/>
<path d="M115.641 118.133C117.26 118.133 118.572 116.82 118.572 115.201C118.572 113.582 117.26 112.27 115.641 112.27C114.022 112.27 112.71 113.582 112.71 115.201C112.71 116.82 114.022 118.133 115.641 118.133Z" fill="#FB7C26"/>
<path d="M131.837 118.133C133.456 118.133 134.768 116.82 134.768 115.201C134.768 113.582 133.456 112.27 131.837 112.27C130.218 112.27 128.906 113.582 128.906 115.201C128.906 116.82 130.218 118.133 131.837 118.133Z" fill="#FB7C26"/>
<path d="M147.96 118.206C149.619 118.206 150.965 116.861 150.965 115.201C150.965 113.542 149.619 112.197 147.96 112.197C146.3 112.197 144.956 113.542 144.956 115.201C144.956 116.861 146.3 118.206 147.96 118.206Z" fill="#FB7C26"/>
<path d="M164.154 117.4C165.369 117.4 166.353 116.416 166.353 115.201C166.353 113.987 165.369 113.003 164.154 113.003C162.94 113.003 161.956 113.987 161.956 115.201C161.956 116.416 162.94 117.4 164.154 117.4Z" fill="#FB7C26"/>
<path d="M180.277 117.033C181.289 117.033 182.109 116.213 182.109 115.201C182.109 114.19 181.289 113.369 180.277 113.369C179.265 113.369 178.445 114.19 178.445 115.201C178.445 116.213 179.265 117.033 180.277 117.033Z" fill="#FB7C26"/>
<path d="M196.474 118.646C198.376 118.646 199.918 117.104 199.918 115.201C199.918 113.299 198.376 111.757 196.474 111.757C194.571 111.757 193.029 113.299 193.029 115.201C193.029 117.104 194.571 118.646 196.474 118.646Z" fill="#FB7C26"/>
<path d="M212.594 117.4C213.809 117.4 214.793 116.416 214.793 115.201C214.793 113.987 213.809 113.003 212.594 113.003C211.38 113.003 210.396 113.987 210.396 115.201C210.396 116.416 211.38 117.4 212.594 117.4Z" fill="#FB7C26"/>
<path d="M228.789 118.206C230.449 118.206 231.794 116.861 231.794 115.201C231.794 113.542 230.449 112.197 228.789 112.197C227.13 112.197 225.785 113.542 225.785 115.201C225.785 116.861 227.13 118.206 228.789 118.206Z" fill="#FB7C26"/>
<path d="M18.6144 133.229C19.6667 133.229 20.5198 132.376 20.5198 131.324C20.5198 130.272 19.6667 129.419 18.6144 129.419C17.5621 129.419 16.7093 130.272 16.7093 131.324C16.7093 132.376 17.5621 133.229 18.6144 133.229Z" fill="#FB7C26"/>
<path d="M34.8096 133.816C36.1856 133.816 37.3011 132.7 37.3011 131.324C37.3011 129.948 36.1856 128.833 34.8096 128.833C33.4335 128.833 32.318 129.948 32.318 131.324C32.318 132.7 33.4335 133.816 34.8096 133.816Z" fill="#FB7C26"/>
<path d="M2.49156 166.134C3.86765 166.134 4.98348 165.018 4.98348 163.642C4.98348 162.266 3.86765 161.15 2.49156 161.15C1.11547 161.15 0 162.266 0 163.642C0 165.018 1.11547 166.134 2.49156 166.134Z" fill="#FB7C26"/>
<path d="M51.0046 133.816C52.3807 133.816 53.4961 132.7 53.4961 131.324C53.4961 129.948 52.3807 128.833 51.0046 128.833C49.6285 128.833 48.513 129.948 48.513 131.324C48.513 132.7 49.6285 133.816 51.0046 133.816Z" fill="#FB7C26"/>
<path d="M67.1278 134.401C68.8276 134.401 70.2058 133.023 70.2058 131.324C70.2058 129.624 68.8276 128.246 67.1278 128.246C65.4279 128.246 64.0497 129.624 64.0497 131.324C64.0497 133.023 65.4279 134.401 67.1278 134.401Z" fill="#FB7C26"/>
<path d="M83.3231 134.255C84.942 134.255 86.2544 132.943 86.2544 131.324C86.2544 129.705 84.942 128.393 83.3231 128.393C81.7041 128.393 80.3917 129.705 80.3917 131.324C80.3917 132.943 81.7041 134.255 83.3231 134.255Z" fill="#FB7C26"/>
<path d="M99.446 133.083C100.417 133.083 101.205 132.295 101.205 131.324C101.205 130.352 100.417 129.565 99.446 129.565C98.4746 129.565 97.6873 130.352 97.6873 131.324C97.6873 132.295 98.4746 133.083 99.446 133.083Z" fill="#FB7C26"/>
<path d="M115.641 134.255C117.26 134.255 118.572 132.943 118.572 131.324C118.572 129.705 117.26 128.393 115.641 128.393C114.022 128.393 112.71 129.705 112.71 131.324C112.71 132.943 114.022 134.255 115.641 134.255Z" fill="#FB7C26"/>
<path d="M131.836 134.842C133.779 134.842 135.354 133.267 135.354 131.324C135.354 129.381 133.779 127.807 131.836 127.807C129.893 127.807 128.318 129.381 128.318 131.324C128.318 133.267 129.893 134.842 131.836 134.842Z" fill="#FB7C26"/>
<path d="M147.96 134.329C149.619 134.329 150.965 132.983 150.965 131.324C150.965 129.664 149.619 128.319 147.96 128.319C146.3 128.319 144.956 129.664 144.956 131.324C144.956 132.983 146.3 134.329 147.96 134.329Z" fill="#FB7C26"/>
<path d="M164.155 134.842C166.097 134.842 167.673 133.267 167.673 131.324C167.673 129.381 166.097 127.807 164.155 127.807C162.212 127.807 160.637 129.381 160.637 131.324C160.637 133.267 162.212 134.842 164.155 134.842Z" fill="#FB7C26"/>
<path d="M180.276 134.842C182.219 134.842 183.794 133.267 183.794 131.324C183.794 129.381 182.219 127.807 180.276 127.807C178.333 127.807 176.758 129.381 176.758 131.324C176.758 133.267 178.333 134.842 180.276 134.842Z" fill="#FB7C26"/>
<path d="M196.472 135.061C198.536 135.061 200.21 133.388 200.21 131.324C200.21 129.26 198.536 127.587 196.472 127.587C194.408 127.587 192.735 129.26 192.735 131.324C192.735 133.388 194.408 135.061 196.472 135.061Z" fill="#FB7C26"/>
<path d="M212.594 133.889C214.011 133.889 215.159 132.74 215.159 131.324C215.159 129.907 214.011 128.759 212.594 128.759C211.178 128.759 210.029 129.907 210.029 131.324C210.029 132.74 211.178 133.889 212.594 133.889Z" fill="#FB7C26"/>
<path d="M228.791 134.548C230.572 134.548 232.016 133.104 232.016 131.323C232.016 129.542 230.572 128.099 228.791 128.099C227.01 128.099 225.567 129.542 225.567 131.323C225.567 133.104 227.01 134.548 228.791 134.548Z" fill="#FB7C26"/>
<path d="M228.79 167.16C230.733 167.16 232.308 165.585 232.308 163.642C232.308 161.699 230.733 160.124 228.79 160.124C226.847 160.124 225.272 161.699 225.272 163.642C225.272 165.585 226.847 167.16 228.79 167.16Z" fill="#FB7C26"/>
<path d="M212.595 167.16C214.538 167.16 216.112 165.585 216.112 163.642C216.112 161.699 214.538 160.124 212.595 160.124C210.652 160.124 209.077 161.699 209.077 163.642C209.077 165.585 210.652 167.16 212.595 167.16Z" fill="#FB7C26"/>
<path d="M196.472 167.38C198.536 167.38 200.21 165.706 200.21 163.642C200.21 161.578 198.536 159.905 196.472 159.905C194.408 159.905 192.735 161.578 192.735 163.642C192.735 165.706 194.408 167.38 196.472 167.38Z" fill="#FB7C26"/>
<path d="M180.278 166.207C181.695 166.207 182.843 165.059 182.843 163.642C182.843 162.226 181.695 161.077 180.278 161.077C178.862 161.077 177.713 162.226 177.713 163.642C177.713 165.059 178.862 166.207 180.278 166.207Z" fill="#FB7C26"/>
<path d="M164.155 166.866C165.935 166.866 167.379 165.423 167.379 163.642C167.379 161.861 165.935 160.417 164.155 160.417C162.374 160.417 160.93 161.861 160.93 163.642C160.93 165.423 162.374 166.866 164.155 166.866Z" fill="#FB7C26"/>
<path d="M147.959 166.06C149.295 166.06 150.378 164.978 150.378 163.642C150.378 162.306 149.295 161.224 147.959 161.224C146.624 161.224 145.541 162.306 145.541 163.642C145.541 164.978 146.624 166.06 147.959 166.06Z" fill="#FB7C26"/>
<path d="M131.837 166.207C133.254 166.207 134.402 165.059 134.402 163.642C134.402 162.226 133.254 161.077 131.837 161.077C130.421 161.077 129.272 162.226 129.272 163.642C129.272 165.059 130.421 166.207 131.837 166.207Z" fill="#FB7C26"/>
<path d="M115.641 167.526C117.786 167.526 119.525 165.787 119.525 163.642C119.525 161.497 117.786 159.758 115.641 159.758C113.496 159.758 111.757 161.497 111.757 163.642C111.757 165.787 113.496 167.526 115.641 167.526Z" fill="#FB7C26"/>
<path d="M99.4455 166.793C101.186 166.793 102.597 165.382 102.597 163.642C102.597 161.902 101.186 160.491 99.4455 160.491C97.7051 160.491 96.2941 161.902 96.2941 163.642C96.2941 165.382 97.7051 166.793 99.4455 166.793Z" fill="#FB7C26"/>
<path d="M83.3228 167.306C85.3465 167.306 86.987 165.666 86.987 163.642C86.987 161.618 85.3465 159.978 83.3228 159.978C81.2991 159.978 79.6586 161.618 79.6586 163.642C79.6586 165.666 81.2991 167.306 83.3228 167.306Z" fill="#FB7C26"/>
<path d="M67.1273 167.013C68.9891 167.013 70.4984 165.504 70.4984 163.642C70.4984 161.78 68.9891 160.271 67.1273 160.271C65.2656 160.271 63.7562 161.78 63.7562 163.642C63.7562 165.504 65.2656 167.013 67.1273 167.013Z" fill="#FB7C26"/>
<path d="M51.0057 166.793C52.7461 166.793 54.1568 165.382 54.1568 163.642C54.1568 161.902 52.7461 160.491 51.0057 160.491C49.2654 160.491 47.8547 161.902 47.8547 163.642C47.8547 165.382 49.2654 166.793 51.0057 166.793Z" fill="#FB7C26"/>
<path d="M34.8102 167.013C36.672 167.013 38.1813 165.504 38.1813 163.642C38.1813 161.78 36.672 160.271 34.8102 160.271C32.9484 160.271 31.4391 161.78 31.4391 163.642C31.4391 165.504 32.9484 167.013 34.8102 167.013Z" fill="#FB7C26"/>
<path d="M18.6122 165.254C19.5026 165.254 20.2245 164.532 20.2245 163.642C20.2245 162.751 19.5026 162.03 18.6122 162.03C17.7218 162.03 17.0002 162.751 17.0002 163.642C17.0002 164.532 17.7218 165.254 18.6122 165.254Z" fill="#FB7C26"/>
<path d="M228.79 151.036C230.733 151.036 232.308 149.462 232.308 147.519C232.308 145.576 230.733 144.001 228.79 144.001C226.847 144.001 225.272 145.576 225.272 147.519C225.272 149.462 226.847 151.036 228.79 151.036Z" fill="#FB7C26"/>
<path d="M212.595 151.036C214.538 151.036 216.112 149.462 216.112 147.519C216.112 145.576 214.538 144.001 212.595 144.001C210.652 144.001 209.077 145.576 209.077 147.519C209.077 149.462 210.652 151.036 212.595 151.036Z" fill="#FB7C26"/>
<path d="M196.472 151.257C198.536 151.257 200.21 149.583 200.21 147.519C200.21 145.455 198.536 143.782 196.472 143.782C194.408 143.782 192.735 145.455 192.735 147.519C192.735 149.583 194.408 151.257 196.472 151.257Z" fill="#FB7C26"/>
<path d="M180.278 150.084C181.695 150.084 182.843 148.936 182.843 147.519C182.843 146.102 181.695 144.954 180.278 144.954C178.862 144.954 177.713 146.102 177.713 147.519C177.713 148.936 178.862 150.084 180.278 150.084Z" fill="#FB7C26"/>
<path d="M164.155 150.744C165.935 150.744 167.379 149.3 167.379 147.519C167.379 145.739 165.935 144.295 164.155 144.295C162.374 144.295 160.93 145.739 160.93 147.519C160.93 149.3 162.374 150.744 164.155 150.744Z" fill="#FB7C26"/>
<path d="M147.959 149.938C149.295 149.938 150.378 148.855 150.378 147.52C150.378 146.184 149.295 145.101 147.959 145.101C146.624 145.101 145.541 146.184 145.541 147.52C145.541 148.855 146.624 149.938 147.959 149.938Z" fill="#FB7C26"/>
<path d="M131.837 150.084C133.254 150.084 134.402 148.936 134.402 147.519C134.402 146.102 133.254 144.954 131.837 144.954C130.421 144.954 129.272 146.102 129.272 147.519C129.272 148.936 130.421 150.084 131.837 150.084Z" fill="#FB7C26"/>
<path d="M115.641 151.404C117.786 151.404 119.525 149.665 119.525 147.52C119.525 145.375 117.786 143.636 115.641 143.636C113.496 143.636 111.757 145.375 111.757 147.52C111.757 149.665 113.496 151.404 115.641 151.404Z" fill="#FB7C26"/>
<path d="M99.4455 150.671C101.186 150.671 102.597 149.26 102.597 147.519C102.597 145.779 101.186 144.368 99.4455 144.368C97.7051 144.368 96.2941 145.779 96.2941 147.519C96.2941 149.26 97.7051 150.671 99.4455 150.671Z" fill="#FB7C26"/>
<path d="M83.3228 151.184C85.3465 151.184 86.987 149.543 86.987 147.52C86.987 145.496 85.3465 143.855 83.3228 143.855C81.2991 143.855 79.6586 145.496 79.6586 147.52C79.6586 149.543 81.2991 151.184 83.3228 151.184Z" fill="#FB7C26"/>
<path d="M67.1273 150.891C68.9891 150.891 70.4984 149.381 70.4984 147.52C70.4984 145.658 68.9891 144.149 67.1273 144.149C65.2656 144.149 63.7562 145.658 63.7562 147.52C63.7562 149.381 65.2656 150.891 67.1273 150.891Z" fill="#FB7C26"/>
<path d="M51.0057 150.671C52.7461 150.671 54.1568 149.26 54.1568 147.519C54.1568 145.779 52.7461 144.368 51.0057 144.368C49.2654 144.368 47.8547 145.779 47.8547 147.519C47.8547 149.26 49.2654 150.671 51.0057 150.671Z" fill="#FB7C26"/>
<path d="M34.8102 150.891C36.672 150.891 38.1813 149.381 38.1813 147.52C38.1813 145.658 36.672 144.149 34.8102 144.149C32.9484 144.149 31.4391 145.658 31.4391 147.52C31.4391 149.381 32.9484 150.891 34.8102 150.891Z" fill="#FB7C26"/>
<path d="M18.6122 149.131C19.5026 149.131 20.2245 148.41 20.2245 147.519C20.2245 146.629 19.5026 145.907 18.6122 145.907C17.7218 145.907 17.0002 146.629 17.0002 147.519C17.0002 148.41 17.7218 149.131 18.6122 149.131Z" fill="#FB7C26"/>
<path d="M2.49102 149.131C3.38143 149.131 4.10339 148.41 4.10339 147.519C4.10339 146.629 3.38143 145.907 2.49102 145.907C1.6006 145.907 0.878998 146.629 0.878998 147.519C0.878998 148.41 1.6006 149.131 2.49102 149.131Z" fill="#FB7C26"/>
<path d="M244.985 85.8888C246.645 85.8888 247.99 84.5437 247.99 82.8843C247.99 81.2249 246.645 79.8796 244.985 79.8796C243.326 79.8796 241.981 81.2249 241.981 82.8843C241.981 84.5437 243.326 85.8888 244.985 85.8888Z" fill="#FB7C26"/>
<path d="M244.985 118.206C246.645 118.206 247.99 116.861 247.99 115.201C247.99 113.542 246.645 112.197 244.985 112.197C243.326 112.197 241.981 113.542 241.981 115.201C241.981 116.861 243.326 118.206 244.985 118.206Z" fill="#FB7C26"/>
<path d="M244.987 134.548C246.768 134.548 248.211 133.104 248.211 131.323C248.211 129.542 246.768 128.099 244.987 128.099C243.206 128.099 241.762 129.542 241.762 131.323C241.762 133.104 243.206 134.548 244.987 134.548Z" fill="#FB7C26"/>
<path d="M244.986 167.16C246.929 167.16 248.504 165.585 248.504 163.642C248.504 161.699 246.929 160.124 244.986 160.124C243.043 160.124 241.468 161.699 241.468 163.642C241.468 165.585 243.043 167.16 244.986 167.16Z" fill="#FB7C26"/>
<path d="M244.986 151.036C246.929 151.036 248.504 149.462 248.504 147.519C248.504 145.576 246.929 144.001 244.986 144.001C243.043 144.001 241.468 145.576 241.468 147.519C241.468 149.462 243.043 151.036 244.986 151.036Z" fill="#FB7C26"/>
</svg>
