<svg width="81" height="32" viewBox="0 0 81 32" fill="none" xmlns="http://www.w3.org/2000/svg">
<path opacity="0.45" d="M11.3372 10.9296L2.11151 5.63306L0 9.25554L9.22705 14.5123L11.2986 13.3446L11.3372 13.3048V10.9296Z" fill="#141414"/>
<path opacity="0.45" d="M17.5535 14.5122L15.4819 15.7197V18.1347L20.0162 20.7432V15.953L17.5535 14.5122Z" fill="#141414"/>
<path opacity="0.8" d="M13.4112 12.1356L11.3356 13.3033V10.9294L13.4112 12.1356Z" fill="#141414"/>
<path opacity="0.45" d="M15.4416 0.53125H11.2985L11.337 10.9295L13.4086 12.137L15.4816 10.9295L15.4416 0.53125Z" fill="#141414"/>
<path d="M15.4816 15.7197V31.2183H11.2985V18.1347H11.3357L13.4113 16.9285L15.4816 15.7197Z" fill="#141414"/>
<path d="M53.2054 25.6503L56.5276 27.6756C54.2605 29.8559 52.3445 31.5313 47.8488 31.5313C41.0858 31.5313 39.0142 26.8975 39.0142 24.2095C39.0142 17.8619 45.2689 16.771 47.5361 16.771C55.2371 16.771 56.6447 21.6394 56.215 24.7158H43.3929C43.3929 26.5078 45.0733 28.4549 48.0444 28.4549C49.9603 28.4549 52.149 27.3641 53.204 25.6516L53.2054 25.6503ZM43.667 22.2624H51.7977C51.5236 21.0165 50.0388 19.7705 47.7317 19.7705C45.4246 19.7705 43.9783 20.8998 43.6657 22.2624H43.667Z" fill="#141414"/>
<path d="M71.1485 23.1583C73.3372 23.7031 74.5892 25.1438 74.5493 26.9743C74.5493 30.9467 69.7794 31.5312 67.4737 31.5312C64.3856 31.5312 60.8664 30.675 58.522 27.7152L62.0399 25.7681C62.8608 27.0141 64.6982 28.533 67.5522 28.533C69.5067 28.533 70.6403 28.2216 70.6802 27.3653C70.7188 25.8079 66.6142 25.4964 64.8552 25.2618C64.0343 25.1452 59.4214 24.2876 59.4214 21.1728C59.4214 19.3807 61.4145 16.7722 66.5756 16.7722C71.7366 16.7722 73.9639 18.7578 74.2765 19.3038C73.1815 19.9268 72.1264 20.5498 71.1099 21.1343C69.5466 19.6538 67.0838 19.5769 66.1844 19.5769C64.1913 19.5769 63.4875 20.2383 63.4875 20.8228C63.4875 22.2252 67.0053 22.1085 71.1498 23.1596L71.1485 23.1583Z" fill="#141414"/>
<path d="M80.8056 15.8364V31.2197H76.6225V18.2117L80.8056 15.8364Z" fill="#141414"/>
<path opacity="0.8" d="M11.3362 13.3032V15.7606L9.22736 14.5134L11.3362 13.3032Z" fill="#141414"/>
<path opacity="0.45" d="M11.3372 15.7581L9.22705 14.5122L0 19.8087L2.11151 23.4312L11.3372 18.1347V15.7581Z" fill="#141414"/>
<path opacity="0.8" d="M13.4112 16.9287L11.3356 18.1349V15.761L13.4112 16.9287Z" fill="#141414"/>
<path opacity="0.8" d="M15.4818 10.9294V13.3033L13.4115 12.1356L15.4818 10.9294Z" fill="#141414"/>
<path opacity="0.8" d="M17.5535 14.5133L15.4819 15.7195V13.3442L17.5535 14.5133Z" fill="#141414"/>
<path d="M15.4814 13.3032V15.7195L13.4112 16.9284L11.3356 15.7606V13.3032L13.4112 12.1355L15.4814 13.3032Z" fill="#141414"/>
<path opacity="0.45" d="M26.7778 9.25544L17.5535 14.5135L15.4819 13.3445V10.9295L24.7063 5.63428L26.7778 9.25544Z" fill="#141414"/>
<path d="M80.9995 13.9674L78.6937 15.2531L76.4265 13.9674V11.3576L78.6937 10.0334L80.9995 11.3576V13.9674Z" fill="#141414"/>
<path d="M36.0833 23.002C36.0833 20.1589 34.2073 16.8877 29.2033 16.9261C26.6235 16.9261 25.4114 17.5875 24.0436 18.2887L20.0175 15.9519V31.2186H24.2006V23.0007C24.162 21.2869 25.9995 19.691 28.1096 19.691C30.2198 19.691 31.9016 20.8588 31.9016 23.0007V31.2186H36.0847V23.0007L36.0833 23.002Z" fill="#141414"/>
</svg>
